<svg xmlns="http://www.w3.org/2000/svg" xmlns:xlink="http://www.w3.org/1999/xlink" width="600" height="400" viewBox="0 0 2400 1600">
<defs>
  <clipPath id="clip510">
    <rect x="0" y="0" width="2400" height="1600"></rect>
  </clipPath>
</defs>
<path clip-path="url(#clip510)" d="M0 1600 L2400 1600 L2400 0 L0 0  Z" fill="#ffffff" fill-rule="evenodd" fill-opacity="1"></path>
<defs>
  <clipPath id="clip511">
    <rect x="480" y="0" width="1681" height="1600"></rect>
  </clipPath>
</defs>
<path clip-path="url(#clip510)" d="M156.598 1486.45 L2352.76 1486.45 L2352.76 123.472 L156.598 123.472  Z" fill="#ffffff" fill-rule="evenodd" fill-opacity="1"></path>
<defs>
  <clipPath id="clip512">
    <rect x="156" y="123" width="2197" height="1364"></rect>
  </clipPath>
</defs>
<polyline clip-path="url(#clip512)" style="stroke:#000000; stroke-linecap:round; stroke-linejoin:round; stroke-width:2; stroke-opacity:0.1; fill:none" points="631.931,1486.45 631.931,123.472 "></polyline>
<polyline clip-path="url(#clip512)" style="stroke:#000000; stroke-linecap:round; stroke-linejoin:round; stroke-width:2; stroke-opacity:0.1; fill:none" points="1112.64,1486.45 1112.64,123.472 "></polyline>
<polyline clip-path="url(#clip512)" style="stroke:#000000; stroke-linecap:round; stroke-linejoin:round; stroke-width:2; stroke-opacity:0.1; fill:none" points="1593.36,1486.45 1593.36,123.472 "></polyline>
<polyline clip-path="url(#clip512)" style="stroke:#000000; stroke-linecap:round; stroke-linejoin:round; stroke-width:2; stroke-opacity:0.1; fill:none" points="2074.07,1486.45 2074.07,123.472 "></polyline>
<polyline clip-path="url(#clip510)" style="stroke:#000000; stroke-linecap:round; stroke-linejoin:round; stroke-width:4; stroke-opacity:1; fill:none" points="156.598,1486.45 2352.76,1486.45 "></polyline>
<polyline clip-path="url(#clip510)" style="stroke:#000000; stroke-linecap:round; stroke-linejoin:round; stroke-width:4; stroke-opacity:1; fill:none" points="631.931,1486.45 631.931,1467.55 "></polyline>
<polyline clip-path="url(#clip510)" style="stroke:#000000; stroke-linecap:round; stroke-linejoin:round; stroke-width:4; stroke-opacity:1; fill:none" points="1112.64,1486.45 1112.64,1467.55 "></polyline>
<polyline clip-path="url(#clip510)" style="stroke:#000000; stroke-linecap:round; stroke-linejoin:round; stroke-width:4; stroke-opacity:1; fill:none" points="1593.36,1486.45 1593.36,1467.55 "></polyline>
<polyline clip-path="url(#clip510)" style="stroke:#000000; stroke-linecap:round; stroke-linejoin:round; stroke-width:4; stroke-opacity:1; fill:none" points="2074.07,1486.45 2074.07,1467.55 "></polyline>
<path clip-path="url(#clip510)" d="M601.873 1532.02 L631.549 1532.02 L631.549 1535.95 L601.873 1535.95 L601.873 1532.02 Z" fill="#000000" fill-rule="nonzero" fill-opacity="1"></path><path clip-path="url(#clip510)" d="M645.669 1544.91 L661.989 1544.91 L661.989 1548.85 L640.044 1548.85 L640.044 1544.91 Q642.706 1542.16 647.29 1537.53 Q651.896 1532.88 653.077 1531.53 Q655.322 1529.01 656.202 1527.27 Q657.104 1525.51 657.104 1523.82 Q657.104 1521.07 655.16 1519.33 Q653.239 1517.6 650.137 1517.6 Q647.938 1517.6 645.484 1518.36 Q643.054 1519.13 640.276 1520.68 L640.276 1515.95 Q643.1 1514.82 645.554 1514.24 Q648.007 1513.66 650.044 1513.66 Q655.415 1513.66 658.609 1516.35 Q661.803 1519.03 661.803 1523.52 Q661.803 1525.65 660.993 1527.57 Q660.206 1529.47 658.1 1532.07 Q657.521 1532.74 654.419 1535.95 Q651.317 1539.15 645.669 1544.91 Z" fill="#000000" fill-rule="nonzero" fill-opacity="1"></path><path clip-path="url(#clip510)" d="M1112.64 1517.37 Q1109.03 1517.37 1107.2 1520.93 Q1105.4 1524.47 1105.4 1531.6 Q1105.4 1538.71 1107.2 1542.27 Q1109.03 1545.82 1112.64 1545.82 Q1116.28 1545.82 1118.08 1542.27 Q1119.91 1538.71 1119.91 1531.6 Q1119.91 1524.47 1118.08 1520.93 Q1116.28 1517.37 1112.64 1517.37 M1112.64 1513.66 Q1118.45 1513.66 1121.51 1518.27 Q1124.59 1522.85 1124.59 1531.6 Q1124.59 1540.33 1121.51 1544.94 Q1118.45 1549.52 1112.64 1549.52 Q1106.83 1549.52 1103.76 1544.94 Q1100.7 1540.33 1100.7 1531.6 Q1100.7 1522.85 1103.76 1518.27 Q1106.83 1513.66 1112.64 1513.66 Z" fill="#000000" fill-rule="nonzero" fill-opacity="1"></path><path clip-path="url(#clip510)" d="M1588.01 1544.91 L1604.33 1544.91 L1604.33 1548.85 L1582.39 1548.85 L1582.39 1544.91 Q1585.05 1542.16 1589.63 1537.53 Q1594.24 1532.88 1595.42 1531.53 Q1597.66 1529.01 1598.54 1527.27 Q1599.45 1525.51 1599.45 1523.82 Q1599.45 1521.07 1597.5 1519.33 Q1595.58 1517.6 1592.48 1517.6 Q1590.28 1517.6 1587.83 1518.36 Q1585.4 1519.13 1582.62 1520.68 L1582.62 1515.95 Q1585.44 1514.82 1587.9 1514.24 Q1590.35 1513.66 1592.39 1513.66 Q1597.76 1513.66 1600.95 1516.35 Q1604.15 1519.03 1604.15 1523.52 Q1604.15 1525.65 1603.34 1527.57 Q1602.55 1529.47 1600.44 1532.07 Q1599.86 1532.74 1596.76 1535.95 Q1593.66 1539.15 1588.01 1544.91 Z" fill="#000000" fill-rule="nonzero" fill-opacity="1"></path><path clip-path="url(#clip510)" d="M2077.08 1518.36 L2065.28 1536.81 L2077.08 1536.81 L2077.08 1518.36 M2075.85 1514.29 L2081.73 1514.29 L2081.73 1536.81 L2086.66 1536.81 L2086.66 1540.7 L2081.73 1540.7 L2081.73 1548.85 L2077.08 1548.85 L2077.08 1540.7 L2061.48 1540.7 L2061.48 1536.19 L2075.85 1514.29 Z" fill="#000000" fill-rule="nonzero" fill-opacity="1"></path><polyline clip-path="url(#clip512)" style="stroke:#000000; stroke-linecap:round; stroke-linejoin:round; stroke-width:2; stroke-opacity:0.1; fill:none" points="156.598,1447.87 2352.76,1447.87 "></polyline>
<polyline clip-path="url(#clip512)" style="stroke:#000000; stroke-linecap:round; stroke-linejoin:round; stroke-width:2; stroke-opacity:0.1; fill:none" points="156.598,1240.08 2352.76,1240.08 "></polyline>
<polyline clip-path="url(#clip512)" style="stroke:#000000; stroke-linecap:round; stroke-linejoin:round; stroke-width:2; stroke-opacity:0.1; fill:none" points="156.598,1032.28 2352.76,1032.28 "></polyline>
<polyline clip-path="url(#clip512)" style="stroke:#000000; stroke-linecap:round; stroke-linejoin:round; stroke-width:2; stroke-opacity:0.1; fill:none" points="156.598,824.491 2352.76,824.491 "></polyline>
<polyline clip-path="url(#clip512)" style="stroke:#000000; stroke-linecap:round; stroke-linejoin:round; stroke-width:2; stroke-opacity:0.1; fill:none" points="156.598,616.697 2352.76,616.697 "></polyline>
<polyline clip-path="url(#clip512)" style="stroke:#000000; stroke-linecap:round; stroke-linejoin:round; stroke-width:2; stroke-opacity:0.1; fill:none" points="156.598,408.902 2352.76,408.902 "></polyline>
<polyline clip-path="url(#clip512)" style="stroke:#000000; stroke-linecap:round; stroke-linejoin:round; stroke-width:2; stroke-opacity:0.1; fill:none" points="156.598,201.108 2352.76,201.108 "></polyline>
<polyline clip-path="url(#clip510)" style="stroke:#000000; stroke-linecap:round; stroke-linejoin:round; stroke-width:4; stroke-opacity:1; fill:none" points="156.598,1486.45 156.598,123.472 "></polyline>
<polyline clip-path="url(#clip510)" style="stroke:#000000; stroke-linecap:round; stroke-linejoin:round; stroke-width:4; stroke-opacity:1; fill:none" points="156.598,1447.87 175.496,1447.87 "></polyline>
<polyline clip-path="url(#clip510)" style="stroke:#000000; stroke-linecap:round; stroke-linejoin:round; stroke-width:4; stroke-opacity:1; fill:none" points="156.598,1240.08 175.496,1240.08 "></polyline>
<polyline clip-path="url(#clip510)" style="stroke:#000000; stroke-linecap:round; stroke-linejoin:round; stroke-width:4; stroke-opacity:1; fill:none" points="156.598,1032.28 175.496,1032.28 "></polyline>
<polyline clip-path="url(#clip510)" style="stroke:#000000; stroke-linecap:round; stroke-linejoin:round; stroke-width:4; stroke-opacity:1; fill:none" points="156.598,824.491 175.496,824.491 "></polyline>
<polyline clip-path="url(#clip510)" style="stroke:#000000; stroke-linecap:round; stroke-linejoin:round; stroke-width:4; stroke-opacity:1; fill:none" points="156.598,616.697 175.496,616.697 "></polyline>
<polyline clip-path="url(#clip510)" style="stroke:#000000; stroke-linecap:round; stroke-linejoin:round; stroke-width:4; stroke-opacity:1; fill:none" points="156.598,408.902 175.496,408.902 "></polyline>
<polyline clip-path="url(#clip510)" style="stroke:#000000; stroke-linecap:round; stroke-linejoin:round; stroke-width:4; stroke-opacity:1; fill:none" points="156.598,201.108 175.496,201.108 "></polyline>
<path clip-path="url(#clip510)" d="M63.4226 1433.67 Q59.8115 1433.67 57.9828 1437.24 Q56.1773 1440.78 56.1773 1447.91 Q56.1773 1455.01 57.9828 1458.58 Q59.8115 1462.12 63.4226 1462.12 Q67.0569 1462.12 68.8624 1458.58 Q70.6911 1455.01 70.6911 1447.91 Q70.6911 1440.78 68.8624 1437.24 Q67.0569 1433.67 63.4226 1433.67 M63.4226 1429.97 Q69.2328 1429.97 72.2883 1434.57 Q75.367 1439.16 75.367 1447.91 Q75.367 1456.63 72.2883 1461.24 Q69.2328 1465.82 63.4226 1465.82 Q57.6125 1465.82 54.5338 1461.24 Q51.4782 1456.63 51.4782 1447.91 Q51.4782 1439.16 54.5338 1434.57 Q57.6125 1429.97 63.4226 1429.97 Z" fill="#000000" fill-rule="nonzero" fill-opacity="1"></path><path clip-path="url(#clip510)" d="M83.5845 1459.27 L88.4688 1459.27 L88.4688 1465.15 L83.5845 1465.15 L83.5845 1459.27 Z" fill="#000000" fill-rule="nonzero" fill-opacity="1"></path><path clip-path="url(#clip510)" d="M108.654 1433.67 Q105.043 1433.67 103.214 1437.24 Q101.409 1440.78 101.409 1447.91 Q101.409 1455.01 103.214 1458.58 Q105.043 1462.12 108.654 1462.12 Q112.288 1462.12 114.094 1458.58 Q115.922 1455.01 115.922 1447.91 Q115.922 1440.78 114.094 1437.24 Q112.288 1433.67 108.654 1433.67 M108.654 1429.97 Q114.464 1429.97 117.52 1434.57 Q120.598 1439.16 120.598 1447.91 Q120.598 1456.63 117.52 1461.24 Q114.464 1465.82 108.654 1465.82 Q102.844 1465.82 99.765 1461.24 Q96.7095 1456.63 96.7095 1447.91 Q96.7095 1439.16 99.765 1434.57 Q102.844 1429.97 108.654 1429.97 Z" fill="#000000" fill-rule="nonzero" fill-opacity="1"></path><path clip-path="url(#clip510)" d="M64.6495 1225.88 Q61.0384 1225.88 59.2097 1229.44 Q57.4041 1232.98 57.4041 1240.11 Q57.4041 1247.22 59.2097 1250.78 Q61.0384 1254.33 64.6495 1254.33 Q68.2837 1254.33 70.0892 1250.78 Q71.9179 1247.22 71.9179 1240.11 Q71.9179 1232.98 70.0892 1229.44 Q68.2837 1225.88 64.6495 1225.88 M64.6495 1222.17 Q70.4596 1222.17 73.5152 1226.78 Q76.5938 1231.36 76.5938 1240.11 Q76.5938 1248.84 73.5152 1253.45 Q70.4596 1258.03 64.6495 1258.03 Q58.8393 1258.03 55.7606 1253.45 Q52.7051 1248.84 52.7051 1240.11 Q52.7051 1231.36 55.7606 1226.78 Q58.8393 1222.17 64.6495 1222.17 Z" fill="#000000" fill-rule="nonzero" fill-opacity="1"></path><path clip-path="url(#clip510)" d="M84.8114 1251.48 L89.6956 1251.48 L89.6956 1257.36 L84.8114 1257.36 L84.8114 1251.48 Z" fill="#000000" fill-rule="nonzero" fill-opacity="1"></path><path clip-path="url(#clip510)" d="M100.691 1253.42 L108.33 1253.42 L108.33 1227.06 L100.02 1228.72 L100.02 1224.47 L108.283 1222.8 L112.959 1222.8 L112.959 1253.42 L120.598 1253.42 L120.598 1257.36 L100.691 1257.36 L100.691 1253.42 Z" fill="#000000" fill-rule="nonzero" fill-opacity="1"></path><path clip-path="url(#clip510)" d="M65.0198 1018.08 Q61.4087 1018.08 59.58 1021.65 Q57.7745 1025.19 57.7745 1032.32 Q57.7745 1039.43 59.58 1042.99 Q61.4087 1046.53 65.0198 1046.53 Q68.6541 1046.53 70.4596 1042.99 Q72.2883 1039.43 72.2883 1032.32 Q72.2883 1025.19 70.4596 1021.65 Q68.6541 1018.08 65.0198 1018.08 M65.0198 1014.38 Q70.83 1014.38 73.8855 1018.99 Q76.9642 1023.57 76.9642 1032.32 Q76.9642 1041.05 73.8855 1045.65 Q70.83 1050.24 65.0198 1050.24 Q59.2097 1050.24 56.131 1045.65 Q53.0754 1041.05 53.0754 1032.32 Q53.0754 1023.57 56.131 1018.99 Q59.2097 1014.38 65.0198 1014.38 Z" fill="#000000" fill-rule="nonzero" fill-opacity="1"></path><path clip-path="url(#clip510)" d="M85.1818 1043.69 L90.066 1043.69 L90.066 1049.56 L85.1818 1049.56 L85.1818 1043.69 Z" fill="#000000" fill-rule="nonzero" fill-opacity="1"></path><path clip-path="url(#clip510)" d="M104.279 1045.63 L120.598 1045.63 L120.598 1049.56 L98.6539 1049.56 L98.6539 1045.63 Q101.316 1042.88 105.899 1038.25 Q110.506 1033.59 111.686 1032.25 Q113.932 1029.73 114.811 1027.99 Q115.714 1026.23 115.714 1024.54 Q115.714 1021.79 113.77 1020.05 Q111.848 1018.31 108.746 1018.31 Q106.547 1018.31 104.094 1019.08 Q101.663 1019.84 98.8854 1021.39 L98.8854 1016.67 Q101.709 1015.54 104.163 1014.96 Q106.617 1014.38 108.654 1014.38 Q114.024 1014.38 117.219 1017.06 Q120.413 1019.75 120.413 1024.24 Q120.413 1026.37 119.603 1028.29 Q118.816 1030.19 116.709 1032.78 Q116.131 1033.45 113.029 1036.67 Q109.927 1039.87 104.279 1045.63 Z" fill="#000000" fill-rule="nonzero" fill-opacity="1"></path><path clip-path="url(#clip510)" d="M64.0708 810.289 Q60.4597 810.289 58.631 813.854 Q56.8254 817.396 56.8254 824.525 Q56.8254 831.632 58.631 835.197 Q60.4597 838.738 64.0708 838.738 Q67.705 838.738 69.5105 835.197 Q71.3392 831.632 71.3392 824.525 Q71.3392 817.396 69.5105 813.854 Q67.705 810.289 64.0708 810.289 M64.0708 806.586 Q69.8809 806.586 72.9365 811.192 Q76.0151 815.775 76.0151 824.525 Q76.0151 833.252 72.9365 837.859 Q69.8809 842.442 64.0708 842.442 Q58.2606 842.442 55.1819 837.859 Q52.1264 833.252 52.1264 824.525 Q52.1264 815.775 55.1819 811.192 Q58.2606 806.586 64.0708 806.586 Z" fill="#000000" fill-rule="nonzero" fill-opacity="1"></path><path clip-path="url(#clip510)" d="M84.2327 835.891 L89.1169 835.891 L89.1169 841.771 L84.2327 841.771 L84.2327 835.891 Z" fill="#000000" fill-rule="nonzero" fill-opacity="1"></path><path clip-path="url(#clip510)" d="M113.469 823.137 Q116.825 823.854 118.7 826.123 Q120.598 828.391 120.598 831.724 Q120.598 836.84 117.08 839.641 Q113.561 842.442 107.08 842.442 Q104.904 842.442 102.589 842.002 Q100.297 841.586 97.8437 840.729 L97.8437 836.215 Q99.7882 837.349 102.103 837.928 Q104.418 838.507 106.941 838.507 Q111.339 838.507 113.631 836.771 Q115.945 835.035 115.945 831.724 Q115.945 828.669 113.793 826.956 Q111.663 825.22 107.844 825.22 L103.816 825.22 L103.816 821.377 L108.029 821.377 Q111.478 821.377 113.307 820.012 Q115.135 818.623 115.135 816.03 Q115.135 813.368 113.237 811.956 Q111.362 810.521 107.844 810.521 Q105.922 810.521 103.723 810.938 Q101.524 811.354 98.8854 812.234 L98.8854 808.067 Q101.547 807.326 103.862 806.956 Q106.2 806.586 108.26 806.586 Q113.584 806.586 116.686 809.016 Q119.788 811.424 119.788 815.544 Q119.788 818.414 118.145 820.405 Q116.501 822.373 113.469 823.137 Z" fill="#000000" fill-rule="nonzero" fill-opacity="1"></path><path clip-path="url(#clip510)" d="M62.9365 602.495 Q59.3254 602.495 57.4967 606.06 Q55.6912 609.602 55.6912 616.731 Q55.6912 623.838 57.4967 627.403 Q59.3254 630.944 62.9365 630.944 Q66.5707 630.944 68.3763 627.403 Q70.205 623.838 70.205 616.731 Q70.205 609.602 68.3763 606.06 Q66.5707 602.495 62.9365 602.495 M62.9365 598.792 Q68.7467 598.792 71.8022 603.398 Q74.8809 607.981 74.8809 616.731 Q74.8809 625.458 71.8022 630.065 Q68.7467 634.648 62.9365 634.648 Q57.1264 634.648 54.0477 630.065 Q50.9921 625.458 50.9921 616.731 Q50.9921 607.981 54.0477 603.398 Q57.1264 598.792 62.9365 598.792 Z" fill="#000000" fill-rule="nonzero" fill-opacity="1"></path><path clip-path="url(#clip510)" d="M83.0984 628.097 L87.9827 628.097 L87.9827 633.977 L83.0984 633.977 L83.0984 628.097 Z" fill="#000000" fill-rule="nonzero" fill-opacity="1"></path><path clip-path="url(#clip510)" d="M111.015 603.491 L99.2095 621.94 L111.015 621.94 L111.015 603.491 M109.788 599.417 L115.668 599.417 L115.668 621.94 L120.598 621.94 L120.598 625.828 L115.668 625.828 L115.668 633.977 L111.015 633.977 L111.015 625.828 L95.4132 625.828 L95.4132 621.315 L109.788 599.417 Z" fill="#000000" fill-rule="nonzero" fill-opacity="1"></path><path clip-path="url(#clip510)" d="M64.418 394.701 Q60.8069 394.701 58.9782 398.266 Q57.1726 401.808 57.1726 408.937 Q57.1726 416.044 58.9782 419.608 Q60.8069 423.15 64.418 423.15 Q68.0522 423.15 69.8578 419.608 Q71.6865 416.044 71.6865 408.937 Q71.6865 401.808 69.8578 398.266 Q68.0522 394.701 64.418 394.701 M64.418 390.997 Q70.2281 390.997 73.2837 395.604 Q76.3624 400.187 76.3624 408.937 Q76.3624 417.664 73.2837 422.27 Q70.2281 426.854 64.418 426.854 Q58.6078 426.854 55.5291 422.27 Q52.4736 417.664 52.4736 408.937 Q52.4736 400.187 55.5291 395.604 Q58.6078 390.997 64.418 390.997 Z" fill="#000000" fill-rule="nonzero" fill-opacity="1"></path><path clip-path="url(#clip510)" d="M84.5799 420.303 L89.4641 420.303 L89.4641 426.182 L84.5799 426.182 L84.5799 420.303 Z" fill="#000000" fill-rule="nonzero" fill-opacity="1"></path><path clip-path="url(#clip510)" d="M99.6956 391.622 L118.052 391.622 L118.052 395.558 L103.978 395.558 L103.978 404.03 Q104.996 403.683 106.015 403.521 Q107.033 403.335 108.052 403.335 Q113.839 403.335 117.219 406.507 Q120.598 409.678 120.598 415.095 Q120.598 420.673 117.126 423.775 Q113.654 426.854 107.334 426.854 Q105.159 426.854 102.89 426.483 Q100.645 426.113 98.2372 425.372 L98.2372 420.673 Q100.321 421.807 102.543 422.363 Q104.765 422.919 107.242 422.919 Q111.246 422.919 113.584 420.812 Q115.922 418.706 115.922 415.095 Q115.922 411.483 113.584 409.377 Q111.246 407.27 107.242 407.27 Q105.367 407.27 103.492 407.687 Q101.64 408.104 99.6956 408.983 L99.6956 391.622 Z" fill="#000000" fill-rule="nonzero" fill-opacity="1"></path><path clip-path="url(#clip510)" d="M63.2606 186.907 Q59.6495 186.907 57.8208 190.472 Q56.0152 194.013 56.0152 201.143 Q56.0152 208.249 57.8208 211.814 Q59.6495 215.356 63.2606 215.356 Q66.8948 215.356 68.7004 211.814 Q70.5291 208.249 70.5291 201.143 Q70.5291 194.013 68.7004 190.472 Q66.8948 186.907 63.2606 186.907 M63.2606 183.203 Q69.0707 183.203 72.1263 187.81 Q75.205 192.393 75.205 201.143 Q75.205 209.87 72.1263 214.476 Q69.0707 219.06 63.2606 219.06 Q57.4504 219.06 54.3717 214.476 Q51.3162 209.87 51.3162 201.143 Q51.3162 192.393 54.3717 187.81 Q57.4504 183.203 63.2606 183.203 Z" fill="#000000" fill-rule="nonzero" fill-opacity="1"></path><path clip-path="url(#clip510)" d="M83.4225 212.509 L88.3067 212.509 L88.3067 218.388 L83.4225 218.388 L83.4225 212.509 Z" fill="#000000" fill-rule="nonzero" fill-opacity="1"></path><path clip-path="url(#clip510)" d="M109.071 199.245 Q105.922 199.245 104.071 201.398 Q102.242 203.55 102.242 207.3 Q102.242 211.027 104.071 213.203 Q105.922 215.356 109.071 215.356 Q112.219 215.356 114.047 213.203 Q115.899 211.027 115.899 207.3 Q115.899 203.55 114.047 201.398 Q112.219 199.245 109.071 199.245 M118.353 184.592 L118.353 188.851 Q116.594 188.018 114.788 187.578 Q113.006 187.138 111.246 187.138 Q106.617 187.138 104.163 190.263 Q101.733 193.388 101.385 199.708 Q102.751 197.694 104.811 196.629 Q106.871 195.541 109.348 195.541 Q114.557 195.541 117.566 198.712 Q120.598 201.861 120.598 207.3 Q120.598 212.624 117.45 215.842 Q114.302 219.06 109.071 219.06 Q103.075 219.06 99.9039 214.476 Q96.7326 209.87 96.7326 201.143 Q96.7326 192.949 100.621 188.088 Q104.51 183.203 111.061 183.203 Q112.82 183.203 114.603 183.551 Q116.408 183.898 118.353 184.592 Z" fill="#000000" fill-rule="nonzero" fill-opacity="1"></path><path clip-path="url(#clip510)" d="M377.413 12.096 L389.606 12.096 L405.04 53.2532 L420.555 12.096 L432.749 12.096 L432.749 72.576 L424.768 72.576 L424.768 19.4686 L409.172 60.9499 L400.949 60.9499 L385.353 19.4686 L385.353 72.576 L377.413 72.576 L377.413 12.096 Z" fill="#000000" fill-rule="nonzero" fill-opacity="1"></path><path clip-path="url(#clip510)" d="M466.25 32.4315 Q460.254 32.4315 456.77 37.1306 Q453.287 41.7891 453.287 49.9314 Q453.287 58.0738 456.73 62.7728 Q460.214 67.4314 466.25 67.4314 Q472.204 67.4314 475.688 62.7323 Q479.172 58.0333 479.172 49.9314 Q479.172 41.8701 475.688 37.1711 Q472.204 32.4315 466.25 32.4315 M466.25 26.1121 Q475.972 26.1121 481.521 32.4315 Q487.071 38.7509 487.071 49.9314 Q487.071 61.0714 481.521 67.4314 Q475.972 73.7508 466.25 73.7508 Q456.487 73.7508 450.937 67.4314 Q445.428 61.0714 445.428 49.9314 Q445.428 38.7509 450.937 32.4315 Q456.487 26.1121 466.25 26.1121 Z" fill="#000000" fill-rule="nonzero" fill-opacity="1"></path><path clip-path="url(#clip510)" d="M537.14 45.1919 L537.14 72.576 L529.687 72.576 L529.687 45.4349 Q529.687 38.994 527.175 35.7938 Q524.664 32.5936 519.64 32.5936 Q513.605 32.5936 510.121 36.4419 Q506.637 40.2903 506.637 46.9338 L506.637 72.576 L499.143 72.576 L499.143 27.2059 L506.637 27.2059 L506.637 34.2544 Q509.311 30.163 512.916 28.1376 Q516.562 26.1121 521.301 26.1121 Q529.12 26.1121 533.13 30.9732 Q537.14 35.7938 537.14 45.1919 Z" fill="#000000" fill-rule="nonzero" fill-opacity="1"></path><path clip-path="url(#clip510)" d="M590.815 48.0275 L590.815 51.6733 L556.544 51.6733 Q557.03 59.3701 561.162 63.421 Q565.335 67.4314 572.748 67.4314 Q577.042 67.4314 581.052 66.3781 Q585.103 65.3249 589.073 63.2184 L589.073 70.267 Q585.063 71.9684 580.85 72.8596 Q576.637 73.7508 572.302 73.7508 Q561.446 73.7508 555.086 67.4314 Q548.767 61.1119 548.767 50.3365 Q548.767 39.1965 554.762 32.6746 Q560.798 26.1121 571.006 26.1121 Q580.161 26.1121 585.468 32.0264 Q590.815 37.9003 590.815 48.0275 M583.361 45.84 Q583.28 39.7232 579.918 36.0774 Q576.596 32.4315 571.087 32.4315 Q564.849 32.4315 561.081 35.9558 Q557.354 39.4801 556.787 45.8805 L583.361 45.84 Z" fill="#000000" fill-rule="nonzero" fill-opacity="1"></path><path clip-path="url(#clip510)" d="M610.421 14.324 L610.421 27.2059 L625.774 27.2059 L625.774 32.9987 L610.421 32.9987 L610.421 57.6282 Q610.421 63.1779 611.92 64.7578 Q613.459 66.3376 618.118 66.3376 L625.774 66.3376 L625.774 72.576 L618.118 72.576 Q609.49 72.576 606.208 69.3758 Q602.927 66.1351 602.927 57.6282 L602.927 32.9987 L597.458 32.9987 L597.458 27.2059 L602.927 27.2059 L602.927 14.324 L610.421 14.324 Z" fill="#000000" fill-rule="nonzero" fill-opacity="1"></path><path clip-path="url(#clip510)" d="M656.196 49.7694 Q647.163 49.7694 643.679 51.8354 Q640.195 53.9013 640.195 58.8839 Q640.195 62.8538 642.788 65.2034 Q645.421 67.5124 649.918 67.5124 Q656.115 67.5124 659.842 63.1374 Q663.61 58.7219 663.61 51.4303 L663.61 49.7694 L656.196 49.7694 M671.063 46.6907 L671.063 72.576 L663.61 72.576 L663.61 65.6895 Q661.058 69.8214 657.25 71.8063 Q653.442 73.7508 647.933 73.7508 Q640.965 73.7508 636.833 69.8619 Q632.742 65.9325 632.742 59.3701 Q632.742 51.7138 637.846 47.825 Q642.991 43.9361 653.158 43.9361 L663.61 43.9361 L663.61 43.2069 Q663.61 38.0623 660.207 35.2672 Q656.845 32.4315 650.728 32.4315 Q646.839 32.4315 643.153 33.3632 Q639.466 34.295 636.063 36.1584 L636.063 29.2718 Q640.155 27.692 644.003 26.9223 Q647.852 26.1121 651.497 26.1121 Q661.341 26.1121 666.202 31.2163 Q671.063 36.3204 671.063 46.6907 Z" fill="#000000" fill-rule="nonzero" fill-opacity="1"></path><path clip-path="url(#clip510)" d="M712.707 34.1734 Q711.451 33.4443 709.952 33.1202 Q708.494 32.7556 706.711 32.7556 Q700.392 32.7556 696.989 36.8875 Q693.627 40.9789 693.627 48.6757 L693.627 72.576 L686.133 72.576 L686.133 27.2059 L693.627 27.2059 L693.627 34.2544 Q695.976 30.1225 699.744 28.1376 Q703.511 26.1121 708.899 26.1121 Q709.668 26.1121 710.6 26.2337 Q711.532 26.3147 712.666 26.5172 L712.707 34.1734 Z" fill="#000000" fill-rule="nonzero" fill-opacity="1"></path><path clip-path="url(#clip510)" d="M739.402 76.7889 Q736.242 84.8907 733.245 87.3618 Q730.247 89.8329 725.224 89.8329 L719.269 89.8329 L719.269 83.5945 L723.644 83.5945 Q726.723 83.5945 728.424 82.1361 Q730.125 80.6778 732.191 75.2496 L733.528 71.8468 L715.178 27.2059 L723.077 27.2059 L737.255 62.6918 L751.433 27.2059 L759.333 27.2059 L739.402 76.7889 Z" fill="#000000" fill-rule="nonzero" fill-opacity="1"></path><path clip-path="url(#clip510)" d="M803.204 65.7705 L803.204 89.8329 L795.71 89.8329 L795.71 27.2059 L803.204 27.2059 L803.204 34.0924 Q805.553 30.0415 809.118 28.0971 Q812.723 26.1121 817.706 26.1121 Q825.97 26.1121 831.115 32.6746 Q836.3 39.2371 836.3 49.9314 Q836.3 60.6258 831.115 67.1883 Q825.97 73.7508 817.706 73.7508 Q812.723 73.7508 809.118 71.8063 Q805.553 69.8214 803.204 65.7705 M828.562 49.9314 Q828.562 41.7081 825.16 37.0496 Q821.797 32.3505 815.883 32.3505 Q809.969 32.3505 806.566 37.0496 Q803.204 41.7081 803.204 49.9314 Q803.204 58.1548 806.566 62.8538 Q809.969 67.5124 815.883 67.5124 Q821.797 67.5124 825.16 62.8538 Q828.562 58.1548 828.562 49.9314 Z" fill="#000000" fill-rule="nonzero" fill-opacity="1"></path><path clip-path="url(#clip510)" d="M866.236 32.4315 Q860.241 32.4315 856.757 37.1306 Q853.273 41.7891 853.273 49.9314 Q853.273 58.0738 856.716 62.7728 Q860.2 67.4314 866.236 67.4314 Q872.191 67.4314 875.674 62.7323 Q879.158 58.0333 879.158 49.9314 Q879.158 41.8701 875.674 37.1711 Q872.191 32.4315 866.236 32.4315 M866.236 26.1121 Q875.958 26.1121 881.508 32.4315 Q887.058 38.7509 887.058 49.9314 Q887.058 61.0714 881.508 67.4314 Q875.958 73.7508 866.236 73.7508 Q856.473 73.7508 850.923 67.4314 Q845.414 61.0714 845.414 49.9314 Q845.414 38.7509 850.923 32.4315 Q856.473 26.1121 866.236 26.1121 Z" fill="#000000" fill-rule="nonzero" fill-opacity="1"></path><path clip-path="url(#clip510)" d="M899.413 9.54393 L906.866 9.54393 L906.866 72.576 L899.413 72.576 L899.413 9.54393 Z" fill="#000000" fill-rule="nonzero" fill-opacity="1"></path><path clip-path="url(#clip510)" d="M922.462 27.2059 L929.916 27.2059 L929.916 72.576 L922.462 72.576 L922.462 27.2059 M922.462 9.54393 L929.916 9.54393 L929.916 18.9825 L922.462 18.9825 L922.462 9.54393 Z" fill="#000000" fill-rule="nonzero" fill-opacity="1"></path><path clip-path="url(#clip510)" d="M978.162 28.9478 L978.162 35.9153 Q975.003 34.1734 971.802 33.3227 Q968.643 32.4315 965.402 32.4315 Q958.151 32.4315 954.14 37.0496 Q950.13 41.6271 950.13 49.9314 Q950.13 58.2358 954.14 62.8538 Q958.151 67.4314 965.402 67.4314 Q968.643 67.4314 971.802 66.5807 Q975.003 65.6895 978.162 63.9476 L978.162 70.8341 Q975.043 72.2924 971.681 73.0216 Q968.359 73.7508 964.592 73.7508 Q954.343 73.7508 948.307 67.3098 Q942.271 60.8689 942.271 49.9314 Q942.271 38.832 948.348 32.472 Q954.465 26.1121 965.078 26.1121 Q968.521 26.1121 971.802 26.8413 Q975.084 27.5299 978.162 28.9478 Z" fill="#000000" fill-rule="nonzero" fill-opacity="1"></path><path clip-path="url(#clip510)" d="M1010 76.7889 Q1006.84 84.8907 1003.85 87.3618 Q1000.85 89.8329 995.824 89.8329 L989.869 89.8329 L989.869 83.5945 L994.244 83.5945 Q997.323 83.5945 999.025 82.1361 Q1000.73 80.6778 1002.79 75.2496 L1004.13 71.8468 L985.778 27.2059 L993.677 27.2059 L1007.86 62.6918 L1022.03 27.2059 L1029.93 27.2059 L1010 76.7889 Z" fill="#000000" fill-rule="nonzero" fill-opacity="1"></path><path clip-path="url(#clip510)" d="M1095.52 28.5427 L1095.52 35.5912 Q1092.36 33.9709 1088.95 33.1607 Q1085.55 32.3505 1081.91 32.3505 Q1076.36 32.3505 1073.56 34.0519 Q1070.81 35.7533 1070.81 39.156 Q1070.81 41.7486 1072.79 43.2475 Q1074.78 44.7058 1080.77 46.0426 L1083.32 46.6097 Q1091.26 48.3111 1094.59 51.4303 Q1097.95 54.509 1097.95 60.0587 Q1097.95 66.3781 1092.92 70.0644 Q1087.94 73.7508 1079.19 73.7508 Q1075.55 73.7508 1071.58 73.0216 Q1067.65 72.3329 1063.27 70.9151 L1063.27 63.2184 Q1067.4 65.3654 1071.41 66.4591 Q1075.42 67.5124 1079.35 67.5124 Q1084.62 67.5124 1087.46 65.73 Q1090.29 63.9071 1090.29 60.6258 Q1090.29 57.5877 1088.23 55.9673 Q1086.2 54.3469 1079.27 52.8481 L1076.68 52.2405 Q1069.75 50.7821 1066.67 47.7845 Q1063.6 44.7463 1063.6 39.4801 Q1063.6 33.0797 1068.13 29.5959 Q1072.67 26.1121 1081.01 26.1121 Q1085.15 26.1121 1088.79 26.7198 Q1092.44 27.3274 1095.52 28.5427 Z" fill="#000000" fill-rule="nonzero" fill-opacity="1"></path><path clip-path="url(#clip510)" d="M1147.53 45.1919 L1147.53 72.576 L1140.08 72.576 L1140.08 45.4349 Q1140.08 38.994 1137.57 35.7938 Q1135.05 32.5936 1130.03 32.5936 Q1123.99 32.5936 1120.51 36.4419 Q1117.03 40.2903 1117.03 46.9338 L1117.03 72.576 L1109.53 72.576 L1109.53 9.54393 L1117.03 9.54393 L1117.03 34.2544 Q1119.7 30.163 1123.31 28.1376 Q1126.95 26.1121 1131.69 26.1121 Q1139.51 26.1121 1143.52 30.9732 Q1147.53 35.7938 1147.53 45.1919 Z" fill="#000000" fill-rule="nonzero" fill-opacity="1"></path><path clip-path="url(#clip510)" d="M1179.98 32.4315 Q1173.98 32.4315 1170.5 37.1306 Q1167.02 41.7891 1167.02 49.9314 Q1167.02 58.0738 1170.46 62.7728 Q1173.94 67.4314 1179.98 67.4314 Q1185.93 67.4314 1189.42 62.7323 Q1192.9 58.0333 1192.9 49.9314 Q1192.9 41.8701 1189.42 37.1711 Q1185.93 32.4315 1179.98 32.4315 M1179.98 26.1121 Q1189.7 26.1121 1195.25 32.4315 Q1200.8 38.7509 1200.8 49.9314 Q1200.8 61.0714 1195.25 67.4314 Q1189.7 73.7508 1179.98 73.7508 Q1170.22 73.7508 1164.67 67.4314 Q1159.16 61.0714 1159.16 49.9314 Q1159.16 38.7509 1164.67 32.4315 Q1170.22 26.1121 1179.98 26.1121 Z" fill="#000000" fill-rule="nonzero" fill-opacity="1"></path><path clip-path="url(#clip510)" d="M1245.81 28.9478 L1245.81 35.9153 Q1242.65 34.1734 1239.45 33.3227 Q1236.29 32.4315 1233.05 32.4315 Q1225.79 32.4315 1221.78 37.0496 Q1217.77 41.6271 1217.77 49.9314 Q1217.77 58.2358 1221.78 62.8538 Q1225.79 67.4314 1233.05 67.4314 Q1236.29 67.4314 1239.45 66.5807 Q1242.65 65.6895 1245.81 63.9476 L1245.81 70.8341 Q1242.69 72.2924 1239.32 73.0216 Q1236 73.7508 1232.24 73.7508 Q1221.99 73.7508 1215.95 67.3098 Q1209.91 60.8689 1209.91 49.9314 Q1209.91 38.832 1215.99 32.472 Q1222.11 26.1121 1232.72 26.1121 Q1236.16 26.1121 1239.45 26.8413 Q1242.73 27.5299 1245.81 28.9478 Z" fill="#000000" fill-rule="nonzero" fill-opacity="1"></path><path clip-path="url(#clip510)" d="M1258.48 9.54393 L1265.98 9.54393 L1265.98 46.7717 L1288.22 27.2059 L1297.74 27.2059 L1273.68 48.4326 L1298.75 72.576 L1289.03 72.576 L1265.98 50.4176 L1265.98 72.576 L1258.48 72.576 L1258.48 9.54393 Z" fill="#000000" fill-rule="nonzero" fill-opacity="1"></path><path clip-path="url(#clip510)" d="M1363.04 34.0924 L1363.04 9.54393 L1370.49 9.54393 L1370.49 72.576 L1363.04 72.576 L1363.04 65.7705 Q1360.69 69.8214 1357.08 71.8063 Q1353.52 73.7508 1348.5 73.7508 Q1340.27 73.7508 1335.09 67.1883 Q1329.94 60.6258 1329.94 49.9314 Q1329.94 39.2371 1335.09 32.6746 Q1340.27 26.1121 1348.5 26.1121 Q1353.52 26.1121 1357.08 28.0971 Q1360.69 30.0415 1363.04 34.0924 M1337.64 49.9314 Q1337.64 58.1548 1341 62.8538 Q1344.4 67.5124 1350.32 67.5124 Q1356.23 67.5124 1359.64 62.8538 Q1363.04 58.1548 1363.04 49.9314 Q1363.04 41.7081 1359.64 37.0496 Q1356.23 32.3505 1350.32 32.3505 Q1344.4 32.3505 1341 37.0496 Q1337.64 41.7081 1337.64 49.9314 Z" fill="#000000" fill-rule="nonzero" fill-opacity="1"></path><path clip-path="url(#clip510)" d="M1385.85 27.2059 L1393.3 27.2059 L1393.3 72.576 L1385.85 72.576 L1385.85 27.2059 M1385.85 9.54393 L1393.3 9.54393 L1393.3 18.9825 L1385.85 18.9825 L1385.85 9.54393 Z" fill="#000000" fill-rule="nonzero" fill-opacity="1"></path><path clip-path="url(#clip510)" d="M1437.82 28.5427 L1437.82 35.5912 Q1434.66 33.9709 1431.26 33.1607 Q1427.85 32.3505 1424.21 32.3505 Q1418.66 32.3505 1415.86 34.0519 Q1413.11 35.7533 1413.11 39.156 Q1413.11 41.7486 1415.09 43.2475 Q1417.08 44.7058 1423.07 46.0426 L1425.63 46.6097 Q1433.57 48.3111 1436.89 51.4303 Q1440.25 54.509 1440.25 60.0587 Q1440.25 66.3781 1435.23 70.0644 Q1430.24 73.7508 1421.49 73.7508 Q1417.85 73.7508 1413.88 73.0216 Q1409.95 72.3329 1405.57 70.9151 L1405.57 63.2184 Q1409.71 65.3654 1413.72 66.4591 Q1417.73 67.5124 1421.66 67.5124 Q1426.92 67.5124 1429.76 65.73 Q1432.59 63.9071 1432.59 60.6258 Q1432.59 57.5877 1430.53 55.9673 Q1428.5 54.3469 1421.57 52.8481 L1418.98 52.2405 Q1412.05 50.7821 1408.98 47.7845 Q1405.9 44.7463 1405.9 39.4801 Q1405.9 33.0797 1410.43 29.5959 Q1414.97 26.1121 1423.32 26.1121 Q1427.45 26.1121 1431.09 26.7198 Q1434.74 27.3274 1437.82 28.5427 Z" fill="#000000" fill-rule="nonzero" fill-opacity="1"></path><path clip-path="url(#clip510)" d="M1459.49 14.324 L1459.49 27.2059 L1474.84 27.2059 L1474.84 32.9987 L1459.49 32.9987 L1459.49 57.6282 Q1459.49 63.1779 1460.99 64.7578 Q1462.53 66.3376 1467.19 66.3376 L1474.84 66.3376 L1474.84 72.576 L1467.19 72.576 Q1458.56 72.576 1455.28 69.3758 Q1452 66.1351 1452 57.6282 L1452 32.9987 L1446.53 32.9987 L1446.53 27.2059 L1452 27.2059 L1452 14.324 L1459.49 14.324 Z" fill="#000000" fill-rule="nonzero" fill-opacity="1"></path><path clip-path="url(#clip510)" d="M1510.94 34.1734 Q1509.68 33.4443 1508.18 33.1202 Q1506.72 32.7556 1504.94 32.7556 Q1498.62 32.7556 1495.22 36.8875 Q1491.86 40.9789 1491.86 48.6757 L1491.86 72.576 L1484.36 72.576 L1484.36 27.2059 L1491.86 27.2059 L1491.86 34.2544 Q1494.21 30.1225 1497.97 28.1376 Q1501.74 26.1121 1507.13 26.1121 Q1507.9 26.1121 1508.83 26.2337 Q1509.76 26.3147 1510.9 26.5172 L1510.94 34.1734 Z" fill="#000000" fill-rule="nonzero" fill-opacity="1"></path><path clip-path="url(#clip510)" d="M1518.76 27.2059 L1526.21 27.2059 L1526.21 72.576 L1518.76 72.576 L1518.76 27.2059 M1518.76 9.54393 L1526.21 9.54393 L1526.21 18.9825 L1518.76 18.9825 L1518.76 9.54393 Z" fill="#000000" fill-rule="nonzero" fill-opacity="1"></path><path clip-path="url(#clip510)" d="M1574.37 49.9314 Q1574.37 41.7081 1570.97 37.0496 Q1567.61 32.3505 1561.7 32.3505 Q1555.78 32.3505 1552.38 37.0496 Q1549.02 41.7081 1549.02 49.9314 Q1549.02 58.1548 1552.38 62.8538 Q1555.78 67.5124 1561.7 67.5124 Q1567.61 67.5124 1570.97 62.8538 Q1574.37 58.1548 1574.37 49.9314 M1549.02 34.0924 Q1551.37 30.0415 1554.93 28.0971 Q1558.54 26.1121 1563.52 26.1121 Q1571.78 26.1121 1576.93 32.6746 Q1582.11 39.2371 1582.11 49.9314 Q1582.11 60.6258 1576.93 67.1883 Q1571.78 73.7508 1563.52 73.7508 Q1558.54 73.7508 1554.93 71.8063 Q1551.37 69.8214 1549.02 65.7705 L1549.02 72.576 L1541.52 72.576 L1541.52 9.54393 L1549.02 9.54393 L1549.02 34.0924 Z" fill="#000000" fill-rule="nonzero" fill-opacity="1"></path><path clip-path="url(#clip510)" d="M1593.7 54.671 L1593.7 27.2059 L1601.15 27.2059 L1601.15 54.3874 Q1601.15 60.8284 1603.66 64.0691 Q1606.17 67.2693 1611.2 67.2693 Q1617.23 67.2693 1620.72 63.421 Q1624.24 59.5726 1624.24 52.9291 L1624.24 27.2059 L1631.69 27.2059 L1631.69 72.576 L1624.24 72.576 L1624.24 65.6084 Q1621.53 69.7404 1617.92 71.7658 Q1614.36 73.7508 1609.62 73.7508 Q1601.8 73.7508 1597.75 68.8897 Q1593.7 64.0286 1593.7 54.671 M1612.45 26.1121 L1612.45 26.1121 Z" fill="#000000" fill-rule="nonzero" fill-opacity="1"></path><path clip-path="url(#clip510)" d="M1654.42 14.324 L1654.42 27.2059 L1669.77 27.2059 L1669.77 32.9987 L1654.42 32.9987 L1654.42 57.6282 Q1654.42 63.1779 1655.92 64.7578 Q1657.46 66.3376 1662.12 66.3376 L1669.77 66.3376 L1669.77 72.576 L1662.12 72.576 Q1653.49 72.576 1650.21 69.3758 Q1646.93 66.1351 1646.93 57.6282 L1646.93 32.9987 L1641.46 32.9987 L1641.46 27.2059 L1646.93 27.2059 L1646.93 14.324 L1654.42 14.324 Z" fill="#000000" fill-rule="nonzero" fill-opacity="1"></path><path clip-path="url(#clip510)" d="M1679.58 27.2059 L1687.03 27.2059 L1687.03 72.576 L1679.58 72.576 L1679.58 27.2059 M1679.58 9.54393 L1687.03 9.54393 L1687.03 18.9825 L1679.58 18.9825 L1679.58 9.54393 Z" fill="#000000" fill-rule="nonzero" fill-opacity="1"></path><path clip-path="url(#clip510)" d="M1720.21 32.4315 Q1714.21 32.4315 1710.73 37.1306 Q1707.24 41.7891 1707.24 49.9314 Q1707.24 58.0738 1710.69 62.7728 Q1714.17 67.4314 1720.21 67.4314 Q1726.16 67.4314 1729.65 62.7323 Q1733.13 58.0333 1733.13 49.9314 Q1733.13 41.8701 1729.65 37.1711 Q1726.16 32.4315 1720.21 32.4315 M1720.21 26.1121 Q1729.93 26.1121 1735.48 32.4315 Q1741.03 38.7509 1741.03 49.9314 Q1741.03 61.0714 1735.48 67.4314 Q1729.93 73.7508 1720.21 73.7508 Q1710.44 73.7508 1704.89 67.4314 Q1699.39 61.0714 1699.39 49.9314 Q1699.39 38.7509 1704.89 32.4315 Q1710.44 26.1121 1720.21 26.1121 Z" fill="#000000" fill-rule="nonzero" fill-opacity="1"></path><path clip-path="url(#clip510)" d="M1791.1 45.1919 L1791.1 72.576 L1783.64 72.576 L1783.64 45.4349 Q1783.64 38.994 1781.13 35.7938 Q1778.62 32.5936 1773.6 32.5936 Q1767.56 32.5936 1764.08 36.4419 Q1760.59 40.2903 1760.59 46.9338 L1760.59 72.576 L1753.1 72.576 L1753.1 27.2059 L1760.59 27.2059 L1760.59 34.2544 Q1763.27 30.163 1766.87 28.1376 Q1770.52 26.1121 1775.26 26.1121 Q1783.08 26.1121 1787.09 30.9732 Q1791.1 35.7938 1791.1 45.1919 Z" fill="#000000" fill-rule="nonzero" fill-opacity="1"></path><path clip-path="url(#clip510)" d="M1834.89 28.5427 L1834.89 35.5912 Q1831.73 33.9709 1828.33 33.1607 Q1824.92 32.3505 1821.28 32.3505 Q1815.73 32.3505 1812.93 34.0519 Q1810.18 35.7533 1810.18 39.156 Q1810.18 41.7486 1812.16 43.2475 Q1814.15 44.7058 1820.14 46.0426 L1822.69 46.6097 Q1830.63 48.3111 1833.96 51.4303 Q1837.32 54.509 1837.32 60.0587 Q1837.32 66.3781 1832.3 70.0644 Q1827.31 73.7508 1818.56 73.7508 Q1814.92 73.7508 1810.95 73.0216 Q1807.02 72.3329 1802.64 70.9151 L1802.64 63.2184 Q1806.77 65.3654 1810.79 66.4591 Q1814.8 67.5124 1818.72 67.5124 Q1823.99 67.5124 1826.83 65.73 Q1829.66 63.9071 1829.66 60.6258 Q1829.66 57.5877 1827.6 55.9673 Q1825.57 54.3469 1818.64 52.8481 L1816.05 52.2405 Q1809.12 50.7821 1806.05 47.7845 Q1802.97 44.7463 1802.97 39.4801 Q1802.97 33.0797 1807.5 29.5959 Q1812.04 26.1121 1820.39 26.1121 Q1824.52 26.1121 1828.16 26.7198 Q1831.81 27.3274 1834.89 28.5427 Z" fill="#000000" fill-rule="nonzero" fill-opacity="1"></path><path clip-path="url(#clip510)" d="M1871.79 46.5287 L1893.63 46.5287 L1893.63 53.1722 L1871.79 53.1722 L1871.79 46.5287 Z" fill="#000000" fill-rule="nonzero" fill-opacity="1"></path><path clip-path="url(#clip510)" d="M1952.4 20.1573 L1941.31 50.2555 L1963.54 50.2555 L1952.4 20.1573 M1947.79 12.096 L1957.06 12.096 L1980.11 72.576 L1971.61 72.576 L1966.1 57.061 L1938.83 57.061 L1933.33 72.576 L1924.7 72.576 L1947.79 12.096 Z" fill="#000000" fill-rule="nonzero" fill-opacity="1"></path><path clip-path="url(#clip510)" d="M2025.2 14.0809 L2025.2 22.0612 Q2020.54 19.8332 2016.41 18.7395 Q2012.28 17.6457 2008.43 17.6457 Q2001.74 17.6457 1998.1 20.2383 Q1994.49 22.8309 1994.49 27.611 Q1994.49 31.6214 1996.88 33.6873 Q1999.31 35.7128 2006.04 36.9686 L2010.98 37.9813 Q2020.14 39.7232 2024.47 44.1387 Q2028.85 48.5136 2028.85 55.8863 Q2028.85 64.6767 2022.93 69.2137 Q2017.06 73.7508 2005.67 73.7508 Q2001.38 73.7508 1996.52 72.7785 Q1991.7 71.8063 1986.51 69.9024 L1986.51 61.4765 Q1991.5 64.2716 1996.28 65.6895 Q2001.06 67.1073 2005.67 67.1073 Q2012.68 67.1073 2016.49 64.3527 Q2020.3 61.598 2020.3 56.4939 Q2020.3 52.0379 2017.54 49.5264 Q2014.83 47.0148 2008.59 45.759 L2003.61 44.7868 Q1994.45 42.9639 1990.36 39.075 Q1986.27 35.1862 1986.27 28.2591 Q1986.27 20.2383 1991.9 15.6203 Q1997.57 11.0023 2007.5 11.0023 Q2011.75 11.0023 2016.17 11.7719 Q2020.58 12.5416 2025.2 14.0809 Z" fill="#000000" fill-rule="nonzero" fill-opacity="1"></path><path clip-path="url(#clip510)" d="M2059.83 17.4837 Q2053.52 17.4837 2050.32 23.7221 Q2047.16 29.92 2047.16 42.3968 Q2047.16 54.833 2050.32 61.0714 Q2053.52 67.2693 2059.83 67.2693 Q2066.19 67.2693 2069.35 61.0714 Q2072.55 54.833 2072.55 42.3968 Q2072.55 29.92 2069.35 23.7221 Q2066.19 17.4837 2059.83 17.4837 M2059.83 11.0023 Q2070 11.0023 2075.35 19.0636 Q2080.74 27.0843 2080.74 42.3968 Q2080.74 57.6687 2075.35 65.73 Q2070 73.7508 2059.83 73.7508 Q2049.67 73.7508 2044.28 65.73 Q2038.93 57.6687 2038.93 42.3968 Q2038.93 27.0843 2044.28 19.0636 Q2049.67 11.0023 2059.83 11.0023 Z" fill="#000000" fill-rule="nonzero" fill-opacity="1"></path><path clip-path="url(#clip510)" d="M2093.05 12.096 L2131.94 12.096 L2131.94 15.5798 L2109.98 72.576 L2101.44 72.576 L2122.1 18.9825 L2093.05 18.9825 L2093.05 12.096 Z" fill="#000000" fill-rule="nonzero" fill-opacity="1"></path><path clip-path="url(#clip512)" d="M218.754 1447.05 L224.573 1446.97 L230.393 1446.89 L284.205 1445.69 L338.016 1443.27 L370.355 1440.83 L402.694 1437.3 L430.036 1433.18 L457.377 1427.71 L472.228 1424.05 L487.078 1419.84 L501.929 1415.02 L516.779 1409.5 L530.47 1403.76 L544.161 1397.31 L557.852 1390.11 L571.542 1382.1 L586.22 1372.55 L600.898 1361.93 L615.576 1350.18 L630.254 1337.24 L647.26 1320.68 L664.266 1302.37 L681.272 1282.25 L698.278 1260.3 L713.391 1239.24 L728.504 1216.73 L743.617 1192.8 L758.729 1167.5 L771.982 1144.25 L785.235 1120.07 L798.487 1095.03 L811.74 1069.24 L840.638 1010.91 L869.535 950.83 L898.605 890.245 L927.674 831.36 L935.709 815.647 L943.745 800.258 L951.78 785.235 L959.815 770.621 L967.85 756.457 L975.885 742.786 L983.92 729.648 L991.955 717.082 L999.6 705.692 L1007.24 694.887 L1014.89 684.697 L1022.54 675.151 L1030.18 666.277 L1037.83 658.1 L1045.47 650.645 L1053.12 643.933 L1061.06 637.764 L1069.01 632.44 L1076.96 627.979 L1084.91 624.394 L1092.86 621.698 L1100.81 619.899 L1108.76 619.003 L1116.71 619.013 L1123.4 619.724 L1130.09 621.076 L1136.78 623.064 L1143.47 625.686 L1150.17 628.934 L1156.86 632.801 L1163.55 637.279 L1170.24 642.357 L1178.41 649.352 L1186.58 657.201 L1194.75 665.876 L1202.92 675.349 L1211.09 685.589 L1219.26 696.562 L1227.43 708.231 L1235.6 720.56 L1250.56 744.728 L1265.53 770.724 L1273.02 784.325 L1280.5 798.283 L1287.98 812.564 L1295.47 827.132 L1323.12 882.885 L1350.76 940.389 L1378.77 998.774 L1406.78 1055.8 L1422.47 1086.68 L1438.16 1116.54 L1453.86 1145.23 L1469.55 1172.61 L1483.77 1196.2 L1497.99 1218.57 L1512.21 1239.69 L1526.43 1259.52 L1542.71 1280.64 L1559 1300.07 L1575.28 1317.84 L1591.56 1333.99 L1606.64 1347.57 L1621.71 1359.88 L1636.79 1370.97 L1651.86 1380.94 L1666.73 1389.72 L1681.59 1397.54 L1696.45 1404.48 L1711.31 1410.6 L1725.74 1415.83 L1740.17 1420.43 L1754.61 1424.46 L1769.04 1427.96 L1798.62 1433.75 L1828.21 1438.01 L1860.62 1441.33 L1893.04 1443.61 L1940.13 1445.66 L1987.21 1446.77 L1996.88 1446.92 L2006.54 1447.05 L2006.54 1447.87 L1996.88 1447.87 L1987.21 1447.87 L1940.13 1447.87 L1893.04 1447.87 L1860.62 1447.87 L1828.21 1447.87 L1798.62 1447.87 L1769.04 1447.87 L1754.61 1447.87 L1740.17 1447.87 L1725.74 1447.87 L1711.31 1447.87 L1696.45 1447.87 L1681.59 1447.87 L1666.73 1447.87 L1651.86 1447.87 L1636.79 1447.87 L1621.71 1447.87 L1606.64 1447.87 L1591.56 1447.87 L1575.28 1447.87 L1559 1447.87 L1542.71 1447.87 L1526.43 1447.87 L1512.21 1447.87 L1497.99 1447.87 L1483.77 1447.87 L1469.55 1447.87 L1453.86 1447.87 L1438.16 1447.87 L1422.47 1447.87 L1406.78 1447.87 L1378.77 1447.87 L1350.76 1447.87 L1323.12 1447.87 L1295.47 1447.87 L1287.98 1447.87 L1280.5 1447.87 L1273.02 1447.87 L1265.53 1447.87 L1250.56 1447.87 L1235.6 1447.87 L1227.43 1447.87 L1219.26 1447.87 L1211.09 1447.87 L1202.92 1447.87 L1194.75 1447.87 L1186.58 1447.87 L1178.41 1447.87 L1170.24 1447.87 L1163.55 1447.87 L1156.86 1447.87 L1150.17 1447.87 L1143.47 1447.87 L1136.78 1447.87 L1130.09 1447.87 L1123.4 1447.87 L1116.71 1447.87 L1108.76 1447.87 L1100.81 1447.87 L1092.86 1447.87 L1084.91 1447.87 L1076.96 1447.87 L1069.01 1447.87 L1061.06 1447.87 L1053.12 1447.87 L1045.47 1447.87 L1037.83 1447.87 L1030.18 1447.87 L1022.54 1447.87 L1014.89 1447.87 L1007.24 1447.87 L999.6 1447.87 L991.955 1447.87 L983.92 1447.87 L975.885 1447.87 L967.85 1447.87 L959.815 1447.87 L951.78 1447.87 L943.745 1447.87 L935.709 1447.87 L927.674 1447.87 L898.605 1447.87 L869.535 1447.87 L840.638 1447.87 L811.74 1447.87 L798.487 1447.87 L785.235 1447.87 L771.982 1447.87 L758.729 1447.87 L743.617 1447.87 L728.504 1447.87 L713.391 1447.87 L698.278 1447.87 L681.272 1447.87 L664.266 1447.87 L647.26 1447.87 L630.254 1447.87 L615.576 1447.87 L600.898 1447.87 L586.22 1447.87 L571.542 1447.87 L557.852 1447.87 L544.161 1447.87 L530.47 1447.87 L516.779 1447.87 L501.929 1447.87 L487.078 1447.87 L472.228 1447.87 L457.377 1447.87 L430.036 1447.87 L402.694 1447.87 L370.355 1447.87 L338.016 1447.87 L284.205 1447.87 L230.393 1447.87 L224.573 1447.87 L218.754 1447.87  Z" fill="#0000ff" fill-rule="evenodd" fill-opacity="0.5"></path>
<polyline clip-path="url(#clip512)" style="stroke:#009af9; stroke-linecap:round; stroke-linejoin:round; stroke-width:4; stroke-opacity:1; fill:none" points="218.754,1447.05 224.573,1446.97 230.393,1446.89 284.205,1445.69 338.016,1443.27 370.355,1440.83 402.694,1437.3 430.036,1433.18 457.377,1427.71 472.228,1424.05 487.078,1419.84 501.929,1415.02 516.779,1409.5 530.47,1403.76 544.161,1397.31 557.852,1390.11 571.542,1382.1 586.22,1372.55 600.898,1361.93 615.576,1350.18 630.254,1337.24 647.26,1320.68 664.266,1302.37 681.272,1282.25 698.278,1260.3 713.391,1239.24 728.504,1216.73 743.617,1192.8 758.729,1167.5 771.982,1144.25 785.235,1120.07 798.487,1095.03 811.74,1069.24 840.638,1010.91 869.535,950.83 898.605,890.245 927.674,831.36 935.709,815.647 943.745,800.258 951.78,785.235 959.815,770.621 967.85,756.457 975.885,742.786 983.92,729.648 991.955,717.082 999.6,705.692 1007.24,694.887 1014.89,684.697 1022.54,675.151 1030.18,666.277 1037.83,658.1 1045.47,650.645 1053.12,643.933 1061.06,637.764 1069.01,632.44 1076.96,627.979 1084.91,624.394 1092.86,621.698 1100.81,619.899 1108.76,619.003 1116.71,619.013 1123.4,619.724 1130.09,621.076 1136.78,623.064 1143.47,625.686 1150.17,628.934 1156.86,632.801 1163.55,637.279 1170.24,642.357 1178.41,649.352 1186.58,657.201 1194.75,665.876 1202.92,675.349 1211.09,685.589 1219.26,696.562 1227.43,708.231 1235.6,720.56 1250.56,744.728 1265.53,770.724 1273.02,784.325 1280.5,798.283 1287.98,812.564 1295.47,827.132 1323.12,882.885 1350.76,940.389 1378.77,998.774 1406.78,1055.8 1422.47,1086.68 1438.16,1116.54 1453.86,1145.23 1469.55,1172.61 1483.77,1196.2 1497.99,1218.57 1512.21,1239.69 1526.43,1259.52 1542.71,1280.64 1559,1300.07 1575.28,1317.84 1591.56,1333.99 1606.64,1347.57 1621.71,1359.88 1636.79,1370.97 1651.86,1380.94 1666.73,1389.72 1681.59,1397.54 1696.45,1404.48 1711.31,1410.6 1725.74,1415.83 1740.17,1420.43 1754.61,1424.46 1769.04,1427.96 1798.62,1433.75 1828.21,1438.01 1860.62,1441.33 1893.04,1443.61 1940.13,1445.66 1987.21,1446.77 1996.88,1446.92 2006.54,1447.05 "></polyline>
<polyline clip-path="url(#clip512)" style="stroke:#e26f46; stroke-linecap:round; stroke-linejoin:round; stroke-width:4; stroke-opacity:1; fill:none" points="682.24,1447.86 690.322,1447.86 698.404,1447.85 706.487,1447.83 714.569,1447.8 722.651,1447.74 730.733,1447.66 738.815,1447.52 746.898,1447.32 754.98,1447.02 763.062,1446.59 771.144,1445.99 779.226,1445.17 787.309,1444.09 795.391,1442.68 803.473,1440.9 811.555,1438.72 819.638,1436.1 827.72,1433.06 835.802,1429.6 843.884,1425.77 851.966,1421.64 860.049,1417.29 868.131,1412.81 876.213,1408.32 884.295,1403.89 892.377,1399.62 900.46,1395.56 908.542,1391.76 916.624,1388.22 924.706,1384.93 932.789,1381.85 940.871,1378.91 948.953,1376.01 957.035,1373.05 965.117,1369.89 973.2,1366.38 981.282,1362.41 989.364,1357.86 997.446,1352.64 1005.53,1346.77 1013.61,1340.29 1021.69,1333.37 1029.78,1326.21 1037.86,1319.1 1045.94,1312.32 1054.02,1306.14 1062.1,1300.77 1070.19,1296.28 1078.27,1292.62 1086.35,1289.58 1094.43,1286.8 1102.52,1283.81 1110.6,1280.07 1118.68,1275.06 1126.76,1268.28 1134.84,1259.36 1142.93,1248.04 1151.01,1234.22 1159.09,1217.88 1167.17,1199.07 1175.25,1177.89 1183.34,1154.34 1191.42,1128.36 1199.5,1099.76 1207.58,1068.22 1215.67,1033.32 1223.75,994.602 1231.83,951.652 1239.91,904.16 1247.99,852.02 1256.08,795.397 1264.16,734.771 1272.24,670.959 1280.32,605.098 1288.41,538.599 1296.49,473.074 1304.57,410.24 1312.65,351.809 1320.73,299.376 1328.82,254.308 1336.9,217.658 1344.98,190.088 1353.06,171.832 1361.15,162.687 1369.23,162.047 1377.31,168.958 1385.39,182.221 1393.47,200.498 1401.56,222.444 1409.64,246.825 1417.72,272.623 1425.8,299.108 1433.89,325.87 1441.97,352.812 1450.05,380.094 1458.13,408.051 1466.21,437.089 1474.3,467.583 1482.38,499.787 1490.46,533.767 1498.54,569.38 1506.63,606.271 1514.71,643.918 1522.79,681.683 1530.87,718.879 1538.95,754.831 1547.04,788.932 1555.12,820.673 1563.2,849.664 1571.28,875.636 1579.37,898.441 1587.45,918.035 1595.53,934.476 1603.61,947.913 1611.69,958.589 1619.78,966.837 1627.86,973.077 1635.94,977.809 1644.02,981.597 1652.11,985.044 1660.19,988.762 1668.27,993.331 1676.35,999.271 1684.43,1007 1692.52,1016.83 1700.6,1028.93 1708.68,1043.35 1716.76,1060.01 1724.85,1078.75 1732.93,1099.3 1741.01,1121.34 1749.09,1144.53 1757.17,1168.49 1765.26,1192.8 1773.34,1217.1 1781.42,1240.99 1789.5,1264.12 1797.59,1286.16 1805.67,1306.8 1813.75,1325.82 1821.83,1342.99 1829.91,1358.17 1838,1371.24 1846.08,1382.14 1854.16,1390.83 1862.24,1397.33 1870.33,1401.68 1878.41,1403.98 1886.49,1404.37 1894.57,1403.06 1902.65,1400.3 1910.74,1396.42 1918.82,1391.79 1926.9,1386.82 1934.98,1381.92 1943.07,1377.52 1951.15,1373.94 1959.23,1371.49 1967.31,1370.33 1975.39,1370.54 1983.48,1372.07 1991.56,1374.79 1999.64,1378.47 2007.72,1382.82 2015.81,1387.57 2023.89,1392.43 2031.97,1397.17 2040.05,1401.61 2048.13,1405.64 2056.22,1409.24 2064.3,1412.42 2072.38,1415.27 2080.46,1417.87 2088.55,1420.33 2096.63,1422.72 2104.71,1425.11 2112.79,1427.51 2120.87,1429.93 2128.96,1432.32 2137.04,1434.65 2145.12,1436.86 2153.2,1438.89 2161.29,1440.71 2169.37,1442.29 2177.45,1443.62 2185.53,1444.72 2193.61,1445.58 2201.7,1446.25 2209.78,1446.75 2217.86,1447.12 2225.94,1447.38 2234.03,1447.56 2242.11,1447.67 2250.19,1447.75 2258.27,1447.8 2266.35,1447.83 2274.44,1447.85 2282.52,1447.86 2290.6,1447.86 "></polyline>
<path clip-path="url(#clip510)" d="M229.803 324.425 L1331.15 324.425 L1331.15 168.905 L229.803 168.905  Z" fill="#ffffff" fill-rule="evenodd" fill-opacity="1"></path>
<polyline clip-path="url(#clip510)" style="stroke:#000000; stroke-linecap:round; stroke-linejoin:round; stroke-width:4; stroke-opacity:1; fill:none" points="229.803,324.425 1331.15,324.425 1331.15,168.905 229.803,168.905 229.803,324.425 "></polyline>
<path clip-path="url(#clip510)" d="M254.205 241.481 L400.616 241.481 L400.616 200.009 L254.205 200.009 L254.205 241.481  Z" fill="#0000ff" fill-rule="evenodd" fill-opacity="0.5"></path>
<polyline clip-path="url(#clip510)" style="stroke:#009af9; stroke-linecap:round; stroke-linejoin:round; stroke-width:4; stroke-opacity:1; fill:none" points="254.205,200.009 400.616,200.009 "></polyline>
<path clip-path="url(#clip510)" d="M425.018 203.465 L454.253 203.465 L454.253 207.4 L441.985 207.4 L441.985 238.025 L437.286 238.025 L437.286 207.4 L425.018 207.4 L425.018 203.465 Z" fill="#000000" fill-rule="nonzero" fill-opacity="1"></path><path clip-path="url(#clip510)" d="M480.133 222.377 L480.133 238.025 L475.874 238.025 L475.874 222.515 Q475.874 218.835 474.439 217.006 Q473.003 215.178 470.133 215.178 Q466.684 215.178 464.693 217.377 Q462.702 219.576 462.702 223.372 L462.702 238.025 L458.42 238.025 L458.42 202.006 L462.702 202.006 L462.702 216.127 Q464.23 213.789 466.29 212.631 Q468.374 211.474 471.082 211.474 Q475.55 211.474 477.841 214.252 Q480.133 217.006 480.133 222.377 Z" fill="#000000" fill-rule="nonzero" fill-opacity="1"></path><path clip-path="url(#clip510)" d="M510.804 223.997 L510.804 226.08 L491.221 226.08 Q491.499 230.478 493.86 232.793 Q496.244 235.085 500.48 235.085 Q502.934 235.085 505.225 234.483 Q507.54 233.881 509.809 232.677 L509.809 236.705 Q507.517 237.677 505.11 238.187 Q502.702 238.696 500.225 238.696 Q494.022 238.696 490.388 235.085 Q486.776 231.474 486.776 225.316 Q486.776 218.951 490.202 215.224 Q493.651 211.474 499.485 211.474 Q504.716 211.474 507.749 214.853 Q510.804 218.21 510.804 223.997 M506.545 222.747 Q506.499 219.252 504.577 217.168 Q502.679 215.085 499.531 215.085 Q495.966 215.085 493.813 217.099 Q491.684 219.113 491.36 222.77 L506.545 222.747 Z" fill="#000000" fill-rule="nonzero" fill-opacity="1"></path><path clip-path="url(#clip510)" d="M527.841 215.085 Q524.415 215.085 522.424 217.77 Q520.434 220.432 520.434 225.085 Q520.434 229.738 522.401 232.423 Q524.392 235.085 527.841 235.085 Q531.244 235.085 533.235 232.4 Q535.225 229.715 535.225 225.085 Q535.225 220.478 533.235 217.793 Q531.244 215.085 527.841 215.085 M527.841 211.474 Q533.397 211.474 536.568 215.085 Q539.739 218.696 539.739 225.085 Q539.739 231.451 536.568 235.085 Q533.397 238.696 527.841 238.696 Q522.262 238.696 519.091 235.085 Q515.943 231.451 515.943 225.085 Q515.943 218.696 519.091 215.085 Q522.262 211.474 527.841 211.474 Z" fill="#000000" fill-rule="nonzero" fill-opacity="1"></path><path clip-path="url(#clip510)" d="M561.822 216.08 Q561.105 215.664 560.248 215.478 Q559.415 215.27 558.396 215.27 Q554.785 215.27 552.841 217.631 Q550.92 219.969 550.92 224.367 L550.92 238.025 L546.637 238.025 L546.637 212.099 L550.92 212.099 L550.92 216.127 Q552.262 213.766 554.415 212.631 Q556.568 211.474 559.646 211.474 Q560.086 211.474 560.619 211.543 Q561.151 211.59 561.799 211.705 L561.822 216.08 Z" fill="#000000" fill-rule="nonzero" fill-opacity="1"></path><path clip-path="url(#clip510)" d="M587.424 223.997 L587.424 226.08 L567.841 226.08 Q568.119 230.478 570.48 232.793 Q572.864 235.085 577.1 235.085 Q579.554 235.085 581.845 234.483 Q584.16 233.881 586.429 232.677 L586.429 236.705 Q584.137 237.677 581.73 238.187 Q579.322 238.696 576.845 238.696 Q570.642 238.696 567.007 235.085 Q563.396 231.474 563.396 225.316 Q563.396 218.951 566.822 215.224 Q570.271 211.474 576.105 211.474 Q581.336 211.474 584.369 214.853 Q587.424 218.21 587.424 223.997 M583.165 222.747 Q583.119 219.252 581.197 217.168 Q579.299 215.085 576.151 215.085 Q572.586 215.085 570.433 217.099 Q568.304 219.113 567.98 222.77 L583.165 222.747 Z" fill="#000000" fill-rule="nonzero" fill-opacity="1"></path><path clip-path="url(#clip510)" d="M598.628 204.738 L598.628 212.099 L607.401 212.099 L607.401 215.409 L598.628 215.409 L598.628 229.483 Q598.628 232.654 599.484 233.557 Q600.364 234.46 603.026 234.46 L607.401 234.46 L607.401 238.025 L603.026 238.025 Q598.095 238.025 596.22 236.196 Q594.345 234.344 594.345 229.483 L594.345 215.409 L591.22 215.409 L591.22 212.099 L594.345 212.099 L594.345 204.738 L598.628 204.738 Z" fill="#000000" fill-rule="nonzero" fill-opacity="1"></path><path clip-path="url(#clip510)" d="M613.003 212.099 L617.262 212.099 L617.262 238.025 L613.003 238.025 L613.003 212.099 M613.003 202.006 L617.262 202.006 L617.262 207.4 L613.003 207.4 L613.003 202.006 Z" fill="#000000" fill-rule="nonzero" fill-opacity="1"></path><path clip-path="url(#clip510)" d="M644.831 213.094 L644.831 217.076 Q643.026 216.08 641.197 215.594 Q639.391 215.085 637.54 215.085 Q633.396 215.085 631.104 217.724 Q628.813 220.34 628.813 225.085 Q628.813 229.83 631.104 232.469 Q633.396 235.085 637.54 235.085 Q639.391 235.085 641.197 234.599 Q643.026 234.089 644.831 233.094 L644.831 237.029 Q643.049 237.863 641.127 238.279 Q639.229 238.696 637.077 238.696 Q631.22 238.696 627.771 235.015 Q624.322 231.335 624.322 225.085 Q624.322 218.742 627.794 215.108 Q631.29 211.474 637.354 211.474 Q639.322 211.474 641.197 211.891 Q643.072 212.284 644.831 213.094 Z" fill="#000000" fill-rule="nonzero" fill-opacity="1"></path><path clip-path="url(#clip510)" d="M664.021 224.992 Q658.859 224.992 656.868 226.173 Q654.877 227.353 654.877 230.201 Q654.877 232.469 656.359 233.812 Q657.863 235.131 660.433 235.131 Q663.975 235.131 666.104 232.631 Q668.257 230.108 668.257 225.941 L668.257 224.992 L664.021 224.992 M672.516 223.233 L672.516 238.025 L668.257 238.025 L668.257 234.089 Q666.799 236.451 664.623 237.585 Q662.447 238.696 659.299 238.696 Q655.317 238.696 652.956 236.474 Q650.618 234.228 650.618 230.478 Q650.618 226.103 653.535 223.881 Q656.475 221.659 662.285 221.659 L668.257 221.659 L668.257 221.242 Q668.257 218.303 666.313 216.705 Q664.391 215.085 660.896 215.085 Q658.674 215.085 656.567 215.617 Q654.461 216.15 652.516 217.215 L652.516 213.279 Q654.854 212.377 657.053 211.937 Q659.252 211.474 661.336 211.474 Q666.961 211.474 669.738 214.391 Q672.516 217.307 672.516 223.233 Z" fill="#000000" fill-rule="nonzero" fill-opacity="1"></path><path clip-path="url(#clip510)" d="M681.289 202.006 L685.549 202.006 L685.549 238.025 L681.289 238.025 L681.289 202.006 Z" fill="#000000" fill-rule="nonzero" fill-opacity="1"></path><path clip-path="url(#clip510)" d="M707.377 223.14 L719.854 223.14 L719.854 226.937 L707.377 226.937 L707.377 223.14 Z" fill="#000000" fill-rule="nonzero" fill-opacity="1"></path><path clip-path="url(#clip510)" d="M762.608 204.599 L762.608 209.159 Q759.946 207.886 757.585 207.261 Q755.224 206.636 753.025 206.636 Q749.206 206.636 747.122 208.117 Q745.062 209.599 745.062 212.33 Q745.062 214.622 746.428 215.803 Q747.817 216.96 751.659 217.678 L754.483 218.256 Q759.715 219.252 762.192 221.775 Q764.692 224.275 764.692 228.488 Q764.692 233.511 761.312 236.103 Q757.956 238.696 751.451 238.696 Q748.997 238.696 746.219 238.14 Q743.465 237.585 740.502 236.497 L740.502 231.682 Q743.349 233.279 746.081 234.089 Q748.812 234.9 751.451 234.9 Q755.456 234.9 757.631 233.326 Q759.807 231.752 759.807 228.835 Q759.807 226.289 758.233 224.853 Q756.682 223.418 753.118 222.701 L750.27 222.145 Q745.039 221.103 742.701 218.881 Q740.363 216.659 740.363 212.701 Q740.363 208.117 743.581 205.479 Q746.821 202.84 752.493 202.84 Q754.923 202.84 757.446 203.279 Q759.969 203.719 762.608 204.599 Z" fill="#000000" fill-rule="nonzero" fill-opacity="1"></path><path clip-path="url(#clip510)" d="M776.011 204.738 L776.011 212.099 L784.784 212.099 L784.784 215.409 L776.011 215.409 L776.011 229.483 Q776.011 232.654 776.867 233.557 Q777.747 234.46 780.409 234.46 L784.784 234.46 L784.784 238.025 L780.409 238.025 Q775.479 238.025 773.604 236.196 Q771.729 234.344 771.729 229.483 L771.729 215.409 L768.604 215.409 L768.604 212.099 L771.729 212.099 L771.729 204.738 L776.011 204.738 Z" fill="#000000" fill-rule="nonzero" fill-opacity="1"></path><path clip-path="url(#clip510)" d="M802.168 224.992 Q797.006 224.992 795.016 226.173 Q793.025 227.353 793.025 230.201 Q793.025 232.469 794.506 233.812 Q796.011 235.131 798.58 235.131 Q802.122 235.131 804.252 232.631 Q806.404 230.108 806.404 225.941 L806.404 224.992 L802.168 224.992 M810.664 223.233 L810.664 238.025 L806.404 238.025 L806.404 234.089 Q804.946 236.451 802.77 237.585 Q800.594 238.696 797.446 238.696 Q793.465 238.696 791.104 236.474 Q788.766 234.228 788.766 230.478 Q788.766 226.103 791.682 223.881 Q794.622 221.659 800.432 221.659 L806.404 221.659 L806.404 221.242 Q806.404 218.303 804.46 216.705 Q802.539 215.085 799.043 215.085 Q796.821 215.085 794.715 215.617 Q792.608 216.15 790.664 217.215 L790.664 213.279 Q793.002 212.377 795.201 211.937 Q797.4 211.474 799.483 211.474 Q805.108 211.474 807.886 214.391 Q810.664 217.307 810.664 223.233 Z" fill="#000000" fill-rule="nonzero" fill-opacity="1"></path><path clip-path="url(#clip510)" d="M840.987 222.377 L840.987 238.025 L836.728 238.025 L836.728 222.515 Q836.728 218.835 835.293 217.006 Q833.858 215.178 830.988 215.178 Q827.538 215.178 825.548 217.377 Q823.557 219.576 823.557 223.372 L823.557 238.025 L819.275 238.025 L819.275 212.099 L823.557 212.099 L823.557 216.127 Q825.085 213.789 827.145 212.631 Q829.228 211.474 831.937 211.474 Q836.404 211.474 838.696 214.252 Q840.987 217.006 840.987 222.377 Z" fill="#000000" fill-rule="nonzero" fill-opacity="1"></path><path clip-path="url(#clip510)" d="M866.543 216.034 L866.543 202.006 L870.802 202.006 L870.802 238.025 L866.543 238.025 L866.543 234.136 Q865.2 236.451 863.14 237.585 Q861.103 238.696 858.233 238.696 Q853.534 238.696 850.571 234.946 Q847.631 231.196 847.631 225.085 Q847.631 218.974 850.571 215.224 Q853.534 211.474 858.233 211.474 Q861.103 211.474 863.14 212.608 Q865.2 213.719 866.543 216.034 M852.029 225.085 Q852.029 229.784 853.95 232.469 Q855.895 235.131 859.274 235.131 Q862.654 235.131 864.598 232.469 Q866.543 229.784 866.543 225.085 Q866.543 220.386 864.598 217.724 Q862.654 215.039 859.274 215.039 Q855.895 215.039 853.95 217.724 Q852.029 220.386 852.029 225.085 Z" fill="#000000" fill-rule="nonzero" fill-opacity="1"></path><path clip-path="url(#clip510)" d="M891.358 224.992 Q886.196 224.992 884.205 226.173 Q882.214 227.353 882.214 230.201 Q882.214 232.469 883.696 233.812 Q885.2 235.131 887.77 235.131 Q891.311 235.131 893.441 232.631 Q895.594 230.108 895.594 225.941 L895.594 224.992 L891.358 224.992 M899.853 223.233 L899.853 238.025 L895.594 238.025 L895.594 234.089 Q894.135 236.451 891.959 237.585 Q889.784 238.696 886.635 238.696 Q882.654 238.696 880.293 236.474 Q877.955 234.228 877.955 230.478 Q877.955 226.103 880.872 223.881 Q883.811 221.659 889.621 221.659 L895.594 221.659 L895.594 221.242 Q895.594 218.303 893.649 216.705 Q891.728 215.085 888.233 215.085 Q886.01 215.085 883.904 215.617 Q881.797 216.15 879.853 217.215 L879.853 213.279 Q882.191 212.377 884.39 211.937 Q886.589 211.474 888.672 211.474 Q894.297 211.474 897.075 214.391 Q899.853 217.307 899.853 223.233 Z" fill="#000000" fill-rule="nonzero" fill-opacity="1"></path><path clip-path="url(#clip510)" d="M923.649 216.08 Q922.932 215.664 922.075 215.478 Q921.242 215.27 920.223 215.27 Q916.612 215.27 914.668 217.631 Q912.746 219.969 912.746 224.367 L912.746 238.025 L908.464 238.025 L908.464 212.099 L912.746 212.099 L912.746 216.127 Q914.089 213.766 916.242 212.631 Q918.394 211.474 921.473 211.474 Q921.913 211.474 922.445 211.543 Q922.978 211.59 923.626 211.705 L923.649 216.08 Z" fill="#000000" fill-rule="nonzero" fill-opacity="1"></path><path clip-path="url(#clip510)" d="M944.343 216.034 L944.343 202.006 L948.603 202.006 L948.603 238.025 L944.343 238.025 L944.343 234.136 Q943.001 236.451 940.941 237.585 Q938.904 238.696 936.033 238.696 Q931.334 238.696 928.371 234.946 Q925.431 231.196 925.431 225.085 Q925.431 218.974 928.371 215.224 Q931.334 211.474 936.033 211.474 Q938.904 211.474 940.941 212.608 Q943.001 213.719 944.343 216.034 M929.83 225.085 Q929.83 229.784 931.751 232.469 Q933.695 235.131 937.075 235.131 Q940.455 235.131 942.399 232.469 Q944.343 229.784 944.343 225.085 Q944.343 220.386 942.399 217.724 Q940.455 215.039 937.075 215.039 Q933.695 215.039 931.751 217.724 Q929.83 220.386 929.83 225.085 Z" fill="#000000" fill-rule="nonzero" fill-opacity="1"></path><path clip-path="url(#clip510)" d="M972.63 203.465 L978.927 203.465 L994.251 232.377 L994.251 203.465 L998.788 203.465 L998.788 238.025 L992.491 238.025 L977.167 209.113 L977.167 238.025 L972.63 238.025 L972.63 203.465 Z" fill="#000000" fill-rule="nonzero" fill-opacity="1"></path><path clip-path="url(#clip510)" d="M1017.95 215.085 Q1014.53 215.085 1012.54 217.77 Q1010.55 220.432 1010.55 225.085 Q1010.55 229.738 1012.51 232.423 Q1014.51 235.085 1017.95 235.085 Q1021.36 235.085 1023.35 232.4 Q1025.34 229.715 1025.34 225.085 Q1025.34 220.478 1023.35 217.793 Q1021.36 215.085 1017.95 215.085 M1017.95 211.474 Q1023.51 211.474 1026.68 215.085 Q1029.85 218.696 1029.85 225.085 Q1029.85 231.451 1026.68 235.085 Q1023.51 238.696 1017.95 238.696 Q1012.38 238.696 1009.2 235.085 Q1006.06 231.451 1006.06 225.085 Q1006.06 218.696 1009.2 215.085 Q1012.38 211.474 1017.95 211.474 Z" fill="#000000" fill-rule="nonzero" fill-opacity="1"></path><path clip-path="url(#clip510)" d="M1051.94 216.08 Q1051.22 215.664 1050.36 215.478 Q1049.53 215.27 1048.51 215.27 Q1044.9 215.27 1042.95 217.631 Q1041.03 219.969 1041.03 224.367 L1041.03 238.025 L1036.75 238.025 L1036.75 212.099 L1041.03 212.099 L1041.03 216.127 Q1042.38 213.766 1044.53 212.631 Q1046.68 211.474 1049.76 211.474 Q1050.2 211.474 1050.73 211.543 Q1051.26 211.59 1051.91 211.705 L1051.94 216.08 Z" fill="#000000" fill-rule="nonzero" fill-opacity="1"></path><path clip-path="url(#clip510)" d="M1075.75 217.076 Q1077.35 214.205 1079.57 212.84 Q1081.8 211.474 1084.81 211.474 Q1088.86 211.474 1091.06 214.321 Q1093.25 217.145 1093.25 222.377 L1093.25 238.025 L1088.97 238.025 L1088.97 222.515 Q1088.97 218.789 1087.65 216.983 Q1086.33 215.178 1083.63 215.178 Q1080.31 215.178 1078.39 217.377 Q1076.47 219.576 1076.47 223.372 L1076.47 238.025 L1072.19 238.025 L1072.19 222.515 Q1072.19 218.765 1070.87 216.983 Q1069.55 215.178 1066.8 215.178 Q1063.53 215.178 1061.61 217.4 Q1059.69 219.599 1059.69 223.372 L1059.69 238.025 L1055.41 238.025 L1055.41 212.099 L1059.69 212.099 L1059.69 216.127 Q1061.15 213.742 1063.19 212.608 Q1065.22 211.474 1068.02 211.474 Q1070.85 211.474 1072.81 212.909 Q1074.81 214.344 1075.75 217.076 Z" fill="#000000" fill-rule="nonzero" fill-opacity="1"></path><path clip-path="url(#clip510)" d="M1113.53 224.992 Q1108.37 224.992 1106.38 226.173 Q1104.39 227.353 1104.39 230.201 Q1104.39 232.469 1105.87 233.812 Q1107.37 235.131 1109.94 235.131 Q1113.49 235.131 1115.62 232.631 Q1117.77 230.108 1117.77 225.941 L1117.77 224.992 L1113.53 224.992 M1122.03 223.233 L1122.03 238.025 L1117.77 238.025 L1117.77 234.089 Q1116.31 236.451 1114.13 237.585 Q1111.96 238.696 1108.81 238.696 Q1104.83 238.696 1102.47 236.474 Q1100.13 234.228 1100.13 230.478 Q1100.13 226.103 1103.05 223.881 Q1105.99 221.659 1111.8 221.659 L1117.77 221.659 L1117.77 221.242 Q1117.77 218.303 1115.82 216.705 Q1113.9 215.085 1110.41 215.085 Q1108.19 215.085 1106.08 215.617 Q1103.97 216.15 1102.03 217.215 L1102.03 213.279 Q1104.37 212.377 1106.56 211.937 Q1108.76 211.474 1110.85 211.474 Q1116.47 211.474 1119.25 214.391 Q1122.03 217.307 1122.03 223.233 Z" fill="#000000" fill-rule="nonzero" fill-opacity="1"></path><path clip-path="url(#clip510)" d="M1130.8 202.006 L1135.06 202.006 L1135.06 238.025 L1130.8 238.025 L1130.8 202.006 Z" fill="#000000" fill-rule="nonzero" fill-opacity="1"></path><polyline clip-path="url(#clip510)" style="stroke:#e26f46; stroke-linecap:round; stroke-linejoin:round; stroke-width:4; stroke-opacity:1; fill:none" points="254.205,272.585 400.616,272.585 "></polyline>
<path clip-path="url(#clip510)" d="M425.018 255.305 L446.869 255.305 L446.869 259.24 L429.693 259.24 L429.693 269.471 L446.152 269.471 L446.152 273.406 L429.693 273.406 L429.693 285.929 L447.286 285.929 L447.286 289.865 L425.018 289.865 L425.018 255.305 Z" fill="#000000" fill-rule="nonzero" fill-opacity="1"></path><path clip-path="url(#clip510)" d="M474.971 268.916 Q476.568 266.045 478.79 264.68 Q481.013 263.314 484.022 263.314 Q488.073 263.314 490.272 266.161 Q492.471 268.985 492.471 274.217 L492.471 289.865 L488.188 289.865 L488.188 274.355 Q488.188 270.629 486.869 268.823 Q485.55 267.018 482.841 267.018 Q479.531 267.018 477.61 269.217 Q475.689 271.416 475.689 275.212 L475.689 289.865 L471.406 289.865 L471.406 274.355 Q471.406 270.605 470.087 268.823 Q468.767 267.018 466.013 267.018 Q462.749 267.018 460.827 269.24 Q458.906 271.439 458.906 275.212 L458.906 289.865 L454.624 289.865 L454.624 263.939 L458.906 263.939 L458.906 267.967 Q460.365 265.582 462.402 264.448 Q464.439 263.314 467.24 263.314 Q470.064 263.314 472.031 264.749 Q474.022 266.184 474.971 268.916 Z" fill="#000000" fill-rule="nonzero" fill-opacity="1"></path><path clip-path="url(#clip510)" d="M505.087 285.976 L505.087 299.726 L500.804 299.726 L500.804 263.939 L505.087 263.939 L505.087 267.874 Q506.429 265.559 508.466 264.448 Q510.526 263.314 513.374 263.314 Q518.096 263.314 521.036 267.064 Q523.998 270.814 523.998 276.925 Q523.998 283.036 521.036 286.786 Q518.096 290.536 513.374 290.536 Q510.526 290.536 508.466 289.425 Q506.429 288.291 505.087 285.976 M519.577 276.925 Q519.577 272.226 517.633 269.564 Q515.711 266.879 512.332 266.879 Q508.952 266.879 507.008 269.564 Q505.087 272.226 505.087 276.925 Q505.087 281.624 507.008 284.309 Q508.952 286.971 512.332 286.971 Q515.711 286.971 517.633 284.309 Q519.577 281.624 519.577 276.925 Z" fill="#000000" fill-rule="nonzero" fill-opacity="1"></path><path clip-path="url(#clip510)" d="M531.059 263.939 L535.318 263.939 L535.318 289.865 L531.059 289.865 L531.059 263.939 M531.059 253.846 L535.318 253.846 L535.318 259.24 L531.059 259.24 L531.059 253.846 Z" fill="#000000" fill-rule="nonzero" fill-opacity="1"></path><path clip-path="url(#clip510)" d="M559.253 267.92 Q558.535 267.504 557.679 267.318 Q556.846 267.11 555.827 267.11 Q552.216 267.11 550.271 269.471 Q548.35 271.809 548.35 276.207 L548.35 289.865 L544.068 289.865 L544.068 263.939 L548.35 263.939 L548.35 267.967 Q549.693 265.606 551.846 264.471 Q553.998 263.314 557.077 263.314 Q557.517 263.314 558.049 263.383 Q558.582 263.43 559.23 263.545 L559.253 267.92 Z" fill="#000000" fill-rule="nonzero" fill-opacity="1"></path><path clip-path="url(#clip510)" d="M563.72 263.939 L567.98 263.939 L567.98 289.865 L563.72 289.865 L563.72 263.939 M563.72 253.846 L567.98 253.846 L567.98 259.24 L563.72 259.24 L563.72 253.846 Z" fill="#000000" fill-rule="nonzero" fill-opacity="1"></path><path clip-path="url(#clip510)" d="M595.549 264.934 L595.549 268.916 Q593.743 267.92 591.915 267.434 Q590.109 266.925 588.257 266.925 Q584.114 266.925 581.822 269.564 Q579.531 272.18 579.531 276.925 Q579.531 281.67 581.822 284.309 Q584.114 286.925 588.257 286.925 Q590.109 286.925 591.915 286.439 Q593.743 285.929 595.549 284.934 L595.549 288.869 Q593.767 289.703 591.845 290.119 Q589.947 290.536 587.794 290.536 Q581.938 290.536 578.489 286.855 Q575.04 283.175 575.04 276.925 Q575.04 270.582 578.512 266.948 Q582.007 263.314 588.072 263.314 Q590.04 263.314 591.915 263.731 Q593.79 264.124 595.549 264.934 Z" fill="#000000" fill-rule="nonzero" fill-opacity="1"></path><path clip-path="url(#clip510)" d="M614.739 276.832 Q609.577 276.832 607.586 278.013 Q605.595 279.193 605.595 282.041 Q605.595 284.309 607.077 285.652 Q608.581 286.971 611.151 286.971 Q614.692 286.971 616.822 284.471 Q618.975 281.948 618.975 277.781 L618.975 276.832 L614.739 276.832 M623.234 275.073 L623.234 289.865 L618.975 289.865 L618.975 285.929 Q617.516 288.291 615.341 289.425 Q613.165 290.536 610.017 290.536 Q606.035 290.536 603.674 288.314 Q601.336 286.068 601.336 282.318 Q601.336 277.943 604.253 275.721 Q607.192 273.499 613.003 273.499 L618.975 273.499 L618.975 273.082 Q618.975 270.143 617.03 268.545 Q615.109 266.925 611.614 266.925 Q609.392 266.925 607.285 267.457 Q605.179 267.99 603.234 269.055 L603.234 265.119 Q605.572 264.217 607.771 263.777 Q609.97 263.314 612.054 263.314 Q617.679 263.314 620.456 266.231 Q623.234 269.147 623.234 275.073 Z" fill="#000000" fill-rule="nonzero" fill-opacity="1"></path><path clip-path="url(#clip510)" d="M632.007 253.846 L636.266 253.846 L636.266 289.865 L632.007 289.865 L632.007 253.846 Z" fill="#000000" fill-rule="nonzero" fill-opacity="1"></path><path clip-path="url(#clip510)" d="M658.095 274.98 L670.572 274.98 L670.572 278.777 L658.095 278.777 L658.095 274.98 Z" fill="#000000" fill-rule="nonzero" fill-opacity="1"></path><path clip-path="url(#clip510)" d="M677.539 255.305 L697.4 255.305 L697.4 259.24 L682.215 259.24 L682.215 269.425 L695.919 269.425 L695.919 273.36 L682.215 273.36 L682.215 289.865 L677.539 289.865 L677.539 255.305 Z" fill="#000000" fill-rule="nonzero" fill-opacity="1"></path><path clip-path="url(#clip510)" d="M701.173 263.939 L705.433 263.939 L705.433 289.865 L701.173 289.865 L701.173 263.939 M701.173 253.846 L705.433 253.846 L705.433 259.24 L701.173 259.24 L701.173 253.846 Z" fill="#000000" fill-rule="nonzero" fill-opacity="1"></path><path clip-path="url(#clip510)" d="M714.345 253.846 L718.604 253.846 L718.604 289.865 L714.345 289.865 L714.345 253.846 Z" fill="#000000" fill-rule="nonzero" fill-opacity="1"></path><path clip-path="url(#clip510)" d="M731.729 256.578 L731.729 263.939 L740.502 263.939 L740.502 267.249 L731.729 267.249 L731.729 281.323 Q731.729 284.494 732.585 285.397 Q733.465 286.3 736.127 286.3 L740.502 286.3 L740.502 289.865 L736.127 289.865 Q731.196 289.865 729.321 288.036 Q727.446 286.184 727.446 281.323 L727.446 267.249 L724.321 267.249 L724.321 263.939 L727.446 263.939 L727.446 256.578 L731.729 256.578 Z" fill="#000000" fill-rule="nonzero" fill-opacity="1"></path><path clip-path="url(#clip510)" d="M768.28 275.837 L768.28 277.92 L748.696 277.92 Q748.974 282.318 751.335 284.633 Q753.719 286.925 757.956 286.925 Q760.409 286.925 762.701 286.323 Q765.016 285.721 767.284 284.517 L767.284 288.545 Q764.993 289.517 762.585 290.027 Q760.178 290.536 757.701 290.536 Q751.497 290.536 747.863 286.925 Q744.252 283.314 744.252 277.156 Q744.252 270.791 747.678 267.064 Q751.127 263.314 756.96 263.314 Q762.192 263.314 765.224 266.693 Q768.28 270.05 768.28 275.837 M764.02 274.587 Q763.974 271.092 762.053 269.008 Q760.155 266.925 757.006 266.925 Q753.442 266.925 751.289 268.939 Q749.159 270.953 748.835 274.61 L764.02 274.587 Z" fill="#000000" fill-rule="nonzero" fill-opacity="1"></path><path clip-path="url(#clip510)" d="M790.293 267.92 Q789.576 267.504 788.719 267.318 Q787.886 267.11 786.867 267.11 Q783.256 267.11 781.312 269.471 Q779.391 271.809 779.391 276.207 L779.391 289.865 L775.108 289.865 L775.108 263.939 L779.391 263.939 L779.391 267.967 Q780.733 265.606 782.886 264.471 Q785.039 263.314 788.117 263.314 Q788.557 263.314 789.09 263.383 Q789.622 263.43 790.27 263.545 L790.293 267.92 Z" fill="#000000" fill-rule="nonzero" fill-opacity="1"></path><path clip-path="url(#clip510)" d="M815.895 275.837 L815.895 277.92 L796.312 277.92 Q796.59 282.318 798.951 284.633 Q801.335 286.925 805.571 286.925 Q808.025 286.925 810.316 286.323 Q812.631 285.721 814.9 284.517 L814.9 288.545 Q812.608 289.517 810.201 290.027 Q807.793 290.536 805.316 290.536 Q799.113 290.536 795.478 286.925 Q791.867 283.314 791.867 277.156 Q791.867 270.791 795.293 267.064 Q798.742 263.314 804.576 263.314 Q809.807 263.314 812.84 266.693 Q815.895 270.05 815.895 275.837 M811.636 274.587 Q811.59 271.092 809.668 269.008 Q807.77 266.925 804.622 266.925 Q801.057 266.925 798.904 268.939 Q796.775 270.953 796.451 274.61 L811.636 274.587 Z" fill="#000000" fill-rule="nonzero" fill-opacity="1"></path><path clip-path="url(#clip510)" d="M839.946 267.874 L839.946 253.846 L844.205 253.846 L844.205 289.865 L839.946 289.865 L839.946 285.976 Q838.603 288.291 836.543 289.425 Q834.506 290.536 831.636 290.536 Q826.937 290.536 823.974 286.786 Q821.034 283.036 821.034 276.925 Q821.034 270.814 823.974 267.064 Q826.937 263.314 831.636 263.314 Q834.506 263.314 836.543 264.448 Q838.603 265.559 839.946 267.874 M825.432 276.925 Q825.432 281.624 827.353 284.309 Q829.298 286.971 832.677 286.971 Q836.057 286.971 838.001 284.309 Q839.946 281.624 839.946 276.925 Q839.946 272.226 838.001 269.564 Q836.057 266.879 832.677 266.879 Q829.298 266.879 827.353 269.564 Q825.432 272.226 825.432 276.925 Z" fill="#000000" fill-rule="nonzero" fill-opacity="1"></path><path clip-path="url(#clip510)" d="M884.575 264.703 L884.575 268.731 Q882.77 267.805 880.825 267.342 Q878.881 266.879 876.797 266.879 Q873.626 266.879 872.029 267.851 Q870.455 268.823 870.455 270.768 Q870.455 272.249 871.589 273.105 Q872.723 273.939 876.149 274.703 L877.608 275.027 Q882.145 275.999 884.043 277.781 Q885.964 279.541 885.964 282.712 Q885.964 286.323 883.094 288.429 Q880.247 290.536 875.247 290.536 Q873.163 290.536 870.895 290.119 Q868.649 289.726 866.149 288.916 L866.149 284.517 Q868.51 285.744 870.802 286.369 Q873.094 286.971 875.339 286.971 Q878.348 286.971 879.969 285.953 Q881.589 284.911 881.589 283.036 Q881.589 281.3 880.409 280.374 Q879.251 279.448 875.293 278.592 L873.811 278.244 Q869.853 277.411 868.094 275.698 Q866.335 273.962 866.335 270.953 Q866.335 267.295 868.927 265.305 Q871.52 263.314 876.288 263.314 Q878.649 263.314 880.733 263.661 Q882.816 264.008 884.575 264.703 Z" fill="#000000" fill-rule="nonzero" fill-opacity="1"></path><path clip-path="url(#clip510)" d="M914.297 274.217 L914.297 289.865 L910.038 289.865 L910.038 274.355 Q910.038 270.675 908.603 268.846 Q907.168 267.018 904.297 267.018 Q900.848 267.018 898.858 269.217 Q896.867 271.416 896.867 275.212 L896.867 289.865 L892.584 289.865 L892.584 253.846 L896.867 253.846 L896.867 267.967 Q898.395 265.629 900.455 264.471 Q902.538 263.314 905.246 263.314 Q909.714 263.314 912.006 266.092 Q914.297 268.846 914.297 274.217 Z" fill="#000000" fill-rule="nonzero" fill-opacity="1"></path><path clip-path="url(#clip510)" d="M932.839 266.925 Q929.413 266.925 927.422 269.61 Q925.431 272.272 925.431 276.925 Q925.431 281.578 927.399 284.263 Q929.39 286.925 932.839 286.925 Q936.242 286.925 938.232 284.24 Q940.223 281.555 940.223 276.925 Q940.223 272.318 938.232 269.633 Q936.242 266.925 932.839 266.925 M932.839 263.314 Q938.394 263.314 941.566 266.925 Q944.737 270.536 944.737 276.925 Q944.737 283.291 941.566 286.925 Q938.394 290.536 932.839 290.536 Q927.26 290.536 924.089 286.925 Q920.941 283.291 920.941 276.925 Q920.941 270.536 924.089 266.925 Q927.26 263.314 932.839 263.314 Z" fill="#000000" fill-rule="nonzero" fill-opacity="1"></path><path clip-path="url(#clip510)" d="M970.454 264.934 L970.454 268.916 Q968.649 267.92 966.82 267.434 Q965.015 266.925 963.163 266.925 Q959.019 266.925 956.728 269.564 Q954.436 272.18 954.436 276.925 Q954.436 281.67 956.728 284.309 Q959.019 286.925 963.163 286.925 Q965.015 286.925 966.82 286.439 Q968.649 285.929 970.454 284.934 L970.454 288.869 Q968.672 289.703 966.751 290.119 Q964.853 290.536 962.7 290.536 Q956.843 290.536 953.394 286.855 Q949.945 283.175 949.945 276.925 Q949.945 270.582 953.417 266.948 Q956.913 263.314 962.978 263.314 Q964.945 263.314 966.82 263.731 Q968.695 264.124 970.454 264.934 Z" fill="#000000" fill-rule="nonzero" fill-opacity="1"></path><path clip-path="url(#clip510)" d="M977.7 253.846 L981.982 253.846 L981.982 275.119 L994.69 263.939 L1000.13 263.939 L986.38 276.068 L1000.71 289.865 L995.153 289.865 L981.982 277.203 L981.982 289.865 L977.7 289.865 L977.7 253.846 Z" fill="#000000" fill-rule="nonzero" fill-opacity="1"></path><path clip-path="url(#clip510)" d="M1021.84 264.703 L1021.84 268.731 Q1020.04 267.805 1018.09 267.342 Q1016.15 266.879 1014.07 266.879 Q1010.89 266.879 1009.3 267.851 Q1007.72 268.823 1007.72 270.768 Q1007.72 272.249 1008.86 273.105 Q1009.99 273.939 1013.42 274.703 L1014.88 275.027 Q1019.41 275.999 1021.31 277.781 Q1023.23 279.541 1023.23 282.712 Q1023.23 286.323 1020.36 288.429 Q1017.51 290.536 1012.51 290.536 Q1010.43 290.536 1008.16 290.119 Q1005.92 289.726 1003.42 288.916 L1003.42 284.517 Q1005.78 285.744 1008.07 286.369 Q1010.36 286.971 1012.61 286.971 Q1015.62 286.971 1017.24 285.953 Q1018.86 284.911 1018.86 283.036 Q1018.86 281.3 1017.68 280.374 Q1016.52 279.448 1012.56 278.592 L1011.08 278.244 Q1007.12 277.411 1005.36 275.698 Q1003.6 273.962 1003.6 270.953 Q1003.6 267.295 1006.19 265.305 Q1008.79 263.314 1013.56 263.314 Q1015.92 263.314 1018 263.661 Q1020.08 264.008 1021.84 264.703 Z" fill="#000000" fill-rule="nonzero" fill-opacity="1"></path><path clip-path="url(#clip510)" d="M1062.14 267.874 L1062.14 253.846 L1066.4 253.846 L1066.4 289.865 L1062.14 289.865 L1062.14 285.976 Q1060.8 288.291 1058.74 289.425 Q1056.7 290.536 1053.83 290.536 Q1049.13 290.536 1046.17 286.786 Q1043.23 283.036 1043.23 276.925 Q1043.23 270.814 1046.17 267.064 Q1049.13 263.314 1053.83 263.314 Q1056.7 263.314 1058.74 264.448 Q1060.8 265.559 1062.14 267.874 M1047.63 276.925 Q1047.63 281.624 1049.55 284.309 Q1051.5 286.971 1054.88 286.971 Q1058.25 286.971 1060.2 284.309 Q1062.14 281.624 1062.14 276.925 Q1062.14 272.226 1060.2 269.564 Q1058.25 266.879 1054.88 266.879 Q1051.5 266.879 1049.55 269.564 Q1047.63 272.226 1047.63 276.925 Z" fill="#000000" fill-rule="nonzero" fill-opacity="1"></path><path clip-path="url(#clip510)" d="M1075.18 263.939 L1079.44 263.939 L1079.44 289.865 L1075.18 289.865 L1075.18 263.939 M1075.18 253.846 L1079.44 253.846 L1079.44 259.24 L1075.18 259.24 L1075.18 253.846 Z" fill="#000000" fill-rule="nonzero" fill-opacity="1"></path><path clip-path="url(#clip510)" d="M1104.87 264.703 L1104.87 268.731 Q1103.07 267.805 1101.12 267.342 Q1099.18 266.879 1097.1 266.879 Q1093.93 266.879 1092.33 267.851 Q1090.75 268.823 1090.75 270.768 Q1090.75 272.249 1091.89 273.105 Q1093.02 273.939 1096.45 274.703 L1097.91 275.027 Q1102.44 275.999 1104.34 277.781 Q1106.26 279.541 1106.26 282.712 Q1106.26 286.323 1103.39 288.429 Q1100.55 290.536 1095.55 290.536 Q1093.46 290.536 1091.19 290.119 Q1088.95 289.726 1086.45 288.916 L1086.45 284.517 Q1088.81 285.744 1091.1 286.369 Q1093.39 286.971 1095.64 286.971 Q1098.65 286.971 1100.27 285.953 Q1101.89 284.911 1101.89 283.036 Q1101.89 281.3 1100.71 280.374 Q1099.55 279.448 1095.59 278.592 L1094.11 278.244 Q1090.15 277.411 1088.39 275.698 Q1086.63 273.962 1086.63 270.953 Q1086.63 267.295 1089.23 265.305 Q1091.82 263.314 1096.59 263.314 Q1098.95 263.314 1101.03 263.661 Q1103.12 264.008 1104.87 264.703 Z" fill="#000000" fill-rule="nonzero" fill-opacity="1"></path><path clip-path="url(#clip510)" d="M1117.26 256.578 L1117.26 263.939 L1126.03 263.939 L1126.03 267.249 L1117.26 267.249 L1117.26 281.323 Q1117.26 284.494 1118.12 285.397 Q1119 286.3 1121.66 286.3 L1126.03 286.3 L1126.03 289.865 L1121.66 289.865 Q1116.73 289.865 1114.85 288.036 Q1112.98 286.184 1112.98 281.323 L1112.98 267.249 L1109.85 267.249 L1109.85 263.939 L1112.98 263.939 L1112.98 256.578 L1117.26 256.578 Z" fill="#000000" fill-rule="nonzero" fill-opacity="1"></path><path clip-path="url(#clip510)" d="M1146.66 267.92 Q1145.94 267.504 1145.08 267.318 Q1144.25 267.11 1143.23 267.11 Q1139.62 267.11 1137.68 269.471 Q1135.75 271.809 1135.75 276.207 L1135.75 289.865 L1131.47 289.865 L1131.47 263.939 L1135.75 263.939 L1135.75 267.967 Q1137.1 265.606 1139.25 264.471 Q1141.4 263.314 1144.48 263.314 Q1144.92 263.314 1145.45 263.383 Q1145.99 263.43 1146.63 263.545 L1146.66 267.92 Z" fill="#000000" fill-rule="nonzero" fill-opacity="1"></path><path clip-path="url(#clip510)" d="M1151.12 263.939 L1155.38 263.939 L1155.38 289.865 L1151.12 289.865 L1151.12 263.939 M1151.12 253.846 L1155.38 253.846 L1155.38 259.24 L1151.12 259.24 L1151.12 253.846 Z" fill="#000000" fill-rule="nonzero" fill-opacity="1"></path><path clip-path="url(#clip510)" d="M1182.91 276.925 Q1182.91 272.226 1180.96 269.564 Q1179.04 266.879 1175.66 266.879 Q1172.28 266.879 1170.34 269.564 Q1168.42 272.226 1168.42 276.925 Q1168.42 281.624 1170.34 284.309 Q1172.28 286.971 1175.66 286.971 Q1179.04 286.971 1180.96 284.309 Q1182.91 281.624 1182.91 276.925 M1168.42 267.874 Q1169.76 265.559 1171.8 264.448 Q1173.86 263.314 1176.7 263.314 Q1181.43 263.314 1184.37 267.064 Q1187.33 270.814 1187.33 276.925 Q1187.33 283.036 1184.37 286.786 Q1181.43 290.536 1176.7 290.536 Q1173.86 290.536 1171.8 289.425 Q1169.76 288.291 1168.42 285.976 L1168.42 289.865 L1164.13 289.865 L1164.13 253.846 L1168.42 253.846 L1168.42 267.874 Z" fill="#000000" fill-rule="nonzero" fill-opacity="1"></path><path clip-path="url(#clip510)" d="M1193.95 279.633 L1193.95 263.939 L1198.21 263.939 L1198.21 279.471 Q1198.21 283.152 1199.64 285.004 Q1201.08 286.832 1203.95 286.832 Q1207.4 286.832 1209.39 284.633 Q1211.4 282.434 1211.4 278.638 L1211.4 263.939 L1215.66 263.939 L1215.66 289.865 L1211.4 289.865 L1211.4 285.883 Q1209.85 288.244 1207.79 289.402 Q1205.75 290.536 1203.05 290.536 Q1198.58 290.536 1196.26 287.758 Q1193.95 284.98 1193.95 279.633 M1204.67 263.314 L1204.67 263.314 Z" fill="#000000" fill-rule="nonzero" fill-opacity="1"></path><path clip-path="url(#clip510)" d="M1228.65 256.578 L1228.65 263.939 L1237.42 263.939 L1237.42 267.249 L1228.65 267.249 L1228.65 281.323 Q1228.65 284.494 1229.5 285.397 Q1230.38 286.3 1233.05 286.3 L1237.42 286.3 L1237.42 289.865 L1233.05 289.865 Q1228.12 289.865 1226.24 288.036 Q1224.37 286.184 1224.37 281.323 L1224.37 267.249 L1221.24 267.249 L1221.24 263.939 L1224.37 263.939 L1224.37 256.578 L1228.65 256.578 Z" fill="#000000" fill-rule="nonzero" fill-opacity="1"></path><path clip-path="url(#clip510)" d="M1243.02 263.939 L1247.28 263.939 L1247.28 289.865 L1243.02 289.865 L1243.02 263.939 M1243.02 253.846 L1247.28 253.846 L1247.28 259.24 L1243.02 259.24 L1243.02 253.846 Z" fill="#000000" fill-rule="nonzero" fill-opacity="1"></path><path clip-path="url(#clip510)" d="M1266.24 266.925 Q1262.81 266.925 1260.82 269.61 Q1258.83 272.272 1258.83 276.925 Q1258.83 281.578 1260.8 284.263 Q1262.79 286.925 1266.24 286.925 Q1269.64 286.925 1271.63 284.24 Q1273.62 281.555 1273.62 276.925 Q1273.62 272.318 1271.63 269.633 Q1269.64 266.925 1266.24 266.925 M1266.24 263.314 Q1271.8 263.314 1274.97 266.925 Q1278.14 270.536 1278.14 276.925 Q1278.14 283.291 1274.97 286.925 Q1271.8 290.536 1266.24 290.536 Q1260.66 290.536 1257.49 286.925 Q1254.34 283.291 1254.34 276.925 Q1254.34 270.536 1257.49 266.925 Q1260.66 263.314 1266.24 263.314 Z" fill="#000000" fill-rule="nonzero" fill-opacity="1"></path><path clip-path="url(#clip510)" d="M1306.75 274.217 L1306.75 289.865 L1302.49 289.865 L1302.49 274.355 Q1302.49 270.675 1301.05 268.846 Q1299.62 267.018 1296.75 267.018 Q1293.3 267.018 1291.31 269.217 Q1289.32 271.416 1289.32 275.212 L1289.32 289.865 L1285.04 289.865 L1285.04 263.939 L1289.32 263.939 L1289.32 267.967 Q1290.85 265.629 1292.91 264.471 Q1294.99 263.314 1297.7 263.314 Q1302.17 263.314 1304.46 266.092 Q1306.75 268.846 1306.75 274.217 Z" fill="#000000" fill-rule="nonzero" fill-opacity="1"></path></svg>