<svg xmlns="http://www.w3.org/2000/svg" xmlns:xlink="http://www.w3.org/1999/xlink" width="700" height="500" viewBox="0 0 2800 2000">
<defs>
  <clipPath id="clip690">
    <rect x="0" y="0" width="2800" height="2000"></rect>
  </clipPath>
</defs>
<path clip-path="url(#clip690)" d="M0 2000 L2800 2000 L2800 0 L0 0  Z" fill="#ffffff" fill-rule="evenodd" fill-opacity="1"></path>
<defs>
  <clipPath id="clip691">
    <rect x="560" y="0" width="1961" height="1961"></rect>
  </clipPath>
</defs>
<path clip-path="url(#clip690)" d="M144.696 1879.98 L2752.76 1879.98 L2752.76 47.2441 L144.696 47.2441  Z" fill="#ffffff" fill-rule="evenodd" fill-opacity="1"></path>
<defs>
  <clipPath id="clip692">
    <rect x="144" y="47" width="2609" height="1834"></rect>
  </clipPath>
</defs>
<polyline clip-path="url(#clip692)" style="stroke:#000000; stroke-linecap:round; stroke-linejoin:round; stroke-width:2; stroke-opacity:0.1; fill:none" points="190.152,1879.98 190.152,47.2441 "></polyline>
<polyline clip-path="url(#clip692)" style="stroke:#000000; stroke-linecap:round; stroke-linejoin:round; stroke-width:2; stroke-opacity:0.1; fill:none" points="419.041,1879.98 419.041,47.2441 "></polyline>
<polyline clip-path="url(#clip692)" style="stroke:#000000; stroke-linecap:round; stroke-linejoin:round; stroke-width:2; stroke-opacity:0.1; fill:none" points="647.929,1879.98 647.929,47.2441 "></polyline>
<polyline clip-path="url(#clip692)" style="stroke:#000000; stroke-linecap:round; stroke-linejoin:round; stroke-width:2; stroke-opacity:0.1; fill:none" points="876.818,1879.98 876.818,47.2441 "></polyline>
<polyline clip-path="url(#clip692)" style="stroke:#000000; stroke-linecap:round; stroke-linejoin:round; stroke-width:2; stroke-opacity:0.1; fill:none" points="1105.71,1879.98 1105.71,47.2441 "></polyline>
<polyline clip-path="url(#clip692)" style="stroke:#000000; stroke-linecap:round; stroke-linejoin:round; stroke-width:2; stroke-opacity:0.1; fill:none" points="1334.59,1879.98 1334.59,47.2441 "></polyline>
<polyline clip-path="url(#clip692)" style="stroke:#000000; stroke-linecap:round; stroke-linejoin:round; stroke-width:2; stroke-opacity:0.1; fill:none" points="1563.48,1879.98 1563.48,47.2441 "></polyline>
<polyline clip-path="url(#clip692)" style="stroke:#000000; stroke-linecap:round; stroke-linejoin:round; stroke-width:2; stroke-opacity:0.1; fill:none" points="1792.37,1879.98 1792.37,47.2441 "></polyline>
<polyline clip-path="url(#clip692)" style="stroke:#000000; stroke-linecap:round; stroke-linejoin:round; stroke-width:2; stroke-opacity:0.1; fill:none" points="2021.26,1879.98 2021.26,47.2441 "></polyline>
<polyline clip-path="url(#clip692)" style="stroke:#000000; stroke-linecap:round; stroke-linejoin:round; stroke-width:2; stroke-opacity:0.1; fill:none" points="2250.15,1879.98 2250.15,47.2441 "></polyline>
<polyline clip-path="url(#clip692)" style="stroke:#000000; stroke-linecap:round; stroke-linejoin:round; stroke-width:2; stroke-opacity:0.1; fill:none" points="2479.04,1879.98 2479.04,47.2441 "></polyline>
<polyline clip-path="url(#clip692)" style="stroke:#000000; stroke-linecap:round; stroke-linejoin:round; stroke-width:2; stroke-opacity:0.1; fill:none" points="2707.93,1879.98 2707.93,47.2441 "></polyline>
<polyline clip-path="url(#clip690)" style="stroke:#000000; stroke-linecap:round; stroke-linejoin:round; stroke-width:4; stroke-opacity:1; fill:none" points="144.696,1879.98 2752.76,1879.98 "></polyline>
<polyline clip-path="url(#clip690)" style="stroke:#000000; stroke-linecap:round; stroke-linejoin:round; stroke-width:4; stroke-opacity:1; fill:none" points="144.696,47.2441 2752.76,47.2441 "></polyline>
<polyline clip-path="url(#clip690)" style="stroke:#000000; stroke-linecap:round; stroke-linejoin:round; stroke-width:4; stroke-opacity:1; fill:none" points="190.152,1879.98 190.152,1861.08 "></polyline>
<polyline clip-path="url(#clip690)" style="stroke:#000000; stroke-linecap:round; stroke-linejoin:round; stroke-width:4; stroke-opacity:1; fill:none" points="419.041,1879.98 419.041,1861.08 "></polyline>
<polyline clip-path="url(#clip690)" style="stroke:#000000; stroke-linecap:round; stroke-linejoin:round; stroke-width:4; stroke-opacity:1; fill:none" points="647.929,1879.98 647.929,1861.08 "></polyline>
<polyline clip-path="url(#clip690)" style="stroke:#000000; stroke-linecap:round; stroke-linejoin:round; stroke-width:4; stroke-opacity:1; fill:none" points="876.818,1879.98 876.818,1861.08 "></polyline>
<polyline clip-path="url(#clip690)" style="stroke:#000000; stroke-linecap:round; stroke-linejoin:round; stroke-width:4; stroke-opacity:1; fill:none" points="1105.71,1879.98 1105.71,1861.08 "></polyline>
<polyline clip-path="url(#clip690)" style="stroke:#000000; stroke-linecap:round; stroke-linejoin:round; stroke-width:4; stroke-opacity:1; fill:none" points="1334.59,1879.98 1334.59,1861.08 "></polyline>
<polyline clip-path="url(#clip690)" style="stroke:#000000; stroke-linecap:round; stroke-linejoin:round; stroke-width:4; stroke-opacity:1; fill:none" points="1563.48,1879.98 1563.48,1861.08 "></polyline>
<polyline clip-path="url(#clip690)" style="stroke:#000000; stroke-linecap:round; stroke-linejoin:round; stroke-width:4; stroke-opacity:1; fill:none" points="1792.37,1879.98 1792.37,1861.08 "></polyline>
<polyline clip-path="url(#clip690)" style="stroke:#000000; stroke-linecap:round; stroke-linejoin:round; stroke-width:4; stroke-opacity:1; fill:none" points="2021.26,1879.98 2021.26,1861.08 "></polyline>
<polyline clip-path="url(#clip690)" style="stroke:#000000; stroke-linecap:round; stroke-linejoin:round; stroke-width:4; stroke-opacity:1; fill:none" points="2250.15,1879.98 2250.15,1861.08 "></polyline>
<polyline clip-path="url(#clip690)" style="stroke:#000000; stroke-linecap:round; stroke-linejoin:round; stroke-width:4; stroke-opacity:1; fill:none" points="2479.04,1879.98 2479.04,1861.08 "></polyline>
<polyline clip-path="url(#clip690)" style="stroke:#000000; stroke-linecap:round; stroke-linejoin:round; stroke-width:4; stroke-opacity:1; fill:none" points="2707.93,1879.98 2707.93,1861.08 "></polyline>
<path clip-path="url(#clip690)" d="M134.678 1941.64 L142.317 1941.64 L142.317 1915.28 L134.007 1916.95 L134.007 1912.69 L142.27 1911.02 L146.946 1911.02 L146.946 1941.64 L154.585 1941.64 L154.585 1945.58 L134.678 1945.58 L134.678 1941.64 Z" fill="#000000" fill-rule="nonzero" fill-opacity="1"></path><path clip-path="url(#clip690)" d="M164.168 1944.86 L164.168 1940.6 Q165.928 1941.44 167.733 1941.88 Q169.539 1942.32 171.275 1942.32 Q175.904 1942.32 178.335 1939.21 Q180.789 1936.09 181.136 1929.75 Q179.793 1931.74 177.733 1932.8 Q175.673 1933.87 173.173 1933.87 Q167.988 1933.87 164.955 1930.74 Q161.946 1927.59 161.946 1922.15 Q161.946 1916.83 165.094 1913.61 Q168.242 1910.39 173.474 1910.39 Q179.469 1910.39 182.617 1915 Q185.789 1919.58 185.789 1928.33 Q185.789 1936.51 181.9 1941.39 Q178.034 1946.25 171.483 1946.25 Q169.724 1946.25 167.918 1945.9 Q166.113 1945.56 164.168 1944.86 M173.474 1930.21 Q176.622 1930.21 178.451 1928.06 Q180.303 1925.9 180.303 1922.15 Q180.303 1918.43 178.451 1916.27 Q176.622 1914.1 173.474 1914.1 Q170.326 1914.1 168.474 1916.27 Q166.645 1918.43 166.645 1922.15 Q166.645 1925.9 168.474 1928.06 Q170.326 1930.21 173.474 1930.21 Z" fill="#000000" fill-rule="nonzero" fill-opacity="1"></path><path clip-path="url(#clip690)" d="M204.191 1929.17 Q200.858 1929.17 198.937 1930.95 Q197.039 1932.73 197.039 1935.86 Q197.039 1938.98 198.937 1940.76 Q200.858 1942.55 204.191 1942.55 Q207.525 1942.55 209.446 1940.76 Q211.367 1938.96 211.367 1935.86 Q211.367 1932.73 209.446 1930.95 Q207.548 1929.17 204.191 1929.17 M199.515 1927.18 Q196.506 1926.44 194.816 1924.38 Q193.15 1922.32 193.15 1919.35 Q193.15 1915.21 196.09 1912.8 Q199.053 1910.39 204.191 1910.39 Q209.353 1910.39 212.293 1912.8 Q215.233 1915.21 215.233 1919.35 Q215.233 1922.32 213.543 1924.38 Q211.877 1926.44 208.89 1927.18 Q212.27 1927.96 214.145 1930.26 Q216.043 1932.55 216.043 1935.86 Q216.043 1940.88 212.964 1943.57 Q209.909 1946.25 204.191 1946.25 Q198.474 1946.25 195.395 1943.57 Q192.34 1940.88 192.34 1935.86 Q192.34 1932.55 194.238 1930.26 Q196.136 1927.96 199.515 1927.18 M197.803 1919.79 Q197.803 1922.48 199.469 1923.98 Q201.159 1925.49 204.191 1925.49 Q207.201 1925.49 208.89 1923.98 Q210.603 1922.48 210.603 1919.79 Q210.603 1917.11 208.89 1915.6 Q207.201 1914.1 204.191 1914.1 Q201.159 1914.1 199.469 1915.6 Q197.803 1917.11 197.803 1919.79 Z" fill="#000000" fill-rule="nonzero" fill-opacity="1"></path><path clip-path="url(#clip690)" d="M234.353 1914.1 Q230.742 1914.1 228.913 1917.66 Q227.108 1921.2 227.108 1928.33 Q227.108 1935.44 228.913 1939.01 Q230.742 1942.55 234.353 1942.55 Q237.987 1942.55 239.793 1939.01 Q241.622 1935.44 241.622 1928.33 Q241.622 1921.2 239.793 1917.66 Q237.987 1914.1 234.353 1914.1 M234.353 1910.39 Q240.163 1910.39 243.219 1915 Q246.298 1919.58 246.298 1928.33 Q246.298 1937.06 243.219 1941.67 Q240.163 1946.25 234.353 1946.25 Q228.543 1946.25 225.464 1941.67 Q222.409 1937.06 222.409 1928.33 Q222.409 1919.58 225.464 1915 Q228.543 1910.39 234.353 1910.39 Z" fill="#000000" fill-rule="nonzero" fill-opacity="1"></path><path clip-path="url(#clip690)" d="M363.323 1941.64 L370.962 1941.64 L370.962 1915.28 L362.652 1916.95 L362.652 1912.69 L370.916 1911.02 L375.592 1911.02 L375.592 1941.64 L383.231 1941.64 L383.231 1945.58 L363.323 1945.58 L363.323 1941.64 Z" fill="#000000" fill-rule="nonzero" fill-opacity="1"></path><path clip-path="url(#clip690)" d="M392.814 1944.86 L392.814 1940.6 Q394.573 1941.44 396.379 1941.88 Q398.184 1942.32 399.92 1942.32 Q404.55 1942.32 406.981 1939.21 Q409.434 1936.09 409.781 1929.75 Q408.439 1931.74 406.379 1932.8 Q404.318 1933.87 401.818 1933.87 Q396.633 1933.87 393.601 1930.74 Q390.592 1927.59 390.592 1922.15 Q390.592 1916.83 393.74 1913.61 Q396.888 1910.39 402.119 1910.39 Q408.115 1910.39 411.263 1915 Q414.434 1919.58 414.434 1928.33 Q414.434 1936.51 410.545 1941.39 Q406.68 1946.25 400.129 1946.25 Q398.369 1946.25 396.564 1945.9 Q394.758 1945.56 392.814 1944.86 M402.119 1930.21 Q405.268 1930.21 407.096 1928.06 Q408.948 1925.9 408.948 1922.15 Q408.948 1918.43 407.096 1916.27 Q405.268 1914.1 402.119 1914.1 Q398.971 1914.1 397.119 1916.27 Q395.291 1918.43 395.291 1922.15 Q395.291 1925.9 397.119 1928.06 Q398.971 1930.21 402.119 1930.21 Z" fill="#000000" fill-rule="nonzero" fill-opacity="1"></path><path clip-path="url(#clip690)" d="M432.837 1929.17 Q429.504 1929.17 427.582 1930.95 Q425.684 1932.73 425.684 1935.86 Q425.684 1938.98 427.582 1940.76 Q429.504 1942.55 432.837 1942.55 Q436.17 1942.55 438.091 1940.76 Q440.013 1938.96 440.013 1935.86 Q440.013 1932.73 438.091 1930.95 Q436.193 1929.17 432.837 1929.17 M428.161 1927.18 Q425.152 1926.44 423.462 1924.38 Q421.795 1922.32 421.795 1919.35 Q421.795 1915.21 424.735 1912.8 Q427.698 1910.39 432.837 1910.39 Q437.999 1910.39 440.939 1912.8 Q443.878 1915.21 443.878 1919.35 Q443.878 1922.32 442.189 1924.38 Q440.522 1926.44 437.536 1927.18 Q440.916 1927.96 442.79 1930.26 Q444.689 1932.55 444.689 1935.86 Q444.689 1940.88 441.61 1943.57 Q438.554 1946.25 432.837 1946.25 Q427.119 1946.25 424.041 1943.57 Q420.985 1940.88 420.985 1935.86 Q420.985 1932.55 422.883 1930.26 Q424.781 1927.96 428.161 1927.18 M426.448 1919.79 Q426.448 1922.48 428.115 1923.98 Q429.804 1925.49 432.837 1925.49 Q435.846 1925.49 437.536 1923.98 Q439.249 1922.48 439.249 1919.79 Q439.249 1917.11 437.536 1915.6 Q435.846 1914.1 432.837 1914.1 Q429.804 1914.1 428.115 1915.6 Q426.448 1917.11 426.448 1919.79 Z" fill="#000000" fill-rule="nonzero" fill-opacity="1"></path><path clip-path="url(#clip690)" d="M465.846 1915.09 L454.04 1933.54 L465.846 1933.54 L465.846 1915.09 M464.619 1911.02 L470.499 1911.02 L470.499 1933.54 L475.429 1933.54 L475.429 1937.43 L470.499 1937.43 L470.499 1945.58 L465.846 1945.58 L465.846 1937.43 L450.244 1937.43 L450.244 1932.92 L464.619 1911.02 Z" fill="#000000" fill-rule="nonzero" fill-opacity="1"></path><path clip-path="url(#clip690)" d="M592.501 1941.64 L600.14 1941.64 L600.14 1915.28 L591.83 1916.95 L591.83 1912.69 L600.094 1911.02 L604.77 1911.02 L604.77 1941.64 L612.409 1941.64 L612.409 1945.58 L592.501 1945.58 L592.501 1941.64 Z" fill="#000000" fill-rule="nonzero" fill-opacity="1"></path><path clip-path="url(#clip690)" d="M621.992 1944.86 L621.992 1940.6 Q623.751 1941.44 625.557 1941.88 Q627.362 1942.32 629.098 1942.32 Q633.728 1942.32 636.158 1939.21 Q638.612 1936.09 638.959 1929.75 Q637.617 1931.74 635.557 1932.8 Q633.496 1933.87 630.996 1933.87 Q625.811 1933.87 622.779 1930.74 Q619.77 1927.59 619.77 1922.15 Q619.77 1916.83 622.918 1913.61 Q626.066 1910.39 631.297 1910.39 Q637.293 1910.39 640.441 1915 Q643.612 1919.58 643.612 1928.33 Q643.612 1936.51 639.723 1941.39 Q635.857 1946.25 629.307 1946.25 Q627.547 1946.25 625.742 1945.9 Q623.936 1945.56 621.992 1944.86 M631.297 1930.21 Q634.445 1930.21 636.274 1928.06 Q638.126 1925.9 638.126 1922.15 Q638.126 1918.43 636.274 1916.27 Q634.445 1914.1 631.297 1914.1 Q628.149 1914.1 626.297 1916.27 Q624.469 1918.43 624.469 1922.15 Q624.469 1925.9 626.297 1928.06 Q628.149 1930.21 631.297 1930.21 Z" fill="#000000" fill-rule="nonzero" fill-opacity="1"></path><path clip-path="url(#clip690)" d="M662.015 1929.17 Q658.681 1929.17 656.76 1930.95 Q654.862 1932.73 654.862 1935.86 Q654.862 1938.98 656.76 1940.76 Q658.681 1942.55 662.015 1942.55 Q665.348 1942.55 667.269 1940.76 Q669.191 1938.96 669.191 1935.86 Q669.191 1932.73 667.269 1930.95 Q665.371 1929.17 662.015 1929.17 M657.339 1927.18 Q654.33 1926.44 652.64 1924.38 Q650.973 1922.32 650.973 1919.35 Q650.973 1915.21 653.913 1912.8 Q656.876 1910.39 662.015 1910.39 Q667.177 1910.39 670.117 1912.8 Q673.056 1915.21 673.056 1919.35 Q673.056 1922.32 671.367 1924.38 Q669.7 1926.44 666.714 1927.18 Q670.093 1927.96 671.968 1930.26 Q673.867 1932.55 673.867 1935.86 Q673.867 1940.88 670.788 1943.57 Q667.732 1946.25 662.015 1946.25 Q656.297 1946.25 653.218 1943.57 Q650.163 1940.88 650.163 1935.86 Q650.163 1932.55 652.061 1930.26 Q653.959 1927.96 657.339 1927.18 M655.626 1919.79 Q655.626 1922.48 657.293 1923.98 Q658.982 1925.49 662.015 1925.49 Q665.024 1925.49 666.714 1923.98 Q668.427 1922.48 668.427 1919.79 Q668.427 1917.11 666.714 1915.6 Q665.024 1914.1 662.015 1914.1 Q658.982 1914.1 657.293 1915.6 Q655.626 1917.11 655.626 1919.79 Z" fill="#000000" fill-rule="nonzero" fill-opacity="1"></path><path clip-path="url(#clip690)" d="M692.177 1929.17 Q688.843 1929.17 686.922 1930.95 Q685.024 1932.73 685.024 1935.86 Q685.024 1938.98 686.922 1940.76 Q688.843 1942.55 692.177 1942.55 Q695.51 1942.55 697.431 1940.76 Q699.353 1938.96 699.353 1935.86 Q699.353 1932.73 697.431 1930.95 Q695.533 1929.17 692.177 1929.17 M687.501 1927.18 Q684.491 1926.44 682.802 1924.38 Q681.135 1922.32 681.135 1919.35 Q681.135 1915.21 684.075 1912.8 Q687.038 1910.39 692.177 1910.39 Q697.339 1910.39 700.278 1912.8 Q703.218 1915.21 703.218 1919.35 Q703.218 1922.32 701.528 1924.38 Q699.862 1926.44 696.876 1927.18 Q700.255 1927.96 702.13 1930.26 Q704.028 1932.55 704.028 1935.86 Q704.028 1940.88 700.95 1943.57 Q697.894 1946.25 692.177 1946.25 Q686.459 1946.25 683.38 1943.57 Q680.325 1940.88 680.325 1935.86 Q680.325 1932.55 682.223 1930.26 Q684.121 1927.96 687.501 1927.18 M685.788 1919.79 Q685.788 1922.48 687.454 1923.98 Q689.144 1925.49 692.177 1925.49 Q695.186 1925.49 696.876 1923.98 Q698.589 1922.48 698.589 1919.79 Q698.589 1917.11 696.876 1915.6 Q695.186 1914.1 692.177 1914.1 Q689.144 1914.1 687.454 1915.6 Q685.788 1917.11 685.788 1919.79 Z" fill="#000000" fill-rule="nonzero" fill-opacity="1"></path><path clip-path="url(#clip690)" d="M822.142 1941.64 L829.781 1941.64 L829.781 1915.28 L821.471 1916.95 L821.471 1912.69 L829.735 1911.02 L834.411 1911.02 L834.411 1941.64 L842.049 1941.64 L842.049 1945.58 L822.142 1945.58 L822.142 1941.64 Z" fill="#000000" fill-rule="nonzero" fill-opacity="1"></path><path clip-path="url(#clip690)" d="M851.633 1944.86 L851.633 1940.6 Q853.392 1941.44 855.197 1941.88 Q857.003 1942.32 858.739 1942.32 Q863.369 1942.32 865.799 1939.21 Q868.253 1936.09 868.6 1929.75 Q867.258 1931.74 865.197 1932.8 Q863.137 1933.87 860.637 1933.87 Q855.452 1933.87 852.42 1930.74 Q849.41 1927.59 849.41 1922.15 Q849.41 1916.83 852.559 1913.61 Q855.707 1910.39 860.938 1910.39 Q866.933 1910.39 870.082 1915 Q873.253 1919.58 873.253 1928.33 Q873.253 1936.51 869.364 1941.39 Q865.498 1946.25 858.947 1946.25 Q857.188 1946.25 855.383 1945.9 Q853.577 1945.56 851.633 1944.86 M860.938 1930.21 Q864.086 1930.21 865.915 1928.06 Q867.767 1925.9 867.767 1922.15 Q867.767 1918.43 865.915 1916.27 Q864.086 1914.1 860.938 1914.1 Q857.79 1914.1 855.938 1916.27 Q854.109 1918.43 854.109 1922.15 Q854.109 1925.9 855.938 1928.06 Q857.79 1930.21 860.938 1930.21 Z" fill="#000000" fill-rule="nonzero" fill-opacity="1"></path><path clip-path="url(#clip690)" d="M881.795 1944.86 L881.795 1940.6 Q883.554 1941.44 885.359 1941.88 Q887.165 1942.32 888.901 1942.32 Q893.531 1942.32 895.961 1939.21 Q898.415 1936.09 898.762 1929.75 Q897.419 1931.74 895.359 1932.8 Q893.299 1933.87 890.799 1933.87 Q885.614 1933.87 882.582 1930.74 Q879.572 1927.59 879.572 1922.15 Q879.572 1916.83 882.72 1913.61 Q885.869 1910.39 891.1 1910.39 Q897.095 1910.39 900.244 1915 Q903.415 1919.58 903.415 1928.33 Q903.415 1936.51 899.526 1941.39 Q895.66 1946.25 889.109 1946.25 Q887.35 1946.25 885.545 1945.9 Q883.739 1945.56 881.795 1944.86 M891.1 1930.21 Q894.248 1930.21 896.077 1928.06 Q897.929 1925.9 897.929 1922.15 Q897.929 1918.43 896.077 1916.27 Q894.248 1914.1 891.1 1914.1 Q887.952 1914.1 886.1 1916.27 Q884.271 1918.43 884.271 1922.15 Q884.271 1925.9 886.1 1928.06 Q887.952 1930.21 891.1 1930.21 Z" fill="#000000" fill-rule="nonzero" fill-opacity="1"></path><path clip-path="url(#clip690)" d="M915.845 1941.64 L932.165 1941.64 L932.165 1945.58 L910.22 1945.58 L910.22 1941.64 Q912.882 1938.89 917.466 1934.26 Q922.072 1929.61 923.253 1928.26 Q925.498 1925.74 926.378 1924.01 Q927.28 1922.25 927.28 1920.56 Q927.28 1917.8 925.336 1916.07 Q923.415 1914.33 920.313 1914.33 Q918.114 1914.33 915.66 1915.09 Q913.23 1915.86 910.452 1917.41 L910.452 1912.69 Q913.276 1911.55 915.73 1910.97 Q918.183 1910.39 920.22 1910.39 Q925.591 1910.39 928.785 1913.08 Q931.979 1915.76 931.979 1920.26 Q931.979 1922.38 931.169 1924.31 Q930.382 1926.2 928.276 1928.8 Q927.697 1929.47 924.595 1932.69 Q921.493 1935.88 915.845 1941.64 Z" fill="#000000" fill-rule="nonzero" fill-opacity="1"></path><path clip-path="url(#clip690)" d="M1050.15 1941.64 L1057.79 1941.64 L1057.79 1915.28 L1049.48 1916.95 L1049.48 1912.69 L1057.74 1911.02 L1062.42 1911.02 L1062.42 1941.64 L1070.06 1941.64 L1070.06 1945.58 L1050.15 1945.58 L1050.15 1941.64 Z" fill="#000000" fill-rule="nonzero" fill-opacity="1"></path><path clip-path="url(#clip690)" d="M1079.64 1944.86 L1079.64 1940.6 Q1081.4 1941.44 1083.21 1941.88 Q1085.01 1942.32 1086.75 1942.32 Q1091.38 1942.32 1093.81 1939.21 Q1096.26 1936.09 1096.61 1929.75 Q1095.27 1931.74 1093.21 1932.8 Q1091.15 1933.87 1088.65 1933.87 Q1083.46 1933.87 1080.43 1930.74 Q1077.42 1927.59 1077.42 1922.15 Q1077.42 1916.83 1080.57 1913.61 Q1083.72 1910.39 1088.95 1910.39 Q1094.94 1910.39 1098.09 1915 Q1101.26 1919.58 1101.26 1928.33 Q1101.26 1936.51 1097.37 1941.39 Q1093.51 1946.25 1086.96 1946.25 Q1085.2 1946.25 1083.39 1945.9 Q1081.59 1945.56 1079.64 1944.86 M1088.95 1930.21 Q1092.1 1930.21 1093.92 1928.06 Q1095.78 1925.9 1095.78 1922.15 Q1095.78 1918.43 1093.92 1916.27 Q1092.1 1914.1 1088.95 1914.1 Q1085.8 1914.1 1083.95 1916.27 Q1082.12 1918.43 1082.12 1922.15 Q1082.12 1925.9 1083.95 1928.06 Q1085.8 1930.21 1088.95 1930.21 Z" fill="#000000" fill-rule="nonzero" fill-opacity="1"></path><path clip-path="url(#clip690)" d="M1109.8 1944.86 L1109.8 1940.6 Q1111.56 1941.44 1113.37 1941.88 Q1115.17 1942.32 1116.91 1942.32 Q1121.54 1942.32 1123.97 1939.21 Q1126.42 1936.09 1126.77 1929.75 Q1125.43 1931.74 1123.37 1932.8 Q1121.31 1933.87 1118.81 1933.87 Q1113.62 1933.87 1110.59 1930.74 Q1107.58 1927.59 1107.58 1922.15 Q1107.58 1916.83 1110.73 1913.61 Q1113.88 1910.39 1119.11 1910.39 Q1125.1 1910.39 1128.25 1915 Q1131.42 1919.58 1131.42 1928.33 Q1131.42 1936.51 1127.53 1941.39 Q1123.67 1946.25 1117.12 1946.25 Q1115.36 1946.25 1113.55 1945.9 Q1111.75 1945.56 1109.8 1944.86 M1119.11 1930.21 Q1122.26 1930.21 1124.09 1928.06 Q1125.94 1925.9 1125.94 1922.15 Q1125.94 1918.43 1124.09 1916.27 Q1122.26 1914.1 1119.11 1914.1 Q1115.96 1914.1 1114.11 1916.27 Q1112.28 1918.43 1112.28 1922.15 Q1112.28 1925.9 1114.11 1928.06 Q1115.96 1930.21 1119.11 1930.21 Z" fill="#000000" fill-rule="nonzero" fill-opacity="1"></path><path clip-path="url(#clip690)" d="M1150.41 1926.44 Q1147.26 1926.44 1145.41 1928.59 Q1143.58 1930.74 1143.58 1934.49 Q1143.58 1938.22 1145.41 1940.39 Q1147.26 1942.55 1150.41 1942.55 Q1153.55 1942.55 1155.38 1940.39 Q1157.23 1938.22 1157.23 1934.49 Q1157.23 1930.74 1155.38 1928.59 Q1153.55 1926.44 1150.41 1926.44 M1159.69 1911.78 L1159.69 1916.04 Q1157.93 1915.21 1156.12 1914.77 Q1154.34 1914.33 1152.58 1914.33 Q1147.95 1914.33 1145.5 1917.45 Q1143.07 1920.58 1142.72 1926.9 Q1144.09 1924.88 1146.15 1923.82 Q1148.21 1922.73 1150.68 1922.73 Q1155.89 1922.73 1158.9 1925.9 Q1161.93 1929.05 1161.93 1934.49 Q1161.93 1939.82 1158.78 1943.03 Q1155.64 1946.25 1150.41 1946.25 Q1144.41 1946.25 1141.24 1941.67 Q1138.07 1937.06 1138.07 1928.33 Q1138.07 1920.14 1141.96 1915.28 Q1145.84 1910.39 1152.4 1910.39 Q1154.16 1910.39 1155.94 1910.74 Q1157.74 1911.09 1159.69 1911.78 Z" fill="#000000" fill-rule="nonzero" fill-opacity="1"></path><path clip-path="url(#clip690)" d="M1283.21 1941.64 L1299.53 1941.64 L1299.53 1945.58 L1277.58 1945.58 L1277.58 1941.64 Q1280.24 1938.89 1284.83 1934.26 Q1289.43 1929.61 1290.61 1928.26 Q1292.86 1925.74 1293.74 1924.01 Q1294.64 1922.25 1294.64 1920.56 Q1294.64 1917.8 1292.7 1916.07 Q1290.78 1914.33 1287.67 1914.33 Q1285.47 1914.33 1283.02 1915.09 Q1280.59 1915.86 1277.81 1917.41 L1277.81 1912.69 Q1280.64 1911.55 1283.09 1910.97 Q1285.54 1910.39 1287.58 1910.39 Q1292.95 1910.39 1296.15 1913.08 Q1299.34 1915.76 1299.34 1920.26 Q1299.34 1922.38 1298.53 1924.31 Q1297.74 1926.2 1295.64 1928.8 Q1295.06 1929.47 1291.96 1932.69 Q1288.85 1935.88 1283.21 1941.64 Z" fill="#000000" fill-rule="nonzero" fill-opacity="1"></path><path clip-path="url(#clip690)" d="M1319.34 1914.1 Q1315.73 1914.1 1313.9 1917.66 Q1312.09 1921.2 1312.09 1928.33 Q1312.09 1935.44 1313.9 1939.01 Q1315.73 1942.55 1319.34 1942.55 Q1322.97 1942.55 1324.78 1939.01 Q1326.61 1935.44 1326.61 1928.33 Q1326.61 1921.2 1324.78 1917.66 Q1322.97 1914.1 1319.34 1914.1 M1319.34 1910.39 Q1325.15 1910.39 1328.21 1915 Q1331.28 1919.58 1331.28 1928.33 Q1331.28 1937.06 1328.21 1941.67 Q1325.15 1946.25 1319.34 1946.25 Q1313.53 1946.25 1310.45 1941.67 Q1307.4 1937.06 1307.4 1928.33 Q1307.4 1919.58 1310.45 1915 Q1313.53 1910.39 1319.34 1910.39 Z" fill="#000000" fill-rule="nonzero" fill-opacity="1"></path><path clip-path="url(#clip690)" d="M1349.5 1914.1 Q1345.89 1914.1 1344.06 1917.66 Q1342.26 1921.2 1342.26 1928.33 Q1342.26 1935.44 1344.06 1939.01 Q1345.89 1942.55 1349.5 1942.55 Q1353.14 1942.55 1354.94 1939.01 Q1356.77 1935.44 1356.77 1928.33 Q1356.77 1921.2 1354.94 1917.66 Q1353.14 1914.1 1349.5 1914.1 M1349.5 1910.39 Q1355.31 1910.39 1358.37 1915 Q1361.45 1919.58 1361.45 1928.33 Q1361.45 1937.06 1358.37 1941.67 Q1355.31 1946.25 1349.5 1946.25 Q1343.69 1946.25 1340.61 1941.67 Q1337.56 1937.06 1337.56 1928.33 Q1337.56 1919.58 1340.61 1915 Q1343.69 1910.39 1349.5 1910.39 Z" fill="#000000" fill-rule="nonzero" fill-opacity="1"></path><path clip-path="url(#clip690)" d="M1379.66 1914.1 Q1376.05 1914.1 1374.22 1917.66 Q1372.42 1921.2 1372.42 1928.33 Q1372.42 1935.44 1374.22 1939.01 Q1376.05 1942.55 1379.66 1942.55 Q1383.3 1942.55 1385.1 1939.01 Q1386.93 1935.44 1386.93 1928.33 Q1386.93 1921.2 1385.1 1917.66 Q1383.3 1914.1 1379.66 1914.1 M1379.66 1910.39 Q1385.47 1910.39 1388.53 1915 Q1391.61 1919.58 1391.61 1928.33 Q1391.61 1937.06 1388.53 1941.67 Q1385.47 1946.25 1379.66 1946.25 Q1373.85 1946.25 1370.78 1941.67 Q1367.72 1937.06 1367.72 1928.33 Q1367.72 1919.58 1370.78 1915 Q1373.85 1910.39 1379.66 1910.39 Z" fill="#000000" fill-rule="nonzero" fill-opacity="1"></path><path clip-path="url(#clip690)" d="M1511.85 1941.64 L1528.17 1941.64 L1528.17 1945.58 L1506.23 1945.58 L1506.23 1941.64 Q1508.89 1938.89 1513.47 1934.26 Q1518.08 1929.61 1519.26 1928.26 Q1521.5 1925.74 1522.38 1924.01 Q1523.29 1922.25 1523.29 1920.56 Q1523.29 1917.8 1521.34 1916.07 Q1519.42 1914.33 1516.32 1914.33 Q1514.12 1914.33 1511.67 1915.09 Q1509.24 1915.86 1506.46 1917.41 L1506.46 1912.69 Q1509.28 1911.55 1511.74 1910.97 Q1514.19 1910.39 1516.23 1910.39 Q1521.6 1910.39 1524.79 1913.08 Q1527.99 1915.76 1527.99 1920.26 Q1527.99 1922.38 1527.18 1924.31 Q1526.39 1926.2 1524.28 1928.8 Q1523.7 1929.47 1520.6 1932.69 Q1517.5 1935.88 1511.85 1941.64 Z" fill="#000000" fill-rule="nonzero" fill-opacity="1"></path><path clip-path="url(#clip690)" d="M1547.99 1914.1 Q1544.37 1914.1 1542.55 1917.66 Q1540.74 1921.2 1540.74 1928.33 Q1540.74 1935.44 1542.55 1939.01 Q1544.37 1942.55 1547.99 1942.55 Q1551.62 1942.55 1553.43 1939.01 Q1555.25 1935.44 1555.25 1928.33 Q1555.25 1921.2 1553.43 1917.66 Q1551.62 1914.1 1547.99 1914.1 M1547.99 1910.39 Q1553.8 1910.39 1556.85 1915 Q1559.93 1919.58 1559.93 1928.33 Q1559.93 1937.06 1556.85 1941.67 Q1553.8 1946.25 1547.99 1946.25 Q1542.18 1946.25 1539.1 1941.67 Q1536.04 1937.06 1536.04 1928.33 Q1536.04 1919.58 1539.1 1915 Q1542.18 1910.39 1547.99 1910.39 Z" fill="#000000" fill-rule="nonzero" fill-opacity="1"></path><path clip-path="url(#clip690)" d="M1578.15 1914.1 Q1574.54 1914.1 1572.71 1917.66 Q1570.9 1921.2 1570.9 1928.33 Q1570.9 1935.44 1572.71 1939.01 Q1574.54 1942.55 1578.15 1942.55 Q1581.78 1942.55 1583.59 1939.01 Q1585.42 1935.44 1585.42 1928.33 Q1585.42 1921.2 1583.59 1917.66 Q1581.78 1914.1 1578.15 1914.1 M1578.15 1910.39 Q1583.96 1910.39 1587.01 1915 Q1590.09 1919.58 1590.09 1928.33 Q1590.09 1937.06 1587.01 1941.67 Q1583.96 1946.25 1578.15 1946.25 Q1572.34 1946.25 1569.26 1941.67 Q1566.2 1937.06 1566.2 1928.33 Q1566.2 1919.58 1569.26 1915 Q1572.34 1910.39 1578.15 1910.39 Z" fill="#000000" fill-rule="nonzero" fill-opacity="1"></path><path clip-path="url(#clip690)" d="M1611.16 1915.09 L1599.35 1933.54 L1611.16 1933.54 L1611.16 1915.09 M1609.93 1911.02 L1615.81 1911.02 L1615.81 1933.54 L1620.74 1933.54 L1620.74 1937.43 L1615.81 1937.43 L1615.81 1945.58 L1611.16 1945.58 L1611.16 1937.43 L1595.55 1937.43 L1595.55 1932.92 L1609.93 1911.02 Z" fill="#000000" fill-rule="nonzero" fill-opacity="1"></path><path clip-path="url(#clip690)" d="M1741.03 1941.64 L1757.35 1941.64 L1757.35 1945.58 L1735.4 1945.58 L1735.4 1941.64 Q1738.07 1938.89 1742.65 1934.26 Q1747.26 1929.61 1748.44 1928.26 Q1750.68 1925.74 1751.56 1924.01 Q1752.46 1922.25 1752.46 1920.56 Q1752.46 1917.8 1750.52 1916.07 Q1748.6 1914.33 1745.5 1914.33 Q1743.3 1914.33 1740.84 1915.09 Q1738.41 1915.86 1735.64 1917.41 L1735.64 1912.69 Q1738.46 1911.55 1740.91 1910.97 Q1743.37 1910.39 1745.4 1910.39 Q1750.77 1910.39 1753.97 1913.08 Q1757.16 1915.76 1757.16 1920.26 Q1757.16 1922.38 1756.35 1924.31 Q1755.57 1926.2 1753.46 1928.8 Q1752.88 1929.47 1749.78 1932.69 Q1746.68 1935.88 1741.03 1941.64 Z" fill="#000000" fill-rule="nonzero" fill-opacity="1"></path><path clip-path="url(#clip690)" d="M1777.16 1914.1 Q1773.55 1914.1 1771.72 1917.66 Q1769.92 1921.2 1769.92 1928.33 Q1769.92 1935.44 1771.72 1939.01 Q1773.55 1942.55 1777.16 1942.55 Q1780.8 1942.55 1782.6 1939.01 Q1784.43 1935.44 1784.43 1928.33 Q1784.43 1921.2 1782.6 1917.66 Q1780.8 1914.1 1777.16 1914.1 M1777.16 1910.39 Q1782.97 1910.39 1786.03 1915 Q1789.11 1919.58 1789.11 1928.33 Q1789.11 1937.06 1786.03 1941.67 Q1782.97 1946.25 1777.16 1946.25 Q1771.35 1946.25 1768.27 1941.67 Q1765.22 1937.06 1765.22 1928.33 Q1765.22 1919.58 1768.27 1915 Q1771.35 1910.39 1777.16 1910.39 Z" fill="#000000" fill-rule="nonzero" fill-opacity="1"></path><path clip-path="url(#clip690)" d="M1807.33 1914.1 Q1803.71 1914.1 1801.89 1917.66 Q1800.08 1921.2 1800.08 1928.33 Q1800.08 1935.44 1801.89 1939.01 Q1803.71 1942.55 1807.33 1942.55 Q1810.96 1942.55 1812.77 1939.01 Q1814.59 1935.44 1814.59 1928.33 Q1814.59 1921.2 1812.77 1917.66 Q1810.96 1914.1 1807.33 1914.1 M1807.33 1910.39 Q1813.14 1910.39 1816.19 1915 Q1819.27 1919.58 1819.27 1928.33 Q1819.27 1937.06 1816.19 1941.67 Q1813.14 1946.25 1807.33 1946.25 Q1801.52 1946.25 1798.44 1941.67 Q1795.38 1937.06 1795.38 1928.33 Q1795.38 1919.58 1798.44 1915 Q1801.52 1910.39 1807.33 1910.39 Z" fill="#000000" fill-rule="nonzero" fill-opacity="1"></path><path clip-path="url(#clip690)" d="M1837.49 1929.17 Q1834.15 1929.17 1832.23 1930.95 Q1830.33 1932.73 1830.33 1935.86 Q1830.33 1938.98 1832.23 1940.76 Q1834.15 1942.55 1837.49 1942.55 Q1840.82 1942.55 1842.74 1940.76 Q1844.66 1938.96 1844.66 1935.86 Q1844.66 1932.73 1842.74 1930.95 Q1840.84 1929.17 1837.49 1929.17 M1832.81 1927.18 Q1829.8 1926.44 1828.11 1924.38 Q1826.45 1922.32 1826.45 1919.35 Q1826.45 1915.21 1829.39 1912.8 Q1832.35 1910.39 1837.49 1910.39 Q1842.65 1910.39 1845.59 1912.8 Q1848.53 1915.21 1848.53 1919.35 Q1848.53 1922.32 1846.84 1924.38 Q1845.17 1926.44 1842.19 1927.18 Q1845.57 1927.96 1847.44 1930.26 Q1849.34 1932.55 1849.34 1935.86 Q1849.34 1940.88 1846.26 1943.57 Q1843.2 1946.25 1837.49 1946.25 Q1831.77 1946.25 1828.69 1943.57 Q1825.64 1940.88 1825.64 1935.86 Q1825.64 1932.55 1827.53 1930.26 Q1829.43 1927.96 1832.81 1927.18 M1831.1 1919.79 Q1831.1 1922.48 1832.77 1923.98 Q1834.45 1925.49 1837.49 1925.49 Q1840.5 1925.49 1842.19 1923.98 Q1843.9 1922.48 1843.9 1919.79 Q1843.9 1917.11 1842.19 1915.6 Q1840.5 1914.1 1837.49 1914.1 Q1834.45 1914.1 1832.77 1915.6 Q1831.1 1917.11 1831.1 1919.79 Z" fill="#000000" fill-rule="nonzero" fill-opacity="1"></path><path clip-path="url(#clip690)" d="M1970.67 1941.64 L1986.99 1941.64 L1986.99 1945.58 L1965.05 1945.58 L1965.05 1941.64 Q1967.71 1938.89 1972.29 1934.26 Q1976.9 1929.61 1978.08 1928.26 Q1980.32 1925.74 1981.2 1924.01 Q1982.11 1922.25 1982.11 1920.56 Q1982.11 1917.8 1980.16 1916.07 Q1978.24 1914.33 1975.14 1914.33 Q1972.94 1914.33 1970.49 1915.09 Q1968.05 1915.86 1965.28 1917.41 L1965.28 1912.69 Q1968.1 1911.55 1970.55 1910.97 Q1973.01 1910.39 1975.05 1910.39 Q1980.42 1910.39 1983.61 1913.08 Q1986.8 1915.76 1986.8 1920.26 Q1986.8 1922.38 1985.99 1924.31 Q1985.21 1926.2 1983.1 1928.8 Q1982.52 1929.47 1979.42 1932.69 Q1976.32 1935.88 1970.67 1941.64 Z" fill="#000000" fill-rule="nonzero" fill-opacity="1"></path><path clip-path="url(#clip690)" d="M2006.8 1914.1 Q2003.19 1914.1 2001.36 1917.66 Q1999.56 1921.2 1999.56 1928.33 Q1999.56 1935.44 2001.36 1939.01 Q2003.19 1942.55 2006.8 1942.55 Q2010.44 1942.55 2012.24 1939.01 Q2014.07 1935.44 2014.07 1928.33 Q2014.07 1921.2 2012.24 1917.66 Q2010.44 1914.1 2006.8 1914.1 M2006.8 1910.39 Q2012.61 1910.39 2015.67 1915 Q2018.75 1919.58 2018.75 1928.33 Q2018.75 1937.06 2015.67 1941.67 Q2012.61 1946.25 2006.8 1946.25 Q2000.99 1946.25 1997.92 1941.67 Q1994.86 1937.06 1994.86 1928.33 Q1994.86 1919.58 1997.92 1915 Q2000.99 1910.39 2006.8 1910.39 Z" fill="#000000" fill-rule="nonzero" fill-opacity="1"></path><path clip-path="url(#clip690)" d="M2027.78 1941.64 L2035.42 1941.64 L2035.42 1915.28 L2027.11 1916.95 L2027.11 1912.69 L2035.37 1911.02 L2040.05 1911.02 L2040.05 1941.64 L2047.68 1941.64 L2047.68 1945.58 L2027.78 1945.58 L2027.78 1941.64 Z" fill="#000000" fill-rule="nonzero" fill-opacity="1"></path><path clip-path="url(#clip690)" d="M2061.16 1941.64 L2077.48 1941.64 L2077.48 1945.58 L2055.53 1945.58 L2055.53 1941.64 Q2058.19 1938.89 2062.78 1934.26 Q2067.38 1929.61 2068.56 1928.26 Q2070.81 1925.74 2071.69 1924.01 Q2072.59 1922.25 2072.59 1920.56 Q2072.59 1917.8 2070.65 1916.07 Q2068.73 1914.33 2065.62 1914.33 Q2063.42 1914.33 2060.97 1915.09 Q2058.54 1915.86 2055.76 1917.41 L2055.76 1912.69 Q2058.59 1911.55 2061.04 1910.97 Q2063.49 1910.39 2065.53 1910.39 Q2070.9 1910.39 2074.1 1913.08 Q2077.29 1915.76 2077.29 1920.26 Q2077.29 1922.38 2076.48 1924.31 Q2075.69 1926.2 2073.59 1928.8 Q2073.01 1929.47 2069.91 1932.69 Q2066.8 1935.88 2061.16 1941.64 Z" fill="#000000" fill-rule="nonzero" fill-opacity="1"></path><path clip-path="url(#clip690)" d="M2198.68 1941.64 L2215 1941.64 L2215 1945.58 L2193.05 1945.58 L2193.05 1941.64 Q2195.72 1938.89 2200.3 1934.26 Q2204.91 1929.61 2206.09 1928.26 Q2208.33 1925.74 2209.21 1924.01 Q2210.11 1922.25 2210.11 1920.56 Q2210.11 1917.8 2208.17 1916.07 Q2206.25 1914.33 2203.15 1914.33 Q2200.95 1914.33 2198.49 1915.09 Q2196.06 1915.86 2193.29 1917.41 L2193.29 1912.69 Q2196.11 1911.55 2198.56 1910.97 Q2201.02 1910.39 2203.05 1910.39 Q2208.42 1910.39 2211.62 1913.08 Q2214.81 1915.76 2214.81 1920.26 Q2214.81 1922.38 2214 1924.31 Q2213.22 1926.2 2211.11 1928.8 Q2210.53 1929.47 2207.43 1932.69 Q2204.33 1935.88 2198.68 1941.64 Z" fill="#000000" fill-rule="nonzero" fill-opacity="1"></path><path clip-path="url(#clip690)" d="M2234.81 1914.1 Q2231.2 1914.1 2229.37 1917.66 Q2227.57 1921.2 2227.57 1928.33 Q2227.57 1935.44 2229.37 1939.01 Q2231.2 1942.55 2234.81 1942.55 Q2238.45 1942.55 2240.25 1939.01 Q2242.08 1935.44 2242.08 1928.33 Q2242.08 1921.2 2240.25 1917.66 Q2238.45 1914.1 2234.81 1914.1 M2234.81 1910.39 Q2240.62 1910.39 2243.68 1915 Q2246.76 1919.58 2246.76 1928.33 Q2246.76 1937.06 2243.68 1941.67 Q2240.62 1946.25 2234.81 1946.25 Q2229 1946.25 2225.92 1941.67 Q2222.87 1937.06 2222.87 1928.33 Q2222.87 1919.58 2225.92 1915 Q2229 1910.39 2234.81 1910.39 Z" fill="#000000" fill-rule="nonzero" fill-opacity="1"></path><path clip-path="url(#clip690)" d="M2255.79 1941.64 L2263.42 1941.64 L2263.42 1915.28 L2255.11 1916.95 L2255.11 1912.69 L2263.38 1911.02 L2268.05 1911.02 L2268.05 1941.64 L2275.69 1941.64 L2275.69 1945.58 L2255.79 1945.58 L2255.79 1941.64 Z" fill="#000000" fill-rule="nonzero" fill-opacity="1"></path><path clip-path="url(#clip690)" d="M2295.72 1926.44 Q2292.57 1926.44 2290.72 1928.59 Q2288.89 1930.74 2288.89 1934.49 Q2288.89 1938.22 2290.72 1940.39 Q2292.57 1942.55 2295.72 1942.55 Q2298.86 1942.55 2300.69 1940.39 Q2302.54 1938.22 2302.54 1934.49 Q2302.54 1930.74 2300.69 1928.59 Q2298.86 1926.44 2295.72 1926.44 M2305 1911.78 L2305 1916.04 Q2303.24 1915.21 2301.43 1914.77 Q2299.65 1914.33 2297.89 1914.33 Q2293.26 1914.33 2290.81 1917.45 Q2288.38 1920.58 2288.03 1926.9 Q2289.4 1924.88 2291.46 1923.82 Q2293.52 1922.73 2295.99 1922.73 Q2301.2 1922.73 2304.21 1925.9 Q2307.24 1929.05 2307.24 1934.49 Q2307.24 1939.82 2304.1 1943.03 Q2300.95 1946.25 2295.72 1946.25 Q2289.72 1946.25 2286.55 1941.67 Q2283.38 1937.06 2283.38 1928.33 Q2283.38 1920.14 2287.27 1915.28 Q2291.16 1910.39 2297.71 1910.39 Q2299.47 1910.39 2301.25 1910.74 Q2303.05 1911.09 2305 1911.78 Z" fill="#000000" fill-rule="nonzero" fill-opacity="1"></path><path clip-path="url(#clip690)" d="M2427.65 1941.64 L2443.97 1941.64 L2443.97 1945.58 L2422.02 1945.58 L2422.02 1941.64 Q2424.69 1938.89 2429.27 1934.26 Q2433.88 1929.61 2435.06 1928.26 Q2437.3 1925.74 2438.18 1924.01 Q2439.08 1922.25 2439.08 1920.56 Q2439.08 1917.8 2437.14 1916.07 Q2435.22 1914.33 2432.12 1914.33 Q2429.92 1914.33 2427.46 1915.09 Q2425.03 1915.86 2422.26 1917.41 L2422.26 1912.69 Q2425.08 1911.55 2427.53 1910.97 Q2429.99 1910.39 2432.02 1910.39 Q2437.39 1910.39 2440.59 1913.08 Q2443.78 1915.76 2443.78 1920.26 Q2443.78 1922.38 2442.97 1924.31 Q2442.19 1926.2 2440.08 1928.8 Q2439.5 1929.47 2436.4 1932.69 Q2433.3 1935.88 2427.65 1941.64 Z" fill="#000000" fill-rule="nonzero" fill-opacity="1"></path><path clip-path="url(#clip690)" d="M2463.78 1914.1 Q2460.17 1914.1 2458.34 1917.66 Q2456.54 1921.2 2456.54 1928.33 Q2456.54 1935.44 2458.34 1939.01 Q2460.17 1942.55 2463.78 1942.55 Q2467.42 1942.55 2469.22 1939.01 Q2471.05 1935.44 2471.05 1928.33 Q2471.05 1921.2 2469.22 1917.66 Q2467.42 1914.1 2463.78 1914.1 M2463.78 1910.39 Q2469.59 1910.39 2472.65 1915 Q2475.73 1919.58 2475.73 1928.33 Q2475.73 1937.06 2472.65 1941.67 Q2469.59 1946.25 2463.78 1946.25 Q2457.97 1946.25 2454.89 1941.67 Q2451.84 1937.06 2451.84 1928.33 Q2451.84 1919.58 2454.89 1915 Q2457.97 1910.39 2463.78 1910.39 Z" fill="#000000" fill-rule="nonzero" fill-opacity="1"></path><path clip-path="url(#clip690)" d="M2487.97 1941.64 L2504.29 1941.64 L2504.29 1945.58 L2482.35 1945.58 L2482.35 1941.64 Q2485.01 1938.89 2489.59 1934.26 Q2494.2 1929.61 2495.38 1928.26 Q2497.63 1925.74 2498.5 1924.01 Q2499.41 1922.25 2499.41 1920.56 Q2499.41 1917.8 2497.46 1916.07 Q2495.54 1914.33 2492.44 1914.33 Q2490.24 1914.33 2487.79 1915.09 Q2485.36 1915.86 2482.58 1917.41 L2482.58 1912.69 Q2485.4 1911.55 2487.86 1910.97 Q2490.31 1910.39 2492.35 1910.39 Q2497.72 1910.39 2500.91 1913.08 Q2504.11 1915.76 2504.11 1920.26 Q2504.11 1922.38 2503.3 1924.31 Q2502.51 1926.2 2500.4 1928.8 Q2499.82 1929.47 2496.72 1932.69 Q2493.62 1935.88 2487.97 1941.64 Z" fill="#000000" fill-rule="nonzero" fill-opacity="1"></path><path clip-path="url(#clip690)" d="M2524.11 1914.1 Q2520.5 1914.1 2518.67 1917.66 Q2516.86 1921.2 2516.86 1928.33 Q2516.86 1935.44 2518.67 1939.01 Q2520.5 1942.55 2524.11 1942.55 Q2527.74 1942.55 2529.55 1939.01 Q2531.38 1935.44 2531.38 1928.33 Q2531.38 1921.2 2529.55 1917.66 Q2527.74 1914.1 2524.11 1914.1 M2524.11 1910.39 Q2529.92 1910.39 2532.97 1915 Q2536.05 1919.58 2536.05 1928.33 Q2536.05 1937.06 2532.97 1941.67 Q2529.92 1946.25 2524.11 1946.25 Q2518.3 1946.25 2515.22 1941.67 Q2512.16 1937.06 2512.16 1928.33 Q2512.16 1919.58 2515.22 1915 Q2518.3 1910.39 2524.11 1910.39 Z" fill="#000000" fill-rule="nonzero" fill-opacity="1"></path><path clip-path="url(#clip690)" d="M2656.29 1941.64 L2672.61 1941.64 L2672.61 1945.58 L2650.67 1945.58 L2650.67 1941.64 Q2653.33 1938.89 2657.91 1934.26 Q2662.52 1929.61 2663.7 1928.26 Q2665.95 1925.74 2666.83 1924.01 Q2667.73 1922.25 2667.73 1920.56 Q2667.73 1917.8 2665.79 1916.07 Q2663.86 1914.33 2660.76 1914.33 Q2658.56 1914.33 2656.11 1915.09 Q2653.68 1915.86 2650.9 1917.41 L2650.9 1912.69 Q2653.72 1911.55 2656.18 1910.97 Q2658.63 1910.39 2660.67 1910.39 Q2666.04 1910.39 2669.23 1913.08 Q2672.43 1915.76 2672.43 1920.26 Q2672.43 1922.38 2671.62 1924.31 Q2670.83 1926.2 2668.72 1928.8 Q2668.15 1929.47 2665.04 1932.69 Q2661.94 1935.88 2656.29 1941.64 Z" fill="#000000" fill-rule="nonzero" fill-opacity="1"></path><path clip-path="url(#clip690)" d="M2692.43 1914.1 Q2688.82 1914.1 2686.99 1917.66 Q2685.18 1921.2 2685.18 1928.33 Q2685.18 1935.44 2686.99 1939.01 Q2688.82 1942.55 2692.43 1942.55 Q2696.06 1942.55 2697.87 1939.01 Q2699.7 1935.44 2699.7 1928.33 Q2699.7 1921.2 2697.87 1917.66 Q2696.06 1914.1 2692.43 1914.1 M2692.43 1910.39 Q2698.24 1910.39 2701.29 1915 Q2704.37 1919.58 2704.37 1928.33 Q2704.37 1937.06 2701.29 1941.67 Q2698.24 1946.25 2692.43 1946.25 Q2686.62 1946.25 2683.54 1941.67 Q2680.48 1937.06 2680.48 1928.33 Q2680.48 1919.58 2683.54 1915 Q2686.62 1910.39 2692.43 1910.39 Z" fill="#000000" fill-rule="nonzero" fill-opacity="1"></path><path clip-path="url(#clip690)" d="M2716.62 1941.64 L2732.94 1941.64 L2732.94 1945.58 L2710.99 1945.58 L2710.99 1941.64 Q2713.66 1938.89 2718.24 1934.26 Q2722.84 1929.61 2724.03 1928.26 Q2726.27 1925.74 2727.15 1924.01 Q2728.05 1922.25 2728.05 1920.56 Q2728.05 1917.8 2726.11 1916.07 Q2724.19 1914.33 2721.09 1914.33 Q2718.89 1914.33 2716.43 1915.09 Q2714 1915.86 2711.22 1917.41 L2711.22 1912.69 Q2714.05 1911.55 2716.5 1910.97 Q2718.96 1910.39 2720.99 1910.39 Q2726.36 1910.39 2729.56 1913.08 Q2732.75 1915.76 2732.75 1920.26 Q2732.75 1922.38 2731.94 1924.31 Q2731.16 1926.2 2729.05 1928.8 Q2728.47 1929.47 2725.37 1932.69 Q2722.27 1935.88 2716.62 1941.64 Z" fill="#000000" fill-rule="nonzero" fill-opacity="1"></path><path clip-path="url(#clip690)" d="M2755.6 1915.09 L2743.79 1933.54 L2755.6 1933.54 L2755.6 1915.09 M2754.37 1911.02 L2760.25 1911.02 L2760.25 1933.54 L2765.18 1933.54 L2765.18 1937.43 L2760.25 1937.43 L2760.25 1945.58 L2755.6 1945.58 L2755.6 1937.43 L2740 1937.43 L2740 1932.92 L2754.37 1911.02 Z" fill="#000000" fill-rule="nonzero" fill-opacity="1"></path><polyline clip-path="url(#clip692)" style="stroke:#000000; stroke-linecap:round; stroke-linejoin:round; stroke-width:2; stroke-opacity:0.1; fill:none" points="144.696,1727.53 2752.76,1727.53 "></polyline>
<polyline clip-path="url(#clip692)" style="stroke:#000000; stroke-linecap:round; stroke-linejoin:round; stroke-width:2; stroke-opacity:0.1; fill:none" points="144.696,1330.79 2752.76,1330.79 "></polyline>
<polyline clip-path="url(#clip692)" style="stroke:#000000; stroke-linecap:round; stroke-linejoin:round; stroke-width:2; stroke-opacity:0.1; fill:none" points="144.696,934.04 2752.76,934.04 "></polyline>
<polyline clip-path="url(#clip692)" style="stroke:#000000; stroke-linecap:round; stroke-linejoin:round; stroke-width:2; stroke-opacity:0.1; fill:none" points="144.696,537.294 2752.76,537.294 "></polyline>
<polyline clip-path="url(#clip692)" style="stroke:#000000; stroke-linecap:round; stroke-linejoin:round; stroke-width:2; stroke-opacity:0.1; fill:none" points="144.696,140.548 2752.76,140.548 "></polyline>
<polyline clip-path="url(#clip690)" style="stroke:#000000; stroke-linecap:round; stroke-linejoin:round; stroke-width:4; stroke-opacity:1; fill:none" points="144.696,1879.98 144.696,47.2441 "></polyline>
<polyline clip-path="url(#clip690)" style="stroke:#000000; stroke-linecap:round; stroke-linejoin:round; stroke-width:4; stroke-opacity:1; fill:none" points="2752.76,1879.98 2752.76,47.2441 "></polyline>
<polyline clip-path="url(#clip690)" style="stroke:#000000; stroke-linecap:round; stroke-linejoin:round; stroke-width:4; stroke-opacity:1; fill:none" points="144.696,1727.53 163.593,1727.53 "></polyline>
<polyline clip-path="url(#clip690)" style="stroke:#000000; stroke-linecap:round; stroke-linejoin:round; stroke-width:4; stroke-opacity:1; fill:none" points="144.696,1330.79 163.593,1330.79 "></polyline>
<polyline clip-path="url(#clip690)" style="stroke:#000000; stroke-linecap:round; stroke-linejoin:round; stroke-width:4; stroke-opacity:1; fill:none" points="144.696,934.04 163.593,934.04 "></polyline>
<polyline clip-path="url(#clip690)" style="stroke:#000000; stroke-linecap:round; stroke-linejoin:round; stroke-width:4; stroke-opacity:1; fill:none" points="144.696,537.294 163.593,537.294 "></polyline>
<polyline clip-path="url(#clip690)" style="stroke:#000000; stroke-linecap:round; stroke-linejoin:round; stroke-width:4; stroke-opacity:1; fill:none" points="144.696,140.548 163.593,140.548 "></polyline>
<path clip-path="url(#clip690)" d="M90.7512 1713.33 Q87.1401 1713.33 85.3114 1716.9 Q83.5058 1720.44 83.5058 1727.57 Q83.5058 1734.67 85.3114 1738.24 Q87.1401 1741.78 90.7512 1741.78 Q94.3854 1741.78 96.1909 1738.24 Q98.0196 1734.67 98.0196 1727.57 Q98.0196 1720.44 96.1909 1716.9 Q94.3854 1713.33 90.7512 1713.33 M90.7512 1709.63 Q96.5613 1709.63 99.6169 1714.23 Q102.696 1718.82 102.696 1727.57 Q102.696 1736.29 99.6169 1740.9 Q96.5613 1745.48 90.7512 1745.48 Q84.941 1745.48 81.8623 1740.9 Q78.8068 1736.29 78.8068 1727.57 Q78.8068 1718.82 81.8623 1714.23 Q84.941 1709.63 90.7512 1709.63 Z" fill="#000000" fill-rule="nonzero" fill-opacity="1"></path><path clip-path="url(#clip690)" d="M81.7929 1313.51 L100.149 1313.51 L100.149 1317.44 L86.0753 1317.44 L86.0753 1325.91 Q87.0938 1325.57 88.1123 1325.4 Q89.1308 1325.22 90.1493 1325.22 Q95.9363 1325.22 99.3159 1328.39 Q102.696 1331.56 102.696 1336.98 Q102.696 1342.56 99.2233 1345.66 Q95.7511 1348.74 89.4317 1348.74 Q87.2558 1348.74 84.9873 1348.37 Q82.7419 1348 80.3346 1347.26 L80.3346 1342.56 Q82.4179 1343.69 84.6401 1344.25 Q86.8623 1344.8 89.3391 1344.8 Q93.3437 1344.8 95.6817 1342.7 Q98.0196 1340.59 98.0196 1336.98 Q98.0196 1333.37 95.6817 1331.26 Q93.3437 1329.15 89.3391 1329.15 Q87.4641 1329.15 85.5892 1329.57 Q83.7373 1329.99 81.7929 1330.87 L81.7929 1313.51 Z" fill="#000000" fill-rule="nonzero" fill-opacity="1"></path><path clip-path="url(#clip690)" d="M51.3995 947.385 L59.0384 947.385 L59.0384 921.02 L50.7282 922.686 L50.7282 918.427 L58.9921 916.76 L63.668 916.76 L63.668 947.385 L71.3068 947.385 L71.3068 951.32 L51.3995 951.32 L51.3995 947.385 Z" fill="#000000" fill-rule="nonzero" fill-opacity="1"></path><path clip-path="url(#clip690)" d="M90.7512 919.839 Q87.1401 919.839 85.3114 923.404 Q83.5058 926.946 83.5058 934.075 Q83.5058 941.182 85.3114 944.746 Q87.1401 948.288 90.7512 948.288 Q94.3854 948.288 96.1909 944.746 Q98.0196 941.182 98.0196 934.075 Q98.0196 926.946 96.1909 923.404 Q94.3854 919.839 90.7512 919.839 M90.7512 916.135 Q96.5613 916.135 99.6169 920.742 Q102.696 925.325 102.696 934.075 Q102.696 942.802 99.6169 947.408 Q96.5613 951.992 90.7512 951.992 Q84.941 951.992 81.8623 947.408 Q78.8068 942.802 78.8068 934.075 Q78.8068 925.325 81.8623 920.742 Q84.941 916.135 90.7512 916.135 Z" fill="#000000" fill-rule="nonzero" fill-opacity="1"></path><path clip-path="url(#clip690)" d="M52.3949 550.639 L60.0337 550.639 L60.0337 524.273 L51.7236 525.94 L51.7236 521.681 L59.9874 520.014 L64.6633 520.014 L64.6633 550.639 L72.3022 550.639 L72.3022 554.574 L52.3949 554.574 L52.3949 550.639 Z" fill="#000000" fill-rule="nonzero" fill-opacity="1"></path><path clip-path="url(#clip690)" d="M81.7929 520.014 L100.149 520.014 L100.149 523.949 L86.0753 523.949 L86.0753 532.421 Q87.0938 532.074 88.1123 531.912 Q89.1308 531.727 90.1493 531.727 Q95.9363 531.727 99.3159 534.898 Q102.696 538.07 102.696 543.486 Q102.696 549.065 99.2233 552.167 Q95.7511 555.245 89.4317 555.245 Q87.2558 555.245 84.9873 554.875 Q82.7419 554.505 80.3346 553.764 L80.3346 549.065 Q82.4179 550.199 84.6401 550.755 Q86.8623 551.31 89.3391 551.31 Q93.3437 551.31 95.6817 549.204 Q98.0196 547.097 98.0196 543.486 Q98.0196 539.875 95.6817 537.769 Q93.3437 535.662 89.3391 535.662 Q87.4641 535.662 85.5892 536.079 Q83.7373 536.495 81.7929 537.375 L81.7929 520.014 Z" fill="#000000" fill-rule="nonzero" fill-opacity="1"></path><path clip-path="url(#clip690)" d="M54.6171 153.893 L70.9365 153.893 L70.9365 157.828 L48.9921 157.828 L48.9921 153.893 Q51.6541 151.138 56.2375 146.508 Q60.8439 141.856 62.0245 140.513 Q64.2698 137.99 65.1494 136.254 Q66.0522 134.495 66.0522 132.805 Q66.0522 130.05 64.1078 128.314 Q62.1865 126.578 59.0847 126.578 Q56.8856 126.578 54.4319 127.342 Q52.0014 128.106 49.2236 129.657 L49.2236 124.934 Q52.0477 123.8 54.5014 123.221 Q56.955 122.643 58.9921 122.643 Q64.3624 122.643 67.5568 125.328 Q70.7513 128.013 70.7513 132.504 Q70.7513 134.633 69.9411 136.555 Q69.1541 138.453 67.0476 141.045 Q66.4689 141.717 63.367 144.934 Q60.2652 148.129 54.6171 153.893 Z" fill="#000000" fill-rule="nonzero" fill-opacity="1"></path><path clip-path="url(#clip690)" d="M90.7512 126.346 Q87.1401 126.346 85.3114 129.911 Q83.5058 133.453 83.5058 140.582 Q83.5058 147.689 85.3114 151.254 Q87.1401 154.795 90.7512 154.795 Q94.3854 154.795 96.1909 151.254 Q98.0196 147.689 98.0196 140.582 Q98.0196 133.453 96.1909 129.911 Q94.3854 126.346 90.7512 126.346 M90.7512 122.643 Q96.5613 122.643 99.6169 127.249 Q102.696 131.833 102.696 140.582 Q102.696 149.309 99.6169 153.916 Q96.5613 158.499 90.7512 158.499 Q84.941 158.499 81.8623 153.916 Q78.8068 149.309 78.8068 140.582 Q78.8068 131.833 81.8623 127.249 Q84.941 122.643 90.7512 122.643 Z" fill="#000000" fill-rule="nonzero" fill-opacity="1"></path><path clip-path="url(#clip692)" d="M218.509 211.436 L232.922 311.478 L247.178 382.325 L261.278 431.813 L275.692 465.57 L290.105 499.155 L304.361 537.03 L318.461 578.305 L332.875 615.974 L347.288 656.438 L361.544 695.265 L375.644 731.369 L390.057 761.557 L404.471 788.524 L418.727 816.83 L432.984 848.379 L447.397 879.284 L461.81 908.629 L476.067 936.165 L490.167 961.964 L504.58 986.641 L518.993 1012.01 L533.25 1036.06 L547.35 1056.27 L561.763 1074.97 L576.176 1088.3 L590.433 1095.97 L604.533 1099.82 L618.946 1100.77 L633.359 1101.24 L647.616 1101.05 L661.872 1100.44 L676.286 1093.14 L690.699 1078.57 L704.955 1059.77 L719.055 1037.69 L733.469 1017.28 L747.882 998.243 L762.138 979.761 L776.238 967.086 L790.652 959.731 L805.065 953.716 L819.321 948.298 L833.421 947.071 L847.835 948.892 L862.248 950.897 L876.504 954.321 L890.761 960.23 L905.174 968.444 L919.587 979.847 L933.844 1000.96 L947.944 1030.44 L962.357 1067.96 L976.77 1105.19 L991.027 1140.03 L1005.13 1171.41 L1019.54 1198.42 L1033.95 1219.75 L1048.21 1237.16 L1062.31 1252.09 L1076.72 1268.3 L1091.14 1287.12 L1105.39 1309.11 L1119.65 1333.73 L1134.06 1357.37 L1148.48 1379.29 L1162.73 1400.05 L1176.83 1417.55 L1191.25 1431.92 L1205.66 1443.28 L1219.92 1453.83 L1234.02 1465.26 L1248.43 1474.71 L1262.84 1483.92 L1277.1 1493.23 L1291.2 1502.08 L1305.61 1507.1 L1320.02 1506.46 L1334.28 1500.35 L1348.54 1493.02 L1362.95 1484.36 L1377.36 1477.54 L1391.62 1475.02 L1405.72 1478.22 L1420.13 1484.5 L1434.55 1495.27 L1448.8 1508.61 L1462.9 1519.93 L1477.32 1530.76 L1491.73 1542.09 L1505.99 1554.03 L1520.09 1566.26 L1534.5 1578.38 L1548.91 1587.74 L1563.17 1594.45 L1577.43 1599.14 L1591.84 1601.55 L1606.25 1602.54 L1620.51 1601.8 L1634.61 1599.44 L1649.02 1595.17 L1663.44 1588.61 L1677.69 1580.08 L1691.79 1569.3 L1706.21 1557.54 L1720.62 1545.58 L1734.88 1533.85 L1748.98 1523.12 L1763.39 1514.65 L1777.8 1508.88 L1792.06 1507.74 L1806.32 1513.38 L1820.73 1523.62 L1835.14 1541.78 L1849.4 1569.76 L1863.5 1603.37 L1877.91 1631.05 L1892.32 1653.99 L1906.58 1671.38 L1920.68 1684.27 L1935.09 1693.35 L1949.51 1699.05 L1963.76 1702.88 L1977.86 1705.78 L1992.28 1708.72 L2006.69 1713.54 L2020.95 1720.46 L2035.2 1730.25 L2049.62 1741.14 L2064.03 1751.62 L2078.29 1760.43 L2092.39 1767.72 L2106.8 1773.95 L2121.21 1778.71 L2135.47 1783.11 L2149.57 1786.9 L2163.98 1791.05 L2178.4 1795.41 L2192.65 1799.66 L2206.75 1803.48 L2221.17 1806.62 L2235.58 1810.46 L2249.84 1813.94 L2264.09 1817.34 L2278.51 1819.63 L2292.92 1821.63 L2307.18 1823.14 L2321.28 1824.36 L2335.69 1825.66 L2350.1 1826.45 L2364.36 1826.72 L2378.46 1826.83 L2392.87 1827.05 L2407.28 1827.15 L2421.54 1827.68 L2435.64 1828.11 L2450.05 1827.63 L2464.47 1827.72 L2478.72 1827.06 L2492.98 1825.86 L2507.39 1823.67 L2521.81 1821.11 L2536.06 1815.86 L2550.16 1808.7 L2564.58 1800.55 L2578.99 1789.71 L2593.25 1775.96 L2607.35 1759.42 L2621.76 1740.28 L2636.17 1717.99 L2650.43 1694.91 L2664.53 1678.17 L2678.94 1668.8 L2678.94 1556.47 L2664.53 1565.84 L2650.43 1582.59 L2636.17 1605.67 L2621.76 1627.96 L2607.35 1647.09 L2593.25 1663.64 L2578.99 1677.39 L2564.58 1688.23 L2550.16 1696.38 L2536.06 1703.53 L2521.81 1708.79 L2507.39 1711.35 L2492.98 1713.54 L2478.72 1714.74 L2464.47 1715.39 L2450.05 1715.31 L2435.64 1715.79 L2421.54 1715.36 L2407.28 1714.83 L2392.87 1714.72 L2378.46 1714.5 L2364.36 1714.39 L2350.1 1714.13 L2335.69 1713.34 L2321.28 1712.04 L2307.18 1710.81 L2292.92 1709.31 L2278.51 1707.3 L2264.09 1705.02 L2249.84 1701.62 L2235.58 1698.13 L2221.17 1694.3 L2206.75 1691.16 L2192.65 1687.34 L2178.4 1683.09 L2163.98 1678.73 L2149.57 1674.57 L2135.47 1670.79 L2121.21 1666.39 L2106.8 1661.63 L2092.39 1655.4 L2078.29 1648.11 L2064.03 1639.3 L2049.62 1628.82 L2035.2 1617.93 L2020.95 1608.14 L2006.69 1601.22 L1992.28 1596.39 L1977.86 1593.46 L1963.76 1590.56 L1949.51 1586.72 L1935.09 1581.03 L1920.68 1571.95 L1906.58 1559.06 L1892.32 1541.67 L1877.91 1518.73 L1863.5 1491.04 L1849.4 1457.44 L1835.14 1429.46 L1820.73 1411.3 L1806.32 1401.06 L1792.06 1395.41 L1777.8 1396.56 L1763.39 1402.33 L1748.98 1410.8 L1734.88 1421.53 L1720.62 1433.26 L1706.21 1445.22 L1691.79 1456.98 L1677.69 1467.76 L1663.44 1476.28 L1649.02 1482.85 L1634.61 1487.11 L1620.51 1489.48 L1606.25 1490.22 L1591.84 1489.22 L1577.43 1486.82 L1563.17 1482.13 L1548.91 1475.42 L1534.5 1466.05 L1520.09 1453.94 L1505.99 1441.7 L1491.73 1429.77 L1477.32 1418.44 L1462.9 1407.61 L1448.8 1396.28 L1434.55 1382.95 L1420.13 1372.18 L1405.72 1365.9 L1391.62 1362.69 L1377.36 1365.21 L1362.95 1372.03 L1348.54 1380.7 L1334.28 1388.03 L1320.02 1394.14 L1305.61 1394.78 L1291.2 1389.75 L1277.1 1380.91 L1262.84 1371.6 L1248.43 1362.39 L1234.02 1352.94 L1219.92 1341.51 L1205.66 1330.96 L1191.25 1319.59 L1176.83 1305.23 L1162.73 1287.73 L1148.48 1266.97 L1134.06 1245.05 L1119.65 1221.41 L1105.39 1196.79 L1091.14 1174.8 L1076.72 1155.98 L1062.31 1139.76 L1048.21 1124.84 L1033.95 1107.43 L1019.54 1086.1 L1005.13 1059.09 L991.027 1027.71 L976.77 992.87 L962.357 955.639 L947.944 918.12 L933.844 888.634 L919.587 867.525 L905.174 856.121 L890.761 847.908 L876.504 841.999 L862.248 838.575 L847.835 836.57 L833.421 834.749 L819.321 835.976 L805.065 841.393 L790.652 847.408 L776.238 854.763 L762.138 867.438 L747.882 885.921 L733.469 904.956 L719.055 925.369 L704.955 947.449 L690.699 966.249 L676.286 980.819 L661.872 988.114 L647.616 988.723 L633.359 988.919 L618.946 988.447 L604.533 987.502 L590.433 983.646 L576.176 975.982 L561.763 962.649 L547.35 943.945 L533.25 923.733 L518.993 899.683 L504.58 874.319 L490.167 849.641 L476.067 823.843 L461.81 796.307 L447.397 766.962 L432.984 736.056 L418.727 704.507 L404.471 676.201 L390.057 649.235 L375.644 619.047 L361.544 582.943 L347.288 544.115 L332.875 503.652 L318.461 465.982 L304.361 424.708 L290.105 386.832 L275.692 353.247 L261.278 319.49 L247.178 270.003 L232.922 199.156 L218.509 99.114  Z" fill="#009af9" fill-rule="evenodd" fill-opacity="0.5"></path>
<polyline clip-path="url(#clip692)" style="stroke:#009af9; stroke-linecap:round; stroke-linejoin:round; stroke-width:4; stroke-opacity:1; fill:none" points="218.509,155.275 232.922,255.317 247.178,326.164 261.278,375.652 275.692,409.408 290.105,442.993 304.361,480.869 318.461,522.143 332.875,559.813 347.288,600.277 361.544,639.104 375.644,675.208 390.057,705.396 404.471,732.363 418.727,760.668 432.984,792.218 447.397,823.123 461.81,852.468 476.067,880.004 490.167,905.803 504.58,930.48 518.993,955.845 533.25,979.894 547.35,1000.11 561.763,1018.81 576.176,1032.14 590.433,1039.81 604.533,1043.66 618.946,1044.61 633.359,1045.08 647.616,1044.88 661.872,1044.27 676.286,1036.98 690.699,1022.41 704.955,1003.61 719.055,981.53 733.469,961.118 747.882,942.082 762.138,923.6 776.238,910.924 790.652,903.57 805.065,897.555 819.321,892.137 833.421,890.91 847.835,892.731 862.248,894.736 876.504,898.16 890.761,904.069 905.174,912.283 919.587,923.686 933.844,944.795 947.944,974.281 962.357,1011.8 976.77,1049.03 991.027,1083.87 1005.13,1115.25 1019.54,1142.26 1033.95,1163.59 1048.21,1181 1062.31,1195.92 1076.72,1212.14 1091.14,1230.96 1105.39,1252.95 1119.65,1277.57 1134.06,1301.21 1148.48,1323.13 1162.73,1343.89 1176.83,1361.39 1191.25,1375.75 1205.66,1387.12 1219.92,1397.67 1234.02,1409.1 1248.43,1418.55 1262.84,1427.76 1277.1,1437.07 1291.2,1445.92 1305.61,1450.94 1320.02,1450.3 1334.28,1444.19 1348.54,1436.86 1362.95,1428.2 1377.36,1421.37 1391.62,1418.85 1405.72,1422.06 1420.13,1428.34 1434.55,1439.11 1448.8,1452.45 1462.9,1463.77 1477.32,1474.6 1491.73,1485.93 1505.99,1497.87 1520.09,1510.1 1534.5,1522.21 1548.91,1531.58 1563.17,1538.29 1577.43,1542.98 1591.84,1545.38 1606.25,1546.38 1620.51,1545.64 1634.61,1543.27 1649.02,1539.01 1663.44,1532.44 1677.69,1523.92 1691.79,1513.14 1706.21,1501.38 1720.62,1489.42 1734.88,1477.69 1748.98,1466.96 1763.39,1458.49 1777.8,1452.72 1792.06,1451.57 1806.32,1457.22 1820.73,1467.46 1835.14,1485.62 1849.4,1513.6 1863.5,1547.2 1877.91,1574.89 1892.32,1597.83 1906.58,1615.22 1920.68,1628.11 1935.09,1637.19 1949.51,1642.88 1963.76,1646.72 1977.86,1649.62 1992.28,1652.56 2006.69,1657.38 2020.95,1664.3 2035.2,1674.09 2049.62,1684.98 2064.03,1695.46 2078.29,1704.27 2092.39,1711.56 2106.8,1717.79 2121.21,1722.55 2135.47,1726.95 2149.57,1730.73 2163.98,1734.89 2178.4,1739.25 2192.65,1743.5 2206.75,1747.32 2221.17,1750.46 2235.58,1754.29 2249.84,1757.78 2264.09,1761.18 2278.51,1763.46 2292.92,1765.47 2307.18,1766.98 2321.28,1768.2 2335.69,1769.5 2350.1,1770.29 2364.36,1770.55 2378.46,1770.67 2392.87,1770.89 2407.28,1770.99 2421.54,1771.52 2435.64,1771.95 2450.05,1771.47 2464.47,1771.55 2478.72,1770.9 2492.98,1769.7 2507.39,1767.51 2521.81,1764.95 2536.06,1759.69 2550.16,1752.54 2564.58,1744.39 2578.99,1733.55 2593.25,1719.8 2607.35,1703.25 2621.76,1684.12 2636.17,1661.83 2650.43,1638.75 2664.53,1622 2678.94,1612.64 "></polyline>
<path clip-path="url(#clip690)" d="M1717.01 212.015 L2665.82 212.015 L2665.82 108.335 L1717.01 108.335  Z" fill="#ffffff" fill-rule="evenodd" fill-opacity="1"></path>
<polyline clip-path="url(#clip690)" style="stroke:#000000; stroke-linecap:round; stroke-linejoin:round; stroke-width:4; stroke-opacity:1; fill:none" points="1717.01,212.015 2665.82,212.015 2665.82,108.335 1717.01,108.335 1717.01,212.015 "></polyline>
<polyline clip-path="url(#clip690)" style="stroke:#009af9; stroke-linecap:round; stroke-linejoin:round; stroke-width:4; stroke-opacity:1; fill:none" points="1745.99,160.175 1919.86,160.175 "></polyline>
<path clip-path="url(#clip690)" d="M1948.84 142.895 L1968.7 142.895 L1968.7 146.83 L1953.51 146.83 L1953.51 157.016 L1967.22 157.016 L1967.22 160.951 L1953.51 160.951 L1953.51 177.455 L1948.84 177.455 L1948.84 142.895 Z" fill="#000000" fill-rule="nonzero" fill-opacity="1"></path><path clip-path="url(#clip690)" d="M1972.47 151.529 L1976.73 151.529 L1976.73 177.455 L1972.47 177.455 L1972.47 151.529 M1972.47 141.437 L1976.73 141.437 L1976.73 146.83 L1972.47 146.83 L1972.47 141.437 Z" fill="#000000" fill-rule="nonzero" fill-opacity="1"></path><path clip-path="url(#clip690)" d="M1985.64 141.437 L1989.9 141.437 L1989.9 177.455 L1985.64 177.455 L1985.64 141.437 Z" fill="#000000" fill-rule="nonzero" fill-opacity="1"></path><path clip-path="url(#clip690)" d="M2003.03 144.168 L2003.03 151.529 L2011.8 151.529 L2011.8 154.84 L2003.03 154.84 L2003.03 168.914 Q2003.03 172.085 2003.88 172.988 Q2004.76 173.89 2007.42 173.89 L2011.8 173.89 L2011.8 177.455 L2007.42 177.455 Q2002.49 177.455 2000.62 175.627 Q1998.74 173.775 1998.74 168.914 L1998.74 154.84 L1995.62 154.84 L1995.62 151.529 L1998.74 151.529 L1998.74 144.168 L2003.03 144.168 Z" fill="#000000" fill-rule="nonzero" fill-opacity="1"></path><path clip-path="url(#clip690)" d="M2039.58 163.428 L2039.58 165.511 L2019.99 165.511 Q2020.27 169.909 2022.63 172.224 Q2025.02 174.515 2029.25 174.515 Q2031.71 174.515 2034 173.914 Q2036.31 173.312 2038.58 172.108 L2038.58 176.136 Q2036.29 177.108 2033.88 177.617 Q2031.47 178.127 2029 178.127 Q2022.79 178.127 2019.16 174.515 Q2015.55 170.904 2015.55 164.747 Q2015.55 158.381 2018.98 154.654 Q2022.42 150.904 2028.26 150.904 Q2033.49 150.904 2036.52 154.284 Q2039.58 157.641 2039.58 163.428 M2035.32 162.178 Q2035.27 158.682 2033.35 156.599 Q2031.45 154.516 2028.3 154.516 Q2024.74 154.516 2022.59 156.529 Q2020.46 158.543 2020.13 162.201 L2035.32 162.178 Z" fill="#000000" fill-rule="nonzero" fill-opacity="1"></path><path clip-path="url(#clip690)" d="M2061.59 155.511 Q2060.87 155.094 2060.02 154.909 Q2059.18 154.701 2058.16 154.701 Q2054.55 154.701 2052.61 157.062 Q2050.69 159.4 2050.69 163.798 L2050.69 177.455 L2046.41 177.455 L2046.41 151.529 L2050.69 151.529 L2050.69 155.557 Q2052.03 153.196 2054.18 152.062 Q2056.34 150.904 2059.41 150.904 Q2059.85 150.904 2060.39 150.974 Q2060.92 151.02 2061.57 151.136 L2061.59 155.511 Z" fill="#000000" fill-rule="nonzero" fill-opacity="1"></path><path clip-path="url(#clip690)" d="M2087.19 163.428 L2087.19 165.511 L2067.61 165.511 Q2067.89 169.909 2070.25 172.224 Q2072.63 174.515 2076.87 174.515 Q2079.32 174.515 2081.61 173.914 Q2083.93 173.312 2086.2 172.108 L2086.2 176.136 Q2083.91 177.108 2081.5 177.617 Q2079.09 178.127 2076.61 178.127 Q2070.41 178.127 2066.78 174.515 Q2063.16 170.904 2063.16 164.747 Q2063.16 158.381 2066.59 154.654 Q2070.04 150.904 2075.87 150.904 Q2081.1 150.904 2084.14 154.284 Q2087.19 157.641 2087.19 163.428 M2082.93 162.178 Q2082.89 158.682 2080.97 156.599 Q2079.07 154.516 2075.92 154.516 Q2072.35 154.516 2070.2 156.529 Q2068.07 158.543 2067.75 162.201 L2082.93 162.178 Z" fill="#000000" fill-rule="nonzero" fill-opacity="1"></path><path clip-path="url(#clip690)" d="M2111.24 155.465 L2111.24 141.437 L2115.5 141.437 L2115.5 177.455 L2111.24 177.455 L2111.24 173.566 Q2109.9 175.881 2107.84 177.015 Q2105.8 178.127 2102.93 178.127 Q2098.23 178.127 2095.27 174.377 Q2092.33 170.627 2092.33 164.516 Q2092.33 158.404 2095.27 154.654 Q2098.23 150.904 2102.93 150.904 Q2105.8 150.904 2107.84 152.039 Q2109.9 153.15 2111.24 155.465 M2096.73 164.516 Q2096.73 169.215 2098.65 171.9 Q2100.59 174.562 2103.97 174.562 Q2107.35 174.562 2109.3 171.9 Q2111.24 169.215 2111.24 164.516 Q2111.24 159.816 2109.3 157.154 Q2107.35 154.469 2103.97 154.469 Q2100.59 154.469 2098.65 157.154 Q2096.73 159.816 2096.73 164.516 Z" fill="#000000" fill-rule="nonzero" fill-opacity="1"></path><path clip-path="url(#clip690)" d="M2160.9 161.807 L2160.9 177.455 L2156.64 177.455 L2156.64 161.946 Q2156.64 158.266 2155.2 156.437 Q2153.77 154.608 2150.9 154.608 Q2147.45 154.608 2145.46 156.807 Q2143.47 159.006 2143.47 162.803 L2143.47 177.455 L2139.18 177.455 L2139.18 151.529 L2143.47 151.529 L2143.47 155.557 Q2144.99 153.219 2147.05 152.062 Q2149.14 150.904 2151.84 150.904 Q2156.31 150.904 2158.6 153.682 Q2160.9 156.437 2160.9 161.807 Z" fill="#000000" fill-rule="nonzero" fill-opacity="1"></path><path clip-path="url(#clip690)" d="M2181.17 164.423 Q2176.01 164.423 2174.02 165.603 Q2172.03 166.784 2172.03 169.631 Q2172.03 171.9 2173.51 173.242 Q2175.02 174.562 2177.59 174.562 Q2181.13 174.562 2183.26 172.062 Q2185.41 169.539 2185.41 165.372 L2185.41 164.423 L2181.17 164.423 M2189.67 162.664 L2189.67 177.455 L2185.41 177.455 L2185.41 173.52 Q2183.95 175.881 2181.78 177.015 Q2179.6 178.127 2176.45 178.127 Q2172.47 178.127 2170.11 175.904 Q2167.77 173.659 2167.77 169.909 Q2167.77 165.534 2170.69 163.312 Q2173.63 161.09 2179.44 161.09 L2185.41 161.09 L2185.41 160.673 Q2185.41 157.733 2183.46 156.136 Q2181.54 154.516 2178.05 154.516 Q2175.83 154.516 2173.72 155.048 Q2171.61 155.58 2169.67 156.645 L2169.67 152.71 Q2172.01 151.807 2174.21 151.367 Q2176.4 150.904 2178.49 150.904 Q2184.11 150.904 2186.89 153.821 Q2189.67 156.738 2189.67 162.664 Z" fill="#000000" fill-rule="nonzero" fill-opacity="1"></path><path clip-path="url(#clip690)" d="M2202.65 144.168 L2202.65 151.529 L2211.43 151.529 L2211.43 154.84 L2202.65 154.84 L2202.65 168.914 Q2202.65 172.085 2203.51 172.988 Q2204.39 173.89 2207.05 173.89 L2211.43 173.89 L2211.43 177.455 L2207.05 177.455 Q2202.12 177.455 2200.25 175.627 Q2198.37 173.775 2198.37 168.914 L2198.37 154.84 L2195.25 154.84 L2195.25 151.529 L2198.37 151.529 L2198.37 144.168 L2202.65 144.168 Z" fill="#000000" fill-rule="nonzero" fill-opacity="1"></path><path clip-path="url(#clip690)" d="M2216.59 167.224 L2216.59 151.529 L2220.85 151.529 L2220.85 167.062 Q2220.85 170.742 2222.28 172.594 Q2223.72 174.423 2226.59 174.423 Q2230.04 174.423 2232.03 172.224 Q2234.04 170.025 2234.04 166.228 L2234.04 151.529 L2238.3 151.529 L2238.3 177.455 L2234.04 177.455 L2234.04 173.474 Q2232.49 175.835 2230.43 176.992 Q2228.4 178.127 2225.69 178.127 Q2221.22 178.127 2218.9 175.349 Q2216.59 172.571 2216.59 167.224 M2227.31 150.904 L2227.31 150.904 Z" fill="#000000" fill-rule="nonzero" fill-opacity="1"></path><path clip-path="url(#clip690)" d="M2262.1 155.511 Q2261.38 155.094 2260.52 154.909 Q2259.69 154.701 2258.67 154.701 Q2255.06 154.701 2253.12 157.062 Q2251.2 159.4 2251.2 163.798 L2251.2 177.455 L2246.91 177.455 L2246.91 151.529 L2251.2 151.529 L2251.2 155.557 Q2252.54 153.196 2254.69 152.062 Q2256.84 150.904 2259.92 150.904 Q2260.36 150.904 2260.9 150.974 Q2261.43 151.02 2262.08 151.136 L2262.1 155.511 Z" fill="#000000" fill-rule="nonzero" fill-opacity="1"></path><path clip-path="url(#clip690)" d="M2278.35 164.423 Q2273.19 164.423 2271.2 165.603 Q2269.21 166.784 2269.21 169.631 Q2269.21 171.9 2270.69 173.242 Q2272.19 174.562 2274.76 174.562 Q2278.3 174.562 2280.43 172.062 Q2282.58 169.539 2282.58 165.372 L2282.58 164.423 L2278.35 164.423 M2286.84 162.664 L2286.84 177.455 L2282.58 177.455 L2282.58 173.52 Q2281.13 175.881 2278.95 177.015 Q2276.77 178.127 2273.63 178.127 Q2269.65 178.127 2267.28 175.904 Q2264.95 173.659 2264.95 169.909 Q2264.95 165.534 2267.86 163.312 Q2270.8 161.09 2276.61 161.09 L2282.58 161.09 L2282.58 160.673 Q2282.58 157.733 2280.64 156.136 Q2278.72 154.516 2275.22 154.516 Q2273 154.516 2270.89 155.048 Q2268.79 155.58 2266.84 156.645 L2266.84 152.71 Q2269.18 151.807 2271.38 151.367 Q2273.58 150.904 2275.66 150.904 Q2281.29 150.904 2284.07 153.821 Q2286.84 156.738 2286.84 162.664 Z" fill="#000000" fill-rule="nonzero" fill-opacity="1"></path><path clip-path="url(#clip690)" d="M2295.62 141.437 L2299.88 141.437 L2299.88 177.455 L2295.62 177.455 L2295.62 141.437 Z" fill="#000000" fill-rule="nonzero" fill-opacity="1"></path><path clip-path="url(#clip690)" d="M2338.88 155.511 Q2338.16 155.094 2337.31 154.909 Q2336.47 154.701 2335.45 154.701 Q2331.84 154.701 2329.9 157.062 Q2327.98 159.4 2327.98 163.798 L2327.98 177.455 L2323.7 177.455 L2323.7 151.529 L2327.98 151.529 L2327.98 155.557 Q2329.32 153.196 2331.47 152.062 Q2333.63 150.904 2336.7 150.904 Q2337.14 150.904 2337.68 150.974 Q2338.21 151.02 2338.86 151.136 L2338.88 155.511 Z" fill="#000000" fill-rule="nonzero" fill-opacity="1"></path><path clip-path="url(#clip690)" d="M2355.13 164.423 Q2349.97 164.423 2347.98 165.603 Q2345.99 166.784 2345.99 169.631 Q2345.99 171.9 2347.47 173.242 Q2348.97 174.562 2351.54 174.562 Q2355.08 174.562 2357.21 172.062 Q2359.37 169.539 2359.37 165.372 L2359.37 164.423 L2355.13 164.423 M2363.63 162.664 L2363.63 177.455 L2359.37 177.455 L2359.37 173.52 Q2357.91 175.881 2355.73 177.015 Q2353.56 178.127 2350.41 178.127 Q2346.43 178.127 2344.07 175.904 Q2341.73 173.659 2341.73 169.909 Q2341.73 165.534 2344.64 163.312 Q2347.58 161.09 2353.39 161.09 L2359.37 161.09 L2359.37 160.673 Q2359.37 157.733 2357.42 156.136 Q2355.5 154.516 2352.01 154.516 Q2349.78 154.516 2347.68 155.048 Q2345.57 155.58 2343.63 156.645 L2343.63 152.71 Q2345.96 151.807 2348.16 151.367 Q2350.36 150.904 2352.45 150.904 Q2358.07 150.904 2360.85 153.821 Q2363.63 156.738 2363.63 162.664 Z" fill="#000000" fill-rule="nonzero" fill-opacity="1"></path><path clip-path="url(#clip690)" d="M2376.61 144.168 L2376.61 151.529 L2385.39 151.529 L2385.39 154.84 L2376.61 154.84 L2376.61 168.914 Q2376.61 172.085 2377.47 172.988 Q2378.35 173.89 2381.01 173.89 L2385.39 173.89 L2385.39 177.455 L2381.01 177.455 Q2376.08 177.455 2374.2 175.627 Q2372.33 173.775 2372.33 168.914 L2372.33 154.84 L2369.2 154.84 L2369.2 151.529 L2372.33 151.529 L2372.33 144.168 L2376.61 144.168 Z" fill="#000000" fill-rule="nonzero" fill-opacity="1"></path><path clip-path="url(#clip690)" d="M2413.16 163.428 L2413.16 165.511 L2393.58 165.511 Q2393.86 169.909 2396.22 172.224 Q2398.6 174.515 2402.84 174.515 Q2405.29 174.515 2407.58 173.914 Q2409.9 173.312 2412.17 172.108 L2412.17 176.136 Q2409.88 177.108 2407.47 177.617 Q2405.06 178.127 2402.58 178.127 Q2396.38 178.127 2392.75 174.515 Q2389.14 170.904 2389.14 164.747 Q2389.14 158.381 2392.56 154.654 Q2396.01 150.904 2401.84 150.904 Q2407.07 150.904 2410.11 154.284 Q2413.16 157.641 2413.16 163.428 M2408.9 162.178 Q2408.86 158.682 2406.94 156.599 Q2405.04 154.516 2401.89 154.516 Q2398.32 154.516 2396.17 156.529 Q2394.04 158.543 2393.72 162.201 L2408.9 162.178 Z" fill="#000000" fill-rule="nonzero" fill-opacity="1"></path><path clip-path="url(#clip690)" d="M2457.4 163.428 L2457.4 165.511 L2437.82 165.511 Q2438.09 169.909 2440.45 172.224 Q2442.84 174.515 2447.07 174.515 Q2449.53 174.515 2451.82 173.914 Q2454.13 173.312 2456.4 172.108 L2456.4 176.136 Q2454.11 177.108 2451.7 177.617 Q2449.3 178.127 2446.82 178.127 Q2440.62 178.127 2436.98 174.515 Q2433.37 170.904 2433.37 164.747 Q2433.37 158.381 2436.8 154.654 Q2440.25 150.904 2446.08 150.904 Q2451.31 150.904 2454.34 154.284 Q2457.4 157.641 2457.4 163.428 M2453.14 162.178 Q2453.09 158.682 2451.17 156.599 Q2449.27 154.516 2446.13 154.516 Q2442.56 154.516 2440.41 156.529 Q2438.28 158.543 2437.95 162.201 L2453.14 162.178 Z" fill="#000000" fill-rule="nonzero" fill-opacity="1"></path><path clip-path="url(#clip690)" d="M2480.92 152.293 L2480.92 156.321 Q2479.11 155.395 2477.17 154.932 Q2475.22 154.469 2473.14 154.469 Q2469.97 154.469 2468.37 155.441 Q2466.8 156.414 2466.8 158.358 Q2466.8 159.84 2467.93 160.696 Q2469.07 161.529 2472.49 162.293 L2473.95 162.617 Q2478.49 163.59 2480.38 165.372 Q2482.31 167.131 2482.31 170.303 Q2482.31 173.914 2479.44 176.02 Q2476.59 178.127 2471.59 178.127 Q2469.51 178.127 2467.24 177.71 Q2464.99 177.316 2462.49 176.506 L2462.49 172.108 Q2464.85 173.335 2467.14 173.96 Q2469.44 174.562 2471.68 174.562 Q2474.69 174.562 2476.31 173.543 Q2477.93 172.502 2477.93 170.627 Q2477.93 168.89 2476.75 167.965 Q2475.59 167.039 2471.63 166.182 L2470.15 165.835 Q2466.19 165.002 2464.44 163.289 Q2462.68 161.553 2462.68 158.543 Q2462.68 154.886 2465.27 152.895 Q2467.86 150.904 2472.63 150.904 Q2474.99 150.904 2477.07 151.252 Q2479.16 151.599 2480.92 152.293 Z" fill="#000000" fill-rule="nonzero" fill-opacity="1"></path><path clip-path="url(#clip690)" d="M2493.3 144.168 L2493.3 151.529 L2502.07 151.529 L2502.07 154.84 L2493.3 154.84 L2493.3 168.914 Q2493.3 172.085 2494.16 172.988 Q2495.04 173.89 2497.7 173.89 L2502.07 173.89 L2502.07 177.455 L2497.7 177.455 Q2492.77 177.455 2490.89 175.627 Q2489.02 173.775 2489.02 168.914 L2489.02 154.84 L2485.89 154.84 L2485.89 151.529 L2489.02 151.529 L2489.02 144.168 L2493.3 144.168 Z" fill="#000000" fill-rule="nonzero" fill-opacity="1"></path><path clip-path="url(#clip690)" d="M2507.68 151.529 L2511.94 151.529 L2511.94 177.455 L2507.68 177.455 L2507.68 151.529 M2507.68 141.437 L2511.94 141.437 L2511.94 146.83 L2507.68 146.83 L2507.68 141.437 Z" fill="#000000" fill-rule="nonzero" fill-opacity="1"></path><path clip-path="url(#clip690)" d="M2541.03 156.506 Q2542.63 153.636 2544.85 152.27 Q2547.07 150.904 2550.08 150.904 Q2554.13 150.904 2556.33 153.752 Q2558.53 156.576 2558.53 161.807 L2558.53 177.455 L2554.25 177.455 L2554.25 161.946 Q2554.25 158.219 2552.93 156.414 Q2551.61 154.608 2548.9 154.608 Q2545.59 154.608 2543.67 156.807 Q2541.75 159.006 2541.75 162.803 L2541.75 177.455 L2537.47 177.455 L2537.47 161.946 Q2537.47 158.196 2536.15 156.414 Q2534.83 154.608 2532.07 154.608 Q2528.81 154.608 2526.89 156.83 Q2524.97 159.029 2524.97 162.803 L2524.97 177.455 L2520.69 177.455 L2520.69 151.529 L2524.97 151.529 L2524.97 155.557 Q2526.43 153.173 2528.46 152.039 Q2530.5 150.904 2533.3 150.904 Q2536.13 150.904 2538.09 152.34 Q2540.08 153.775 2541.03 156.506 Z" fill="#000000" fill-rule="nonzero" fill-opacity="1"></path><path clip-path="url(#clip690)" d="M2578.81 164.423 Q2573.65 164.423 2571.66 165.603 Q2569.67 166.784 2569.67 169.631 Q2569.67 171.9 2571.15 173.242 Q2572.65 174.562 2575.22 174.562 Q2578.76 174.562 2580.89 172.062 Q2583.05 169.539 2583.05 165.372 L2583.05 164.423 L2578.81 164.423 M2587.31 162.664 L2587.31 177.455 L2583.05 177.455 L2583.05 173.52 Q2581.59 175.881 2579.41 177.015 Q2577.24 178.127 2574.09 178.127 Q2570.11 178.127 2567.75 175.904 Q2565.41 173.659 2565.41 169.909 Q2565.41 165.534 2568.32 163.312 Q2571.26 161.09 2577.07 161.09 L2583.05 161.09 L2583.05 160.673 Q2583.05 157.733 2581.1 156.136 Q2579.18 154.516 2575.69 154.516 Q2573.46 154.516 2571.36 155.048 Q2569.25 155.58 2567.31 156.645 L2567.31 152.71 Q2569.64 151.807 2571.84 151.367 Q2574.04 150.904 2576.12 150.904 Q2581.75 150.904 2584.53 153.821 Q2587.31 156.738 2587.31 162.664 Z" fill="#000000" fill-rule="nonzero" fill-opacity="1"></path><path clip-path="url(#clip690)" d="M2600.29 144.168 L2600.29 151.529 L2609.06 151.529 L2609.06 154.84 L2600.29 154.84 L2600.29 168.914 Q2600.29 172.085 2601.15 172.988 Q2602.03 173.89 2604.69 173.89 L2609.06 173.89 L2609.06 177.455 L2604.69 177.455 Q2599.76 177.455 2597.88 175.627 Q2596.01 173.775 2596.01 168.914 L2596.01 154.84 L2592.88 154.84 L2592.88 151.529 L2596.01 151.529 L2596.01 144.168 L2600.29 144.168 Z" fill="#000000" fill-rule="nonzero" fill-opacity="1"></path><path clip-path="url(#clip690)" d="M2636.84 163.428 L2636.84 165.511 L2617.26 165.511 Q2617.54 169.909 2619.9 172.224 Q2622.28 174.515 2626.52 174.515 Q2628.97 174.515 2631.26 173.914 Q2633.58 173.312 2635.85 172.108 L2635.85 176.136 Q2633.56 177.108 2631.15 177.617 Q2628.74 178.127 2626.26 178.127 Q2620.06 178.127 2616.43 174.515 Q2612.81 170.904 2612.81 164.747 Q2612.81 158.381 2616.24 154.654 Q2619.69 150.904 2625.52 150.904 Q2630.75 150.904 2633.79 154.284 Q2636.84 157.641 2636.84 163.428 M2632.58 162.178 Q2632.54 158.682 2630.62 156.599 Q2628.72 154.516 2625.57 154.516 Q2622 154.516 2619.85 156.529 Q2617.72 158.543 2617.4 162.201 L2632.58 162.178 Z" fill="#000000" fill-rule="nonzero" fill-opacity="1"></path></svg>