<svg xmlns="http://www.w3.org/2000/svg" xmlns:xlink="http://www.w3.org/1999/xlink" width="600" height="400" viewBox="0 0 2400 1600">
<defs>
  <clipPath id="clip550">
    <rect x="0" y="0" width="2400" height="1600"></rect>
  </clipPath>
</defs>
<path clip-path="url(#clip550)" d="M0 1600 L2400 1600 L2400 0 L0 0  Z" fill="#ffffff" fill-rule="evenodd" fill-opacity="1"></path>
<defs>
  <clipPath id="clip551">
    <rect x="480" y="0" width="1681" height="1600"></rect>
  </clipPath>
</defs>
<path clip-path="url(#clip550)" d="M112.177 1486.45 L2352.76 1486.45 L2352.76 123.472 L112.177 123.472  Z" fill="#ffffff" fill-rule="evenodd" fill-opacity="1"></path>
<defs>
  <clipPath id="clip552">
    <rect x="112" y="123" width="2242" height="1364"></rect>
  </clipPath>
</defs>
<polyline clip-path="url(#clip552)" style="stroke:#000000; stroke-linecap:round; stroke-linejoin:round; stroke-width:2; stroke-opacity:0.1; fill:none" points="379.921,1486.45 379.921,123.472 "></polyline>
<polyline clip-path="url(#clip552)" style="stroke:#000000; stroke-linecap:round; stroke-linejoin:round; stroke-width:2; stroke-opacity:0.1; fill:none" points="664.103,1486.45 664.103,123.472 "></polyline>
<polyline clip-path="url(#clip552)" style="stroke:#000000; stroke-linecap:round; stroke-linejoin:round; stroke-width:2; stroke-opacity:0.1; fill:none" points="948.285,1486.45 948.285,123.472 "></polyline>
<polyline clip-path="url(#clip552)" style="stroke:#000000; stroke-linecap:round; stroke-linejoin:round; stroke-width:2; stroke-opacity:0.1; fill:none" points="1232.47,1486.45 1232.47,123.472 "></polyline>
<polyline clip-path="url(#clip552)" style="stroke:#000000; stroke-linecap:round; stroke-linejoin:round; stroke-width:2; stroke-opacity:0.1; fill:none" points="1516.65,1486.45 1516.65,123.472 "></polyline>
<polyline clip-path="url(#clip552)" style="stroke:#000000; stroke-linecap:round; stroke-linejoin:round; stroke-width:2; stroke-opacity:0.1; fill:none" points="1800.83,1486.45 1800.83,123.472 "></polyline>
<polyline clip-path="url(#clip552)" style="stroke:#000000; stroke-linecap:round; stroke-linejoin:round; stroke-width:2; stroke-opacity:0.1; fill:none" points="2085.01,1486.45 2085.01,123.472 "></polyline>
<polyline clip-path="url(#clip550)" style="stroke:#000000; stroke-linecap:round; stroke-linejoin:round; stroke-width:4; stroke-opacity:1; fill:none" points="112.177,1486.45 2352.76,1486.45 "></polyline>
<polyline clip-path="url(#clip550)" style="stroke:#000000; stroke-linecap:round; stroke-linejoin:round; stroke-width:4; stroke-opacity:1; fill:none" points="379.921,1486.45 379.921,1467.55 "></polyline>
<polyline clip-path="url(#clip550)" style="stroke:#000000; stroke-linecap:round; stroke-linejoin:round; stroke-width:4; stroke-opacity:1; fill:none" points="664.103,1486.45 664.103,1467.55 "></polyline>
<polyline clip-path="url(#clip550)" style="stroke:#000000; stroke-linecap:round; stroke-linejoin:round; stroke-width:4; stroke-opacity:1; fill:none" points="948.285,1486.45 948.285,1467.55 "></polyline>
<polyline clip-path="url(#clip550)" style="stroke:#000000; stroke-linecap:round; stroke-linejoin:round; stroke-width:4; stroke-opacity:1; fill:none" points="1232.47,1486.45 1232.47,1467.55 "></polyline>
<polyline clip-path="url(#clip550)" style="stroke:#000000; stroke-linecap:round; stroke-linejoin:round; stroke-width:4; stroke-opacity:1; fill:none" points="1516.65,1486.45 1516.65,1467.55 "></polyline>
<polyline clip-path="url(#clip550)" style="stroke:#000000; stroke-linecap:round; stroke-linejoin:round; stroke-width:4; stroke-opacity:1; fill:none" points="1800.83,1486.45 1800.83,1467.55 "></polyline>
<polyline clip-path="url(#clip550)" style="stroke:#000000; stroke-linecap:round; stroke-linejoin:round; stroke-width:4; stroke-opacity:1; fill:none" points="2085.01,1486.45 2085.01,1467.55 "></polyline>
<path clip-path="url(#clip550)" d="M349.389 1532.02 L379.065 1532.02 L379.065 1535.95 L349.389 1535.95 L349.389 1532.02 Z" fill="#000000" fill-rule="nonzero" fill-opacity="1"></path><path clip-path="url(#clip550)" d="M403.324 1530.21 Q406.68 1530.93 408.555 1533.2 Q410.453 1535.47 410.453 1538.8 Q410.453 1543.92 406.935 1546.72 Q403.416 1549.52 396.935 1549.52 Q394.759 1549.52 392.444 1549.08 Q390.153 1548.66 387.699 1547.81 L387.699 1543.29 Q389.643 1544.43 391.958 1545.01 Q394.273 1545.58 396.796 1545.58 Q401.194 1545.58 403.486 1543.85 Q405.801 1542.11 405.801 1538.8 Q405.801 1535.75 403.648 1534.03 Q401.518 1532.3 397.699 1532.3 L393.671 1532.3 L393.671 1528.45 L397.884 1528.45 Q401.333 1528.45 403.162 1527.09 Q404.99 1525.7 404.99 1523.11 Q404.99 1520.45 403.092 1519.03 Q401.217 1517.6 397.699 1517.6 Q395.778 1517.6 393.579 1518.01 Q391.379 1518.43 388.741 1519.31 L388.741 1515.14 Q391.403 1514.4 393.717 1514.03 Q396.055 1513.66 398.116 1513.66 Q403.44 1513.66 406.541 1516.09 Q409.643 1518.5 409.643 1522.62 Q409.643 1525.49 408 1527.48 Q406.356 1529.45 403.324 1530.21 Z" fill="#000000" fill-rule="nonzero" fill-opacity="1"></path><path clip-path="url(#clip550)" d="M634.045 1532.02 L663.721 1532.02 L663.721 1535.95 L634.045 1535.95 L634.045 1532.02 Z" fill="#000000" fill-rule="nonzero" fill-opacity="1"></path><path clip-path="url(#clip550)" d="M677.841 1544.91 L694.161 1544.91 L694.161 1548.85 L672.216 1548.85 L672.216 1544.91 Q674.878 1542.16 679.462 1537.53 Q684.068 1532.88 685.249 1531.53 Q687.494 1529.01 688.374 1527.27 Q689.276 1525.51 689.276 1523.82 Q689.276 1521.07 687.332 1519.33 Q685.411 1517.6 682.309 1517.6 Q680.11 1517.6 677.656 1518.36 Q675.226 1519.13 672.448 1520.68 L672.448 1515.95 Q675.272 1514.82 677.726 1514.24 Q680.179 1513.66 682.216 1513.66 Q687.587 1513.66 690.781 1516.35 Q693.975 1519.03 693.975 1523.52 Q693.975 1525.65 693.165 1527.57 Q692.378 1529.47 690.272 1532.07 Q689.693 1532.74 686.591 1535.95 Q683.489 1539.15 677.841 1544.91 Z" fill="#000000" fill-rule="nonzero" fill-opacity="1"></path><path clip-path="url(#clip550)" d="M918.042 1532.02 L947.718 1532.02 L947.718 1535.95 L918.042 1535.95 L918.042 1532.02 Z" fill="#000000" fill-rule="nonzero" fill-opacity="1"></path><path clip-path="url(#clip550)" d="M958.62 1544.91 L966.259 1544.91 L966.259 1518.55 L957.949 1520.21 L957.949 1515.95 L966.213 1514.29 L970.889 1514.29 L970.889 1544.91 L978.528 1544.91 L978.528 1548.85 L958.62 1548.85 L958.62 1544.91 Z" fill="#000000" fill-rule="nonzero" fill-opacity="1"></path><path clip-path="url(#clip550)" d="M1232.47 1517.37 Q1228.86 1517.37 1227.03 1520.93 Q1225.22 1524.47 1225.22 1531.6 Q1225.22 1538.71 1227.03 1542.27 Q1228.86 1545.82 1232.47 1545.82 Q1236.1 1545.82 1237.91 1542.27 Q1239.74 1538.71 1239.74 1531.6 Q1239.74 1524.47 1237.91 1520.93 Q1236.1 1517.37 1232.47 1517.37 M1232.47 1513.66 Q1238.28 1513.66 1241.33 1518.27 Q1244.41 1522.85 1244.41 1531.6 Q1244.41 1540.33 1241.33 1544.94 Q1238.28 1549.52 1232.47 1549.52 Q1226.66 1549.52 1223.58 1544.94 Q1220.52 1540.33 1220.52 1531.6 Q1220.52 1522.85 1223.58 1518.27 Q1226.66 1513.66 1232.47 1513.66 Z" fill="#000000" fill-rule="nonzero" fill-opacity="1"></path><path clip-path="url(#clip550)" d="M1507.03 1544.91 L1514.67 1544.91 L1514.67 1518.55 L1506.36 1520.21 L1506.36 1515.95 L1514.62 1514.29 L1519.3 1514.29 L1519.3 1544.91 L1526.94 1544.91 L1526.94 1548.85 L1507.03 1548.85 L1507.03 1544.91 Z" fill="#000000" fill-rule="nonzero" fill-opacity="1"></path><path clip-path="url(#clip550)" d="M1795.48 1544.91 L1811.8 1544.91 L1811.8 1548.85 L1789.86 1548.85 L1789.86 1544.91 Q1792.52 1542.16 1797.1 1537.53 Q1801.71 1532.88 1802.89 1531.53 Q1805.14 1529.01 1806.02 1527.27 Q1806.92 1525.51 1806.92 1523.82 Q1806.92 1521.07 1804.97 1519.33 Q1803.05 1517.6 1799.95 1517.6 Q1797.75 1517.6 1795.3 1518.36 Q1792.87 1519.13 1790.09 1520.68 L1790.09 1515.95 Q1792.91 1514.82 1795.37 1514.24 Q1797.82 1513.66 1799.86 1513.66 Q1805.23 1513.66 1808.42 1516.35 Q1811.62 1519.03 1811.62 1523.52 Q1811.62 1525.65 1810.81 1527.57 Q1810.02 1529.47 1807.91 1532.07 Q1807.33 1532.74 1804.23 1535.95 Q1801.13 1539.15 1795.48 1544.91 Z" fill="#000000" fill-rule="nonzero" fill-opacity="1"></path><path clip-path="url(#clip550)" d="M2089.26 1530.21 Q2092.62 1530.93 2094.49 1533.2 Q2096.39 1535.47 2096.39 1538.8 Q2096.39 1543.92 2092.87 1546.72 Q2089.35 1549.52 2082.87 1549.52 Q2080.69 1549.52 2078.38 1549.08 Q2076.09 1548.66 2073.63 1547.81 L2073.63 1543.29 Q2075.58 1544.43 2077.89 1545.01 Q2080.21 1545.58 2082.73 1545.58 Q2087.13 1545.58 2089.42 1543.85 Q2091.74 1542.11 2091.74 1538.8 Q2091.74 1535.75 2089.58 1534.03 Q2087.45 1532.3 2083.63 1532.3 L2079.61 1532.3 L2079.61 1528.45 L2083.82 1528.45 Q2087.27 1528.45 2089.1 1527.09 Q2090.93 1525.7 2090.93 1523.11 Q2090.93 1520.45 2089.03 1519.03 Q2087.15 1517.6 2083.63 1517.6 Q2081.71 1517.6 2079.51 1518.01 Q2077.32 1518.43 2074.68 1519.31 L2074.68 1515.14 Q2077.34 1514.4 2079.65 1514.03 Q2081.99 1513.66 2084.05 1513.66 Q2089.38 1513.66 2092.48 1516.09 Q2095.58 1518.5 2095.58 1522.62 Q2095.58 1525.49 2093.94 1527.48 Q2092.29 1529.45 2089.26 1530.21 Z" fill="#000000" fill-rule="nonzero" fill-opacity="1"></path><polyline clip-path="url(#clip552)" style="stroke:#000000; stroke-linecap:round; stroke-linejoin:round; stroke-width:2; stroke-opacity:0.1; fill:none" points="112.177,1447.87 2352.76,1447.87 "></polyline>
<polyline clip-path="url(#clip552)" style="stroke:#000000; stroke-linecap:round; stroke-linejoin:round; stroke-width:2; stroke-opacity:0.1; fill:none" points="112.177,1206.6 2352.76,1206.6 "></polyline>
<polyline clip-path="url(#clip552)" style="stroke:#000000; stroke-linecap:round; stroke-linejoin:round; stroke-width:2; stroke-opacity:0.1; fill:none" points="112.177,965.328 2352.76,965.328 "></polyline>
<polyline clip-path="url(#clip552)" style="stroke:#000000; stroke-linecap:round; stroke-linejoin:round; stroke-width:2; stroke-opacity:0.1; fill:none" points="112.177,724.055 2352.76,724.055 "></polyline>
<polyline clip-path="url(#clip552)" style="stroke:#000000; stroke-linecap:round; stroke-linejoin:round; stroke-width:2; stroke-opacity:0.1; fill:none" points="112.177,482.782 2352.76,482.782 "></polyline>
<polyline clip-path="url(#clip552)" style="stroke:#000000; stroke-linecap:round; stroke-linejoin:round; stroke-width:2; stroke-opacity:0.1; fill:none" points="112.177,241.51 2352.76,241.51 "></polyline>
<polyline clip-path="url(#clip550)" style="stroke:#000000; stroke-linecap:round; stroke-linejoin:round; stroke-width:4; stroke-opacity:1; fill:none" points="112.177,1486.45 112.177,123.472 "></polyline>
<polyline clip-path="url(#clip550)" style="stroke:#000000; stroke-linecap:round; stroke-linejoin:round; stroke-width:4; stroke-opacity:1; fill:none" points="112.177,1447.87 131.075,1447.87 "></polyline>
<polyline clip-path="url(#clip550)" style="stroke:#000000; stroke-linecap:round; stroke-linejoin:round; stroke-width:4; stroke-opacity:1; fill:none" points="112.177,1206.6 131.075,1206.6 "></polyline>
<polyline clip-path="url(#clip550)" style="stroke:#000000; stroke-linecap:round; stroke-linejoin:round; stroke-width:4; stroke-opacity:1; fill:none" points="112.177,965.328 131.075,965.328 "></polyline>
<polyline clip-path="url(#clip550)" style="stroke:#000000; stroke-linecap:round; stroke-linejoin:round; stroke-width:4; stroke-opacity:1; fill:none" points="112.177,724.055 131.075,724.055 "></polyline>
<polyline clip-path="url(#clip550)" style="stroke:#000000; stroke-linecap:round; stroke-linejoin:round; stroke-width:4; stroke-opacity:1; fill:none" points="112.177,482.782 131.075,482.782 "></polyline>
<polyline clip-path="url(#clip550)" style="stroke:#000000; stroke-linecap:round; stroke-linejoin:round; stroke-width:4; stroke-opacity:1; fill:none" points="112.177,241.51 131.075,241.51 "></polyline>
<path clip-path="url(#clip550)" d="M64.2328 1433.67 Q60.6217 1433.67 58.793 1437.24 Q56.9875 1440.78 56.9875 1447.91 Q56.9875 1455.01 58.793 1458.58 Q60.6217 1462.12 64.2328 1462.12 Q67.867 1462.12 69.6726 1458.58 Q71.5013 1455.01 71.5013 1447.91 Q71.5013 1440.78 69.6726 1437.24 Q67.867 1433.67 64.2328 1433.67 M64.2328 1429.97 Q70.0429 1429.97 73.0985 1434.57 Q76.1772 1439.16 76.1772 1447.91 Q76.1772 1456.63 73.0985 1461.24 Q70.0429 1465.82 64.2328 1465.82 Q58.4226 1465.82 55.344 1461.24 Q52.2884 1456.63 52.2884 1447.91 Q52.2884 1439.16 55.344 1434.57 Q58.4226 1429.97 64.2328 1429.97 Z" fill="#000000" fill-rule="nonzero" fill-opacity="1"></path><path clip-path="url(#clip550)" d="M56.2699 1219.95 L63.9087 1219.95 L63.9087 1193.58 L55.5986 1195.25 L55.5986 1190.99 L63.8624 1189.32 L68.5383 1189.32 L68.5383 1219.95 L76.1772 1219.95 L76.1772 1223.88 L56.2699 1223.88 L56.2699 1219.95 Z" fill="#000000" fill-rule="nonzero" fill-opacity="1"></path><path clip-path="url(#clip550)" d="M59.8578 978.673 L76.1772 978.673 L76.1772 982.608 L54.2328 982.608 L54.2328 978.673 Q56.8949 975.918 61.4782 971.288 Q66.0846 966.636 67.2652 965.293 Q69.5105 962.77 70.3902 961.034 Q71.2929 959.274 71.2929 957.585 Q71.2929 954.83 69.3485 953.094 Q67.4272 951.358 64.3254 951.358 Q62.1263 951.358 59.6726 952.122 Q57.2421 952.886 54.4643 954.437 L54.4643 949.714 Q57.2884 948.58 59.7421 948.001 Q62.1958 947.423 64.2328 947.423 Q69.6031 947.423 72.7976 950.108 Q75.992 952.793 75.992 957.284 Q75.992 959.413 75.1818 961.335 Q74.3948 963.233 72.2883 965.825 Q71.7096 966.497 68.6078 969.714 Q65.5059 972.909 59.8578 978.673 Z" fill="#000000" fill-rule="nonzero" fill-opacity="1"></path><path clip-path="url(#clip550)" d="M69.0476 722.701 Q72.404 723.418 74.279 725.687 Q76.1772 727.955 76.1772 731.289 Q76.1772 736.404 72.6587 739.205 Q69.1402 742.006 62.6587 742.006 Q60.4828 742.006 58.168 741.566 Q55.8764 741.15 53.4227 740.293 L53.4227 735.779 Q55.3671 736.914 57.6819 737.492 Q59.9967 738.071 62.5198 738.071 Q66.918 738.071 69.2096 736.335 Q71.5244 734.599 71.5244 731.289 Q71.5244 728.233 69.3717 726.52 Q67.242 724.784 63.4226 724.784 L59.3949 724.784 L59.3949 720.942 L63.6078 720.942 Q67.0569 720.942 68.8855 719.576 Q70.7142 718.187 70.7142 715.594 Q70.7142 712.932 68.8161 711.52 Q66.9411 710.085 63.4226 710.085 Q61.5013 710.085 59.3023 710.502 Q57.1032 710.918 54.4643 711.798 L54.4643 707.631 Q57.1264 706.891 59.4412 706.52 Q61.7791 706.15 63.8393 706.15 Q69.1633 706.15 72.2652 708.581 Q75.367 710.988 75.367 715.108 Q75.367 717.979 73.7235 719.969 Q72.08 721.937 69.0476 722.701 Z" fill="#000000" fill-rule="nonzero" fill-opacity="1"></path><path clip-path="url(#clip550)" d="M66.5939 469.576 L54.7884 488.025 L66.5939 488.025 L66.5939 469.576 M65.367 465.502 L71.2466 465.502 L71.2466 488.025 L76.1772 488.025 L76.1772 491.914 L71.2466 491.914 L71.2466 500.062 L66.5939 500.062 L66.5939 491.914 L50.9921 491.914 L50.9921 487.4 L65.367 465.502 Z" fill="#000000" fill-rule="nonzero" fill-opacity="1"></path><path clip-path="url(#clip550)" d="M55.2745 224.23 L73.6309 224.23 L73.6309 228.165 L59.5569 228.165 L59.5569 236.637 Q60.5754 236.29 61.5939 236.128 Q62.6124 235.942 63.6309 235.942 Q69.418 235.942 72.7976 239.114 Q76.1772 242.285 76.1772 247.702 Q76.1772 253.28 72.705 256.382 Q69.2328 259.461 62.9134 259.461 Q60.7374 259.461 58.4689 259.09 Q56.2236 258.72 53.8162 257.979 L53.8162 253.28 Q55.8995 254.415 58.1217 254.97 Q60.3439 255.526 62.8208 255.526 Q66.8254 255.526 69.1633 253.419 Q71.5013 251.313 71.5013 247.702 Q71.5013 244.091 69.1633 241.984 Q66.8254 239.878 62.8208 239.878 Q60.9458 239.878 59.0708 240.294 Q57.2189 240.711 55.2745 241.591 L55.2745 224.23 Z" fill="#000000" fill-rule="nonzero" fill-opacity="1"></path><path clip-path="url(#clip550)" d="M342.341 12.096 L354.534 12.096 L369.968 53.2532 L385.483 12.096 L397.676 12.096 L397.676 72.576 L389.696 72.576 L389.696 19.4686 L374.1 60.9499 L365.877 60.9499 L350.281 19.4686 L350.281 72.576 L342.341 72.576 L342.341 12.096 Z" fill="#000000" fill-rule="nonzero" fill-opacity="1"></path><path clip-path="url(#clip550)" d="M431.177 32.4315 Q425.182 32.4315 421.698 37.1306 Q418.215 41.7891 418.215 49.9314 Q418.215 58.0738 421.658 62.7728 Q425.142 67.4314 431.177 67.4314 Q437.132 67.4314 440.616 62.7323 Q444.1 58.0333 444.1 49.9314 Q444.1 41.8701 440.616 37.1711 Q437.132 32.4315 431.177 32.4315 M431.177 26.1121 Q440.9 26.1121 446.449 32.4315 Q451.999 38.7509 451.999 49.9314 Q451.999 61.0714 446.449 67.4314 Q440.9 73.7508 431.177 73.7508 Q421.415 73.7508 415.865 67.4314 Q410.356 61.0714 410.356 49.9314 Q410.356 38.7509 415.865 32.4315 Q421.415 26.1121 431.177 26.1121 Z" fill="#000000" fill-rule="nonzero" fill-opacity="1"></path><path clip-path="url(#clip550)" d="M502.068 45.1919 L502.068 72.576 L494.615 72.576 L494.615 45.4349 Q494.615 38.994 492.103 35.7938 Q489.591 32.5936 484.568 32.5936 Q478.533 32.5936 475.049 36.4419 Q471.565 40.2903 471.565 46.9338 L471.565 72.576 L464.071 72.576 L464.071 27.2059 L471.565 27.2059 L471.565 34.2544 Q474.239 30.163 477.844 28.1376 Q481.49 26.1121 486.229 26.1121 Q494.047 26.1121 498.058 30.9732 Q502.068 35.7938 502.068 45.1919 Z" fill="#000000" fill-rule="nonzero" fill-opacity="1"></path><path clip-path="url(#clip550)" d="M555.743 48.0275 L555.743 51.6733 L521.472 51.6733 Q521.958 59.3701 526.09 63.421 Q530.263 67.4314 537.676 67.4314 Q541.97 67.4314 545.98 66.3781 Q550.031 65.3249 554.001 63.2184 L554.001 70.267 Q549.99 71.9684 545.778 72.8596 Q541.565 73.7508 537.23 73.7508 Q526.374 73.7508 520.014 67.4314 Q513.694 61.1119 513.694 50.3365 Q513.694 39.1965 519.69 32.6746 Q525.726 26.1121 535.934 26.1121 Q545.089 26.1121 550.396 32.0264 Q555.743 37.9003 555.743 48.0275 M548.289 45.84 Q548.208 39.7232 544.846 36.0774 Q541.524 32.4315 536.015 32.4315 Q529.776 32.4315 526.009 35.9558 Q522.282 39.4801 521.715 45.8805 L548.289 45.84 Z" fill="#000000" fill-rule="nonzero" fill-opacity="1"></path><path clip-path="url(#clip550)" d="M575.349 14.324 L575.349 27.2059 L590.702 27.2059 L590.702 32.9987 L575.349 32.9987 L575.349 57.6282 Q575.349 63.1779 576.848 64.7578 Q578.387 66.3376 583.046 66.3376 L590.702 66.3376 L590.702 72.576 L583.046 72.576 Q574.417 72.576 571.136 69.3758 Q567.855 66.1351 567.855 57.6282 L567.855 32.9987 L562.386 32.9987 L562.386 27.2059 L567.855 27.2059 L567.855 14.324 L575.349 14.324 Z" fill="#000000" fill-rule="nonzero" fill-opacity="1"></path><path clip-path="url(#clip550)" d="M621.124 49.7694 Q612.091 49.7694 608.607 51.8354 Q605.123 53.9013 605.123 58.8839 Q605.123 62.8538 607.716 65.2034 Q610.349 67.5124 614.845 67.5124 Q621.043 67.5124 624.77 63.1374 Q628.537 58.7219 628.537 51.4303 L628.537 49.7694 L621.124 49.7694 M635.991 46.6907 L635.991 72.576 L628.537 72.576 L628.537 65.6895 Q625.985 69.8214 622.178 71.8063 Q618.37 73.7508 612.86 73.7508 Q605.893 73.7508 601.761 69.8619 Q597.67 65.9325 597.67 59.3701 Q597.67 51.7138 602.774 47.825 Q607.918 43.9361 618.086 43.9361 L628.537 43.9361 L628.537 43.2069 Q628.537 38.0623 625.135 35.2672 Q621.772 32.4315 615.656 32.4315 Q611.767 32.4315 608.08 33.3632 Q604.394 34.295 600.991 36.1584 L600.991 29.2718 Q605.083 27.692 608.931 26.9223 Q612.779 26.1121 616.425 26.1121 Q626.269 26.1121 631.13 31.2163 Q635.991 36.3204 635.991 46.6907 Z" fill="#000000" fill-rule="nonzero" fill-opacity="1"></path><path clip-path="url(#clip550)" d="M677.634 34.1734 Q676.379 33.4443 674.88 33.1202 Q673.422 32.7556 671.639 32.7556 Q665.32 32.7556 661.917 36.8875 Q658.555 40.9789 658.555 48.6757 L658.555 72.576 L651.061 72.576 L651.061 27.2059 L658.555 27.2059 L658.555 34.2544 Q660.904 30.1225 664.672 28.1376 Q668.439 26.1121 673.827 26.1121 Q674.596 26.1121 675.528 26.2337 Q676.46 26.3147 677.594 26.5172 L677.634 34.1734 Z" fill="#000000" fill-rule="nonzero" fill-opacity="1"></path><path clip-path="url(#clip550)" d="M704.33 76.7889 Q701.17 84.8907 698.173 87.3618 Q695.175 89.8329 690.152 89.8329 L684.197 89.8329 L684.197 83.5945 L688.572 83.5945 Q691.651 83.5945 693.352 82.1361 Q695.053 80.6778 697.119 75.2496 L698.456 71.8468 L680.105 27.2059 L688.005 27.2059 L702.183 62.6918 L716.361 27.2059 L724.26 27.2059 L704.33 76.7889 Z" fill="#000000" fill-rule="nonzero" fill-opacity="1"></path><path clip-path="url(#clip550)" d="M768.132 65.7705 L768.132 89.8329 L760.637 89.8329 L760.637 27.2059 L768.132 27.2059 L768.132 34.0924 Q770.481 30.0415 774.046 28.0971 Q777.651 26.1121 782.634 26.1121 Q790.898 26.1121 796.042 32.6746 Q801.228 39.2371 801.228 49.9314 Q801.228 60.6258 796.042 67.1883 Q790.898 73.7508 782.634 73.7508 Q777.651 73.7508 774.046 71.8063 Q770.481 69.8214 768.132 65.7705 M793.49 49.9314 Q793.49 41.7081 790.088 37.0496 Q786.725 32.3505 780.811 32.3505 Q774.897 32.3505 771.494 37.0496 Q768.132 41.7081 768.132 49.9314 Q768.132 58.1548 771.494 62.8538 Q774.897 67.5124 780.811 67.5124 Q786.725 67.5124 790.088 62.8538 Q793.49 58.1548 793.49 49.9314 Z" fill="#000000" fill-rule="nonzero" fill-opacity="1"></path><path clip-path="url(#clip550)" d="M831.164 32.4315 Q825.168 32.4315 821.685 37.1306 Q818.201 41.7891 818.201 49.9314 Q818.201 58.0738 821.644 62.7728 Q825.128 67.4314 831.164 67.4314 Q837.119 67.4314 840.602 62.7323 Q844.086 58.0333 844.086 49.9314 Q844.086 41.8701 840.602 37.1711 Q837.119 32.4315 831.164 32.4315 M831.164 26.1121 Q840.886 26.1121 846.436 32.4315 Q851.985 38.7509 851.985 49.9314 Q851.985 61.0714 846.436 67.4314 Q840.886 73.7508 831.164 73.7508 Q821.401 73.7508 815.851 67.4314 Q810.342 61.0714 810.342 49.9314 Q810.342 38.7509 815.851 32.4315 Q821.401 26.1121 831.164 26.1121 Z" fill="#000000" fill-rule="nonzero" fill-opacity="1"></path><path clip-path="url(#clip550)" d="M864.341 9.54393 L871.794 9.54393 L871.794 72.576 L864.341 72.576 L864.341 9.54393 Z" fill="#000000" fill-rule="nonzero" fill-opacity="1"></path><path clip-path="url(#clip550)" d="M887.39 27.2059 L894.844 27.2059 L894.844 72.576 L887.39 72.576 L887.39 27.2059 M887.39 9.54393 L894.844 9.54393 L894.844 18.9825 L887.39 18.9825 L887.39 9.54393 Z" fill="#000000" fill-rule="nonzero" fill-opacity="1"></path><path clip-path="url(#clip550)" d="M943.09 28.9478 L943.09 35.9153 Q939.93 34.1734 936.73 33.3227 Q933.571 32.4315 930.33 32.4315 Q923.079 32.4315 919.068 37.0496 Q915.058 41.6271 915.058 49.9314 Q915.058 58.2358 919.068 62.8538 Q923.079 67.4314 930.33 67.4314 Q933.571 67.4314 936.73 66.5807 Q939.93 65.6895 943.09 63.9476 L943.09 70.8341 Q939.971 72.2924 936.609 73.0216 Q933.287 73.7508 929.52 73.7508 Q919.271 73.7508 913.235 67.3098 Q907.199 60.8689 907.199 49.9314 Q907.199 38.832 913.276 32.472 Q919.392 26.1121 930.006 26.1121 Q933.449 26.1121 936.73 26.8413 Q940.012 27.5299 943.09 28.9478 Z" fill="#000000" fill-rule="nonzero" fill-opacity="1"></path><path clip-path="url(#clip550)" d="M974.93 76.7889 Q971.771 84.8907 968.773 87.3618 Q965.775 89.8329 960.752 89.8329 L954.797 89.8329 L954.797 83.5945 L959.172 83.5945 Q962.251 83.5945 963.952 82.1361 Q965.654 80.6778 967.72 75.2496 L969.056 71.8468 L950.706 27.2059 L958.605 27.2059 L972.783 62.6918 L986.961 27.2059 L994.861 27.2059 L974.93 76.7889 Z" fill="#000000" fill-rule="nonzero" fill-opacity="1"></path><path clip-path="url(#clip550)" d="M1060.44 28.5427 L1060.44 35.5912 Q1057.29 33.9709 1053.88 33.1607 Q1050.48 32.3505 1046.83 32.3505 Q1041.28 32.3505 1038.49 34.0519 Q1035.73 35.7533 1035.73 39.156 Q1035.73 41.7486 1037.72 43.2475 Q1039.7 44.7058 1045.7 46.0426 L1048.25 46.6097 Q1056.19 48.3111 1059.51 51.4303 Q1062.88 54.509 1062.88 60.0587 Q1062.88 66.3781 1057.85 70.0644 Q1052.87 73.7508 1044.12 73.7508 Q1040.47 73.7508 1036.5 73.0216 Q1032.57 72.3329 1028.2 70.9151 L1028.2 63.2184 Q1032.33 65.3654 1036.34 66.4591 Q1040.35 67.5124 1044.28 67.5124 Q1049.55 67.5124 1052.38 65.73 Q1055.22 63.9071 1055.22 60.6258 Q1055.22 57.5877 1053.15 55.9673 Q1051.13 54.3469 1044.2 52.8481 L1041.61 52.2405 Q1034.68 50.7821 1031.6 47.7845 Q1028.52 44.7463 1028.52 39.4801 Q1028.52 33.0797 1033.06 29.5959 Q1037.6 26.1121 1045.94 26.1121 Q1050.07 26.1121 1053.72 26.7198 Q1057.37 27.3274 1060.44 28.5427 Z" fill="#000000" fill-rule="nonzero" fill-opacity="1"></path><path clip-path="url(#clip550)" d="M1112.46 45.1919 L1112.46 72.576 L1105 72.576 L1105 45.4349 Q1105 38.994 1102.49 35.7938 Q1099.98 32.5936 1094.96 32.5936 Q1088.92 32.5936 1085.44 36.4419 Q1081.96 40.2903 1081.96 46.9338 L1081.96 72.576 L1074.46 72.576 L1074.46 9.54393 L1081.96 9.54393 L1081.96 34.2544 Q1084.63 30.163 1088.23 28.1376 Q1091.88 26.1121 1096.62 26.1121 Q1104.44 26.1121 1108.45 30.9732 Q1112.46 35.7938 1112.46 45.1919 Z" fill="#000000" fill-rule="nonzero" fill-opacity="1"></path><path clip-path="url(#clip550)" d="M1144.91 32.4315 Q1138.91 32.4315 1135.43 37.1306 Q1131.94 41.7891 1131.94 49.9314 Q1131.94 58.0738 1135.39 62.7728 Q1138.87 67.4314 1144.91 67.4314 Q1150.86 67.4314 1154.34 62.7323 Q1157.83 58.0333 1157.83 49.9314 Q1157.83 41.8701 1154.34 37.1711 Q1150.86 32.4315 1144.91 32.4315 M1144.91 26.1121 Q1154.63 26.1121 1160.18 32.4315 Q1165.73 38.7509 1165.73 49.9314 Q1165.73 61.0714 1160.18 67.4314 Q1154.63 73.7508 1144.91 73.7508 Q1135.14 73.7508 1129.59 67.4314 Q1124.08 61.0714 1124.08 49.9314 Q1124.08 38.7509 1129.59 32.4315 Q1135.14 26.1121 1144.91 26.1121 Z" fill="#000000" fill-rule="nonzero" fill-opacity="1"></path><path clip-path="url(#clip550)" d="M1210.73 28.9478 L1210.73 35.9153 Q1207.57 34.1734 1204.37 33.3227 Q1201.21 32.4315 1197.97 32.4315 Q1190.72 32.4315 1186.71 37.0496 Q1182.7 41.6271 1182.7 49.9314 Q1182.7 58.2358 1186.71 62.8538 Q1190.72 67.4314 1197.97 67.4314 Q1201.21 67.4314 1204.37 66.5807 Q1207.57 65.6895 1210.73 63.9476 L1210.73 70.8341 Q1207.61 72.2924 1204.25 73.0216 Q1200.93 73.7508 1197.16 73.7508 Q1186.91 73.7508 1180.88 67.3098 Q1174.84 60.8689 1174.84 49.9314 Q1174.84 38.832 1180.92 32.472 Q1187.04 26.1121 1197.65 26.1121 Q1201.09 26.1121 1204.37 26.8413 Q1207.65 27.5299 1210.73 28.9478 Z" fill="#000000" fill-rule="nonzero" fill-opacity="1"></path><path clip-path="url(#clip550)" d="M1223.41 9.54393 L1230.91 9.54393 L1230.91 46.7717 L1253.15 27.2059 L1262.67 27.2059 L1238.6 48.4326 L1263.68 72.576 L1253.96 72.576 L1230.91 50.4176 L1230.91 72.576 L1223.41 72.576 L1223.41 9.54393 Z" fill="#000000" fill-rule="nonzero" fill-opacity="1"></path><path clip-path="url(#clip550)" d="M1327.97 34.0924 L1327.97 9.54393 L1335.42 9.54393 L1335.42 72.576 L1327.97 72.576 L1327.97 65.7705 Q1325.62 69.8214 1322.01 71.8063 Q1318.45 73.7508 1313.42 73.7508 Q1305.2 73.7508 1300.02 67.1883 Q1294.87 60.6258 1294.87 49.9314 Q1294.87 39.2371 1300.02 32.6746 Q1305.2 26.1121 1313.42 26.1121 Q1318.45 26.1121 1322.01 28.0971 Q1325.62 30.0415 1327.97 34.0924 M1302.57 49.9314 Q1302.57 58.1548 1305.93 62.8538 Q1309.33 67.5124 1315.25 67.5124 Q1321.16 67.5124 1324.56 62.8538 Q1327.97 58.1548 1327.97 49.9314 Q1327.97 41.7081 1324.56 37.0496 Q1321.16 32.3505 1315.25 32.3505 Q1309.33 32.3505 1305.93 37.0496 Q1302.57 41.7081 1302.57 49.9314 Z" fill="#000000" fill-rule="nonzero" fill-opacity="1"></path><path clip-path="url(#clip550)" d="M1350.77 27.2059 L1358.23 27.2059 L1358.23 72.576 L1350.77 72.576 L1350.77 27.2059 M1350.77 9.54393 L1358.23 9.54393 L1358.23 18.9825 L1350.77 18.9825 L1350.77 9.54393 Z" fill="#000000" fill-rule="nonzero" fill-opacity="1"></path><path clip-path="url(#clip550)" d="M1402.75 28.5427 L1402.75 35.5912 Q1399.59 33.9709 1396.18 33.1607 Q1392.78 32.3505 1389.14 32.3505 Q1383.59 32.3505 1380.79 34.0519 Q1378.04 35.7533 1378.04 39.156 Q1378.04 41.7486 1380.02 43.2475 Q1382.01 44.7058 1388 46.0426 L1390.55 46.6097 Q1398.49 48.3111 1401.81 51.4303 Q1405.18 54.509 1405.18 60.0587 Q1405.18 66.3781 1400.15 70.0644 Q1395.17 73.7508 1386.42 73.7508 Q1382.78 73.7508 1378.81 73.0216 Q1374.88 72.3329 1370.5 70.9151 L1370.5 63.2184 Q1374.63 65.3654 1378.64 66.4591 Q1382.65 67.5124 1386.58 67.5124 Q1391.85 67.5124 1394.69 65.73 Q1397.52 63.9071 1397.52 60.6258 Q1397.52 57.5877 1395.45 55.9673 Q1393.43 54.3469 1386.5 52.8481 L1383.91 52.2405 Q1376.98 50.7821 1373.9 47.7845 Q1370.83 44.7463 1370.83 39.4801 Q1370.83 33.0797 1375.36 29.5959 Q1379.9 26.1121 1388.24 26.1121 Q1392.38 26.1121 1396.02 26.7198 Q1399.67 27.3274 1402.75 28.5427 Z" fill="#000000" fill-rule="nonzero" fill-opacity="1"></path><path clip-path="url(#clip550)" d="M1424.42 14.324 L1424.42 27.2059 L1439.77 27.2059 L1439.77 32.9987 L1424.42 32.9987 L1424.42 57.6282 Q1424.42 63.1779 1425.92 64.7578 Q1427.46 66.3376 1432.12 66.3376 L1439.77 66.3376 L1439.77 72.576 L1432.12 72.576 Q1423.49 72.576 1420.21 69.3758 Q1416.92 66.1351 1416.92 57.6282 L1416.92 32.9987 L1411.46 32.9987 L1411.46 27.2059 L1416.92 27.2059 L1416.92 14.324 L1424.42 14.324 Z" fill="#000000" fill-rule="nonzero" fill-opacity="1"></path><path clip-path="url(#clip550)" d="M1475.87 34.1734 Q1474.61 33.4443 1473.11 33.1202 Q1471.65 32.7556 1469.87 32.7556 Q1463.55 32.7556 1460.15 36.8875 Q1456.79 40.9789 1456.79 48.6757 L1456.79 72.576 L1449.29 72.576 L1449.29 27.2059 L1456.79 27.2059 L1456.79 34.2544 Q1459.13 30.1225 1462.9 28.1376 Q1466.67 26.1121 1472.06 26.1121 Q1472.83 26.1121 1473.76 26.2337 Q1474.69 26.3147 1475.82 26.5172 L1475.87 34.1734 Z" fill="#000000" fill-rule="nonzero" fill-opacity="1"></path><path clip-path="url(#clip550)" d="M1483.68 27.2059 L1491.14 27.2059 L1491.14 72.576 L1483.68 72.576 L1483.68 27.2059 M1483.68 9.54393 L1491.14 9.54393 L1491.14 18.9825 L1483.68 18.9825 L1483.68 9.54393 Z" fill="#000000" fill-rule="nonzero" fill-opacity="1"></path><path clip-path="url(#clip550)" d="M1539.3 49.9314 Q1539.3 41.7081 1535.9 37.0496 Q1532.54 32.3505 1526.62 32.3505 Q1520.71 32.3505 1517.31 37.0496 Q1513.94 41.7081 1513.94 49.9314 Q1513.94 58.1548 1517.31 62.8538 Q1520.71 67.5124 1526.62 67.5124 Q1532.54 67.5124 1535.9 62.8538 Q1539.3 58.1548 1539.3 49.9314 M1513.94 34.0924 Q1516.29 30.0415 1519.86 28.0971 Q1523.46 26.1121 1528.45 26.1121 Q1536.71 26.1121 1541.85 32.6746 Q1547.04 39.2371 1547.04 49.9314 Q1547.04 60.6258 1541.85 67.1883 Q1536.71 73.7508 1528.45 73.7508 Q1523.46 73.7508 1519.86 71.8063 Q1516.29 69.8214 1513.94 65.7705 L1513.94 72.576 L1506.45 72.576 L1506.45 9.54393 L1513.94 9.54393 L1513.94 34.0924 Z" fill="#000000" fill-rule="nonzero" fill-opacity="1"></path><path clip-path="url(#clip550)" d="M1558.63 54.671 L1558.63 27.2059 L1566.08 27.2059 L1566.08 54.3874 Q1566.08 60.8284 1568.59 64.0691 Q1571.1 67.2693 1576.13 67.2693 Q1582.16 67.2693 1585.64 63.421 Q1589.17 59.5726 1589.17 52.9291 L1589.17 27.2059 L1596.62 27.2059 L1596.62 72.576 L1589.17 72.576 L1589.17 65.6084 Q1586.45 69.7404 1582.85 71.7658 Q1579.28 73.7508 1574.55 73.7508 Q1566.73 73.7508 1562.68 68.8897 Q1558.63 64.0286 1558.63 54.671 M1577.38 26.1121 L1577.38 26.1121 Z" fill="#000000" fill-rule="nonzero" fill-opacity="1"></path><path clip-path="url(#clip550)" d="M1619.35 14.324 L1619.35 27.2059 L1634.7 27.2059 L1634.7 32.9987 L1619.35 32.9987 L1619.35 57.6282 Q1619.35 63.1779 1620.85 64.7578 Q1622.39 66.3376 1627.04 66.3376 L1634.7 66.3376 L1634.7 72.576 L1627.04 72.576 Q1618.42 72.576 1615.14 69.3758 Q1611.85 66.1351 1611.85 57.6282 L1611.85 32.9987 L1606.39 32.9987 L1606.39 27.2059 L1611.85 27.2059 L1611.85 14.324 L1619.35 14.324 Z" fill="#000000" fill-rule="nonzero" fill-opacity="1"></path><path clip-path="url(#clip550)" d="M1644.5 27.2059 L1651.96 27.2059 L1651.96 72.576 L1644.5 72.576 L1644.5 27.2059 M1644.5 9.54393 L1651.96 9.54393 L1651.96 18.9825 L1644.5 18.9825 L1644.5 9.54393 Z" fill="#000000" fill-rule="nonzero" fill-opacity="1"></path><path clip-path="url(#clip550)" d="M1685.13 32.4315 Q1679.14 32.4315 1675.66 37.1306 Q1672.17 41.7891 1672.17 49.9314 Q1672.17 58.0738 1675.62 62.7728 Q1679.1 67.4314 1685.13 67.4314 Q1691.09 67.4314 1694.57 62.7323 Q1698.06 58.0333 1698.06 49.9314 Q1698.06 41.8701 1694.57 37.1711 Q1691.09 32.4315 1685.13 32.4315 M1685.13 26.1121 Q1694.86 26.1121 1700.41 32.4315 Q1705.96 38.7509 1705.96 49.9314 Q1705.96 61.0714 1700.41 67.4314 Q1694.86 73.7508 1685.13 73.7508 Q1675.37 73.7508 1669.82 67.4314 Q1664.31 61.0714 1664.31 49.9314 Q1664.31 38.7509 1669.82 32.4315 Q1675.37 26.1121 1685.13 26.1121 Z" fill="#000000" fill-rule="nonzero" fill-opacity="1"></path><path clip-path="url(#clip550)" d="M1756.03 45.1919 L1756.03 72.576 L1748.57 72.576 L1748.57 45.4349 Q1748.57 38.994 1746.06 35.7938 Q1743.55 32.5936 1738.53 32.5936 Q1732.49 32.5936 1729.01 36.4419 Q1725.52 40.2903 1725.52 46.9338 L1725.52 72.576 L1718.03 72.576 L1718.03 27.2059 L1725.52 27.2059 L1725.52 34.2544 Q1728.2 30.163 1731.8 28.1376 Q1735.45 26.1121 1740.19 26.1121 Q1748 26.1121 1752.02 30.9732 Q1756.03 35.7938 1756.03 45.1919 Z" fill="#000000" fill-rule="nonzero" fill-opacity="1"></path><path clip-path="url(#clip550)" d="M1799.82 28.5427 L1799.82 35.5912 Q1796.66 33.9709 1793.25 33.1607 Q1789.85 32.3505 1786.2 32.3505 Q1780.66 32.3505 1777.86 34.0519 Q1775.11 35.7533 1775.11 39.156 Q1775.11 41.7486 1777.09 43.2475 Q1779.08 44.7058 1785.07 46.0426 L1787.62 46.6097 Q1795.56 48.3111 1798.88 51.4303 Q1802.25 54.509 1802.25 60.0587 Q1802.25 66.3781 1797.22 70.0644 Q1792.24 73.7508 1783.49 73.7508 Q1779.84 73.7508 1775.88 73.0216 Q1771.95 72.3329 1767.57 70.9151 L1767.57 63.2184 Q1771.7 65.3654 1775.71 66.4591 Q1779.72 67.5124 1783.65 67.5124 Q1788.92 67.5124 1791.75 65.73 Q1794.59 63.9071 1794.59 60.6258 Q1794.59 57.5877 1792.52 55.9673 Q1790.5 54.3469 1783.57 52.8481 L1780.98 52.2405 Q1774.05 50.7821 1770.97 47.7845 Q1767.89 44.7463 1767.89 39.4801 Q1767.89 33.0797 1772.43 29.5959 Q1776.97 26.1121 1785.31 26.1121 Q1789.45 26.1121 1793.09 26.7198 Q1796.74 27.3274 1799.82 28.5427 Z" fill="#000000" fill-rule="nonzero" fill-opacity="1"></path><path clip-path="url(#clip550)" d="M1836.72 46.5287 L1858.55 46.5287 L1858.55 53.1722 L1836.72 53.1722 L1836.72 46.5287 Z" fill="#000000" fill-rule="nonzero" fill-opacity="1"></path><path clip-path="url(#clip550)" d="M1933.37 14.0809 L1933.37 22.0612 Q1928.72 19.8332 1924.58 18.7395 Q1920.45 17.6457 1916.6 17.6457 Q1909.92 17.6457 1906.27 20.2383 Q1902.67 22.8309 1902.67 27.611 Q1902.67 31.6214 1905.06 33.6873 Q1907.49 35.7128 1914.21 36.9686 L1919.16 37.9813 Q1928.31 39.7232 1932.65 44.1387 Q1937.02 48.5136 1937.02 55.8863 Q1937.02 64.6767 1931.11 69.2137 Q1925.23 73.7508 1913.85 73.7508 Q1909.55 73.7508 1904.69 72.7785 Q1899.87 71.8063 1894.69 69.9024 L1894.69 61.4765 Q1899.67 64.2716 1904.45 65.6895 Q1909.23 67.1073 1913.85 67.1073 Q1920.86 67.1073 1924.66 64.3527 Q1928.47 61.598 1928.47 56.4939 Q1928.47 52.0379 1925.72 49.5264 Q1923 47.0148 1916.77 45.759 L1911.78 44.7868 Q1902.63 42.9639 1898.54 39.075 Q1894.45 35.1862 1894.45 28.2591 Q1894.45 20.2383 1900.08 15.6203 Q1905.75 11.0023 1915.67 11.0023 Q1919.93 11.0023 1924.34 11.7719 Q1928.76 12.5416 1933.37 14.0809 Z" fill="#000000" fill-rule="nonzero" fill-opacity="1"></path><path clip-path="url(#clip550)" d="M1944.39 12.096 L1952.66 12.096 L1965.38 63.2184 L1978.06 12.096 L1987.25 12.096 L1999.97 63.2184 L2012.65 12.096 L2020.95 12.096 L2005.76 72.576 L1995.47 72.576 L1982.71 20.0763 L1969.83 72.576 L1959.54 72.576 L1944.39 12.096 Z" fill="#000000" fill-rule="nonzero" fill-opacity="1"></path><path clip-path="url(#clip550)" d="M2050.04 17.4837 Q2043.72 17.4837 2040.52 23.7221 Q2037.36 29.92 2037.36 42.3968 Q2037.36 54.833 2040.52 61.0714 Q2043.72 67.2693 2050.04 67.2693 Q2056.4 67.2693 2059.56 61.0714 Q2062.76 54.833 2062.76 42.3968 Q2062.76 29.92 2059.56 23.7221 Q2056.4 17.4837 2050.04 17.4837 M2050.04 11.0023 Q2060.21 11.0023 2065.56 19.0636 Q2070.94 27.0843 2070.94 42.3968 Q2070.94 57.6687 2065.56 65.73 Q2060.21 73.7508 2050.04 73.7508 Q2039.87 73.7508 2034.48 65.73 Q2029.14 57.6687 2029.14 42.3968 Q2029.14 27.0843 2034.48 19.0636 Q2039.87 11.0023 2050.04 11.0023 Z" fill="#000000" fill-rule="nonzero" fill-opacity="1"></path><path clip-path="url(#clip550)" d="M2110.12 39.9662 Q2115.99 41.222 2119.27 45.1919 Q2122.59 49.1618 2122.59 54.9951 Q2122.59 63.9476 2116.43 68.8492 Q2110.28 73.7508 2098.93 73.7508 Q2095.13 73.7508 2091.08 72.9811 Q2087.07 72.2519 2082.77 70.7531 L2082.77 62.8538 Q2086.17 64.8388 2090.23 65.8515 Q2094.28 66.8642 2098.69 66.8642 Q2106.39 66.8642 2110.4 63.826 Q2114.45 60.7879 2114.45 54.9951 Q2114.45 49.6479 2110.68 46.6502 Q2106.96 43.612 2100.27 43.612 L2093.22 43.612 L2093.22 36.8875 L2100.6 36.8875 Q2106.63 36.8875 2109.83 34.4975 Q2113.03 32.067 2113.03 27.5299 Q2113.03 22.8714 2109.71 20.4004 Q2106.43 17.8888 2100.27 17.8888 Q2096.91 17.8888 2093.06 18.618 Q2089.21 19.3471 2084.59 20.8865 L2084.59 13.5948 Q2089.25 12.2985 2093.3 11.6504 Q2097.4 11.0023 2101 11.0023 Q2110.32 11.0023 2115.75 15.2557 Q2121.17 19.4686 2121.17 26.6793 Q2121.17 31.7024 2118.3 35.1862 Q2115.42 38.6294 2110.12 39.9662 Z" fill="#000000" fill-rule="nonzero" fill-opacity="1"></path><path clip-path="url(#clip552)" d="M175.59 1447.78 L182.471 1447.77 L189.351 1447.76 L252.975 1447.62 L316.598 1447.34 L354.833 1447.06 L393.068 1446.65 L425.395 1446.17 L457.722 1445.53 L475.281 1445.11 L492.839 1444.62 L510.397 1444.06 L527.955 1443.42 L544.142 1442.75 L560.329 1442 L576.517 1441.17 L592.704 1440.24 L610.058 1439.13 L627.412 1437.89 L644.767 1436.53 L662.121 1435.03 L682.227 1433.1 L702.334 1430.98 L722.441 1428.64 L742.547 1426.09 L760.416 1423.65 L778.284 1421.03 L796.153 1418.26 L814.021 1415.32 L829.69 1412.62 L845.359 1409.81 L861.028 1406.9 L876.697 1403.91 L910.864 1397.14 L945.031 1390.16 L979.4 1383.13 L1013.77 1376.29 L1023.27 1374.46 L1032.77 1372.68 L1042.27 1370.93 L1051.77 1369.24 L1061.27 1367.59 L1070.77 1366 L1080.27 1364.48 L1089.77 1363.02 L1098.81 1361.7 L1107.85 1360.44 L1116.89 1359.26 L1125.93 1358.15 L1134.97 1357.12 L1144.01 1356.17 L1153.04 1355.31 L1162.08 1354.53 L1171.48 1353.81 L1180.88 1353.19 L1190.28 1352.67 L1199.68 1352.26 L1209.08 1351.94 L1218.47 1351.74 L1227.87 1351.63 L1237.27 1351.63 L1245.18 1351.72 L1253.09 1351.87 L1261.01 1352.1 L1268.92 1352.41 L1276.83 1352.78 L1284.74 1353.23 L1292.65 1353.75 L1300.56 1354.34 L1310.22 1355.16 L1319.88 1356.07 L1329.54 1357.07 L1339.2 1358.17 L1348.86 1359.36 L1358.52 1360.64 L1368.18 1361.99 L1377.84 1363.42 L1395.53 1366.23 L1413.23 1369.25 L1422.08 1370.83 L1430.93 1372.45 L1439.78 1374.11 L1448.62 1375.8 L1481.31 1382.27 L1514 1388.95 L1547.11 1395.73 L1580.23 1402.35 L1598.78 1405.93 L1617.34 1409.4 L1635.89 1412.73 L1654.45 1415.91 L1671.26 1418.65 L1688.07 1421.25 L1704.89 1423.7 L1721.7 1426 L1740.95 1428.46 L1760.2 1430.71 L1779.45 1432.77 L1798.7 1434.65 L1816.53 1436.23 L1834.35 1437.66 L1852.18 1438.94 L1870 1440.1 L1887.57 1441.12 L1905.15 1442.03 L1922.72 1442.83 L1940.29 1443.55 L1957.35 1444.15 L1974.42 1444.69 L1991.48 1445.15 L2008.54 1445.56 L2043.52 1446.23 L2078.5 1446.73 L2116.83 1447.11 L2155.15 1447.38 L2210.83 1447.62 L2266.5 1447.74 L2277.92 1447.76 L2289.34 1447.78 L2289.34 1447.87 L2277.92 1447.87 L2266.5 1447.87 L2210.83 1447.87 L2155.15 1447.87 L2116.83 1447.87 L2078.5 1447.87 L2043.52 1447.87 L2008.54 1447.87 L1991.48 1447.87 L1974.42 1447.87 L1957.35 1447.87 L1940.29 1447.87 L1922.72 1447.87 L1905.15 1447.87 L1887.57 1447.87 L1870 1447.87 L1852.18 1447.87 L1834.35 1447.87 L1816.53 1447.87 L1798.7 1447.87 L1779.45 1447.87 L1760.2 1447.87 L1740.95 1447.87 L1721.7 1447.87 L1704.89 1447.87 L1688.07 1447.87 L1671.26 1447.87 L1654.45 1447.87 L1635.89 1447.87 L1617.34 1447.87 L1598.78 1447.87 L1580.23 1447.87 L1547.11 1447.87 L1514 1447.87 L1481.31 1447.87 L1448.62 1447.87 L1439.78 1447.87 L1430.93 1447.87 L1422.08 1447.87 L1413.23 1447.87 L1395.53 1447.87 L1377.84 1447.87 L1368.18 1447.87 L1358.52 1447.87 L1348.86 1447.87 L1339.2 1447.87 L1329.54 1447.87 L1319.88 1447.87 L1310.22 1447.87 L1300.56 1447.87 L1292.65 1447.87 L1284.74 1447.87 L1276.83 1447.87 L1268.92 1447.87 L1261.01 1447.87 L1253.09 1447.87 L1245.18 1447.87 L1237.27 1447.87 L1227.87 1447.87 L1218.47 1447.87 L1209.08 1447.87 L1199.68 1447.87 L1190.28 1447.87 L1180.88 1447.87 L1171.48 1447.87 L1162.08 1447.87 L1153.04 1447.87 L1144.01 1447.87 L1134.97 1447.87 L1125.93 1447.87 L1116.89 1447.87 L1107.85 1447.87 L1098.81 1447.87 L1089.77 1447.87 L1080.27 1447.87 L1070.77 1447.87 L1061.27 1447.87 L1051.77 1447.87 L1042.27 1447.87 L1032.77 1447.87 L1023.27 1447.87 L1013.77 1447.87 L979.4 1447.87 L945.031 1447.87 L910.864 1447.87 L876.697 1447.87 L861.028 1447.87 L845.359 1447.87 L829.69 1447.87 L814.021 1447.87 L796.153 1447.87 L778.284 1447.87 L760.416 1447.87 L742.547 1447.87 L722.441 1447.87 L702.334 1447.87 L682.227 1447.87 L662.121 1447.87 L644.767 1447.87 L627.412 1447.87 L610.058 1447.87 L592.704 1447.87 L576.517 1447.87 L560.329 1447.87 L544.142 1447.87 L527.955 1447.87 L510.397 1447.87 L492.839 1447.87 L475.281 1447.87 L457.722 1447.87 L425.395 1447.87 L393.068 1447.87 L354.833 1447.87 L316.598 1447.87 L252.975 1447.87 L189.351 1447.87 L182.471 1447.87 L175.59 1447.87  Z" fill="#0000ff" fill-rule="evenodd" fill-opacity="0.5"></path>
<polyline clip-path="url(#clip552)" style="stroke:#009af9; stroke-linecap:round; stroke-linejoin:round; stroke-width:4; stroke-opacity:1; fill:none" points="175.59,1447.78 182.471,1447.77 189.351,1447.76 252.975,1447.62 316.598,1447.34 354.833,1447.06 393.068,1446.65 425.395,1446.17 457.722,1445.53 475.281,1445.11 492.839,1444.62 510.397,1444.06 527.955,1443.42 544.142,1442.75 560.329,1442 576.517,1441.17 592.704,1440.24 610.058,1439.13 627.412,1437.89 644.767,1436.53 662.121,1435.03 682.227,1433.1 702.334,1430.98 722.441,1428.64 742.547,1426.09 760.416,1423.65 778.284,1421.03 796.153,1418.26 814.021,1415.32 829.69,1412.62 845.359,1409.81 861.028,1406.9 876.697,1403.91 910.864,1397.14 945.031,1390.16 979.4,1383.13 1013.77,1376.29 1023.27,1374.46 1032.77,1372.68 1042.27,1370.93 1051.77,1369.24 1061.27,1367.59 1070.77,1366 1080.27,1364.48 1089.77,1363.02 1098.81,1361.7 1107.85,1360.44 1116.89,1359.26 1125.93,1358.15 1134.97,1357.12 1144.01,1356.17 1153.04,1355.31 1162.08,1354.53 1171.48,1353.81 1180.88,1353.19 1190.28,1352.67 1199.68,1352.26 1209.08,1351.94 1218.47,1351.74 1227.87,1351.63 1237.27,1351.63 1245.18,1351.72 1253.09,1351.87 1261.01,1352.1 1268.92,1352.41 1276.83,1352.78 1284.74,1353.23 1292.65,1353.75 1300.56,1354.34 1310.22,1355.16 1319.88,1356.07 1329.54,1357.07 1339.2,1358.17 1348.86,1359.36 1358.52,1360.64 1368.18,1361.99 1377.84,1363.42 1395.53,1366.23 1413.23,1369.25 1422.08,1370.83 1430.93,1372.45 1439.78,1374.11 1448.62,1375.8 1481.31,1382.27 1514,1388.95 1547.11,1395.73 1580.23,1402.35 1598.78,1405.93 1617.34,1409.4 1635.89,1412.73 1654.45,1415.91 1671.26,1418.65 1688.07,1421.25 1704.89,1423.7 1721.7,1426 1740.95,1428.46 1760.2,1430.71 1779.45,1432.77 1798.7,1434.65 1816.53,1436.23 1834.35,1437.66 1852.18,1438.94 1870,1440.1 1887.57,1441.12 1905.15,1442.03 1922.72,1442.83 1940.29,1443.55 1957.35,1444.15 1974.42,1444.69 1991.48,1445.15 2008.54,1445.56 2043.52,1446.23 2078.5,1446.73 2116.83,1447.11 2155.15,1447.38 2210.83,1447.62 2266.5,1447.74 2277.92,1447.76 2289.34,1447.78 "></polyline>
<polyline clip-path="url(#clip552)" style="stroke:#e26f46; stroke-linecap:round; stroke-linejoin:round; stroke-width:4; stroke-opacity:1; fill:none" points="971.315,1447.85 974.419,1447.79 977.524,1447.57 980.628,1446.88 983.732,1445.15 986.837,1441.5 989.941,1435.21 993.045,1426.54 996.15,1417.37 999.254,1410.84 1002.36,1409.74 1005.46,1414.57 1008.57,1423.22 1011.67,1432.41 1014.78,1439.66 1017.88,1444.18 1020.98,1446.47 1024.09,1447.42 1027.19,1447.75 1030.3,1447.84 1033.4,1447.87 1036.51,1447.87 1039.61,1447.87 1042.71,1447.87 1045.82,1447.87 1048.92,1447.87 1052.03,1447.87 1055.13,1447.87 1058.24,1447.87 1061.34,1447.87 1064.44,1447.87 1067.55,1447.87 1070.65,1447.87 1073.76,1447.87 1076.86,1447.87 1079.97,1447.87 1083.07,1447.87 1086.18,1447.86 1089.28,1447.83 1092.38,1447.68 1095.49,1447.19 1098.59,1445.86 1101.7,1442.86 1104.8,1437.27 1107.91,1428.86 1111.01,1418.83 1114.11,1409.67 1117.22,1403.48 1120.32,1399.87 1123.43,1395.84 1126.53,1388.52 1129.64,1378.56 1132.74,1370.78 1135.84,1370.8 1138.95,1380.73 1142.05,1397.56 1145.16,1415.58 1148.26,1430.04 1151.37,1438.99 1154.47,1442.66 1157.57,1441.88 1160.68,1437.18 1163.78,1429.14 1166.89,1419.45 1169.99,1411.05 1173.1,1406.63 1176.2,1406.26 1179.3,1406.44 1182.41,1401.95 1185.51,1389.32 1188.62,1368.96 1191.72,1343.78 1194.83,1314.48 1197.93,1274.96 1201.04,1211.75 1204.14,1109.8 1207.24,963.07 1210.35,783.286 1213.45,598.438 1216.56,439.338 1219.66,323.464 1222.77,249.088 1225.87,203.234 1228.97,174.856 1232.08,162.047 1235.18,169.448 1238.29,200.826 1241.39,254.801 1244.5,326.941 1247.6,414.022 1250.7,514.912 1253.81,628.29 1256.91,751.239 1260.02,879.653 1263.12,1008.14 1266.23,1129.19 1269.33,1234.11 1272.43,1316.28 1275.54,1373.93 1278.64,1409.97 1281.75,1429.64 1284.85,1438.07 1287.96,1438.89 1291.06,1434.31 1294.16,1426.2 1297.27,1417.21 1300.37,1410.79 1303.48,1409.78 1306.58,1414.67 1309.69,1423.34 1312.79,1432.51 1315.9,1439.73 1319,1444.21 1322.1,1446.48 1325.21,1447.43 1328.31,1447.75 1331.42,1447.85 1334.52,1447.87 1337.63,1447.87 1340.73,1447.87 1343.83,1447.87 1346.94,1447.87 1350.04,1447.87 1353.15,1447.87 1356.25,1447.87 1359.36,1447.87 1362.46,1447.87 1365.56,1447.87 1368.67,1447.87 1371.77,1447.87 1374.88,1447.87 1377.98,1447.87 1381.09,1447.87 1384.19,1447.87 1387.29,1447.87 1390.4,1447.87 1393.5,1447.87 1396.61,1447.87 1399.71,1447.87 1402.82,1447.87 1405.92,1447.87 1409.02,1447.87 1412.13,1447.87 1415.23,1447.87 1418.34,1447.87 1421.44,1447.87 1424.55,1447.87 1427.65,1447.87 1430.76,1447.87 1433.86,1447.87 1436.96,1447.87 1440.07,1447.87 1443.17,1447.87 1446.28,1447.87 1449.38,1447.87 1452.49,1447.87 1455.59,1447.87 1458.69,1447.87 1461.8,1447.87 1464.9,1447.87 1468.01,1447.87 1471.11,1447.87 1474.22,1447.87 1477.32,1447.87 1480.42,1447.87 1483.53,1447.87 1486.63,1447.87 1489.74,1447.87 1492.84,1447.87 1495.95,1447.87 1499.05,1447.87 1502.15,1447.87 1505.26,1447.87 1508.36,1447.87 1511.47,1447.87 1514.57,1447.87 1517.68,1447.87 1520.78,1447.87 1523.88,1447.87 1526.99,1447.87 1530.09,1447.84 1533.2,1447.75 1536.3,1447.42 1539.41,1446.47 1542.51,1444.18 1545.61,1439.66 1548.72,1432.41 1551.82,1423.22 1554.93,1414.57 1558.03,1409.74 1561.14,1410.84 1564.24,1417.37 1567.35,1426.54 1570.45,1435.21 1573.55,1441.5 1576.66,1445.15 1579.76,1446.88 1582.87,1447.57 1585.97,1447.79 1589.08,1447.85 "></polyline>
<path clip-path="url(#clip550)" d="M1157.21 324.425 L2278.07 324.425 L2278.07 168.905 L1157.21 168.905  Z" fill="#ffffff" fill-rule="evenodd" fill-opacity="1"></path>
<polyline clip-path="url(#clip550)" style="stroke:#000000; stroke-linecap:round; stroke-linejoin:round; stroke-width:4; stroke-opacity:1; fill:none" points="1157.21,324.425 2278.07,324.425 2278.07,168.905 1157.21,168.905 1157.21,324.425 "></polyline>
<path clip-path="url(#clip550)" d="M1182.11 241.481 L1331.48 241.481 L1331.48 200.009 L1182.11 200.009 L1182.11 241.481  Z" fill="#0000ff" fill-rule="evenodd" fill-opacity="0.5"></path>
<polyline clip-path="url(#clip550)" style="stroke:#009af9; stroke-linecap:round; stroke-linejoin:round; stroke-width:4; stroke-opacity:1; fill:none" points="1182.11,200.009 1331.48,200.009 "></polyline>
<path clip-path="url(#clip550)" d="M1356.37 203.465 L1385.61 203.465 L1385.61 207.4 L1373.34 207.4 L1373.34 238.025 L1368.64 238.025 L1368.64 207.4 L1356.37 207.4 L1356.37 203.465 Z" fill="#000000" fill-rule="nonzero" fill-opacity="1"></path><path clip-path="url(#clip550)" d="M1411.49 222.377 L1411.49 238.025 L1407.23 238.025 L1407.23 222.515 Q1407.23 218.835 1405.79 217.006 Q1404.36 215.178 1401.49 215.178 Q1398.04 215.178 1396.05 217.377 Q1394.06 219.576 1394.06 223.372 L1394.06 238.025 L1389.78 238.025 L1389.78 202.006 L1394.06 202.006 L1394.06 216.127 Q1395.59 213.789 1397.65 212.631 Q1399.73 211.474 1402.44 211.474 Q1406.91 211.474 1409.2 214.252 Q1411.49 217.006 1411.49 222.377 Z" fill="#000000" fill-rule="nonzero" fill-opacity="1"></path><path clip-path="url(#clip550)" d="M1442.16 223.997 L1442.16 226.08 L1422.58 226.08 Q1422.86 230.478 1425.22 232.793 Q1427.6 235.085 1431.84 235.085 Q1434.29 235.085 1436.58 234.483 Q1438.9 233.881 1441.17 232.677 L1441.17 236.705 Q1438.87 237.677 1436.47 238.187 Q1434.06 238.696 1431.58 238.696 Q1425.38 238.696 1421.74 235.085 Q1418.13 231.474 1418.13 225.316 Q1418.13 218.951 1421.56 215.224 Q1425.01 211.474 1430.84 211.474 Q1436.07 211.474 1439.1 214.853 Q1442.16 218.21 1442.16 223.997 M1437.9 222.747 Q1437.85 219.252 1435.93 217.168 Q1434.04 215.085 1430.89 215.085 Q1427.32 215.085 1425.17 217.099 Q1423.04 219.113 1422.72 222.77 L1437.9 222.747 Z" fill="#000000" fill-rule="nonzero" fill-opacity="1"></path><path clip-path="url(#clip550)" d="M1459.2 215.085 Q1455.77 215.085 1453.78 217.77 Q1451.79 220.432 1451.79 225.085 Q1451.79 229.738 1453.76 232.423 Q1455.75 235.085 1459.2 235.085 Q1462.6 235.085 1464.59 232.4 Q1466.58 229.715 1466.58 225.085 Q1466.58 220.478 1464.59 217.793 Q1462.6 215.085 1459.2 215.085 M1459.2 211.474 Q1464.75 211.474 1467.92 215.085 Q1471.1 218.696 1471.1 225.085 Q1471.1 231.451 1467.92 235.085 Q1464.75 238.696 1459.2 238.696 Q1453.62 238.696 1450.45 235.085 Q1447.3 231.451 1447.3 225.085 Q1447.3 218.696 1450.45 215.085 Q1453.62 211.474 1459.2 211.474 Z" fill="#000000" fill-rule="nonzero" fill-opacity="1"></path><path clip-path="url(#clip550)" d="M1493.18 216.08 Q1492.46 215.664 1491.6 215.478 Q1490.77 215.27 1489.75 215.27 Q1486.14 215.27 1484.2 217.631 Q1482.28 219.969 1482.28 224.367 L1482.28 238.025 L1477.99 238.025 L1477.99 212.099 L1482.28 212.099 L1482.28 216.127 Q1483.62 213.766 1485.77 212.631 Q1487.92 211.474 1491 211.474 Q1491.44 211.474 1491.98 211.543 Q1492.51 211.59 1493.16 211.705 L1493.18 216.08 Z" fill="#000000" fill-rule="nonzero" fill-opacity="1"></path><path clip-path="url(#clip550)" d="M1518.78 223.997 L1518.78 226.08 L1499.2 226.08 Q1499.47 230.478 1501.84 232.793 Q1504.22 235.085 1508.46 235.085 Q1510.91 235.085 1513.2 234.483 Q1515.52 233.881 1517.79 232.677 L1517.79 236.705 Q1515.49 237.677 1513.09 238.187 Q1510.68 238.696 1508.2 238.696 Q1502 238.696 1498.36 235.085 Q1494.75 231.474 1494.75 225.316 Q1494.75 218.951 1498.18 215.224 Q1501.63 211.474 1507.46 211.474 Q1512.69 211.474 1515.72 214.853 Q1518.78 218.21 1518.78 223.997 M1514.52 222.747 Q1514.47 219.252 1512.55 217.168 Q1510.66 215.085 1507.51 215.085 Q1503.94 215.085 1501.79 217.099 Q1499.66 219.113 1499.34 222.77 L1514.52 222.747 Z" fill="#000000" fill-rule="nonzero" fill-opacity="1"></path><path clip-path="url(#clip550)" d="M1529.98 204.738 L1529.98 212.099 L1538.76 212.099 L1538.76 215.409 L1529.98 215.409 L1529.98 229.483 Q1529.98 232.654 1530.84 233.557 Q1531.72 234.46 1534.38 234.46 L1538.76 234.46 L1538.76 238.025 L1534.38 238.025 Q1529.45 238.025 1527.58 236.196 Q1525.7 234.344 1525.7 229.483 L1525.7 215.409 L1522.58 215.409 L1522.58 212.099 L1525.7 212.099 L1525.7 204.738 L1529.98 204.738 Z" fill="#000000" fill-rule="nonzero" fill-opacity="1"></path><path clip-path="url(#clip550)" d="M1544.36 212.099 L1548.62 212.099 L1548.62 238.025 L1544.36 238.025 L1544.36 212.099 M1544.36 202.006 L1548.62 202.006 L1548.62 207.4 L1544.36 207.4 L1544.36 202.006 Z" fill="#000000" fill-rule="nonzero" fill-opacity="1"></path><path clip-path="url(#clip550)" d="M1576.19 213.094 L1576.19 217.076 Q1574.38 216.08 1572.55 215.594 Q1570.75 215.085 1568.9 215.085 Q1564.75 215.085 1562.46 217.724 Q1560.17 220.34 1560.17 225.085 Q1560.17 229.83 1562.46 232.469 Q1564.75 235.085 1568.9 235.085 Q1570.75 235.085 1572.55 234.599 Q1574.38 234.089 1576.19 233.094 L1576.19 237.029 Q1574.41 237.863 1572.48 238.279 Q1570.59 238.696 1568.43 238.696 Q1562.58 238.696 1559.13 235.015 Q1555.68 231.335 1555.68 225.085 Q1555.68 218.742 1559.15 215.108 Q1562.65 211.474 1568.71 211.474 Q1570.68 211.474 1572.55 211.891 Q1574.43 212.284 1576.19 213.094 Z" fill="#000000" fill-rule="nonzero" fill-opacity="1"></path><path clip-path="url(#clip550)" d="M1595.38 224.992 Q1590.22 224.992 1588.22 226.173 Q1586.23 227.353 1586.23 230.201 Q1586.23 232.469 1587.72 233.812 Q1589.22 235.131 1591.79 235.131 Q1595.33 235.131 1597.46 232.631 Q1599.61 230.108 1599.61 225.941 L1599.61 224.992 L1595.38 224.992 M1603.87 223.233 L1603.87 238.025 L1599.61 238.025 L1599.61 234.089 Q1598.15 236.451 1595.98 237.585 Q1593.8 238.696 1590.66 238.696 Q1586.67 238.696 1584.31 236.474 Q1581.97 234.228 1581.97 230.478 Q1581.97 226.103 1584.89 223.881 Q1587.83 221.659 1593.64 221.659 L1599.61 221.659 L1599.61 221.242 Q1599.61 218.303 1597.67 216.705 Q1595.75 215.085 1592.25 215.085 Q1590.03 215.085 1587.92 215.617 Q1585.82 216.15 1583.87 217.215 L1583.87 213.279 Q1586.21 212.377 1588.41 211.937 Q1590.61 211.474 1592.69 211.474 Q1598.32 211.474 1601.09 214.391 Q1603.87 217.307 1603.87 223.233 Z" fill="#000000" fill-rule="nonzero" fill-opacity="1"></path><path clip-path="url(#clip550)" d="M1612.65 202.006 L1616.9 202.006 L1616.9 238.025 L1612.65 238.025 L1612.65 202.006 Z" fill="#000000" fill-rule="nonzero" fill-opacity="1"></path><path clip-path="url(#clip550)" d="M1638.73 223.14 L1651.21 223.14 L1651.21 226.937 L1638.73 226.937 L1638.73 223.14 Z" fill="#000000" fill-rule="nonzero" fill-opacity="1"></path><path clip-path="url(#clip550)" d="M1693.96 204.599 L1693.96 209.159 Q1691.3 207.886 1688.94 207.261 Q1686.58 206.636 1684.38 206.636 Q1680.56 206.636 1678.48 208.117 Q1676.42 209.599 1676.42 212.33 Q1676.42 214.622 1677.78 215.803 Q1679.17 216.96 1683.02 217.678 L1685.84 218.256 Q1691.07 219.252 1693.55 221.775 Q1696.05 224.275 1696.05 228.488 Q1696.05 233.511 1692.67 236.103 Q1689.31 238.696 1682.81 238.696 Q1680.35 238.696 1677.58 238.14 Q1674.82 237.585 1671.86 236.497 L1671.86 231.682 Q1674.71 233.279 1677.44 234.089 Q1680.17 234.9 1682.81 234.9 Q1686.81 234.9 1688.99 233.326 Q1691.16 231.752 1691.16 228.835 Q1691.16 226.289 1689.59 224.853 Q1688.04 223.418 1684.47 222.701 L1681.63 222.145 Q1676.4 221.103 1674.06 218.881 Q1671.72 216.659 1671.72 212.701 Q1671.72 208.117 1674.94 205.479 Q1678.18 202.84 1683.85 202.84 Q1686.28 202.84 1688.8 203.279 Q1691.33 203.719 1693.96 204.599 Z" fill="#000000" fill-rule="nonzero" fill-opacity="1"></path><path clip-path="url(#clip550)" d="M1707.37 204.738 L1707.37 212.099 L1716.14 212.099 L1716.14 215.409 L1707.37 215.409 L1707.37 229.483 Q1707.37 232.654 1708.22 233.557 Q1709.1 234.46 1711.77 234.46 L1716.14 234.46 L1716.14 238.025 L1711.77 238.025 Q1706.83 238.025 1704.96 236.196 Q1703.08 234.344 1703.08 229.483 L1703.08 215.409 L1699.96 215.409 L1699.96 212.099 L1703.08 212.099 L1703.08 204.738 L1707.37 204.738 Z" fill="#000000" fill-rule="nonzero" fill-opacity="1"></path><path clip-path="url(#clip550)" d="M1733.52 224.992 Q1728.36 224.992 1726.37 226.173 Q1724.38 227.353 1724.38 230.201 Q1724.38 232.469 1725.86 233.812 Q1727.37 235.131 1729.94 235.131 Q1733.48 235.131 1735.61 232.631 Q1737.76 230.108 1737.76 225.941 L1737.76 224.992 L1733.52 224.992 M1742.02 223.233 L1742.02 238.025 L1737.76 238.025 L1737.76 234.089 Q1736.3 236.451 1734.13 237.585 Q1731.95 238.696 1728.8 238.696 Q1724.82 238.696 1722.46 236.474 Q1720.12 234.228 1720.12 230.478 Q1720.12 226.103 1723.04 223.881 Q1725.98 221.659 1731.79 221.659 L1737.76 221.659 L1737.76 221.242 Q1737.76 218.303 1735.82 216.705 Q1733.9 215.085 1730.4 215.085 Q1728.18 215.085 1726.07 215.617 Q1723.96 216.15 1722.02 217.215 L1722.02 213.279 Q1724.36 212.377 1726.56 211.937 Q1728.76 211.474 1730.84 211.474 Q1736.46 211.474 1739.24 214.391 Q1742.02 217.307 1742.02 223.233 Z" fill="#000000" fill-rule="nonzero" fill-opacity="1"></path><path clip-path="url(#clip550)" d="M1772.34 222.377 L1772.34 238.025 L1768.08 238.025 L1768.08 222.515 Q1768.08 218.835 1766.65 217.006 Q1765.21 215.178 1762.34 215.178 Q1758.89 215.178 1756.9 217.377 Q1754.91 219.576 1754.91 223.372 L1754.91 238.025 L1750.63 238.025 L1750.63 212.099 L1754.91 212.099 L1754.91 216.127 Q1756.44 213.789 1758.5 212.631 Q1760.58 211.474 1763.29 211.474 Q1767.76 211.474 1770.05 214.252 Q1772.34 217.006 1772.34 222.377 Z" fill="#000000" fill-rule="nonzero" fill-opacity="1"></path><path clip-path="url(#clip550)" d="M1797.9 216.034 L1797.9 202.006 L1802.16 202.006 L1802.16 238.025 L1797.9 238.025 L1797.9 234.136 Q1796.56 236.451 1794.5 237.585 Q1792.46 238.696 1789.59 238.696 Q1784.89 238.696 1781.93 234.946 Q1778.99 231.196 1778.99 225.085 Q1778.99 218.974 1781.93 215.224 Q1784.89 211.474 1789.59 211.474 Q1792.46 211.474 1794.5 212.608 Q1796.56 213.719 1797.9 216.034 M1783.39 225.085 Q1783.39 229.784 1785.31 232.469 Q1787.25 235.131 1790.63 235.131 Q1794.01 235.131 1795.95 232.469 Q1797.9 229.784 1797.9 225.085 Q1797.9 220.386 1795.95 217.724 Q1794.01 215.039 1790.63 215.039 Q1787.25 215.039 1785.31 217.724 Q1783.39 220.386 1783.39 225.085 Z" fill="#000000" fill-rule="nonzero" fill-opacity="1"></path><path clip-path="url(#clip550)" d="M1822.71 224.992 Q1817.55 224.992 1815.56 226.173 Q1813.57 227.353 1813.57 230.201 Q1813.57 232.469 1815.05 233.812 Q1816.56 235.131 1819.13 235.131 Q1822.67 235.131 1824.8 232.631 Q1826.95 230.108 1826.95 225.941 L1826.95 224.992 L1822.71 224.992 M1831.21 223.233 L1831.21 238.025 L1826.95 238.025 L1826.95 234.089 Q1825.49 236.451 1823.32 237.585 Q1821.14 238.696 1817.99 238.696 Q1814.01 238.696 1811.65 236.474 Q1809.31 234.228 1809.31 230.478 Q1809.31 226.103 1812.23 223.881 Q1815.17 221.659 1820.98 221.659 L1826.95 221.659 L1826.95 221.242 Q1826.95 218.303 1825.01 216.705 Q1823.08 215.085 1819.59 215.085 Q1817.37 215.085 1815.26 215.617 Q1813.15 216.15 1811.21 217.215 L1811.21 213.279 Q1813.55 212.377 1815.75 211.937 Q1817.95 211.474 1820.03 211.474 Q1825.65 211.474 1828.43 214.391 Q1831.21 217.307 1831.21 223.233 Z" fill="#000000" fill-rule="nonzero" fill-opacity="1"></path><path clip-path="url(#clip550)" d="M1855.01 216.08 Q1854.29 215.664 1853.43 215.478 Q1852.6 215.27 1851.58 215.27 Q1847.97 215.27 1846.02 217.631 Q1844.1 219.969 1844.1 224.367 L1844.1 238.025 L1839.82 238.025 L1839.82 212.099 L1844.1 212.099 L1844.1 216.127 Q1845.45 213.766 1847.6 212.631 Q1849.75 211.474 1852.83 211.474 Q1853.27 211.474 1853.8 211.543 Q1854.33 211.59 1854.98 211.705 L1855.01 216.08 Z" fill="#000000" fill-rule="nonzero" fill-opacity="1"></path><path clip-path="url(#clip550)" d="M1875.7 216.034 L1875.7 202.006 L1879.96 202.006 L1879.96 238.025 L1875.7 238.025 L1875.7 234.136 Q1874.36 236.451 1872.3 237.585 Q1870.26 238.696 1867.39 238.696 Q1862.69 238.696 1859.73 234.946 Q1856.79 231.196 1856.79 225.085 Q1856.79 218.974 1859.73 215.224 Q1862.69 211.474 1867.39 211.474 Q1870.26 211.474 1872.3 212.608 Q1874.36 213.719 1875.7 216.034 M1861.19 225.085 Q1861.19 229.784 1863.11 232.469 Q1865.05 235.131 1868.43 235.131 Q1871.81 235.131 1873.76 232.469 Q1875.7 229.784 1875.7 225.085 Q1875.7 220.386 1873.76 217.724 Q1871.81 215.039 1868.43 215.039 Q1865.05 215.039 1863.11 217.724 Q1861.19 220.386 1861.19 225.085 Z" fill="#000000" fill-rule="nonzero" fill-opacity="1"></path><path clip-path="url(#clip550)" d="M1903.99 203.465 L1910.28 203.465 L1925.61 232.377 L1925.61 203.465 L1930.14 203.465 L1930.14 238.025 L1923.85 238.025 L1908.52 209.113 L1908.52 238.025 L1903.99 238.025 L1903.99 203.465 Z" fill="#000000" fill-rule="nonzero" fill-opacity="1"></path><path clip-path="url(#clip550)" d="M1949.31 215.085 Q1945.88 215.085 1943.89 217.77 Q1941.9 220.432 1941.9 225.085 Q1941.9 229.738 1943.87 232.423 Q1945.86 235.085 1949.31 235.085 Q1952.71 235.085 1954.7 232.4 Q1956.69 229.715 1956.69 225.085 Q1956.69 220.478 1954.7 217.793 Q1952.71 215.085 1949.31 215.085 M1949.31 211.474 Q1954.87 211.474 1958.04 215.085 Q1961.21 218.696 1961.21 225.085 Q1961.21 231.451 1958.04 235.085 Q1954.87 238.696 1949.31 238.696 Q1943.73 238.696 1940.56 235.085 Q1937.41 231.451 1937.41 225.085 Q1937.41 218.696 1940.56 215.085 Q1943.73 211.474 1949.31 211.474 Z" fill="#000000" fill-rule="nonzero" fill-opacity="1"></path><path clip-path="url(#clip550)" d="M1983.29 216.08 Q1982.57 215.664 1981.72 215.478 Q1980.88 215.27 1979.87 215.27 Q1976.25 215.27 1974.31 217.631 Q1972.39 219.969 1972.39 224.367 L1972.39 238.025 L1968.11 238.025 L1968.11 212.099 L1972.39 212.099 L1972.39 216.127 Q1973.73 213.766 1975.88 212.631 Q1978.04 211.474 1981.12 211.474 Q1981.56 211.474 1982.09 211.543 Q1982.62 211.59 1983.27 211.705 L1983.29 216.08 Z" fill="#000000" fill-rule="nonzero" fill-opacity="1"></path><path clip-path="url(#clip550)" d="M2007.11 217.076 Q2008.71 214.205 2010.93 212.84 Q2013.15 211.474 2016.16 211.474 Q2020.21 211.474 2022.41 214.321 Q2024.61 217.145 2024.61 222.377 L2024.61 238.025 L2020.33 238.025 L2020.33 222.515 Q2020.33 218.789 2019.01 216.983 Q2017.69 215.178 2014.98 215.178 Q2011.67 215.178 2009.75 217.377 Q2007.83 219.576 2007.83 223.372 L2007.83 238.025 L2003.55 238.025 L2003.55 222.515 Q2003.55 218.765 2002.23 216.983 Q2000.91 215.178 1998.15 215.178 Q1994.89 215.178 1992.97 217.4 Q1991.05 219.599 1991.05 223.372 L1991.05 238.025 L1986.76 238.025 L1986.76 212.099 L1991.05 212.099 L1991.05 216.127 Q1992.5 213.742 1994.54 212.608 Q1996.58 211.474 1999.38 211.474 Q2002.2 211.474 2004.17 212.909 Q2006.16 214.344 2007.11 217.076 Z" fill="#000000" fill-rule="nonzero" fill-opacity="1"></path><path clip-path="url(#clip550)" d="M2044.89 224.992 Q2039.73 224.992 2037.74 226.173 Q2035.75 227.353 2035.75 230.201 Q2035.75 232.469 2037.23 233.812 Q2038.73 235.131 2041.3 235.131 Q2044.84 235.131 2046.97 232.631 Q2049.12 230.108 2049.12 225.941 L2049.12 224.992 L2044.89 224.992 M2053.38 223.233 L2053.38 238.025 L2049.12 238.025 L2049.12 234.089 Q2047.67 236.451 2045.49 237.585 Q2043.31 238.696 2040.17 238.696 Q2036.19 238.696 2033.82 236.474 Q2031.49 234.228 2031.49 230.478 Q2031.49 226.103 2034.4 223.881 Q2037.34 221.659 2043.15 221.659 L2049.12 221.659 L2049.12 221.242 Q2049.12 218.303 2047.18 216.705 Q2045.26 215.085 2041.76 215.085 Q2039.54 215.085 2037.44 215.617 Q2035.33 216.15 2033.38 217.215 L2033.38 213.279 Q2035.72 212.377 2037.92 211.937 Q2040.12 211.474 2042.2 211.474 Q2047.83 211.474 2050.61 214.391 Q2053.38 217.307 2053.38 223.233 Z" fill="#000000" fill-rule="nonzero" fill-opacity="1"></path><path clip-path="url(#clip550)" d="M2062.16 202.006 L2066.42 202.006 L2066.42 238.025 L2062.16 238.025 L2062.16 202.006 Z" fill="#000000" fill-rule="nonzero" fill-opacity="1"></path><polyline clip-path="url(#clip550)" style="stroke:#e26f46; stroke-linecap:round; stroke-linejoin:round; stroke-width:4; stroke-opacity:1; fill:none" points="1182.11,272.585 1331.48,272.585 "></polyline>
<path clip-path="url(#clip550)" d="M1356.37 255.305 L1378.23 255.305 L1378.23 259.24 L1361.05 259.24 L1361.05 269.471 L1377.51 269.471 L1377.51 273.406 L1361.05 273.406 L1361.05 285.929 L1378.64 285.929 L1378.64 289.865 L1356.37 289.865 L1356.37 255.305 Z" fill="#000000" fill-rule="nonzero" fill-opacity="1"></path><path clip-path="url(#clip550)" d="M1406.33 268.916 Q1407.92 266.045 1410.15 264.68 Q1412.37 263.314 1415.38 263.314 Q1419.43 263.314 1421.63 266.161 Q1423.83 268.985 1423.83 274.217 L1423.83 289.865 L1419.54 289.865 L1419.54 274.355 Q1419.54 270.629 1418.23 268.823 Q1416.91 267.018 1414.2 267.018 Q1410.89 267.018 1408.97 269.217 Q1407.04 271.416 1407.04 275.212 L1407.04 289.865 L1402.76 289.865 L1402.76 274.355 Q1402.76 270.605 1401.44 268.823 Q1400.12 267.018 1397.37 267.018 Q1394.11 267.018 1392.18 269.24 Q1390.26 271.439 1390.26 275.212 L1390.26 289.865 L1385.98 289.865 L1385.98 263.939 L1390.26 263.939 L1390.26 267.967 Q1391.72 265.582 1393.76 264.448 Q1395.79 263.314 1398.6 263.314 Q1401.42 263.314 1403.39 264.749 Q1405.38 266.184 1406.33 268.916 Z" fill="#000000" fill-rule="nonzero" fill-opacity="1"></path><path clip-path="url(#clip550)" d="M1436.44 285.976 L1436.44 299.726 L1432.16 299.726 L1432.16 263.939 L1436.44 263.939 L1436.44 267.874 Q1437.79 265.559 1439.82 264.448 Q1441.88 263.314 1444.73 263.314 Q1449.45 263.314 1452.39 267.064 Q1455.35 270.814 1455.35 276.925 Q1455.35 283.036 1452.39 286.786 Q1449.45 290.536 1444.73 290.536 Q1441.88 290.536 1439.82 289.425 Q1437.79 288.291 1436.44 285.976 M1450.93 276.925 Q1450.93 272.226 1448.99 269.564 Q1447.07 266.879 1443.69 266.879 Q1440.31 266.879 1438.36 269.564 Q1436.44 272.226 1436.44 276.925 Q1436.44 281.624 1438.36 284.309 Q1440.31 286.971 1443.69 286.971 Q1447.07 286.971 1448.99 284.309 Q1450.93 281.624 1450.93 276.925 Z" fill="#000000" fill-rule="nonzero" fill-opacity="1"></path><path clip-path="url(#clip550)" d="M1462.41 263.939 L1466.67 263.939 L1466.67 289.865 L1462.41 289.865 L1462.41 263.939 M1462.41 253.846 L1466.67 253.846 L1466.67 259.24 L1462.41 259.24 L1462.41 253.846 Z" fill="#000000" fill-rule="nonzero" fill-opacity="1"></path><path clip-path="url(#clip550)" d="M1490.61 267.92 Q1489.89 267.504 1489.04 267.318 Q1488.2 267.11 1487.18 267.11 Q1483.57 267.11 1481.63 269.471 Q1479.71 271.809 1479.71 276.207 L1479.71 289.865 L1475.42 289.865 L1475.42 263.939 L1479.71 263.939 L1479.71 267.967 Q1481.05 265.606 1483.2 264.471 Q1485.35 263.314 1488.43 263.314 Q1488.87 263.314 1489.41 263.383 Q1489.94 263.43 1490.59 263.545 L1490.61 267.92 Z" fill="#000000" fill-rule="nonzero" fill-opacity="1"></path><path clip-path="url(#clip550)" d="M1495.08 263.939 L1499.34 263.939 L1499.34 289.865 L1495.08 289.865 L1495.08 263.939 M1495.08 253.846 L1499.34 253.846 L1499.34 259.24 L1495.08 259.24 L1495.08 253.846 Z" fill="#000000" fill-rule="nonzero" fill-opacity="1"></path><path clip-path="url(#clip550)" d="M1526.91 264.934 L1526.91 268.916 Q1525.1 267.92 1523.27 267.434 Q1521.47 266.925 1519.61 266.925 Q1515.47 266.925 1513.18 269.564 Q1510.89 272.18 1510.89 276.925 Q1510.89 281.67 1513.18 284.309 Q1515.47 286.925 1519.61 286.925 Q1521.47 286.925 1523.27 286.439 Q1525.1 285.929 1526.91 284.934 L1526.91 288.869 Q1525.12 289.703 1523.2 290.119 Q1521.3 290.536 1519.15 290.536 Q1513.29 290.536 1509.85 286.855 Q1506.4 283.175 1506.4 276.925 Q1506.4 270.582 1509.87 266.948 Q1513.36 263.314 1519.43 263.314 Q1521.4 263.314 1523.27 263.731 Q1525.15 264.124 1526.91 264.934 Z" fill="#000000" fill-rule="nonzero" fill-opacity="1"></path><path clip-path="url(#clip550)" d="M1546.1 276.832 Q1540.93 276.832 1538.94 278.013 Q1536.95 279.193 1536.95 282.041 Q1536.95 284.309 1538.43 285.652 Q1539.94 286.971 1542.51 286.971 Q1546.05 286.971 1548.18 284.471 Q1550.33 281.948 1550.33 277.781 L1550.33 276.832 L1546.1 276.832 M1554.59 275.073 L1554.59 289.865 L1550.33 289.865 L1550.33 285.929 Q1548.87 288.291 1546.7 289.425 Q1544.52 290.536 1541.37 290.536 Q1537.39 290.536 1535.03 288.314 Q1532.69 286.068 1532.69 282.318 Q1532.69 277.943 1535.61 275.721 Q1538.55 273.499 1544.36 273.499 L1550.33 273.499 L1550.33 273.082 Q1550.33 270.143 1548.39 268.545 Q1546.47 266.925 1542.97 266.925 Q1540.75 266.925 1538.64 267.457 Q1536.53 267.99 1534.59 269.055 L1534.59 265.119 Q1536.93 264.217 1539.13 263.777 Q1541.33 263.314 1543.41 263.314 Q1549.03 263.314 1551.81 266.231 Q1554.59 269.147 1554.59 275.073 Z" fill="#000000" fill-rule="nonzero" fill-opacity="1"></path><path clip-path="url(#clip550)" d="M1563.36 253.846 L1567.62 253.846 L1567.62 289.865 L1563.36 289.865 L1563.36 253.846 Z" fill="#000000" fill-rule="nonzero" fill-opacity="1"></path><path clip-path="url(#clip550)" d="M1589.45 274.98 L1601.93 274.98 L1601.93 278.777 L1589.45 278.777 L1589.45 274.98 Z" fill="#000000" fill-rule="nonzero" fill-opacity="1"></path><path clip-path="url(#clip550)" d="M1623.97 255.305 L1643.83 255.305 L1643.83 259.24 L1628.64 259.24 L1628.64 269.425 L1642.34 269.425 L1642.34 273.36 L1628.64 273.36 L1628.64 289.865 L1623.97 289.865 L1623.97 255.305 Z" fill="#000000" fill-rule="nonzero" fill-opacity="1"></path><path clip-path="url(#clip550)" d="M1647.6 263.939 L1651.86 263.939 L1651.86 289.865 L1647.6 289.865 L1647.6 263.939 M1647.6 253.846 L1651.86 253.846 L1651.86 259.24 L1647.6 259.24 L1647.6 253.846 Z" fill="#000000" fill-rule="nonzero" fill-opacity="1"></path><path clip-path="url(#clip550)" d="M1660.77 253.846 L1665.03 253.846 L1665.03 289.865 L1660.77 289.865 L1660.77 253.846 Z" fill="#000000" fill-rule="nonzero" fill-opacity="1"></path><path clip-path="url(#clip550)" d="M1678.15 256.578 L1678.15 263.939 L1686.93 263.939 L1686.93 267.249 L1678.15 267.249 L1678.15 281.323 Q1678.15 284.494 1679.01 285.397 Q1679.89 286.3 1682.55 286.3 L1686.93 286.3 L1686.93 289.865 L1682.55 289.865 Q1677.62 289.865 1675.75 288.036 Q1673.87 286.184 1673.87 281.323 L1673.87 267.249 L1670.75 267.249 L1670.75 263.939 L1673.87 263.939 L1673.87 256.578 L1678.15 256.578 Z" fill="#000000" fill-rule="nonzero" fill-opacity="1"></path><path clip-path="url(#clip550)" d="M1714.71 275.837 L1714.71 277.92 L1695.12 277.92 Q1695.4 282.318 1697.76 284.633 Q1700.15 286.925 1704.38 286.925 Q1706.83 286.925 1709.13 286.323 Q1711.44 285.721 1713.71 284.517 L1713.71 288.545 Q1711.42 289.517 1709.01 290.027 Q1706.6 290.536 1704.13 290.536 Q1697.92 290.536 1694.29 286.925 Q1690.68 283.314 1690.68 277.156 Q1690.68 270.791 1694.1 267.064 Q1697.55 263.314 1703.39 263.314 Q1708.62 263.314 1711.65 266.693 Q1714.71 270.05 1714.71 275.837 M1710.45 274.587 Q1710.4 271.092 1708.48 269.008 Q1706.58 266.925 1703.43 266.925 Q1699.87 266.925 1697.71 268.939 Q1695.59 270.953 1695.26 274.61 L1710.45 274.587 Z" fill="#000000" fill-rule="nonzero" fill-opacity="1"></path><path clip-path="url(#clip550)" d="M1736.72 267.92 Q1736 267.504 1735.14 267.318 Q1734.31 267.11 1733.29 267.11 Q1729.68 267.11 1727.74 269.471 Q1725.82 271.809 1725.82 276.207 L1725.82 289.865 L1721.53 289.865 L1721.53 263.939 L1725.82 263.939 L1725.82 267.967 Q1727.16 265.606 1729.31 264.471 Q1731.46 263.314 1734.54 263.314 Q1734.98 263.314 1735.52 263.383 Q1736.05 263.43 1736.7 263.545 L1736.72 267.92 Z" fill="#000000" fill-rule="nonzero" fill-opacity="1"></path><path clip-path="url(#clip550)" d="M1762.32 275.837 L1762.32 277.92 L1742.74 277.92 Q1743.02 282.318 1745.38 284.633 Q1747.76 286.925 1752 286.925 Q1754.45 286.925 1756.74 286.323 Q1759.06 285.721 1761.33 284.517 L1761.33 288.545 Q1759.03 289.517 1756.63 290.027 Q1754.22 290.536 1751.74 290.536 Q1745.54 290.536 1741.9 286.925 Q1738.29 283.314 1738.29 277.156 Q1738.29 270.791 1741.72 267.064 Q1745.17 263.314 1751 263.314 Q1756.23 263.314 1759.27 266.693 Q1762.32 270.05 1762.32 275.837 M1758.06 274.587 Q1758.02 271.092 1756.09 269.008 Q1754.2 266.925 1751.05 266.925 Q1747.48 266.925 1745.33 268.939 Q1743.2 270.953 1742.88 274.61 L1758.06 274.587 Z" fill="#000000" fill-rule="nonzero" fill-opacity="1"></path><path clip-path="url(#clip550)" d="M1786.37 267.874 L1786.37 253.846 L1790.63 253.846 L1790.63 289.865 L1786.37 289.865 L1786.37 285.976 Q1785.03 288.291 1782.97 289.425 Q1780.93 290.536 1778.06 290.536 Q1773.36 290.536 1770.4 286.786 Q1767.46 283.036 1767.46 276.925 Q1767.46 270.814 1770.4 267.064 Q1773.36 263.314 1778.06 263.314 Q1780.93 263.314 1782.97 264.448 Q1785.03 265.559 1786.37 267.874 M1771.86 276.925 Q1771.86 281.624 1773.78 284.309 Q1775.72 286.971 1779.1 286.971 Q1782.48 286.971 1784.43 284.309 Q1786.37 281.624 1786.37 276.925 Q1786.37 272.226 1784.43 269.564 Q1782.48 266.879 1779.1 266.879 Q1775.72 266.879 1773.78 269.564 Q1771.86 272.226 1771.86 276.925 Z" fill="#000000" fill-rule="nonzero" fill-opacity="1"></path><path clip-path="url(#clip550)" d="M1831 264.703 L1831 268.731 Q1829.2 267.805 1827.25 267.342 Q1825.31 266.879 1823.22 266.879 Q1820.05 266.879 1818.45 267.851 Q1816.88 268.823 1816.88 270.768 Q1816.88 272.249 1818.01 273.105 Q1819.15 273.939 1822.58 274.703 L1824.03 275.027 Q1828.57 275.999 1830.47 277.781 Q1832.39 279.541 1832.39 282.712 Q1832.39 286.323 1829.52 288.429 Q1826.67 290.536 1821.67 290.536 Q1819.59 290.536 1817.32 290.119 Q1815.08 289.726 1812.58 288.916 L1812.58 284.517 Q1814.94 285.744 1817.23 286.369 Q1819.52 286.971 1821.76 286.971 Q1824.77 286.971 1826.39 285.953 Q1828.01 284.911 1828.01 283.036 Q1828.01 281.3 1826.83 280.374 Q1825.68 279.448 1821.72 278.592 L1820.24 278.244 Q1816.28 277.411 1814.52 275.698 Q1812.76 273.962 1812.76 270.953 Q1812.76 267.295 1815.35 265.305 Q1817.95 263.314 1822.71 263.314 Q1825.08 263.314 1827.16 263.661 Q1829.24 264.008 1831 264.703 Z" fill="#000000" fill-rule="nonzero" fill-opacity="1"></path><path clip-path="url(#clip550)" d="M1860.72 274.217 L1860.72 289.865 L1856.46 289.865 L1856.46 274.355 Q1856.46 270.675 1855.03 268.846 Q1853.59 267.018 1850.72 267.018 Q1847.27 267.018 1845.28 269.217 Q1843.29 271.416 1843.29 275.212 L1843.29 289.865 L1839.01 289.865 L1839.01 253.846 L1843.29 253.846 L1843.29 267.967 Q1844.82 265.629 1846.88 264.471 Q1848.96 263.314 1851.67 263.314 Q1856.14 263.314 1858.43 266.092 Q1860.72 268.846 1860.72 274.217 Z" fill="#000000" fill-rule="nonzero" fill-opacity="1"></path><path clip-path="url(#clip550)" d="M1879.26 266.925 Q1875.84 266.925 1873.85 269.61 Q1871.86 272.272 1871.86 276.925 Q1871.86 281.578 1873.82 284.263 Q1875.82 286.925 1879.26 286.925 Q1882.67 286.925 1884.66 284.24 Q1886.65 281.555 1886.65 276.925 Q1886.65 272.318 1884.66 269.633 Q1882.67 266.925 1879.26 266.925 M1879.26 263.314 Q1884.82 263.314 1887.99 266.925 Q1891.16 270.536 1891.16 276.925 Q1891.16 283.291 1887.99 286.925 Q1884.82 290.536 1879.26 290.536 Q1873.69 290.536 1870.51 286.925 Q1867.37 283.291 1867.37 276.925 Q1867.37 270.536 1870.51 266.925 Q1873.69 263.314 1879.26 263.314 Z" fill="#000000" fill-rule="nonzero" fill-opacity="1"></path><path clip-path="url(#clip550)" d="M1916.88 264.934 L1916.88 268.916 Q1915.07 267.92 1913.25 267.434 Q1911.44 266.925 1909.59 266.925 Q1905.45 266.925 1903.15 269.564 Q1900.86 272.18 1900.86 276.925 Q1900.86 281.67 1903.15 284.309 Q1905.45 286.925 1909.59 286.925 Q1911.44 286.925 1913.25 286.439 Q1915.07 285.929 1916.88 284.934 L1916.88 288.869 Q1915.1 289.703 1913.18 290.119 Q1911.28 290.536 1909.13 290.536 Q1903.27 290.536 1899.82 286.855 Q1896.37 283.175 1896.37 276.925 Q1896.37 270.582 1899.84 266.948 Q1903.34 263.314 1909.4 263.314 Q1911.37 263.314 1913.25 263.731 Q1915.12 264.124 1916.88 264.934 Z" fill="#000000" fill-rule="nonzero" fill-opacity="1"></path><path clip-path="url(#clip550)" d="M1924.13 253.846 L1928.41 253.846 L1928.41 275.119 L1941.12 263.939 L1946.56 263.939 L1932.81 276.068 L1947.13 289.865 L1941.58 289.865 L1928.41 277.203 L1928.41 289.865 L1924.13 289.865 L1924.13 253.846 Z" fill="#000000" fill-rule="nonzero" fill-opacity="1"></path><path clip-path="url(#clip550)" d="M1968.27 264.703 L1968.27 268.731 Q1966.46 267.805 1964.52 267.342 Q1962.57 266.879 1960.49 266.879 Q1957.32 266.879 1955.72 267.851 Q1954.15 268.823 1954.15 270.768 Q1954.15 272.249 1955.28 273.105 Q1956.42 273.939 1959.84 274.703 L1961.3 275.027 Q1965.84 275.999 1967.74 277.781 Q1969.66 279.541 1969.66 282.712 Q1969.66 286.323 1966.79 288.429 Q1963.94 290.536 1958.94 290.536 Q1956.86 290.536 1954.59 290.119 Q1952.34 289.726 1949.84 288.916 L1949.84 284.517 Q1952.2 285.744 1954.5 286.369 Q1956.79 286.971 1959.03 286.971 Q1962.04 286.971 1963.66 285.953 Q1965.28 284.911 1965.28 283.036 Q1965.28 281.3 1964.1 280.374 Q1962.94 279.448 1958.99 278.592 L1957.5 278.244 Q1953.55 277.411 1951.79 275.698 Q1950.03 273.962 1950.03 270.953 Q1950.03 267.295 1952.62 265.305 Q1955.21 263.314 1959.98 263.314 Q1962.34 263.314 1964.43 263.661 Q1966.51 264.008 1968.27 264.703 Z" fill="#000000" fill-rule="nonzero" fill-opacity="1"></path><path clip-path="url(#clip550)" d="M2008.57 267.874 L2008.57 253.846 L2012.83 253.846 L2012.83 289.865 L2008.57 289.865 L2008.57 285.976 Q2007.23 288.291 2005.17 289.425 Q2003.13 290.536 2000.26 290.536 Q1995.56 290.536 1992.6 286.786 Q1989.66 283.036 1989.66 276.925 Q1989.66 270.814 1992.6 267.064 Q1995.56 263.314 2000.26 263.314 Q2003.13 263.314 2005.17 264.448 Q2007.23 265.559 2008.57 267.874 M1994.06 276.925 Q1994.06 281.624 1995.98 284.309 Q1997.92 286.971 2001.3 286.971 Q2004.68 286.971 2006.63 284.309 Q2008.57 281.624 2008.57 276.925 Q2008.57 272.226 2006.63 269.564 Q2004.68 266.879 2001.3 266.879 Q1997.92 266.879 1995.98 269.564 Q1994.06 272.226 1994.06 276.925 Z" fill="#000000" fill-rule="nonzero" fill-opacity="1"></path><path clip-path="url(#clip550)" d="M2021.6 263.939 L2025.86 263.939 L2025.86 289.865 L2021.6 289.865 L2021.6 263.939 M2021.6 253.846 L2025.86 253.846 L2025.86 259.24 L2021.6 259.24 L2021.6 253.846 Z" fill="#000000" fill-rule="nonzero" fill-opacity="1"></path><path clip-path="url(#clip550)" d="M2051.3 264.703 L2051.3 268.731 Q2049.5 267.805 2047.55 267.342 Q2045.61 266.879 2043.52 266.879 Q2040.35 266.879 2038.75 267.851 Q2037.18 268.823 2037.18 270.768 Q2037.18 272.249 2038.31 273.105 Q2039.45 273.939 2042.87 274.703 L2044.33 275.027 Q2048.87 275.999 2050.77 277.781 Q2052.69 279.541 2052.69 282.712 Q2052.69 286.323 2049.82 288.429 Q2046.97 290.536 2041.97 290.536 Q2039.89 290.536 2037.62 290.119 Q2035.37 289.726 2032.87 288.916 L2032.87 284.517 Q2035.24 285.744 2037.53 286.369 Q2039.82 286.971 2042.06 286.971 Q2045.07 286.971 2046.69 285.953 Q2048.31 284.911 2048.31 283.036 Q2048.31 281.3 2047.13 280.374 Q2045.98 279.448 2042.02 278.592 L2040.54 278.244 Q2036.58 277.411 2034.82 275.698 Q2033.06 273.962 2033.06 270.953 Q2033.06 267.295 2035.65 265.305 Q2038.25 263.314 2043.01 263.314 Q2045.37 263.314 2047.46 263.661 Q2049.54 264.008 2051.3 264.703 Z" fill="#000000" fill-rule="nonzero" fill-opacity="1"></path><path clip-path="url(#clip550)" d="M2063.68 256.578 L2063.68 263.939 L2072.46 263.939 L2072.46 267.249 L2063.68 267.249 L2063.68 281.323 Q2063.68 284.494 2064.54 285.397 Q2065.42 286.3 2068.08 286.3 L2072.46 286.3 L2072.46 289.865 L2068.08 289.865 Q2063.15 289.865 2061.28 288.036 Q2059.4 286.184 2059.4 281.323 L2059.4 267.249 L2056.28 267.249 L2056.28 263.939 L2059.4 263.939 L2059.4 256.578 L2063.68 256.578 Z" fill="#000000" fill-rule="nonzero" fill-opacity="1"></path><path clip-path="url(#clip550)" d="M2093.08 267.92 Q2092.37 267.504 2091.51 267.318 Q2090.68 267.11 2089.66 267.11 Q2086.05 267.11 2084.1 269.471 Q2082.18 271.809 2082.18 276.207 L2082.18 289.865 L2077.9 289.865 L2077.9 263.939 L2082.18 263.939 L2082.18 267.967 Q2083.52 265.606 2085.68 264.471 Q2087.83 263.314 2090.91 263.314 Q2091.35 263.314 2091.88 263.383 Q2092.41 263.43 2093.06 263.545 L2093.08 267.92 Z" fill="#000000" fill-rule="nonzero" fill-opacity="1"></path><path clip-path="url(#clip550)" d="M2097.55 263.939 L2101.81 263.939 L2101.81 289.865 L2097.55 289.865 L2097.55 263.939 M2097.55 253.846 L2101.81 253.846 L2101.81 259.24 L2097.55 259.24 L2097.55 253.846 Z" fill="#000000" fill-rule="nonzero" fill-opacity="1"></path><path clip-path="url(#clip550)" d="M2129.33 276.925 Q2129.33 272.226 2127.39 269.564 Q2125.47 266.879 2122.09 266.879 Q2118.71 266.879 2116.76 269.564 Q2114.84 272.226 2114.84 276.925 Q2114.84 281.624 2116.76 284.309 Q2118.71 286.971 2122.09 286.971 Q2125.47 286.971 2127.39 284.309 Q2129.33 281.624 2129.33 276.925 M2114.84 267.874 Q2116.18 265.559 2118.22 264.448 Q2120.28 263.314 2123.13 263.314 Q2127.85 263.314 2130.79 267.064 Q2133.75 270.814 2133.75 276.925 Q2133.75 283.036 2130.79 286.786 Q2127.85 290.536 2123.13 290.536 Q2120.28 290.536 2118.22 289.425 Q2116.18 288.291 2114.84 285.976 L2114.84 289.865 L2110.56 289.865 L2110.56 253.846 L2114.84 253.846 L2114.84 267.874 Z" fill="#000000" fill-rule="nonzero" fill-opacity="1"></path><path clip-path="url(#clip550)" d="M2140.37 279.633 L2140.37 263.939 L2144.63 263.939 L2144.63 279.471 Q2144.63 283.152 2146.07 285.004 Q2147.5 286.832 2150.37 286.832 Q2153.82 286.832 2155.81 284.633 Q2157.83 282.434 2157.83 278.638 L2157.83 263.939 L2162.09 263.939 L2162.09 289.865 L2157.83 289.865 L2157.83 285.883 Q2156.28 288.244 2154.22 289.402 Q2152.18 290.536 2149.47 290.536 Q2145 290.536 2142.69 287.758 Q2140.37 284.98 2140.37 279.633 M2151.09 263.314 L2151.09 263.314 Z" fill="#000000" fill-rule="nonzero" fill-opacity="1"></path><path clip-path="url(#clip550)" d="M2175.07 256.578 L2175.07 263.939 L2183.85 263.939 L2183.85 267.249 L2175.07 267.249 L2175.07 281.323 Q2175.07 284.494 2175.93 285.397 Q2176.81 286.3 2179.47 286.3 L2183.85 286.3 L2183.85 289.865 L2179.47 289.865 Q2174.54 289.865 2172.67 288.036 Q2170.79 286.184 2170.79 281.323 L2170.79 267.249 L2167.67 267.249 L2167.67 263.939 L2170.79 263.939 L2170.79 256.578 L2175.07 256.578 Z" fill="#000000" fill-rule="nonzero" fill-opacity="1"></path><path clip-path="url(#clip550)" d="M2189.45 263.939 L2193.71 263.939 L2193.71 289.865 L2189.45 289.865 L2189.45 263.939 M2189.45 253.846 L2193.71 253.846 L2193.71 259.24 L2189.45 259.24 L2189.45 253.846 Z" fill="#000000" fill-rule="nonzero" fill-opacity="1"></path><path clip-path="url(#clip550)" d="M2212.67 266.925 Q2209.24 266.925 2207.25 269.61 Q2205.26 272.272 2205.26 276.925 Q2205.26 281.578 2207.23 284.263 Q2209.22 286.925 2212.67 286.925 Q2216.07 286.925 2218.06 284.24 Q2220.05 281.555 2220.05 276.925 Q2220.05 272.318 2218.06 269.633 Q2216.07 266.925 2212.67 266.925 M2212.67 263.314 Q2218.22 263.314 2221.39 266.925 Q2224.56 270.536 2224.56 276.925 Q2224.56 283.291 2221.39 286.925 Q2218.22 290.536 2212.67 290.536 Q2207.09 290.536 2203.92 286.925 Q2200.77 283.291 2200.77 276.925 Q2200.77 270.536 2203.92 266.925 Q2207.09 263.314 2212.67 263.314 Z" fill="#000000" fill-rule="nonzero" fill-opacity="1"></path><path clip-path="url(#clip550)" d="M2253.17 274.217 L2253.17 289.865 L2248.92 289.865 L2248.92 274.355 Q2248.92 270.675 2247.48 268.846 Q2246.05 267.018 2243.17 267.018 Q2239.73 267.018 2237.73 269.217 Q2235.74 271.416 2235.74 275.212 L2235.74 289.865 L2231.46 289.865 L2231.46 263.939 L2235.74 263.939 L2235.74 267.967 Q2237.27 265.629 2239.33 264.471 Q2241.42 263.314 2244.12 263.314 Q2248.59 263.314 2250.88 266.092 Q2253.17 268.846 2253.17 274.217 Z" fill="#000000" fill-rule="nonzero" fill-opacity="1"></path></svg>