<?xml version="1.0"?>
<svg width="2800" height="2000" xmlns="http://www.w3.org/2000/svg" xmlns:svg="http://www.w3.org/2000/svg">
 <defs>
  <clipPath id="clip940">
   <rect height="2000" id="svg_1" width="2800" x="0" y="0"/>
  </clipPath>
 </defs>
 <defs>
  <clipPath id="clip941">
   <rect height="1961" id="svg_2" width="1961" x="560" y="0"/>
  </clipPath>
 </defs>
 <defs>
  <clipPath id="clip942">
   <rect height="1834" id="svg_3" width="2556" x="197" y="47"/>
  </clipPath>
 </defs>
 <g class="layer">
  <title>Layer 1</title>
  <path clip-path="url(#clip940)" d="m0,2000l2800,0l0,-2000l-2800,0l0,2000z" fill="#ffffff" fill-rule="evenodd" id="svg_4"/>
  <path clip-path="url(#clip940)" d="m197.94,1879.98l2554.82,0l0,-1832.74l-2554.82,0l0,1832.74z" fill="#ffffff" fill-rule="evenodd" id="svg_5"/>
  <polyline clip-path="url(#clip942)" fill="none" id="svg_6" points="242.465,1879.98 242.465,47.2441 " stroke="#000000" stroke-linecap="round" stroke-linejoin="round" stroke-opacity="0.1" stroke-width="2"/>
  <polyline clip-path="url(#clip942)" fill="none" id="svg_7" points="466.681,1879.98 466.681,47.2441 " stroke="#000000" stroke-linecap="round" stroke-linejoin="round" stroke-opacity="0.1" stroke-width="2"/>
  <polyline clip-path="url(#clip942)" fill="none" id="svg_8" points="690.897,1879.98 690.897,47.2441 " stroke="#000000" stroke-linecap="round" stroke-linejoin="round" stroke-opacity="0.1" stroke-width="2"/>
  <polyline clip-path="url(#clip942)" fill="none" id="svg_9" points="915.113,1879.98 915.113,47.2441 " stroke="#000000" stroke-linecap="round" stroke-linejoin="round" stroke-opacity="0.1" stroke-width="2"/>
  <polyline clip-path="url(#clip942)" fill="none" id="svg_10" points="1139.33,1879.98 1139.33,47.2441 " stroke="#000000" stroke-linecap="round" stroke-linejoin="round" stroke-opacity="0.1" stroke-width="2"/>
  <polyline clip-path="url(#clip942)" fill="none" id="svg_11" points="1363.54,1879.98 1363.54,47.2441 " stroke="#000000" stroke-linecap="round" stroke-linejoin="round" stroke-opacity="0.1" stroke-width="2"/>
  <polyline clip-path="url(#clip942)" fill="none" id="svg_12" points="1587.76,1879.98 1587.76,47.2441 " stroke="#000000" stroke-linecap="round" stroke-linejoin="round" stroke-opacity="0.1" stroke-width="2"/>
  <polyline clip-path="url(#clip942)" fill="none" id="svg_13" points="1811.98,1879.98 1811.98,47.2441 " stroke="#000000" stroke-linecap="round" stroke-linejoin="round" stroke-opacity="0.1" stroke-width="2"/>
  <polyline clip-path="url(#clip942)" fill="none" id="svg_14" points="2036.19,1879.98 2036.19,47.2441 " stroke="#000000" stroke-linecap="round" stroke-linejoin="round" stroke-opacity="0.1" stroke-width="2"/>
  <polyline clip-path="url(#clip942)" fill="none" id="svg_15" points="2260.41,1879.98 2260.41,47.2441 " stroke="#000000" stroke-linecap="round" stroke-linejoin="round" stroke-opacity="0.1" stroke-width="2"/>
  <polyline clip-path="url(#clip942)" fill="none" id="svg_16" points="2484.63,1879.98 2484.63,47.2441 " stroke="#000000" stroke-linecap="round" stroke-linejoin="round" stroke-opacity="0.1" stroke-width="2"/>
  <polyline clip-path="url(#clip942)" fill="none" id="svg_17" points="2708.84,1879.98 2708.84,47.2441 " stroke="#000000" stroke-linecap="round" stroke-linejoin="round" stroke-opacity="0.1" stroke-width="2"/>
  <polyline clip-path="url(#clip940)" fill="none" id="svg_18" points="197.936,1879.98 2752.76,1879.98 " stroke="#000000" stroke-linecap="round" stroke-linejoin="round" stroke-width="4"/>
  <polyline clip-path="url(#clip940)" fill="none" id="svg_19" points="197.936,47.2441 2752.76,47.2441 " stroke="#000000" stroke-linecap="round" stroke-linejoin="round" stroke-width="4"/>
  <polyline clip-path="url(#clip940)" fill="none" id="svg_20" points="242.465,1879.98 242.465,1861.08 " stroke="#000000" stroke-linecap="round" stroke-linejoin="round" stroke-width="4"/>
  <polyline clip-path="url(#clip940)" fill="none" id="svg_21" points="466.681,1879.98 466.681,1861.08 " stroke="#000000" stroke-linecap="round" stroke-linejoin="round" stroke-width="4"/>
  <polyline clip-path="url(#clip940)" fill="none" id="svg_22" points="690.897,1879.98 690.897,1861.08 " stroke="#000000" stroke-linecap="round" stroke-linejoin="round" stroke-width="4"/>
  <polyline clip-path="url(#clip940)" fill="none" id="svg_23" points="915.113,1879.98 915.113,1861.08 " stroke="#000000" stroke-linecap="round" stroke-linejoin="round" stroke-width="4"/>
  <polyline clip-path="url(#clip940)" fill="none" id="svg_24" points="1139.33,1879.98 1139.33,1861.08 " stroke="#000000" stroke-linecap="round" stroke-linejoin="round" stroke-width="4"/>
  <polyline clip-path="url(#clip940)" fill="none" id="svg_25" points="1363.54,1879.98 1363.54,1861.08 " stroke="#000000" stroke-linecap="round" stroke-linejoin="round" stroke-width="4"/>
  <polyline clip-path="url(#clip940)" fill="none" id="svg_26" points="1587.76,1879.98 1587.76,1861.08 " stroke="#000000" stroke-linecap="round" stroke-linejoin="round" stroke-width="4"/>
  <polyline clip-path="url(#clip940)" fill="none" id="svg_27" points="1811.98,1879.98 1811.98,1861.08 " stroke="#000000" stroke-linecap="round" stroke-linejoin="round" stroke-width="4"/>
  <polyline clip-path="url(#clip940)" fill="none" id="svg_28" points="2036.19,1879.98 2036.19,1861.08 " stroke="#000000" stroke-linecap="round" stroke-linejoin="round" stroke-width="4"/>
  <polyline clip-path="url(#clip940)" fill="none" id="svg_29" points="2260.41,1879.98 2260.41,1861.08 " stroke="#000000" stroke-linecap="round" stroke-linejoin="round" stroke-width="4"/>
  <polyline clip-path="url(#clip940)" fill="none" id="svg_30" points="2484.63,1879.98 2484.63,1861.08 " stroke="#000000" stroke-linecap="round" stroke-linejoin="round" stroke-width="4"/>
  <polyline clip-path="url(#clip940)" fill="none" id="svg_31" points="2708.84,1879.98 2708.84,1861.08 " stroke="#000000" stroke-linecap="round" stroke-linejoin="round" stroke-width="4"/>
  <path clip-path="url(#clip940)" d="m186.99,1941.64l7.64,0l0,-26.36l-8.31,1.67l0,-4.26l8.26,-1.67l4.68,0l0,30.62l7.64,0l0,3.94l-19.91,0l0,-3.94z" fill="#000000" fill-rule="nonzero" id="svg_32"/>
  <path clip-path="url(#clip940)" d="m216.48,1944.86l0,-4.26q1.76,0.84 3.57,1.28q1.8,0.44 3.54,0.44q4.63,0 7.06,-3.11q2.45,-3.12 2.8,-9.46q-1.34,1.99 -3.4,3.05q-2.06,1.07 -4.56,1.07q-5.19,0 -8.22,-3.13q-3.01,-3.15 -3.01,-8.59q0,-5.32 3.15,-8.54q3.15,-3.22 8.38,-3.22q5.99,0 9.14,4.61q3.17,4.58 3.17,13.33q0,8.18 -3.89,13.06q-3.86,4.86 -10.41,4.86q-1.76,0 -3.57,-0.35q-1.8,-0.34 -3.75,-1.04m9.31,-14.65q3.15,0 4.97,-2.15q1.86,-2.16 1.86,-5.91q0,-3.72 -1.86,-5.88q-1.82,-2.17 -4.97,-2.17q-3.15,0 -5,2.17q-1.83,2.16 -1.83,5.88q0,3.75 1.83,5.91q1.85,2.15 5,2.15z" fill="#000000" fill-rule="nonzero" id="svg_33"/>
  <path clip-path="url(#clip940)" d="m256.5,1929.17q-3.33,0 -5.25,1.78q-1.9,1.78 -1.9,4.91q0,3.12 1.9,4.9q1.92,1.79 5.25,1.79q3.34,0 5.26,-1.79q1.92,-1.8 1.92,-4.9q0,-3.13 -1.92,-4.91q-1.9,-1.78 -5.26,-1.78m-4.67,-1.99q-3.01,-0.74 -4.7,-2.8q-1.67,-2.06 -1.67,-5.03q0,-4.14 2.94,-6.55q2.97,-2.41 8.1,-2.41q5.17,0 8.11,2.41q2.94,2.41 2.94,6.55q0,2.97 -1.69,5.03q-1.67,2.06 -4.66,2.8q3.38,0.78 5.26,3.08q1.9,2.29 1.9,5.6q0,5.02 -3.08,7.71q-3.06,2.68 -8.78,2.68q-5.71,0 -8.79,-2.68q-3.06,-2.69 -3.06,-7.71q0,-3.31 1.9,-5.6q1.9,-2.3 5.28,-3.08m-1.71,-7.39q0,2.69 1.66,4.19q1.69,1.51 4.72,1.51q3.01,0 4.7,-1.51q1.72,-1.5 1.72,-4.19q0,-2.68 -1.72,-4.19q-1.69,-1.5 -4.7,-1.5q-3.03,0 -4.72,1.5q-1.66,1.51 -1.66,4.19z" fill="#000000" fill-rule="nonzero" id="svg_34"/>
  <path clip-path="url(#clip940)" d="m286.67,1914.1q-3.61,0 -5.44,3.56q-1.81,3.54 -1.81,10.67q0,7.11 1.81,10.68q1.83,3.54 5.44,3.54q3.63,0 5.44,-3.54q1.82,-3.57 1.82,-10.68q0,-7.13 -1.82,-10.67q-1.81,-3.56 -5.44,-3.56m0,-3.71q5.81,0 8.86,4.61q3.08,4.58 3.08,13.33q0,8.73 -3.08,13.34q-3.05,4.58 -8.86,4.58q-5.81,0 -8.89,-4.58q-3.06,-4.61 -3.06,-13.34q0,-8.75 3.06,-13.33q3.08,-4.61 8.89,-4.61z" fill="#000000" fill-rule="nonzero" id="svg_35"/>
  <path clip-path="url(#clip940)" d="m410.96,1941.64l7.64,0l0,-26.36l-8.31,1.67l0,-4.26l8.27,-1.67l4.67,0l0,30.62l7.64,0l0,3.94l-19.91,0l0,-3.94z" fill="#000000" fill-rule="nonzero" id="svg_36"/>
  <path clip-path="url(#clip940)" d="m440.45,1944.86l0,-4.26q1.76,0.84 3.57,1.28q1.8,0.44 3.54,0.44q4.63,0 7.06,-3.11q2.45,-3.12 2.8,-9.46q-1.34,1.99 -3.4,3.05q-2.06,1.07 -4.56,1.07q-5.19,0 -8.22,-3.13q-3.01,-3.15 -3.01,-8.59q0,-5.32 3.15,-8.54q3.15,-3.22 8.38,-3.22q5.99,0 9.14,4.61q3.17,4.58 3.17,13.33q0,8.18 -3.88,13.06q-3.87,4.86 -10.42,4.86q-1.76,0 -3.57,-0.35q-1.8,-0.34 -3.75,-1.04m9.31,-14.65q3.15,0 4.98,-2.15q1.85,-2.16 1.85,-5.91q0,-3.72 -1.85,-5.88q-1.83,-2.17 -4.98,-2.17q-3.15,0 -5,2.17q-1.83,2.16 -1.83,5.88q0,3.75 1.83,5.91q1.85,2.15 5,2.15z" fill="#000000" fill-rule="nonzero" id="svg_37"/>
  <path clip-path="url(#clip940)" d="m480.48,1929.17q-3.34,0 -5.26,1.78q-1.9,1.78 -1.9,4.91q0,3.12 1.9,4.9q1.92,1.79 5.26,1.79q3.33,0 5.25,-1.79q1.92,-1.8 1.92,-4.9q0,-3.13 -1.92,-4.91q-1.9,-1.78 -5.25,-1.78m-4.68,-1.99q-3.01,-0.74 -4.7,-2.8q-1.66,-2.06 -1.66,-5.03q0,-4.14 2.94,-6.55q2.96,-2.41 8.1,-2.41q5.16,0 8.1,2.41q2.94,2.41 2.94,6.55q0,2.97 -1.69,5.03q-1.67,2.06 -4.65,2.8q3.38,0.78 5.25,3.08q1.9,2.29 1.9,5.6q0,5.02 -3.08,7.71q-3.06,2.68 -8.77,2.68q-5.72,0 -8.8,-2.68q-3.05,-2.69 -3.05,-7.71q0,-3.31 1.89,-5.6q1.9,-2.3 5.28,-3.08m-1.71,-7.39q0,2.69 1.66,4.19q1.69,1.51 4.73,1.51q3.01,0 4.7,-1.51q1.71,-1.5 1.71,-4.19q0,-2.68 -1.71,-4.19q-1.69,-1.5 -4.7,-1.5q-3.04,0 -4.73,1.5q-1.66,1.51 -1.66,4.19z" fill="#000000" fill-rule="nonzero" id="svg_38"/>
  <path clip-path="url(#clip940)" d="m513.49,1915.09l-11.81,18.45l11.81,0l0,-18.45m-1.23,-4.07l5.88,0l0,22.52l4.93,0l0,3.89l-4.93,0l0,8.15l-4.65,0l0,-8.15l-15.61,0l0,-4.51l14.38,-21.9z" fill="#000000" fill-rule="nonzero" id="svg_39"/>
  <path clip-path="url(#clip940)" d="m635.47,1941.64l7.64,0l0,-26.36l-8.31,1.67l0,-4.26l8.26,-1.67l4.68,0l0,30.62l7.64,0l0,3.94l-19.91,0l0,-3.94z" fill="#000000" fill-rule="nonzero" id="svg_40"/>
  <path clip-path="url(#clip940)" d="m664.96,1944.86l0,-4.26q1.76,0.84 3.56,1.28q1.81,0.44 3.55,0.44q4.63,0 7.06,-3.11q2.45,-3.12 2.8,-9.46q-1.35,1.99 -3.41,3.05q-2.06,1.07 -4.56,1.07q-5.18,0 -8.21,-3.13q-3.01,-3.15 -3.01,-8.59q0,-5.32 3.14,-8.54q3.15,-3.22 8.38,-3.22q6,0 9.15,4.61q3.17,4.58 3.17,13.33q0,8.18 -3.89,13.06q-3.86,4.86 -10.42,4.86q-1.76,0 -3.56,-0.35q-1.81,-0.34 -3.75,-1.04m9.3,-14.65q3.15,0 4.98,-2.15q1.85,-2.16 1.85,-5.91q0,-3.72 -1.85,-5.88q-1.83,-2.17 -4.98,-2.17q-3.14,0 -5,2.17q-1.82,2.16 -1.82,5.88q0,3.75 1.82,5.91q1.86,2.15 5,2.15z" fill="#000000" fill-rule="nonzero" id="svg_41"/>
  <path clip-path="url(#clip940)" d="m704.98,1929.17q-3.33,0 -5.25,1.78q-1.9,1.78 -1.9,4.91q0,3.12 1.9,4.9q1.92,1.79 5.25,1.79q3.34,0 5.26,-1.79q1.92,-1.8 1.92,-4.9q0,-3.13 -1.92,-4.91q-1.9,-1.78 -5.26,-1.78m-4.67,-1.99q-3.01,-0.74 -4.7,-2.8q-1.67,-2.06 -1.67,-5.03q0,-4.14 2.94,-6.55q2.96,-2.41 8.1,-2.41q5.16,0 8.1,2.41q2.94,2.41 2.94,6.55q0,2.97 -1.69,5.03q-1.66,2.06 -4.65,2.8q3.38,0.78 5.26,3.08q1.89,2.29 1.89,5.6q0,5.02 -3.08,7.71q-3.05,2.68 -8.77,2.68q-5.72,0 -8.79,-2.68q-3.06,-2.69 -3.06,-7.71q0,-3.31 1.9,-5.6q1.9,-2.3 5.28,-3.08m-1.72,-7.39q0,2.69 1.67,4.19q1.69,1.51 4.72,1.51q3.01,0 4.7,-1.51q1.71,-1.5 1.71,-4.19q0,-2.68 -1.71,-4.19q-1.69,-1.5 -4.7,-1.5q-3.03,0 -4.72,1.5q-1.67,1.51 -1.67,4.19z" fill="#000000" fill-rule="nonzero" id="svg_42"/>
  <path clip-path="url(#clip940)" d="m735.14,1929.17q-3.33,0 -5.25,1.78q-1.9,1.78 -1.9,4.91q0,3.12 1.9,4.9q1.92,1.79 5.25,1.79q3.34,0 5.26,-1.79q1.92,-1.8 1.92,-4.9q0,-3.13 -1.92,-4.91q-1.9,-1.78 -5.26,-1.78m-4.67,-1.99q-3.01,-0.74 -4.7,-2.8q-1.67,-2.06 -1.67,-5.03q0,-4.14 2.94,-6.55q2.96,-2.41 8.1,-2.41q5.17,0 8.11,2.41q2.94,2.41 2.94,6.55q0,2.97 -1.69,5.03q-1.67,2.06 -4.66,2.8q3.38,0.78 5.26,3.08q1.9,2.29 1.9,5.6q0,5.02 -3.08,7.71q-3.06,2.68 -8.78,2.68q-5.71,0 -8.79,-2.68q-3.06,-2.69 -3.06,-7.71q0,-3.31 1.9,-5.6q1.9,-2.3 5.28,-3.08m-1.72,-7.39q0,2.69 1.67,4.19q1.69,1.51 4.72,1.51q3.01,0 4.7,-1.51q1.72,-1.5 1.72,-4.19q0,-2.68 -1.72,-4.19q-1.69,-1.5 -4.7,-1.5q-3.03,0 -4.72,1.5q-1.67,1.51 -1.67,4.19z" fill="#000000" fill-rule="nonzero" id="svg_43"/>
  <path clip-path="url(#clip940)" d="m860.44,1941.64l7.64,0l0,-26.36l-8.31,1.67l0,-4.26l8.26,-1.67l4.68,0l0,30.62l7.63,0l0,3.94l-19.9,0l0,-3.94z" fill="#000000" fill-rule="nonzero" id="svg_44"/>
  <path clip-path="url(#clip940)" d="m889.93,1944.86l0,-4.26q1.76,0.84 3.56,1.28q1.81,0.44 3.54,0.44q4.63,0 7.06,-3.11q2.46,-3.12 2.8,-9.46q-1.34,1.99 -3.4,3.05q-2.06,1.07 -4.56,1.07q-5.18,0 -8.21,-3.13q-3.01,-3.15 -3.01,-8.59q0,-5.32 3.14,-8.54q3.15,-3.22 8.38,-3.22q6,0 9.15,4.61q3.17,4.58 3.17,13.33q0,8.18 -3.89,13.06q-3.87,4.86 -10.42,4.86q-1.76,0 -3.56,-0.35q-1.81,-0.34 -3.75,-1.04m9.3,-14.65q3.15,0 4.98,-2.15q1.85,-2.16 1.85,-5.91q0,-3.72 -1.85,-5.88q-1.83,-2.17 -4.98,-2.17q-3.14,0 -5,2.17q-1.83,2.16 -1.83,5.88q0,3.75 1.83,5.91q1.86,2.15 5,2.15z" fill="#000000" fill-rule="nonzero" id="svg_45"/>
  <path clip-path="url(#clip940)" d="m920.09,1944.86l0,-4.26q1.76,0.84 3.56,1.28q1.81,0.44 3.55,0.44q4.63,0 7.06,-3.11q2.45,-3.12 2.8,-9.46q-1.35,1.99 -3.41,3.05q-2.06,1.07 -4.56,1.07q-5.18,0 -8.21,-3.13q-3.01,-3.15 -3.01,-8.59q0,-5.32 3.15,-8.54q3.14,-3.22 8.37,-3.22q6,0 9.15,4.61q3.17,4.58 3.17,13.33q0,8.18 -3.89,13.06q-3.86,4.86 -10.42,4.86q-1.76,0 -3.56,-0.35q-1.81,-0.34 -3.75,-1.04m9.3,-14.65q3.15,0 4.98,-2.15q1.85,-2.16 1.85,-5.91q0,-3.72 -1.85,-5.88q-1.83,-2.17 -4.98,-2.17q-3.14,0 -5,2.17q-1.82,2.16 -1.82,5.88q0,3.75 1.82,5.91q1.86,2.15 5,2.15z" fill="#000000" fill-rule="nonzero" id="svg_46"/>
  <path clip-path="url(#clip940)" d="m954.14,1941.64l16.32,0l0,3.94l-21.95,0l0,-3.94q2.67,-2.75 7.25,-7.38q4.61,-4.65 5.79,-6q2.24,-2.52 3.12,-4.25q0.91,-1.76 0.91,-3.45q0,-2.76 -1.95,-4.49q-1.92,-1.74 -5.02,-1.74q-2.2,0 -4.65,0.76q-2.44,0.77 -5.21,2.32l0,-4.72q2.82,-1.14 5.27,-1.72q2.46,-0.58 4.49,-0.58q5.38,0 8.57,2.69q3.19,2.68 3.19,7.18q0,2.12 -0.81,4.05q-0.78,1.89 -2.89,4.49q-0.58,0.67 -3.68,3.89q-3.1,3.19 -8.75,8.95z" fill="#000000" fill-rule="nonzero" id="svg_47"/>
  <path clip-path="url(#clip940)" d="m1083.77,1941.64l7.64,0l0,-26.36l-8.31,1.67l0,-4.26l8.27,-1.67l4.67,0l0,30.62l7.64,0l0,3.94l-19.91,0l0,-3.94z" fill="#000000" fill-rule="nonzero" id="svg_48"/>
  <path clip-path="url(#clip940)" d="m1113.26,1944.86l0,-4.26q1.76,0.84 3.57,1.28q1.8,0.44 3.54,0.44q4.63,0 7.06,-3.11q2.45,-3.12 2.8,-9.46q-1.34,1.99 -3.4,3.05q-2.06,1.07 -4.56,1.07q-5.19,0 -8.22,-3.13q-3.01,-3.15 -3.01,-8.59q0,-5.32 3.15,-8.54q3.15,-3.22 8.38,-3.22q5.99,0 9.14,4.61q3.17,4.58 3.17,13.33q0,8.18 -3.88,13.06q-3.87,4.86 -10.42,4.86q-1.76,0 -3.57,-0.35q-1.8,-0.34 -3.75,-1.04m9.31,-14.65q3.15,0 4.98,-2.15q1.85,-2.16 1.85,-5.91q0,-3.72 -1.85,-5.88q-1.83,-2.17 -4.98,-2.17q-3.15,0 -5,2.17q-1.83,2.16 -1.83,5.88q0,3.75 1.83,5.91q1.85,2.15 5,2.15z" fill="#000000" fill-rule="nonzero" id="svg_49"/>
  <path clip-path="url(#clip940)" d="m1143.43,1944.86l0,-4.26q1.76,0.84 3.56,1.28q1.81,0.44 3.54,0.44q4.63,0 7.06,-3.11q2.46,-3.12 2.8,-9.46q-1.34,1.99 -3.4,3.05q-2.06,1.07 -4.56,1.07q-5.18,0 -8.22,-3.13q-3.01,-3.15 -3.01,-8.59q0,-5.32 3.15,-8.54q3.15,-3.22 8.38,-3.22q6,0 9.14,4.61q3.18,4.58 3.18,13.33q0,8.18 -3.89,13.06q-3.87,4.86 -10.42,4.86q-1.76,0 -3.56,-0.35q-1.81,-0.34 -3.75,-1.04m9.3,-14.65q3.15,0 4.98,-2.15q1.85,-2.16 1.85,-5.91q0,-3.72 -1.85,-5.88q-1.83,-2.17 -4.98,-2.17q-3.15,0 -5,2.17q-1.83,2.16 -1.83,5.88q0,3.75 1.83,5.91q1.85,2.15 5,2.15z" fill="#000000" fill-rule="nonzero" id="svg_50"/>
  <path clip-path="url(#clip940)" d="m1184.03,1926.44q-3.15,0 -5,2.15q-1.83,2.15 -1.83,5.9q0,3.73 1.83,5.9q1.85,2.16 5,2.16q3.15,0 4.97,-2.16q1.86,-2.17 1.86,-5.9q0,-3.75 -1.86,-5.9q-1.82,-2.15 -4.97,-2.15m9.28,-14.66l0,4.26q-1.76,-0.83 -3.56,-1.27q-1.79,-0.44 -3.55,-0.44q-4.63,0 -7.08,3.12q-2.43,3.13 -2.78,9.45q1.37,-2.02 3.43,-3.08q2.06,-1.09 4.54,-1.09q5.2,0 8.21,3.17q3.04,3.15 3.04,8.59q0,5.33 -3.15,8.54q-3.15,3.22 -8.38,3.22q-6,0 -9.17,-4.58q-3.17,-4.61 -3.17,-13.34q0,-8.19 3.89,-13.05q3.89,-4.89 10.44,-4.89q1.76,0 3.54,0.35q1.81,0.35 3.75,1.04z" fill="#000000" fill-rule="nonzero" id="svg_51"/>
  <path clip-path="url(#clip940)" d="m1312.16,1941.64l16.32,0l0,3.94l-21.95,0l0,-3.94q2.66,-2.75 7.25,-7.38q4.6,-4.65 5.78,-6q2.25,-2.52 3.13,-4.25q0.9,-1.76 0.9,-3.45q0,-2.76 -1.94,-4.49q-1.92,-1.74 -5.03,-1.74q-2.2,0 -4.65,0.76q-2.43,0.77 -5.21,2.32l0,-4.72q2.83,-1.14 5.28,-1.72q2.45,-0.58 4.49,-0.58q5.37,0 8.57,2.69q3.19,2.68 3.19,7.18q0,2.12 -0.81,4.05q-0.79,1.89 -2.89,4.49q-0.58,0.67 -3.68,3.89q-3.11,3.19 -8.75,8.95z" fill="#000000" fill-rule="nonzero" id="svg_52"/>
  <path clip-path="url(#clip940)" d="m1348.29,1914.1q-3.61,0 -5.44,3.56q-1.81,3.54 -1.81,10.67q0,7.11 1.81,10.68q1.83,3.54 5.44,3.54q3.63,0 5.44,-3.54q1.83,-3.57 1.83,-10.68q0,-7.13 -1.83,-10.67q-1.81,-3.56 -5.44,-3.56m0,-3.71q5.81,0 8.87,4.61q3.07,4.58 3.07,13.33q0,8.73 -3.07,13.34q-3.06,4.58 -8.87,4.58q-5.81,0 -8.89,-4.58q-3.05,-4.61 -3.05,-13.34q0,-8.75 3.05,-13.33q3.08,-4.61 8.89,-4.61z" fill="#000000" fill-rule="nonzero" id="svg_53"/>
  <path clip-path="url(#clip940)" d="m1378.45,1914.1q-3.61,0 -5.44,3.56q-1.8,3.54 -1.8,10.67q0,7.11 1.8,10.68q1.83,3.54 5.44,3.54q3.64,0 5.44,-3.54q1.83,-3.57 1.83,-10.68q0,-7.13 -1.83,-10.67q-1.8,-3.56 -5.44,-3.56m0,-3.71q5.81,0 8.87,4.61q3.08,4.58 3.08,13.33q0,8.73 -3.08,13.34q-3.06,4.58 -8.87,4.58q-5.81,0 -8.89,-4.58q-3.05,-4.61 -3.05,-13.34q0,-8.75 3.05,-13.33q3.08,-4.61 8.89,-4.61z" fill="#000000" fill-rule="nonzero" id="svg_54"/>
  <path clip-path="url(#clip940)" d="m1408.61,1914.1q-3.61,0 -5.44,3.56q-1.8,3.54 -1.8,10.67q0,7.11 1.8,10.68q1.83,3.54 5.44,3.54q3.64,0 5.44,-3.54q1.83,-3.57 1.83,-10.68q0,-7.13 -1.83,-10.67q-1.8,-3.56 -5.44,-3.56m0,-3.71q5.81,0 8.87,4.61q3.08,4.58 3.08,13.33q0,8.73 -3.08,13.34q-3.06,4.58 -8.87,4.58q-5.81,0 -8.88,-4.58q-3.06,-4.61 -3.06,-13.34q0,-8.75 3.06,-13.33q3.07,-4.61 8.88,-4.61z" fill="#000000" fill-rule="nonzero" id="svg_55"/>
  <path clip-path="url(#clip940)" d="m1536.13,1941.64l16.32,0l0,3.94l-21.95,0l0,-3.94q2.67,-2.75 7.25,-7.38q4.61,-4.65 5.79,-6q2.24,-2.52 3.12,-4.25q0.9,-1.76 0.9,-3.45q0,-2.76 -1.94,-4.49q-1.92,-1.74 -5.02,-1.74q-2.2,0 -4.66,0.76q-2.43,0.77 -5.2,2.32l0,-4.72q2.82,-1.14 5.27,-1.72q2.46,-0.58 4.49,-0.58q5.37,0 8.57,2.69q3.19,2.68 3.19,7.18q0,2.12 -0.81,4.05q-0.78,1.89 -2.89,4.49q-0.58,0.67 -3.68,3.89q-3.1,3.19 -8.75,8.95z" fill="#000000" fill-rule="nonzero" id="svg_56"/>
  <path clip-path="url(#clip940)" d="m1572.26,1914.1q-3.61,0 -5.44,3.56q-1.8,3.54 -1.8,10.67q0,7.11 1.8,10.68q1.83,3.54 5.44,3.54q3.64,0 5.44,-3.54q1.83,-3.57 1.83,-10.68q0,-7.13 -1.83,-10.67q-1.8,-3.56 -5.44,-3.56m0,-3.71q5.81,0 8.87,4.61q3.08,4.58 3.08,13.33q0,8.73 -3.08,13.34q-3.06,4.58 -8.87,4.58q-5.81,0 -8.89,-4.58q-3.05,-4.61 -3.05,-13.34q0,-8.75 3.05,-13.33q3.08,-4.61 8.89,-4.61z" fill="#000000" fill-rule="nonzero" id="svg_57"/>
  <path clip-path="url(#clip940)" d="m1602.43,1914.1q-3.62,0 -5.44,3.56q-1.81,3.54 -1.81,10.67q0,7.11 1.81,10.68q1.82,3.54 5.44,3.54q3.63,0 5.43,-3.54q1.83,-3.57 1.83,-10.68q0,-7.13 -1.83,-10.67q-1.8,-3.56 -5.43,-3.56m0,-3.71q5.81,0 8.86,4.61q3.08,4.58 3.08,13.33q0,8.73 -3.08,13.34q-3.05,4.58 -8.86,4.58q-5.81,0 -8.89,-4.58q-3.06,-4.61 -3.06,-13.34q0,-8.75 3.06,-13.33q3.08,-4.61 8.89,-4.61z" fill="#000000" fill-rule="nonzero" id="svg_58"/>
  <path clip-path="url(#clip940)" d="m1635.43,1915.09l-11.8,18.45l11.8,0l0,-18.45m-1.22,-4.07l5.88,0l0,22.52l4.93,0l0,3.89l-4.93,0l0,8.15l-4.66,0l0,-8.15l-15.6,0l0,-4.51l14.38,-21.9z" fill="#000000" fill-rule="nonzero" id="svg_59"/>
  <path clip-path="url(#clip940)" d="m1760.63,1941.64l16.32,0l0,3.94l-21.94,0l0,-3.94q2.66,-2.75 7.25,-7.38q4.6,-4.65 5.78,-6q2.25,-2.52 3.13,-4.25q0.9,-1.76 0.9,-3.45q0,-2.76 -1.94,-4.49q-1.93,-1.74 -5.03,-1.74q-2.2,0 -4.65,0.76q-2.43,0.77 -5.21,2.32l0,-4.72q2.83,-1.14 5.28,-1.72q2.45,-0.58 4.49,-0.58q5.37,0 8.56,2.69q3.2,2.68 3.2,7.18q0,2.12 -0.81,4.05q-0.79,1.89 -2.89,4.49q-0.58,0.67 -3.69,3.89q-3.1,3.19 -8.75,8.95z" fill="#000000" fill-rule="nonzero" id="svg_60"/>
  <path clip-path="url(#clip940)" d="m1796.77,1914.1q-3.61,0 -5.44,3.56q-1.81,3.54 -1.81,10.67q0,7.11 1.81,10.68q1.83,3.54 5.44,3.54q3.63,0 5.44,-3.54q1.83,-3.57 1.83,-10.68q0,-7.13 -1.83,-10.67q-1.81,-3.56 -5.44,-3.56m0,-3.71q5.81,0 8.86,4.61q3.08,4.58 3.08,13.33q0,8.73 -3.08,13.34q-3.05,4.58 -8.86,4.58q-5.81,0 -8.89,-4.58q-3.06,-4.61 -3.06,-13.34q0,-8.75 3.06,-13.33q3.08,-4.61 8.89,-4.61z" fill="#000000" fill-rule="nonzero" id="svg_61"/>
  <path clip-path="url(#clip940)" d="m1826.93,1914.1q-3.61,0 -5.44,3.56q-1.8,3.54 -1.8,10.67q0,7.11 1.8,10.68q1.83,3.54 5.44,3.54q3.63,0 5.44,-3.54q1.83,-3.57 1.83,-10.68q0,-7.13 -1.83,-10.67q-1.81,-3.56 -5.44,-3.56m0,-3.71q5.81,0 8.87,4.61q3.07,4.58 3.07,13.33q0,8.73 -3.07,13.34q-3.06,4.58 -8.87,4.58q-5.81,0 -8.89,-4.58q-3.05,-4.61 -3.05,-13.34q0,-8.75 3.05,-13.33q3.08,-4.61 8.89,-4.61z" fill="#000000" fill-rule="nonzero" id="svg_62"/>
  <path clip-path="url(#clip940)" d="m1857.09,1929.17q-3.33,0 -5.25,1.78q-1.9,1.78 -1.9,4.91q0,3.12 1.9,4.9q1.92,1.79 5.25,1.79q3.34,0 5.26,-1.79q1.92,-1.8 1.92,-4.9q0,-3.13 -1.92,-4.91q-1.9,-1.78 -5.26,-1.78m-4.67,-1.99q-3.01,-0.74 -4.7,-2.8q-1.67,-2.06 -1.67,-5.03q0,-4.14 2.94,-6.55q2.96,-2.41 8.1,-2.41q5.16,0 8.1,2.41q2.94,2.41 2.94,6.55q0,2.97 -1.69,5.03q-1.66,2.06 -4.65,2.8q3.38,0.78 5.26,3.08q1.89,2.29 1.89,5.6q0,5.02 -3.07,7.71q-3.06,2.68 -8.78,2.68q-5.72,0 -8.79,-2.68q-3.06,-2.69 -3.06,-7.71q0,-3.31 1.9,-5.6q1.9,-2.3 5.28,-3.08m-1.72,-7.39q0,2.69 1.67,4.19q1.69,1.51 4.72,1.51q3.01,0 4.7,-1.51q1.71,-1.5 1.71,-4.19q0,-2.68 -1.71,-4.19q-1.69,-1.5 -4.7,-1.5q-3.03,0 -4.72,1.5q-1.67,1.51 -1.67,4.19z" fill="#000000" fill-rule="nonzero" id="svg_63"/>
  <path clip-path="url(#clip940)" d="m1985.6,1941.64l16.32,0l0,3.94l-21.94,0l0,-3.94q2.66,-2.75 7.24,-7.38q4.61,-4.65 5.79,-6q2.25,-2.52 3.13,-4.25q0.9,-1.76 0.9,-3.45q0,-2.76 -1.95,-4.49q-1.92,-1.74 -5.02,-1.74q-2.2,0 -4.65,0.76q-2.43,0.77 -5.21,2.32l0,-4.72q2.82,-1.14 5.28,-1.72q2.45,-0.58 4.49,-0.58q5.37,0 8.56,2.69q3.2,2.68 3.2,7.18q0,2.12 -0.81,4.05q-0.79,1.89 -2.9,4.49q-0.58,0.67 -3.68,3.89q-3.1,3.19 -8.75,8.95z" fill="#000000" fill-rule="nonzero" id="svg_64"/>
  <path clip-path="url(#clip940)" d="m2021.74,1914.1q-3.61,0 -5.44,3.56q-1.81,3.54 -1.81,10.67q0,7.11 1.81,10.68q1.83,3.54 5.44,3.54q3.63,0 5.44,-3.54q1.83,-3.57 1.83,-10.68q0,-7.13 -1.83,-10.67q-1.81,-3.56 -5.44,-3.56m0,-3.71q5.81,0 8.86,4.61q3.08,4.58 3.08,13.33q0,8.73 -3.08,13.34q-3.05,4.58 -8.86,4.58q-5.81,0 -8.89,-4.58q-3.06,-4.61 -3.06,-13.34q0,-8.75 3.06,-13.33q3.08,-4.61 8.89,-4.61z" fill="#000000" fill-rule="nonzero" id="svg_65"/>
  <path clip-path="url(#clip940)" d="m2042.71,1941.64l7.64,0l0,-26.36l-8.31,1.67l0,-4.26l8.26,-1.67l4.68,0l0,30.62l7.64,0l0,3.94l-19.91,0l0,-3.94z" fill="#000000" fill-rule="nonzero" id="svg_66"/>
  <path clip-path="url(#clip940)" d="m2076.09,1941.64l16.32,0l0,3.94l-21.95,0l0,-3.94q2.67,-2.75 7.25,-7.38q4.61,-4.65 5.79,-6q2.24,-2.52 3.12,-4.25q0.9,-1.76 0.9,-3.45q0,-2.76 -1.94,-4.49q-1.92,-1.74 -5.02,-1.74q-2.2,0 -4.66,0.76q-2.43,0.77 -5.2,2.32l0,-4.72q2.82,-1.14 5.27,-1.72q2.46,-0.58 4.49,-0.58q5.37,0 8.57,2.69q3.19,2.68 3.19,7.18q0,2.12 -0.81,4.05q-0.78,1.89 -2.89,4.49q-0.58,0.67 -3.68,3.89q-3.1,3.19 -8.75,8.95z" fill="#000000" fill-rule="nonzero" id="svg_67"/>
  <path clip-path="url(#clip940)" d="m2208.94,1941.64l16.32,0l0,3.94l-21.95,0l0,-3.94q2.67,-2.75 7.25,-7.38q4.61,-4.65 5.79,-6q2.24,-2.52 3.12,-4.25q0.9,-1.76 0.9,-3.45q0,-2.76 -1.94,-4.49q-1.92,-1.74 -5.02,-1.74q-2.2,0 -4.66,0.76q-2.43,0.77 -5.2,2.32l0,-4.72q2.82,-1.14 5.27,-1.72q2.46,-0.58 4.49,-0.58q5.37,0 8.57,2.69q3.19,2.68 3.19,7.18q0,2.12 -0.81,4.05q-0.78,1.89 -2.89,4.49q-0.58,0.67 -3.68,3.89q-3.1,3.19 -8.75,8.95z" fill="#000000" fill-rule="nonzero" id="svg_68"/>
  <path clip-path="url(#clip940)" d="m2245.07,1914.1q-3.61,0 -5.44,3.56q-1.8,3.54 -1.8,10.67q0,7.11 1.8,10.68q1.83,3.54 5.44,3.54q3.64,0 5.44,-3.54q1.83,-3.57 1.83,-10.68q0,-7.13 -1.83,-10.67q-1.8,-3.56 -5.44,-3.56m0,-3.71q5.81,0 8.87,4.61q3.08,4.58 3.08,13.33q0,8.73 -3.08,13.34q-3.06,4.58 -8.87,4.58q-5.81,0 -8.89,-4.58q-3.05,-4.61 -3.05,-13.34q0,-8.75 3.05,-13.33q3.08,-4.61 8.89,-4.61z" fill="#000000" fill-rule="nonzero" id="svg_69"/>
  <path clip-path="url(#clip940)" d="m2266.05,1941.64l7.63,0l0,-26.36l-8.31,1.67l0,-4.26l8.27,-1.67l4.67,0l0,30.62l7.64,0l0,3.94l-19.9,0l0,-3.94z" fill="#000000" fill-rule="nonzero" id="svg_70"/>
  <path clip-path="url(#clip940)" d="m2305.98,1926.44q-3.15,0 -5,2.15q-1.83,2.15 -1.83,5.9q0,3.73 1.83,5.9q1.85,2.16 5,2.16q3.14,0 4.97,-2.16q1.85,-2.17 1.85,-5.9q0,-3.75 -1.85,-5.9q-1.83,-2.15 -4.97,-2.15m9.28,-14.66l0,4.26q-1.76,-0.83 -3.57,-1.27q-1.78,-0.44 -3.54,-0.44q-4.63,0 -7.08,3.12q-2.43,3.13 -2.78,9.45q1.37,-2.02 3.43,-3.08q2.06,-1.09 4.53,-1.09q5.21,0 8.22,3.17q3.03,3.15 3.03,8.59q0,5.33 -3.14,8.54q-3.15,3.22 -8.38,3.22q-6,0 -9.17,-4.58q-3.17,-4.61 -3.17,-13.34q0,-8.19 3.89,-13.05q3.89,-4.89 10.44,-4.89q1.76,0 3.54,0.35q1.8,0.35 3.75,1.04z" fill="#000000" fill-rule="nonzero" id="svg_71"/>
  <path clip-path="url(#clip940)" d="m2433.24,1941.64l16.32,0l0,3.94l-21.95,0l0,-3.94q2.66,-2.75 7.25,-7.38q4.6,-4.65 5.78,-6q2.25,-2.52 3.13,-4.25q0.9,-1.76 0.9,-3.45q0,-2.76 -1.94,-4.49q-1.92,-1.74 -5.03,-1.74q-2.19,0 -4.65,0.76q-2.43,0.77 -5.21,2.32l0,-4.72q2.83,-1.14 5.28,-1.72q2.45,-0.58 4.49,-0.58q5.37,0 8.57,2.69q3.19,2.68 3.19,7.18q0,2.12 -0.81,4.05q-0.79,1.89 -2.89,4.49q-0.58,0.67 -3.68,3.89q-3.11,3.19 -8.75,8.95z" fill="#000000" fill-rule="nonzero" id="svg_72"/>
  <path clip-path="url(#clip940)" d="m2469.37,1914.1q-3.61,0 -5.44,3.56q-1.8,3.54 -1.8,10.67q0,7.11 1.8,10.68q1.83,3.54 5.44,3.54q3.63,0 5.44,-3.54q1.83,-3.57 1.83,-10.68q0,-7.13 -1.83,-10.67q-1.81,-3.56 -5.44,-3.56m0,-3.71q5.81,0 8.87,4.61q3.07,4.58 3.07,13.33q0,8.73 -3.07,13.34q-3.06,4.58 -8.87,4.58q-5.81,0 -8.89,-4.58q-3.05,-4.61 -3.05,-13.34q0,-8.75 3.05,-13.33q3.08,-4.61 8.89,-4.61z" fill="#000000" fill-rule="nonzero" id="svg_73"/>
  <path clip-path="url(#clip940)" d="m2493.56,1941.64l16.32,0l0,3.94l-21.94,0l0,-3.94q2.66,-2.75 7.24,-7.38q4.61,-4.65 5.79,-6q2.24,-2.52 3.12,-4.25q0.91,-1.76 0.91,-3.45q0,-2.76 -1.95,-4.49q-1.92,-1.74 -5.02,-1.74q-2.2,0 -4.65,0.76q-2.44,0.77 -5.21,2.32l0,-4.72q2.82,-1.14 5.27,-1.72q2.46,-0.58 4.5,-0.58q5.37,0 8.56,2.69q3.19,2.68 3.19,7.18q0,2.12 -0.81,4.05q-0.78,1.89 -2.89,4.49q-0.58,0.67 -3.68,3.89q-3.1,3.19 -8.75,8.95z" fill="#000000" fill-rule="nonzero" id="svg_74"/>
  <path clip-path="url(#clip940)" d="m2529.69,1914.1q-3.61,0 -5.44,3.56q-1.8,3.54 -1.8,10.67q0,7.11 1.8,10.68q1.83,3.54 5.44,3.54q3.64,0 5.44,-3.54q1.83,-3.57 1.83,-10.68q0,-7.13 -1.83,-10.67q-1.8,-3.56 -5.44,-3.56m0,-3.71q5.81,0 8.87,4.61q3.08,4.58 3.08,13.33q0,8.73 -3.08,13.34q-3.06,4.58 -8.87,4.58q-5.81,0 -8.88,-4.58q-3.06,-4.61 -3.06,-13.34q0,-8.75 3.06,-13.33q3.07,-4.61 8.88,-4.61z" fill="#000000" fill-rule="nonzero" id="svg_75"/>
  <path clip-path="url(#clip940)" d="m2657.21,1941.64l16.32,0l0,3.94l-21.95,0l0,-3.94q2.67,-2.75 7.25,-7.38q4.61,-4.65 5.79,-6q2.24,-2.52 3.12,-4.25q0.9,-1.76 0.9,-3.45q0,-2.76 -1.94,-4.49q-1.92,-1.74 -5.02,-1.74q-2.2,0 -4.66,0.76q-2.43,0.77 -5.2,2.32l0,-4.72q2.82,-1.14 5.27,-1.72q2.46,-0.58 4.49,-0.58q5.37,0 8.57,2.69q3.19,2.68 3.19,7.18q0,2.12 -0.81,4.05q-0.78,1.89 -2.89,4.49q-0.58,0.67 -3.68,3.89q-3.1,3.19 -8.75,8.95z" fill="#000000" fill-rule="nonzero" id="svg_76"/>
  <path clip-path="url(#clip940)" d="m2693.34,1914.1q-3.61,0 -5.44,3.56q-1.8,3.54 -1.8,10.67q0,7.11 1.8,10.68q1.83,3.54 5.44,3.54q3.64,0 5.44,-3.54q1.83,-3.57 1.83,-10.68q0,-7.13 -1.83,-10.67q-1.8,-3.56 -5.44,-3.56m0,-3.71q5.81,0 8.87,4.61q3.08,4.58 3.08,13.33q0,8.73 -3.08,13.34q-3.06,4.58 -8.87,4.58q-5.81,0 -8.89,-4.58q-3.05,-4.61 -3.05,-13.34q0,-8.75 3.05,-13.33q3.08,-4.61 8.89,-4.61z" fill="#000000" fill-rule="nonzero" id="svg_77"/>
  <path clip-path="url(#clip940)" d="m2717.53,1941.64l16.32,0l0,3.94l-21.94,0l0,-3.94q2.66,-2.75 7.24,-7.38q4.61,-4.65 5.79,-6q2.25,-2.52 3.13,-4.25q0.9,-1.76 0.9,-3.45q0,-2.76 -1.95,-4.49q-1.92,-1.74 -5.02,-1.74q-2.2,0 -4.65,0.76q-2.43,0.77 -5.21,2.32l0,-4.72q2.82,-1.14 5.28,-1.72q2.45,-0.58 4.49,-0.58q5.37,0 8.56,2.69q3.2,2.68 3.2,7.18q0,2.12 -0.81,4.05q-0.79,1.89 -2.9,4.49q-0.57,0.67 -3.68,3.89q-3.1,3.19 -8.75,8.95z" fill="#000000" fill-rule="nonzero" id="svg_78"/>
  <path clip-path="url(#clip940)" d="m2756.51,1915.09l-11.8,18.45l11.8,0l0,-18.45m-1.22,-4.07l5.88,0l0,22.52l4.93,0l0,3.89l-4.93,0l0,8.15l-4.66,0l0,-8.15l-15.6,0l0,-4.51l14.38,-21.9z" fill="#000000" fill-rule="nonzero" id="svg_79"/>
  <polyline clip-path="url(#clip942)" fill="none" id="svg_80" points="197.936,1757.07 2752.76,1757.07 " stroke="#000000" stroke-linecap="round" stroke-linejoin="round" stroke-opacity="0.1" stroke-width="2"/>
  <polyline clip-path="url(#clip942)" fill="none" id="svg_81" points="197.936,1413.51 2752.76,1413.51 " stroke="#000000" stroke-linecap="round" stroke-linejoin="round" stroke-opacity="0.1" stroke-width="2"/>
  <polyline clip-path="url(#clip942)" fill="none" id="svg_82" points="197.936,1069.95 2752.76,1069.95 " stroke="#000000" stroke-linecap="round" stroke-linejoin="round" stroke-opacity="0.1" stroke-width="2"/>
  <polyline clip-path="url(#clip942)" fill="none" id="svg_83" points="197.936,726.386 2752.76,726.386 " stroke="#000000" stroke-linecap="round" stroke-linejoin="round" stroke-opacity="0.1" stroke-width="2"/>
  <polyline clip-path="url(#clip942)" fill="none" id="svg_84" points="197.936,382.826 2752.76,382.826 " stroke="#000000" stroke-linecap="round" stroke-linejoin="round" stroke-opacity="0.1" stroke-width="2"/>
  <polyline clip-path="url(#clip940)" fill="none" id="svg_85" points="197.936,1879.98 197.936,47.2441 " stroke="#000000" stroke-linecap="round" stroke-linejoin="round" stroke-width="4"/>
  <polyline clip-path="url(#clip940)" fill="none" id="svg_86" points="2752.76,1879.98 2752.76,47.2441 " stroke="#000000" stroke-linecap="round" stroke-linejoin="round" stroke-width="4"/>
  <polyline clip-path="url(#clip940)" fill="none" id="svg_87" points="197.936,1757.07 216.834,1757.07 " stroke="#000000" stroke-linecap="round" stroke-linejoin="round" stroke-width="4"/>
  <polyline clip-path="url(#clip940)" fill="none" id="svg_88" points="197.936,1413.51 216.834,1413.51 " stroke="#000000" stroke-linecap="round" stroke-linejoin="round" stroke-width="4"/>
  <polyline clip-path="url(#clip940)" fill="none" id="svg_89" points="197.936,1069.95 216.834,1069.95 " stroke="#000000" stroke-linecap="round" stroke-linejoin="round" stroke-width="4"/>
  <polyline clip-path="url(#clip940)" fill="none" id="svg_90" points="197.936,726.386 216.834,726.386 " stroke="#000000" stroke-linecap="round" stroke-linejoin="round" stroke-width="4"/>
  <polyline clip-path="url(#clip940)" fill="none" id="svg_91" points="197.936,382.826 216.834,382.826 " stroke="#000000" stroke-linecap="round" stroke-linejoin="round" stroke-width="4"/>
  <path clip-path="url(#clip940)" d="m49.99,1757.52l29.67,0l0,3.93l-29.67,0l0,-3.93z" fill="#000000" fill-rule="nonzero" id="svg_92"/>
  <path clip-path="url(#clip940)" d="m90.57,1770.41l7.63,0l0,-26.36l-8.31,1.66l0,-4.26l8.27,-1.66l4.67,0l0,30.62l7.64,0l0,3.94l-19.9,0l0,-3.94z" fill="#000000" fill-rule="nonzero" id="svg_93"/>
  <path clip-path="url(#clip940)" d="m119.92,1768.47l4.88,0l0,5.88l-4.88,0l0,-5.88z" fill="#000000" fill-rule="nonzero" id="svg_94"/>
  <path clip-path="url(#clip940)" d="m135.03,1739.79l18.36,0l0,3.93l-14.07,0l0,8.47q1.01,-0.34 2.03,-0.5q1.02,-0.19 2.04,-0.19q5.79,0 9.17,3.17q3.38,3.17 3.38,8.59q0,5.58 -3.48,8.68q-3.47,3.08 -9.79,3.08q-2.17,0 -4.44,-0.37q-2.25,-0.37 -4.66,-1.11l0,-4.7q2.09,1.13 4.31,1.69q2.22,0.55 4.7,0.55q4,0 6.34,-2.1q2.34,-2.11 2.34,-5.72q0,-3.61 -2.34,-5.72q-2.34,-2.1 -6.34,-2.1q-1.87,0 -3.75,0.41q-1.85,0.42 -3.8,1.3l0,-17.36z" fill="#000000" fill-rule="nonzero" id="svg_95"/>
  <path clip-path="url(#clip940)" d="m48.99,1413.96l29.68,0l0,3.93l-29.68,0l0,-3.93z" fill="#000000" fill-rule="nonzero" id="svg_96"/>
  <path clip-path="url(#clip940)" d="m89.57,1426.85l7.64,0l0,-26.36l-8.31,1.66l0,-4.26l8.26,-1.66l4.68,0l0,30.62l7.64,0l0,3.94l-19.91,0l0,-3.94z" fill="#000000" fill-rule="nonzero" id="svg_97"/>
  <path clip-path="url(#clip940)" d="m118.92,1424.91l4.89,0l0,5.88l-4.89,0l0,-5.88z" fill="#000000" fill-rule="nonzero" id="svg_98"/>
  <path clip-path="url(#clip940)" d="m143.99,1399.31q-3.61,0 -5.44,3.56q-1.8,3.54 -1.8,10.67q0,7.11 1.8,10.67q1.83,3.54 5.44,3.54q3.64,0 5.44,-3.54q1.83,-3.56 1.83,-10.67q0,-7.13 -1.83,-10.67q-1.8,-3.56 -5.44,-3.56m0,-3.71q5.81,0 8.87,4.61q3.08,4.58 3.08,13.33q0,8.73 -3.08,13.33q-3.06,4.59 -8.87,4.59q-5.81,0 -8.89,-4.59q-3.05,-4.6 -3.05,-13.33q0,-8.75 3.05,-13.33q3.08,-4.61 8.89,-4.61z" fill="#000000" fill-rule="nonzero" id="svg_99"/>
  <path clip-path="url(#clip940)" d="m49.99,1070.4l29.67,0l0,3.93l-29.67,0l0,-3.93z" fill="#000000" fill-rule="nonzero" id="svg_100"/>
  <path clip-path="url(#clip940)" d="m99.76,1055.75q-3.62,0 -5.44,3.56q-1.81,3.54 -1.81,10.67q0,7.11 1.81,10.67q1.82,3.54 5.44,3.54q3.63,0 5.44,-3.54q1.82,-3.56 1.82,-10.67q0,-7.13 -1.82,-10.67q-1.81,-3.56 -5.44,-3.56m0,-3.71q5.81,0 8.86,4.61q3.08,4.58 3.08,13.33q0,8.73 -3.08,13.33q-3.05,4.59 -8.86,4.59q-5.81,0 -8.89,-4.59q-3.06,-4.6 -3.06,-13.33q0,-8.75 3.06,-13.33q3.08,-4.61 8.89,-4.61z" fill="#000000" fill-rule="nonzero" id="svg_101"/>
  <path clip-path="url(#clip940)" d="m119.92,1081.35l4.88,0l0,5.88l-4.88,0l0,-5.88z" fill="#000000" fill-rule="nonzero" id="svg_102"/>
  <path clip-path="url(#clip940)" d="m135.03,1052.67l18.36,0l0,3.93l-14.07,0l0,8.47q1.01,-0.34 2.03,-0.51q1.02,-0.18 2.04,-0.18q5.79,0 9.17,3.17q3.38,3.17 3.38,8.59q0,5.58 -3.48,8.68q-3.47,3.08 -9.79,3.08q-2.17,0 -4.44,-0.37q-2.25,-0.37 -4.66,-1.11l0,-4.7q2.09,1.13 4.31,1.69q2.22,0.55 4.7,0.55q4,0 6.34,-2.1q2.34,-2.11 2.34,-5.72q0,-3.61 -2.34,-5.72q-2.34,-2.11 -6.34,-2.11q-1.87,0 -3.75,0.42q-1.85,0.42 -3.8,1.3l0,-17.36z" fill="#000000" fill-rule="nonzero" id="svg_103"/>
  <path clip-path="url(#clip940)" d="m98.76,712.18q-3.61,0 -5.44,3.57q-1.8,3.54 -1.8,10.67q0,7.11 1.8,10.67q1.83,3.54 5.44,3.54q3.63,0 5.44,-3.54q1.83,-3.56 1.83,-10.67q0,-7.13 -1.83,-10.67q-1.81,-3.57 -5.44,-3.57m0,-3.7q5.81,0 8.87,4.61q3.07,4.58 3.07,13.33q0,8.73 -3.07,13.33q-3.06,4.59 -8.87,4.59q-5.81,0 -8.89,-4.59q-3.05,-4.6 -3.05,-13.33q0,-8.75 3.05,-13.33q3.08,-4.61 8.89,-4.61z" fill="#000000" fill-rule="nonzero" id="svg_104"/>
  <path clip-path="url(#clip940)" d="m118.92,737.79l4.89,0l0,5.88l-4.89,0l0,-5.88z" fill="#000000" fill-rule="nonzero" id="svg_105"/>
  <path clip-path="url(#clip940)" d="m143.99,712.18q-3.61,0 -5.44,3.57q-1.8,3.54 -1.8,10.67q0,7.11 1.8,10.67q1.83,3.54 5.44,3.54q3.64,0 5.44,-3.54q1.83,-3.56 1.83,-10.67q0,-7.13 -1.83,-10.67q-1.8,-3.57 -5.44,-3.57m0,-3.7q5.81,0 8.87,4.61q3.08,4.58 3.08,13.33q0,8.73 -3.08,13.33q-3.06,4.59 -8.87,4.59q-5.81,0 -8.89,-4.59q-3.05,-4.6 -3.05,-13.33q0,-8.75 3.05,-13.33q3.08,-4.61 8.89,-4.61z" fill="#000000" fill-rule="nonzero" id="svg_106"/>
  <path clip-path="url(#clip940)" d="m99.76,368.63q-3.62,0 -5.44,3.56q-1.81,3.54 -1.81,10.67q0,7.11 1.81,10.67q1.82,3.54 5.44,3.54q3.63,0 5.44,-3.54q1.82,-3.56 1.82,-10.67q0,-7.13 -1.82,-10.67q-1.81,-3.56 -5.44,-3.56m0,-3.71q5.81,0 8.86,4.61q3.08,4.58 3.08,13.33q0,8.73 -3.08,13.33q-3.05,4.59 -8.86,4.59q-5.81,0 -8.89,-4.59q-3.06,-4.6 -3.06,-13.33q0,-8.75 3.06,-13.33q3.08,-4.61 8.89,-4.61z" fill="#000000" fill-rule="nonzero" id="svg_107"/>
  <path clip-path="url(#clip940)" d="m119.92,394.23l4.88,0l0,5.88l-4.88,0l0,-5.88z" fill="#000000" fill-rule="nonzero" id="svg_108"/>
  <path clip-path="url(#clip940)" d="m135.03,365.55l18.36,0l0,3.93l-14.07,0l0,8.47q1.01,-0.34 2.03,-0.51q1.02,-0.18 2.04,-0.18q5.79,0 9.17,3.17q3.38,3.17 3.38,8.59q0,5.58 -3.48,8.68q-3.47,3.08 -9.79,3.08q-2.17,0 -4.44,-0.37q-2.25,-0.37 -4.66,-1.11l0,-4.7q2.09,1.13 4.31,1.69q2.22,0.55 4.7,0.55q4,0 6.34,-2.1q2.34,-2.11 2.34,-5.72q0,-3.61 -2.34,-5.72q-2.34,-2.11 -6.34,-2.11q-1.87,0 -3.75,0.42q-1.85,0.42 -3.8,1.3l0,-17.36z" fill="#000000" fill-rule="nonzero" id="svg_109"/>
  <path clip-path="url(#clip942)" d="m270.24,873.22l14.12,-123.3l13.97,-14.91l13.81,-206.57l14.12,50.96l14.12,-91.82l13.96,-31.82l13.81,-54.89l14.12,-17.66l14.12,61.58l13.97,-27.81l13.81,39.58l14.12,105.03l14.12,-24.59l13.96,158.49l13.97,93.65l14.12,43.58l14.12,154.89l13.96,298.26l13.82,260.83l14.11,37.88l14.12,-343.19l13.97,-363.93l13.81,13.15l14.12,-180.8l14.12,-91.05l13.96,-54.85l13.82,21.12l14.11,-16.67l14.12,30.28l13.97,267.49l13.96,9.75l14.12,-182.79l14.12,-0.35l13.97,-77.99l13.81,-5.24l14.12,-20.49l14.12,54.93l13.96,-10.5l13.82,58.91l14.12,-44.83l14.12,143.78l13.96,30.98l13.81,18.15l14.12,102.54l14.12,-40.68l13.97,138.35l13.96,108.5l14.12,174.78l14.12,150.12l13.97,-257.81l13.81,-36.93l14.12,-99.32l14.12,-30.3l13.96,-11.04l13.81,-39.48l14.12,49.05l14.12,70.51l13.97,-4.45l13.81,-138.4l14.12,-132.87l14.12,84.32l13.96,-5.8l13.97,30.25l14.12,-97.51l14.12,365.29l13.96,185.7l13.81,-87.55l14.12,-338.01l14.12,10.37l13.97,-144.05l13.81,-110.68l14.12,83.55l14.12,-149.14l13.96,130.06l13.81,19.73l14.12,-182.02l14.12,387.68l13.97,-11.85l13.96,-254.68l14.12,1.94l14.12,90.46l13.97,-37.75l13.81,-62.99l14.12,241.01l14.12,-81.52l13.96,-46.41l13.81,-8.73l14.12,51.66l14.12,-112.57l13.97,45.12l13.81,-29.82l14.12,6.33l14.12,57.85l13.96,-55.01l13.97,118.39l14.12,-58.8l14.12,57.67l13.96,-14.69l13.82,62.02l14.11,26.3l14.12,83.41l13.97,-76.32l13.81,-105.01l14.12,173.05l14.12,63.62l13.96,-128.22l13.82,272.66l14.12,274.15l14.11,-21.16l13.97,-206.64l13.97,-153.62l14.11,-18.12l14.12,-19.97l13.97,-86.26l13.81,57.81l14.12,95.03l14.12,-189.4l13.96,-53.86l13.82,-122.33l14.12,-37.43l14.11,-39.84l13.97,-28.02l13.81,39.72l14.12,126.63l14.12,44.66l13.97,-61.59l13.96,288.51l14.12,70.77l14.12,91.98l13.97,-9.75l13.81,-314.45l14.12,-158.93l14.12,-17.87l13.96,-18.95l13.81,-25.01l14.12,-32.78l14.12,27.02l13.97,69.25l13.81,91.67l14.12,118.36l14.12,154.5l13.96,181.35l13.97,213.75l14.12,192.28l14.12,-72.47l13.96,-337.77l13.81,-28.65l14.12,-40.13l14.12,-245.12l13.97,161.03l13.81,-294.14l14.12,79.57l14.12,27.5l13.96,-51.88l13.81,34.46l14.12,103.91l14.12,65.1l13.97,140.66l13.96,94.75l14.12,280.96l14.12,96.55l13.97,-66.24l13.81,-221.79l14.12,-229.66l14.12,-58.12l13.96,8.83l13.82,-52.47l14.11,-58.58l14.12,-32.79l13.97,9.83l13.81,119.55l14.12,-8.79l0,-194.1l-14.12,-32.41l-13.81,26.14l-13.97,-105.36l-14.12,-88.27l-14.11,-59.39l-13.82,43.39l-13.96,227.17l-14.12,169.55l-14.12,22.16l-13.81,-36.63l-13.97,-17.83l-14.12,-0.97l-14.12,41.85l-13.96,-202.81l-13.97,-77.79l-14.12,-69.98l-14.12,-93.28l-13.81,-185.61l-13.96,-155.56l-14.12,69.45l-14.12,271.59l-13.81,-100.39l-13.97,215.76l-14.12,-233.55l-14.12,164.06l-13.81,308.71l-13.96,-89.35l-14.12,7.44l-14.12,82.86l-13.97,-15.57l-13.96,-27.55l-14.12,-78.21l-14.12,-126.68l-13.81,-131.87l-13.97,-152.21l-14.12,-168.79l-14.12,-170.8l-13.81,-27.87l-13.96,109.3l-14.12,214.98l-14.12,168.38l-13.81,-62.46l-13.97,59.51l-14.12,24.96l-14.12,-55.04l-13.96,19.99l-13.97,-385.35l-14.12,-94.19l-14.12,164.74l-13.81,97.7l-13.97,107.19l-14.11,74.89l-14.12,49.68l-13.82,-13.71l-13.96,122.2l-14.12,-59.54l-14.12,105.22l-13.81,13.1l-13.97,-85.62l-14.12,57.91l-14.11,107.34l-13.97,22.48l-13.97,-117.09l-14.11,-81.82l-14.12,28.27l-13.82,-100.84l-13.96,-428.82l-14.12,-20l-14.12,283.28l-13.81,94.58l-13.97,33.68l-14.12,88.13l-14.11,37.1l-13.82,19.23l-13.96,-66.08l-14.12,52.25l-14.12,-78.82l-13.97,43.3l-13.96,-127.13l-14.12,54.76l-14.12,1.77l-13.81,-40.01l-13.97,88.71l-14.12,-67.48l-14.12,25.57l-13.81,-3.26l-13.96,-29.74l-14.12,-109.49l-14.12,92.84l-13.81,-212.8l-13.97,-100.66l-14.12,150.99l-14.12,106.44l-13.96,-153.85l-13.97,-43.04l-14.12,190.97l-14.12,-370.67l-13.81,-16.97l-13.96,245.36l-14.12,-10.68l-14.12,146.4l-13.81,-46.19l-13.97,-21.12l-14.12,251.37l-14.12,-127.83l-13.81,-49.84l-13.96,42.91l-14.12,67.06l-14.12,-359.51l-13.97,-67.41l-13.96,-0.34l-14.12,261.37l-14.12,124.76l-13.81,34.7l-13.97,80.54l-14.12,83.25l-14.12,43.31l-13.81,-74.07l-13.96,15.44l-14.12,27.96l-14.12,-37.99l-13.81,121.85l-13.97,-152.78l-14.12,70.4l-14.12,-22.82l-13.96,-29.36l-13.97,22.53l-14.12,-160.02l-14.12,-66.28l-13.81,-204.35l-13.96,-75.4l-14.12,158.13l-14.12,-39.13l-13.82,24.89l-13.96,-80.26l-14.12,59.74l-14.12,2.83l-13.81,5.15l-13.97,-46.74l-14.12,98.51l-14.12,-114.12l-13.96,-34.28l-13.97,91.76l-14.12,-134.09l-14.11,-136.19l-13.82,-0.22l-13.96,9.32l-14.12,-22.98l-14.12,6.16l-13.81,383.83l-13.97,75.34l-14.12,-61.93l-14.11,71.54l-13.82,93.35l-13.96,17.33l-14.12,-121.29l-14.12,-229.41l-13.97,-91.69l-13.96,67.2l-14.12,-94.19l-14.12,-14.64l-13.81,-100.72l-13.97,-109.45l-14.12,72.44l-14.12,53.42l-13.81,0.46l-13.96,-27.37l-14.12,3.56l-14.12,252.7l-13.81,10.18l-13.97,123.56l-14.12,283.21l0,1.95z" fill="#009af9" fill-opacity="0.5" fill-rule="evenodd" id="svg_110"/>
  <polyline clip-path="url(#clip942)" fill="none" id="svg_111" points="270.242,872.246 284.361,668.991 298.327,599.756 312.139,491.379 326.258,390.511 340.377,342.817 354.342,340.594 368.155,312.923 382.274,277.378 396.393,271.952 410.358,312.775 424.17,382.922 438.289,442.753 452.408,477.557 466.374,523.2 480.339,615.869 494.458,752.366 508.577,890.458 522.543,1030.92 536.355,1114.66 550.474,1097.83 564.593,957.197 578.558,737.563 592.371,552.222 606.49,458.747 620.609,424.71 634.574,392.624 648.386,403.291 662.505,463.054 676.624,545.241 690.59,633.104 704.555,655.119 718.674,620.78 732.793,571.354 746.759,555.729 760.571,550.535 774.69,538.872 788.809,536.468 802.775,571.352 816.587,588.359 830.706,585.509 844.825,578.334 858.79,631.528 872.602,742.773 886.721,827.187 900.84,886.856 914.806,944.764 928.771,1013.69 942.89,1112.5 957.009,1152.35 970.975,1099.84 984.787,1020.45 998.906,989.788 1013.03,960.654 1026.99,947.412 1040.8,964.71 1054.92,967.579 1069.04,961.208 1083.01,918.717 1096.82,832.168 1110.94,703.351 1125.06,614.822 1139.02,612.097 1152.99,660.928 1167.11,791.921 1181.23,941.038 1195.19,1012.44 1209,993.58 1223.12,888.49 1237.24,767.99 1251.21,706.524 1265.02,674.28 1279.14,642.853 1293.26,573.624 1307.22,515.974 1321.03,534.325 1335.15,628.651 1349.27,727.009 1363.24,742.597 1377.2,692.185 1391.32,639.935 1405.44,609.674 1419.41,641.126 1433.22,716.031 1447.34,790.116 1461.46,804.103 1475.42,795.767 1489.23,793.033 1503.35,806.074 1517.47,783.534 1531.44,761.734 1545.25,766.833 1559.37,769.11 1573.49,770.654 1587.45,806.714 1601.42,844.262 1615.54,854.269 1629.66,856.98 1643.62,882.675 1657.44,904.067 1671.55,898.674 1685.67,896.309 1699.64,841.311 1713.45,741.513 1727.57,686.4 1741.69,728.211 1755.65,878.509 1769.47,1065.26 1783.59,1188.2 1797.7,1218.53 1811.67,1173.76 1825.64,1085.7 1839.75,1022.98 1853.87,984.035 1867.84,983.714 1881.65,1006.07 1895.77,1000.97 1909.89,936.043 1923.85,848.016 1937.67,793.705 1951.79,750.149 1965.9,692.784 1979.87,625.184 1993.68,596.193 2007.8,577.138 2021.92,646.562 2035.89,808.441 2049.85,942.701 2063.97,1005.6 2078.09,1039.11 2092.06,1004.49 2105.87,878.49 2119.99,714.831 2134.11,598.407 2148.07,534.287 2161.88,535.72 2176,604.724 2190.12,702.633 2204.09,813.358 2217.9,925.131 2232.02,1047.65 2246.14,1164.01 2260.1,1268.46 2274.07,1383.11 2288.19,1437.83 2302.31,1397.87 2316.27,1273.66 2330.08,1104.98 2344.2,1002.89 2358.32,997.101 2372.29,969.739 2386.1,872.858 2400.22,776.85 2414.34,755.872 2428.3,807.712 2442.11,917.75 2456.23,1016.34 2470.35,1083.89 2484.32,1193.11 2498.28,1341.89 2512.4,1461.44 2526.52,1510.2 2540.49,1486 2554.3,1393.42 2568.42,1267.51 2582.54,1153.67 2596.5,1044.5 2610.32,996.576 2624.43,996.978 2638.55,1024.72 2652.52,1082.32 2666.33,1129.02 2680.45,1140.83 " stroke="#009af9" stroke-linecap="round" stroke-linejoin="round" stroke-width="4"/>
  <path clip-path="url(#clip940)" d="m1537.53,212.01l1130.07,0l0,-103.68l-1130.07,0l0,103.68z" fill="#ffffff" fill-rule="evenodd" id="svg_112"/>
  <polyline clip-path="url(#clip940)" fill="none" id="svg_113" points="1537.53,212.015 2667.6,212.015 2667.6,108.335 1537.53,108.335 1537.53,212.015 " stroke="#000000" stroke-linecap="round" stroke-linejoin="round" stroke-width="4" transform="matrix(1 0 0 1 0 0)"/>
  <polyline clip-path="url(#clip940)" fill="none" id="svg_114" points="1565.92,160.175 1736.24,160.175 " stroke="#009af9" stroke-linecap="round" stroke-linejoin="round" stroke-width="4"/>
  <path clip-path="url(#clip940)" d="m1764.63,142.9l21.85,0l0,3.93l-17.17,0l0,10.23l16.45,0l0,3.94l-16.45,0l0,12.52l17.59,0l0,3.94l-22.27,0l0,-34.56z" fill="#000000" fill-rule="nonzero" id="svg_115"/>
  <path clip-path="url(#clip940)" d="m1810.93,152.29l0,4.03q-1.81,-0.92 -3.75,-1.39q-1.95,-0.46 -4.03,-0.46q-3.17,0 -4.77,0.97q-1.57,0.97 -1.57,2.92q0,1.48 1.13,2.34q1.13,0.83 4.56,1.59l1.46,0.33q4.54,0.97 6.43,2.75q1.92,1.76 1.92,4.93q0,3.61 -2.87,5.72q-2.84,2.11 -7.84,2.11q-2.09,0 -4.35,-0.42q-2.25,-0.39 -4.75,-1.2l0,-4.4q2.36,1.23 4.65,1.85q2.29,0.6 4.54,0.6q3.01,0 4.63,-1.02q1.62,-1.04 1.62,-2.91q0,-1.74 -1.18,-2.66q-1.16,-0.93 -5.12,-1.79l-1.48,-0.34q-3.96,-0.84 -5.72,-2.55q-1.75,-1.74 -1.75,-4.75q0,-3.65 2.59,-5.64q2.59,-2 7.36,-2q2.36,0 4.44,0.35q2.09,0.35 3.85,1.04z" fill="#000000" fill-rule="nonzero" id="svg_116"/>
  <path clip-path="url(#clip940)" d="m1823.31,144.17l0,7.36l8.77,0l0,3.31l-8.77,0l0,14.07q0,3.18 0.86,4.08q0.88,0.9 3.54,0.9l4.37,0l0,3.57l-4.37,0q-4.93,0 -6.81,-1.83q-1.87,-1.85 -1.87,-6.72l0,-14.07l-3.13,0l0,-3.31l3.13,0l0,-7.36l4.28,0z" fill="#000000" fill-rule="nonzero" id="svg_117"/>
  <path clip-path="url(#clip940)" d="m1837.68,151.53l4.26,0l0,25.93l-4.26,0l0,-25.93m0,-10.09l4.26,0l0,5.39l-4.26,0l0,-5.39z" fill="#000000" fill-rule="nonzero" id="svg_118"/>
  <path clip-path="url(#clip940)" d="m1871.04,156.51q1.6,-2.87 3.82,-4.24q2.22,-1.37 5.23,-1.37q4.05,0 6.25,2.85q2.2,2.83 2.2,8.06l0,15.65l-4.28,0l0,-15.51q0,-3.73 -1.32,-5.54q-1.32,-1.8 -4.03,-1.8q-3.31,0 -5.23,2.2q-1.92,2.2 -1.92,5.99l0,14.66l-4.28,0l0,-15.51q0,-3.75 -1.32,-5.54q-1.32,-1.8 -4.08,-1.8q-3.26,0 -5.18,2.22q-1.92,2.2 -1.92,5.97l0,14.66l-4.29,0l0,-25.93l4.29,0l0,4.03q1.45,-2.39 3.49,-3.52q2.04,-1.14 4.84,-1.14q2.82,0 4.79,1.44q1.99,1.44 2.94,4.17z" fill="#000000" fill-rule="nonzero" id="svg_119"/>
  <path clip-path="url(#clip940)" d="m1908.82,164.42q-5.16,0 -7.15,1.18q-1.99,1.18 -1.99,4.03q0,2.27 1.48,3.61q1.5,1.32 4.07,1.32q3.54,0 5.67,-2.5q2.15,-2.52 2.15,-6.69l0,-0.95l-4.23,0m8.49,-1.76l0,14.8l-4.26,0l0,-3.94q-1.45,2.36 -3.63,3.49q-2.18,1.12 -5.32,1.12q-3.98,0 -6.35,-2.23q-2.33,-2.24 -2.33,-5.99q0,-4.38 2.91,-6.6q2.94,-2.22 8.75,-2.22l5.97,0l0,-0.42q0,-2.94 -1.94,-4.53q-1.92,-1.62 -5.42,-1.62q-2.22,0 -4.32,0.53q-2.11,0.53 -4.06,1.6l0,-3.94q2.34,-0.9 4.54,-1.34q2.2,-0.47 4.28,-0.47q5.63,0 8.41,2.92q2.77,2.92 2.77,8.84z" fill="#000000" fill-rule="nonzero" id="svg_120"/>
  <path clip-path="url(#clip940)" d="m1930.3,144.17l0,7.36l8.77,0l0,3.31l-8.77,0l0,14.07q0,3.18 0.86,4.08q0.88,0.9 3.54,0.9l4.37,0l0,3.57l-4.37,0q-4.93,0 -6.81,-1.83q-1.87,-1.85 -1.87,-6.72l0,-14.07l-3.13,0l0,-3.31l3.13,0l0,-7.36l4.28,0z" fill="#000000" fill-rule="nonzero" id="svg_121"/>
  <path clip-path="url(#clip940)" d="m1966.85,163.43l0,2.08l-19.58,0q0.28,4.4 2.64,6.71q2.38,2.29 6.62,2.29q2.45,0 4.74,-0.6q2.32,-0.6 4.59,-1.8l0,4.03q-2.3,0.97 -4.7,1.48q-2.41,0.51 -4.89,0.51q-6.2,0 -9.84,-3.62q-3.61,-3.61 -3.61,-9.76q0,-6.37 3.43,-10.1q3.45,-3.75 9.28,-3.75q5.23,0 8.27,3.38q3.05,3.36 3.05,9.15m-4.26,-1.25q-0.04,-3.5 -1.97,-5.58q-1.89,-2.08 -5.04,-2.08q-3.57,0 -5.72,2.01q-2.13,2.01 -2.45,5.67l15.18,-0.02z" fill="#000000" fill-rule="nonzero" id="svg_122"/>
  <path clip-path="url(#clip940)" d="m1990.9,155.47l0,-14.03l4.26,0l0,36.02l-4.26,0l0,-3.89q-1.34,2.31 -3.4,3.44q-2.04,1.12 -4.91,1.12q-4.7,0 -7.66,-3.75q-2.94,-3.75 -2.94,-9.86q0,-6.12 2.94,-9.87q2.96,-3.75 7.66,-3.75q2.87,0 4.91,1.14q2.06,1.11 3.4,3.43m-14.51,9.05q0,4.7 1.92,7.38q1.94,2.66 5.32,2.66q3.38,0 5.33,-2.66q1.94,-2.68 1.94,-7.38q0,-4.7 -1.94,-7.37q-1.95,-2.68 -5.33,-2.68q-3.38,0 -5.32,2.68q-1.92,2.67 -1.92,7.37z" fill="#000000" fill-rule="nonzero" id="svg_123"/>
  <path clip-path="url(#clip940)" d="m2023.22,144.17l0,7.36l8.77,0l0,3.31l-8.77,0l0,14.07q0,3.18 0.85,4.08q0.88,0.9 3.54,0.9l4.38,0l0,3.57l-4.38,0q-4.93,0 -6.8,-1.83q-1.88,-1.85 -1.88,-6.72l0,-14.07l-3.12,0l0,-3.31l3.12,0l0,-7.36l4.29,0z" fill="#000000" fill-rule="nonzero" id="svg_124"/>
  <path clip-path="url(#clip940)" d="m2037.59,151.53l4.26,0l0,25.93l-4.26,0l0,-25.93m0,-10.09l4.26,0l0,5.39l-4.26,0l0,-5.39z" fill="#000000" fill-rule="nonzero" id="svg_125"/>
  <path clip-path="url(#clip940)" d="m2070.95,156.51q1.59,-2.87 3.82,-4.24q2.22,-1.37 5.23,-1.37q4.05,0 6.25,2.85q2.2,2.83 2.2,8.06l0,15.65l-4.28,0l0,-15.51q0,-3.73 -1.32,-5.54q-1.32,-1.8 -4.03,-1.8q-3.31,0 -5.23,2.2q-1.92,2.2 -1.92,5.99l0,14.66l-4.29,0l0,-15.51q0,-3.75 -1.32,-5.54q-1.32,-1.8 -4.07,-1.8q-3.26,0 -5.19,2.22q-1.92,2.2 -1.92,5.97l0,14.66l-4.28,0l0,-25.93l4.28,0l0,4.03q1.46,-2.39 3.5,-3.52q2.04,-1.14 4.84,-1.14q2.82,0 4.79,1.44q1.99,1.44 2.94,4.17z" fill="#000000" fill-rule="nonzero" id="svg_126"/>
  <path clip-path="url(#clip940)" d="m2119.12,163.43l0,2.08l-19.58,0q0.27,4.4 2.63,6.71q2.39,2.29 6.62,2.29q2.46,0 4.75,-0.6q2.31,-0.6 4.58,-1.8l0,4.03q-2.29,0.97 -4.7,1.48q-2.4,0.51 -4.88,0.51q-6.2,0 -9.84,-3.62q-3.61,-3.61 -3.61,-9.76q0,-6.37 3.43,-10.1q3.45,-3.75 9.28,-3.75q5.23,0 8.26,3.38q3.06,3.36 3.06,9.15m-4.26,-1.25q-0.05,-3.5 -1.97,-5.58q-1.9,-2.08 -5.04,-2.08q-3.57,0 -5.72,2.01q-2.13,2.01 -2.46,5.67l15.19,-0.02z" fill="#000000" fill-rule="nonzero" id="svg_127"/>
  <path clip-path="url(#clip940)" d="m2123.96,162.57l12.47,0l0,3.8l-12.47,0l0,-3.8z" fill="#000000" fill-rule="nonzero" id="svg_128"/>
  <path clip-path="url(#clip940)" d="m2138.89,151.53l4.51,0l8.1,21.76l8.1,-21.76l4.52,0l-9.72,25.93l-5.79,0l-9.72,-25.93z" fill="#000000" fill-rule="nonzero" id="svg_129"/>
  <path clip-path="url(#clip940)" d="m2181.78,164.42q-5.16,0 -7.15,1.18q-1.99,1.18 -1.99,4.03q0,2.27 1.48,3.61q1.5,1.32 4.07,1.32q3.54,0 5.67,-2.5q2.16,-2.52 2.16,-6.69l0,-0.95l-4.24,0m8.5,-1.76l0,14.8l-4.26,0l0,-3.94q-1.46,2.36 -3.64,3.49q-2.17,1.12 -5.32,1.12q-3.98,0 -6.34,-2.23q-2.34,-2.24 -2.34,-5.99q0,-4.38 2.91,-6.6q2.94,-2.22 8.75,-2.22l5.98,0l0,-0.42q0,-2.94 -1.95,-4.53q-1.92,-1.62 -5.41,-1.62q-2.23,0 -4.33,0.53q-2.11,0.53 -4.05,1.6l0,-3.94q2.33,-0.9 4.53,-1.34q2.2,-0.47 4.29,-0.47q5.62,0 8.4,2.92q2.78,2.92 2.78,8.84z" fill="#000000" fill-rule="nonzero" id="svg_130"/>
  <path clip-path="url(#clip940)" d="m2214.07,155.51q-0.72,-0.42 -1.57,-0.6q-0.84,-0.21 -1.85,-0.21q-3.62,0 -5.56,2.36q-1.92,2.34 -1.92,6.74l0,13.66l-4.28,0l0,-25.93l4.28,0l0,4.03q1.34,-2.36 3.49,-3.5q2.16,-1.16 5.24,-1.16q0.44,0 0.97,0.07q0.53,0.05 1.18,0.17l0.02,4.37z" fill="#000000" fill-rule="nonzero" id="svg_131"/>
  <path clip-path="url(#clip940)" d="m2229.33,179.86q-1.81,4.63 -3.52,6.04q-1.72,1.42 -4.59,1.42l-3.4,0l0,-3.57l2.5,0q1.76,0 2.73,-0.83q0.98,-0.83 2.16,-3.94l0.76,-1.94l-10.49,-25.51l4.52,0l8.1,20.28l8.1,-20.28l4.52,0l-11.39,28.33z" fill="#000000" fill-rule="nonzero" id="svg_132"/>
  <path clip-path="url(#clip940)" d="m2246.59,151.53l4.26,0l0,25.93l-4.26,0l0,-25.93m0,-10.09l4.26,0l0,5.39l-4.26,0l0,-5.39z" fill="#000000" fill-rule="nonzero" id="svg_133"/>
  <path clip-path="url(#clip940)" d="m2281.32,161.81l0,15.65l-4.26,0l0,-15.51q0,-3.68 -1.44,-5.51q-1.43,-1.83 -4.3,-1.83q-3.45,0 -5.44,2.2q-1.99,2.2 -1.99,5.99l0,14.66l-4.29,0l0,-25.93l4.29,0l0,4.03q1.52,-2.34 3.58,-3.5q2.09,-1.16 4.8,-1.16q4.46,0 6.76,2.78q2.29,2.76 2.29,8.13z" fill="#000000" fill-rule="nonzero" id="svg_134"/>
  <path clip-path="url(#clip940)" d="m2306.87,164.19q0,-4.63 -1.92,-7.17q-1.9,-2.55 -5.35,-2.55q-3.42,0 -5.34,2.55q-1.9,2.54 -1.9,7.17q0,4.61 1.9,7.15q1.92,2.55 5.34,2.55q3.45,0 5.35,-2.55q1.92,-2.54 1.92,-7.15m4.26,10.05q0,6.62 -2.94,9.84q-2.94,3.24 -9,3.24q-2.25,0 -4.24,-0.35q-1.99,-0.32 -3.86,-1.02l0,-4.14q1.87,1.02 3.7,1.5q1.83,0.49 3.73,0.49q4.19,0 6.27,-2.2q2.08,-2.18 2.08,-6.6l0,-2.1q-1.32,2.29 -3.38,3.42q-2.06,1.14 -4.93,1.14q-4.77,0 -7.68,-3.64q-2.92,-3.63 -2.92,-9.63q0,-6.02 2.92,-9.65q2.91,-3.64 7.68,-3.64q2.87,0 4.93,1.14q2.06,1.13 3.38,3.43l0,-3.94l4.26,0l0,22.71z" fill="#000000" fill-rule="nonzero" id="svg_135"/>
  <path clip-path="url(#clip940)" d="m2346.71,147.5l-6.34,17.2l12.71,0l-6.37,-17.2m-2.64,-4.6l5.3,0l13.17,34.56l-4.86,0l-3.15,-8.87l-15.57,0l-3.15,8.87l-4.93,0l13.19,-34.56z" fill="#000000" fill-rule="nonzero" id="svg_136"/>
  <path clip-path="url(#clip940)" d="m2435.51,152.29l0,4.03q-1.81,-0.92 -3.75,-1.39q-1.95,-0.46 -4.03,-0.46q-3.17,0 -4.77,0.97q-1.57,0.97 -1.57,2.92q0,1.48 1.13,2.34q1.13,0.83 4.56,1.59l1.46,0.33q4.54,0.97 6.43,2.75q1.92,1.76 1.92,4.93q0,3.61 -2.87,5.72q-2.84,2.11 -7.84,2.11q-2.09,0 -4.35,-0.42q-2.25,-0.39 -4.75,-1.2l0,-4.4q2.36,1.23 4.65,1.85q2.29,0.6 4.54,0.6q3.01,0 4.63,-1.02q1.62,-1.04 1.62,-2.91q0,-1.74 -1.18,-2.66q-1.16,-0.93 -5.12,-1.79l-1.48,-0.34q-3.96,-0.84 -5.72,-2.55q-1.75,-1.74 -1.75,-4.75q0,-3.65 2.59,-5.64q2.59,-2 7.36,-2q2.36,0 4.44,0.35q2.09,0.35 3.85,1.04z" fill="#000000" fill-rule="nonzero" id="svg_138"/>
  <path clip-path="url(#clip940)" d="m2443.51,141.44l4.29,0l0,21.27l12.71,-11.18l5.44,0l-13.75,12.13l14.32,13.8l-5.55,0l-13.17,-12.67l0,12.67l-4.29,0l0,-36.02z" fill="#000000" fill-rule="nonzero" id="svg_139"/>
  <path clip-path="url(#clip940)" d="m2491.62,163.43l0,2.08l-19.59,0q0.28,4.4 2.64,6.71q2.39,2.29 6.62,2.29q2.46,0 4.75,-0.6q2.31,-0.6 4.58,-1.8l0,4.03q-2.29,0.97 -4.7,1.48q-2.41,0.51 -4.88,0.51q-6.21,0 -9.84,-3.62q-3.61,-3.61 -3.61,-9.76q0,-6.37 3.42,-10.1q3.45,-3.75 9.29,-3.75q5.23,0 8.26,3.38q3.06,3.36 3.06,9.15m-4.26,-1.25q-0.05,-3.5 -1.97,-5.58q-1.9,-2.08 -5.05,-2.08q-3.56,0 -5.71,2.01q-2.13,2.01 -2.46,5.67l15.19,-0.02z" fill="#000000" fill-rule="nonzero" id="svg_140"/>
  <path clip-path="url(#clip940)" d="m2496.13,151.53l4.26,0l5.32,20.23l5.3,-20.23l5.03,0l5.32,20.23l5.3,-20.23l4.26,0l-6.78,25.93l-5.02,0l-5.58,-21.25l-5.6,21.25l-5.03,0l-6.78,-25.93z" fill="#000000" fill-rule="nonzero" id="svg_141"/>
  <path clip-path="url(#clip940)" d="m2558.93,161.81l0,15.65l-4.26,0l0,-15.51q0,-3.68 -1.43,-5.51q-1.44,-1.83 -4.31,-1.83q-3.45,0 -5.44,2.2q-1.99,2.2 -1.99,5.99l0,14.66l-4.28,0l0,-25.93l4.28,0l0,4.03q1.53,-2.34 3.59,-3.5q2.08,-1.16 4.79,-1.16q4.47,0 6.76,2.78q2.29,2.76 2.29,8.13z" fill="#000000" fill-rule="nonzero" id="svg_142"/>
  <path clip-path="url(#clip940)" d="m2589.6,163.43l0,2.08l-19.58,0q0.28,4.4 2.64,6.71q2.38,2.29 6.62,2.29q2.45,0 4.74,-0.6q2.32,-0.6 4.59,-1.8l0,4.03q-2.29,0.97 -4.7,1.48q-2.41,0.51 -4.89,0.51q-6.2,0 -9.83,-3.62q-3.62,-3.61 -3.62,-9.76q0,-6.37 3.43,-10.1q3.45,-3.75 9.28,-3.75q5.23,0 8.27,3.38q3.05,3.36 3.05,9.15m-4.26,-1.25q-0.04,-3.5 -1.96,-5.58q-1.9,-2.08 -5.05,-2.08q-3.57,0 -5.72,2.01q-2.13,2.01 -2.45,5.67l15.18,-0.02z" fill="#000000" fill-rule="nonzero" id="svg_143"/>
  <path clip-path="url(#clip940)" d="m2613.12,152.29l0,4.03q-1.81,-0.92 -3.75,-1.39q-1.94,-0.46 -4.03,-0.46q-3.17,0 -4.77,0.97q-1.57,0.97 -1.57,2.92q0,1.48 1.13,2.34q1.14,0.83 4.56,1.59l1.46,0.33q4.54,0.97 6.44,2.75q1.92,1.76 1.92,4.93q0,3.61 -2.87,5.72q-2.85,2.11 -7.85,2.11q-2.08,0 -4.35,-0.42q-2.25,-0.39 -4.75,-1.2l0,-4.4q2.37,1.23 4.66,1.85q2.29,0.6 4.53,0.6q3.01,0 4.63,-1.02q1.62,-1.04 1.62,-2.91q0,-1.74 -1.18,-2.66q-1.15,-0.93 -5.11,-1.79l-1.48,-0.34q-3.96,-0.84 -5.72,-2.55q-1.76,-1.74 -1.76,-4.75q0,-3.65 2.59,-5.64q2.6,-2 7.36,-2q2.36,0 4.45,0.35q2.08,0.35 3.84,1.04z" fill="#000000" fill-rule="nonzero" id="svg_144" transform="matrix(1 0 0 1 0 0)"/>
  <path clip-path="url(#clip940)" d="m2637.82,152.29l0,4.03q-1.81,-0.92 -3.75,-1.39q-1.94,-0.46 -4.03,-0.46q-3.17,0 -4.77,0.97q-1.57,0.97 -1.57,2.92q0,1.48 1.13,2.34q1.14,0.83 4.56,1.59l1.46,0.33q4.54,0.97 6.44,2.75q1.92,1.76 1.92,4.93q0,3.61 -2.87,5.72q-2.85,2.11 -7.85,2.11q-2.08,0 -4.35,-0.42q-2.25,-0.39 -4.75,-1.2l0,-4.4q2.36,1.23 4.66,1.85q2.29,0.6 4.53,0.6q3.01,0 4.63,-1.02q1.62,-1.04 1.62,-2.91q0,-1.74 -1.18,-2.66q-1.15,-0.93 -5.11,-1.79l-1.48,-0.34q-3.96,-0.84 -5.72,-2.55q-1.76,-1.74 -1.76,-4.75q0,-3.65 2.59,-5.64q2.59,-2 7.36,-2q2.36,0 4.45,0.35q2.08,0.35 3.84,1.04z" fill="#000000" fill-rule="nonzero" id="svg_145"/>
  <path clip-path="url(#clip940)" d="m2386.07,144.2l0,5.21q-2.08,-1.19 -4.32,-1.8q-2.23,-0.6 -4.64,-0.6q-3.65,0 -5.49,1.25q-1.81,1.25 -1.81,3.78q0,1.91 1.3,3.03q1.31,1.07 5.25,2.06l1.68,0.43q5.23,1.25 7.41,3.56q2.21,2.28 2.21,6.38q0,4.67 -3.3,7.4q-3.28,2.73 -9.04,2.73q-2.39,0 -5.01,-0.54q-2.59,-0.5 -5.47,-1.55l0,-5.69q2.73,1.59 5.37,2.39q2.64,0.78 5.22,0.78q3.47,0 5.33,-1.32q1.87,-1.35 1.87,-3.76q0,-2.25 -1.36,-3.44q-1.32,-1.2 -5.88,-2.32l-1.7,-0.44q-4.56,-1.09 -6.59,-3.3q-2.03,-2.25 -2.03,-6.15q0,-4.72 2.98,-7.3q2.99,-2.59 8.47,-2.59q2.72,0 5.12,0.45q2.39,0.45 4.42,1.35z" fill="#000000" fill-rule="nonzero" id="svg_146"/>
 </g>
</svg>