<svg xmlns="http://www.w3.org/2000/svg" xmlns:xlink="http://www.w3.org/1999/xlink" width="700" height="500" viewBox="0 0 2800 2000">
<defs>
  <clipPath id="clip940">
    <rect x="0" y="0" width="2800" height="2000"></rect>
  </clipPath>
</defs>
<path clip-path="url(#clip940)" d="M0 2000 L2800 2000 L2800 0 L0 0  Z" fill="#ffffff" fill-rule="evenodd" fill-opacity="1"></path>
<defs>
  <clipPath id="clip941">
    <rect x="560" y="0" width="1961" height="1961"></rect>
  </clipPath>
</defs>
<path clip-path="url(#clip940)" d="M197.936 1879.98 L2752.76 1879.98 L2752.76 47.2441 L197.936 47.2441  Z" fill="#ffffff" fill-rule="evenodd" fill-opacity="1"></path>
<defs>
  <clipPath id="clip942">
    <rect x="197" y="47" width="2556" height="1834"></rect>
  </clipPath>
</defs>
<polyline clip-path="url(#clip942)" style="stroke:#000000; stroke-linecap:round; stroke-linejoin:round; stroke-width:2; stroke-opacity:0.1; fill:none" points="242.465,1879.98 242.465,47.2441 "></polyline>
<polyline clip-path="url(#clip942)" style="stroke:#000000; stroke-linecap:round; stroke-linejoin:round; stroke-width:2; stroke-opacity:0.1; fill:none" points="466.681,1879.98 466.681,47.2441 "></polyline>
<polyline clip-path="url(#clip942)" style="stroke:#000000; stroke-linecap:round; stroke-linejoin:round; stroke-width:2; stroke-opacity:0.1; fill:none" points="690.897,1879.98 690.897,47.2441 "></polyline>
<polyline clip-path="url(#clip942)" style="stroke:#000000; stroke-linecap:round; stroke-linejoin:round; stroke-width:2; stroke-opacity:0.1; fill:none" points="915.113,1879.98 915.113,47.2441 "></polyline>
<polyline clip-path="url(#clip942)" style="stroke:#000000; stroke-linecap:round; stroke-linejoin:round; stroke-width:2; stroke-opacity:0.1; fill:none" points="1139.33,1879.98 1139.33,47.2441 "></polyline>
<polyline clip-path="url(#clip942)" style="stroke:#000000; stroke-linecap:round; stroke-linejoin:round; stroke-width:2; stroke-opacity:0.1; fill:none" points="1363.54,1879.98 1363.54,47.2441 "></polyline>
<polyline clip-path="url(#clip942)" style="stroke:#000000; stroke-linecap:round; stroke-linejoin:round; stroke-width:2; stroke-opacity:0.1; fill:none" points="1587.76,1879.98 1587.76,47.2441 "></polyline>
<polyline clip-path="url(#clip942)" style="stroke:#000000; stroke-linecap:round; stroke-linejoin:round; stroke-width:2; stroke-opacity:0.1; fill:none" points="1811.98,1879.98 1811.98,47.2441 "></polyline>
<polyline clip-path="url(#clip942)" style="stroke:#000000; stroke-linecap:round; stroke-linejoin:round; stroke-width:2; stroke-opacity:0.1; fill:none" points="2036.19,1879.98 2036.19,47.2441 "></polyline>
<polyline clip-path="url(#clip942)" style="stroke:#000000; stroke-linecap:round; stroke-linejoin:round; stroke-width:2; stroke-opacity:0.1; fill:none" points="2260.41,1879.98 2260.41,47.2441 "></polyline>
<polyline clip-path="url(#clip942)" style="stroke:#000000; stroke-linecap:round; stroke-linejoin:round; stroke-width:2; stroke-opacity:0.1; fill:none" points="2484.63,1879.98 2484.63,47.2441 "></polyline>
<polyline clip-path="url(#clip942)" style="stroke:#000000; stroke-linecap:round; stroke-linejoin:round; stroke-width:2; stroke-opacity:0.1; fill:none" points="2708.84,1879.98 2708.84,47.2441 "></polyline>
<polyline clip-path="url(#clip940)" style="stroke:#000000; stroke-linecap:round; stroke-linejoin:round; stroke-width:4; stroke-opacity:1; fill:none" points="197.936,1879.98 2752.76,1879.98 "></polyline>
<polyline clip-path="url(#clip940)" style="stroke:#000000; stroke-linecap:round; stroke-linejoin:round; stroke-width:4; stroke-opacity:1; fill:none" points="197.936,47.2441 2752.76,47.2441 "></polyline>
<polyline clip-path="url(#clip940)" style="stroke:#000000; stroke-linecap:round; stroke-linejoin:round; stroke-width:4; stroke-opacity:1; fill:none" points="242.465,1879.98 242.465,1861.08 "></polyline>
<polyline clip-path="url(#clip940)" style="stroke:#000000; stroke-linecap:round; stroke-linejoin:round; stroke-width:4; stroke-opacity:1; fill:none" points="466.681,1879.98 466.681,1861.08 "></polyline>
<polyline clip-path="url(#clip940)" style="stroke:#000000; stroke-linecap:round; stroke-linejoin:round; stroke-width:4; stroke-opacity:1; fill:none" points="690.897,1879.98 690.897,1861.08 "></polyline>
<polyline clip-path="url(#clip940)" style="stroke:#000000; stroke-linecap:round; stroke-linejoin:round; stroke-width:4; stroke-opacity:1; fill:none" points="915.113,1879.98 915.113,1861.08 "></polyline>
<polyline clip-path="url(#clip940)" style="stroke:#000000; stroke-linecap:round; stroke-linejoin:round; stroke-width:4; stroke-opacity:1; fill:none" points="1139.33,1879.98 1139.33,1861.08 "></polyline>
<polyline clip-path="url(#clip940)" style="stroke:#000000; stroke-linecap:round; stroke-linejoin:round; stroke-width:4; stroke-opacity:1; fill:none" points="1363.54,1879.98 1363.54,1861.08 "></polyline>
<polyline clip-path="url(#clip940)" style="stroke:#000000; stroke-linecap:round; stroke-linejoin:round; stroke-width:4; stroke-opacity:1; fill:none" points="1587.76,1879.98 1587.76,1861.08 "></polyline>
<polyline clip-path="url(#clip940)" style="stroke:#000000; stroke-linecap:round; stroke-linejoin:round; stroke-width:4; stroke-opacity:1; fill:none" points="1811.98,1879.98 1811.98,1861.08 "></polyline>
<polyline clip-path="url(#clip940)" style="stroke:#000000; stroke-linecap:round; stroke-linejoin:round; stroke-width:4; stroke-opacity:1; fill:none" points="2036.19,1879.98 2036.19,1861.08 "></polyline>
<polyline clip-path="url(#clip940)" style="stroke:#000000; stroke-linecap:round; stroke-linejoin:round; stroke-width:4; stroke-opacity:1; fill:none" points="2260.41,1879.98 2260.41,1861.08 "></polyline>
<polyline clip-path="url(#clip940)" style="stroke:#000000; stroke-linecap:round; stroke-linejoin:round; stroke-width:4; stroke-opacity:1; fill:none" points="2484.63,1879.98 2484.63,1861.08 "></polyline>
<polyline clip-path="url(#clip940)" style="stroke:#000000; stroke-linecap:round; stroke-linejoin:round; stroke-width:4; stroke-opacity:1; fill:none" points="2708.84,1879.98 2708.84,1861.08 "></polyline>
<path clip-path="url(#clip940)" d="M186.99 1941.64 L194.629 1941.64 L194.629 1915.28 L186.319 1916.95 L186.319 1912.69 L194.583 1911.02 L199.259 1911.02 L199.259 1941.64 L206.898 1941.64 L206.898 1945.58 L186.99 1945.58 L186.99 1941.64 Z" fill="#000000" fill-rule="nonzero" fill-opacity="1"></path><path clip-path="url(#clip940)" d="M216.481 1944.86 L216.481 1940.6 Q218.24 1941.44 220.046 1941.88 Q221.851 1942.32 223.587 1942.32 Q228.217 1942.32 230.648 1939.21 Q233.101 1936.09 233.448 1929.75 Q232.106 1931.74 230.046 1932.8 Q227.986 1933.87 225.486 1933.87 Q220.3 1933.87 217.268 1930.74 Q214.259 1927.59 214.259 1922.15 Q214.259 1916.83 217.407 1913.61 Q220.555 1910.39 225.786 1910.39 Q231.782 1910.39 234.93 1915 Q238.101 1919.58 238.101 1928.33 Q238.101 1936.51 234.212 1941.39 Q230.347 1946.25 223.796 1946.25 Q222.036 1946.25 220.231 1945.9 Q218.425 1945.56 216.481 1944.86 M225.786 1930.21 Q228.935 1930.21 230.763 1928.06 Q232.615 1925.9 232.615 1922.15 Q232.615 1918.43 230.763 1916.27 Q228.935 1914.1 225.786 1914.1 Q222.638 1914.1 220.786 1916.27 Q218.958 1918.43 218.958 1922.15 Q218.958 1925.9 220.786 1928.06 Q222.638 1930.21 225.786 1930.21 Z" fill="#000000" fill-rule="nonzero" fill-opacity="1"></path><path clip-path="url(#clip940)" d="M256.504 1929.17 Q253.171 1929.17 251.249 1930.95 Q249.351 1932.73 249.351 1935.86 Q249.351 1938.98 251.249 1940.76 Q253.171 1942.55 256.504 1942.55 Q259.837 1942.55 261.758 1940.76 Q263.68 1938.96 263.68 1935.86 Q263.68 1932.73 261.758 1930.95 Q259.86 1929.17 256.504 1929.17 M251.828 1927.18 Q248.819 1926.44 247.129 1924.38 Q245.462 1922.32 245.462 1919.35 Q245.462 1915.21 248.402 1912.8 Q251.365 1910.39 256.504 1910.39 Q261.666 1910.39 264.606 1912.8 Q267.545 1915.21 267.545 1919.35 Q267.545 1922.32 265.856 1924.38 Q264.189 1926.44 261.203 1927.18 Q264.583 1927.96 266.458 1930.26 Q268.356 1932.55 268.356 1935.86 Q268.356 1940.88 265.277 1943.57 Q262.221 1946.25 256.504 1946.25 Q250.786 1946.25 247.708 1943.57 Q244.652 1940.88 244.652 1935.86 Q244.652 1932.55 246.55 1930.26 Q248.448 1927.96 251.828 1927.18 M250.115 1919.79 Q250.115 1922.48 251.782 1923.98 Q253.471 1925.49 256.504 1925.49 Q259.513 1925.49 261.203 1923.98 Q262.916 1922.48 262.916 1919.79 Q262.916 1917.11 261.203 1915.6 Q259.513 1914.1 256.504 1914.1 Q253.471 1914.1 251.782 1915.6 Q250.115 1917.11 250.115 1919.79 Z" fill="#000000" fill-rule="nonzero" fill-opacity="1"></path><path clip-path="url(#clip940)" d="M286.666 1914.1 Q283.055 1914.1 281.226 1917.66 Q279.42 1921.2 279.42 1928.33 Q279.42 1935.44 281.226 1939.01 Q283.055 1942.55 286.666 1942.55 Q290.3 1942.55 292.106 1939.01 Q293.934 1935.44 293.934 1928.33 Q293.934 1921.2 292.106 1917.66 Q290.3 1914.1 286.666 1914.1 M286.666 1910.39 Q292.476 1910.39 295.531 1915 Q298.61 1919.58 298.61 1928.33 Q298.61 1937.06 295.531 1941.67 Q292.476 1946.25 286.666 1946.25 Q280.856 1946.25 277.777 1941.67 Q274.721 1937.06 274.721 1928.33 Q274.721 1919.58 277.777 1915 Q280.856 1910.39 286.666 1910.39 Z" fill="#000000" fill-rule="nonzero" fill-opacity="1"></path><path clip-path="url(#clip940)" d="M410.963 1941.64 L418.602 1941.64 L418.602 1915.28 L410.292 1916.95 L410.292 1912.69 L418.556 1911.02 L423.232 1911.02 L423.232 1941.64 L430.871 1941.64 L430.871 1945.58 L410.963 1945.58 L410.963 1941.64 Z" fill="#000000" fill-rule="nonzero" fill-opacity="1"></path><path clip-path="url(#clip940)" d="M440.454 1944.86 L440.454 1940.6 Q442.213 1941.44 444.019 1941.88 Q445.824 1942.32 447.56 1942.32 Q452.19 1942.32 454.621 1939.21 Q457.074 1936.09 457.421 1929.75 Q456.079 1931.74 454.019 1932.8 Q451.959 1933.87 449.459 1933.87 Q444.273 1933.87 441.241 1930.74 Q438.232 1927.59 438.232 1922.15 Q438.232 1916.83 441.38 1913.61 Q444.528 1910.39 449.759 1910.39 Q455.755 1910.39 458.903 1915 Q462.074 1919.58 462.074 1928.33 Q462.074 1936.51 458.185 1941.39 Q454.32 1946.25 447.769 1946.25 Q446.009 1946.25 444.204 1945.9 Q442.398 1945.56 440.454 1944.86 M449.759 1930.21 Q452.908 1930.21 454.736 1928.06 Q456.588 1925.9 456.588 1922.15 Q456.588 1918.43 454.736 1916.27 Q452.908 1914.1 449.759 1914.1 Q446.611 1914.1 444.759 1916.27 Q442.931 1918.43 442.931 1922.15 Q442.931 1925.9 444.759 1928.06 Q446.611 1930.21 449.759 1930.21 Z" fill="#000000" fill-rule="nonzero" fill-opacity="1"></path><path clip-path="url(#clip940)" d="M480.477 1929.17 Q477.144 1929.17 475.222 1930.95 Q473.324 1932.73 473.324 1935.86 Q473.324 1938.98 475.222 1940.76 Q477.144 1942.55 480.477 1942.55 Q483.81 1942.55 485.731 1940.76 Q487.653 1938.96 487.653 1935.86 Q487.653 1932.73 485.731 1930.95 Q483.833 1929.17 480.477 1929.17 M475.801 1927.18 Q472.792 1926.44 471.102 1924.38 Q469.435 1922.32 469.435 1919.35 Q469.435 1915.21 472.375 1912.8 Q475.338 1910.39 480.477 1910.39 Q485.639 1910.39 488.579 1912.8 Q491.518 1915.21 491.518 1919.35 Q491.518 1922.32 489.829 1924.38 Q488.162 1926.44 485.176 1927.18 Q488.556 1927.96 490.431 1930.26 Q492.329 1932.55 492.329 1935.86 Q492.329 1940.88 489.25 1943.57 Q486.194 1946.25 480.477 1946.25 Q474.759 1946.25 471.681 1943.57 Q468.625 1940.88 468.625 1935.86 Q468.625 1932.55 470.523 1930.26 Q472.421 1927.96 475.801 1927.18 M474.088 1919.79 Q474.088 1922.48 475.755 1923.98 Q477.444 1925.49 480.477 1925.49 Q483.486 1925.49 485.176 1923.98 Q486.889 1922.48 486.889 1919.79 Q486.889 1917.11 485.176 1915.6 Q483.486 1914.1 480.477 1914.1 Q477.444 1914.1 475.755 1915.6 Q474.088 1917.11 474.088 1919.79 Z" fill="#000000" fill-rule="nonzero" fill-opacity="1"></path><path clip-path="url(#clip940)" d="M513.486 1915.09 L501.68 1933.54 L513.486 1933.54 L513.486 1915.09 M512.259 1911.02 L518.139 1911.02 L518.139 1933.54 L523.069 1933.54 L523.069 1937.43 L518.139 1937.43 L518.139 1945.58 L513.486 1945.58 L513.486 1937.43 L497.884 1937.43 L497.884 1932.92 L512.259 1911.02 Z" fill="#000000" fill-rule="nonzero" fill-opacity="1"></path><path clip-path="url(#clip940)" d="M635.469 1941.64 L643.108 1941.64 L643.108 1915.28 L634.797 1916.95 L634.797 1912.69 L643.061 1911.02 L647.737 1911.02 L647.737 1941.64 L655.376 1941.64 L655.376 1945.58 L635.469 1945.58 L635.469 1941.64 Z" fill="#000000" fill-rule="nonzero" fill-opacity="1"></path><path clip-path="url(#clip940)" d="M664.959 1944.86 L664.959 1940.6 Q666.719 1941.44 668.524 1941.88 Q670.33 1942.32 672.066 1942.32 Q676.695 1942.32 679.126 1939.21 Q681.58 1936.09 681.927 1929.75 Q680.584 1931.74 678.524 1932.8 Q676.464 1933.87 673.964 1933.87 Q668.779 1933.87 665.746 1930.74 Q662.737 1927.59 662.737 1922.15 Q662.737 1916.83 665.885 1913.61 Q669.033 1910.39 674.265 1910.39 Q680.26 1910.39 683.408 1915 Q686.58 1919.58 686.58 1928.33 Q686.58 1936.51 682.691 1941.39 Q678.825 1946.25 672.274 1946.25 Q670.515 1946.25 668.709 1945.9 Q666.904 1945.56 664.959 1944.86 M674.265 1930.21 Q677.413 1930.21 679.242 1928.06 Q681.094 1925.9 681.094 1922.15 Q681.094 1918.43 679.242 1916.27 Q677.413 1914.1 674.265 1914.1 Q671.117 1914.1 669.265 1916.27 Q667.436 1918.43 667.436 1922.15 Q667.436 1925.9 669.265 1928.06 Q671.117 1930.21 674.265 1930.21 Z" fill="#000000" fill-rule="nonzero" fill-opacity="1"></path><path clip-path="url(#clip940)" d="M704.982 1929.17 Q701.649 1929.17 699.728 1930.95 Q697.83 1932.73 697.83 1935.86 Q697.83 1938.98 699.728 1940.76 Q701.649 1942.55 704.982 1942.55 Q708.316 1942.55 710.237 1940.76 Q712.158 1938.96 712.158 1935.86 Q712.158 1932.73 710.237 1930.95 Q708.339 1929.17 704.982 1929.17 M700.306 1927.18 Q697.297 1926.44 695.607 1924.38 Q693.941 1922.32 693.941 1919.35 Q693.941 1915.21 696.88 1912.8 Q699.843 1910.39 704.982 1910.39 Q710.144 1910.39 713.084 1912.8 Q716.024 1915.21 716.024 1919.35 Q716.024 1922.32 714.334 1924.38 Q712.667 1926.44 709.681 1927.18 Q713.061 1927.96 714.936 1930.26 Q716.834 1932.55 716.834 1935.86 Q716.834 1940.88 713.755 1943.57 Q710.7 1946.25 704.982 1946.25 Q699.265 1946.25 696.186 1943.57 Q693.13 1940.88 693.13 1935.86 Q693.13 1932.55 695.029 1930.26 Q696.927 1927.96 700.306 1927.18 M698.593 1919.79 Q698.593 1922.48 700.26 1923.98 Q701.95 1925.49 704.982 1925.49 Q707.992 1925.49 709.681 1923.98 Q711.394 1922.48 711.394 1919.79 Q711.394 1917.11 709.681 1915.6 Q707.992 1914.1 704.982 1914.1 Q701.95 1914.1 700.26 1915.6 Q698.593 1917.11 698.593 1919.79 Z" fill="#000000" fill-rule="nonzero" fill-opacity="1"></path><path clip-path="url(#clip940)" d="M735.144 1929.17 Q731.811 1929.17 729.89 1930.95 Q727.991 1932.73 727.991 1935.86 Q727.991 1938.98 729.89 1940.76 Q731.811 1942.55 735.144 1942.55 Q738.477 1942.55 740.399 1940.76 Q742.32 1938.96 742.32 1935.86 Q742.32 1932.73 740.399 1930.95 Q738.501 1929.17 735.144 1929.17 M730.468 1927.18 Q727.459 1926.44 725.769 1924.38 Q724.103 1922.32 724.103 1919.35 Q724.103 1915.21 727.042 1912.8 Q730.005 1910.39 735.144 1910.39 Q740.306 1910.39 743.246 1912.8 Q746.186 1915.21 746.186 1919.35 Q746.186 1922.32 744.496 1924.38 Q742.829 1926.44 739.843 1927.18 Q743.223 1927.96 745.098 1930.26 Q746.996 1932.55 746.996 1935.86 Q746.996 1940.88 743.917 1943.57 Q740.862 1946.25 735.144 1946.25 Q729.427 1946.25 726.348 1943.57 Q723.292 1940.88 723.292 1935.86 Q723.292 1932.55 725.191 1930.26 Q727.089 1927.96 730.468 1927.18 M728.755 1919.79 Q728.755 1922.48 730.422 1923.98 Q732.112 1925.49 735.144 1925.49 Q738.153 1925.49 739.843 1923.98 Q741.556 1922.48 741.556 1919.79 Q741.556 1917.11 739.843 1915.6 Q738.153 1914.1 735.144 1914.1 Q732.112 1914.1 730.422 1915.6 Q728.755 1917.11 728.755 1919.79 Z" fill="#000000" fill-rule="nonzero" fill-opacity="1"></path><path clip-path="url(#clip940)" d="M860.437 1941.64 L868.076 1941.64 L868.076 1915.28 L859.766 1916.95 L859.766 1912.69 L868.03 1911.02 L872.706 1911.02 L872.706 1941.64 L880.344 1941.64 L880.344 1945.58 L860.437 1945.58 L860.437 1941.64 Z" fill="#000000" fill-rule="nonzero" fill-opacity="1"></path><path clip-path="url(#clip940)" d="M889.928 1944.86 L889.928 1940.6 Q891.687 1941.44 893.493 1941.88 Q895.298 1942.32 897.034 1942.32 Q901.664 1942.32 904.094 1939.21 Q906.548 1936.09 906.895 1929.75 Q905.553 1931.74 903.492 1932.8 Q901.432 1933.87 898.932 1933.87 Q893.747 1933.87 890.715 1930.74 Q887.705 1927.59 887.705 1922.15 Q887.705 1916.83 890.854 1913.61 Q894.002 1910.39 899.233 1910.39 Q905.229 1910.39 908.377 1915 Q911.548 1919.58 911.548 1928.33 Q911.548 1936.51 907.659 1941.39 Q903.793 1946.25 897.242 1946.25 Q895.483 1946.25 893.678 1945.9 Q891.872 1945.56 889.928 1944.86 M899.233 1930.21 Q902.381 1930.21 904.21 1928.06 Q906.062 1925.9 906.062 1922.15 Q906.062 1918.43 904.21 1916.27 Q902.381 1914.1 899.233 1914.1 Q896.085 1914.1 894.233 1916.27 Q892.405 1918.43 892.405 1922.15 Q892.405 1925.9 894.233 1928.06 Q896.085 1930.21 899.233 1930.21 Z" fill="#000000" fill-rule="nonzero" fill-opacity="1"></path><path clip-path="url(#clip940)" d="M920.09 1944.86 L920.09 1940.6 Q921.849 1941.44 923.654 1941.88 Q925.46 1942.32 927.196 1942.32 Q931.826 1942.32 934.256 1939.21 Q936.71 1936.09 937.057 1929.75 Q935.714 1931.74 933.654 1932.8 Q931.594 1933.87 929.094 1933.87 Q923.909 1933.87 920.877 1930.74 Q917.867 1927.59 917.867 1922.15 Q917.867 1916.83 921.016 1913.61 Q924.164 1910.39 929.395 1910.39 Q935.39 1910.39 938.539 1915 Q941.71 1919.58 941.71 1928.33 Q941.71 1936.51 937.821 1941.39 Q933.955 1946.25 927.404 1946.25 Q925.645 1946.25 923.84 1945.9 Q922.034 1945.56 920.09 1944.86 M929.395 1930.21 Q932.543 1930.21 934.372 1928.06 Q936.224 1925.9 936.224 1922.15 Q936.224 1918.43 934.372 1916.27 Q932.543 1914.1 929.395 1914.1 Q926.247 1914.1 924.395 1916.27 Q922.566 1918.43 922.566 1922.15 Q922.566 1925.9 924.395 1928.06 Q926.247 1930.21 929.395 1930.21 Z" fill="#000000" fill-rule="nonzero" fill-opacity="1"></path><path clip-path="url(#clip940)" d="M954.14 1941.64 L970.46 1941.64 L970.46 1945.58 L948.515 1945.58 L948.515 1941.64 Q951.177 1938.89 955.761 1934.26 Q960.367 1929.61 961.548 1928.26 Q963.793 1925.74 964.673 1924.01 Q965.575 1922.25 965.575 1920.56 Q965.575 1917.8 963.631 1916.07 Q961.71 1914.33 958.608 1914.33 Q956.409 1914.33 953.955 1915.09 Q951.525 1915.86 948.747 1917.41 L948.747 1912.69 Q951.571 1911.55 954.025 1910.97 Q956.478 1910.39 958.515 1910.39 Q963.886 1910.39 967.08 1913.08 Q970.274 1915.76 970.274 1920.26 Q970.274 1922.38 969.464 1924.31 Q968.677 1926.2 966.571 1928.8 Q965.992 1929.47 962.89 1932.69 Q959.788 1935.88 954.14 1941.64 Z" fill="#000000" fill-rule="nonzero" fill-opacity="1"></path><path clip-path="url(#clip940)" d="M1083.77 1941.64 L1091.41 1941.64 L1091.41 1915.28 L1083.1 1916.95 L1083.1 1912.69 L1091.37 1911.02 L1096.04 1911.02 L1096.04 1941.64 L1103.68 1941.64 L1103.68 1945.58 L1083.77 1945.58 L1083.77 1941.64 Z" fill="#000000" fill-rule="nonzero" fill-opacity="1"></path><path clip-path="url(#clip940)" d="M1113.26 1944.86 L1113.26 1940.6 Q1115.02 1941.44 1116.83 1941.88 Q1118.63 1942.32 1120.37 1942.32 Q1125 1942.32 1127.43 1939.21 Q1129.88 1936.09 1130.23 1929.75 Q1128.89 1931.74 1126.83 1932.8 Q1124.77 1933.87 1122.27 1933.87 Q1117.08 1933.87 1114.05 1930.74 Q1111.04 1927.59 1111.04 1922.15 Q1111.04 1916.83 1114.19 1913.61 Q1117.34 1910.39 1122.57 1910.39 Q1128.56 1910.39 1131.71 1915 Q1134.88 1919.58 1134.88 1928.33 Q1134.88 1936.51 1131 1941.39 Q1127.13 1946.25 1120.58 1946.25 Q1118.82 1946.25 1117.01 1945.9 Q1115.21 1945.56 1113.26 1944.86 M1122.57 1930.21 Q1125.72 1930.21 1127.55 1928.06 Q1129.4 1925.9 1129.4 1922.15 Q1129.4 1918.43 1127.55 1916.27 Q1125.72 1914.1 1122.57 1914.1 Q1119.42 1914.1 1117.57 1916.27 Q1115.74 1918.43 1115.74 1922.15 Q1115.74 1925.9 1117.57 1928.06 Q1119.42 1930.21 1122.57 1930.21 Z" fill="#000000" fill-rule="nonzero" fill-opacity="1"></path><path clip-path="url(#clip940)" d="M1143.43 1944.86 L1143.43 1940.6 Q1145.19 1941.44 1146.99 1941.88 Q1148.8 1942.32 1150.53 1942.32 Q1155.16 1942.32 1157.59 1939.21 Q1160.05 1936.09 1160.39 1929.75 Q1159.05 1931.74 1156.99 1932.8 Q1154.93 1933.87 1152.43 1933.87 Q1147.25 1933.87 1144.21 1930.74 Q1141.2 1927.59 1141.2 1922.15 Q1141.2 1916.83 1144.35 1913.61 Q1147.5 1910.39 1152.73 1910.39 Q1158.73 1910.39 1161.87 1915 Q1165.05 1919.58 1165.05 1928.33 Q1165.05 1936.51 1161.16 1941.39 Q1157.29 1946.25 1150.74 1946.25 Q1148.98 1946.25 1147.18 1945.9 Q1145.37 1945.56 1143.43 1944.86 M1152.73 1930.21 Q1155.88 1930.21 1157.71 1928.06 Q1159.56 1925.9 1159.56 1922.15 Q1159.56 1918.43 1157.71 1916.27 Q1155.88 1914.1 1152.73 1914.1 Q1149.58 1914.1 1147.73 1916.27 Q1145.9 1918.43 1145.9 1922.15 Q1145.9 1925.9 1147.73 1928.06 Q1149.58 1930.21 1152.73 1930.21 Z" fill="#000000" fill-rule="nonzero" fill-opacity="1"></path><path clip-path="url(#clip940)" d="M1184.03 1926.44 Q1180.88 1926.44 1179.03 1928.59 Q1177.2 1930.74 1177.2 1934.49 Q1177.2 1938.22 1179.03 1940.39 Q1180.88 1942.55 1184.03 1942.55 Q1187.18 1942.55 1189 1940.39 Q1190.86 1938.22 1190.86 1934.49 Q1190.86 1930.74 1189 1928.59 Q1187.18 1926.44 1184.03 1926.44 M1193.31 1911.78 L1193.31 1916.04 Q1191.55 1915.21 1189.75 1914.77 Q1187.96 1914.33 1186.2 1914.33 Q1181.57 1914.33 1179.12 1917.45 Q1176.69 1920.58 1176.34 1926.9 Q1177.71 1924.88 1179.77 1923.82 Q1181.83 1922.73 1184.31 1922.73 Q1189.51 1922.73 1192.52 1925.9 Q1195.56 1929.05 1195.56 1934.49 Q1195.56 1939.82 1192.41 1943.03 Q1189.26 1946.25 1184.03 1946.25 Q1178.03 1946.25 1174.86 1941.67 Q1171.69 1937.06 1171.69 1928.33 Q1171.69 1920.14 1175.58 1915.28 Q1179.47 1910.39 1186.02 1910.39 Q1187.78 1910.39 1189.56 1910.74 Q1191.37 1911.09 1193.31 1911.78 Z" fill="#000000" fill-rule="nonzero" fill-opacity="1"></path><path clip-path="url(#clip940)" d="M1312.16 1941.64 L1328.48 1941.64 L1328.48 1945.58 L1306.53 1945.58 L1306.53 1941.64 Q1309.19 1938.89 1313.78 1934.26 Q1318.38 1929.61 1319.56 1928.26 Q1321.81 1925.74 1322.69 1924.01 Q1323.59 1922.25 1323.59 1920.56 Q1323.59 1917.8 1321.65 1916.07 Q1319.73 1914.33 1316.62 1914.33 Q1314.42 1914.33 1311.97 1915.09 Q1309.54 1915.86 1306.76 1917.41 L1306.76 1912.69 Q1309.59 1911.55 1312.04 1910.97 Q1314.49 1910.39 1316.53 1910.39 Q1321.9 1910.39 1325.1 1913.08 Q1328.29 1915.76 1328.29 1920.26 Q1328.29 1922.38 1327.48 1924.31 Q1326.69 1926.2 1324.59 1928.8 Q1324.01 1929.47 1320.91 1932.69 Q1317.8 1935.88 1312.16 1941.64 Z" fill="#000000" fill-rule="nonzero" fill-opacity="1"></path><path clip-path="url(#clip940)" d="M1348.29 1914.1 Q1344.68 1914.1 1342.85 1917.66 Q1341.04 1921.2 1341.04 1928.33 Q1341.04 1935.44 1342.85 1939.01 Q1344.68 1942.55 1348.29 1942.55 Q1351.92 1942.55 1353.73 1939.01 Q1355.56 1935.44 1355.56 1928.33 Q1355.56 1921.2 1353.73 1917.66 Q1351.92 1914.1 1348.29 1914.1 M1348.29 1910.39 Q1354.1 1910.39 1357.16 1915 Q1360.23 1919.58 1360.23 1928.33 Q1360.23 1937.06 1357.16 1941.67 Q1354.1 1946.25 1348.29 1946.25 Q1342.48 1946.25 1339.4 1941.67 Q1336.35 1937.06 1336.35 1928.33 Q1336.35 1919.58 1339.4 1915 Q1342.48 1910.39 1348.29 1910.39 Z" fill="#000000" fill-rule="nonzero" fill-opacity="1"></path><path clip-path="url(#clip940)" d="M1378.45 1914.1 Q1374.84 1914.1 1373.01 1917.66 Q1371.21 1921.2 1371.21 1928.33 Q1371.21 1935.44 1373.01 1939.01 Q1374.84 1942.55 1378.45 1942.55 Q1382.09 1942.55 1383.89 1939.01 Q1385.72 1935.44 1385.72 1928.33 Q1385.72 1921.2 1383.89 1917.66 Q1382.09 1914.1 1378.45 1914.1 M1378.45 1910.39 Q1384.26 1910.39 1387.32 1915 Q1390.4 1919.58 1390.4 1928.33 Q1390.4 1937.06 1387.32 1941.67 Q1384.26 1946.25 1378.45 1946.25 Q1372.64 1946.25 1369.56 1941.67 Q1366.51 1937.06 1366.51 1928.33 Q1366.51 1919.58 1369.56 1915 Q1372.64 1910.39 1378.45 1910.39 Z" fill="#000000" fill-rule="nonzero" fill-opacity="1"></path><path clip-path="url(#clip940)" d="M1408.61 1914.1 Q1405 1914.1 1403.17 1917.66 Q1401.37 1921.2 1401.37 1928.33 Q1401.37 1935.44 1403.17 1939.01 Q1405 1942.55 1408.61 1942.55 Q1412.25 1942.55 1414.05 1939.01 Q1415.88 1935.44 1415.88 1928.33 Q1415.88 1921.2 1414.05 1917.66 Q1412.25 1914.1 1408.61 1914.1 M1408.61 1910.39 Q1414.42 1910.39 1417.48 1915 Q1420.56 1919.58 1420.56 1928.33 Q1420.56 1937.06 1417.48 1941.67 Q1414.42 1946.25 1408.61 1946.25 Q1402.8 1946.25 1399.73 1941.67 Q1396.67 1937.06 1396.67 1928.33 Q1396.67 1919.58 1399.73 1915 Q1402.8 1910.39 1408.61 1910.39 Z" fill="#000000" fill-rule="nonzero" fill-opacity="1"></path><path clip-path="url(#clip940)" d="M1536.13 1941.64 L1552.45 1941.64 L1552.45 1945.58 L1530.5 1945.58 L1530.5 1941.64 Q1533.17 1938.89 1537.75 1934.26 Q1542.36 1929.61 1543.54 1928.26 Q1545.78 1925.74 1546.66 1924.01 Q1547.56 1922.25 1547.56 1920.56 Q1547.56 1917.8 1545.62 1916.07 Q1543.7 1914.33 1540.6 1914.33 Q1538.4 1914.33 1535.94 1915.09 Q1533.51 1915.86 1530.74 1917.41 L1530.74 1912.69 Q1533.56 1911.55 1536.01 1910.97 Q1538.47 1910.39 1540.5 1910.39 Q1545.87 1910.39 1549.07 1913.08 Q1552.26 1915.76 1552.26 1920.26 Q1552.26 1922.38 1551.45 1924.31 Q1550.67 1926.2 1548.56 1928.8 Q1547.98 1929.47 1544.88 1932.69 Q1541.78 1935.88 1536.13 1941.64 Z" fill="#000000" fill-rule="nonzero" fill-opacity="1"></path><path clip-path="url(#clip940)" d="M1572.26 1914.1 Q1568.65 1914.1 1566.82 1917.66 Q1565.02 1921.2 1565.02 1928.33 Q1565.02 1935.44 1566.82 1939.01 Q1568.65 1942.55 1572.26 1942.55 Q1575.9 1942.55 1577.7 1939.01 Q1579.53 1935.44 1579.53 1928.33 Q1579.53 1921.2 1577.7 1917.66 Q1575.9 1914.1 1572.26 1914.1 M1572.26 1910.39 Q1578.07 1910.39 1581.13 1915 Q1584.21 1919.58 1584.21 1928.33 Q1584.21 1937.06 1581.13 1941.67 Q1578.07 1946.25 1572.26 1946.25 Q1566.45 1946.25 1563.37 1941.67 Q1560.32 1937.06 1560.32 1928.33 Q1560.32 1919.58 1563.37 1915 Q1566.45 1910.39 1572.26 1910.39 Z" fill="#000000" fill-rule="nonzero" fill-opacity="1"></path><path clip-path="url(#clip940)" d="M1602.43 1914.1 Q1598.81 1914.1 1596.99 1917.66 Q1595.18 1921.2 1595.18 1928.33 Q1595.18 1935.44 1596.99 1939.01 Q1598.81 1942.55 1602.43 1942.55 Q1606.06 1942.55 1607.86 1939.01 Q1609.69 1935.44 1609.69 1928.33 Q1609.69 1921.2 1607.86 1917.66 Q1606.06 1914.1 1602.43 1914.1 M1602.43 1910.39 Q1608.24 1910.39 1611.29 1915 Q1614.37 1919.58 1614.37 1928.33 Q1614.37 1937.06 1611.29 1941.67 Q1608.24 1946.25 1602.43 1946.25 Q1596.62 1946.25 1593.54 1941.67 Q1590.48 1937.06 1590.48 1928.33 Q1590.48 1919.58 1593.54 1915 Q1596.62 1910.39 1602.43 1910.39 Z" fill="#000000" fill-rule="nonzero" fill-opacity="1"></path><path clip-path="url(#clip940)" d="M1635.43 1915.09 L1623.63 1933.54 L1635.43 1933.54 L1635.43 1915.09 M1634.21 1911.02 L1640.09 1911.02 L1640.09 1933.54 L1645.02 1933.54 L1645.02 1937.43 L1640.09 1937.43 L1640.09 1945.58 L1635.43 1945.58 L1635.43 1937.43 L1619.83 1937.43 L1619.83 1932.92 L1634.21 1911.02 Z" fill="#000000" fill-rule="nonzero" fill-opacity="1"></path><path clip-path="url(#clip940)" d="M1760.63 1941.64 L1776.95 1941.64 L1776.95 1945.58 L1755.01 1945.58 L1755.01 1941.64 Q1757.67 1938.89 1762.26 1934.26 Q1766.86 1929.61 1768.04 1928.26 Q1770.29 1925.74 1771.17 1924.01 Q1772.07 1922.25 1772.07 1920.56 Q1772.07 1917.8 1770.13 1916.07 Q1768.2 1914.33 1765.1 1914.33 Q1762.9 1914.33 1760.45 1915.09 Q1758.02 1915.86 1755.24 1917.41 L1755.24 1912.69 Q1758.07 1911.55 1760.52 1910.97 Q1762.97 1910.39 1765.01 1910.39 Q1770.38 1910.39 1773.57 1913.08 Q1776.77 1915.76 1776.77 1920.26 Q1776.77 1922.38 1775.96 1924.31 Q1775.17 1926.2 1773.07 1928.8 Q1772.49 1929.47 1769.38 1932.69 Q1766.28 1935.88 1760.63 1941.64 Z" fill="#000000" fill-rule="nonzero" fill-opacity="1"></path><path clip-path="url(#clip940)" d="M1796.77 1914.1 Q1793.16 1914.1 1791.33 1917.66 Q1789.52 1921.2 1789.52 1928.33 Q1789.52 1935.44 1791.33 1939.01 Q1793.16 1942.55 1796.77 1942.55 Q1800.4 1942.55 1802.21 1939.01 Q1804.04 1935.44 1804.04 1928.33 Q1804.04 1921.2 1802.21 1917.66 Q1800.4 1914.1 1796.77 1914.1 M1796.77 1910.39 Q1802.58 1910.39 1805.63 1915 Q1808.71 1919.58 1808.71 1928.33 Q1808.71 1937.06 1805.63 1941.67 Q1802.58 1946.25 1796.77 1946.25 Q1790.96 1946.25 1787.88 1941.67 Q1784.82 1937.06 1784.82 1928.33 Q1784.82 1919.58 1787.88 1915 Q1790.96 1910.39 1796.77 1910.39 Z" fill="#000000" fill-rule="nonzero" fill-opacity="1"></path><path clip-path="url(#clip940)" d="M1826.93 1914.1 Q1823.32 1914.1 1821.49 1917.66 Q1819.69 1921.2 1819.69 1928.33 Q1819.69 1935.44 1821.49 1939.01 Q1823.32 1942.55 1826.93 1942.55 Q1830.56 1942.55 1832.37 1939.01 Q1834.2 1935.44 1834.2 1928.33 Q1834.2 1921.2 1832.37 1917.66 Q1830.56 1914.1 1826.93 1914.1 M1826.93 1910.39 Q1832.74 1910.39 1835.8 1915 Q1838.87 1919.58 1838.87 1928.33 Q1838.87 1937.06 1835.8 1941.67 Q1832.74 1946.25 1826.93 1946.25 Q1821.12 1946.25 1818.04 1941.67 Q1814.99 1937.06 1814.99 1928.33 Q1814.99 1919.58 1818.04 1915 Q1821.12 1910.39 1826.93 1910.39 Z" fill="#000000" fill-rule="nonzero" fill-opacity="1"></path><path clip-path="url(#clip940)" d="M1857.09 1929.17 Q1853.76 1929.17 1851.84 1930.95 Q1849.94 1932.73 1849.94 1935.86 Q1849.94 1938.98 1851.84 1940.76 Q1853.76 1942.55 1857.09 1942.55 Q1860.43 1942.55 1862.35 1940.76 Q1864.27 1938.96 1864.27 1935.86 Q1864.27 1932.73 1862.35 1930.95 Q1860.45 1929.17 1857.09 1929.17 M1852.42 1927.18 Q1849.41 1926.44 1847.72 1924.38 Q1846.05 1922.32 1846.05 1919.35 Q1846.05 1915.21 1848.99 1912.8 Q1851.95 1910.39 1857.09 1910.39 Q1862.25 1910.39 1865.19 1912.8 Q1868.13 1915.21 1868.13 1919.35 Q1868.13 1922.32 1866.44 1924.38 Q1864.78 1926.44 1861.79 1927.18 Q1865.17 1927.96 1867.05 1930.26 Q1868.94 1932.55 1868.94 1935.86 Q1868.94 1940.88 1865.87 1943.57 Q1862.81 1946.25 1857.09 1946.25 Q1851.37 1946.25 1848.3 1943.57 Q1845.24 1940.88 1845.24 1935.86 Q1845.24 1932.55 1847.14 1930.26 Q1849.04 1927.96 1852.42 1927.18 M1850.7 1919.79 Q1850.7 1922.48 1852.37 1923.98 Q1854.06 1925.49 1857.09 1925.49 Q1860.1 1925.49 1861.79 1923.98 Q1863.5 1922.48 1863.5 1919.79 Q1863.5 1917.11 1861.79 1915.6 Q1860.1 1914.1 1857.09 1914.1 Q1854.06 1914.1 1852.37 1915.6 Q1850.7 1917.11 1850.7 1919.79 Z" fill="#000000" fill-rule="nonzero" fill-opacity="1"></path><path clip-path="url(#clip940)" d="M1985.6 1941.64 L2001.92 1941.64 L2001.92 1945.58 L1979.98 1945.58 L1979.98 1941.64 Q1982.64 1938.89 1987.22 1934.26 Q1991.83 1929.61 1993.01 1928.26 Q1995.26 1925.74 1996.14 1924.01 Q1997.04 1922.25 1997.04 1920.56 Q1997.04 1917.8 1995.09 1916.07 Q1993.17 1914.33 1990.07 1914.33 Q1987.87 1914.33 1985.42 1915.09 Q1982.99 1915.86 1980.21 1917.41 L1980.21 1912.69 Q1983.03 1911.55 1985.49 1910.97 Q1987.94 1910.39 1989.98 1910.39 Q1995.35 1910.39 1998.54 1913.08 Q2001.74 1915.76 2001.74 1920.26 Q2001.74 1922.38 2000.93 1924.31 Q2000.14 1926.2 1998.03 1928.8 Q1997.45 1929.47 1994.35 1932.69 Q1991.25 1935.88 1985.6 1941.64 Z" fill="#000000" fill-rule="nonzero" fill-opacity="1"></path><path clip-path="url(#clip940)" d="M2021.74 1914.1 Q2018.13 1914.1 2016.3 1917.66 Q2014.49 1921.2 2014.49 1928.33 Q2014.49 1935.44 2016.3 1939.01 Q2018.13 1942.55 2021.74 1942.55 Q2025.37 1942.55 2027.18 1939.01 Q2029.01 1935.44 2029.01 1928.33 Q2029.01 1921.2 2027.18 1917.66 Q2025.37 1914.1 2021.74 1914.1 M2021.74 1910.39 Q2027.55 1910.39 2030.6 1915 Q2033.68 1919.58 2033.68 1928.33 Q2033.68 1937.06 2030.6 1941.67 Q2027.55 1946.25 2021.74 1946.25 Q2015.93 1946.25 2012.85 1941.67 Q2009.79 1937.06 2009.79 1928.33 Q2009.79 1919.58 2012.85 1915 Q2015.93 1910.39 2021.74 1910.39 Z" fill="#000000" fill-rule="nonzero" fill-opacity="1"></path><path clip-path="url(#clip940)" d="M2042.71 1941.64 L2050.35 1941.64 L2050.35 1915.28 L2042.04 1916.95 L2042.04 1912.69 L2050.3 1911.02 L2054.98 1911.02 L2054.98 1941.64 L2062.62 1941.64 L2062.62 1945.58 L2042.71 1945.58 L2042.71 1941.64 Z" fill="#000000" fill-rule="nonzero" fill-opacity="1"></path><path clip-path="url(#clip940)" d="M2076.09 1941.64 L2092.41 1941.64 L2092.41 1945.58 L2070.46 1945.58 L2070.46 1941.64 Q2073.13 1938.89 2077.71 1934.26 Q2082.32 1929.61 2083.5 1928.26 Q2085.74 1925.74 2086.62 1924.01 Q2087.52 1922.25 2087.52 1920.56 Q2087.52 1917.8 2085.58 1916.07 Q2083.66 1914.33 2080.56 1914.33 Q2078.36 1914.33 2075.9 1915.09 Q2073.47 1915.86 2070.7 1917.41 L2070.7 1912.69 Q2073.52 1911.55 2075.97 1910.97 Q2078.43 1910.39 2080.46 1910.39 Q2085.83 1910.39 2089.03 1913.08 Q2092.22 1915.76 2092.22 1920.26 Q2092.22 1922.38 2091.41 1924.31 Q2090.63 1926.2 2088.52 1928.8 Q2087.94 1929.47 2084.84 1932.69 Q2081.74 1935.88 2076.09 1941.64 Z" fill="#000000" fill-rule="nonzero" fill-opacity="1"></path><path clip-path="url(#clip940)" d="M2208.94 1941.64 L2225.26 1941.64 L2225.26 1945.58 L2203.31 1945.58 L2203.31 1941.64 Q2205.98 1938.89 2210.56 1934.26 Q2215.17 1929.61 2216.35 1928.26 Q2218.59 1925.74 2219.47 1924.01 Q2220.37 1922.25 2220.37 1920.56 Q2220.37 1917.8 2218.43 1916.07 Q2216.51 1914.33 2213.41 1914.33 Q2211.21 1914.33 2208.75 1915.09 Q2206.32 1915.86 2203.55 1917.41 L2203.55 1912.69 Q2206.37 1911.55 2208.82 1910.97 Q2211.28 1910.39 2213.31 1910.39 Q2218.68 1910.39 2221.88 1913.08 Q2225.07 1915.76 2225.07 1920.26 Q2225.07 1922.38 2224.26 1924.31 Q2223.48 1926.2 2221.37 1928.8 Q2220.79 1929.47 2217.69 1932.69 Q2214.59 1935.88 2208.94 1941.64 Z" fill="#000000" fill-rule="nonzero" fill-opacity="1"></path><path clip-path="url(#clip940)" d="M2245.07 1914.1 Q2241.46 1914.1 2239.63 1917.66 Q2237.83 1921.2 2237.83 1928.33 Q2237.83 1935.44 2239.63 1939.01 Q2241.46 1942.55 2245.07 1942.55 Q2248.71 1942.55 2250.51 1939.01 Q2252.34 1935.44 2252.34 1928.33 Q2252.34 1921.2 2250.51 1917.66 Q2248.71 1914.1 2245.07 1914.1 M2245.07 1910.39 Q2250.88 1910.39 2253.94 1915 Q2257.02 1919.58 2257.02 1928.33 Q2257.02 1937.06 2253.94 1941.67 Q2250.88 1946.25 2245.07 1946.25 Q2239.26 1946.25 2236.18 1941.67 Q2233.13 1937.06 2233.13 1928.33 Q2233.13 1919.58 2236.18 1915 Q2239.26 1910.39 2245.07 1910.39 Z" fill="#000000" fill-rule="nonzero" fill-opacity="1"></path><path clip-path="url(#clip940)" d="M2266.05 1941.64 L2273.68 1941.64 L2273.68 1915.28 L2265.37 1916.95 L2265.37 1912.69 L2273.64 1911.02 L2278.31 1911.02 L2278.31 1941.64 L2285.95 1941.64 L2285.95 1945.58 L2266.05 1945.58 L2266.05 1941.64 Z" fill="#000000" fill-rule="nonzero" fill-opacity="1"></path><path clip-path="url(#clip940)" d="M2305.98 1926.44 Q2302.83 1926.44 2300.98 1928.59 Q2299.15 1930.74 2299.15 1934.49 Q2299.15 1938.22 2300.98 1940.39 Q2302.83 1942.55 2305.98 1942.55 Q2309.12 1942.55 2310.95 1940.39 Q2312.8 1938.22 2312.8 1934.49 Q2312.8 1930.74 2310.95 1928.59 Q2309.12 1926.44 2305.98 1926.44 M2315.26 1911.78 L2315.26 1916.04 Q2313.5 1915.21 2311.69 1914.77 Q2309.91 1914.33 2308.15 1914.33 Q2303.52 1914.33 2301.07 1917.45 Q2298.64 1920.58 2298.29 1926.9 Q2299.66 1924.88 2301.72 1923.82 Q2303.78 1922.73 2306.25 1922.73 Q2311.46 1922.73 2314.47 1925.9 Q2317.5 1929.05 2317.5 1934.49 Q2317.5 1939.82 2314.36 1943.03 Q2311.21 1946.25 2305.98 1946.25 Q2299.98 1946.25 2296.81 1941.67 Q2293.64 1937.06 2293.64 1928.33 Q2293.64 1920.14 2297.53 1915.28 Q2301.42 1910.39 2307.97 1910.39 Q2309.73 1910.39 2311.51 1910.74 Q2313.31 1911.09 2315.26 1911.78 Z" fill="#000000" fill-rule="nonzero" fill-opacity="1"></path><path clip-path="url(#clip940)" d="M2433.24 1941.64 L2449.56 1941.64 L2449.56 1945.58 L2427.61 1945.58 L2427.61 1941.64 Q2430.27 1938.89 2434.86 1934.26 Q2439.46 1929.61 2440.64 1928.26 Q2442.89 1925.74 2443.77 1924.01 Q2444.67 1922.25 2444.67 1920.56 Q2444.67 1917.8 2442.73 1916.07 Q2440.81 1914.33 2437.7 1914.33 Q2435.51 1914.33 2433.05 1915.09 Q2430.62 1915.86 2427.84 1917.41 L2427.84 1912.69 Q2430.67 1911.55 2433.12 1910.97 Q2435.57 1910.39 2437.61 1910.39 Q2442.98 1910.39 2446.18 1913.08 Q2449.37 1915.76 2449.37 1920.26 Q2449.37 1922.38 2448.56 1924.31 Q2447.77 1926.2 2445.67 1928.8 Q2445.09 1929.47 2441.99 1932.69 Q2438.88 1935.88 2433.24 1941.64 Z" fill="#000000" fill-rule="nonzero" fill-opacity="1"></path><path clip-path="url(#clip940)" d="M2469.37 1914.1 Q2465.76 1914.1 2463.93 1917.66 Q2462.13 1921.2 2462.13 1928.33 Q2462.13 1935.44 2463.93 1939.01 Q2465.76 1942.55 2469.37 1942.55 Q2473 1942.55 2474.81 1939.01 Q2476.64 1935.44 2476.64 1928.33 Q2476.64 1921.2 2474.81 1917.66 Q2473 1914.1 2469.37 1914.1 M2469.37 1910.39 Q2475.18 1910.39 2478.24 1915 Q2481.31 1919.58 2481.31 1928.33 Q2481.31 1937.06 2478.24 1941.67 Q2475.18 1946.25 2469.37 1946.25 Q2463.56 1946.25 2460.48 1941.67 Q2457.43 1937.06 2457.43 1928.33 Q2457.43 1919.58 2460.48 1915 Q2463.56 1910.39 2469.37 1910.39 Z" fill="#000000" fill-rule="nonzero" fill-opacity="1"></path><path clip-path="url(#clip940)" d="M2493.56 1941.64 L2509.88 1941.64 L2509.88 1945.58 L2487.94 1945.58 L2487.94 1941.64 Q2490.6 1938.89 2495.18 1934.26 Q2499.79 1929.61 2500.97 1928.26 Q2503.21 1925.74 2504.09 1924.01 Q2505 1922.25 2505 1920.56 Q2505 1917.8 2503.05 1916.07 Q2501.13 1914.33 2498.03 1914.33 Q2495.83 1914.33 2493.38 1915.09 Q2490.94 1915.86 2488.17 1917.41 L2488.17 1912.69 Q2490.99 1911.55 2493.44 1910.97 Q2495.9 1910.39 2497.94 1910.39 Q2503.31 1910.39 2506.5 1913.08 Q2509.69 1915.76 2509.69 1920.26 Q2509.69 1922.38 2508.88 1924.31 Q2508.1 1926.2 2505.99 1928.8 Q2505.41 1929.47 2502.31 1932.69 Q2499.21 1935.88 2493.56 1941.64 Z" fill="#000000" fill-rule="nonzero" fill-opacity="1"></path><path clip-path="url(#clip940)" d="M2529.69 1914.1 Q2526.08 1914.1 2524.25 1917.66 Q2522.45 1921.2 2522.45 1928.33 Q2522.45 1935.44 2524.25 1939.01 Q2526.08 1942.55 2529.69 1942.55 Q2533.33 1942.55 2535.13 1939.01 Q2536.96 1935.44 2536.96 1928.33 Q2536.96 1921.2 2535.13 1917.66 Q2533.33 1914.1 2529.69 1914.1 M2529.69 1910.39 Q2535.5 1910.39 2538.56 1915 Q2541.64 1919.58 2541.64 1928.33 Q2541.64 1937.06 2538.56 1941.67 Q2535.5 1946.25 2529.69 1946.25 Q2523.88 1946.25 2520.81 1941.67 Q2517.75 1937.06 2517.75 1928.33 Q2517.75 1919.58 2520.81 1915 Q2523.88 1910.39 2529.69 1910.39 Z" fill="#000000" fill-rule="nonzero" fill-opacity="1"></path><path clip-path="url(#clip940)" d="M2657.21 1941.64 L2673.53 1941.64 L2673.53 1945.58 L2651.58 1945.58 L2651.58 1941.64 Q2654.25 1938.89 2658.83 1934.26 Q2663.44 1929.61 2664.62 1928.26 Q2666.86 1925.74 2667.74 1924.01 Q2668.64 1922.25 2668.64 1920.56 Q2668.64 1917.8 2666.7 1916.07 Q2664.78 1914.33 2661.68 1914.33 Q2659.48 1914.33 2657.02 1915.09 Q2654.59 1915.86 2651.82 1917.41 L2651.82 1912.69 Q2654.64 1911.55 2657.09 1910.97 Q2659.55 1910.39 2661.58 1910.39 Q2666.95 1910.39 2670.15 1913.08 Q2673.34 1915.76 2673.34 1920.26 Q2673.34 1922.38 2672.53 1924.31 Q2671.75 1926.2 2669.64 1928.8 Q2669.06 1929.47 2665.96 1932.69 Q2662.86 1935.88 2657.21 1941.64 Z" fill="#000000" fill-rule="nonzero" fill-opacity="1"></path><path clip-path="url(#clip940)" d="M2693.34 1914.1 Q2689.73 1914.1 2687.9 1917.66 Q2686.1 1921.2 2686.1 1928.33 Q2686.1 1935.44 2687.9 1939.01 Q2689.73 1942.55 2693.34 1942.55 Q2696.98 1942.55 2698.78 1939.01 Q2700.61 1935.44 2700.61 1928.33 Q2700.61 1921.2 2698.78 1917.66 Q2696.98 1914.1 2693.34 1914.1 M2693.34 1910.39 Q2699.15 1910.39 2702.21 1915 Q2705.29 1919.58 2705.29 1928.33 Q2705.29 1937.06 2702.21 1941.67 Q2699.15 1946.25 2693.34 1946.25 Q2687.53 1946.25 2684.45 1941.67 Q2681.4 1937.06 2681.4 1928.33 Q2681.4 1919.58 2684.45 1915 Q2687.53 1910.39 2693.34 1910.39 Z" fill="#000000" fill-rule="nonzero" fill-opacity="1"></path><path clip-path="url(#clip940)" d="M2717.53 1941.64 L2733.85 1941.64 L2733.85 1945.58 L2711.91 1945.58 L2711.91 1941.64 Q2714.57 1938.89 2719.15 1934.26 Q2723.76 1929.61 2724.94 1928.26 Q2727.19 1925.74 2728.07 1924.01 Q2728.97 1922.25 2728.97 1920.56 Q2728.97 1917.8 2727.02 1916.07 Q2725.1 1914.33 2722 1914.33 Q2719.8 1914.33 2717.35 1915.09 Q2714.92 1915.86 2712.14 1917.41 L2712.14 1912.69 Q2714.96 1911.55 2717.42 1910.97 Q2719.87 1910.39 2721.91 1910.39 Q2727.28 1910.39 2730.47 1913.08 Q2733.67 1915.76 2733.67 1920.26 Q2733.67 1922.38 2732.86 1924.31 Q2732.07 1926.2 2729.96 1928.8 Q2729.39 1929.47 2726.28 1932.69 Q2723.18 1935.88 2717.53 1941.64 Z" fill="#000000" fill-rule="nonzero" fill-opacity="1"></path><path clip-path="url(#clip940)" d="M2756.51 1915.09 L2744.71 1933.54 L2756.51 1933.54 L2756.51 1915.09 M2755.29 1911.02 L2761.17 1911.02 L2761.17 1933.54 L2766.1 1933.54 L2766.1 1937.43 L2761.17 1937.43 L2761.17 1945.58 L2756.51 1945.58 L2756.51 1937.43 L2740.91 1937.43 L2740.91 1932.92 L2755.29 1911.02 Z" fill="#000000" fill-rule="nonzero" fill-opacity="1"></path><polyline clip-path="url(#clip942)" style="stroke:#000000; stroke-linecap:round; stroke-linejoin:round; stroke-width:2; stroke-opacity:0.1; fill:none" points="197.936,1757.07 2752.76,1757.07 "></polyline>
<polyline clip-path="url(#clip942)" style="stroke:#000000; stroke-linecap:round; stroke-linejoin:round; stroke-width:2; stroke-opacity:0.1; fill:none" points="197.936,1413.51 2752.76,1413.51 "></polyline>
<polyline clip-path="url(#clip942)" style="stroke:#000000; stroke-linecap:round; stroke-linejoin:round; stroke-width:2; stroke-opacity:0.1; fill:none" points="197.936,1069.95 2752.76,1069.95 "></polyline>
<polyline clip-path="url(#clip942)" style="stroke:#000000; stroke-linecap:round; stroke-linejoin:round; stroke-width:2; stroke-opacity:0.1; fill:none" points="197.936,726.386 2752.76,726.386 "></polyline>
<polyline clip-path="url(#clip942)" style="stroke:#000000; stroke-linecap:round; stroke-linejoin:round; stroke-width:2; stroke-opacity:0.1; fill:none" points="197.936,382.826 2752.76,382.826 "></polyline>
<polyline clip-path="url(#clip940)" style="stroke:#000000; stroke-linecap:round; stroke-linejoin:round; stroke-width:4; stroke-opacity:1; fill:none" points="197.936,1879.98 197.936,47.2441 "></polyline>
<polyline clip-path="url(#clip940)" style="stroke:#000000; stroke-linecap:round; stroke-linejoin:round; stroke-width:4; stroke-opacity:1; fill:none" points="2752.76,1879.98 2752.76,47.2441 "></polyline>
<polyline clip-path="url(#clip940)" style="stroke:#000000; stroke-linecap:round; stroke-linejoin:round; stroke-width:4; stroke-opacity:1; fill:none" points="197.936,1757.07 216.834,1757.07 "></polyline>
<polyline clip-path="url(#clip940)" style="stroke:#000000; stroke-linecap:round; stroke-linejoin:round; stroke-width:4; stroke-opacity:1; fill:none" points="197.936,1413.51 216.834,1413.51 "></polyline>
<polyline clip-path="url(#clip940)" style="stroke:#000000; stroke-linecap:round; stroke-linejoin:round; stroke-width:4; stroke-opacity:1; fill:none" points="197.936,1069.95 216.834,1069.95 "></polyline>
<polyline clip-path="url(#clip940)" style="stroke:#000000; stroke-linecap:round; stroke-linejoin:round; stroke-width:4; stroke-opacity:1; fill:none" points="197.936,726.386 216.834,726.386 "></polyline>
<polyline clip-path="url(#clip940)" style="stroke:#000000; stroke-linecap:round; stroke-linejoin:round; stroke-width:4; stroke-opacity:1; fill:none" points="197.936,382.826 216.834,382.826 "></polyline>
<path clip-path="url(#clip940)" d="M49.9875 1757.52 L79.6633 1757.52 L79.6633 1761.45 L49.9875 1761.45 L49.9875 1757.52 Z" fill="#000000" fill-rule="nonzero" fill-opacity="1"></path><path clip-path="url(#clip940)" d="M90.566 1770.41 L98.2048 1770.41 L98.2048 1744.05 L89.8947 1745.71 L89.8947 1741.45 L98.1585 1739.79 L102.834 1739.79 L102.834 1770.41 L110.473 1770.41 L110.473 1774.35 L90.566 1774.35 L90.566 1770.41 Z" fill="#000000" fill-rule="nonzero" fill-opacity="1"></path><path clip-path="url(#clip940)" d="M119.918 1768.47 L124.802 1768.47 L124.802 1774.35 L119.918 1774.35 L119.918 1768.47 Z" fill="#000000" fill-rule="nonzero" fill-opacity="1"></path><path clip-path="url(#clip940)" d="M135.033 1739.79 L153.39 1739.79 L153.39 1743.72 L139.316 1743.72 L139.316 1752.19 Q140.334 1751.85 141.353 1751.69 Q142.371 1751.5 143.39 1751.5 Q149.177 1751.5 152.556 1754.67 Q155.936 1757.84 155.936 1763.26 Q155.936 1768.84 152.464 1771.94 Q148.992 1775.02 142.672 1775.02 Q140.496 1775.02 138.228 1774.65 Q135.982 1774.28 133.575 1773.54 L133.575 1768.84 Q135.658 1769.97 137.881 1770.53 Q140.103 1771.08 142.58 1771.08 Q146.584 1771.08 148.922 1768.98 Q151.26 1766.87 151.26 1763.26 Q151.26 1759.65 148.922 1757.54 Q146.584 1755.44 142.58 1755.44 Q140.705 1755.44 138.83 1755.85 Q136.978 1756.27 135.033 1757.15 L135.033 1739.79 Z" fill="#000000" fill-rule="nonzero" fill-opacity="1"></path><path clip-path="url(#clip940)" d="M48.9921 1413.96 L78.6679 1413.96 L78.6679 1417.89 L48.9921 1417.89 L48.9921 1413.96 Z" fill="#000000" fill-rule="nonzero" fill-opacity="1"></path><path clip-path="url(#clip940)" d="M89.5706 1426.85 L97.2095 1426.85 L97.2095 1400.49 L88.8993 1402.15 L88.8993 1397.89 L97.1632 1396.23 L101.839 1396.23 L101.839 1426.85 L109.478 1426.85 L109.478 1430.79 L89.5706 1430.79 L89.5706 1426.85 Z" fill="#000000" fill-rule="nonzero" fill-opacity="1"></path><path clip-path="url(#clip940)" d="M118.922 1424.91 L123.807 1424.91 L123.807 1430.79 L118.922 1430.79 L118.922 1424.91 Z" fill="#000000" fill-rule="nonzero" fill-opacity="1"></path><path clip-path="url(#clip940)" d="M143.992 1399.31 Q140.381 1399.31 138.552 1402.87 Q136.746 1406.41 136.746 1413.54 Q136.746 1420.65 138.552 1424.21 Q140.381 1427.75 143.992 1427.75 Q147.626 1427.75 149.431 1424.21 Q151.26 1420.65 151.26 1413.54 Q151.26 1406.41 149.431 1402.87 Q147.626 1399.31 143.992 1399.31 M143.992 1395.6 Q149.802 1395.6 152.857 1400.21 Q155.936 1404.79 155.936 1413.54 Q155.936 1422.27 152.857 1426.87 Q149.802 1431.46 143.992 1431.46 Q138.181 1431.46 135.103 1426.87 Q132.047 1422.27 132.047 1413.54 Q132.047 1404.79 135.103 1400.21 Q138.181 1395.6 143.992 1395.6 Z" fill="#000000" fill-rule="nonzero" fill-opacity="1"></path><path clip-path="url(#clip940)" d="M49.9875 1070.4 L79.6633 1070.4 L79.6633 1074.33 L49.9875 1074.33 L49.9875 1070.4 Z" fill="#000000" fill-rule="nonzero" fill-opacity="1"></path><path clip-path="url(#clip940)" d="M99.7557 1055.75 Q96.1447 1055.75 94.316 1059.31 Q92.5104 1062.85 92.5104 1069.98 Q92.5104 1077.09 94.316 1080.65 Q96.1447 1084.19 99.7557 1084.19 Q103.39 1084.19 105.196 1080.65 Q107.024 1077.09 107.024 1069.98 Q107.024 1062.85 105.196 1059.31 Q103.39 1055.75 99.7557 1055.75 M99.7557 1052.04 Q105.566 1052.04 108.621 1056.65 Q111.7 1061.23 111.7 1069.98 Q111.7 1078.71 108.621 1083.31 Q105.566 1087.9 99.7557 1087.9 Q93.9456 1087.9 90.8669 1083.31 Q87.8114 1078.71 87.8114 1069.98 Q87.8114 1061.23 90.8669 1056.65 Q93.9456 1052.04 99.7557 1052.04 Z" fill="#000000" fill-rule="nonzero" fill-opacity="1"></path><path clip-path="url(#clip940)" d="M119.918 1081.35 L124.802 1081.35 L124.802 1087.23 L119.918 1087.23 L119.918 1081.35 Z" fill="#000000" fill-rule="nonzero" fill-opacity="1"></path><path clip-path="url(#clip940)" d="M135.033 1052.67 L153.39 1052.67 L153.39 1056.6 L139.316 1056.6 L139.316 1065.07 Q140.334 1064.73 141.353 1064.56 Q142.371 1064.38 143.39 1064.38 Q149.177 1064.38 152.556 1067.55 Q155.936 1070.72 155.936 1076.14 Q155.936 1081.72 152.464 1084.82 Q148.992 1087.9 142.672 1087.9 Q140.496 1087.9 138.228 1087.53 Q135.982 1087.16 133.575 1086.42 L133.575 1081.72 Q135.658 1082.85 137.881 1083.41 Q140.103 1083.96 142.58 1083.96 Q146.584 1083.96 148.922 1081.86 Q151.26 1079.75 151.26 1076.14 Q151.26 1072.53 148.922 1070.42 Q146.584 1068.31 142.58 1068.31 Q140.705 1068.31 138.83 1068.73 Q136.978 1069.15 135.033 1070.03 L135.033 1052.67 Z" fill="#000000" fill-rule="nonzero" fill-opacity="1"></path><path clip-path="url(#clip940)" d="M98.7604 712.185 Q95.1493 712.185 93.3206 715.75 Q91.515 719.291 91.515 726.421 Q91.515 733.527 93.3206 737.092 Q95.1493 740.634 98.7604 740.634 Q102.395 740.634 104.2 737.092 Q106.029 733.527 106.029 726.421 Q106.029 719.291 104.2 715.75 Q102.395 712.185 98.7604 712.185 M98.7604 708.481 Q104.571 708.481 107.626 713.088 Q110.705 717.671 110.705 726.421 Q110.705 735.148 107.626 739.754 Q104.571 744.338 98.7604 744.338 Q92.9502 744.338 89.8715 739.754 Q86.816 735.148 86.816 726.421 Q86.816 717.671 89.8715 713.088 Q92.9502 708.481 98.7604 708.481 Z" fill="#000000" fill-rule="nonzero" fill-opacity="1"></path><path clip-path="url(#clip940)" d="M118.922 737.787 L123.807 737.787 L123.807 743.666 L118.922 743.666 L118.922 737.787 Z" fill="#000000" fill-rule="nonzero" fill-opacity="1"></path><path clip-path="url(#clip940)" d="M143.992 712.185 Q140.381 712.185 138.552 715.75 Q136.746 719.291 136.746 726.421 Q136.746 733.527 138.552 737.092 Q140.381 740.634 143.992 740.634 Q147.626 740.634 149.431 737.092 Q151.26 733.527 151.26 726.421 Q151.26 719.291 149.431 715.75 Q147.626 712.185 143.992 712.185 M143.992 708.481 Q149.802 708.481 152.857 713.088 Q155.936 717.671 155.936 726.421 Q155.936 735.148 152.857 739.754 Q149.802 744.338 143.992 744.338 Q138.181 744.338 135.103 739.754 Q132.047 735.148 132.047 726.421 Q132.047 717.671 135.103 713.088 Q138.181 708.481 143.992 708.481 Z" fill="#000000" fill-rule="nonzero" fill-opacity="1"></path><path clip-path="url(#clip940)" d="M99.7557 368.625 Q96.1447 368.625 94.316 372.189 Q92.5104 375.731 92.5104 382.861 Q92.5104 389.967 94.316 393.532 Q96.1447 397.074 99.7557 397.074 Q103.39 397.074 105.196 393.532 Q107.024 389.967 107.024 382.861 Q107.024 375.731 105.196 372.189 Q103.39 368.625 99.7557 368.625 M99.7557 364.921 Q105.566 364.921 108.621 369.527 Q111.7 374.111 111.7 382.861 Q111.7 391.587 108.621 396.194 Q105.566 400.777 99.7557 400.777 Q93.9456 400.777 90.8669 396.194 Q87.8114 391.587 87.8114 382.861 Q87.8114 374.111 90.8669 369.527 Q93.9456 364.921 99.7557 364.921 Z" fill="#000000" fill-rule="nonzero" fill-opacity="1"></path><path clip-path="url(#clip940)" d="M119.918 394.226 L124.802 394.226 L124.802 400.106 L119.918 400.106 L119.918 394.226 Z" fill="#000000" fill-rule="nonzero" fill-opacity="1"></path><path clip-path="url(#clip940)" d="M135.033 365.546 L153.39 365.546 L153.39 369.481 L139.316 369.481 L139.316 377.953 Q140.334 377.606 141.353 377.444 Q142.371 377.259 143.39 377.259 Q149.177 377.259 152.556 380.43 Q155.936 383.601 155.936 389.018 Q155.936 394.597 152.464 397.699 Q148.992 400.777 142.672 400.777 Q140.496 400.777 138.228 400.407 Q135.982 400.036 133.575 399.296 L133.575 394.597 Q135.658 395.731 137.881 396.286 Q140.103 396.842 142.58 396.842 Q146.584 396.842 148.922 394.736 Q151.26 392.629 151.26 389.018 Q151.26 385.407 148.922 383.3 Q146.584 381.194 142.58 381.194 Q140.705 381.194 138.83 381.611 Q136.978 382.027 135.033 382.907 L135.033 365.546 Z" fill="#000000" fill-rule="nonzero" fill-opacity="1"></path><path clip-path="url(#clip942)" d="M270.242 873.217 L284.361 749.924 L298.327 735.013 L312.139 528.436 L326.258 579.402 L340.377 487.578 L354.342 455.756 L368.155 400.872 L382.274 383.208 L396.393 444.79 L410.358 416.984 L424.17 456.564 L438.289 561.587 L452.408 537.001 L466.374 695.49 L480.339 789.138 L494.458 832.721 L508.577 987.613 L522.543 1285.87 L536.355 1546.7 L550.474 1584.58 L564.593 1241.39 L578.558 877.458 L592.371 890.607 L606.49 709.812 L620.609 618.756 L634.574 563.908 L648.386 585.027 L662.505 568.361 L676.624 598.638 L690.59 866.125 L704.555 875.88 L718.674 693.085 L732.793 692.741 L746.759 614.746 L760.571 609.507 L774.69 589.019 L788.809 643.952 L802.775 633.449 L816.587 692.361 L830.706 647.526 L844.825 791.313 L858.79 822.295 L872.602 840.438 L886.721 942.983 L900.84 902.305 L914.806 1040.65 L928.771 1149.15 L942.89 1323.93 L957.009 1474.05 L970.975 1216.24 L984.787 1179.31 L998.906 1079.99 L1013.03 1049.69 L1026.99 1038.65 L1040.8 999.167 L1054.92 1048.22 L1069.04 1118.73 L1083.01 1114.28 L1096.82 975.885 L1110.94 843.008 L1125.06 927.328 L1139.02 921.534 L1152.99 951.785 L1167.11 854.266 L1181.23 1219.56 L1195.19 1405.26 L1209 1317.71 L1223.12 979.698 L1237.24 990.069 L1251.21 846.02 L1265.02 735.338 L1279.14 818.887 L1293.26 669.753 L1307.22 799.812 L1321.03 819.543 L1335.15 637.517 L1349.27 1025.2 L1363.24 1013.35 L1377.2 758.67 L1391.32 760.61 L1405.44 851.073 L1419.41 813.324 L1433.22 750.33 L1447.34 991.342 L1461.46 909.821 L1475.42 863.412 L1489.23 854.684 L1503.35 906.343 L1517.47 793.773 L1531.44 838.892 L1545.25 809.072 L1559.37 815.403 L1573.49 873.249 L1587.45 818.239 L1601.42 936.635 L1615.54 877.83 L1629.66 935.495 L1643.62 920.808 L1657.44 982.827 L1671.55 1009.13 L1685.67 1092.54 L1699.64 1016.22 L1713.45 911.209 L1727.57 1084.26 L1741.69 1147.88 L1755.65 1019.66 L1769.47 1292.32 L1783.59 1566.47 L1797.7 1545.31 L1811.67 1338.67 L1825.64 1185.05 L1839.75 1166.93 L1853.87 1146.96 L1867.84 1060.7 L1881.65 1118.51 L1895.77 1213.54 L1909.89 1024.14 L1923.85 970.278 L1937.67 847.953 L1951.79 810.519 L1965.9 770.682 L1979.87 742.664 L1993.68 782.38 L2007.8 909.015 L2021.92 953.675 L2035.89 892.078 L2049.85 1180.59 L2063.97 1251.36 L2078.09 1343.34 L2092.06 1333.59 L2105.87 1019.14 L2119.99 860.206 L2134.11 842.339 L2148.07 823.394 L2161.88 798.385 L2176 765.597 L2190.12 792.62 L2204.09 861.87 L2217.9 953.539 L2232.02 1071.9 L2246.14 1226.4 L2260.1 1407.75 L2274.07 1621.5 L2288.19 1813.78 L2302.31 1741.31 L2316.27 1403.54 L2330.08 1374.89 L2344.2 1334.76 L2358.32 1089.64 L2372.29 1250.67 L2386.1 956.527 L2400.22 1036.1 L2414.34 1063.6 L2428.3 1011.72 L2442.11 1046.18 L2456.23 1150.09 L2470.35 1215.19 L2484.32 1355.85 L2498.28 1450.6 L2512.4 1731.56 L2526.52 1828.11 L2540.49 1761.87 L2554.3 1540.08 L2568.42 1310.42 L2582.54 1252.3 L2596.5 1261.13 L2610.32 1208.66 L2624.43 1150.08 L2638.55 1117.29 L2652.52 1127.12 L2666.33 1246.67 L2680.45 1237.88 L2680.45 1043.78 L2666.33 1011.37 L2652.52 1037.51 L2638.55 932.147 L2624.43 843.88 L2610.32 784.492 L2596.5 827.876 L2582.54 1055.05 L2568.42 1224.6 L2554.3 1246.76 L2540.49 1210.13 L2526.52 1192.3 L2512.4 1191.33 L2498.28 1233.18 L2484.32 1030.37 L2470.35 952.582 L2456.23 882.596 L2442.11 789.321 L2428.3 603.708 L2414.34 448.146 L2400.22 517.598 L2386.1 789.189 L2372.29 688.804 L2358.32 904.562 L2344.2 671.009 L2330.08 835.065 L2316.27 1143.78 L2302.31 1054.43 L2288.19 1061.87 L2274.07 1144.73 L2260.1 1129.16 L2246.14 1101.61 L2232.02 1023.4 L2217.9 896.723 L2204.09 764.847 L2190.12 612.645 L2176 443.852 L2161.88 273.054 L2148.07 245.179 L2134.11 354.476 L2119.99 569.457 L2105.87 737.837 L2092.06 675.384 L2078.09 734.887 L2063.97 759.847 L2049.85 704.809 L2035.89 724.804 L2021.92 339.449 L2007.8 245.261 L1993.68 410.005 L1979.87 507.705 L1965.9 614.887 L1951.79 689.779 L1937.67 739.457 L1923.85 725.755 L1909.89 847.95 L1895.77 788.412 L1881.65 893.635 L1867.84 906.729 L1853.87 821.114 L1839.75 879.02 L1825.64 986.357 L1811.67 1008.84 L1797.7 891.745 L1783.59 809.934 L1769.47 838.196 L1755.65 737.361 L1741.69 308.541 L1727.57 288.537 L1713.45 571.817 L1699.64 666.405 L1685.67 700.084 L1671.55 788.213 L1657.44 825.308 L1643.62 844.543 L1629.66 778.464 L1615.54 830.707 L1601.42 751.889 L1587.45 795.19 L1573.49 668.059 L1559.37 722.817 L1545.25 724.594 L1531.44 684.576 L1517.47 773.295 L1503.35 705.806 L1489.23 731.382 L1475.42 728.123 L1461.46 698.385 L1447.34 588.89 L1433.22 681.733 L1419.41 468.928 L1405.44 368.275 L1391.32 519.259 L1377.2 625.701 L1363.24 471.848 L1349.27 428.814 L1335.15 619.785 L1321.03 249.107 L1307.22 232.136 L1293.26 477.495 L1279.14 466.819 L1265.02 613.222 L1251.21 567.028 L1237.24 545.911 L1223.12 797.282 L1209 669.447 L1195.19 619.613 L1181.23 662.519 L1167.11 729.575 L1152.99 370.071 L1139.02 302.66 L1125.06 302.316 L1110.94 563.693 L1096.82 688.452 L1083.01 723.153 L1069.04 803.688 L1054.92 886.939 L1040.8 930.254 L1026.99 856.177 L1013.03 871.619 L998.906 899.581 L984.787 861.585 L970.975 983.442 L957.009 830.66 L942.89 901.064 L928.771 878.237 L914.806 848.878 L900.84 871.407 L886.721 711.39 L872.602 645.109 L858.79 440.761 L844.825 365.356 L830.706 523.493 L816.587 484.357 L802.775 509.255 L788.809 428.985 L774.69 488.725 L760.571 491.562 L746.759 496.713 L732.793 449.966 L718.674 548.476 L704.555 434.358 L690.59 400.084 L676.624 491.843 L662.505 357.747 L648.386 221.555 L634.574 221.341 L620.609 230.664 L606.49 207.683 L592.371 213.837 L578.558 597.668 L564.593 673.006 L550.474 611.077 L536.355 682.615 L522.543 775.973 L508.577 793.303 L494.458 672.011 L480.339 442.6 L466.374 350.909 L452.408 418.113 L438.289 323.918 L424.17 309.28 L410.358 208.565 L396.393 99.114 L382.274 171.548 L368.155 224.975 L354.342 225.432 L340.377 198.057 L326.258 201.62 L312.139 454.323 L298.327 464.499 L284.361 588.058 L270.242 871.275  Z" fill="#009af9" fill-rule="evenodd" fill-opacity="0.5"></path>
<polyline clip-path="url(#clip942)" style="stroke:#009af9; stroke-linecap:round; stroke-linejoin:round; stroke-width:4; stroke-opacity:1; fill:none" points="270.242,872.246 284.361,668.991 298.327,599.756 312.139,491.379 326.258,390.511 340.377,342.817 354.342,340.594 368.155,312.923 382.274,277.378 396.393,271.952 410.358,312.775 424.17,382.922 438.289,442.753 452.408,477.557 466.374,523.2 480.339,615.869 494.458,752.366 508.577,890.458 522.543,1030.92 536.355,1114.66 550.474,1097.83 564.593,957.197 578.558,737.563 592.371,552.222 606.49,458.747 620.609,424.71 634.574,392.624 648.386,403.291 662.505,463.054 676.624,545.241 690.59,633.104 704.555,655.119 718.674,620.78 732.793,571.354 746.759,555.729 760.571,550.535 774.69,538.872 788.809,536.468 802.775,571.352 816.587,588.359 830.706,585.509 844.825,578.334 858.79,631.528 872.602,742.773 886.721,827.187 900.84,886.856 914.806,944.764 928.771,1013.69 942.89,1112.5 957.009,1152.35 970.975,1099.84 984.787,1020.45 998.906,989.788 1013.03,960.654 1026.99,947.412 1040.8,964.71 1054.92,967.579 1069.04,961.208 1083.01,918.717 1096.82,832.168 1110.94,703.351 1125.06,614.822 1139.02,612.097 1152.99,660.928 1167.11,791.921 1181.23,941.038 1195.19,1012.44 1209,993.58 1223.12,888.49 1237.24,767.99 1251.21,706.524 1265.02,674.28 1279.14,642.853 1293.26,573.624 1307.22,515.974 1321.03,534.325 1335.15,628.651 1349.27,727.009 1363.24,742.597 1377.2,692.185 1391.32,639.935 1405.44,609.674 1419.41,641.126 1433.22,716.031 1447.34,790.116 1461.46,804.103 1475.42,795.767 1489.23,793.033 1503.35,806.074 1517.47,783.534 1531.44,761.734 1545.25,766.833 1559.37,769.11 1573.49,770.654 1587.45,806.714 1601.42,844.262 1615.54,854.269 1629.66,856.98 1643.62,882.675 1657.44,904.067 1671.55,898.674 1685.67,896.309 1699.64,841.311 1713.45,741.513 1727.57,686.4 1741.69,728.211 1755.65,878.509 1769.47,1065.26 1783.59,1188.2 1797.7,1218.53 1811.67,1173.76 1825.64,1085.7 1839.75,1022.98 1853.87,984.035 1867.84,983.714 1881.65,1006.07 1895.77,1000.97 1909.89,936.043 1923.85,848.016 1937.67,793.705 1951.79,750.149 1965.9,692.784 1979.87,625.184 1993.68,596.193 2007.8,577.138 2021.92,646.562 2035.89,808.441 2049.85,942.701 2063.97,1005.6 2078.09,1039.11 2092.06,1004.49 2105.87,878.49 2119.99,714.831 2134.11,598.407 2148.07,534.287 2161.88,535.72 2176,604.724 2190.12,702.633 2204.09,813.358 2217.9,925.131 2232.02,1047.65 2246.14,1164.01 2260.1,1268.46 2274.07,1383.11 2288.19,1437.83 2302.31,1397.87 2316.27,1273.66 2330.08,1104.98 2344.2,1002.89 2358.32,997.101 2372.29,969.739 2386.1,872.858 2400.22,776.85 2414.34,755.872 2428.3,807.712 2442.11,917.75 2456.23,1016.34 2470.35,1083.89 2484.32,1193.11 2498.28,1341.89 2512.4,1461.44 2526.52,1510.2 2540.49,1486 2554.3,1393.42 2568.42,1267.51 2582.54,1153.67 2596.5,1044.5 2610.32,996.576 2624.43,996.978 2638.55,1024.72 2652.52,1082.32 2666.33,1129.02 2680.45,1140.83 "></polyline>
<path clip-path="url(#clip940)" d="M1537.53 212.015 L2667.6 212.015 L2667.6 108.335 L1537.53 108.335  Z" fill="#ffffff" fill-rule="evenodd" fill-opacity="1"></path>
<polyline clip-path="url(#clip940)" style="stroke:#000000; stroke-linecap:round; stroke-linejoin:round; stroke-width:4; stroke-opacity:1; fill:none" points="1537.53,212.015 2667.6,212.015 2667.6,108.335 1537.53,108.335 1537.53,212.015 "></polyline>
<polyline clip-path="url(#clip940)" style="stroke:#009af9; stroke-linecap:round; stroke-linejoin:round; stroke-width:4; stroke-opacity:1; fill:none" points="1565.92,160.175 1736.24,160.175 "></polyline>
<path clip-path="url(#clip940)" d="M1764.63 142.895 L1786.48 142.895 L1786.48 146.83 L1769.31 146.83 L1769.31 157.062 L1785.76 157.062 L1785.76 160.997 L1769.31 160.997 L1769.31 173.52 L1786.9 173.52 L1786.9 177.455 L1764.63 177.455 L1764.63 142.895 Z" fill="#000000" fill-rule="nonzero" fill-opacity="1"></path><path clip-path="url(#clip940)" d="M1810.93 152.293 L1810.93 156.321 Q1809.12 155.395 1807.18 154.932 Q1805.23 154.469 1803.15 154.469 Q1799.98 154.469 1798.38 155.441 Q1796.81 156.414 1796.81 158.358 Q1796.81 159.84 1797.94 160.696 Q1799.07 161.529 1802.5 162.293 L1803.96 162.617 Q1808.5 163.59 1810.39 165.372 Q1812.31 167.131 1812.31 170.303 Q1812.31 173.914 1809.44 176.02 Q1806.6 178.127 1801.6 178.127 Q1799.51 178.127 1797.25 177.71 Q1795 177.316 1792.5 176.506 L1792.5 172.108 Q1794.86 173.335 1797.15 173.96 Q1799.44 174.562 1801.69 174.562 Q1804.7 174.562 1806.32 173.543 Q1807.94 172.502 1807.94 170.627 Q1807.94 168.89 1806.76 167.965 Q1805.6 167.039 1801.64 166.182 L1800.16 165.835 Q1796.2 165.002 1794.44 163.289 Q1792.69 161.553 1792.69 158.543 Q1792.69 154.886 1795.28 152.895 Q1797.87 150.904 1802.64 150.904 Q1805 150.904 1807.08 151.252 Q1809.17 151.599 1810.93 152.293 Z" fill="#000000" fill-rule="nonzero" fill-opacity="1"></path><path clip-path="url(#clip940)" d="M1823.31 144.168 L1823.31 151.529 L1832.08 151.529 L1832.08 154.84 L1823.31 154.84 L1823.31 168.914 Q1823.31 172.085 1824.17 172.988 Q1825.05 173.89 1827.71 173.89 L1832.08 173.89 L1832.08 177.455 L1827.71 177.455 Q1822.78 177.455 1820.9 175.627 Q1819.03 173.775 1819.03 168.914 L1819.03 154.84 L1815.9 154.84 L1815.9 151.529 L1819.03 151.529 L1819.03 144.168 L1823.31 144.168 Z" fill="#000000" fill-rule="nonzero" fill-opacity="1"></path><path clip-path="url(#clip940)" d="M1837.68 151.529 L1841.94 151.529 L1841.94 177.455 L1837.68 177.455 L1837.68 151.529 M1837.68 141.437 L1841.94 141.437 L1841.94 146.83 L1837.68 146.83 L1837.68 141.437 Z" fill="#000000" fill-rule="nonzero" fill-opacity="1"></path><path clip-path="url(#clip940)" d="M1871.04 156.506 Q1872.64 153.636 1874.86 152.27 Q1877.08 150.904 1880.09 150.904 Q1884.14 150.904 1886.34 153.752 Q1888.54 156.576 1888.54 161.807 L1888.54 177.455 L1884.26 177.455 L1884.26 161.946 Q1884.26 158.219 1882.94 156.414 Q1881.62 154.608 1878.91 154.608 Q1875.6 154.608 1873.68 156.807 Q1871.76 159.006 1871.76 162.803 L1871.76 177.455 L1867.48 177.455 L1867.48 161.946 Q1867.48 158.196 1866.16 156.414 Q1864.84 154.608 1862.08 154.608 Q1858.82 154.608 1856.9 156.83 Q1854.98 159.029 1854.98 162.803 L1854.98 177.455 L1850.69 177.455 L1850.69 151.529 L1854.98 151.529 L1854.98 155.557 Q1856.43 153.173 1858.47 152.039 Q1860.51 150.904 1863.31 150.904 Q1866.13 150.904 1868.1 152.34 Q1870.09 153.775 1871.04 156.506 Z" fill="#000000" fill-rule="nonzero" fill-opacity="1"></path><path clip-path="url(#clip940)" d="M1908.82 164.423 Q1903.66 164.423 1901.67 165.603 Q1899.68 166.784 1899.68 169.631 Q1899.68 171.9 1901.16 173.242 Q1902.66 174.562 1905.23 174.562 Q1908.77 174.562 1910.9 172.062 Q1913.05 169.539 1913.05 165.372 L1913.05 164.423 L1908.82 164.423 M1917.31 162.664 L1917.31 177.455 L1913.05 177.455 L1913.05 173.52 Q1911.6 175.881 1909.42 177.015 Q1907.24 178.127 1904.1 178.127 Q1900.12 178.127 1897.75 175.904 Q1895.42 173.659 1895.42 169.909 Q1895.42 165.534 1898.33 163.312 Q1901.27 161.09 1907.08 161.09 L1913.05 161.09 L1913.05 160.673 Q1913.05 157.733 1911.11 156.136 Q1909.19 154.516 1905.69 154.516 Q1903.47 154.516 1901.37 155.048 Q1899.26 155.58 1897.31 156.645 L1897.31 152.71 Q1899.65 151.807 1901.85 151.367 Q1904.05 150.904 1906.13 150.904 Q1911.76 150.904 1914.54 153.821 Q1917.31 156.738 1917.31 162.664 Z" fill="#000000" fill-rule="nonzero" fill-opacity="1"></path><path clip-path="url(#clip940)" d="M1930.3 144.168 L1930.3 151.529 L1939.07 151.529 L1939.07 154.84 L1930.3 154.84 L1930.3 168.914 Q1930.3 172.085 1931.16 172.988 Q1932.04 173.89 1934.7 173.89 L1939.07 173.89 L1939.07 177.455 L1934.7 177.455 Q1929.77 177.455 1927.89 175.627 Q1926.02 173.775 1926.02 168.914 L1926.02 154.84 L1922.89 154.84 L1922.89 151.529 L1926.02 151.529 L1926.02 144.168 L1930.3 144.168 Z" fill="#000000" fill-rule="nonzero" fill-opacity="1"></path><path clip-path="url(#clip940)" d="M1966.85 163.428 L1966.85 165.511 L1947.27 165.511 Q1947.55 169.909 1949.91 172.224 Q1952.29 174.515 1956.53 174.515 Q1958.98 174.515 1961.27 173.914 Q1963.59 173.312 1965.86 172.108 L1965.86 176.136 Q1963.56 177.108 1961.16 177.617 Q1958.75 178.127 1956.27 178.127 Q1950.07 178.127 1946.43 174.515 Q1942.82 170.904 1942.82 164.747 Q1942.82 158.381 1946.25 154.654 Q1949.7 150.904 1955.53 150.904 Q1960.76 150.904 1963.8 154.284 Q1966.85 157.641 1966.85 163.428 M1962.59 162.178 Q1962.55 158.682 1960.62 156.599 Q1958.73 154.516 1955.58 154.516 Q1952.01 154.516 1949.86 156.529 Q1947.73 158.543 1947.41 162.201 L1962.59 162.178 Z" fill="#000000" fill-rule="nonzero" fill-opacity="1"></path><path clip-path="url(#clip940)" d="M1990.9 155.465 L1990.9 141.437 L1995.16 141.437 L1995.16 177.455 L1990.9 177.455 L1990.9 173.566 Q1989.56 175.881 1987.5 177.015 Q1985.46 178.127 1982.59 178.127 Q1977.89 178.127 1974.93 174.377 Q1971.99 170.627 1971.99 164.516 Q1971.99 158.404 1974.93 154.654 Q1977.89 150.904 1982.59 150.904 Q1985.46 150.904 1987.5 152.039 Q1989.56 153.15 1990.9 155.465 M1976.39 164.516 Q1976.39 169.215 1978.31 171.9 Q1980.25 174.562 1983.63 174.562 Q1987.01 174.562 1988.96 171.9 Q1990.9 169.215 1990.9 164.516 Q1990.9 159.816 1988.96 157.154 Q1987.01 154.469 1983.63 154.469 Q1980.25 154.469 1978.31 157.154 Q1976.39 159.816 1976.39 164.516 Z" fill="#000000" fill-rule="nonzero" fill-opacity="1"></path><path clip-path="url(#clip940)" d="M2023.22 144.168 L2023.22 151.529 L2031.99 151.529 L2031.99 154.84 L2023.22 154.84 L2023.22 168.914 Q2023.22 172.085 2024.07 172.988 Q2024.95 173.89 2027.61 173.89 L2031.99 173.89 L2031.99 177.455 L2027.61 177.455 Q2022.68 177.455 2020.81 175.627 Q2018.93 173.775 2018.93 168.914 L2018.93 154.84 L2015.81 154.84 L2015.81 151.529 L2018.93 151.529 L2018.93 144.168 L2023.22 144.168 Z" fill="#000000" fill-rule="nonzero" fill-opacity="1"></path><path clip-path="url(#clip940)" d="M2037.59 151.529 L2041.85 151.529 L2041.85 177.455 L2037.59 177.455 L2037.59 151.529 M2037.59 141.437 L2041.85 141.437 L2041.85 146.83 L2037.59 146.83 L2037.59 141.437 Z" fill="#000000" fill-rule="nonzero" fill-opacity="1"></path><path clip-path="url(#clip940)" d="M2070.95 156.506 Q2072.54 153.636 2074.77 152.27 Q2076.99 150.904 2080 150.904 Q2084.05 150.904 2086.25 153.752 Q2088.45 156.576 2088.45 161.807 L2088.45 177.455 L2084.17 177.455 L2084.17 161.946 Q2084.17 158.219 2082.85 156.414 Q2081.53 154.608 2078.82 154.608 Q2075.51 154.608 2073.59 156.807 Q2071.67 159.006 2071.67 162.803 L2071.67 177.455 L2067.38 177.455 L2067.38 161.946 Q2067.38 158.196 2066.06 156.414 Q2064.74 154.608 2061.99 154.608 Q2058.73 154.608 2056.8 156.83 Q2054.88 159.029 2054.88 162.803 L2054.88 177.455 L2050.6 177.455 L2050.6 151.529 L2054.88 151.529 L2054.88 155.557 Q2056.34 153.173 2058.38 152.039 Q2060.42 150.904 2063.22 150.904 Q2066.04 150.904 2068.01 152.34 Q2070 153.775 2070.95 156.506 Z" fill="#000000" fill-rule="nonzero" fill-opacity="1"></path><path clip-path="url(#clip940)" d="M2119.12 163.428 L2119.12 165.511 L2099.54 165.511 Q2099.81 169.909 2102.17 172.224 Q2104.56 174.515 2108.79 174.515 Q2111.25 174.515 2113.54 173.914 Q2115.85 173.312 2118.12 172.108 L2118.12 176.136 Q2115.83 177.108 2113.42 177.617 Q2111.02 178.127 2108.54 178.127 Q2102.34 178.127 2098.7 174.515 Q2095.09 170.904 2095.09 164.747 Q2095.09 158.381 2098.52 154.654 Q2101.97 150.904 2107.8 150.904 Q2113.03 150.904 2116.06 154.284 Q2119.12 157.641 2119.12 163.428 M2114.86 162.178 Q2114.81 158.682 2112.89 156.599 Q2110.99 154.516 2107.85 154.516 Q2104.28 154.516 2102.13 156.529 Q2100 158.543 2099.67 162.201 L2114.86 162.178 Z" fill="#000000" fill-rule="nonzero" fill-opacity="1"></path><path clip-path="url(#clip940)" d="M2123.96 162.571 L2136.43 162.571 L2136.43 166.367 L2123.96 166.367 L2123.96 162.571 Z" fill="#000000" fill-rule="nonzero" fill-opacity="1"></path><path clip-path="url(#clip940)" d="M2138.89 151.529 L2143.4 151.529 L2151.5 173.289 L2159.6 151.529 L2164.12 151.529 L2154.4 177.455 L2148.61 177.455 L2138.89 151.529 Z" fill="#000000" fill-rule="nonzero" fill-opacity="1"></path><path clip-path="url(#clip940)" d="M2181.78 164.423 Q2176.62 164.423 2174.63 165.603 Q2172.64 166.784 2172.64 169.631 Q2172.64 171.9 2174.12 173.242 Q2175.62 174.562 2178.19 174.562 Q2181.73 174.562 2183.86 172.062 Q2186.02 169.539 2186.02 165.372 L2186.02 164.423 L2181.78 164.423 M2190.28 162.664 L2190.28 177.455 L2186.02 177.455 L2186.02 173.52 Q2184.56 175.881 2182.38 177.015 Q2180.21 178.127 2177.06 178.127 Q2173.08 178.127 2170.72 175.904 Q2168.38 173.659 2168.38 169.909 Q2168.38 165.534 2171.29 163.312 Q2174.23 161.09 2180.04 161.09 L2186.02 161.09 L2186.02 160.673 Q2186.02 157.733 2184.07 156.136 Q2182.15 154.516 2178.66 154.516 Q2176.43 154.516 2174.33 155.048 Q2172.22 155.58 2170.28 156.645 L2170.28 152.71 Q2172.61 151.807 2174.81 151.367 Q2177.01 150.904 2179.1 150.904 Q2184.72 150.904 2187.5 153.821 Q2190.28 156.738 2190.28 162.664 Z" fill="#000000" fill-rule="nonzero" fill-opacity="1"></path><path clip-path="url(#clip940)" d="M2214.07 155.511 Q2213.35 155.094 2212.5 154.909 Q2211.66 154.701 2210.65 154.701 Q2207.03 154.701 2205.09 157.062 Q2203.17 159.4 2203.17 163.798 L2203.17 177.455 L2198.89 177.455 L2198.89 151.529 L2203.17 151.529 L2203.17 155.557 Q2204.51 153.196 2206.66 152.062 Q2208.82 150.904 2211.9 150.904 Q2212.34 150.904 2212.87 150.974 Q2213.4 151.02 2214.05 151.136 L2214.07 155.511 Z" fill="#000000" fill-rule="nonzero" fill-opacity="1"></path><path clip-path="url(#clip940)" d="M2229.33 179.863 Q2227.52 184.492 2225.81 185.904 Q2224.09 187.316 2221.22 187.316 L2217.82 187.316 L2217.82 183.752 L2220.32 183.752 Q2222.08 183.752 2223.05 182.918 Q2224.03 182.085 2225.21 178.983 L2225.97 177.039 L2215.48 151.529 L2220 151.529 L2228.1 171.807 L2236.2 151.529 L2240.72 151.529 L2229.33 179.863 Z" fill="#000000" fill-rule="nonzero" fill-opacity="1"></path><path clip-path="url(#clip940)" d="M2246.59 151.529 L2250.85 151.529 L2250.85 177.455 L2246.59 177.455 L2246.59 151.529 M2246.59 141.437 L2250.85 141.437 L2250.85 146.83 L2246.59 146.83 L2246.59 141.437 Z" fill="#000000" fill-rule="nonzero" fill-opacity="1"></path><path clip-path="url(#clip940)" d="M2281.32 161.807 L2281.32 177.455 L2277.06 177.455 L2277.06 161.946 Q2277.06 158.266 2275.62 156.437 Q2274.19 154.608 2271.32 154.608 Q2267.87 154.608 2265.88 156.807 Q2263.89 159.006 2263.89 162.803 L2263.89 177.455 L2259.6 177.455 L2259.6 151.529 L2263.89 151.529 L2263.89 155.557 Q2265.41 153.219 2267.47 152.062 Q2269.56 150.904 2272.27 150.904 Q2276.73 150.904 2279.03 153.682 Q2281.32 156.437 2281.32 161.807 Z" fill="#000000" fill-rule="nonzero" fill-opacity="1"></path><path clip-path="url(#clip940)" d="M2306.87 164.191 Q2306.87 159.562 2304.95 157.016 Q2303.05 154.469 2299.6 154.469 Q2296.18 154.469 2294.26 157.016 Q2292.36 159.562 2292.36 164.191 Q2292.36 168.798 2294.26 171.344 Q2296.18 173.89 2299.6 173.89 Q2303.05 173.89 2304.95 171.344 Q2306.87 168.798 2306.87 164.191 M2311.13 174.238 Q2311.13 180.858 2308.19 184.076 Q2305.25 187.316 2299.19 187.316 Q2296.94 187.316 2294.95 186.969 Q2292.96 186.645 2291.09 185.951 L2291.09 181.807 Q2292.96 182.826 2294.79 183.312 Q2296.62 183.798 2298.52 183.798 Q2302.71 183.798 2304.79 181.599 Q2306.87 179.423 2306.87 175.002 L2306.87 172.895 Q2305.55 175.187 2303.49 176.321 Q2301.43 177.455 2298.56 177.455 Q2293.79 177.455 2290.88 173.821 Q2287.96 170.187 2287.96 164.191 Q2287.96 158.173 2290.88 154.539 Q2293.79 150.904 2298.56 150.904 Q2301.43 150.904 2303.49 152.039 Q2305.55 153.173 2306.87 155.465 L2306.87 151.529 L2311.13 151.529 L2311.13 174.238 Z" fill="#000000" fill-rule="nonzero" fill-opacity="1"></path><path clip-path="url(#clip940)" d="M2346.71 147.502 L2340.37 164.701 L2353.08 164.701 L2346.71 147.502 M2344.07 142.895 L2349.37 142.895 L2362.54 177.455 L2357.68 177.455 L2354.53 168.59 L2338.96 168.59 L2335.81 177.455 L2330.88 177.455 L2344.07 142.895 Z" fill="#000000" fill-rule="nonzero" fill-opacity="1"></path><path clip-path="url(#clip940)" d="M2372.27 146.738 L2372.27 173.613 L2377.91 173.613 Q2385.07 173.613 2388.38 170.372 Q2391.71 167.131 2391.71 160.141 Q2391.71 153.196 2388.38 149.979 Q2385.07 146.738 2377.91 146.738 L2372.27 146.738 M2367.59 142.895 L2377.2 142.895 Q2387.24 142.895 2391.94 147.085 Q2396.64 151.252 2396.64 160.141 Q2396.64 169.076 2391.92 173.265 Q2387.2 177.455 2377.2 177.455 L2367.59 177.455 L2367.59 142.895 Z" fill="#000000" fill-rule="nonzero" fill-opacity="1"></path><path clip-path="url(#clip940)" d="M2435.51 152.293 L2435.51 156.321 Q2433.7 155.395 2431.76 154.932 Q2429.81 154.469 2427.73 154.469 Q2424.56 154.469 2422.96 155.441 Q2421.39 156.414 2421.39 158.358 Q2421.39 159.84 2422.52 160.696 Q2423.65 161.529 2427.08 162.293 L2428.54 162.617 Q2433.08 163.59 2434.97 165.372 Q2436.89 167.131 2436.89 170.303 Q2436.89 173.914 2434.02 176.02 Q2431.18 178.127 2426.18 178.127 Q2424.09 178.127 2421.83 177.71 Q2419.58 177.316 2417.08 176.506 L2417.08 172.108 Q2419.44 173.335 2421.73 173.96 Q2424.02 174.562 2426.27 174.562 Q2429.28 174.562 2430.9 173.543 Q2432.52 172.502 2432.52 170.627 Q2432.52 168.89 2431.34 167.965 Q2430.18 167.039 2426.22 166.182 L2424.74 165.835 Q2420.78 165.002 2419.02 163.289 Q2417.27 161.553 2417.27 158.543 Q2417.27 154.886 2419.86 152.895 Q2422.45 150.904 2427.22 150.904 Q2429.58 150.904 2431.66 151.252 Q2433.75 151.599 2435.51 152.293 Z" fill="#000000" fill-rule="nonzero" fill-opacity="1"></path><path clip-path="url(#clip940)" d="M2443.51 141.437 L2447.8 141.437 L2447.8 162.71 L2460.51 151.529 L2465.95 151.529 L2452.2 163.659 L2466.52 177.455 L2460.97 177.455 L2447.8 164.793 L2447.8 177.455 L2443.51 177.455 L2443.51 141.437 Z" fill="#000000" fill-rule="nonzero" fill-opacity="1"></path><path clip-path="url(#clip940)" d="M2491.62 163.428 L2491.62 165.511 L2472.03 165.511 Q2472.31 169.909 2474.67 172.224 Q2477.06 174.515 2481.29 174.515 Q2483.75 174.515 2486.04 173.914 Q2488.35 173.312 2490.62 172.108 L2490.62 176.136 Q2488.33 177.108 2485.92 177.617 Q2483.51 178.127 2481.04 178.127 Q2474.83 178.127 2471.2 174.515 Q2467.59 170.904 2467.59 164.747 Q2467.59 158.381 2471.01 154.654 Q2474.46 150.904 2480.3 150.904 Q2485.53 150.904 2488.56 154.284 Q2491.62 157.641 2491.62 163.428 M2487.36 162.178 Q2487.31 158.682 2485.39 156.599 Q2483.49 154.516 2480.34 154.516 Q2476.78 154.516 2474.63 156.529 Q2472.5 158.543 2472.17 162.201 L2487.36 162.178 Z" fill="#000000" fill-rule="nonzero" fill-opacity="1"></path><path clip-path="url(#clip940)" d="M2496.13 151.529 L2500.39 151.529 L2505.71 171.761 L2511.01 151.529 L2516.04 151.529 L2521.36 171.761 L2526.66 151.529 L2530.92 151.529 L2524.14 177.455 L2519.12 177.455 L2513.54 156.205 L2507.94 177.455 L2502.91 177.455 L2496.13 151.529 Z" fill="#000000" fill-rule="nonzero" fill-opacity="1"></path><path clip-path="url(#clip940)" d="M2558.93 161.807 L2558.93 177.455 L2554.67 177.455 L2554.67 161.946 Q2554.67 158.266 2553.24 156.437 Q2551.8 154.608 2548.93 154.608 Q2545.48 154.608 2543.49 156.807 Q2541.5 159.006 2541.5 162.803 L2541.5 177.455 L2537.22 177.455 L2537.22 151.529 L2541.5 151.529 L2541.5 155.557 Q2543.03 153.219 2545.09 152.062 Q2547.17 150.904 2549.88 150.904 Q2554.35 150.904 2556.64 153.682 Q2558.93 156.437 2558.93 161.807 Z" fill="#000000" fill-rule="nonzero" fill-opacity="1"></path><path clip-path="url(#clip940)" d="M2589.6 163.428 L2589.6 165.511 L2570.02 165.511 Q2570.3 169.909 2572.66 172.224 Q2575.04 174.515 2579.28 174.515 Q2581.73 174.515 2584.02 173.914 Q2586.34 173.312 2588.61 172.108 L2588.61 176.136 Q2586.32 177.108 2583.91 177.617 Q2581.5 178.127 2579.02 178.127 Q2572.82 178.127 2569.19 174.515 Q2565.57 170.904 2565.57 164.747 Q2565.57 158.381 2569 154.654 Q2572.45 150.904 2578.28 150.904 Q2583.51 150.904 2586.55 154.284 Q2589.6 157.641 2589.6 163.428 M2585.34 162.178 Q2585.3 158.682 2583.38 156.599 Q2581.48 154.516 2578.33 154.516 Q2574.76 154.516 2572.61 156.529 Q2570.48 158.543 2570.16 162.201 L2585.34 162.178 Z" fill="#000000" fill-rule="nonzero" fill-opacity="1"></path><path clip-path="url(#clip940)" d="M2613.12 152.293 L2613.12 156.321 Q2611.31 155.395 2609.37 154.932 Q2607.43 154.469 2605.34 154.469 Q2602.17 154.469 2600.57 155.441 Q2599 156.414 2599 158.358 Q2599 159.84 2600.13 160.696 Q2601.27 161.529 2604.69 162.293 L2606.15 162.617 Q2610.69 163.59 2612.59 165.372 Q2614.51 167.131 2614.51 170.303 Q2614.51 173.914 2611.64 176.02 Q2608.79 178.127 2603.79 178.127 Q2601.71 178.127 2599.44 177.71 Q2597.19 177.316 2594.69 176.506 L2594.69 172.108 Q2597.06 173.335 2599.35 173.96 Q2601.64 174.562 2603.88 174.562 Q2606.89 174.562 2608.51 173.543 Q2610.13 172.502 2610.13 170.627 Q2610.13 168.89 2608.95 167.965 Q2607.8 167.039 2603.84 166.182 L2602.36 165.835 Q2598.4 165.002 2596.64 163.289 Q2594.88 161.553 2594.88 158.543 Q2594.88 154.886 2597.47 152.895 Q2600.07 150.904 2604.83 150.904 Q2607.19 150.904 2609.28 151.252 Q2611.36 151.599 2613.12 152.293 Z" fill="#000000" fill-rule="nonzero" fill-opacity="1"></path><path clip-path="url(#clip940)" d="M2637.82 152.293 L2637.82 156.321 Q2636.01 155.395 2634.07 154.932 Q2632.13 154.469 2630.04 154.469 Q2626.87 154.469 2625.27 155.441 Q2623.7 156.414 2623.7 158.358 Q2623.7 159.84 2624.83 160.696 Q2625.97 161.529 2629.39 162.293 L2630.85 162.617 Q2635.39 163.59 2637.29 165.372 Q2639.21 167.131 2639.21 170.303 Q2639.21 173.914 2636.34 176.02 Q2633.49 178.127 2628.49 178.127 Q2626.41 178.127 2624.14 177.71 Q2621.89 177.316 2619.39 176.506 L2619.39 172.108 Q2621.75 173.335 2624.05 173.96 Q2626.34 174.562 2628.58 174.562 Q2631.59 174.562 2633.21 173.543 Q2634.83 172.502 2634.83 170.627 Q2634.83 168.89 2633.65 167.965 Q2632.5 167.039 2628.54 166.182 L2627.06 165.835 Q2623.1 165.002 2621.34 163.289 Q2619.58 161.553 2619.58 158.543 Q2619.58 154.886 2622.17 152.895 Q2624.76 150.904 2629.53 150.904 Q2631.89 150.904 2633.98 151.252 Q2636.06 151.599 2637.82 152.293 Z" fill="#000000" fill-rule="nonzero" fill-opacity="1"></path></svg>