<svg xmlns="http://www.w3.org/2000/svg" xmlns:xlink="http://www.w3.org/1999/xlink" width="600" height="400" viewBox="0 0 2400 1600">
<defs>
  <clipPath id="clip870">
    <rect x="0" y="0" width="2400" height="1600"></rect>
  </clipPath>
</defs>
<path clip-path="url(#clip870)" d="M0 1600 L2400 1600 L2400 0 L0 0  Z" fill="#ffffff" fill-rule="evenodd" fill-opacity="1"></path>
<defs>
  <clipPath id="clip871">
    <rect x="480" y="0" width="1681" height="1600"></rect>
  </clipPath>
</defs>
<path clip-path="url(#clip870)" d="M250.028 1423.18 L2352.76 1423.18 L2352.76 123.472 L250.028 123.472  Z" fill="#ffffff" fill-rule="evenodd" fill-opacity="1"></path>
<defs>
  <clipPath id="clip872">
    <rect x="250" y="123" width="2104" height="1301"></rect>
  </clipPath>
</defs>
<polyline clip-path="url(#clip872)" style="stroke:#000000; stroke-linecap:round; stroke-linejoin:round; stroke-width:2; stroke-opacity:0.1; fill:none" points="567.502,1423.18 567.502,123.472 "></polyline>
<polyline clip-path="url(#clip872)" style="stroke:#000000; stroke-linecap:round; stroke-linejoin:round; stroke-width:2; stroke-opacity:0.1; fill:none" points="934.447,1423.18 934.447,123.472 "></polyline>
<polyline clip-path="url(#clip872)" style="stroke:#000000; stroke-linecap:round; stroke-linejoin:round; stroke-width:2; stroke-opacity:0.1; fill:none" points="1301.39,1423.18 1301.39,123.472 "></polyline>
<polyline clip-path="url(#clip872)" style="stroke:#000000; stroke-linecap:round; stroke-linejoin:round; stroke-width:2; stroke-opacity:0.1; fill:none" points="1668.34,1423.18 1668.34,123.472 "></polyline>
<polyline clip-path="url(#clip872)" style="stroke:#000000; stroke-linecap:round; stroke-linejoin:round; stroke-width:2; stroke-opacity:0.1; fill:none" points="2035.28,1423.18 2035.28,123.472 "></polyline>
<polyline clip-path="url(#clip870)" style="stroke:#000000; stroke-linecap:round; stroke-linejoin:round; stroke-width:4; stroke-opacity:1; fill:none" points="250.028,1423.18 2352.76,1423.18 "></polyline>
<polyline clip-path="url(#clip870)" style="stroke:#000000; stroke-linecap:round; stroke-linejoin:round; stroke-width:4; stroke-opacity:1; fill:none" points="567.502,1423.18 567.502,1404.28 "></polyline>
<polyline clip-path="url(#clip870)" style="stroke:#000000; stroke-linecap:round; stroke-linejoin:round; stroke-width:4; stroke-opacity:1; fill:none" points="934.447,1423.18 934.447,1404.28 "></polyline>
<polyline clip-path="url(#clip870)" style="stroke:#000000; stroke-linecap:round; stroke-linejoin:round; stroke-width:4; stroke-opacity:1; fill:none" points="1301.39,1423.18 1301.39,1404.28 "></polyline>
<polyline clip-path="url(#clip870)" style="stroke:#000000; stroke-linecap:round; stroke-linejoin:round; stroke-width:4; stroke-opacity:1; fill:none" points="1668.34,1423.18 1668.34,1404.28 "></polyline>
<polyline clip-path="url(#clip870)" style="stroke:#000000; stroke-linecap:round; stroke-linejoin:round; stroke-width:4; stroke-opacity:1; fill:none" points="2035.28,1423.18 2035.28,1404.28 "></polyline>
<path clip-path="url(#clip870)" d="M513.787 1468.75 L543.463 1468.75 L543.463 1472.69 L513.787 1472.69 L513.787 1468.75 Z" fill="#000000" fill-rule="nonzero" fill-opacity="1"></path><path clip-path="url(#clip870)" d="M563.555 1454.1 Q559.944 1454.1 558.115 1457.66 Q556.31 1461.2 556.31 1468.33 Q556.31 1475.44 558.115 1479.01 Q559.944 1482.55 563.555 1482.55 Q567.189 1482.55 568.995 1479.01 Q570.823 1475.44 570.823 1468.33 Q570.823 1461.2 568.995 1457.66 Q567.189 1454.1 563.555 1454.1 M563.555 1450.39 Q569.365 1450.39 572.421 1455 Q575.499 1459.58 575.499 1468.33 Q575.499 1477.06 572.421 1481.67 Q569.365 1486.25 563.555 1486.25 Q557.745 1486.25 554.666 1481.67 Q551.611 1477.06 551.611 1468.33 Q551.611 1459.58 554.666 1455 Q557.745 1450.39 563.555 1450.39 Z" fill="#000000" fill-rule="nonzero" fill-opacity="1"></path><path clip-path="url(#clip870)" d="M583.717 1479.7 L588.601 1479.7 L588.601 1485.58 L583.717 1485.58 L583.717 1479.7 Z" fill="#000000" fill-rule="nonzero" fill-opacity="1"></path><path clip-path="url(#clip870)" d="M611.633 1455.09 L599.828 1473.54 L611.633 1473.54 L611.633 1455.09 M610.407 1451.02 L616.286 1451.02 L616.286 1473.54 L621.217 1473.54 L621.217 1477.43 L616.286 1477.43 L616.286 1485.58 L611.633 1485.58 L611.633 1477.43 L596.032 1477.43 L596.032 1472.92 L610.407 1451.02 Z" fill="#000000" fill-rule="nonzero" fill-opacity="1"></path><path clip-path="url(#clip870)" d="M881.774 1468.75 L911.449 1468.75 L911.449 1472.69 L881.774 1472.69 L881.774 1468.75 Z" fill="#000000" fill-rule="nonzero" fill-opacity="1"></path><path clip-path="url(#clip870)" d="M931.542 1454.1 Q927.931 1454.1 926.102 1457.66 Q924.296 1461.2 924.296 1468.33 Q924.296 1475.44 926.102 1479.01 Q927.931 1482.55 931.542 1482.55 Q935.176 1482.55 936.982 1479.01 Q938.81 1475.44 938.81 1468.33 Q938.81 1461.2 936.982 1457.66 Q935.176 1454.1 931.542 1454.1 M931.542 1450.39 Q937.352 1450.39 940.407 1455 Q943.486 1459.58 943.486 1468.33 Q943.486 1477.06 940.407 1481.67 Q937.352 1486.25 931.542 1486.25 Q925.732 1486.25 922.653 1481.67 Q919.597 1477.06 919.597 1468.33 Q919.597 1459.58 922.653 1455 Q925.732 1450.39 931.542 1450.39 Z" fill="#000000" fill-rule="nonzero" fill-opacity="1"></path><path clip-path="url(#clip870)" d="M951.704 1479.7 L956.588 1479.7 L956.588 1485.58 L951.704 1485.58 L951.704 1479.7 Z" fill="#000000" fill-rule="nonzero" fill-opacity="1"></path><path clip-path="url(#clip870)" d="M970.801 1481.64 L987.12 1481.64 L987.12 1485.58 L965.176 1485.58 L965.176 1481.64 Q967.838 1478.89 972.421 1474.26 Q977.028 1469.61 978.208 1468.27 Q980.454 1465.74 981.333 1464.01 Q982.236 1462.25 982.236 1460.56 Q982.236 1457.8 980.292 1456.07 Q978.37 1454.33 975.268 1454.33 Q973.069 1454.33 970.616 1455.09 Q968.185 1455.86 965.407 1457.41 L965.407 1452.69 Q968.231 1451.55 970.685 1450.97 Q973.139 1450.39 975.176 1450.39 Q980.546 1450.39 983.741 1453.08 Q986.935 1455.77 986.935 1460.26 Q986.935 1462.39 986.125 1464.31 Q985.338 1466.2 983.231 1468.8 Q982.653 1469.47 979.551 1472.69 Q976.449 1475.88 970.801 1481.64 Z" fill="#000000" fill-rule="nonzero" fill-opacity="1"></path><path clip-path="url(#clip870)" d="M1278.78 1454.1 Q1275.17 1454.1 1273.34 1457.66 Q1271.53 1461.2 1271.53 1468.33 Q1271.53 1475.44 1273.34 1479.01 Q1275.17 1482.55 1278.78 1482.55 Q1282.41 1482.55 1284.22 1479.01 Q1286.04 1475.44 1286.04 1468.33 Q1286.04 1461.2 1284.22 1457.66 Q1282.41 1454.1 1278.78 1454.1 M1278.78 1450.39 Q1284.59 1450.39 1287.64 1455 Q1290.72 1459.58 1290.72 1468.33 Q1290.72 1477.06 1287.64 1481.67 Q1284.59 1486.25 1278.78 1486.25 Q1272.97 1486.25 1269.89 1481.67 Q1266.83 1477.06 1266.83 1468.33 Q1266.83 1459.58 1269.89 1455 Q1272.97 1450.39 1278.78 1450.39 Z" fill="#000000" fill-rule="nonzero" fill-opacity="1"></path><path clip-path="url(#clip870)" d="M1298.94 1479.7 L1303.82 1479.7 L1303.82 1485.58 L1298.94 1485.58 L1298.94 1479.7 Z" fill="#000000" fill-rule="nonzero" fill-opacity="1"></path><path clip-path="url(#clip870)" d="M1324.01 1454.1 Q1320.4 1454.1 1318.57 1457.66 Q1316.76 1461.2 1316.76 1468.33 Q1316.76 1475.44 1318.57 1479.01 Q1320.4 1482.55 1324.01 1482.55 Q1327.64 1482.55 1329.45 1479.01 Q1331.28 1475.44 1331.28 1468.33 Q1331.28 1461.2 1329.45 1457.66 Q1327.64 1454.1 1324.01 1454.1 M1324.01 1450.39 Q1329.82 1450.39 1332.87 1455 Q1335.95 1459.58 1335.95 1468.33 Q1335.95 1477.06 1332.87 1481.67 Q1329.82 1486.25 1324.01 1486.25 Q1318.2 1486.25 1315.12 1481.67 Q1312.06 1477.06 1312.06 1468.33 Q1312.06 1459.58 1315.12 1455 Q1318.2 1450.39 1324.01 1450.39 Z" fill="#000000" fill-rule="nonzero" fill-opacity="1"></path><path clip-path="url(#clip870)" d="M1646.52 1454.1 Q1642.91 1454.1 1641.08 1457.66 Q1639.27 1461.2 1639.27 1468.33 Q1639.27 1475.44 1641.08 1479.01 Q1642.91 1482.55 1646.52 1482.55 Q1650.15 1482.55 1651.96 1479.01 Q1653.79 1475.44 1653.79 1468.33 Q1653.79 1461.2 1651.96 1457.66 Q1650.15 1454.1 1646.52 1454.1 M1646.52 1450.39 Q1652.33 1450.39 1655.39 1455 Q1658.46 1459.58 1658.46 1468.33 Q1658.46 1477.06 1655.39 1481.67 Q1652.33 1486.25 1646.52 1486.25 Q1640.71 1486.25 1637.63 1481.67 Q1634.58 1477.06 1634.58 1468.33 Q1634.58 1459.58 1637.63 1455 Q1640.71 1450.39 1646.52 1450.39 Z" fill="#000000" fill-rule="nonzero" fill-opacity="1"></path><path clip-path="url(#clip870)" d="M1666.68 1479.7 L1671.57 1479.7 L1671.57 1485.58 L1666.68 1485.58 L1666.68 1479.7 Z" fill="#000000" fill-rule="nonzero" fill-opacity="1"></path><path clip-path="url(#clip870)" d="M1685.78 1481.64 L1702.1 1481.64 L1702.1 1485.58 L1680.15 1485.58 L1680.15 1481.64 Q1682.82 1478.89 1687.4 1474.26 Q1692.01 1469.61 1693.19 1468.27 Q1695.43 1465.74 1696.31 1464.01 Q1697.21 1462.25 1697.21 1460.56 Q1697.21 1457.8 1695.27 1456.07 Q1693.35 1454.33 1690.25 1454.33 Q1688.05 1454.33 1685.59 1455.09 Q1683.16 1455.86 1680.39 1457.41 L1680.39 1452.69 Q1683.21 1451.55 1685.66 1450.97 Q1688.12 1450.39 1690.15 1450.39 Q1695.52 1450.39 1698.72 1453.08 Q1701.91 1455.77 1701.91 1460.26 Q1701.91 1462.39 1701.1 1464.31 Q1700.32 1466.2 1698.21 1468.8 Q1697.63 1469.47 1694.53 1472.69 Q1691.43 1475.88 1685.78 1481.64 Z" fill="#000000" fill-rule="nonzero" fill-opacity="1"></path><path clip-path="url(#clip870)" d="M2012.42 1454.1 Q2008.81 1454.1 2006.98 1457.66 Q2005.18 1461.2 2005.18 1468.33 Q2005.18 1475.44 2006.98 1479.01 Q2008.81 1482.55 2012.42 1482.55 Q2016.06 1482.55 2017.86 1479.01 Q2019.69 1475.44 2019.69 1468.33 Q2019.69 1461.2 2017.86 1457.66 Q2016.06 1454.1 2012.42 1454.1 M2012.42 1450.39 Q2018.23 1450.39 2021.29 1455 Q2024.37 1459.58 2024.37 1468.33 Q2024.37 1477.06 2021.29 1481.67 Q2018.23 1486.25 2012.42 1486.25 Q2006.61 1486.25 2003.53 1481.67 Q2000.48 1477.06 2000.48 1468.33 Q2000.48 1459.58 2003.53 1455 Q2006.61 1450.39 2012.42 1450.39 Z" fill="#000000" fill-rule="nonzero" fill-opacity="1"></path><path clip-path="url(#clip870)" d="M2032.59 1479.7 L2037.47 1479.7 L2037.47 1485.58 L2032.59 1485.58 L2032.59 1479.7 Z" fill="#000000" fill-rule="nonzero" fill-opacity="1"></path><path clip-path="url(#clip870)" d="M2060.5 1455.09 L2048.7 1473.54 L2060.5 1473.54 L2060.5 1455.09 M2059.28 1451.02 L2065.15 1451.02 L2065.15 1473.54 L2070.09 1473.54 L2070.09 1477.43 L2065.15 1477.43 L2065.15 1485.58 L2060.5 1485.58 L2060.5 1477.43 L2044.9 1477.43 L2044.9 1472.92 L2059.28 1451.02 Z" fill="#000000" fill-rule="nonzero" fill-opacity="1"></path><path clip-path="url(#clip870)" d="M755.119 1520.52 L761.548 1520.52 L761.548 1562.63 L784.688 1562.63 L784.688 1568.04 L755.119 1568.04 L755.119 1520.52 Z" fill="#000000" fill-rule="nonzero" fill-opacity="1"></path><path clip-path="url(#clip870)" d="M820.527 1548.76 L820.527 1551.62 L793.6 1551.62 Q793.982 1557.67 797.228 1560.85 Q800.506 1564 806.331 1564 Q809.705 1564 812.856 1563.17 Q816.039 1562.35 819.158 1560.69 L819.158 1566.23 Q816.007 1567.57 812.697 1568.27 Q809.387 1568.97 805.981 1568.97 Q797.451 1568.97 792.454 1564 Q787.489 1559.04 787.489 1550.57 Q787.489 1541.82 792.199 1536.69 Q796.942 1531.54 804.962 1531.54 Q812.156 1531.54 816.325 1536.18 Q820.527 1540.8 820.527 1548.76 M814.67 1547.04 Q814.606 1542.23 811.965 1539.37 Q809.355 1536.5 805.026 1536.5 Q800.124 1536.5 797.164 1539.27 Q794.236 1542.04 793.791 1547.07 L814.67 1547.04 Z" fill="#000000" fill-rule="nonzero" fill-opacity="1"></path><path clip-path="url(#clip870)" d="M825.937 1532.4 L832.144 1532.4 L843.284 1562.31 L854.424 1532.4 L860.63 1532.4 L847.263 1568.04 L839.305 1568.04 L825.937 1532.4 Z" fill="#000000" fill-rule="nonzero" fill-opacity="1"></path><path clip-path="url(#clip870)" d="M899.207 1548.76 L899.207 1551.62 L872.28 1551.62 Q872.662 1557.67 875.908 1560.85 Q879.187 1564 885.011 1564 Q888.385 1564 891.536 1563.17 Q894.719 1562.35 897.838 1560.69 L897.838 1566.23 Q894.687 1567.57 891.377 1568.27 Q888.067 1568.97 884.661 1568.97 Q876.131 1568.97 871.134 1564 Q866.169 1559.04 866.169 1550.57 Q866.169 1541.82 870.879 1536.69 Q875.622 1531.54 883.643 1531.54 Q890.836 1531.54 895.005 1536.18 Q899.207 1540.8 899.207 1548.76 M893.35 1547.04 Q893.287 1542.23 890.645 1539.37 Q888.035 1536.5 883.706 1536.5 Q878.805 1536.5 875.845 1539.27 Q872.916 1542.04 872.471 1547.07 L893.35 1547.04 Z" fill="#000000" fill-rule="nonzero" fill-opacity="1"></path><path clip-path="url(#clip870)" d="M908.819 1518.52 L914.675 1518.52 L914.675 1568.04 L908.819 1568.04 L908.819 1518.52 Z" fill="#000000" fill-rule="nonzero" fill-opacity="1"></path><path clip-path="url(#clip870)" d="M961.463 1536.5 Q956.753 1536.5 954.015 1540.19 Q951.278 1543.85 951.278 1550.25 Q951.278 1556.65 953.984 1560.34 Q956.721 1564 961.463 1564 Q966.142 1564 968.879 1560.31 Q971.617 1556.62 971.617 1550.25 Q971.617 1543.92 968.879 1540.23 Q966.142 1536.5 961.463 1536.5 M961.463 1531.54 Q969.102 1531.54 973.463 1536.5 Q977.823 1541.47 977.823 1550.25 Q977.823 1559 973.463 1564 Q969.102 1568.97 961.463 1568.97 Q953.793 1568.97 949.432 1564 Q945.103 1559 945.103 1550.25 Q945.103 1541.47 949.432 1536.5 Q953.793 1531.54 961.463 1531.54 Z" fill="#000000" fill-rule="nonzero" fill-opacity="1"></path><path clip-path="url(#clip870)" d="M1005.58 1518.52 L1005.58 1523.39 L999.976 1523.39 Q996.825 1523.39 995.583 1524.66 Q994.374 1525.93 994.374 1529.24 L994.374 1532.4 L1004.02 1532.4 L1004.02 1536.95 L994.374 1536.95 L994.374 1568.04 L988.486 1568.04 L988.486 1536.95 L982.884 1536.95 L982.884 1532.4 L988.486 1532.4 L988.486 1529.91 Q988.486 1523.96 991.255 1521.26 Q994.024 1518.52 1000.04 1518.52 L1005.58 1518.52 Z" fill="#000000" fill-rule="nonzero" fill-opacity="1"></path><path clip-path="url(#clip870)" d="M1036.87 1562.7 L1036.87 1581.6 L1030.98 1581.6 L1030.98 1532.4 L1036.87 1532.4 L1036.87 1537.81 Q1038.71 1534.62 1041.51 1533.1 Q1044.34 1531.54 1048.26 1531.54 Q1054.75 1531.54 1058.79 1536.69 Q1062.87 1541.85 1062.87 1550.25 Q1062.87 1558.65 1058.79 1563.81 Q1054.75 1568.97 1048.26 1568.97 Q1044.34 1568.97 1041.51 1567.44 Q1038.71 1565.88 1036.87 1562.7 M1056.79 1550.25 Q1056.79 1543.79 1054.12 1540.13 Q1051.47 1536.44 1046.83 1536.44 Q1042.18 1536.44 1039.51 1540.13 Q1036.87 1543.79 1036.87 1550.25 Q1036.87 1556.71 1039.51 1560.4 Q1042.18 1564.07 1046.83 1564.07 Q1051.47 1564.07 1054.12 1560.4 Q1056.79 1556.71 1056.79 1550.25 Z" fill="#000000" fill-rule="nonzero" fill-opacity="1"></path><path clip-path="url(#clip870)" d="M1086.39 1536.5 Q1081.68 1536.5 1078.94 1540.19 Q1076.21 1543.85 1076.21 1550.25 Q1076.21 1556.65 1078.91 1560.34 Q1081.65 1564 1086.39 1564 Q1091.07 1564 1093.81 1560.31 Q1096.54 1556.62 1096.54 1550.25 Q1096.54 1543.92 1093.81 1540.23 Q1091.07 1536.5 1086.39 1536.5 M1086.39 1531.54 Q1094.03 1531.54 1098.39 1536.5 Q1102.75 1541.47 1102.75 1550.25 Q1102.75 1559 1098.39 1564 Q1094.03 1568.97 1086.39 1568.97 Q1078.72 1568.97 1074.36 1564 Q1070.03 1559 1070.03 1550.25 Q1070.03 1541.47 1074.36 1536.5 Q1078.72 1531.54 1086.39 1531.54 Z" fill="#000000" fill-rule="nonzero" fill-opacity="1"></path><path clip-path="url(#clip870)" d="M1112.46 1518.52 L1118.31 1518.52 L1118.31 1568.04 L1112.46 1568.04 L1112.46 1518.52 Z" fill="#000000" fill-rule="nonzero" fill-opacity="1"></path><path clip-path="url(#clip870)" d="M1130.57 1532.4 L1136.42 1532.4 L1136.42 1568.04 L1130.57 1568.04 L1130.57 1532.4 M1130.57 1518.52 L1136.42 1518.52 L1136.42 1525.93 L1130.57 1525.93 L1130.57 1518.52 Z" fill="#000000" fill-rule="nonzero" fill-opacity="1"></path><path clip-path="url(#clip870)" d="M1174.33 1533.76 L1174.33 1539.24 Q1171.85 1537.87 1169.34 1537.2 Q1166.85 1536.5 1164.31 1536.5 Q1158.61 1536.5 1155.46 1540.13 Q1152.31 1543.73 1152.31 1550.25 Q1152.31 1556.78 1155.46 1560.4 Q1158.61 1564 1164.31 1564 Q1166.85 1564 1169.34 1563.33 Q1171.85 1562.63 1174.33 1561.26 L1174.33 1566.68 Q1171.88 1567.82 1169.24 1568.39 Q1166.63 1568.97 1163.67 1568.97 Q1155.62 1568.97 1150.87 1563.91 Q1146.13 1558.85 1146.13 1550.25 Q1146.13 1541.53 1150.91 1536.53 Q1155.71 1531.54 1164.05 1531.54 Q1166.76 1531.54 1169.34 1532.11 Q1171.91 1532.65 1174.33 1533.76 Z" fill="#000000" fill-rule="nonzero" fill-opacity="1"></path><path clip-path="url(#clip870)" d="M1199.35 1571.35 Q1196.87 1577.72 1194.51 1579.66 Q1192.16 1581.6 1188.21 1581.6 L1183.53 1581.6 L1183.53 1576.7 L1186.97 1576.7 Q1189.39 1576.7 1190.72 1575.56 Q1192.06 1574.41 1193.68 1570.14 L1194.73 1567.47 L1180.32 1532.4 L1186.52 1532.4 L1197.66 1560.28 L1208.8 1532.4 L1215.01 1532.4 L1199.35 1571.35 Z" fill="#000000" fill-rule="nonzero" fill-opacity="1"></path><path clip-path="url(#clip870)" d="M1264.47 1537.87 Q1263.48 1537.3 1262.31 1537.04 Q1261.16 1536.76 1259.76 1536.76 Q1254.8 1536.76 1252.12 1540 Q1249.48 1543.22 1249.48 1549.27 L1249.48 1568.04 L1243.59 1568.04 L1243.59 1532.4 L1249.48 1532.4 L1249.48 1537.93 Q1251.33 1534.69 1254.29 1533.13 Q1257.25 1531.54 1261.48 1531.54 Q1262.08 1531.54 1262.82 1531.63 Q1263.55 1531.7 1264.44 1531.85 L1264.47 1537.87 Z" fill="#000000" fill-rule="nonzero" fill-opacity="1"></path><path clip-path="url(#clip870)" d="M1286.81 1550.12 Q1279.72 1550.12 1276.98 1551.75 Q1274.24 1553.37 1274.24 1557.29 Q1274.24 1560.4 1276.28 1562.25 Q1278.35 1564.07 1281.88 1564.07 Q1286.75 1564.07 1289.68 1560.63 Q1292.64 1557.16 1292.64 1551.43 L1292.64 1550.12 L1286.81 1550.12 M1298.5 1547.71 L1298.5 1568.04 L1292.64 1568.04 L1292.64 1562.63 Q1290.63 1565.88 1287.64 1567.44 Q1284.65 1568.97 1280.32 1568.97 Q1274.85 1568.97 1271.6 1565.91 Q1268.39 1562.82 1268.39 1557.67 Q1268.39 1551.65 1272.4 1548.6 Q1276.44 1545.54 1284.43 1545.54 L1292.64 1545.54 L1292.64 1544.97 Q1292.64 1540.93 1289.97 1538.73 Q1287.32 1536.5 1282.52 1536.5 Q1279.46 1536.5 1276.57 1537.23 Q1273.67 1537.97 1271 1539.43 L1271 1534.02 Q1274.21 1532.78 1277.23 1532.17 Q1280.26 1531.54 1283.12 1531.54 Q1290.86 1531.54 1294.68 1535.55 Q1298.5 1539.56 1298.5 1547.71 Z" fill="#000000" fill-rule="nonzero" fill-opacity="1"></path><path clip-path="url(#clip870)" d="M1316.35 1522.27 L1316.35 1532.4 L1328.41 1532.4 L1328.41 1536.95 L1316.35 1536.95 L1316.35 1556.3 Q1316.35 1560.66 1317.53 1561.9 Q1318.74 1563.14 1322.4 1563.14 L1328.41 1563.14 L1328.41 1568.04 L1322.4 1568.04 Q1315.62 1568.04 1313.04 1565.53 Q1310.46 1562.98 1310.46 1556.3 L1310.46 1536.95 L1306.17 1536.95 L1306.17 1532.4 L1310.46 1532.4 L1310.46 1522.27 L1316.35 1522.27 Z" fill="#000000" fill-rule="nonzero" fill-opacity="1"></path><path clip-path="url(#clip870)" d="M1366.61 1548.76 L1366.61 1551.62 L1339.68 1551.62 Q1340.06 1557.67 1343.31 1560.85 Q1346.59 1564 1352.41 1564 Q1355.79 1564 1358.94 1563.17 Q1362.12 1562.35 1365.24 1560.69 L1365.24 1566.23 Q1362.09 1567.57 1358.78 1568.27 Q1355.47 1568.97 1352.06 1568.97 Q1343.53 1568.97 1338.54 1564 Q1333.57 1559.04 1333.57 1550.57 Q1333.57 1541.82 1338.28 1536.69 Q1343.02 1531.54 1351.04 1531.54 Q1358.24 1531.54 1362.41 1536.18 Q1366.61 1540.8 1366.61 1548.76 M1360.75 1547.04 Q1360.69 1542.23 1358.05 1539.37 Q1355.44 1536.5 1351.11 1536.5 Q1346.21 1536.5 1343.25 1539.27 Q1340.32 1542.04 1339.87 1547.07 L1360.75 1547.04 Z" fill="#000000" fill-rule="nonzero" fill-opacity="1"></path><path clip-path="url(#clip870)" d="M1411.01 1518.58 Q1406.74 1525.9 1404.68 1533.06 Q1402.61 1540.23 1402.61 1547.58 Q1402.61 1554.93 1404.68 1562.16 Q1406.78 1569.35 1411.01 1576.64 L1405.92 1576.64 Q1401.14 1569.16 1398.76 1561.93 Q1396.4 1554.71 1396.4 1547.58 Q1396.4 1540.48 1398.76 1533.29 Q1401.11 1526.09 1405.92 1518.58 L1411.01 1518.58 Z" fill="#000000" fill-rule="nonzero" fill-opacity="1"></path><path clip-path="url(#clip870)" d="M1445.83 1537.81 L1445.83 1518.52 L1451.69 1518.52 L1451.69 1568.04 L1445.83 1568.04 L1445.83 1562.7 Q1443.98 1565.88 1441.15 1567.44 Q1438.35 1568.97 1434.4 1568.97 Q1427.94 1568.97 1423.87 1563.81 Q1419.83 1558.65 1419.83 1550.25 Q1419.83 1541.85 1423.87 1536.69 Q1427.94 1531.54 1434.4 1531.54 Q1438.35 1531.54 1441.15 1533.1 Q1443.98 1534.62 1445.83 1537.81 M1425.87 1550.25 Q1425.87 1556.71 1428.52 1560.4 Q1431.19 1564.07 1435.84 1564.07 Q1440.48 1564.07 1443.16 1560.4 Q1445.83 1556.71 1445.83 1550.25 Q1445.83 1543.79 1443.16 1540.13 Q1440.48 1536.44 1435.84 1536.44 Q1431.19 1536.44 1428.52 1540.13 Q1425.87 1543.79 1425.87 1550.25 Z" fill="#000000" fill-rule="nonzero" fill-opacity="1"></path><path clip-path="url(#clip870)" d="M1494.24 1548.76 L1494.24 1551.62 L1467.31 1551.62 Q1467.7 1557.67 1470.94 1560.85 Q1474.22 1564 1480.05 1564 Q1483.42 1564 1486.57 1563.17 Q1489.75 1562.35 1492.87 1560.69 L1492.87 1566.23 Q1489.72 1567.57 1486.41 1568.27 Q1483.1 1568.97 1479.7 1568.97 Q1471.17 1568.97 1466.17 1564 Q1461.2 1559.04 1461.2 1550.57 Q1461.2 1541.82 1465.91 1536.69 Q1470.66 1531.54 1478.68 1531.54 Q1485.87 1531.54 1490.04 1536.18 Q1494.24 1540.8 1494.24 1548.76 M1488.38 1547.04 Q1488.32 1542.23 1485.68 1539.37 Q1483.07 1536.5 1478.74 1536.5 Q1473.84 1536.5 1470.88 1539.27 Q1467.95 1542.04 1467.51 1547.07 L1488.38 1547.04 Z" fill="#000000" fill-rule="nonzero" fill-opacity="1"></path><path clip-path="url(#clip870)" d="M1499.65 1532.4 L1505.86 1532.4 L1517 1562.31 L1528.14 1532.4 L1534.35 1532.4 L1520.98 1568.04 L1513.02 1568.04 L1499.65 1532.4 Z" fill="#000000" fill-rule="nonzero" fill-opacity="1"></path><path clip-path="url(#clip870)" d="M1538.2 1559.96 L1544.91 1559.96 L1544.91 1568.04 L1538.2 1568.04 L1538.2 1559.96 Z" fill="#000000" fill-rule="nonzero" fill-opacity="1"></path><path clip-path="url(#clip870)" d="M1596.86 1518.52 L1596.86 1523.39 L1591.25 1523.39 Q1588.1 1523.39 1586.86 1524.66 Q1585.65 1525.93 1585.65 1529.24 L1585.65 1532.4 L1595.3 1532.4 L1595.3 1536.95 L1585.65 1536.95 L1585.65 1568.04 L1579.76 1568.04 L1579.76 1536.95 L1574.16 1536.95 L1574.16 1532.4 L1579.76 1532.4 L1579.76 1529.91 Q1579.76 1523.96 1582.53 1521.26 Q1585.3 1518.52 1591.32 1518.52 L1596.86 1518.52 Z" fill="#000000" fill-rule="nonzero" fill-opacity="1"></path><path clip-path="url(#clip870)" d="M1622.41 1537.87 Q1621.43 1537.3 1620.25 1537.04 Q1619.1 1536.76 1617.7 1536.76 Q1612.74 1536.76 1610.07 1540 Q1607.42 1543.22 1607.42 1549.27 L1607.42 1568.04 L1601.54 1568.04 L1601.54 1532.4 L1607.42 1532.4 L1607.42 1537.93 Q1609.27 1534.69 1612.23 1533.13 Q1615.19 1531.54 1619.42 1531.54 Q1620.03 1531.54 1620.76 1531.63 Q1621.49 1531.7 1622.38 1531.85 L1622.41 1537.87 Z" fill="#000000" fill-rule="nonzero" fill-opacity="1"></path><path clip-path="url(#clip870)" d="M1640.94 1536.5 Q1636.23 1536.5 1633.49 1540.19 Q1630.75 1543.85 1630.75 1550.25 Q1630.75 1556.65 1633.46 1560.34 Q1636.2 1564 1640.94 1564 Q1645.62 1564 1648.35 1560.31 Q1651.09 1556.62 1651.09 1550.25 Q1651.09 1543.92 1648.35 1540.23 Q1645.62 1536.5 1640.94 1536.5 M1640.94 1531.54 Q1648.58 1531.54 1652.94 1536.5 Q1657.3 1541.47 1657.3 1550.25 Q1657.3 1559 1652.94 1564 Q1648.58 1568.97 1640.94 1568.97 Q1633.27 1568.97 1628.91 1564 Q1624.58 1559 1624.58 1550.25 Q1624.58 1541.47 1628.91 1536.5 Q1633.27 1531.54 1640.94 1531.54 Z" fill="#000000" fill-rule="nonzero" fill-opacity="1"></path><path clip-path="url(#clip870)" d="M1694.76 1539.24 Q1696.96 1535.29 1700.01 1533.41 Q1703.07 1531.54 1707.21 1531.54 Q1712.78 1531.54 1715.8 1535.45 Q1718.82 1539.33 1718.82 1546.53 L1718.82 1568.04 L1712.93 1568.04 L1712.93 1546.72 Q1712.93 1541.59 1711.12 1539.11 Q1709.31 1536.63 1705.58 1536.63 Q1701.03 1536.63 1698.39 1539.65 Q1695.75 1542.68 1695.75 1547.9 L1695.75 1568.04 L1689.86 1568.04 L1689.86 1546.72 Q1689.86 1541.56 1688.05 1539.11 Q1686.23 1536.63 1682.44 1536.63 Q1677.96 1536.63 1675.31 1539.68 Q1672.67 1542.71 1672.67 1547.9 L1672.67 1568.04 L1666.78 1568.04 L1666.78 1532.4 L1672.67 1532.4 L1672.67 1537.93 Q1674.68 1534.66 1677.48 1533.1 Q1680.28 1531.54 1684.13 1531.54 Q1688.01 1531.54 1690.72 1533.51 Q1693.46 1535.48 1694.76 1539.24 Z" fill="#000000" fill-rule="nonzero" fill-opacity="1"></path><path clip-path="url(#clip870)" d="M1779.97 1522.08 L1779.97 1528.35 Q1776.31 1526.6 1773.06 1525.74 Q1769.81 1524.88 1766.79 1524.88 Q1761.54 1524.88 1758.67 1526.92 Q1755.84 1528.96 1755.84 1532.71 Q1755.84 1535.87 1757.72 1537.49 Q1759.63 1539.08 1764.91 1540.07 L1768.79 1540.86 Q1775.99 1542.23 1779.39 1545.7 Q1782.83 1549.14 1782.83 1554.93 Q1782.83 1561.84 1778.18 1565.4 Q1773.57 1568.97 1764.62 1568.97 Q1761.25 1568.97 1757.43 1568.2 Q1753.64 1567.44 1749.57 1565.94 L1749.57 1559.32 Q1753.48 1561.52 1757.24 1562.63 Q1761 1563.75 1764.62 1563.75 Q1770.13 1563.75 1773.12 1561.58 Q1776.11 1559.42 1776.11 1555.41 Q1776.11 1551.91 1773.95 1549.93 Q1771.82 1547.96 1766.92 1546.97 L1763 1546.21 Q1755.81 1544.78 1752.59 1541.72 Q1749.38 1538.67 1749.38 1533.22 Q1749.38 1526.92 1753.8 1523.29 Q1758.26 1519.66 1766.06 1519.66 Q1769.4 1519.66 1772.87 1520.27 Q1776.34 1520.87 1779.97 1522.08 Z" fill="#000000" fill-rule="nonzero" fill-opacity="1"></path><path clip-path="url(#clip870)" d="M1821.34 1522.08 L1821.34 1528.35 Q1817.68 1526.6 1814.44 1525.74 Q1811.19 1524.88 1808.17 1524.88 Q1802.91 1524.88 1800.05 1526.92 Q1797.22 1528.96 1797.22 1532.71 Q1797.22 1535.87 1799.09 1537.49 Q1801 1539.08 1806.29 1540.07 L1810.17 1540.86 Q1817.36 1542.23 1820.77 1545.7 Q1824.21 1549.14 1824.21 1554.93 Q1824.21 1561.84 1819.56 1565.4 Q1814.95 1568.97 1806 1568.97 Q1802.63 1568.97 1798.81 1568.2 Q1795.02 1567.44 1790.95 1565.94 L1790.95 1559.32 Q1794.86 1561.52 1798.62 1562.63 Q1802.37 1563.75 1806 1563.75 Q1811.51 1563.75 1814.5 1561.58 Q1817.49 1559.42 1817.49 1555.41 Q1817.49 1551.91 1815.33 1549.93 Q1813.19 1547.96 1808.29 1546.97 L1804.38 1546.21 Q1797.19 1544.78 1793.97 1541.72 Q1790.76 1538.67 1790.76 1533.22 Q1790.76 1526.92 1795.18 1523.29 Q1799.64 1519.66 1807.43 1519.66 Q1810.78 1519.66 1814.25 1520.27 Q1817.71 1520.87 1821.34 1522.08 Z" fill="#000000" fill-rule="nonzero" fill-opacity="1"></path><path clip-path="url(#clip870)" d="M1833.06 1518.58 L1838.15 1518.58 Q1842.92 1526.09 1845.28 1533.29 Q1847.67 1540.48 1847.67 1547.58 Q1847.67 1554.71 1845.28 1561.93 Q1842.92 1569.16 1838.15 1576.64 L1833.06 1576.64 Q1837.29 1569.35 1839.36 1562.16 Q1841.46 1554.93 1841.46 1547.58 Q1841.46 1540.23 1839.36 1533.06 Q1837.29 1525.9 1833.06 1518.58 Z" fill="#000000" fill-rule="nonzero" fill-opacity="1"></path><polyline clip-path="url(#clip872)" style="stroke:#000000; stroke-linecap:round; stroke-linejoin:round; stroke-width:2; stroke-opacity:0.1; fill:none" points="250.028,1386.4 2352.76,1386.4 "></polyline>
<polyline clip-path="url(#clip872)" style="stroke:#000000; stroke-linecap:round; stroke-linejoin:round; stroke-width:2; stroke-opacity:0.1; fill:none" points="250.028,1058.02 2352.76,1058.02 "></polyline>
<polyline clip-path="url(#clip872)" style="stroke:#000000; stroke-linecap:round; stroke-linejoin:round; stroke-width:2; stroke-opacity:0.1; fill:none" points="250.028,729.654 2352.76,729.654 "></polyline>
<polyline clip-path="url(#clip872)" style="stroke:#000000; stroke-linecap:round; stroke-linejoin:round; stroke-width:2; stroke-opacity:0.1; fill:none" points="250.028,401.283 2352.76,401.283 "></polyline>
<polyline clip-path="url(#clip870)" style="stroke:#000000; stroke-linecap:round; stroke-linejoin:round; stroke-width:4; stroke-opacity:1; fill:none" points="250.028,1423.18 250.028,123.472 "></polyline>
<polyline clip-path="url(#clip870)" style="stroke:#000000; stroke-linecap:round; stroke-linejoin:round; stroke-width:4; stroke-opacity:1; fill:none" points="250.028,1386.4 268.926,1386.4 "></polyline>
<polyline clip-path="url(#clip870)" style="stroke:#000000; stroke-linecap:round; stroke-linejoin:round; stroke-width:4; stroke-opacity:1; fill:none" points="250.028,1058.02 268.926,1058.02 "></polyline>
<polyline clip-path="url(#clip870)" style="stroke:#000000; stroke-linecap:round; stroke-linejoin:round; stroke-width:4; stroke-opacity:1; fill:none" points="250.028,729.654 268.926,729.654 "></polyline>
<polyline clip-path="url(#clip870)" style="stroke:#000000; stroke-linecap:round; stroke-linejoin:round; stroke-width:4; stroke-opacity:1; fill:none" points="250.028,401.283 268.926,401.283 "></polyline>
<path clip-path="url(#clip870)" d="M126.691 1372.19 Q123.08 1372.19 121.251 1375.76 Q119.445 1379.3 119.445 1386.43 Q119.445 1393.54 121.251 1397.1 Q123.08 1400.64 126.691 1400.64 Q130.325 1400.64 132.13 1397.1 Q133.959 1393.54 133.959 1386.43 Q133.959 1379.3 132.13 1375.76 Q130.325 1372.19 126.691 1372.19 M126.691 1368.49 Q132.501 1368.49 135.556 1373.1 Q138.635 1377.68 138.635 1386.43 Q138.635 1395.16 135.556 1399.76 Q132.501 1404.35 126.691 1404.35 Q120.88 1404.35 117.802 1399.76 Q114.746 1395.16 114.746 1386.43 Q114.746 1377.68 117.802 1373.1 Q120.88 1368.49 126.691 1368.49 Z" fill="#000000" fill-rule="nonzero" fill-opacity="1"></path><path clip-path="url(#clip870)" d="M146.853 1397.8 L151.737 1397.8 L151.737 1403.68 L146.853 1403.68 L146.853 1397.8 Z" fill="#000000" fill-rule="nonzero" fill-opacity="1"></path><path clip-path="url(#clip870)" d="M171.922 1372.19 Q168.311 1372.19 166.482 1375.76 Q164.677 1379.3 164.677 1386.43 Q164.677 1393.54 166.482 1397.1 Q168.311 1400.64 171.922 1400.64 Q175.556 1400.64 177.362 1397.1 Q179.19 1393.54 179.19 1386.43 Q179.19 1379.3 177.362 1375.76 Q175.556 1372.19 171.922 1372.19 M171.922 1368.49 Q177.732 1368.49 180.788 1373.1 Q183.866 1377.68 183.866 1386.43 Q183.866 1395.16 180.788 1399.76 Q177.732 1404.35 171.922 1404.35 Q166.112 1404.35 163.033 1399.76 Q159.978 1395.16 159.978 1386.43 Q159.978 1377.68 163.033 1373.1 Q166.112 1368.49 171.922 1368.49 Z" fill="#000000" fill-rule="nonzero" fill-opacity="1"></path><path clip-path="url(#clip870)" d="M202.084 1372.19 Q198.473 1372.19 196.644 1375.76 Q194.838 1379.3 194.838 1386.43 Q194.838 1393.54 196.644 1397.1 Q198.473 1400.64 202.084 1400.64 Q205.718 1400.64 207.524 1397.1 Q209.352 1393.54 209.352 1386.43 Q209.352 1379.3 207.524 1375.76 Q205.718 1372.19 202.084 1372.19 M202.084 1368.49 Q207.894 1368.49 210.949 1373.1 Q214.028 1377.68 214.028 1386.43 Q214.028 1395.16 210.949 1399.76 Q207.894 1404.35 202.084 1404.35 Q196.274 1404.35 193.195 1399.76 Q190.139 1395.16 190.139 1386.43 Q190.139 1377.68 193.195 1373.1 Q196.274 1368.49 202.084 1368.49 Z" fill="#000000" fill-rule="nonzero" fill-opacity="1"></path><path clip-path="url(#clip870)" d="M128.288 1043.82 Q124.677 1043.82 122.848 1047.39 Q121.043 1050.93 121.043 1058.06 Q121.043 1065.17 122.848 1068.73 Q124.677 1072.27 128.288 1072.27 Q131.922 1072.27 133.728 1068.73 Q135.556 1065.17 135.556 1058.06 Q135.556 1050.93 133.728 1047.39 Q131.922 1043.82 128.288 1043.82 M128.288 1040.12 Q134.098 1040.12 137.154 1044.73 Q140.232 1049.31 140.232 1058.06 Q140.232 1066.79 137.154 1071.39 Q134.098 1075.98 128.288 1075.98 Q122.478 1075.98 119.399 1071.39 Q116.343 1066.79 116.343 1058.06 Q116.343 1049.31 119.399 1044.73 Q122.478 1040.12 128.288 1040.12 Z" fill="#000000" fill-rule="nonzero" fill-opacity="1"></path><path clip-path="url(#clip870)" d="M148.45 1069.43 L153.334 1069.43 L153.334 1075.3 L148.45 1075.3 L148.45 1069.43 Z" fill="#000000" fill-rule="nonzero" fill-opacity="1"></path><path clip-path="url(#clip870)" d="M173.519 1043.82 Q169.908 1043.82 168.079 1047.39 Q166.274 1050.93 166.274 1058.06 Q166.274 1065.17 168.079 1068.73 Q169.908 1072.27 173.519 1072.27 Q177.153 1072.27 178.959 1068.73 Q180.788 1065.17 180.788 1058.06 Q180.788 1050.93 178.959 1047.39 Q177.153 1043.82 173.519 1043.82 M173.519 1040.12 Q179.329 1040.12 182.385 1044.73 Q185.463 1049.31 185.463 1058.06 Q185.463 1066.79 182.385 1071.39 Q179.329 1075.98 173.519 1075.98 Q167.709 1075.98 164.63 1071.39 Q161.575 1066.79 161.575 1058.06 Q161.575 1049.31 164.63 1044.73 Q167.709 1040.12 173.519 1040.12 Z" fill="#000000" fill-rule="nonzero" fill-opacity="1"></path><path clip-path="url(#clip870)" d="M197.709 1071.37 L214.028 1071.37 L214.028 1075.3 L192.084 1075.3 L192.084 1071.37 Q194.746 1068.61 199.329 1063.99 Q203.936 1059.33 205.116 1057.99 Q207.362 1055.47 208.241 1053.73 Q209.144 1051.97 209.144 1050.28 Q209.144 1047.53 207.199 1045.79 Q205.278 1044.05 202.176 1044.05 Q199.977 1044.05 197.524 1044.82 Q195.093 1045.58 192.315 1047.13 L192.315 1042.41 Q195.139 1041.28 197.593 1040.7 Q200.047 1040.12 202.084 1040.12 Q207.454 1040.12 210.649 1042.8 Q213.843 1045.49 213.843 1049.98 Q213.843 1052.11 213.033 1054.03 Q212.246 1055.93 210.139 1058.52 Q209.561 1059.19 206.459 1062.41 Q203.357 1065.61 197.709 1071.37 Z" fill="#000000" fill-rule="nonzero" fill-opacity="1"></path><path clip-path="url(#clip870)" d="M126.205 715.453 Q122.593 715.453 120.765 719.017 Q118.959 722.559 118.959 729.689 Q118.959 736.795 120.765 740.36 Q122.593 743.901 126.205 743.901 Q129.839 743.901 131.644 740.36 Q133.473 736.795 133.473 729.689 Q133.473 722.559 131.644 719.017 Q129.839 715.453 126.205 715.453 M126.205 711.749 Q132.015 711.749 135.07 716.355 Q138.149 720.939 138.149 729.689 Q138.149 738.415 135.07 743.022 Q132.015 747.605 126.205 747.605 Q120.394 747.605 117.316 743.022 Q114.26 738.415 114.26 729.689 Q114.26 720.939 117.316 716.355 Q120.394 711.749 126.205 711.749 Z" fill="#000000" fill-rule="nonzero" fill-opacity="1"></path><path clip-path="url(#clip870)" d="M146.366 741.054 L151.251 741.054 L151.251 746.934 L146.366 746.934 L146.366 741.054 Z" fill="#000000" fill-rule="nonzero" fill-opacity="1"></path><path clip-path="url(#clip870)" d="M171.436 715.453 Q167.825 715.453 165.996 719.017 Q164.19 722.559 164.19 729.689 Q164.19 736.795 165.996 740.36 Q167.825 743.901 171.436 743.901 Q175.07 743.901 176.876 740.36 Q178.704 736.795 178.704 729.689 Q178.704 722.559 176.876 719.017 Q175.07 715.453 171.436 715.453 M171.436 711.749 Q177.246 711.749 180.301 716.355 Q183.38 720.939 183.38 729.689 Q183.38 738.415 180.301 743.022 Q177.246 747.605 171.436 747.605 Q165.626 747.605 162.547 743.022 Q159.491 738.415 159.491 729.689 Q159.491 720.939 162.547 716.355 Q165.626 711.749 171.436 711.749 Z" fill="#000000" fill-rule="nonzero" fill-opacity="1"></path><path clip-path="url(#clip870)" d="M204.445 716.448 L192.639 734.897 L204.445 734.897 L204.445 716.448 M203.218 712.374 L209.098 712.374 L209.098 734.897 L214.028 734.897 L214.028 738.786 L209.098 738.786 L209.098 746.934 L204.445 746.934 L204.445 738.786 L188.843 738.786 L188.843 734.272 L203.218 712.374 Z" fill="#000000" fill-rule="nonzero" fill-opacity="1"></path><path clip-path="url(#clip870)" d="M126.529 387.082 Q122.918 387.082 121.089 390.646 Q119.283 394.188 119.283 401.318 Q119.283 408.424 121.089 411.989 Q122.918 415.531 126.529 415.531 Q130.163 415.531 131.968 411.989 Q133.797 408.424 133.797 401.318 Q133.797 394.188 131.968 390.646 Q130.163 387.082 126.529 387.082 M126.529 383.378 Q132.339 383.378 135.394 387.984 Q138.473 392.568 138.473 401.318 Q138.473 410.044 135.394 414.651 Q132.339 419.234 126.529 419.234 Q120.718 419.234 117.64 414.651 Q114.584 410.044 114.584 401.318 Q114.584 392.568 117.64 387.984 Q120.718 383.378 126.529 383.378 Z" fill="#000000" fill-rule="nonzero" fill-opacity="1"></path><path clip-path="url(#clip870)" d="M146.691 412.683 L151.575 412.683 L151.575 418.563 L146.691 418.563 L146.691 412.683 Z" fill="#000000" fill-rule="nonzero" fill-opacity="1"></path><path clip-path="url(#clip870)" d="M171.76 387.082 Q168.149 387.082 166.32 390.646 Q164.515 394.188 164.515 401.318 Q164.515 408.424 166.32 411.989 Q168.149 415.531 171.76 415.531 Q175.394 415.531 177.2 411.989 Q179.028 408.424 179.028 401.318 Q179.028 394.188 177.2 390.646 Q175.394 387.082 171.76 387.082 M171.76 383.378 Q177.57 383.378 180.626 387.984 Q183.704 392.568 183.704 401.318 Q183.704 410.044 180.626 414.651 Q177.57 419.234 171.76 419.234 Q165.95 419.234 162.871 414.651 Q159.815 410.044 159.815 401.318 Q159.815 392.568 162.871 387.984 Q165.95 383.378 171.76 383.378 Z" fill="#000000" fill-rule="nonzero" fill-opacity="1"></path><path clip-path="url(#clip870)" d="M202.5 399.419 Q199.352 399.419 197.5 401.572 Q195.672 403.725 195.672 407.475 Q195.672 411.202 197.5 413.378 Q199.352 415.531 202.5 415.531 Q205.649 415.531 207.477 413.378 Q209.329 411.202 209.329 407.475 Q209.329 403.725 207.477 401.572 Q205.649 399.419 202.5 399.419 M211.783 384.767 L211.783 389.026 Q210.024 388.193 208.218 387.753 Q206.436 387.313 204.676 387.313 Q200.047 387.313 197.593 390.438 Q195.163 393.563 194.815 399.882 Q196.181 397.869 198.241 396.804 Q200.301 395.716 202.778 395.716 Q207.987 395.716 210.996 398.887 Q214.028 402.035 214.028 407.475 Q214.028 412.799 210.88 416.017 Q207.732 419.234 202.5 419.234 Q196.505 419.234 193.334 414.651 Q190.163 410.044 190.163 401.318 Q190.163 393.123 194.051 388.262 Q197.94 383.378 204.491 383.378 Q206.25 383.378 208.033 383.725 Q209.838 384.072 211.783 384.767 Z" fill="#000000" fill-rule="nonzero" fill-opacity="1"></path><path clip-path="url(#clip870)" d="M18.0438 898.778 L24.314 898.778 Q22.5634 902.438 21.704 905.685 Q20.8447 908.931 20.8447 911.955 Q20.8447 917.207 22.8817 920.071 Q24.9187 922.904 28.6745 922.904 Q31.8255 922.904 33.4488 921.026 Q35.0402 919.117 36.0269 913.833 L36.8226 909.95 Q38.1912 902.757 41.6605 899.351 Q45.098 895.914 50.8908 895.914 Q57.7976 895.914 61.3624 900.561 Q64.9272 905.176 64.9272 914.12 Q64.9272 917.493 64.1633 921.313 Q63.3994 925.1 61.9035 929.174 L55.2831 929.174 Q57.4793 925.259 58.5933 921.504 Q59.7073 917.748 59.7073 914.12 Q59.7073 908.613 57.543 905.621 Q55.3786 902.629 51.3682 902.629 Q47.8671 902.629 45.8937 904.794 Q43.9204 906.926 42.9337 911.828 L42.1698 915.743 Q40.7375 922.936 37.682 926.151 Q34.6264 929.365 29.1837 929.365 Q22.8817 929.365 19.2532 924.941 Q15.6248 920.485 15.6248 912.687 Q15.6248 909.345 16.2295 905.876 Q16.8343 902.407 18.0438 898.778 Z" fill="#000000" fill-rule="nonzero" fill-opacity="1"></path><path clip-path="url(#clip870)" d="M14.479 886.365 L14.479 880.477 L43.7294 880.477 L28.3562 863.003 L28.3562 855.523 L45.0344 874.429 L64.0042 854.727 L64.0042 862.366 L46.5939 880.477 L64.0042 880.477 L64.0042 886.365 L14.479 886.365 Z" fill="#000000" fill-rule="nonzero" fill-opacity="1"></path><path clip-path="url(#clip870)" d="M44.7161 820.225 L47.5806 820.225 L47.5806 847.152 Q53.6281 846.77 56.8109 843.524 Q59.9619 840.245 59.9619 834.421 Q59.9619 831.047 59.1344 827.896 Q58.3069 824.713 56.6518 821.594 L62.1899 821.594 Q63.5267 824.745 64.227 828.055 Q64.9272 831.365 64.9272 834.771 Q64.9272 843.301 59.9619 848.298 Q54.9967 853.263 46.5303 853.263 Q37.7774 853.263 32.6531 848.553 Q27.4968 843.81 27.4968 835.789 Q27.4968 828.596 32.1438 824.427 Q36.7589 820.225 44.7161 820.225 M42.9973 826.082 Q38.1912 826.145 35.3266 828.787 Q32.4621 831.397 32.4621 835.726 Q32.4621 840.627 35.2312 843.587 Q38.0002 846.516 43.0292 846.961 L42.9973 826.082 Z" fill="#000000" fill-rule="nonzero" fill-opacity="1"></path><path clip-path="url(#clip870)" d="M28.3562 814.019 L28.3562 808.162 L56.1743 800.842 L28.3562 793.553 L28.3562 786.646 L56.1743 779.326 L28.3562 772.037 L28.3562 766.18 L64.0042 775.506 L64.0042 782.413 L34.7856 790.084 L64.0042 797.786 L64.0042 804.693 L28.3562 814.019 Z" fill="#000000" fill-rule="nonzero" fill-opacity="1"></path><path clip-path="url(#clip870)" d="M42.4881 727.668 L64.0042 727.668 L64.0042 733.524 L42.679 733.524 Q37.6183 733.524 35.1038 735.498 Q32.5894 737.471 32.5894 741.418 Q32.5894 746.16 35.6131 748.898 Q38.6368 751.635 43.8567 751.635 L64.0042 751.635 L64.0042 757.523 L28.3562 757.523 L28.3562 751.635 L33.8944 751.635 Q30.6797 749.534 29.0883 746.701 Q27.4968 743.837 27.4968 740.113 Q27.4968 733.97 31.3163 730.819 Q35.1038 727.668 42.4881 727.668 Z" fill="#000000" fill-rule="nonzero" fill-opacity="1"></path><path clip-path="url(#clip870)" d="M44.7161 685.495 L47.5806 685.495 L47.5806 712.422 Q53.6281 712.04 56.8109 708.794 Q59.9619 705.515 59.9619 699.691 Q59.9619 696.317 59.1344 693.166 Q58.3069 689.983 56.6518 686.864 L62.1899 686.864 Q63.5267 690.015 64.227 693.325 Q64.9272 696.635 64.9272 700.041 Q64.9272 708.571 59.9619 713.568 Q54.9967 718.533 46.5303 718.533 Q37.7774 718.533 32.6531 713.823 Q27.4968 709.08 27.4968 701.059 Q27.4968 693.866 32.1438 689.697 Q36.7589 685.495 44.7161 685.495 M42.9973 691.352 Q38.1912 691.415 35.3266 694.057 Q32.4621 696.667 32.4621 700.996 Q32.4621 705.897 35.2312 708.857 Q38.0002 711.786 43.0292 712.231 L42.9973 691.352 Z" fill="#000000" fill-rule="nonzero" fill-opacity="1"></path><path clip-path="url(#clip870)" d="M29.4065 653.157 L34.9447 653.157 Q33.6716 655.64 33.035 658.314 Q32.3984 660.987 32.3984 663.852 Q32.3984 668.212 33.7352 670.408 Q35.072 672.573 37.7456 672.573 Q39.7826 672.573 40.9603 671.013 Q42.1061 669.454 43.1565 664.743 L43.6021 662.738 Q44.9389 656.499 47.3897 653.889 Q49.8086 651.248 54.1691 651.248 Q59.1344 651.248 62.0308 655.194 Q64.9272 659.109 64.9272 665.984 Q64.9272 668.849 64.3543 671.968 Q63.8132 675.055 62.6992 678.493 L56.6518 678.493 Q58.3387 675.246 59.198 672.095 Q60.0256 668.944 60.0256 665.857 Q60.0256 661.719 58.6251 659.491 Q57.1929 657.263 54.6147 657.263 Q52.2276 657.263 50.9545 658.886 Q49.6813 660.478 48.5037 665.921 L48.0262 667.958 Q46.8804 673.4 44.5251 675.819 Q42.138 678.238 38.0002 678.238 Q32.9713 678.238 30.2341 674.673 Q27.4968 671.109 27.4968 664.552 Q27.4968 661.305 27.9743 658.441 Q28.4517 655.576 29.4065 653.157 Z" fill="#000000" fill-rule="nonzero" fill-opacity="1"></path><path clip-path="url(#clip870)" d="M29.4065 619.196 L34.9447 619.196 Q33.6716 621.679 33.035 624.353 Q32.3984 627.026 32.3984 629.891 Q32.3984 634.251 33.7352 636.447 Q35.072 638.612 37.7456 638.612 Q39.7826 638.612 40.9603 637.052 Q42.1061 635.493 43.1565 630.782 L43.6021 628.777 Q44.9389 622.538 47.3897 619.928 Q49.8086 617.287 54.1691 617.287 Q59.1344 617.287 62.0308 621.233 Q64.9272 625.148 64.9272 632.023 Q64.9272 634.888 64.3543 638.007 Q63.8132 641.094 62.6992 644.532 L56.6518 644.532 Q58.3387 641.285 59.198 638.134 Q60.0256 634.983 60.0256 631.896 Q60.0256 627.758 58.6251 625.53 Q57.1929 623.302 54.6147 623.302 Q52.2276 623.302 50.9545 624.925 Q49.6813 626.517 48.5037 631.96 L48.0262 633.997 Q46.8804 639.439 44.5251 641.858 Q42.138 644.277 38.0002 644.277 Q32.9713 644.277 30.2341 640.712 Q27.4968 637.148 27.4968 630.591 Q27.4968 627.344 27.9743 624.48 Q28.4517 621.615 29.4065 619.196 Z" fill="#000000" fill-rule="nonzero" fill-opacity="1"></path><path clip-path="url(#clip870)" d="M418.416 14.0809 L418.416 22.0612 Q413.758 19.8332 409.626 18.7395 Q405.494 17.6457 401.646 17.6457 Q394.962 17.6457 391.316 20.2383 Q387.711 22.8309 387.711 27.611 Q387.711 31.6214 390.101 33.6873 Q392.531 35.7128 399.256 36.9686 L404.198 37.9813 Q413.353 39.7232 417.687 44.1387 Q422.062 48.5136 422.062 55.8863 Q422.062 64.6767 416.148 69.2137 Q410.274 73.7508 398.891 73.7508 Q394.597 73.7508 389.736 72.7785 Q384.915 71.8063 379.73 69.9024 L379.73 61.4765 Q384.713 64.2716 389.493 65.6895 Q394.273 67.1073 398.891 67.1073 Q405.899 67.1073 409.707 64.3527 Q413.515 61.598 413.515 56.4939 Q413.515 52.0379 410.76 49.5264 Q408.046 47.0148 401.808 45.759 L396.825 44.7868 Q387.67 42.9639 383.579 39.075 Q379.487 35.1862 379.487 28.2591 Q379.487 20.2383 385.118 15.6203 Q390.789 11.0023 400.714 11.0023 Q404.967 11.0023 409.383 11.7719 Q413.798 12.5416 418.416 14.0809 Z" fill="#000000" fill-rule="nonzero" fill-opacity="1"></path><path clip-path="url(#clip870)" d="M434.499 27.2059 L441.952 27.2059 L441.952 72.576 L434.499 72.576 L434.499 27.2059 M434.499 9.54393 L441.952 9.54393 L441.952 18.9825 L434.499 18.9825 L434.499 9.54393 Z" fill="#000000" fill-rule="nonzero" fill-opacity="1"></path><path clip-path="url(#clip870)" d="M492.872 35.9153 Q495.667 30.8922 499.556 28.5022 Q503.445 26.1121 508.711 26.1121 Q515.8 26.1121 519.649 31.0947 Q523.497 36.0368 523.497 45.1919 L523.497 72.576 L516.003 72.576 L516.003 45.4349 Q516.003 38.913 513.694 35.7533 Q511.385 32.5936 506.645 32.5936 Q500.852 32.5936 497.49 36.4419 Q494.128 40.2903 494.128 46.9338 L494.128 72.576 L486.634 72.576 L486.634 45.4349 Q486.634 38.8725 484.325 35.7533 Q482.016 32.5936 477.195 32.5936 Q471.483 32.5936 468.121 36.4824 Q464.759 40.3308 464.759 46.9338 L464.759 72.576 L457.265 72.576 L457.265 27.2059 L464.759 27.2059 L464.759 34.2544 Q467.311 30.082 470.876 28.0971 Q474.44 26.1121 479.342 26.1121 Q484.284 26.1121 487.727 28.6237 Q491.211 31.1352 492.872 35.9153 Z" fill="#000000" fill-rule="nonzero" fill-opacity="1"></path><path clip-path="url(#clip870)" d="M537.594 54.671 L537.594 27.2059 L545.048 27.2059 L545.048 54.3874 Q545.048 60.8284 547.559 64.0691 Q550.071 67.2693 555.094 67.2693 Q561.13 67.2693 564.614 63.421 Q568.138 59.5726 568.138 52.9291 L568.138 27.2059 L575.592 27.2059 L575.592 72.576 L568.138 72.576 L568.138 65.6084 Q565.424 69.7404 561.818 71.7658 Q558.254 73.7508 553.514 73.7508 Q545.696 73.7508 541.645 68.8897 Q537.594 64.0286 537.594 54.671 M556.35 26.1121 L556.35 26.1121 Z" fill="#000000" fill-rule="nonzero" fill-opacity="1"></path><path clip-path="url(#clip870)" d="M590.944 9.54393 L598.398 9.54393 L598.398 72.576 L590.944 72.576 L590.944 9.54393 Z" fill="#000000" fill-rule="nonzero" fill-opacity="1"></path><path clip-path="url(#clip870)" d="M634.613 49.7694 Q625.58 49.7694 622.096 51.8354 Q618.612 53.9013 618.612 58.8839 Q618.612 62.8538 621.205 65.2034 Q623.838 67.5124 628.334 67.5124 Q634.532 67.5124 638.259 63.1374 Q642.026 58.7219 642.026 51.4303 L642.026 49.7694 L634.613 49.7694 M649.48 46.6907 L649.48 72.576 L642.026 72.576 L642.026 65.6895 Q639.474 69.8214 635.666 71.8063 Q631.859 73.7508 626.349 73.7508 Q619.382 73.7508 615.25 69.8619 Q611.158 65.9325 611.158 59.3701 Q611.158 51.7138 616.263 47.825 Q621.407 43.9361 631.575 43.9361 L642.026 43.9361 L642.026 43.2069 Q642.026 38.0623 638.624 35.2672 Q635.261 32.4315 629.144 32.4315 Q625.256 32.4315 621.569 33.3632 Q617.883 34.295 614.48 36.1584 L614.48 29.2718 Q618.572 27.692 622.42 26.9223 Q626.268 26.1121 629.914 26.1121 Q639.758 26.1121 644.619 31.2163 Q649.48 36.3204 649.48 46.6907 Z" fill="#000000" fill-rule="nonzero" fill-opacity="1"></path><path clip-path="url(#clip870)" d="M672.206 14.324 L672.206 27.2059 L687.559 27.2059 L687.559 32.9987 L672.206 32.9987 L672.206 57.6282 Q672.206 63.1779 673.704 64.7578 Q675.244 66.3376 679.902 66.3376 L687.559 66.3376 L687.559 72.576 L679.902 72.576 Q671.274 72.576 667.993 69.3758 Q664.711 66.1351 664.711 57.6282 L664.711 32.9987 L659.243 32.9987 L659.243 27.2059 L664.711 27.2059 L664.711 14.324 L672.206 14.324 Z" fill="#000000" fill-rule="nonzero" fill-opacity="1"></path><path clip-path="url(#clip870)" d="M736.169 48.0275 L736.169 51.6733 L701.899 51.6733 Q702.385 59.3701 706.517 63.421 Q710.689 67.4314 718.102 67.4314 Q722.396 67.4314 726.407 66.3781 Q730.458 65.3249 734.427 63.2184 L734.427 70.267 Q730.417 71.9684 726.204 72.8596 Q721.991 73.7508 717.657 73.7508 Q706.8 73.7508 700.44 67.4314 Q694.121 61.1119 694.121 50.3365 Q694.121 39.1965 700.116 32.6746 Q706.152 26.1121 716.36 26.1121 Q725.515 26.1121 730.822 32.0264 Q736.169 37.9003 736.169 48.0275 M728.716 45.84 Q728.635 39.7232 725.272 36.0774 Q721.951 32.4315 716.441 32.4315 Q710.203 32.4315 706.436 35.9558 Q702.709 39.4801 702.142 45.8805 L728.716 45.84 Z" fill="#000000" fill-rule="nonzero" fill-opacity="1"></path><path clip-path="url(#clip870)" d="M778.258 34.0924 L778.258 9.54393 L785.712 9.54393 L785.712 72.576 L778.258 72.576 L778.258 65.7705 Q775.909 69.8214 772.303 71.8063 Q768.739 73.7508 763.716 73.7508 Q755.492 73.7508 750.307 67.1883 Q745.162 60.6258 745.162 49.9314 Q745.162 39.2371 750.307 32.6746 Q755.492 26.1121 763.716 26.1121 Q768.739 26.1121 772.303 28.0971 Q775.909 30.0415 778.258 34.0924 M752.859 49.9314 Q752.859 58.1548 756.221 62.8538 Q759.624 67.5124 765.538 67.5124 Q771.453 67.5124 774.855 62.8538 Q778.258 58.1548 778.258 49.9314 Q778.258 41.7081 774.855 37.0496 Q771.453 32.3505 765.538 32.3505 Q759.624 32.3505 756.221 37.0496 Q752.859 41.7081 752.859 49.9314 Z" fill="#000000" fill-rule="nonzero" fill-opacity="1"></path><path clip-path="url(#clip870)" d="M864.016 14.0809 L864.016 22.0612 Q859.357 19.8332 855.225 18.7395 Q851.094 17.6457 847.245 17.6457 Q840.561 17.6457 836.915 20.2383 Q833.31 22.8309 833.31 27.611 Q833.31 31.6214 835.7 33.6873 Q838.131 35.7128 844.855 36.9686 L849.797 37.9813 Q858.952 39.7232 863.287 44.1387 Q867.662 48.5136 867.662 55.8863 Q867.662 64.6767 861.747 69.2137 Q855.874 73.7508 844.491 73.7508 Q840.197 73.7508 835.335 72.7785 Q830.515 71.8063 825.33 69.9024 L825.33 61.4765 Q830.312 64.2716 835.092 65.6895 Q839.873 67.1073 844.491 67.1073 Q851.499 67.1073 855.306 64.3527 Q859.114 61.598 859.114 56.4939 Q859.114 52.0379 856.36 49.5264 Q853.646 47.0148 847.407 45.759 L842.425 44.7868 Q833.27 42.9639 829.178 39.075 Q825.087 35.1862 825.087 28.2591 Q825.087 20.2383 830.717 15.6203 Q836.389 11.0023 846.313 11.0023 Q850.567 11.0023 854.982 11.7719 Q859.398 12.5416 864.016 14.0809 Z" fill="#000000" fill-rule="nonzero" fill-opacity="1"></path><path clip-path="url(#clip870)" d="M879.814 9.54393 L887.309 9.54393 L887.309 46.7717 L909.548 27.2059 L919.068 27.2059 L895.005 48.4326 L920.08 72.576 L910.358 72.576 L887.309 50.4176 L887.309 72.576 L879.814 72.576 L879.814 9.54393 Z" fill="#000000" fill-rule="nonzero" fill-opacity="1"></path><path clip-path="url(#clip870)" d="M963.992 48.0275 L963.992 51.6733 L929.722 51.6733 Q930.208 59.3701 934.34 63.421 Q938.512 67.4314 945.925 67.4314 Q950.219 67.4314 954.23 66.3781 Q958.28 65.3249 962.25 63.2184 L962.25 70.267 Q958.24 71.9684 954.027 72.8596 Q949.814 73.7508 945.48 73.7508 Q934.623 73.7508 928.263 67.4314 Q921.944 61.1119 921.944 50.3365 Q921.944 39.1965 927.939 32.6746 Q933.975 26.1121 944.183 26.1121 Q953.338 26.1121 958.645 32.0264 Q963.992 37.9003 963.992 48.0275 M956.539 45.84 Q956.458 39.7232 953.095 36.0774 Q949.774 32.4315 944.264 32.4315 Q938.026 32.4315 934.259 35.9558 Q930.532 39.4801 929.965 45.8805 L956.539 45.84 Z" fill="#000000" fill-rule="nonzero" fill-opacity="1"></path><path clip-path="url(#clip870)" d="M971.891 27.2059 L979.345 27.2059 L988.662 62.6108 L997.939 27.2059 L1006.73 27.2059 L1016.05 62.6108 L1025.32 27.2059 L1032.78 27.2059 L1020.91 72.576 L1012.12 72.576 L1002.35 35.3887 L992.551 72.576 L983.761 72.576 L971.891 27.2059 Z" fill="#000000" fill-rule="nonzero" fill-opacity="1"></path><path clip-path="url(#clip870)" d="M1081.79 45.1919 L1081.79 72.576 L1074.34 72.576 L1074.34 45.4349 Q1074.34 38.994 1071.83 35.7938 Q1069.32 32.5936 1064.29 32.5936 Q1058.26 32.5936 1054.77 36.4419 Q1051.29 40.2903 1051.29 46.9338 L1051.29 72.576 L1043.8 72.576 L1043.8 27.2059 L1051.29 27.2059 L1051.29 34.2544 Q1053.96 30.163 1057.57 28.1376 Q1061.21 26.1121 1065.95 26.1121 Q1073.77 26.1121 1077.78 30.9732 Q1081.79 35.7938 1081.79 45.1919 Z" fill="#000000" fill-rule="nonzero" fill-opacity="1"></path><path clip-path="url(#clip870)" d="M1135.47 48.0275 L1135.47 51.6733 L1101.2 51.6733 Q1101.68 59.3701 1105.81 63.421 Q1109.99 67.4314 1117.4 67.4314 Q1121.69 67.4314 1125.7 66.3781 Q1129.76 65.3249 1133.73 63.2184 L1133.73 70.267 Q1129.71 71.9684 1125.5 72.8596 Q1121.29 73.7508 1116.95 73.7508 Q1106.1 73.7508 1099.74 67.4314 Q1093.42 61.1119 1093.42 50.3365 Q1093.42 39.1965 1099.41 32.6746 Q1105.45 26.1121 1115.66 26.1121 Q1124.81 26.1121 1130.12 32.0264 Q1135.47 37.9003 1135.47 48.0275 M1128.01 45.84 Q1127.93 39.7232 1124.57 36.0774 Q1121.25 32.4315 1115.74 32.4315 Q1109.5 32.4315 1105.73 35.9558 Q1102.01 39.4801 1101.44 45.8805 L1128.01 45.84 Z" fill="#000000" fill-rule="nonzero" fill-opacity="1"></path><path clip-path="url(#clip870)" d="M1176.62 28.5427 L1176.62 35.5912 Q1173.46 33.9709 1170.06 33.1607 Q1166.66 32.3505 1163.01 32.3505 Q1157.46 32.3505 1154.67 34.0519 Q1151.91 35.7533 1151.91 39.156 Q1151.91 41.7486 1153.9 43.2475 Q1155.88 44.7058 1161.88 46.0426 L1164.43 46.6097 Q1172.37 48.3111 1175.69 51.4303 Q1179.05 54.509 1179.05 60.0587 Q1179.05 66.3781 1174.03 70.0644 Q1169.05 73.7508 1160.3 73.7508 Q1156.65 73.7508 1152.68 73.0216 Q1148.75 72.3329 1144.38 70.9151 L1144.38 63.2184 Q1148.51 65.3654 1152.52 66.4591 Q1156.53 67.5124 1160.46 67.5124 Q1165.73 67.5124 1168.56 65.73 Q1171.4 63.9071 1171.4 60.6258 Q1171.4 57.5877 1169.33 55.9673 Q1167.31 54.3469 1160.38 52.8481 L1157.79 52.2405 Q1150.86 50.7821 1147.78 47.7845 Q1144.7 44.7463 1144.7 39.4801 Q1144.7 33.0797 1149.24 29.5959 Q1153.78 26.1121 1162.12 26.1121 Q1166.25 26.1121 1169.9 26.7198 Q1173.55 27.3274 1176.62 28.5427 Z" fill="#000000" fill-rule="nonzero" fill-opacity="1"></path><path clip-path="url(#clip870)" d="M1219.85 28.5427 L1219.85 35.5912 Q1216.69 33.9709 1213.28 33.1607 Q1209.88 32.3505 1206.24 32.3505 Q1200.69 32.3505 1197.89 34.0519 Q1195.14 35.7533 1195.14 39.156 Q1195.14 41.7486 1197.12 43.2475 Q1199.11 44.7058 1205.1 46.0426 L1207.65 46.6097 Q1215.59 48.3111 1218.92 51.4303 Q1222.28 54.509 1222.28 60.0587 Q1222.28 66.3781 1217.25 70.0644 Q1212.27 73.7508 1203.52 73.7508 Q1199.88 73.7508 1195.91 73.0216 Q1191.98 72.3329 1187.6 70.9151 L1187.6 63.2184 Q1191.73 65.3654 1195.74 66.4591 Q1199.75 67.5124 1203.68 67.5124 Q1208.95 67.5124 1211.79 65.73 Q1214.62 63.9071 1214.62 60.6258 Q1214.62 57.5877 1212.56 55.9673 Q1210.53 54.3469 1203.6 52.8481 L1201.01 52.2405 Q1194.08 50.7821 1191 47.7845 Q1187.93 44.7463 1187.93 39.4801 Q1187.93 33.0797 1192.46 29.5959 Q1197 26.1121 1205.35 26.1121 Q1209.48 26.1121 1213.12 26.7198 Q1216.77 27.3274 1219.85 28.5427 Z" fill="#000000" fill-rule="nonzero" fill-opacity="1"></path><path clip-path="url(#clip870)" d="M1278.1 32.4315 Q1272.1 32.4315 1268.62 37.1306 Q1265.14 41.7891 1265.14 49.9314 Q1265.14 58.0738 1268.58 62.7728 Q1272.06 67.4314 1278.1 67.4314 Q1284.05 67.4314 1287.54 62.7323 Q1291.02 58.0333 1291.02 49.9314 Q1291.02 41.8701 1287.54 37.1711 Q1284.05 32.4315 1278.1 32.4315 M1278.1 26.1121 Q1287.82 26.1121 1293.37 32.4315 Q1298.92 38.7509 1298.92 49.9314 Q1298.92 61.0714 1293.37 67.4314 Q1287.82 73.7508 1278.1 73.7508 Q1268.34 73.7508 1262.79 67.4314 Q1257.28 61.0714 1257.28 49.9314 Q1257.28 38.7509 1262.79 32.4315 Q1268.34 26.1121 1278.1 26.1121 Z" fill="#000000" fill-rule="nonzero" fill-opacity="1"></path><path clip-path="url(#clip870)" d="M1334.24 9.54393 L1334.24 15.7418 L1327.12 15.7418 Q1323.1 15.7418 1321.53 17.3622 Q1319.99 18.9825 1319.99 23.1955 L1319.99 27.2059 L1332.26 27.2059 L1332.26 32.9987 L1319.99 32.9987 L1319.99 72.576 L1312.49 72.576 L1312.49 32.9987 L1305.36 32.9987 L1305.36 27.2059 L1312.49 27.2059 L1312.49 24.0462 Q1312.49 16.471 1316.02 13.0277 Q1319.54 9.54393 1327.2 9.54393 L1334.24 9.54393 Z" fill="#000000" fill-rule="nonzero" fill-opacity="1"></path><path clip-path="url(#clip870)" d="M1367.18 12.096 L1405.42 12.096 L1405.42 18.9825 L1375.36 18.9825 L1375.36 36.8875 L1404.16 36.8875 L1404.16 43.7741 L1375.36 43.7741 L1375.36 65.6895 L1406.15 65.6895 L1406.15 72.576 L1367.18 72.576 L1367.18 12.096 Z" fill="#000000" fill-rule="nonzero" fill-opacity="1"></path><path clip-path="url(#clip870)" d="M1456.99 27.2059 L1440.58 49.2833 L1457.84 72.576 L1449.05 72.576 L1435.84 54.752 L1422.64 72.576 L1413.85 72.576 L1431.47 48.8377 L1415.34 27.2059 L1424.13 27.2059 L1436.17 43.369 L1448.2 27.2059 L1456.99 27.2059 Z" fill="#000000" fill-rule="nonzero" fill-opacity="1"></path><path clip-path="url(#clip870)" d="M1475.58 65.7705 L1475.58 89.8329 L1468.09 89.8329 L1468.09 27.2059 L1475.58 27.2059 L1475.58 34.0924 Q1477.93 30.0415 1481.5 28.0971 Q1485.1 26.1121 1490.08 26.1121 Q1498.35 26.1121 1503.49 32.6746 Q1508.68 39.2371 1508.68 49.9314 Q1508.68 60.6258 1503.49 67.1883 Q1498.35 73.7508 1490.08 73.7508 Q1485.1 73.7508 1481.5 71.8063 Q1477.93 69.8214 1475.58 65.7705 M1500.94 49.9314 Q1500.94 41.7081 1497.54 37.0496 Q1494.17 32.3505 1488.26 32.3505 Q1482.35 32.3505 1478.94 37.0496 Q1475.58 41.7081 1475.58 49.9314 Q1475.58 58.1548 1478.94 62.8538 Q1482.35 67.5124 1488.26 67.5124 Q1494.17 67.5124 1497.54 62.8538 Q1500.94 58.1548 1500.94 49.9314 Z" fill="#000000" fill-rule="nonzero" fill-opacity="1"></path><path clip-path="url(#clip870)" d="M1559.84 48.0275 L1559.84 51.6733 L1525.57 51.6733 Q1526.06 59.3701 1530.19 63.421 Q1534.36 67.4314 1541.77 67.4314 Q1546.07 67.4314 1550.08 66.3781 Q1554.13 65.3249 1558.1 63.2184 L1558.1 70.267 Q1554.09 71.9684 1549.87 72.8596 Q1545.66 73.7508 1541.33 73.7508 Q1530.47 73.7508 1524.11 67.4314 Q1517.79 61.1119 1517.79 50.3365 Q1517.79 39.1965 1523.79 32.6746 Q1529.82 26.1121 1540.03 26.1121 Q1549.19 26.1121 1554.49 32.0264 Q1559.84 37.9003 1559.84 48.0275 M1552.39 45.84 Q1552.31 39.7232 1548.94 36.0774 Q1545.62 32.4315 1540.11 32.4315 Q1533.87 32.4315 1530.11 35.9558 Q1526.38 39.4801 1525.81 45.8805 L1552.39 45.84 Z" fill="#000000" fill-rule="nonzero" fill-opacity="1"></path><path clip-path="url(#clip870)" d="M1604.72 28.9478 L1604.72 35.9153 Q1601.56 34.1734 1598.36 33.3227 Q1595.2 32.4315 1591.96 32.4315 Q1584.71 32.4315 1580.7 37.0496 Q1576.69 41.6271 1576.69 49.9314 Q1576.69 58.2358 1580.7 62.8538 Q1584.71 67.4314 1591.96 67.4314 Q1595.2 67.4314 1598.36 66.5807 Q1601.56 65.6895 1604.72 63.9476 L1604.72 70.8341 Q1601.6 72.2924 1598.24 73.0216 Q1594.92 73.7508 1591.15 73.7508 Q1580.9 73.7508 1574.87 67.3098 Q1568.83 60.8689 1568.83 49.9314 Q1568.83 38.832 1574.91 32.472 Q1581.03 26.1121 1591.64 26.1121 Q1595.08 26.1121 1598.36 26.8413 Q1601.65 27.5299 1604.72 28.9478 Z" fill="#000000" fill-rule="nonzero" fill-opacity="1"></path><path clip-path="url(#clip870)" d="M1625.06 14.324 L1625.06 27.2059 L1640.41 27.2059 L1640.41 32.9987 L1625.06 32.9987 L1625.06 57.6282 Q1625.06 63.1779 1626.56 64.7578 Q1628.1 66.3376 1632.76 66.3376 L1640.41 66.3376 L1640.41 72.576 L1632.76 72.576 Q1624.13 72.576 1620.85 69.3758 Q1617.57 66.1351 1617.57 57.6282 L1617.57 32.9987 L1612.1 32.9987 L1612.1 27.2059 L1617.57 27.2059 L1617.57 14.324 L1625.06 14.324 Z" fill="#000000" fill-rule="nonzero" fill-opacity="1"></path><path clip-path="url(#clip870)" d="M1689.02 48.0275 L1689.02 51.6733 L1654.75 51.6733 Q1655.24 59.3701 1659.37 63.421 Q1663.54 67.4314 1670.96 67.4314 Q1675.25 67.4314 1679.26 66.3781 Q1683.31 65.3249 1687.28 63.2184 L1687.28 70.267 Q1683.27 71.9684 1679.06 72.8596 Q1674.84 73.7508 1670.51 73.7508 Q1659.65 73.7508 1653.29 67.4314 Q1646.97 61.1119 1646.97 50.3365 Q1646.97 39.1965 1652.97 32.6746 Q1659.01 26.1121 1669.21 26.1121 Q1678.37 26.1121 1683.68 32.0264 Q1689.02 37.9003 1689.02 48.0275 M1681.57 45.84 Q1681.49 39.7232 1678.13 36.0774 Q1674.8 32.4315 1669.3 32.4315 Q1663.06 32.4315 1659.29 35.9558 Q1655.56 39.4801 1655 45.8805 L1681.57 45.84 Z" fill="#000000" fill-rule="nonzero" fill-opacity="1"></path><path clip-path="url(#clip870)" d="M1731.11 34.0924 L1731.11 9.54393 L1738.57 9.54393 L1738.57 72.576 L1731.11 72.576 L1731.11 65.7705 Q1728.76 69.8214 1725.16 71.8063 Q1721.59 73.7508 1716.57 73.7508 Q1708.35 73.7508 1703.16 67.1883 Q1698.02 60.6258 1698.02 49.9314 Q1698.02 39.2371 1703.16 32.6746 Q1708.35 26.1121 1716.57 26.1121 Q1721.59 26.1121 1725.16 28.0971 Q1728.76 30.0415 1731.11 34.0924 M1705.71 49.9314 Q1705.71 58.1548 1709.08 62.8538 Q1712.48 67.5124 1718.39 67.5124 Q1724.31 67.5124 1727.71 62.8538 Q1731.11 58.1548 1731.11 49.9314 Q1731.11 41.7081 1727.71 37.0496 Q1724.31 32.3505 1718.39 32.3505 Q1712.48 32.3505 1709.08 37.0496 Q1705.71 41.7081 1705.71 49.9314 Z" fill="#000000" fill-rule="nonzero" fill-opacity="1"></path><path clip-path="url(#clip870)" d="M1788.8 18.8205 L1788.8 41.5461 L1799.09 41.5461 Q1804.8 41.5461 1807.92 38.5889 Q1811.04 35.6318 1811.04 30.163 Q1811.04 24.7348 1807.92 21.7777 Q1804.8 18.8205 1799.09 18.8205 L1788.8 18.8205 M1780.61 12.096 L1799.09 12.096 Q1809.25 12.096 1814.44 16.714 Q1819.66 21.2916 1819.66 30.163 Q1819.66 39.1155 1814.44 43.6931 Q1809.25 48.2706 1799.09 48.2706 L1788.8 48.2706 L1788.8 72.576 L1780.61 72.576 L1780.61 12.096 Z" fill="#000000" fill-rule="nonzero" fill-opacity="1"></path><path clip-path="url(#clip870)" d="M1844.94 32.4315 Q1838.95 32.4315 1835.46 37.1306 Q1831.98 41.7891 1831.98 49.9314 Q1831.98 58.0738 1835.42 62.7728 Q1838.91 67.4314 1844.94 67.4314 Q1850.9 67.4314 1854.38 62.7323 Q1857.86 58.0333 1857.86 49.9314 Q1857.86 41.8701 1854.38 37.1711 Q1850.9 32.4315 1844.94 32.4315 M1844.94 26.1121 Q1854.66 26.1121 1860.21 32.4315 Q1865.76 38.7509 1865.76 49.9314 Q1865.76 61.0714 1860.21 67.4314 Q1854.66 73.7508 1844.94 73.7508 Q1835.18 73.7508 1829.63 67.4314 Q1824.12 61.0714 1824.12 49.9314 Q1824.12 38.7509 1829.63 32.4315 Q1835.18 26.1121 1844.94 26.1121 Z" fill="#000000" fill-rule="nonzero" fill-opacity="1"></path><path clip-path="url(#clip870)" d="M1878.12 9.54393 L1885.57 9.54393 L1885.57 72.576 L1878.12 72.576 L1878.12 9.54393 Z" fill="#000000" fill-rule="nonzero" fill-opacity="1"></path><path clip-path="url(#clip870)" d="M1901.17 27.2059 L1908.62 27.2059 L1908.62 72.576 L1901.17 72.576 L1901.17 27.2059 M1901.17 9.54393 L1908.62 9.54393 L1908.62 18.9825 L1901.17 18.9825 L1901.17 9.54393 Z" fill="#000000" fill-rule="nonzero" fill-opacity="1"></path><path clip-path="url(#clip870)" d="M1956.87 28.9478 L1956.87 35.9153 Q1953.71 34.1734 1950.51 33.3227 Q1947.35 32.4315 1944.11 32.4315 Q1936.86 32.4315 1932.85 37.0496 Q1928.84 41.6271 1928.84 49.9314 Q1928.84 58.2358 1932.85 62.8538 Q1936.86 67.4314 1944.11 67.4314 Q1947.35 67.4314 1950.51 66.5807 Q1953.71 65.6895 1956.87 63.9476 L1956.87 70.8341 Q1953.75 72.2924 1950.39 73.0216 Q1947.07 73.7508 1943.3 73.7508 Q1933.05 73.7508 1927.01 67.3098 Q1920.98 60.8689 1920.98 49.9314 Q1920.98 38.832 1927.05 32.472 Q1933.17 26.1121 1943.78 26.1121 Q1947.23 26.1121 1950.51 26.8413 Q1953.79 27.5299 1956.87 28.9478 Z" fill="#000000" fill-rule="nonzero" fill-opacity="1"></path><path clip-path="url(#clip870)" d="M1988.71 76.7889 Q1985.55 84.8907 1982.55 87.3618 Q1979.55 89.8329 1974.53 89.8329 L1968.58 89.8329 L1968.58 83.5945 L1972.95 83.5945 Q1976.03 83.5945 1977.73 82.1361 Q1979.43 80.6778 1981.5 75.2496 L1982.84 71.8468 L1964.48 27.2059 L1972.38 27.2059 L1986.56 62.6918 L2000.74 27.2059 L2008.64 27.2059 L1988.71 76.7889 Z" fill="#000000" fill-rule="nonzero" fill-opacity="1"></path><path clip-path="url(#clip870)" d="M2074.3 44.2197 Q2076.94 45.1109 2079.41 48.0275 Q2081.92 50.9442 2084.43 56.0483 L2092.74 72.576 L2083.95 72.576 L2076.21 57.061 Q2073.21 50.9847 2070.38 48.9997 Q2067.58 47.0148 2062.72 47.0148 L2053.81 47.0148 L2053.81 72.576 L2045.62 72.576 L2045.62 12.096 L2064.1 12.096 Q2074.47 12.096 2079.57 16.4305 Q2084.67 20.7649 2084.67 29.5149 Q2084.67 35.2267 2082 38.994 Q2079.37 42.7613 2074.3 44.2197 M2053.81 18.8205 L2053.81 40.2903 L2064.1 40.2903 Q2070.01 40.2903 2073.01 37.5762 Q2076.05 34.8216 2076.05 29.5149 Q2076.05 24.2082 2073.01 21.5346 Q2070.01 18.8205 2064.1 18.8205 L2053.81 18.8205 Z" fill="#000000" fill-rule="nonzero" fill-opacity="1"></path><path clip-path="url(#clip870)" d="M2121.74 49.7694 Q2112.71 49.7694 2109.22 51.8354 Q2105.74 53.9013 2105.74 58.8839 Q2105.74 62.8538 2108.33 65.2034 Q2110.97 67.5124 2115.46 67.5124 Q2121.66 67.5124 2125.39 63.1374 Q2129.15 58.7219 2129.15 51.4303 L2129.15 49.7694 L2121.74 49.7694 M2136.61 46.6907 L2136.61 72.576 L2129.15 72.576 L2129.15 65.6895 Q2126.6 69.8214 2122.79 71.8063 Q2118.99 73.7508 2113.48 73.7508 Q2106.51 73.7508 2102.38 69.8619 Q2098.29 65.9325 2098.29 59.3701 Q2098.29 51.7138 2103.39 47.825 Q2108.53 43.9361 2118.7 43.9361 L2129.15 43.9361 L2129.15 43.2069 Q2129.15 38.0623 2125.75 35.2672 Q2122.39 32.4315 2116.27 32.4315 Q2112.38 32.4315 2108.7 33.3632 Q2105.01 34.295 2101.61 36.1584 L2101.61 29.2718 Q2105.7 27.692 2109.55 26.9223 Q2113.4 26.1121 2117.04 26.1121 Q2126.89 26.1121 2131.75 31.2163 Q2136.61 36.3204 2136.61 46.6907 Z" fill="#000000" fill-rule="nonzero" fill-opacity="1"></path><path clip-path="url(#clip870)" d="M2159.33 14.324 L2159.33 27.2059 L2174.69 27.2059 L2174.69 32.9987 L2159.33 32.9987 L2159.33 57.6282 Q2159.33 63.1779 2160.83 64.7578 Q2162.37 66.3376 2167.03 66.3376 L2174.69 66.3376 L2174.69 72.576 L2167.03 72.576 Q2158.4 72.576 2155.12 69.3758 Q2151.84 66.1351 2151.84 57.6282 L2151.84 32.9987 L2146.37 32.9987 L2146.37 27.2059 L2151.84 27.2059 L2151.84 14.324 L2159.33 14.324 Z" fill="#000000" fill-rule="nonzero" fill-opacity="1"></path><path clip-path="url(#clip870)" d="M2223.3 48.0275 L2223.3 51.6733 L2189.03 51.6733 Q2189.51 59.3701 2193.64 63.421 Q2197.82 67.4314 2205.23 67.4314 Q2209.52 67.4314 2213.53 66.3781 Q2217.59 65.3249 2221.55 63.2184 L2221.55 70.267 Q2217.54 71.9684 2213.33 72.8596 Q2209.12 73.7508 2204.78 73.7508 Q2193.93 73.7508 2187.57 67.4314 Q2181.25 61.1119 2181.25 50.3365 Q2181.25 39.1965 2187.24 32.6746 Q2193.28 26.1121 2203.49 26.1121 Q2212.64 26.1121 2217.95 32.0264 Q2223.3 37.9003 2223.3 48.0275 M2215.84 45.84 Q2215.76 39.7232 2212.4 36.0774 Q2209.08 32.4315 2203.57 32.4315 Q2197.33 32.4315 2193.56 35.9558 Q2189.84 39.4801 2189.27 45.8805 L2215.84 45.84 Z" fill="#000000" fill-rule="nonzero" fill-opacity="1"></path><path clip-path="url(#clip872)" d="M365.682 160.256 L365.682 1386.4 L402.376 1386.4 L402.376 160.256 L365.682 160.256 L365.682 160.256  Z" fill="#009af9" fill-rule="evenodd" fill-opacity="1"></path>
<polyline clip-path="url(#clip872)" style="stroke:#000000; stroke-linecap:round; stroke-linejoin:round; stroke-width:4; stroke-opacity:1; fill:none" points="365.682,160.256 365.682,1386.4 402.376,1386.4 402.376,160.256 365.682,160.256 "></polyline>
<path clip-path="url(#clip872)" d="M411.55 167.649 L411.55 1386.4 L448.245 1386.4 L448.245 167.649 L411.55 167.649 L411.55 167.649  Z" fill="#009af9" fill-rule="evenodd" fill-opacity="1"></path>
<polyline clip-path="url(#clip872)" style="stroke:#000000; stroke-linecap:round; stroke-linejoin:round; stroke-width:4; stroke-opacity:1; fill:none" points="411.55,167.649 411.55,1386.4 448.245,1386.4 448.245,167.649 411.55,167.649 "></polyline>
<path clip-path="url(#clip872)" d="M457.418 174.804 L457.418 1386.4 L494.113 1386.4 L494.113 174.804 L457.418 174.804 L457.418 174.804  Z" fill="#009af9" fill-rule="evenodd" fill-opacity="1"></path>
<polyline clip-path="url(#clip872)" style="stroke:#000000; stroke-linecap:round; stroke-linejoin:round; stroke-width:4; stroke-opacity:1; fill:none" points="457.418,174.804 457.418,1386.4 494.113,1386.4 494.113,174.804 457.418,174.804 "></polyline>
<path clip-path="url(#clip872)" d="M503.286 181.728 L503.286 1386.4 L539.981 1386.4 L539.981 181.728 L503.286 181.728 L503.286 181.728  Z" fill="#009af9" fill-rule="evenodd" fill-opacity="1"></path>
<polyline clip-path="url(#clip872)" style="stroke:#000000; stroke-linecap:round; stroke-linejoin:round; stroke-width:4; stroke-opacity:1; fill:none" points="503.286,181.728 503.286,1386.4 539.981,1386.4 539.981,181.728 503.286,181.728 "></polyline>
<path clip-path="url(#clip872)" d="M549.154 188.426 L549.154 1386.4 L585.849 1386.4 L585.849 188.426 L549.154 188.426 L549.154 188.426  Z" fill="#009af9" fill-rule="evenodd" fill-opacity="1"></path>
<polyline clip-path="url(#clip872)" style="stroke:#000000; stroke-linecap:round; stroke-linejoin:round; stroke-width:4; stroke-opacity:1; fill:none" points="549.154,188.426 549.154,1386.4 585.849,1386.4 585.849,188.426 549.154,188.426 "></polyline>
<path clip-path="url(#clip872)" d="M595.023 194.902 L595.023 1386.4 L631.717 1386.4 L631.717 194.902 L595.023 194.902 L595.023 194.902  Z" fill="#009af9" fill-rule="evenodd" fill-opacity="1"></path>
<polyline clip-path="url(#clip872)" style="stroke:#000000; stroke-linecap:round; stroke-linejoin:round; stroke-width:4; stroke-opacity:1; fill:none" points="595.023,194.902 595.023,1386.4 631.717,1386.4 631.717,194.902 595.023,194.902 "></polyline>
<path clip-path="url(#clip872)" d="M640.891 201.162 L640.891 1386.4 L677.585 1386.4 L677.585 201.162 L640.891 201.162 L640.891 201.162  Z" fill="#009af9" fill-rule="evenodd" fill-opacity="1"></path>
<polyline clip-path="url(#clip872)" style="stroke:#000000; stroke-linecap:round; stroke-linejoin:round; stroke-width:4; stroke-opacity:1; fill:none" points="640.891,201.162 640.891,1386.4 677.585,1386.4 677.585,201.162 640.891,201.162 "></polyline>
<path clip-path="url(#clip872)" d="M686.759 207.209 L686.759 1386.4 L723.453 1386.4 L723.453 207.209 L686.759 207.209 L686.759 207.209  Z" fill="#009af9" fill-rule="evenodd" fill-opacity="1"></path>
<polyline clip-path="url(#clip872)" style="stroke:#000000; stroke-linecap:round; stroke-linejoin:round; stroke-width:4; stroke-opacity:1; fill:none" points="686.759,207.209 686.759,1386.4 723.453,1386.4 723.453,207.209 686.759,207.209 "></polyline>
<path clip-path="url(#clip872)" d="M732.627 213.05 L732.627 1386.4 L769.322 1386.4 L769.322 213.05 L732.627 213.05 L732.627 213.05  Z" fill="#009af9" fill-rule="evenodd" fill-opacity="1"></path>
<polyline clip-path="url(#clip872)" style="stroke:#000000; stroke-linecap:round; stroke-linejoin:round; stroke-width:4; stroke-opacity:1; fill:none" points="732.627,213.05 732.627,1386.4 769.322,1386.4 769.322,213.05 732.627,213.05 "></polyline>
<path clip-path="url(#clip872)" d="M778.495 218.687 L778.495 1386.4 L815.19 1386.4 L815.19 218.687 L778.495 218.687 L778.495 218.687  Z" fill="#009af9" fill-rule="evenodd" fill-opacity="1"></path>
<polyline clip-path="url(#clip872)" style="stroke:#000000; stroke-linecap:round; stroke-linejoin:round; stroke-width:4; stroke-opacity:1; fill:none" points="778.495,218.687 778.495,1386.4 815.19,1386.4 815.19,218.687 778.495,218.687 "></polyline>
<path clip-path="url(#clip872)" d="M824.363 224.126 L824.363 1386.4 L861.058 1386.4 L861.058 224.126 L824.363 224.126 L824.363 224.126  Z" fill="#009af9" fill-rule="evenodd" fill-opacity="1"></path>
<polyline clip-path="url(#clip872)" style="stroke:#000000; stroke-linecap:round; stroke-linejoin:round; stroke-width:4; stroke-opacity:1; fill:none" points="824.363,224.126 824.363,1386.4 861.058,1386.4 861.058,224.126 824.363,224.126 "></polyline>
<path clip-path="url(#clip872)" d="M870.231 229.372 L870.231 1386.4 L906.926 1386.4 L906.926 229.372 L870.231 229.372 L870.231 229.372  Z" fill="#009af9" fill-rule="evenodd" fill-opacity="1"></path>
<polyline clip-path="url(#clip872)" style="stroke:#000000; stroke-linecap:round; stroke-linejoin:round; stroke-width:4; stroke-opacity:1; fill:none" points="870.231,229.372 870.231,1386.4 906.926,1386.4 906.926,229.372 870.231,229.372 "></polyline>
<path clip-path="url(#clip872)" d="M916.1 234.428 L916.1 1386.4 L952.794 1386.4 L952.794 234.428 L916.1 234.428 L916.1 234.428  Z" fill="#009af9" fill-rule="evenodd" fill-opacity="1"></path>
<polyline clip-path="url(#clip872)" style="stroke:#000000; stroke-linecap:round; stroke-linejoin:round; stroke-width:4; stroke-opacity:1; fill:none" points="916.1,234.428 916.1,1386.4 952.794,1386.4 952.794,234.428 916.1,234.428 "></polyline>
<path clip-path="url(#clip872)" d="M961.968 239.299 L961.968 1386.4 L998.662 1386.4 L998.662 239.299 L961.968 239.299 L961.968 239.299  Z" fill="#009af9" fill-rule="evenodd" fill-opacity="1"></path>
<polyline clip-path="url(#clip872)" style="stroke:#000000; stroke-linecap:round; stroke-linejoin:round; stroke-width:4; stroke-opacity:1; fill:none" points="961.968,239.299 961.968,1386.4 998.662,1386.4 998.662,239.299 961.968,239.299 "></polyline>
<path clip-path="url(#clip872)" d="M1007.84 243.989 L1007.84 1386.4 L1044.53 1386.4 L1044.53 243.989 L1007.84 243.989 L1007.84 243.989  Z" fill="#009af9" fill-rule="evenodd" fill-opacity="1"></path>
<polyline clip-path="url(#clip872)" style="stroke:#000000; stroke-linecap:round; stroke-linejoin:round; stroke-width:4; stroke-opacity:1; fill:none" points="1007.84,243.989 1007.84,1386.4 1044.53,1386.4 1044.53,243.989 1007.84,243.989 "></polyline>
<path clip-path="url(#clip872)" d="M1053.7 248.503 L1053.7 1386.4 L1090.4 1386.4 L1090.4 248.503 L1053.7 248.503 L1053.7 248.503  Z" fill="#009af9" fill-rule="evenodd" fill-opacity="1"></path>
<polyline clip-path="url(#clip872)" style="stroke:#000000; stroke-linecap:round; stroke-linejoin:round; stroke-width:4; stroke-opacity:1; fill:none" points="1053.7,248.503 1053.7,1386.4 1090.4,1386.4 1090.4,248.503 1053.7,248.503 "></polyline>
<path clip-path="url(#clip872)" d="M1099.57 252.845 L1099.57 1386.4 L1136.27 1386.4 L1136.27 252.845 L1099.57 252.845 L1099.57 252.845  Z" fill="#009af9" fill-rule="evenodd" fill-opacity="1"></path>
<polyline clip-path="url(#clip872)" style="stroke:#000000; stroke-linecap:round; stroke-linejoin:round; stroke-width:4; stroke-opacity:1; fill:none" points="1099.57,252.845 1099.57,1386.4 1136.27,1386.4 1136.27,252.845 1099.57,252.845 "></polyline>
<path clip-path="url(#clip872)" d="M1145.44 257.019 L1145.44 1386.4 L1182.13 1386.4 L1182.13 257.019 L1145.44 257.019 L1145.44 257.019  Z" fill="#009af9" fill-rule="evenodd" fill-opacity="1"></path>
<polyline clip-path="url(#clip872)" style="stroke:#000000; stroke-linecap:round; stroke-linejoin:round; stroke-width:4; stroke-opacity:1; fill:none" points="1145.44,257.019 1145.44,1386.4 1182.13,1386.4 1182.13,257.019 1145.44,257.019 "></polyline>
<path clip-path="url(#clip872)" d="M1191.31 261.03 L1191.31 1386.4 L1228 1386.4 L1228 261.03 L1191.31 261.03 L1191.31 261.03  Z" fill="#009af9" fill-rule="evenodd" fill-opacity="1"></path>
<polyline clip-path="url(#clip872)" style="stroke:#000000; stroke-linecap:round; stroke-linejoin:round; stroke-width:4; stroke-opacity:1; fill:none" points="1191.31,261.03 1191.31,1386.4 1228,1386.4 1228,261.03 1191.31,261.03 "></polyline>
<path clip-path="url(#clip872)" d="M1237.18 264.881 L1237.18 1386.4 L1273.87 1386.4 L1273.87 264.881 L1237.18 264.881 L1237.18 264.881  Z" fill="#009af9" fill-rule="evenodd" fill-opacity="1"></path>
<polyline clip-path="url(#clip872)" style="stroke:#000000; stroke-linecap:round; stroke-linejoin:round; stroke-width:4; stroke-opacity:1; fill:none" points="1237.18,264.881 1237.18,1386.4 1273.87,1386.4 1273.87,264.881 1237.18,264.881 "></polyline>
<path clip-path="url(#clip872)" d="M1283.04 268.577 L1283.04 1386.4 L1319.74 1386.4 L1319.74 268.577 L1283.04 268.577 L1283.04 268.577  Z" fill="#009af9" fill-rule="evenodd" fill-opacity="1"></path>
<polyline clip-path="url(#clip872)" style="stroke:#000000; stroke-linecap:round; stroke-linejoin:round; stroke-width:4; stroke-opacity:1; fill:none" points="1283.04,268.577 1283.04,1386.4 1319.74,1386.4 1319.74,268.577 1283.04,268.577 "></polyline>
<path clip-path="url(#clip872)" d="M1328.91 272.122 L1328.91 1386.4 L1365.61 1386.4 L1365.61 272.122 L1328.91 272.122 L1328.91 272.122  Z" fill="#009af9" fill-rule="evenodd" fill-opacity="1"></path>
<polyline clip-path="url(#clip872)" style="stroke:#000000; stroke-linecap:round; stroke-linejoin:round; stroke-width:4; stroke-opacity:1; fill:none" points="1328.91,272.122 1328.91,1386.4 1365.61,1386.4 1365.61,272.122 1328.91,272.122 "></polyline>
<path clip-path="url(#clip872)" d="M1374.78 275.519 L1374.78 1386.4 L1411.48 1386.4 L1411.48 275.519 L1374.78 275.519 L1374.78 275.519  Z" fill="#009af9" fill-rule="evenodd" fill-opacity="1"></path>
<polyline clip-path="url(#clip872)" style="stroke:#000000; stroke-linecap:round; stroke-linejoin:round; stroke-width:4; stroke-opacity:1; fill:none" points="1374.78,275.519 1374.78,1386.4 1411.48,1386.4 1411.48,275.519 1374.78,275.519 "></polyline>
<path clip-path="url(#clip872)" d="M1420.65 278.774 L1420.65 1386.4 L1457.34 1386.4 L1457.34 278.774 L1420.65 278.774 L1420.65 278.774  Z" fill="#009af9" fill-rule="evenodd" fill-opacity="1"></path>
<polyline clip-path="url(#clip872)" style="stroke:#000000; stroke-linecap:round; stroke-linejoin:round; stroke-width:4; stroke-opacity:1; fill:none" points="1420.65,278.774 1420.65,1386.4 1457.34,1386.4 1457.34,278.774 1420.65,278.774 "></polyline>
<path clip-path="url(#clip872)" d="M1466.52 281.89 L1466.52 1386.4 L1503.21 1386.4 L1503.21 281.89 L1466.52 281.89 L1466.52 281.89  Z" fill="#009af9" fill-rule="evenodd" fill-opacity="1"></path>
<polyline clip-path="url(#clip872)" style="stroke:#000000; stroke-linecap:round; stroke-linejoin:round; stroke-width:4; stroke-opacity:1; fill:none" points="1466.52,281.89 1466.52,1386.4 1503.21,1386.4 1503.21,281.89 1466.52,281.89 "></polyline>
<path clip-path="url(#clip872)" d="M1512.39 284.87 L1512.39 1386.4 L1549.08 1386.4 L1549.08 284.87 L1512.39 284.87 L1512.39 284.87  Z" fill="#009af9" fill-rule="evenodd" fill-opacity="1"></path>
<polyline clip-path="url(#clip872)" style="stroke:#000000; stroke-linecap:round; stroke-linejoin:round; stroke-width:4; stroke-opacity:1; fill:none" points="1512.39,284.87 1512.39,1386.4 1549.08,1386.4 1549.08,284.87 1512.39,284.87 "></polyline>
<path clip-path="url(#clip872)" d="M1558.25 287.719 L1558.25 1386.4 L1594.95 1386.4 L1594.95 287.719 L1558.25 287.719 L1558.25 287.719  Z" fill="#009af9" fill-rule="evenodd" fill-opacity="1"></path>
<polyline clip-path="url(#clip872)" style="stroke:#000000; stroke-linecap:round; stroke-linejoin:round; stroke-width:4; stroke-opacity:1; fill:none" points="1558.25,287.719 1558.25,1386.4 1594.95,1386.4 1594.95,287.719 1558.25,287.719 "></polyline>
<path clip-path="url(#clip872)" d="M1604.12 290.44 L1604.12 1386.4 L1640.82 1386.4 L1640.82 290.44 L1604.12 290.44 L1604.12 290.44  Z" fill="#009af9" fill-rule="evenodd" fill-opacity="1"></path>
<polyline clip-path="url(#clip872)" style="stroke:#000000; stroke-linecap:round; stroke-linejoin:round; stroke-width:4; stroke-opacity:1; fill:none" points="1604.12,290.44 1604.12,1386.4 1640.82,1386.4 1640.82,290.44 1604.12,290.44 "></polyline>
<path clip-path="url(#clip872)" d="M1649.99 293.038 L1649.99 1386.4 L1686.68 1386.4 L1686.68 293.038 L1649.99 293.038 L1649.99 293.038  Z" fill="#009af9" fill-rule="evenodd" fill-opacity="1"></path>
<polyline clip-path="url(#clip872)" style="stroke:#000000; stroke-linecap:round; stroke-linejoin:round; stroke-width:4; stroke-opacity:1; fill:none" points="1649.99,293.038 1649.99,1386.4 1686.68,1386.4 1686.68,293.038 1649.99,293.038 "></polyline>
<path clip-path="url(#clip872)" d="M1695.86 295.515 L1695.86 1386.4 L1732.55 1386.4 L1732.55 295.515 L1695.86 295.515 L1695.86 295.515  Z" fill="#009af9" fill-rule="evenodd" fill-opacity="1"></path>
<polyline clip-path="url(#clip872)" style="stroke:#000000; stroke-linecap:round; stroke-linejoin:round; stroke-width:4; stroke-opacity:1; fill:none" points="1695.86,295.515 1695.86,1386.4 1732.55,1386.4 1732.55,295.515 1695.86,295.515 "></polyline>
<path clip-path="url(#clip872)" d="M1741.73 297.876 L1741.73 1386.4 L1778.42 1386.4 L1778.42 297.876 L1741.73 297.876 L1741.73 297.876  Z" fill="#009af9" fill-rule="evenodd" fill-opacity="1"></path>
<polyline clip-path="url(#clip872)" style="stroke:#000000; stroke-linecap:round; stroke-linejoin:round; stroke-width:4; stroke-opacity:1; fill:none" points="1741.73,297.876 1741.73,1386.4 1778.42,1386.4 1778.42,297.876 1741.73,297.876 "></polyline>
<path clip-path="url(#clip872)" d="M1787.59 300.124 L1787.59 1386.4 L1824.29 1386.4 L1824.29 300.124 L1787.59 300.124 L1787.59 300.124  Z" fill="#009af9" fill-rule="evenodd" fill-opacity="1"></path>
<polyline clip-path="url(#clip872)" style="stroke:#000000; stroke-linecap:round; stroke-linejoin:round; stroke-width:4; stroke-opacity:1; fill:none" points="1787.59,300.124 1787.59,1386.4 1824.29,1386.4 1824.29,300.124 1787.59,300.124 "></polyline>
<path clip-path="url(#clip872)" d="M1833.46 302.262 L1833.46 1386.4 L1870.16 1386.4 L1870.16 302.262 L1833.46 302.262 L1833.46 302.262  Z" fill="#009af9" fill-rule="evenodd" fill-opacity="1"></path>
<polyline clip-path="url(#clip872)" style="stroke:#000000; stroke-linecap:round; stroke-linejoin:round; stroke-width:4; stroke-opacity:1; fill:none" points="1833.46,302.262 1833.46,1386.4 1870.16,1386.4 1870.16,302.262 1833.46,302.262 "></polyline>
<path clip-path="url(#clip872)" d="M1879.33 304.294 L1879.33 1386.4 L1916.03 1386.4 L1916.03 304.294 L1879.33 304.294 L1879.33 304.294  Z" fill="#009af9" fill-rule="evenodd" fill-opacity="1"></path>
<polyline clip-path="url(#clip872)" style="stroke:#000000; stroke-linecap:round; stroke-linejoin:round; stroke-width:4; stroke-opacity:1; fill:none" points="1879.33,304.294 1879.33,1386.4 1916.03,1386.4 1916.03,304.294 1879.33,304.294 "></polyline>
<path clip-path="url(#clip872)" d="M1925.2 306.223 L1925.2 1386.4 L1961.89 1386.4 L1961.89 306.223 L1925.2 306.223 L1925.2 306.223  Z" fill="#009af9" fill-rule="evenodd" fill-opacity="1"></path>
<polyline clip-path="url(#clip872)" style="stroke:#000000; stroke-linecap:round; stroke-linejoin:round; stroke-width:4; stroke-opacity:1; fill:none" points="1925.2,306.223 1925.2,1386.4 1961.89,1386.4 1961.89,306.223 1925.2,306.223 "></polyline>
<path clip-path="url(#clip872)" d="M1971.07 308.051 L1971.07 1386.4 L2007.76 1386.4 L2007.76 308.051 L1971.07 308.051 L1971.07 308.051  Z" fill="#009af9" fill-rule="evenodd" fill-opacity="1"></path>
<polyline clip-path="url(#clip872)" style="stroke:#000000; stroke-linecap:round; stroke-linejoin:round; stroke-width:4; stroke-opacity:1; fill:none" points="1971.07,308.051 1971.07,1386.4 2007.76,1386.4 2007.76,308.051 1971.07,308.051 "></polyline>
<path clip-path="url(#clip872)" d="M2016.94 309.783 L2016.94 1386.4 L2053.63 1386.4 L2053.63 309.783 L2016.94 309.783 L2016.94 309.783  Z" fill="#009af9" fill-rule="evenodd" fill-opacity="1"></path>
<polyline clip-path="url(#clip872)" style="stroke:#000000; stroke-linecap:round; stroke-linejoin:round; stroke-width:4; stroke-opacity:1; fill:none" points="2016.94,309.783 2016.94,1386.4 2053.63,1386.4 2053.63,309.783 2016.94,309.783 "></polyline>
<path clip-path="url(#clip872)" d="M2062.8 311.421 L2062.8 1386.4 L2099.5 1386.4 L2099.5 311.421 L2062.8 311.421 L2062.8 311.421  Z" fill="#009af9" fill-rule="evenodd" fill-opacity="1"></path>
<polyline clip-path="url(#clip872)" style="stroke:#000000; stroke-linecap:round; stroke-linejoin:round; stroke-width:4; stroke-opacity:1; fill:none" points="2062.8,311.421 2062.8,1386.4 2099.5,1386.4 2099.5,311.421 2062.8,311.421 "></polyline>
<path clip-path="url(#clip872)" d="M2108.67 312.967 L2108.67 1386.4 L2145.37 1386.4 L2145.37 312.967 L2108.67 312.967 L2108.67 312.967  Z" fill="#009af9" fill-rule="evenodd" fill-opacity="1"></path>
<polyline clip-path="url(#clip872)" style="stroke:#000000; stroke-linecap:round; stroke-linejoin:round; stroke-width:4; stroke-opacity:1; fill:none" points="2108.67,312.967 2108.67,1386.4 2145.37,1386.4 2145.37,312.967 2108.67,312.967 "></polyline>
<path clip-path="url(#clip872)" d="M2154.54 314.425 L2154.54 1386.4 L2191.23 1386.4 L2191.23 314.425 L2154.54 314.425 L2154.54 314.425  Z" fill="#009af9" fill-rule="evenodd" fill-opacity="1"></path>
<polyline clip-path="url(#clip872)" style="stroke:#000000; stroke-linecap:round; stroke-linejoin:round; stroke-width:4; stroke-opacity:1; fill:none" points="2154.54,314.425 2154.54,1386.4 2191.23,1386.4 2191.23,314.425 2154.54,314.425 "></polyline>
<path clip-path="url(#clip872)" d="M2200.41 315.797 L2200.41 1386.4 L2237.1 1386.4 L2237.1 315.797 L2200.41 315.797 L2200.41 315.797  Z" fill="#009af9" fill-rule="evenodd" fill-opacity="1"></path>
<polyline clip-path="url(#clip872)" style="stroke:#000000; stroke-linecap:round; stroke-linejoin:round; stroke-width:4; stroke-opacity:1; fill:none" points="2200.41,315.797 2200.41,1386.4 2237.1,1386.4 2237.1,315.797 2200.41,315.797 "></polyline>
<circle clip-path="url(#clip872)" style="fill:#009af9; stroke:none; fill-opacity:0" cx="384.029" cy="160.256" r="2"></circle>
<circle clip-path="url(#clip872)" style="fill:#009af9; stroke:none; fill-opacity:0" cx="429.897" cy="167.649" r="2"></circle>
<circle clip-path="url(#clip872)" style="fill:#009af9; stroke:none; fill-opacity:0" cx="475.765" cy="174.804" r="2"></circle>
<circle clip-path="url(#clip872)" style="fill:#009af9; stroke:none; fill-opacity:0" cx="521.634" cy="181.728" r="2"></circle>
<circle clip-path="url(#clip872)" style="fill:#009af9; stroke:none; fill-opacity:0" cx="567.502" cy="188.426" r="2"></circle>
<circle clip-path="url(#clip872)" style="fill:#009af9; stroke:none; fill-opacity:0" cx="613.37" cy="194.902" r="2"></circle>
<circle clip-path="url(#clip872)" style="fill:#009af9; stroke:none; fill-opacity:0" cx="659.238" cy="201.162" r="2"></circle>
<circle clip-path="url(#clip872)" style="fill:#009af9; stroke:none; fill-opacity:0" cx="705.106" cy="207.209" r="2"></circle>
<circle clip-path="url(#clip872)" style="fill:#009af9; stroke:none; fill-opacity:0" cx="750.974" cy="213.05" r="2"></circle>
<circle clip-path="url(#clip872)" style="fill:#009af9; stroke:none; fill-opacity:0" cx="796.842" cy="218.687" r="2"></circle>
<circle clip-path="url(#clip872)" style="fill:#009af9; stroke:none; fill-opacity:0" cx="842.711" cy="224.126" r="2"></circle>
<circle clip-path="url(#clip872)" style="fill:#009af9; stroke:none; fill-opacity:0" cx="888.579" cy="229.372" r="2"></circle>
<circle clip-path="url(#clip872)" style="fill:#009af9; stroke:none; fill-opacity:0" cx="934.447" cy="234.428" r="2"></circle>
<circle clip-path="url(#clip872)" style="fill:#009af9; stroke:none; fill-opacity:0" cx="980.315" cy="239.299" r="2"></circle>
<circle clip-path="url(#clip872)" style="fill:#009af9; stroke:none; fill-opacity:0" cx="1026.18" cy="243.989" r="2"></circle>
<circle clip-path="url(#clip872)" style="fill:#009af9; stroke:none; fill-opacity:0" cx="1072.05" cy="248.503" r="2"></circle>
<circle clip-path="url(#clip872)" style="fill:#009af9; stroke:none; fill-opacity:0" cx="1117.92" cy="252.845" r="2"></circle>
<circle clip-path="url(#clip872)" style="fill:#009af9; stroke:none; fill-opacity:0" cx="1163.79" cy="257.019" r="2"></circle>
<circle clip-path="url(#clip872)" style="fill:#009af9; stroke:none; fill-opacity:0" cx="1209.66" cy="261.03" r="2"></circle>
<circle clip-path="url(#clip872)" style="fill:#009af9; stroke:none; fill-opacity:0" cx="1255.52" cy="264.881" r="2"></circle>
<circle clip-path="url(#clip872)" style="fill:#009af9; stroke:none; fill-opacity:0" cx="1301.39" cy="268.577" r="2"></circle>
<circle clip-path="url(#clip872)" style="fill:#009af9; stroke:none; fill-opacity:0" cx="1347.26" cy="272.122" r="2"></circle>
<circle clip-path="url(#clip872)" style="fill:#009af9; stroke:none; fill-opacity:0" cx="1393.13" cy="275.519" r="2"></circle>
<circle clip-path="url(#clip872)" style="fill:#009af9; stroke:none; fill-opacity:0" cx="1439" cy="278.774" r="2"></circle>
<circle clip-path="url(#clip872)" style="fill:#009af9; stroke:none; fill-opacity:0" cx="1484.86" cy="281.89" r="2"></circle>
<circle clip-path="url(#clip872)" style="fill:#009af9; stroke:none; fill-opacity:0" cx="1530.73" cy="284.87" r="2"></circle>
<circle clip-path="url(#clip872)" style="fill:#009af9; stroke:none; fill-opacity:0" cx="1576.6" cy="287.719" r="2"></circle>
<circle clip-path="url(#clip872)" style="fill:#009af9; stroke:none; fill-opacity:0" cx="1622.47" cy="290.44" r="2"></circle>
<circle clip-path="url(#clip872)" style="fill:#009af9; stroke:none; fill-opacity:0" cx="1668.34" cy="293.038" r="2"></circle>
<circle clip-path="url(#clip872)" style="fill:#009af9; stroke:none; fill-opacity:0" cx="1714.21" cy="295.515" r="2"></circle>
<circle clip-path="url(#clip872)" style="fill:#009af9; stroke:none; fill-opacity:0" cx="1760.07" cy="297.876" r="2"></circle>
<circle clip-path="url(#clip872)" style="fill:#009af9; stroke:none; fill-opacity:0" cx="1805.94" cy="300.124" r="2"></circle>
<circle clip-path="url(#clip872)" style="fill:#009af9; stroke:none; fill-opacity:0" cx="1851.81" cy="302.262" r="2"></circle>
<circle clip-path="url(#clip872)" style="fill:#009af9; stroke:none; fill-opacity:0" cx="1897.68" cy="304.294" r="2"></circle>
<circle clip-path="url(#clip872)" style="fill:#009af9; stroke:none; fill-opacity:0" cx="1943.55" cy="306.223" r="2"></circle>
<circle clip-path="url(#clip872)" style="fill:#009af9; stroke:none; fill-opacity:0" cx="1989.41" cy="308.051" r="2"></circle>
<circle clip-path="url(#clip872)" style="fill:#009af9; stroke:none; fill-opacity:0" cx="2035.28" cy="309.783" r="2"></circle>
<circle clip-path="url(#clip872)" style="fill:#009af9; stroke:none; fill-opacity:0" cx="2081.15" cy="311.421" r="2"></circle>
<circle clip-path="url(#clip872)" style="fill:#009af9; stroke:none; fill-opacity:0" cx="2127.02" cy="312.967" r="2"></circle>
<circle clip-path="url(#clip872)" style="fill:#009af9; stroke:none; fill-opacity:0" cx="2172.89" cy="314.425" r="2"></circle>
<circle clip-path="url(#clip872)" style="fill:#009af9; stroke:none; fill-opacity:0" cx="2218.75" cy="315.797" r="2"></circle>
<path clip-path="url(#clip870)" d="M1590.8 1379.86 L2282.66 1379.86 L2282.66 1276.18 L1590.8 1276.18  Z" fill="#ffffff" fill-rule="evenodd" fill-opacity="1"></path>
<polyline clip-path="url(#clip870)" style="stroke:#000000; stroke-linecap:round; stroke-linejoin:round; stroke-width:4; stroke-opacity:1; fill:none" points="1590.8,1379.86 2282.66,1379.86 2282.66,1276.18 1590.8,1276.18 1590.8,1379.86 "></polyline>
<path clip-path="url(#clip870)" d="M1614.16 1348.75 L1754.34 1348.75 L1754.34 1307.28 L1614.16 1307.28 L1614.16 1348.75  Z" fill="#009af9" fill-rule="evenodd" fill-opacity="1"></path>
<polyline clip-path="url(#clip870)" style="stroke:#000000; stroke-linecap:round; stroke-linejoin:round; stroke-width:4; stroke-opacity:1; fill:none" points="1614.16,1348.75 1754.34,1348.75 1754.34,1307.28 1614.16,1307.28 1614.16,1348.75 "></polyline>
<path clip-path="url(#clip870)" d="M1799.95 1311.87 L1799.95 1316.43 Q1797.29 1315.16 1794.93 1314.53 Q1792.57 1313.91 1790.37 1313.91 Q1786.55 1313.91 1784.47 1315.39 Q1782.41 1316.87 1782.41 1319.6 Q1782.41 1321.89 1783.77 1323.07 Q1785.16 1324.23 1789 1324.95 L1791.83 1325.53 Q1797.06 1326.52 1799.54 1329.05 Q1802.04 1331.55 1802.04 1335.76 Q1802.04 1340.78 1798.66 1343.37 Q1795.3 1345.97 1788.79 1345.97 Q1786.34 1345.97 1783.56 1345.41 Q1780.81 1344.86 1777.85 1343.77 L1777.85 1338.95 Q1780.69 1340.55 1783.42 1341.36 Q1786.16 1342.17 1788.79 1342.17 Q1792.8 1342.17 1794.98 1340.6 Q1797.15 1339.02 1797.15 1336.11 Q1797.15 1333.56 1795.58 1332.13 Q1794.03 1330.69 1790.46 1329.97 L1787.61 1329.42 Q1782.38 1328.38 1780.04 1326.15 Q1777.71 1323.93 1777.71 1319.97 Q1777.71 1315.39 1780.92 1312.75 Q1784.16 1310.11 1789.84 1310.11 Q1792.27 1310.11 1794.79 1310.55 Q1797.31 1310.99 1799.95 1311.87 Z" fill="#000000" fill-rule="nonzero" fill-opacity="1"></path><path clip-path="url(#clip870)" d="M1809.14 1319.37 L1813.4 1319.37 L1813.4 1345.3 L1809.14 1345.3 L1809.14 1319.37 M1809.14 1309.28 L1813.4 1309.28 L1813.4 1314.67 L1809.14 1314.67 L1809.14 1309.28 Z" fill="#000000" fill-rule="nonzero" fill-opacity="1"></path><path clip-path="url(#clip870)" d="M1842.5 1324.35 Q1844.1 1321.48 1846.32 1320.11 Q1848.54 1318.75 1851.55 1318.75 Q1855.6 1318.75 1857.8 1321.59 Q1860 1324.42 1860 1329.65 L1860 1345.3 L1855.72 1345.3 L1855.72 1329.79 Q1855.72 1326.06 1854.4 1324.25 Q1853.08 1322.45 1850.37 1322.45 Q1847.06 1322.45 1845.14 1324.65 Q1843.22 1326.85 1843.22 1330.64 L1843.22 1345.3 L1838.93 1345.3 L1838.93 1329.79 Q1838.93 1326.04 1837.61 1324.25 Q1836.29 1322.45 1833.54 1322.45 Q1830.28 1322.45 1828.35 1324.67 Q1826.43 1326.87 1826.43 1330.64 L1826.43 1345.3 L1822.15 1345.3 L1822.15 1319.37 L1826.43 1319.37 L1826.43 1323.4 Q1827.89 1321.01 1829.93 1319.88 Q1831.97 1318.75 1834.77 1318.75 Q1837.59 1318.75 1839.56 1320.18 Q1841.55 1321.62 1842.5 1324.35 Z" fill="#000000" fill-rule="nonzero" fill-opacity="1"></path><path clip-path="url(#clip870)" d="M1868.05 1335.06 L1868.05 1319.37 L1872.31 1319.37 L1872.31 1334.9 Q1872.31 1338.58 1873.75 1340.44 Q1875.18 1342.26 1878.05 1342.26 Q1881.5 1342.26 1883.49 1340.06 Q1885.51 1337.87 1885.51 1334.07 L1885.51 1319.37 L1889.77 1319.37 L1889.77 1345.3 L1885.51 1345.3 L1885.51 1341.31 Q1883.96 1343.68 1881.9 1344.83 Q1879.86 1345.97 1877.15 1345.97 Q1872.68 1345.97 1870.37 1343.19 Q1868.05 1340.41 1868.05 1335.06 M1878.77 1318.75 L1878.77 1318.75 Z" fill="#000000" fill-rule="nonzero" fill-opacity="1"></path><path clip-path="url(#clip870)" d="M1898.54 1309.28 L1902.8 1309.28 L1902.8 1345.3 L1898.54 1345.3 L1898.54 1309.28 Z" fill="#000000" fill-rule="nonzero" fill-opacity="1"></path><path clip-path="url(#clip870)" d="M1923.49 1332.26 Q1918.33 1332.26 1916.34 1333.44 Q1914.35 1334.63 1914.35 1337.47 Q1914.35 1339.74 1915.83 1341.08 Q1917.34 1342.4 1919.91 1342.4 Q1923.45 1342.4 1925.58 1339.9 Q1927.73 1337.38 1927.73 1333.21 L1927.73 1332.26 L1923.49 1332.26 M1931.99 1330.5 L1931.99 1345.3 L1927.73 1345.3 L1927.73 1341.36 Q1926.27 1343.72 1924.09 1344.86 Q1921.92 1345.97 1918.77 1345.97 Q1914.79 1345.97 1912.43 1343.75 Q1910.09 1341.5 1910.09 1337.75 Q1910.09 1333.38 1913.01 1331.15 Q1915.95 1328.93 1921.76 1328.93 L1927.73 1328.93 L1927.73 1328.51 Q1927.73 1325.57 1925.78 1323.98 Q1923.86 1322.36 1920.37 1322.36 Q1918.15 1322.36 1916.04 1322.89 Q1913.93 1323.42 1911.99 1324.49 L1911.99 1320.55 Q1914.33 1319.65 1916.53 1319.21 Q1918.72 1318.75 1920.81 1318.75 Q1926.43 1318.75 1929.21 1321.66 Q1931.99 1324.58 1931.99 1330.5 Z" fill="#000000" fill-rule="nonzero" fill-opacity="1"></path><path clip-path="url(#clip870)" d="M1944.97 1312.01 L1944.97 1319.37 L1953.75 1319.37 L1953.75 1322.68 L1944.97 1322.68 L1944.97 1336.75 Q1944.97 1339.93 1945.83 1340.83 Q1946.71 1341.73 1949.37 1341.73 L1953.75 1341.73 L1953.75 1345.3 L1949.37 1345.3 Q1944.44 1345.3 1942.57 1343.47 Q1940.69 1341.62 1940.69 1336.75 L1940.69 1322.68 L1937.57 1322.68 L1937.57 1319.37 L1940.69 1319.37 L1940.69 1312.01 L1944.97 1312.01 Z" fill="#000000" fill-rule="nonzero" fill-opacity="1"></path><path clip-path="url(#clip870)" d="M1981.53 1331.27 L1981.53 1333.35 L1961.94 1333.35 Q1962.22 1337.75 1964.58 1340.06 Q1966.96 1342.36 1971.2 1342.36 Q1973.65 1342.36 1975.95 1341.75 Q1978.26 1341.15 1980.53 1339.95 L1980.53 1343.98 Q1978.24 1344.95 1975.83 1345.46 Q1973.42 1345.97 1970.95 1345.97 Q1964.74 1345.97 1961.11 1342.36 Q1957.5 1338.75 1957.5 1332.59 Q1957.5 1326.22 1960.92 1322.5 Q1964.37 1318.75 1970.21 1318.75 Q1975.44 1318.75 1978.47 1322.13 Q1981.53 1325.48 1981.53 1331.27 M1977.27 1330.02 Q1977.22 1326.52 1975.3 1324.44 Q1973.4 1322.36 1970.25 1322.36 Q1966.69 1322.36 1964.53 1324.37 Q1962.4 1326.38 1962.08 1330.04 L1977.27 1330.02 Z" fill="#000000" fill-rule="nonzero" fill-opacity="1"></path><path clip-path="url(#clip870)" d="M2005.58 1323.31 L2005.58 1309.28 L2009.84 1309.28 L2009.84 1345.3 L2005.58 1345.3 L2005.58 1341.41 Q2004.23 1343.72 2002.17 1344.86 Q2000.14 1345.97 1997.27 1345.97 Q1992.57 1345.97 1989.6 1342.22 Q1986.66 1338.47 1986.66 1332.36 Q1986.66 1326.25 1989.6 1322.5 Q1992.57 1318.75 1997.27 1318.75 Q2000.14 1318.75 2002.17 1319.88 Q2004.23 1320.99 2005.58 1323.31 M1991.06 1332.36 Q1991.06 1337.06 1992.98 1339.74 Q1994.93 1342.4 1998.31 1342.4 Q2001.69 1342.4 2003.63 1339.74 Q2005.58 1337.06 2005.58 1332.36 Q2005.58 1327.66 2003.63 1325 Q2001.69 1322.31 1998.31 1322.31 Q1994.93 1322.31 1992.98 1325 Q1991.06 1327.66 1991.06 1332.36 Z" fill="#000000" fill-rule="nonzero" fill-opacity="1"></path><path clip-path="url(#clip870)" d="M2054.58 1311.87 L2054.58 1316.43 Q2051.92 1315.16 2049.56 1314.53 Q2047.2 1313.91 2045 1313.91 Q2041.18 1313.91 2039.09 1315.39 Q2037.03 1316.87 2037.03 1319.6 Q2037.03 1321.89 2038.4 1323.07 Q2039.79 1324.23 2043.63 1324.95 L2046.46 1325.53 Q2051.69 1326.52 2054.16 1329.05 Q2056.66 1331.55 2056.66 1335.76 Q2056.66 1340.78 2053.28 1343.37 Q2049.93 1345.97 2043.42 1345.97 Q2040.97 1345.97 2038.19 1345.41 Q2035.44 1344.86 2032.47 1343.77 L2032.47 1338.95 Q2035.32 1340.55 2038.05 1341.36 Q2040.78 1342.17 2043.42 1342.17 Q2047.43 1342.17 2049.6 1340.6 Q2051.78 1339.02 2051.78 1336.11 Q2051.78 1333.56 2050.21 1332.13 Q2048.65 1330.69 2045.09 1329.97 L2042.24 1329.42 Q2037.01 1328.38 2034.67 1326.15 Q2032.33 1323.93 2032.33 1319.97 Q2032.33 1315.39 2035.55 1312.75 Q2038.79 1310.11 2044.46 1310.11 Q2046.9 1310.11 2049.42 1310.55 Q2051.94 1310.99 2054.58 1311.87 Z" fill="#000000" fill-rule="nonzero" fill-opacity="1"></path><path clip-path="url(#clip870)" d="M2063.61 1309.28 L2067.89 1309.28 L2067.89 1330.55 L2080.6 1319.37 L2086.04 1319.37 L2072.29 1331.5 L2086.62 1345.3 L2081.06 1345.3 L2067.89 1332.63 L2067.89 1345.3 L2063.61 1345.3 L2063.61 1309.28 Z" fill="#000000" fill-rule="nonzero" fill-opacity="1"></path><path clip-path="url(#clip870)" d="M2111.71 1331.27 L2111.71 1333.35 L2092.13 1333.35 Q2092.4 1337.75 2094.77 1340.06 Q2097.15 1342.36 2101.39 1342.36 Q2103.84 1342.36 2106.13 1341.75 Q2108.45 1341.15 2110.71 1339.95 L2110.71 1343.98 Q2108.42 1344.95 2106.02 1345.46 Q2103.61 1345.97 2101.13 1345.97 Q2094.93 1345.97 2091.29 1342.36 Q2087.68 1338.75 2087.68 1332.59 Q2087.68 1326.22 2091.11 1322.5 Q2094.56 1318.75 2100.39 1318.75 Q2105.62 1318.75 2108.65 1322.13 Q2111.71 1325.48 2111.71 1331.27 M2107.45 1330.02 Q2107.4 1326.52 2105.48 1324.44 Q2103.58 1322.36 2100.44 1322.36 Q2096.87 1322.36 2094.72 1324.37 Q2092.59 1326.38 2092.27 1330.04 L2107.45 1330.02 Z" fill="#000000" fill-rule="nonzero" fill-opacity="1"></path><path clip-path="url(#clip870)" d="M2116.22 1319.37 L2120.48 1319.37 L2125.81 1339.6 L2131.11 1319.37 L2136.13 1319.37 L2141.45 1339.6 L2146.76 1319.37 L2151.01 1319.37 L2144.23 1345.3 L2139.21 1345.3 L2133.63 1324.05 L2128.03 1345.3 L2123.01 1345.3 L2116.22 1319.37 Z" fill="#000000" fill-rule="nonzero" fill-opacity="1"></path><path clip-path="url(#clip870)" d="M2179.02 1329.65 L2179.02 1345.3 L2174.76 1345.3 L2174.76 1329.79 Q2174.76 1326.11 2173.33 1324.28 Q2171.89 1322.45 2169.02 1322.45 Q2165.57 1322.45 2163.58 1324.65 Q2161.59 1326.85 2161.59 1330.64 L2161.59 1345.3 L2157.31 1345.3 L2157.31 1319.37 L2161.59 1319.37 L2161.59 1323.4 Q2163.12 1321.06 2165.18 1319.9 Q2167.26 1318.75 2169.97 1318.75 Q2174.44 1318.75 2176.73 1321.52 Q2179.02 1324.28 2179.02 1329.65 Z" fill="#000000" fill-rule="nonzero" fill-opacity="1"></path><path clip-path="url(#clip870)" d="M2209.7 1331.27 L2209.7 1333.35 L2190.11 1333.35 Q2190.39 1337.75 2192.75 1340.06 Q2195.14 1342.36 2199.37 1342.36 Q2201.82 1342.36 2204.12 1341.75 Q2206.43 1341.15 2208.7 1339.95 L2208.7 1343.98 Q2206.41 1344.95 2204 1345.46 Q2201.59 1345.97 2199.12 1345.97 Q2192.91 1345.97 2189.28 1342.36 Q2185.67 1338.75 2185.67 1332.59 Q2185.67 1326.22 2189.09 1322.5 Q2192.54 1318.75 2198.38 1318.75 Q2203.61 1318.75 2206.64 1322.13 Q2209.7 1325.48 2209.7 1331.27 M2205.44 1330.02 Q2205.39 1326.52 2203.47 1324.44 Q2201.57 1322.36 2198.42 1322.36 Q2194.86 1322.36 2192.7 1324.37 Q2190.57 1326.38 2190.25 1330.04 L2205.44 1330.02 Z" fill="#000000" fill-rule="nonzero" fill-opacity="1"></path><path clip-path="url(#clip870)" d="M2233.21 1320.13 L2233.21 1324.16 Q2231.41 1323.24 2229.46 1322.77 Q2227.52 1322.31 2225.44 1322.31 Q2222.26 1322.31 2220.67 1323.28 Q2219.09 1324.25 2219.09 1326.2 Q2219.09 1327.68 2220.23 1328.54 Q2221.36 1329.37 2224.79 1330.13 L2226.25 1330.46 Q2230.78 1331.43 2232.68 1333.21 Q2234.6 1334.97 2234.6 1338.14 Q2234.6 1341.75 2231.73 1343.86 Q2228.88 1345.97 2223.88 1345.97 Q2221.8 1345.97 2219.53 1345.55 Q2217.29 1345.16 2214.79 1344.35 L2214.79 1339.95 Q2217.15 1341.18 2219.44 1341.8 Q2221.73 1342.4 2223.98 1342.4 Q2226.99 1342.4 2228.61 1341.38 Q2230.23 1340.34 2230.23 1338.47 Q2230.23 1336.73 2229.05 1335.81 Q2227.89 1334.88 2223.93 1334.02 L2222.45 1333.68 Q2218.49 1332.84 2216.73 1331.13 Q2214.97 1329.39 2214.97 1326.38 Q2214.97 1322.73 2217.57 1320.74 Q2220.16 1318.75 2224.93 1318.75 Q2227.29 1318.75 2229.37 1319.09 Q2231.45 1319.44 2233.21 1320.13 Z" fill="#000000" fill-rule="nonzero" fill-opacity="1"></path><path clip-path="url(#clip870)" d="M2257.91 1320.13 L2257.91 1324.16 Q2256.11 1323.24 2254.16 1322.77 Q2252.22 1322.31 2250.13 1322.31 Q2246.96 1322.31 2245.37 1323.28 Q2243.79 1324.25 2243.79 1326.2 Q2243.79 1327.68 2244.93 1328.54 Q2246.06 1329.37 2249.49 1330.13 L2250.94 1330.46 Q2255.48 1331.43 2257.38 1333.21 Q2259.3 1334.97 2259.3 1338.14 Q2259.3 1341.75 2256.43 1343.86 Q2253.58 1345.97 2248.58 1345.97 Q2246.5 1345.97 2244.23 1345.55 Q2241.99 1345.16 2239.49 1344.35 L2239.49 1339.95 Q2241.85 1341.18 2244.14 1341.8 Q2246.43 1342.4 2248.68 1342.4 Q2251.69 1342.4 2253.31 1341.38 Q2254.93 1340.34 2254.93 1338.47 Q2254.93 1336.73 2253.75 1335.81 Q2252.59 1334.88 2248.63 1334.02 L2247.15 1333.68 Q2243.19 1332.84 2241.43 1331.13 Q2239.67 1329.39 2239.67 1326.38 Q2239.67 1322.73 2242.26 1320.74 Q2244.86 1318.75 2249.63 1318.75 Q2251.99 1318.75 2254.07 1319.09 Q2256.15 1319.44 2257.91 1320.13 Z" fill="#000000" fill-rule="nonzero" fill-opacity="1"></path></svg>