<svg xmlns="http://www.w3.org/2000/svg" xmlns:xlink="http://www.w3.org/1999/xlink" width="700" height="500" viewBox="0 0 2800 2000">
<defs>
  <clipPath id="clip220">
    <rect x="0" y="0" width="2800" height="2000"></rect>
  </clipPath>
</defs>
<path clip-path="url(#clip220)" d="M0 2000 L2800 2000 L2800 0 L0 0  Z" fill="#ffffff" fill-rule="evenodd" fill-opacity="1"></path>
<defs>
  <clipPath id="clip221">
    <rect x="560" y="0" width="1961" height="1961"></rect>
  </clipPath>
</defs>
<path clip-path="url(#clip220)" d="M198.422 1879.98 L2752.76 1879.98 L2752.76 47.2441 L198.422 47.2441  Z" fill="#ffffff" fill-rule="evenodd" fill-opacity="1"></path>
<defs>
  <clipPath id="clip222">
    <rect x="198" y="47" width="2555" height="1834"></rect>
  </clipPath>
</defs>
<polyline clip-path="url(#clip222)" style="stroke:#000000; stroke-linecap:round; stroke-linejoin:round; stroke-width:2; stroke-opacity:0.1; fill:none" points="218.85,1879.98 218.85,47.2441 "></polyline>
<polyline clip-path="url(#clip222)" style="stroke:#000000; stroke-linecap:round; stroke-linejoin:round; stroke-width:2; stroke-opacity:0.1; fill:none" points="385.753,1879.98 385.753,47.2441 "></polyline>
<polyline clip-path="url(#clip222)" style="stroke:#000000; stroke-linecap:round; stroke-linejoin:round; stroke-width:2; stroke-opacity:0.1; fill:none" points="552.655,1879.98 552.655,47.2441 "></polyline>
<polyline clip-path="url(#clip222)" style="stroke:#000000; stroke-linecap:round; stroke-linejoin:round; stroke-width:2; stroke-opacity:0.1; fill:none" points="719.558,1879.98 719.558,47.2441 "></polyline>
<polyline clip-path="url(#clip222)" style="stroke:#000000; stroke-linecap:round; stroke-linejoin:round; stroke-width:2; stroke-opacity:0.1; fill:none" points="886.461,1879.98 886.461,47.2441 "></polyline>
<polyline clip-path="url(#clip222)" style="stroke:#000000; stroke-linecap:round; stroke-linejoin:round; stroke-width:2; stroke-opacity:0.1; fill:none" points="1053.36,1879.98 1053.36,47.2441 "></polyline>
<polyline clip-path="url(#clip222)" style="stroke:#000000; stroke-linecap:round; stroke-linejoin:round; stroke-width:2; stroke-opacity:0.1; fill:none" points="1220.27,1879.98 1220.27,47.2441 "></polyline>
<polyline clip-path="url(#clip222)" style="stroke:#000000; stroke-linecap:round; stroke-linejoin:round; stroke-width:2; stroke-opacity:0.1; fill:none" points="1387.17,1879.98 1387.17,47.2441 "></polyline>
<polyline clip-path="url(#clip222)" style="stroke:#000000; stroke-linecap:round; stroke-linejoin:round; stroke-width:2; stroke-opacity:0.1; fill:none" points="1554.07,1879.98 1554.07,47.2441 "></polyline>
<polyline clip-path="url(#clip222)" style="stroke:#000000; stroke-linecap:round; stroke-linejoin:round; stroke-width:2; stroke-opacity:0.1; fill:none" points="1720.97,1879.98 1720.97,47.2441 "></polyline>
<polyline clip-path="url(#clip222)" style="stroke:#000000; stroke-linecap:round; stroke-linejoin:round; stroke-width:2; stroke-opacity:0.1; fill:none" points="1887.88,1879.98 1887.88,47.2441 "></polyline>
<polyline clip-path="url(#clip222)" style="stroke:#000000; stroke-linecap:round; stroke-linejoin:round; stroke-width:2; stroke-opacity:0.1; fill:none" points="2054.78,1879.98 2054.78,47.2441 "></polyline>
<polyline clip-path="url(#clip222)" style="stroke:#000000; stroke-linecap:round; stroke-linejoin:round; stroke-width:2; stroke-opacity:0.1; fill:none" points="2221.68,1879.98 2221.68,47.2441 "></polyline>
<polyline clip-path="url(#clip222)" style="stroke:#000000; stroke-linecap:round; stroke-linejoin:round; stroke-width:2; stroke-opacity:0.1; fill:none" points="2388.58,1879.98 2388.58,47.2441 "></polyline>
<polyline clip-path="url(#clip222)" style="stroke:#000000; stroke-linecap:round; stroke-linejoin:round; stroke-width:2; stroke-opacity:0.1; fill:none" points="2555.49,1879.98 2555.49,47.2441 "></polyline>
<polyline clip-path="url(#clip222)" style="stroke:#000000; stroke-linecap:round; stroke-linejoin:round; stroke-width:2; stroke-opacity:0.1; fill:none" points="2722.39,1879.98 2722.39,47.2441 "></polyline>
<polyline clip-path="url(#clip220)" style="stroke:#000000; stroke-linecap:round; stroke-linejoin:round; stroke-width:4; stroke-opacity:1; fill:none" points="198.422,1879.98 2752.76,1879.98 "></polyline>
<polyline clip-path="url(#clip220)" style="stroke:#000000; stroke-linecap:round; stroke-linejoin:round; stroke-width:4; stroke-opacity:1; fill:none" points="198.422,47.2441 2752.76,47.2441 "></polyline>
<polyline clip-path="url(#clip220)" style="stroke:#000000; stroke-linecap:round; stroke-linejoin:round; stroke-width:4; stroke-opacity:1; fill:none" points="218.85,1879.98 218.85,1861.08 "></polyline>
<polyline clip-path="url(#clip220)" style="stroke:#000000; stroke-linecap:round; stroke-linejoin:round; stroke-width:4; stroke-opacity:1; fill:none" points="385.753,1879.98 385.753,1861.08 "></polyline>
<polyline clip-path="url(#clip220)" style="stroke:#000000; stroke-linecap:round; stroke-linejoin:round; stroke-width:4; stroke-opacity:1; fill:none" points="552.655,1879.98 552.655,1861.08 "></polyline>
<polyline clip-path="url(#clip220)" style="stroke:#000000; stroke-linecap:round; stroke-linejoin:round; stroke-width:4; stroke-opacity:1; fill:none" points="719.558,1879.98 719.558,1861.08 "></polyline>
<polyline clip-path="url(#clip220)" style="stroke:#000000; stroke-linecap:round; stroke-linejoin:round; stroke-width:4; stroke-opacity:1; fill:none" points="886.461,1879.98 886.461,1861.08 "></polyline>
<polyline clip-path="url(#clip220)" style="stroke:#000000; stroke-linecap:round; stroke-linejoin:round; stroke-width:4; stroke-opacity:1; fill:none" points="1053.36,1879.98 1053.36,1861.08 "></polyline>
<polyline clip-path="url(#clip220)" style="stroke:#000000; stroke-linecap:round; stroke-linejoin:round; stroke-width:4; stroke-opacity:1; fill:none" points="1220.27,1879.98 1220.27,1861.08 "></polyline>
<polyline clip-path="url(#clip220)" style="stroke:#000000; stroke-linecap:round; stroke-linejoin:round; stroke-width:4; stroke-opacity:1; fill:none" points="1387.17,1879.98 1387.17,1861.08 "></polyline>
<polyline clip-path="url(#clip220)" style="stroke:#000000; stroke-linecap:round; stroke-linejoin:round; stroke-width:4; stroke-opacity:1; fill:none" points="1554.07,1879.98 1554.07,1861.08 "></polyline>
<polyline clip-path="url(#clip220)" style="stroke:#000000; stroke-linecap:round; stroke-linejoin:round; stroke-width:4; stroke-opacity:1; fill:none" points="1720.97,1879.98 1720.97,1861.08 "></polyline>
<polyline clip-path="url(#clip220)" style="stroke:#000000; stroke-linecap:round; stroke-linejoin:round; stroke-width:4; stroke-opacity:1; fill:none" points="1887.88,1879.98 1887.88,1861.08 "></polyline>
<polyline clip-path="url(#clip220)" style="stroke:#000000; stroke-linecap:round; stroke-linejoin:round; stroke-width:4; stroke-opacity:1; fill:none" points="2054.78,1879.98 2054.78,1861.08 "></polyline>
<polyline clip-path="url(#clip220)" style="stroke:#000000; stroke-linecap:round; stroke-linejoin:round; stroke-width:4; stroke-opacity:1; fill:none" points="2221.68,1879.98 2221.68,1861.08 "></polyline>
<polyline clip-path="url(#clip220)" style="stroke:#000000; stroke-linecap:round; stroke-linejoin:round; stroke-width:4; stroke-opacity:1; fill:none" points="2388.58,1879.98 2388.58,1861.08 "></polyline>
<polyline clip-path="url(#clip220)" style="stroke:#000000; stroke-linecap:round; stroke-linejoin:round; stroke-width:4; stroke-opacity:1; fill:none" points="2555.49,1879.98 2555.49,1861.08 "></polyline>
<polyline clip-path="url(#clip220)" style="stroke:#000000; stroke-linecap:round; stroke-linejoin:round; stroke-width:4; stroke-opacity:1; fill:none" points="2722.39,1879.98 2722.39,1861.08 "></polyline>
<path clip-path="url(#clip220)" d="M163.133 1941.64 L170.772 1941.64 L170.772 1915.28 L162.462 1916.95 L162.462 1912.69 L170.726 1911.02 L175.401 1911.02 L175.401 1941.64 L183.04 1941.64 L183.04 1945.58 L163.133 1945.58 L163.133 1941.64 Z" fill="#000000" fill-rule="nonzero" fill-opacity="1"></path><path clip-path="url(#clip220)" d="M192.624 1944.86 L192.624 1940.6 Q194.383 1941.44 196.188 1941.88 Q197.994 1942.32 199.73 1942.32 Q204.36 1942.32 206.79 1939.21 Q209.244 1936.09 209.591 1929.75 Q208.248 1931.74 206.188 1932.8 Q204.128 1933.87 201.628 1933.87 Q196.443 1933.87 193.411 1930.74 Q190.401 1927.59 190.401 1922.15 Q190.401 1916.83 193.549 1913.61 Q196.698 1910.39 201.929 1910.39 Q207.924 1910.39 211.073 1915 Q214.244 1919.58 214.244 1928.33 Q214.244 1936.51 210.355 1941.39 Q206.489 1946.25 199.938 1946.25 Q198.179 1946.25 196.374 1945.9 Q194.568 1945.56 192.624 1944.86 M201.929 1930.21 Q205.077 1930.21 206.906 1928.06 Q208.758 1925.9 208.758 1922.15 Q208.758 1918.43 206.906 1916.27 Q205.077 1914.1 201.929 1914.1 Q198.781 1914.1 196.929 1916.27 Q195.1 1918.43 195.1 1922.15 Q195.1 1925.9 196.929 1928.06 Q198.781 1930.21 201.929 1930.21 Z" fill="#000000" fill-rule="nonzero" fill-opacity="1"></path><path clip-path="url(#clip220)" d="M233.225 1926.44 Q230.077 1926.44 228.225 1928.59 Q226.397 1930.74 226.397 1934.49 Q226.397 1938.22 228.225 1940.39 Q230.077 1942.55 233.225 1942.55 Q236.373 1942.55 238.202 1940.39 Q240.054 1938.22 240.054 1934.49 Q240.054 1930.74 238.202 1928.59 Q236.373 1926.44 233.225 1926.44 M242.508 1911.78 L242.508 1916.04 Q240.748 1915.21 238.943 1914.77 Q237.16 1914.33 235.401 1914.33 Q230.771 1914.33 228.318 1917.45 Q225.887 1920.58 225.54 1926.9 Q226.906 1924.88 228.966 1923.82 Q231.026 1922.73 233.503 1922.73 Q238.711 1922.73 241.72 1925.9 Q244.753 1929.05 244.753 1934.49 Q244.753 1939.82 241.605 1943.03 Q238.457 1946.25 233.225 1946.25 Q227.23 1946.25 224.059 1941.67 Q220.887 1937.06 220.887 1928.33 Q220.887 1920.14 224.776 1915.28 Q228.665 1910.39 235.216 1910.39 Q236.975 1910.39 238.758 1910.74 Q240.563 1911.09 242.508 1911.78 Z" fill="#000000" fill-rule="nonzero" fill-opacity="1"></path><path clip-path="url(#clip220)" d="M265.656 1915.09 L253.85 1933.54 L265.656 1933.54 L265.656 1915.09 M264.429 1911.02 L270.308 1911.02 L270.308 1933.54 L275.239 1933.54 L275.239 1937.43 L270.308 1937.43 L270.308 1945.58 L265.656 1945.58 L265.656 1937.43 L250.054 1937.43 L250.054 1932.92 L264.429 1911.02 Z" fill="#000000" fill-rule="nonzero" fill-opacity="1"></path><path clip-path="url(#clip220)" d="M330.325 1941.64 L337.964 1941.64 L337.964 1915.28 L329.654 1916.95 L329.654 1912.69 L337.917 1911.02 L342.593 1911.02 L342.593 1941.64 L350.232 1941.64 L350.232 1945.58 L330.325 1945.58 L330.325 1941.64 Z" fill="#000000" fill-rule="nonzero" fill-opacity="1"></path><path clip-path="url(#clip220)" d="M359.815 1944.86 L359.815 1940.6 Q361.575 1941.44 363.38 1941.88 Q365.186 1942.32 366.922 1942.32 Q371.552 1942.32 373.982 1939.21 Q376.436 1936.09 376.783 1929.75 Q375.44 1931.74 373.38 1932.8 Q371.32 1933.87 368.82 1933.87 Q363.635 1933.87 360.603 1930.74 Q357.593 1927.59 357.593 1922.15 Q357.593 1916.83 360.741 1913.61 Q363.89 1910.39 369.121 1910.39 Q375.116 1910.39 378.264 1915 Q381.436 1919.58 381.436 1928.33 Q381.436 1936.51 377.547 1941.39 Q373.681 1946.25 367.13 1946.25 Q365.371 1946.25 363.565 1945.9 Q361.76 1945.56 359.815 1944.86 M369.121 1930.21 Q372.269 1930.21 374.098 1928.06 Q375.95 1925.9 375.95 1922.15 Q375.95 1918.43 374.098 1916.27 Q372.269 1914.1 369.121 1914.1 Q365.973 1914.1 364.121 1916.27 Q362.292 1918.43 362.292 1922.15 Q362.292 1925.9 364.121 1928.06 Q365.973 1930.21 369.121 1930.21 Z" fill="#000000" fill-rule="nonzero" fill-opacity="1"></path><path clip-path="url(#clip220)" d="M400.417 1926.44 Q397.269 1926.44 395.417 1928.59 Q393.588 1930.74 393.588 1934.49 Q393.588 1938.22 395.417 1940.39 Q397.269 1942.55 400.417 1942.55 Q403.565 1942.55 405.394 1940.39 Q407.246 1938.22 407.246 1934.49 Q407.246 1930.74 405.394 1928.59 Q403.565 1926.44 400.417 1926.44 M409.699 1911.78 L409.699 1916.04 Q407.94 1915.21 406.135 1914.77 Q404.352 1914.33 402.593 1914.33 Q397.963 1914.33 395.51 1917.45 Q393.079 1920.58 392.732 1926.9 Q394.098 1924.88 396.158 1923.82 Q398.218 1922.73 400.695 1922.73 Q405.903 1922.73 408.912 1925.9 Q411.945 1929.05 411.945 1934.49 Q411.945 1939.82 408.797 1943.03 Q405.649 1946.25 400.417 1946.25 Q394.422 1946.25 391.25 1941.67 Q388.079 1937.06 388.079 1928.33 Q388.079 1920.14 391.968 1915.28 Q395.857 1910.39 402.408 1910.39 Q404.167 1910.39 405.949 1910.74 Q407.755 1911.09 409.699 1911.78 Z" fill="#000000" fill-rule="nonzero" fill-opacity="1"></path><path clip-path="url(#clip220)" d="M430 1929.17 Q426.667 1929.17 424.746 1930.95 Q422.848 1932.73 422.848 1935.86 Q422.848 1938.98 424.746 1940.76 Q426.667 1942.55 430 1942.55 Q433.334 1942.55 435.255 1940.76 Q437.176 1938.96 437.176 1935.86 Q437.176 1932.73 435.255 1930.95 Q433.357 1929.17 430 1929.17 M425.324 1927.18 Q422.315 1926.44 420.625 1924.38 Q418.959 1922.32 418.959 1919.35 Q418.959 1915.21 421.898 1912.8 Q424.861 1910.39 430 1910.39 Q435.162 1910.39 438.102 1912.8 Q441.042 1915.21 441.042 1919.35 Q441.042 1922.32 439.352 1924.38 Q437.685 1926.44 434.699 1927.18 Q438.079 1927.96 439.954 1930.26 Q441.852 1932.55 441.852 1935.86 Q441.852 1940.88 438.773 1943.57 Q435.718 1946.25 430 1946.25 Q424.283 1946.25 421.204 1943.57 Q418.148 1940.88 418.148 1935.86 Q418.148 1932.55 420.047 1930.26 Q421.945 1927.96 425.324 1927.18 M423.611 1919.79 Q423.611 1922.48 425.278 1923.98 Q426.968 1925.49 430 1925.49 Q433.01 1925.49 434.699 1923.98 Q436.412 1922.48 436.412 1919.79 Q436.412 1917.11 434.699 1915.6 Q433.01 1914.1 430 1914.1 Q426.968 1914.1 425.278 1915.6 Q423.611 1917.11 423.611 1919.79 Z" fill="#000000" fill-rule="nonzero" fill-opacity="1"></path><path clip-path="url(#clip220)" d="M497.98 1941.64 L505.619 1941.64 L505.619 1915.28 L497.308 1916.95 L497.308 1912.69 L505.572 1911.02 L510.248 1911.02 L510.248 1941.64 L517.887 1941.64 L517.887 1945.58 L497.98 1945.58 L497.98 1941.64 Z" fill="#000000" fill-rule="nonzero" fill-opacity="1"></path><path clip-path="url(#clip220)" d="M527.47 1944.86 L527.47 1940.6 Q529.23 1941.44 531.035 1941.88 Q532.841 1942.32 534.577 1942.32 Q539.206 1942.32 541.637 1939.21 Q544.091 1936.09 544.438 1929.75 Q543.095 1931.74 541.035 1932.8 Q538.975 1933.87 536.475 1933.87 Q531.29 1933.87 528.257 1930.74 Q525.248 1927.59 525.248 1922.15 Q525.248 1916.83 528.396 1913.61 Q531.544 1910.39 536.776 1910.39 Q542.771 1910.39 545.919 1915 Q549.091 1919.58 549.091 1928.33 Q549.091 1936.51 545.202 1941.39 Q541.336 1946.25 534.785 1946.25 Q533.026 1946.25 531.22 1945.9 Q529.415 1945.56 527.47 1944.86 M536.776 1930.21 Q539.924 1930.21 541.753 1928.06 Q543.605 1925.9 543.605 1922.15 Q543.605 1918.43 541.753 1916.27 Q539.924 1914.1 536.776 1914.1 Q533.628 1914.1 531.776 1916.27 Q529.947 1918.43 529.947 1922.15 Q529.947 1925.9 531.776 1928.06 Q533.628 1930.21 536.776 1930.21 Z" fill="#000000" fill-rule="nonzero" fill-opacity="1"></path><path clip-path="url(#clip220)" d="M556.313 1911.02 L578.535 1911.02 L578.535 1913.01 L565.989 1945.58 L561.104 1945.58 L572.91 1914.95 L556.313 1914.95 L556.313 1911.02 Z" fill="#000000" fill-rule="nonzero" fill-opacity="1"></path><path clip-path="url(#clip220)" d="M591.683 1941.64 L608.002 1941.64 L608.002 1945.58 L586.058 1945.58 L586.058 1941.64 Q588.72 1938.89 593.303 1934.26 Q597.91 1929.61 599.09 1928.26 Q601.336 1925.74 602.215 1924.01 Q603.118 1922.25 603.118 1920.56 Q603.118 1917.8 601.174 1916.07 Q599.252 1914.33 596.151 1914.33 Q593.951 1914.33 591.498 1915.09 Q589.067 1915.86 586.289 1917.41 L586.289 1912.69 Q589.114 1911.55 591.567 1910.97 Q594.021 1910.39 596.058 1910.39 Q601.428 1910.39 604.623 1913.08 Q607.817 1915.76 607.817 1920.26 Q607.817 1922.38 607.007 1924.31 Q606.22 1926.2 604.113 1928.8 Q603.535 1929.47 600.433 1932.69 Q597.331 1935.88 591.683 1941.64 Z" fill="#000000" fill-rule="nonzero" fill-opacity="1"></path><path clip-path="url(#clip220)" d="M664.003 1941.64 L671.642 1941.64 L671.642 1915.28 L663.331 1916.95 L663.331 1912.69 L671.595 1911.02 L676.271 1911.02 L676.271 1941.64 L683.91 1941.64 L683.91 1945.58 L664.003 1945.58 L664.003 1941.64 Z" fill="#000000" fill-rule="nonzero" fill-opacity="1"></path><path clip-path="url(#clip220)" d="M693.493 1944.86 L693.493 1940.6 Q695.253 1941.44 697.058 1941.88 Q698.864 1942.32 700.6 1942.32 Q705.229 1942.32 707.66 1939.21 Q710.114 1936.09 710.461 1929.75 Q709.118 1931.74 707.058 1932.8 Q704.998 1933.87 702.498 1933.87 Q697.313 1933.87 694.28 1930.74 Q691.271 1927.59 691.271 1922.15 Q691.271 1916.83 694.419 1913.61 Q697.567 1910.39 702.799 1910.39 Q708.794 1910.39 711.942 1915 Q715.114 1919.58 715.114 1928.33 Q715.114 1936.51 711.225 1941.39 Q707.359 1946.25 700.808 1946.25 Q699.049 1946.25 697.243 1945.9 Q695.438 1945.56 693.493 1944.86 M702.799 1930.21 Q705.947 1930.21 707.776 1928.06 Q709.627 1925.9 709.627 1922.15 Q709.627 1918.43 707.776 1916.27 Q705.947 1914.1 702.799 1914.1 Q699.651 1914.1 697.799 1916.27 Q695.97 1918.43 695.97 1922.15 Q695.97 1925.9 697.799 1928.06 Q699.651 1930.21 702.799 1930.21 Z" fill="#000000" fill-rule="nonzero" fill-opacity="1"></path><path clip-path="url(#clip220)" d="M722.336 1911.02 L744.558 1911.02 L744.558 1913.01 L732.012 1945.58 L727.127 1945.58 L738.933 1914.95 L722.336 1914.95 L722.336 1911.02 Z" fill="#000000" fill-rule="nonzero" fill-opacity="1"></path><path clip-path="url(#clip220)" d="M764.257 1926.44 Q761.109 1926.44 759.257 1928.59 Q757.428 1930.74 757.428 1934.49 Q757.428 1938.22 759.257 1940.39 Q761.109 1942.55 764.257 1942.55 Q767.405 1942.55 769.234 1940.39 Q771.086 1938.22 771.086 1934.49 Q771.086 1930.74 769.234 1928.59 Q767.405 1926.44 764.257 1926.44 M773.539 1911.78 L773.539 1916.04 Q771.78 1915.21 769.974 1914.77 Q768.192 1914.33 766.433 1914.33 Q761.803 1914.33 759.349 1917.45 Q756.919 1920.58 756.572 1926.9 Q757.937 1924.88 759.998 1923.82 Q762.058 1922.73 764.535 1922.73 Q769.743 1922.73 772.752 1925.9 Q775.785 1929.05 775.785 1934.49 Q775.785 1939.82 772.636 1943.03 Q769.488 1946.25 764.257 1946.25 Q758.261 1946.25 755.09 1941.67 Q751.919 1937.06 751.919 1928.33 Q751.919 1920.14 755.808 1915.28 Q759.697 1910.39 766.248 1910.39 Q768.007 1910.39 769.789 1910.74 Q771.595 1911.09 773.539 1911.78 Z" fill="#000000" fill-rule="nonzero" fill-opacity="1"></path><path clip-path="url(#clip220)" d="M830.986 1941.64 L838.625 1941.64 L838.625 1915.28 L830.315 1916.95 L830.315 1912.69 L838.579 1911.02 L843.255 1911.02 L843.255 1941.64 L850.894 1941.64 L850.894 1945.58 L830.986 1945.58 L830.986 1941.64 Z" fill="#000000" fill-rule="nonzero" fill-opacity="1"></path><path clip-path="url(#clip220)" d="M860.477 1944.86 L860.477 1940.6 Q862.236 1941.44 864.042 1941.88 Q865.847 1942.32 867.583 1942.32 Q872.213 1942.32 874.644 1939.21 Q877.097 1936.09 877.444 1929.75 Q876.102 1931.74 874.042 1932.8 Q871.981 1933.87 869.482 1933.87 Q864.296 1933.87 861.264 1930.74 Q858.255 1927.59 858.255 1922.15 Q858.255 1916.83 861.403 1913.61 Q864.551 1910.39 869.782 1910.39 Q875.778 1910.39 878.926 1915 Q882.097 1919.58 882.097 1928.33 Q882.097 1936.51 878.208 1941.39 Q874.343 1946.25 867.792 1946.25 Q866.032 1946.25 864.227 1945.9 Q862.421 1945.56 860.477 1944.86 M869.782 1930.21 Q872.931 1930.21 874.759 1928.06 Q876.611 1925.9 876.611 1922.15 Q876.611 1918.43 874.759 1916.27 Q872.931 1914.1 869.782 1914.1 Q866.634 1914.1 864.782 1916.27 Q862.954 1918.43 862.954 1922.15 Q862.954 1925.9 864.782 1928.06 Q866.634 1930.21 869.782 1930.21 Z" fill="#000000" fill-rule="nonzero" fill-opacity="1"></path><path clip-path="url(#clip220)" d="M900.5 1929.17 Q897.167 1929.17 895.245 1930.95 Q893.347 1932.73 893.347 1935.86 Q893.347 1938.98 895.245 1940.76 Q897.167 1942.55 900.5 1942.55 Q903.833 1942.55 905.754 1940.76 Q907.676 1938.96 907.676 1935.86 Q907.676 1932.73 905.754 1930.95 Q903.856 1929.17 900.5 1929.17 M895.824 1927.18 Q892.815 1926.44 891.125 1924.38 Q889.458 1922.32 889.458 1919.35 Q889.458 1915.21 892.398 1912.8 Q895.361 1910.39 900.5 1910.39 Q905.662 1910.39 908.602 1912.8 Q911.541 1915.21 911.541 1919.35 Q911.541 1922.32 909.852 1924.38 Q908.185 1926.44 905.199 1927.18 Q908.579 1927.96 910.454 1930.26 Q912.352 1932.55 912.352 1935.86 Q912.352 1940.88 909.273 1943.57 Q906.217 1946.25 900.5 1946.25 Q894.782 1946.25 891.704 1943.57 Q888.648 1940.88 888.648 1935.86 Q888.648 1932.55 890.546 1930.26 Q892.444 1927.96 895.824 1927.18 M894.111 1919.79 Q894.111 1922.48 895.778 1923.98 Q897.467 1925.49 900.5 1925.49 Q903.509 1925.49 905.199 1923.98 Q906.912 1922.48 906.912 1919.79 Q906.912 1917.11 905.199 1915.6 Q903.509 1914.1 900.5 1914.1 Q897.467 1914.1 895.778 1915.6 Q894.111 1917.11 894.111 1919.79 Z" fill="#000000" fill-rule="nonzero" fill-opacity="1"></path><path clip-path="url(#clip220)" d="M930.662 1914.1 Q927.051 1914.1 925.222 1917.66 Q923.416 1921.2 923.416 1928.33 Q923.416 1935.44 925.222 1939.01 Q927.051 1942.55 930.662 1942.55 Q934.296 1942.55 936.102 1939.01 Q937.93 1935.44 937.93 1928.33 Q937.93 1921.2 936.102 1917.66 Q934.296 1914.1 930.662 1914.1 M930.662 1910.39 Q936.472 1910.39 939.527 1915 Q942.606 1919.58 942.606 1928.33 Q942.606 1937.06 939.527 1941.67 Q936.472 1946.25 930.662 1946.25 Q924.852 1946.25 921.773 1941.67 Q918.717 1937.06 918.717 1928.33 Q918.717 1919.58 921.773 1915 Q924.852 1910.39 930.662 1910.39 Z" fill="#000000" fill-rule="nonzero" fill-opacity="1"></path><path clip-path="url(#clip220)" d="M997.646 1941.64 L1005.28 1941.64 L1005.28 1915.28 L996.975 1916.95 L996.975 1912.69 L1005.24 1911.02 L1009.91 1911.02 L1009.91 1941.64 L1017.55 1941.64 L1017.55 1945.58 L997.646 1945.58 L997.646 1941.64 Z" fill="#000000" fill-rule="nonzero" fill-opacity="1"></path><path clip-path="url(#clip220)" d="M1027.14 1944.86 L1027.14 1940.6 Q1028.9 1941.44 1030.7 1941.88 Q1032.51 1942.32 1034.24 1942.32 Q1038.87 1942.32 1041.3 1939.21 Q1043.76 1936.09 1044.1 1929.75 Q1042.76 1931.74 1040.7 1932.8 Q1038.64 1933.87 1036.14 1933.87 Q1030.96 1933.87 1027.92 1930.74 Q1024.91 1927.59 1024.91 1922.15 Q1024.91 1916.83 1028.06 1913.61 Q1031.21 1910.39 1036.44 1910.39 Q1042.44 1910.39 1045.59 1915 Q1048.76 1919.58 1048.76 1928.33 Q1048.76 1936.51 1044.87 1941.39 Q1041 1946.25 1034.45 1946.25 Q1032.69 1946.25 1030.89 1945.9 Q1029.08 1945.56 1027.14 1944.86 M1036.44 1930.21 Q1039.59 1930.21 1041.42 1928.06 Q1043.27 1925.9 1043.27 1922.15 Q1043.27 1918.43 1041.42 1916.27 Q1039.59 1914.1 1036.44 1914.1 Q1033.29 1914.1 1031.44 1916.27 Q1029.61 1918.43 1029.61 1922.15 Q1029.61 1925.9 1031.44 1928.06 Q1033.29 1930.21 1036.44 1930.21 Z" fill="#000000" fill-rule="nonzero" fill-opacity="1"></path><path clip-path="url(#clip220)" d="M1067.16 1929.17 Q1063.83 1929.17 1061.9 1930.95 Q1060.01 1932.73 1060.01 1935.86 Q1060.01 1938.98 1061.9 1940.76 Q1063.83 1942.55 1067.16 1942.55 Q1070.49 1942.55 1072.41 1940.76 Q1074.34 1938.96 1074.34 1935.86 Q1074.34 1932.73 1072.41 1930.95 Q1070.52 1929.17 1067.16 1929.17 M1062.48 1927.18 Q1059.47 1926.44 1057.78 1924.38 Q1056.12 1922.32 1056.12 1919.35 Q1056.12 1915.21 1059.06 1912.8 Q1062.02 1910.39 1067.16 1910.39 Q1072.32 1910.39 1075.26 1912.8 Q1078.2 1915.21 1078.2 1919.35 Q1078.2 1922.32 1076.51 1924.38 Q1074.84 1926.44 1071.86 1927.18 Q1075.24 1927.96 1077.11 1930.26 Q1079.01 1932.55 1079.01 1935.86 Q1079.01 1940.88 1075.93 1943.57 Q1072.88 1946.25 1067.16 1946.25 Q1061.44 1946.25 1058.36 1943.57 Q1055.31 1940.88 1055.31 1935.86 Q1055.31 1932.55 1057.21 1930.26 Q1059.1 1927.96 1062.48 1927.18 M1060.77 1919.79 Q1060.77 1922.48 1062.44 1923.98 Q1064.13 1925.49 1067.16 1925.49 Q1070.17 1925.49 1071.86 1923.98 Q1073.57 1922.48 1073.57 1919.79 Q1073.57 1917.11 1071.86 1915.6 Q1070.17 1914.1 1067.16 1914.1 Q1064.13 1914.1 1062.44 1915.6 Q1060.77 1917.11 1060.77 1919.79 Z" fill="#000000" fill-rule="nonzero" fill-opacity="1"></path><path clip-path="url(#clip220)" d="M1100.17 1915.09 L1088.36 1933.54 L1100.17 1933.54 L1100.17 1915.09 M1098.94 1911.02 L1104.82 1911.02 L1104.82 1933.54 L1109.75 1933.54 L1109.75 1937.43 L1104.82 1937.43 L1104.82 1945.58 L1100.17 1945.58 L1100.17 1937.43 L1084.57 1937.43 L1084.57 1932.92 L1098.94 1911.02 Z" fill="#000000" fill-rule="nonzero" fill-opacity="1"></path><path clip-path="url(#clip220)" d="M1164.84 1941.64 L1172.48 1941.64 L1172.48 1915.28 L1164.17 1916.95 L1164.17 1912.69 L1172.43 1911.02 L1177.11 1911.02 L1177.11 1941.64 L1184.75 1941.64 L1184.75 1945.58 L1164.84 1945.58 L1164.84 1941.64 Z" fill="#000000" fill-rule="nonzero" fill-opacity="1"></path><path clip-path="url(#clip220)" d="M1194.33 1944.86 L1194.33 1940.6 Q1196.09 1941.44 1197.89 1941.88 Q1199.7 1942.32 1201.43 1942.32 Q1206.06 1942.32 1208.49 1939.21 Q1210.95 1936.09 1211.3 1929.75 Q1209.95 1931.74 1207.89 1932.8 Q1205.83 1933.87 1203.33 1933.87 Q1198.15 1933.87 1195.12 1930.74 Q1192.11 1927.59 1192.11 1922.15 Q1192.11 1916.83 1195.25 1913.61 Q1198.4 1910.39 1203.63 1910.39 Q1209.63 1910.39 1212.78 1915 Q1215.95 1919.58 1215.95 1928.33 Q1215.95 1936.51 1212.06 1941.39 Q1208.19 1946.25 1201.64 1946.25 Q1199.88 1946.25 1198.08 1945.9 Q1196.27 1945.56 1194.33 1944.86 M1203.63 1930.21 Q1206.78 1930.21 1208.61 1928.06 Q1210.46 1925.9 1210.46 1922.15 Q1210.46 1918.43 1208.61 1916.27 Q1206.78 1914.1 1203.63 1914.1 Q1200.49 1914.1 1198.63 1916.27 Q1196.81 1918.43 1196.81 1922.15 Q1196.81 1925.9 1198.63 1928.06 Q1200.49 1930.21 1203.63 1930.21 Z" fill="#000000" fill-rule="nonzero" fill-opacity="1"></path><path clip-path="url(#clip220)" d="M1234.35 1929.17 Q1231.02 1929.17 1229.1 1930.95 Q1227.2 1932.73 1227.2 1935.86 Q1227.2 1938.98 1229.1 1940.76 Q1231.02 1942.55 1234.35 1942.55 Q1237.68 1942.55 1239.61 1940.76 Q1241.53 1938.96 1241.53 1935.86 Q1241.53 1932.73 1239.61 1930.95 Q1237.71 1929.17 1234.35 1929.17 M1229.68 1927.18 Q1226.67 1926.44 1224.98 1924.38 Q1223.31 1922.32 1223.31 1919.35 Q1223.31 1915.21 1226.25 1912.8 Q1229.21 1910.39 1234.35 1910.39 Q1239.51 1910.39 1242.45 1912.8 Q1245.39 1915.21 1245.39 1919.35 Q1245.39 1922.32 1243.7 1924.38 Q1242.04 1926.44 1239.05 1927.18 Q1242.43 1927.96 1244.3 1930.26 Q1246.2 1932.55 1246.2 1935.86 Q1246.2 1940.88 1243.12 1943.57 Q1240.07 1946.25 1234.35 1946.25 Q1228.63 1946.25 1225.56 1943.57 Q1222.5 1940.88 1222.5 1935.86 Q1222.5 1932.55 1224.4 1930.26 Q1226.3 1927.96 1229.68 1927.18 M1227.96 1919.79 Q1227.96 1922.48 1229.63 1923.98 Q1231.32 1925.49 1234.35 1925.49 Q1237.36 1925.49 1239.05 1923.98 Q1240.76 1922.48 1240.76 1919.79 Q1240.76 1917.11 1239.05 1915.6 Q1237.36 1914.1 1234.35 1914.1 Q1231.32 1914.1 1229.63 1915.6 Q1227.96 1917.11 1227.96 1919.79 Z" fill="#000000" fill-rule="nonzero" fill-opacity="1"></path><path clip-path="url(#clip220)" d="M1264.51 1929.17 Q1261.18 1929.17 1259.26 1930.95 Q1257.36 1932.73 1257.36 1935.86 Q1257.36 1938.98 1259.26 1940.76 Q1261.18 1942.55 1264.51 1942.55 Q1267.85 1942.55 1269.77 1940.76 Q1271.69 1938.96 1271.69 1935.86 Q1271.69 1932.73 1269.77 1930.95 Q1267.87 1929.17 1264.51 1929.17 M1259.84 1927.18 Q1256.83 1926.44 1255.14 1924.38 Q1253.47 1922.32 1253.47 1919.35 Q1253.47 1915.21 1256.41 1912.8 Q1259.37 1910.39 1264.51 1910.39 Q1269.68 1910.39 1272.62 1912.8 Q1275.55 1915.21 1275.55 1919.35 Q1275.55 1922.32 1273.87 1924.38 Q1272.2 1926.44 1269.21 1927.18 Q1272.59 1927.96 1274.47 1930.26 Q1276.36 1932.55 1276.36 1935.86 Q1276.36 1940.88 1273.29 1943.57 Q1270.23 1946.25 1264.51 1946.25 Q1258.8 1946.25 1255.72 1943.57 Q1252.66 1940.88 1252.66 1935.86 Q1252.66 1932.55 1254.56 1930.26 Q1256.46 1927.96 1259.84 1927.18 M1258.12 1919.79 Q1258.12 1922.48 1259.79 1923.98 Q1261.48 1925.49 1264.51 1925.49 Q1267.52 1925.49 1269.21 1923.98 Q1270.93 1922.48 1270.93 1919.79 Q1270.93 1917.11 1269.21 1915.6 Q1267.52 1914.1 1264.51 1914.1 Q1261.48 1914.1 1259.79 1915.6 Q1258.12 1917.11 1258.12 1919.79 Z" fill="#000000" fill-rule="nonzero" fill-opacity="1"></path><path clip-path="url(#clip220)" d="M1332.49 1941.64 L1340.13 1941.64 L1340.13 1915.28 L1331.82 1916.95 L1331.82 1912.69 L1340.09 1911.02 L1344.76 1911.02 L1344.76 1941.64 L1352.4 1941.64 L1352.4 1945.58 L1332.49 1945.58 L1332.49 1941.64 Z" fill="#000000" fill-rule="nonzero" fill-opacity="1"></path><path clip-path="url(#clip220)" d="M1361.98 1944.86 L1361.98 1940.6 Q1363.74 1941.44 1365.55 1941.88 Q1367.35 1942.32 1369.09 1942.32 Q1373.72 1942.32 1376.15 1939.21 Q1378.6 1936.09 1378.95 1929.75 Q1377.61 1931.74 1375.55 1932.8 Q1373.49 1933.87 1370.99 1933.87 Q1365.8 1933.87 1362.77 1930.74 Q1359.76 1927.59 1359.76 1922.15 Q1359.76 1916.83 1362.91 1913.61 Q1366.06 1910.39 1371.29 1910.39 Q1377.28 1910.39 1380.43 1915 Q1383.6 1919.58 1383.6 1928.33 Q1383.6 1936.51 1379.71 1941.39 Q1375.85 1946.25 1369.3 1946.25 Q1367.54 1946.25 1365.73 1945.9 Q1363.93 1945.56 1361.98 1944.86 M1371.29 1930.21 Q1374.44 1930.21 1376.27 1928.06 Q1378.12 1925.9 1378.12 1922.15 Q1378.12 1918.43 1376.27 1916.27 Q1374.44 1914.1 1371.29 1914.1 Q1368.14 1914.1 1366.29 1916.27 Q1364.46 1918.43 1364.46 1922.15 Q1364.46 1925.9 1366.29 1928.06 Q1368.14 1930.21 1371.29 1930.21 Z" fill="#000000" fill-rule="nonzero" fill-opacity="1"></path><path clip-path="url(#clip220)" d="M1392.15 1944.86 L1392.15 1940.6 Q1393.9 1941.44 1395.71 1941.88 Q1397.52 1942.32 1399.25 1942.32 Q1403.88 1942.32 1406.31 1939.21 Q1408.77 1936.09 1409.11 1929.75 Q1407.77 1931.74 1405.71 1932.8 Q1403.65 1933.87 1401.15 1933.87 Q1395.96 1933.87 1392.93 1930.74 Q1389.92 1927.59 1389.92 1922.15 Q1389.92 1916.83 1393.07 1913.61 Q1396.22 1910.39 1401.45 1910.39 Q1407.45 1910.39 1410.59 1915 Q1413.77 1919.58 1413.77 1928.33 Q1413.77 1936.51 1409.88 1941.39 Q1406.01 1946.25 1399.46 1946.25 Q1397.7 1946.25 1395.9 1945.9 Q1394.09 1945.56 1392.15 1944.86 M1401.45 1930.21 Q1404.6 1930.21 1406.43 1928.06 Q1408.28 1925.9 1408.28 1922.15 Q1408.28 1918.43 1406.43 1916.27 Q1404.6 1914.1 1401.45 1914.1 Q1398.3 1914.1 1396.45 1916.27 Q1394.62 1918.43 1394.62 1922.15 Q1394.62 1925.9 1396.45 1928.06 Q1398.3 1930.21 1401.45 1930.21 Z" fill="#000000" fill-rule="nonzero" fill-opacity="1"></path><path clip-path="url(#clip220)" d="M1426.2 1941.64 L1442.52 1941.64 L1442.52 1945.58 L1420.57 1945.58 L1420.57 1941.64 Q1423.23 1938.89 1427.82 1934.26 Q1432.42 1929.61 1433.6 1928.26 Q1435.85 1925.74 1436.73 1924.01 Q1437.63 1922.25 1437.63 1920.56 Q1437.63 1917.8 1435.69 1916.07 Q1433.77 1914.33 1430.66 1914.33 Q1428.46 1914.33 1426.01 1915.09 Q1423.58 1915.86 1420.8 1917.41 L1420.8 1912.69 Q1423.63 1911.55 1426.08 1910.97 Q1428.53 1910.39 1430.57 1910.39 Q1435.94 1910.39 1439.14 1913.08 Q1442.33 1915.76 1442.33 1920.26 Q1442.33 1922.38 1441.52 1924.31 Q1440.73 1926.2 1438.63 1928.8 Q1438.05 1929.47 1434.95 1932.69 Q1431.84 1935.88 1426.2 1941.64 Z" fill="#000000" fill-rule="nonzero" fill-opacity="1"></path><path clip-path="url(#clip220)" d="M1498.52 1941.64 L1506.15 1941.64 L1506.15 1915.28 L1497.84 1916.95 L1497.84 1912.69 L1506.11 1911.02 L1510.78 1911.02 L1510.78 1941.64 L1518.42 1941.64 L1518.42 1945.58 L1498.52 1945.58 L1498.52 1941.64 Z" fill="#000000" fill-rule="nonzero" fill-opacity="1"></path><path clip-path="url(#clip220)" d="M1528.01 1944.86 L1528.01 1940.6 Q1529.77 1941.44 1531.57 1941.88 Q1533.38 1942.32 1535.11 1942.32 Q1539.74 1942.32 1542.17 1939.21 Q1544.63 1936.09 1544.97 1929.75 Q1543.63 1931.74 1541.57 1932.8 Q1539.51 1933.87 1537.01 1933.87 Q1531.83 1933.87 1528.79 1930.74 Q1525.78 1927.59 1525.78 1922.15 Q1525.78 1916.83 1528.93 1913.61 Q1532.08 1910.39 1537.31 1910.39 Q1543.31 1910.39 1546.46 1915 Q1549.63 1919.58 1549.63 1928.33 Q1549.63 1936.51 1545.74 1941.39 Q1541.87 1946.25 1535.32 1946.25 Q1533.56 1946.25 1531.76 1945.9 Q1529.95 1945.56 1528.01 1944.86 M1537.31 1930.21 Q1540.46 1930.21 1542.29 1928.06 Q1544.14 1925.9 1544.14 1922.15 Q1544.14 1918.43 1542.29 1916.27 Q1540.46 1914.1 1537.31 1914.1 Q1534.16 1914.1 1532.31 1916.27 Q1530.48 1918.43 1530.48 1922.15 Q1530.48 1925.9 1532.31 1928.06 Q1534.16 1930.21 1537.31 1930.21 Z" fill="#000000" fill-rule="nonzero" fill-opacity="1"></path><path clip-path="url(#clip220)" d="M1558.17 1944.86 L1558.17 1940.6 Q1559.93 1941.44 1561.73 1941.88 Q1563.54 1942.32 1565.27 1942.32 Q1569.9 1942.32 1572.33 1939.21 Q1574.79 1936.09 1575.14 1929.75 Q1573.79 1931.74 1571.73 1932.8 Q1569.67 1933.87 1567.17 1933.87 Q1561.99 1933.87 1558.96 1930.74 Q1555.95 1927.59 1555.95 1922.15 Q1555.95 1916.83 1559.09 1913.61 Q1562.24 1910.39 1567.47 1910.39 Q1573.47 1910.39 1576.62 1915 Q1579.79 1919.58 1579.79 1928.33 Q1579.79 1936.51 1575.9 1941.39 Q1572.03 1946.25 1565.48 1946.25 Q1563.72 1946.25 1561.92 1945.9 Q1560.11 1945.56 1558.17 1944.86 M1567.47 1930.21 Q1570.62 1930.21 1572.45 1928.06 Q1574.3 1925.9 1574.3 1922.15 Q1574.3 1918.43 1572.45 1916.27 Q1570.62 1914.1 1567.47 1914.1 Q1564.33 1914.1 1562.47 1916.27 Q1560.64 1918.43 1560.64 1922.15 Q1560.64 1925.9 1562.47 1928.06 Q1564.33 1930.21 1567.47 1930.21 Z" fill="#000000" fill-rule="nonzero" fill-opacity="1"></path><path clip-path="url(#clip220)" d="M1598.77 1926.44 Q1595.62 1926.44 1593.77 1928.59 Q1591.94 1930.74 1591.94 1934.49 Q1591.94 1938.22 1593.77 1940.39 Q1595.62 1942.55 1598.77 1942.55 Q1601.92 1942.55 1603.75 1940.39 Q1605.6 1938.22 1605.6 1934.49 Q1605.6 1930.74 1603.75 1928.59 Q1601.92 1926.44 1598.77 1926.44 M1608.05 1911.78 L1608.05 1916.04 Q1606.29 1915.21 1604.49 1914.77 Q1602.7 1914.33 1600.95 1914.33 Q1596.32 1914.33 1593.86 1917.45 Q1591.43 1920.58 1591.08 1926.9 Q1592.45 1924.88 1594.51 1923.82 Q1596.57 1922.73 1599.05 1922.73 Q1604.26 1922.73 1607.27 1925.9 Q1610.3 1929.05 1610.3 1934.49 Q1610.3 1939.82 1607.15 1943.03 Q1604 1946.25 1598.77 1946.25 Q1592.77 1946.25 1589.6 1941.67 Q1586.43 1937.06 1586.43 1928.33 Q1586.43 1920.14 1590.32 1915.28 Q1594.21 1910.39 1600.76 1910.39 Q1602.52 1910.39 1604.3 1910.74 Q1606.11 1911.09 1608.05 1911.78 Z" fill="#000000" fill-rule="nonzero" fill-opacity="1"></path><path clip-path="url(#clip220)" d="M1669.58 1941.64 L1685.9 1941.64 L1685.9 1945.58 L1663.96 1945.58 L1663.96 1941.64 Q1666.62 1938.89 1671.21 1934.26 Q1675.81 1929.61 1676.99 1928.26 Q1679.24 1925.74 1680.12 1924.01 Q1681.02 1922.25 1681.02 1920.56 Q1681.02 1917.8 1679.08 1916.07 Q1677.15 1914.33 1674.05 1914.33 Q1671.85 1914.33 1669.4 1915.09 Q1666.97 1915.86 1664.19 1917.41 L1664.19 1912.69 Q1667.02 1911.55 1669.47 1910.97 Q1671.92 1910.39 1673.96 1910.39 Q1679.33 1910.39 1682.52 1913.08 Q1685.72 1915.76 1685.72 1920.26 Q1685.72 1922.38 1684.91 1924.31 Q1684.12 1926.2 1682.02 1928.8 Q1681.44 1929.47 1678.33 1932.69 Q1675.23 1935.88 1669.58 1941.64 Z" fill="#000000" fill-rule="nonzero" fill-opacity="1"></path><path clip-path="url(#clip220)" d="M1705.72 1914.1 Q1702.11 1914.1 1700.28 1917.66 Q1698.47 1921.2 1698.47 1928.33 Q1698.47 1935.44 1700.28 1939.01 Q1702.11 1942.55 1705.72 1942.55 Q1709.35 1942.55 1711.16 1939.01 Q1712.99 1935.44 1712.99 1928.33 Q1712.99 1921.2 1711.16 1917.66 Q1709.35 1914.1 1705.72 1914.1 M1705.72 1910.39 Q1711.53 1910.39 1714.58 1915 Q1717.66 1919.58 1717.66 1928.33 Q1717.66 1937.06 1714.58 1941.67 Q1711.53 1946.25 1705.72 1946.25 Q1699.91 1946.25 1696.83 1941.67 Q1693.77 1937.06 1693.77 1928.33 Q1693.77 1919.58 1696.83 1915 Q1699.91 1910.39 1705.72 1910.39 Z" fill="#000000" fill-rule="nonzero" fill-opacity="1"></path><path clip-path="url(#clip220)" d="M1735.88 1914.1 Q1732.27 1914.1 1730.44 1917.66 Q1728.64 1921.2 1728.64 1928.33 Q1728.64 1935.44 1730.44 1939.01 Q1732.27 1942.55 1735.88 1942.55 Q1739.52 1942.55 1741.32 1939.01 Q1743.15 1935.44 1743.15 1928.33 Q1743.15 1921.2 1741.32 1917.66 Q1739.52 1914.1 1735.88 1914.1 M1735.88 1910.39 Q1741.69 1910.39 1744.75 1915 Q1747.83 1919.58 1747.83 1928.33 Q1747.83 1937.06 1744.75 1941.67 Q1741.69 1946.25 1735.88 1946.25 Q1730.07 1946.25 1726.99 1941.67 Q1723.94 1937.06 1723.94 1928.33 Q1723.94 1919.58 1726.99 1915 Q1730.07 1910.39 1735.88 1910.39 Z" fill="#000000" fill-rule="nonzero" fill-opacity="1"></path><path clip-path="url(#clip220)" d="M1766.04 1914.1 Q1762.43 1914.1 1760.6 1917.66 Q1758.8 1921.2 1758.8 1928.33 Q1758.8 1935.44 1760.6 1939.01 Q1762.43 1942.55 1766.04 1942.55 Q1769.68 1942.55 1771.48 1939.01 Q1773.31 1935.44 1773.31 1928.33 Q1773.31 1921.2 1771.48 1917.66 Q1769.68 1914.1 1766.04 1914.1 M1766.04 1910.39 Q1771.85 1910.39 1774.91 1915 Q1777.99 1919.58 1777.99 1928.33 Q1777.99 1937.06 1774.91 1941.67 Q1771.85 1946.25 1766.04 1946.25 Q1760.23 1946.25 1757.15 1941.67 Q1754.1 1937.06 1754.1 1928.33 Q1754.1 1919.58 1757.15 1915 Q1760.23 1910.39 1766.04 1910.39 Z" fill="#000000" fill-rule="nonzero" fill-opacity="1"></path><path clip-path="url(#clip220)" d="M1836.24 1941.64 L1852.56 1941.64 L1852.56 1945.58 L1830.62 1945.58 L1830.62 1941.64 Q1833.28 1938.89 1837.86 1934.26 Q1842.47 1929.61 1843.65 1928.26 Q1845.9 1925.74 1846.78 1924.01 Q1847.68 1922.25 1847.68 1920.56 Q1847.68 1917.8 1845.74 1916.07 Q1843.81 1914.33 1840.71 1914.33 Q1838.51 1914.33 1836.06 1915.09 Q1833.63 1915.86 1830.85 1917.41 L1830.85 1912.69 Q1833.67 1911.55 1836.13 1910.97 Q1838.58 1910.39 1840.62 1910.39 Q1845.99 1910.39 1849.18 1913.08 Q1852.38 1915.76 1852.38 1920.26 Q1852.38 1922.38 1851.57 1924.31 Q1850.78 1926.2 1848.67 1928.8 Q1848.1 1929.47 1844.99 1932.69 Q1841.89 1935.88 1836.24 1941.64 Z" fill="#000000" fill-rule="nonzero" fill-opacity="1"></path><path clip-path="url(#clip220)" d="M1872.38 1914.1 Q1868.77 1914.1 1866.94 1917.66 Q1865.13 1921.2 1865.13 1928.33 Q1865.13 1935.44 1866.94 1939.01 Q1868.77 1942.55 1872.38 1942.55 Q1876.01 1942.55 1877.82 1939.01 Q1879.65 1935.44 1879.65 1928.33 Q1879.65 1921.2 1877.82 1917.66 Q1876.01 1914.1 1872.38 1914.1 M1872.38 1910.39 Q1878.19 1910.39 1881.24 1915 Q1884.32 1919.58 1884.32 1928.33 Q1884.32 1937.06 1881.24 1941.67 Q1878.19 1946.25 1872.38 1946.25 Q1866.57 1946.25 1863.49 1941.67 Q1860.43 1937.06 1860.43 1928.33 Q1860.43 1919.58 1863.49 1915 Q1866.57 1910.39 1872.38 1910.39 Z" fill="#000000" fill-rule="nonzero" fill-opacity="1"></path><path clip-path="url(#clip220)" d="M1902.54 1914.1 Q1898.93 1914.1 1897.1 1917.66 Q1895.3 1921.2 1895.3 1928.33 Q1895.3 1935.44 1897.1 1939.01 Q1898.93 1942.55 1902.54 1942.55 Q1906.17 1942.55 1907.98 1939.01 Q1909.81 1935.44 1909.81 1928.33 Q1909.81 1921.2 1907.98 1917.66 Q1906.17 1914.1 1902.54 1914.1 M1902.54 1910.39 Q1908.35 1910.39 1911.41 1915 Q1914.48 1919.58 1914.48 1928.33 Q1914.48 1937.06 1911.41 1941.67 Q1908.35 1946.25 1902.54 1946.25 Q1896.73 1946.25 1893.65 1941.67 Q1890.6 1937.06 1890.6 1928.33 Q1890.6 1919.58 1893.65 1915 Q1896.73 1910.39 1902.54 1910.39 Z" fill="#000000" fill-rule="nonzero" fill-opacity="1"></path><path clip-path="url(#clip220)" d="M1935.55 1915.09 L1923.74 1933.54 L1935.55 1933.54 L1935.55 1915.09 M1934.32 1911.02 L1940.2 1911.02 L1940.2 1933.54 L1945.13 1933.54 L1945.13 1937.43 L1940.2 1937.43 L1940.2 1945.58 L1935.55 1945.58 L1935.55 1937.43 L1919.95 1937.43 L1919.95 1932.92 L1934.32 1911.02 Z" fill="#000000" fill-rule="nonzero" fill-opacity="1"></path><path clip-path="url(#clip220)" d="M2003.44 1941.64 L2019.76 1941.64 L2019.76 1945.58 L1997.81 1945.58 L1997.81 1941.64 Q2000.47 1938.89 2005.06 1934.26 Q2009.66 1929.61 2010.84 1928.26 Q2013.09 1925.74 2013.97 1924.01 Q2014.87 1922.25 2014.87 1920.56 Q2014.87 1917.8 2012.93 1916.07 Q2011.01 1914.33 2007.9 1914.33 Q2005.7 1914.33 2003.25 1915.09 Q2000.82 1915.86 1998.04 1917.41 L1998.04 1912.69 Q2000.87 1911.55 2003.32 1910.97 Q2005.77 1910.39 2007.81 1910.39 Q2013.18 1910.39 2016.38 1913.08 Q2019.57 1915.76 2019.57 1920.26 Q2019.57 1922.38 2018.76 1924.31 Q2017.97 1926.2 2015.87 1928.8 Q2015.29 1929.47 2012.19 1932.69 Q2009.08 1935.88 2003.44 1941.64 Z" fill="#000000" fill-rule="nonzero" fill-opacity="1"></path><path clip-path="url(#clip220)" d="M2039.57 1914.1 Q2035.96 1914.1 2034.13 1917.66 Q2032.33 1921.2 2032.33 1928.33 Q2032.33 1935.44 2034.13 1939.01 Q2035.96 1942.55 2039.57 1942.55 Q2043.2 1942.55 2045.01 1939.01 Q2046.84 1935.44 2046.84 1928.33 Q2046.84 1921.2 2045.01 1917.66 Q2043.2 1914.1 2039.57 1914.1 M2039.57 1910.39 Q2045.38 1910.39 2048.44 1915 Q2051.51 1919.58 2051.51 1928.33 Q2051.51 1937.06 2048.44 1941.67 Q2045.38 1946.25 2039.57 1946.25 Q2033.76 1946.25 2030.68 1941.67 Q2027.63 1937.06 2027.63 1928.33 Q2027.63 1919.58 2030.68 1915 Q2033.76 1910.39 2039.57 1910.39 Z" fill="#000000" fill-rule="nonzero" fill-opacity="1"></path><path clip-path="url(#clip220)" d="M2069.73 1914.1 Q2066.12 1914.1 2064.29 1917.66 Q2062.49 1921.2 2062.49 1928.33 Q2062.49 1935.44 2064.29 1939.01 Q2066.12 1942.55 2069.73 1942.55 Q2073.37 1942.55 2075.17 1939.01 Q2077 1935.44 2077 1928.33 Q2077 1921.2 2075.17 1917.66 Q2073.37 1914.1 2069.73 1914.1 M2069.73 1910.39 Q2075.54 1910.39 2078.6 1915 Q2081.68 1919.58 2081.68 1928.33 Q2081.68 1937.06 2078.6 1941.67 Q2075.54 1946.25 2069.73 1946.25 Q2063.92 1946.25 2060.84 1941.67 Q2057.79 1937.06 2057.79 1928.33 Q2057.79 1919.58 2060.84 1915 Q2063.92 1910.39 2069.73 1910.39 Z" fill="#000000" fill-rule="nonzero" fill-opacity="1"></path><path clip-path="url(#clip220)" d="M2099.89 1929.17 Q2096.56 1929.17 2094.64 1930.95 Q2092.74 1932.73 2092.74 1935.86 Q2092.74 1938.98 2094.64 1940.76 Q2096.56 1942.55 2099.89 1942.55 Q2103.23 1942.55 2105.15 1940.76 Q2107.07 1938.96 2107.07 1935.86 Q2107.07 1932.73 2105.15 1930.95 Q2103.25 1929.17 2099.89 1929.17 M2095.22 1927.18 Q2092.21 1926.44 2090.52 1924.38 Q2088.85 1922.32 2088.85 1919.35 Q2088.85 1915.21 2091.79 1912.8 Q2094.76 1910.39 2099.89 1910.39 Q2105.06 1910.39 2108 1912.8 Q2110.94 1915.21 2110.94 1919.35 Q2110.94 1922.32 2109.25 1924.38 Q2107.58 1926.44 2104.59 1927.18 Q2107.97 1927.96 2109.85 1930.26 Q2111.75 1932.55 2111.75 1935.86 Q2111.75 1940.88 2108.67 1943.57 Q2105.61 1946.25 2099.89 1946.25 Q2094.18 1946.25 2091.1 1943.57 Q2088.04 1940.88 2088.04 1935.86 Q2088.04 1932.55 2089.94 1930.26 Q2091.84 1927.96 2095.22 1927.18 M2093.51 1919.79 Q2093.51 1922.48 2095.17 1923.98 Q2096.86 1925.49 2099.89 1925.49 Q2102.9 1925.49 2104.59 1923.98 Q2106.31 1922.48 2106.31 1919.79 Q2106.31 1917.11 2104.59 1915.6 Q2102.9 1914.1 2099.89 1914.1 Q2096.86 1914.1 2095.17 1915.6 Q2093.51 1917.11 2093.51 1919.79 Z" fill="#000000" fill-rule="nonzero" fill-opacity="1"></path><path clip-path="url(#clip220)" d="M2171.09 1941.64 L2187.41 1941.64 L2187.41 1945.58 L2165.47 1945.58 L2165.47 1941.64 Q2168.13 1938.89 2172.71 1934.26 Q2177.32 1929.61 2178.5 1928.26 Q2180.74 1925.74 2181.62 1924.01 Q2182.53 1922.25 2182.53 1920.56 Q2182.53 1917.8 2180.58 1916.07 Q2178.66 1914.33 2175.56 1914.33 Q2173.36 1914.33 2170.91 1915.09 Q2168.48 1915.86 2165.7 1917.41 L2165.7 1912.69 Q2168.52 1911.55 2170.98 1910.97 Q2173.43 1910.39 2175.47 1910.39 Q2180.84 1910.39 2184.03 1913.08 Q2187.23 1915.76 2187.23 1920.26 Q2187.23 1922.38 2186.42 1924.31 Q2185.63 1926.2 2183.52 1928.8 Q2182.94 1929.47 2179.84 1932.69 Q2176.74 1935.88 2171.09 1941.64 Z" fill="#000000" fill-rule="nonzero" fill-opacity="1"></path><path clip-path="url(#clip220)" d="M2207.23 1914.1 Q2203.61 1914.1 2201.79 1917.66 Q2199.98 1921.2 2199.98 1928.33 Q2199.98 1935.44 2201.79 1939.01 Q2203.61 1942.55 2207.23 1942.55 Q2210.86 1942.55 2212.67 1939.01 Q2214.49 1935.44 2214.49 1928.33 Q2214.49 1921.2 2212.67 1917.66 Q2210.86 1914.1 2207.23 1914.1 M2207.23 1910.39 Q2213.04 1910.39 2216.09 1915 Q2219.17 1919.58 2219.17 1928.33 Q2219.17 1937.06 2216.09 1941.67 Q2213.04 1946.25 2207.23 1946.25 Q2201.42 1946.25 2198.34 1941.67 Q2195.28 1937.06 2195.28 1928.33 Q2195.28 1919.58 2198.34 1915 Q2201.42 1910.39 2207.23 1910.39 Z" fill="#000000" fill-rule="nonzero" fill-opacity="1"></path><path clip-path="url(#clip220)" d="M2228.2 1941.64 L2235.84 1941.64 L2235.84 1915.28 L2227.53 1916.95 L2227.53 1912.69 L2235.79 1911.02 L2240.47 1911.02 L2240.47 1941.64 L2248.1 1941.64 L2248.1 1945.58 L2228.2 1945.58 L2228.2 1941.64 Z" fill="#000000" fill-rule="nonzero" fill-opacity="1"></path><path clip-path="url(#clip220)" d="M2261.58 1941.64 L2277.9 1941.64 L2277.9 1945.58 L2255.95 1945.58 L2255.95 1941.64 Q2258.61 1938.89 2263.2 1934.26 Q2267.8 1929.61 2268.98 1928.26 Q2271.23 1925.74 2272.11 1924.01 Q2273.01 1922.25 2273.01 1920.56 Q2273.01 1917.8 2271.07 1916.07 Q2269.15 1914.33 2266.04 1914.33 Q2263.85 1914.33 2261.39 1915.09 Q2258.96 1915.86 2256.18 1917.41 L2256.18 1912.69 Q2259.01 1911.55 2261.46 1910.97 Q2263.91 1910.39 2265.95 1910.39 Q2271.32 1910.39 2274.52 1913.08 Q2277.71 1915.76 2277.71 1920.26 Q2277.71 1922.38 2276.9 1924.31 Q2276.11 1926.2 2274.01 1928.8 Q2273.43 1929.47 2270.33 1932.69 Q2267.22 1935.88 2261.58 1941.64 Z" fill="#000000" fill-rule="nonzero" fill-opacity="1"></path><path clip-path="url(#clip220)" d="M2337.11 1941.64 L2353.43 1941.64 L2353.43 1945.58 L2331.49 1945.58 L2331.49 1941.64 Q2334.15 1938.89 2338.73 1934.26 Q2343.34 1929.61 2344.52 1928.26 Q2346.77 1925.74 2347.65 1924.01 Q2348.55 1922.25 2348.55 1920.56 Q2348.55 1917.8 2346.6 1916.07 Q2344.68 1914.33 2341.58 1914.33 Q2339.38 1914.33 2336.93 1915.09 Q2334.5 1915.86 2331.72 1917.41 L2331.72 1912.69 Q2334.54 1911.55 2337 1910.97 Q2339.45 1910.39 2341.49 1910.39 Q2346.86 1910.39 2350.05 1913.08 Q2353.25 1915.76 2353.25 1920.26 Q2353.25 1922.38 2352.44 1924.31 Q2351.65 1926.2 2349.54 1928.8 Q2348.97 1929.47 2345.86 1932.69 Q2342.76 1935.88 2337.11 1941.64 Z" fill="#000000" fill-rule="nonzero" fill-opacity="1"></path><path clip-path="url(#clip220)" d="M2373.25 1914.1 Q2369.64 1914.1 2367.81 1917.66 Q2366 1921.2 2366 1928.33 Q2366 1935.44 2367.81 1939.01 Q2369.64 1942.55 2373.25 1942.55 Q2376.88 1942.55 2378.69 1939.01 Q2380.52 1935.44 2380.52 1928.33 Q2380.52 1921.2 2378.69 1917.66 Q2376.88 1914.1 2373.25 1914.1 M2373.25 1910.39 Q2379.06 1910.39 2382.11 1915 Q2385.19 1919.58 2385.19 1928.33 Q2385.19 1937.06 2382.11 1941.67 Q2379.06 1946.25 2373.25 1946.25 Q2367.44 1946.25 2364.36 1941.67 Q2361.3 1937.06 2361.3 1928.33 Q2361.3 1919.58 2364.36 1915 Q2367.44 1910.39 2373.25 1910.39 Z" fill="#000000" fill-rule="nonzero" fill-opacity="1"></path><path clip-path="url(#clip220)" d="M2394.22 1941.64 L2401.86 1941.64 L2401.86 1915.28 L2393.55 1916.95 L2393.55 1912.69 L2401.81 1911.02 L2406.49 1911.02 L2406.49 1941.64 L2414.13 1941.64 L2414.13 1945.58 L2394.22 1945.58 L2394.22 1941.64 Z" fill="#000000" fill-rule="nonzero" fill-opacity="1"></path><path clip-path="url(#clip220)" d="M2434.15 1926.44 Q2431 1926.44 2429.15 1928.59 Q2427.32 1930.74 2427.32 1934.49 Q2427.32 1938.22 2429.15 1940.39 Q2431 1942.55 2434.15 1942.55 Q2437.3 1942.55 2439.13 1940.39 Q2440.98 1938.22 2440.98 1934.49 Q2440.98 1930.74 2439.13 1928.59 Q2437.3 1926.44 2434.15 1926.44 M2443.43 1911.78 L2443.43 1916.04 Q2441.67 1915.21 2439.87 1914.77 Q2438.09 1914.33 2436.33 1914.33 Q2431.7 1914.33 2429.24 1917.45 Q2426.81 1920.58 2426.47 1926.9 Q2427.83 1924.88 2429.89 1923.82 Q2431.95 1922.73 2434.43 1922.73 Q2439.64 1922.73 2442.65 1925.9 Q2445.68 1929.05 2445.68 1934.49 Q2445.68 1939.82 2442.53 1943.03 Q2439.38 1946.25 2434.15 1946.25 Q2428.16 1946.25 2424.98 1941.67 Q2421.81 1937.06 2421.81 1928.33 Q2421.81 1920.14 2425.7 1915.28 Q2429.59 1910.39 2436.14 1910.39 Q2437.9 1910.39 2439.68 1910.74 Q2441.49 1911.09 2443.43 1911.78 Z" fill="#000000" fill-rule="nonzero" fill-opacity="1"></path><path clip-path="url(#clip220)" d="M2504.1 1941.64 L2520.42 1941.64 L2520.42 1945.58 L2498.47 1945.58 L2498.47 1941.64 Q2501.13 1938.89 2505.72 1934.26 Q2510.32 1929.61 2511.51 1928.26 Q2513.75 1925.74 2514.63 1924.01 Q2515.53 1922.25 2515.53 1920.56 Q2515.53 1917.8 2513.59 1916.07 Q2511.67 1914.33 2508.57 1914.33 Q2506.37 1914.33 2503.91 1915.09 Q2501.48 1915.86 2498.7 1917.41 L2498.7 1912.69 Q2501.53 1911.55 2503.98 1910.97 Q2506.44 1910.39 2508.47 1910.39 Q2513.84 1910.39 2517.04 1913.08 Q2520.23 1915.76 2520.23 1920.26 Q2520.23 1922.38 2519.42 1924.31 Q2518.63 1926.2 2516.53 1928.8 Q2515.95 1929.47 2512.85 1932.69 Q2509.75 1935.88 2504.1 1941.64 Z" fill="#000000" fill-rule="nonzero" fill-opacity="1"></path><path clip-path="url(#clip220)" d="M2540.23 1914.1 Q2536.62 1914.1 2534.79 1917.66 Q2532.99 1921.2 2532.99 1928.33 Q2532.99 1935.44 2534.79 1939.01 Q2536.62 1942.55 2540.23 1942.55 Q2543.87 1942.55 2545.67 1939.01 Q2547.5 1935.44 2547.5 1928.33 Q2547.5 1921.2 2545.67 1917.66 Q2543.87 1914.1 2540.23 1914.1 M2540.23 1910.39 Q2546.04 1910.39 2549.1 1915 Q2552.18 1919.58 2552.18 1928.33 Q2552.18 1937.06 2549.1 1941.67 Q2546.04 1946.25 2540.23 1946.25 Q2534.42 1946.25 2531.34 1941.67 Q2528.29 1937.06 2528.29 1928.33 Q2528.29 1919.58 2531.34 1915 Q2534.42 1910.39 2540.23 1910.39 Z" fill="#000000" fill-rule="nonzero" fill-opacity="1"></path><path clip-path="url(#clip220)" d="M2564.42 1941.64 L2580.74 1941.64 L2580.74 1945.58 L2558.8 1945.58 L2558.8 1941.64 Q2561.46 1938.89 2566.04 1934.26 Q2570.65 1929.61 2571.83 1928.26 Q2574.07 1925.74 2574.95 1924.01 Q2575.86 1922.25 2575.86 1920.56 Q2575.86 1917.8 2573.91 1916.07 Q2571.99 1914.33 2568.89 1914.33 Q2566.69 1914.33 2564.24 1915.09 Q2561.81 1915.86 2559.03 1917.41 L2559.03 1912.69 Q2561.85 1911.55 2564.31 1910.97 Q2566.76 1910.39 2568.8 1910.39 Q2574.17 1910.39 2577.36 1913.08 Q2580.56 1915.76 2580.56 1920.26 Q2580.56 1922.38 2579.75 1924.31 Q2578.96 1926.2 2576.85 1928.8 Q2576.27 1929.47 2573.17 1932.69 Q2570.07 1935.88 2564.42 1941.64 Z" fill="#000000" fill-rule="nonzero" fill-opacity="1"></path><path clip-path="url(#clip220)" d="M2600.56 1914.1 Q2596.94 1914.1 2595.12 1917.66 Q2593.31 1921.2 2593.31 1928.33 Q2593.31 1935.44 2595.12 1939.01 Q2596.94 1942.55 2600.56 1942.55 Q2604.19 1942.55 2606 1939.01 Q2607.82 1935.44 2607.82 1928.33 Q2607.82 1921.2 2606 1917.66 Q2604.19 1914.1 2600.56 1914.1 M2600.56 1910.39 Q2606.37 1910.39 2609.42 1915 Q2612.5 1919.58 2612.5 1928.33 Q2612.5 1937.06 2609.42 1941.67 Q2606.37 1946.25 2600.56 1946.25 Q2594.75 1946.25 2591.67 1941.67 Q2588.61 1937.06 2588.61 1928.33 Q2588.61 1919.58 2591.67 1915 Q2594.75 1910.39 2600.56 1910.39 Z" fill="#000000" fill-rule="nonzero" fill-opacity="1"></path><path clip-path="url(#clip220)" d="M2670.76 1941.64 L2687.08 1941.64 L2687.08 1945.58 L2665.13 1945.58 L2665.13 1941.64 Q2667.79 1938.89 2672.38 1934.26 Q2676.98 1929.61 2678.16 1928.26 Q2680.41 1925.74 2681.29 1924.01 Q2682.19 1922.25 2682.19 1920.56 Q2682.19 1917.8 2680.25 1916.07 Q2678.33 1914.33 2675.22 1914.33 Q2673.03 1914.33 2670.57 1915.09 Q2668.14 1915.86 2665.36 1917.41 L2665.36 1912.69 Q2668.19 1911.55 2670.64 1910.97 Q2673.1 1910.39 2675.13 1910.39 Q2680.5 1910.39 2683.7 1913.08 Q2686.89 1915.76 2686.89 1920.26 Q2686.89 1922.38 2686.08 1924.31 Q2685.29 1926.2 2683.19 1928.8 Q2682.61 1929.47 2679.51 1932.69 Q2676.41 1935.88 2670.76 1941.64 Z" fill="#000000" fill-rule="nonzero" fill-opacity="1"></path><path clip-path="url(#clip220)" d="M2706.89 1914.1 Q2703.28 1914.1 2701.45 1917.66 Q2699.65 1921.2 2699.65 1928.33 Q2699.65 1935.44 2701.45 1939.01 Q2703.28 1942.55 2706.89 1942.55 Q2710.53 1942.55 2712.33 1939.01 Q2714.16 1935.44 2714.16 1928.33 Q2714.16 1921.2 2712.33 1917.66 Q2710.53 1914.1 2706.89 1914.1 M2706.89 1910.39 Q2712.7 1910.39 2715.76 1915 Q2718.84 1919.58 2718.84 1928.33 Q2718.84 1937.06 2715.76 1941.67 Q2712.7 1946.25 2706.89 1946.25 Q2701.08 1946.25 2698 1941.67 Q2694.95 1937.06 2694.95 1928.33 Q2694.95 1919.58 2698 1915 Q2701.08 1910.39 2706.89 1910.39 Z" fill="#000000" fill-rule="nonzero" fill-opacity="1"></path><path clip-path="url(#clip220)" d="M2731.08 1941.64 L2747.4 1941.64 L2747.4 1945.58 L2725.46 1945.58 L2725.46 1941.64 Q2728.12 1938.89 2732.7 1934.26 Q2737.31 1929.61 2738.49 1928.26 Q2740.73 1925.74 2741.61 1924.01 Q2742.52 1922.25 2742.52 1920.56 Q2742.52 1917.8 2740.57 1916.07 Q2738.65 1914.33 2735.55 1914.33 Q2733.35 1914.33 2730.9 1915.09 Q2728.47 1915.86 2725.69 1917.41 L2725.69 1912.69 Q2728.51 1911.55 2730.97 1910.97 Q2733.42 1910.39 2735.46 1910.39 Q2740.83 1910.39 2744.02 1913.08 Q2747.22 1915.76 2747.22 1920.26 Q2747.22 1922.38 2746.41 1924.31 Q2745.62 1926.2 2743.51 1928.8 Q2742.93 1929.47 2739.83 1932.69 Q2736.73 1935.88 2731.08 1941.64 Z" fill="#000000" fill-rule="nonzero" fill-opacity="1"></path><path clip-path="url(#clip220)" d="M2770.06 1915.09 L2758.26 1933.54 L2770.06 1933.54 L2770.06 1915.09 M2768.84 1911.02 L2774.72 1911.02 L2774.72 1933.54 L2779.65 1933.54 L2779.65 1937.43 L2774.72 1937.43 L2774.72 1945.58 L2770.06 1945.58 L2770.06 1937.43 L2754.46 1937.43 L2754.46 1932.92 L2768.84 1911.02 Z" fill="#000000" fill-rule="nonzero" fill-opacity="1"></path><polyline clip-path="url(#clip222)" style="stroke:#000000; stroke-linecap:round; stroke-linejoin:round; stroke-width:2; stroke-opacity:0.1; fill:none" points="198.422,1839.53 2752.76,1839.53 "></polyline>
<polyline clip-path="url(#clip222)" style="stroke:#000000; stroke-linecap:round; stroke-linejoin:round; stroke-width:2; stroke-opacity:0.1; fill:none" points="198.422,1368.72 2752.76,1368.72 "></polyline>
<polyline clip-path="url(#clip222)" style="stroke:#000000; stroke-linecap:round; stroke-linejoin:round; stroke-width:2; stroke-opacity:0.1; fill:none" points="198.422,897.906 2752.76,897.906 "></polyline>
<polyline clip-path="url(#clip222)" style="stroke:#000000; stroke-linecap:round; stroke-linejoin:round; stroke-width:2; stroke-opacity:0.1; fill:none" points="198.422,427.096 2752.76,427.096 "></polyline>
<polyline clip-path="url(#clip220)" style="stroke:#000000; stroke-linecap:round; stroke-linejoin:round; stroke-width:4; stroke-opacity:1; fill:none" points="198.422,1879.98 198.422,47.2441 "></polyline>
<polyline clip-path="url(#clip220)" style="stroke:#000000; stroke-linecap:round; stroke-linejoin:round; stroke-width:4; stroke-opacity:1; fill:none" points="2752.76,1879.98 2752.76,47.2441 "></polyline>
<polyline clip-path="url(#clip220)" style="stroke:#000000; stroke-linecap:round; stroke-linejoin:round; stroke-width:4; stroke-opacity:1; fill:none" points="198.422,1839.53 217.32,1839.53 "></polyline>
<polyline clip-path="url(#clip220)" style="stroke:#000000; stroke-linecap:round; stroke-linejoin:round; stroke-width:4; stroke-opacity:1; fill:none" points="198.422,1368.72 217.32,1368.72 "></polyline>
<polyline clip-path="url(#clip220)" style="stroke:#000000; stroke-linecap:round; stroke-linejoin:round; stroke-width:4; stroke-opacity:1; fill:none" points="198.422,897.906 217.32,897.906 "></polyline>
<polyline clip-path="url(#clip220)" style="stroke:#000000; stroke-linecap:round; stroke-linejoin:round; stroke-width:4; stroke-opacity:1; fill:none" points="198.422,427.096 217.32,427.096 "></polyline>
<path clip-path="url(#clip220)" d="M48.9921 1839.98 L78.6679 1839.98 L78.6679 1843.91 L48.9921 1843.91 L48.9921 1839.98 Z" fill="#000000" fill-rule="nonzero" fill-opacity="1"></path><path clip-path="url(#clip220)" d="M98.7604 1825.33 Q95.1493 1825.33 93.3206 1828.89 Q91.515 1832.43 91.515 1839.56 Q91.515 1846.67 93.3206 1850.23 Q95.1493 1853.77 98.7604 1853.77 Q102.395 1853.77 104.2 1850.23 Q106.029 1846.67 106.029 1839.56 Q106.029 1832.43 104.2 1828.89 Q102.395 1825.33 98.7604 1825.33 M98.7604 1821.62 Q104.571 1821.62 107.626 1826.23 Q110.705 1830.81 110.705 1839.56 Q110.705 1848.29 107.626 1852.89 Q104.571 1857.48 98.7604 1857.48 Q92.9502 1857.48 89.8715 1852.89 Q86.816 1848.29 86.816 1839.56 Q86.816 1830.81 89.8715 1826.23 Q92.9502 1821.62 98.7604 1821.62 Z" fill="#000000" fill-rule="nonzero" fill-opacity="1"></path><path clip-path="url(#clip220)" d="M118.922 1850.93 L123.807 1850.93 L123.807 1856.81 L118.922 1856.81 L118.922 1850.93 Z" fill="#000000" fill-rule="nonzero" fill-opacity="1"></path><path clip-path="url(#clip220)" d="M146.839 1826.32 L135.033 1844.77 L146.839 1844.77 L146.839 1826.32 M145.612 1822.25 L151.492 1822.25 L151.492 1844.77 L156.422 1844.77 L156.422 1848.66 L151.492 1848.66 L151.492 1856.81 L146.839 1856.81 L146.839 1848.66 L131.237 1848.66 L131.237 1844.14 L145.612 1822.25 Z" fill="#000000" fill-rule="nonzero" fill-opacity="1"></path><path clip-path="url(#clip220)" d="M51.0754 1369.17 L80.7512 1369.17 L80.7512 1373.1 L51.0754 1373.1 L51.0754 1369.17 Z" fill="#000000" fill-rule="nonzero" fill-opacity="1"></path><path clip-path="url(#clip220)" d="M100.844 1354.52 Q97.2326 1354.52 95.4039 1358.08 Q93.5984 1361.62 93.5984 1368.75 Q93.5984 1375.86 95.4039 1379.42 Q97.2326 1382.96 100.844 1382.96 Q104.478 1382.96 106.283 1379.42 Q108.112 1375.86 108.112 1368.75 Q108.112 1361.62 106.283 1358.08 Q104.478 1354.52 100.844 1354.52 M100.844 1350.81 Q106.654 1350.81 109.709 1355.42 Q112.788 1360 112.788 1368.75 Q112.788 1377.48 109.709 1382.08 Q106.654 1386.67 100.844 1386.67 Q95.0335 1386.67 91.9549 1382.08 Q88.8993 1377.48 88.8993 1368.75 Q88.8993 1360 91.9549 1355.42 Q95.0335 1350.81 100.844 1350.81 Z" fill="#000000" fill-rule="nonzero" fill-opacity="1"></path><path clip-path="url(#clip220)" d="M121.006 1380.12 L125.89 1380.12 L125.89 1386 L121.006 1386 L121.006 1380.12 Z" fill="#000000" fill-rule="nonzero" fill-opacity="1"></path><path clip-path="url(#clip220)" d="M140.103 1382.06 L156.422 1382.06 L156.422 1386 L134.478 1386 L134.478 1382.06 Q137.14 1379.31 141.723 1374.68 Q146.33 1370.02 147.51 1368.68 Q149.755 1366.16 150.635 1364.42 Q151.538 1362.66 151.538 1360.97 Q151.538 1358.22 149.593 1356.48 Q147.672 1354.75 144.57 1354.75 Q142.371 1354.75 139.918 1355.51 Q137.487 1356.27 134.709 1357.83 L134.709 1353.1 Q137.533 1351.97 139.987 1351.39 Q142.441 1350.81 144.478 1350.81 Q149.848 1350.81 153.042 1353.5 Q156.237 1356.18 156.237 1360.67 Q156.237 1362.8 155.427 1364.72 Q154.64 1366.62 152.533 1369.21 Q151.955 1369.89 148.853 1373.1 Q145.751 1376.3 140.103 1382.06 Z" fill="#000000" fill-rule="nonzero" fill-opacity="1"></path><path clip-path="url(#clip220)" d="M99.2465 883.705 Q95.6354 883.705 93.8067 887.27 Q92.0012 890.811 92.0012 897.941 Q92.0012 905.047 93.8067 908.612 Q95.6354 912.154 99.2465 912.154 Q102.881 912.154 104.686 908.612 Q106.515 905.047 106.515 897.941 Q106.515 890.811 104.686 887.27 Q102.881 883.705 99.2465 883.705 M99.2465 880.001 Q105.057 880.001 108.112 884.608 Q111.191 889.191 111.191 897.941 Q111.191 906.668 108.112 911.274 Q105.057 915.857 99.2465 915.857 Q93.4363 915.857 90.3576 911.274 Q87.3021 906.668 87.3021 897.941 Q87.3021 889.191 90.3576 884.608 Q93.4363 880.001 99.2465 880.001 Z" fill="#000000" fill-rule="nonzero" fill-opacity="1"></path><path clip-path="url(#clip220)" d="M119.408 909.306 L124.293 909.306 L124.293 915.186 L119.408 915.186 L119.408 909.306 Z" fill="#000000" fill-rule="nonzero" fill-opacity="1"></path><path clip-path="url(#clip220)" d="M144.478 883.705 Q140.867 883.705 139.038 887.27 Q137.232 890.811 137.232 897.941 Q137.232 905.047 139.038 908.612 Q140.867 912.154 144.478 912.154 Q148.112 912.154 149.918 908.612 Q151.746 905.047 151.746 897.941 Q151.746 890.811 149.918 887.27 Q148.112 883.705 144.478 883.705 M144.478 880.001 Q150.288 880.001 153.343 884.608 Q156.422 889.191 156.422 897.941 Q156.422 906.668 153.343 911.274 Q150.288 915.857 144.478 915.857 Q138.668 915.857 135.589 911.274 Q132.533 906.668 132.533 897.941 Q132.533 889.191 135.589 884.608 Q138.668 880.001 144.478 880.001 Z" fill="#000000" fill-rule="nonzero" fill-opacity="1"></path><path clip-path="url(#clip220)" d="M100.844 412.894 Q97.2326 412.894 95.4039 416.459 Q93.5984 420.001 93.5984 427.13 Q93.5984 434.237 95.4039 437.802 Q97.2326 441.343 100.844 441.343 Q104.478 441.343 106.283 437.802 Q108.112 434.237 108.112 427.13 Q108.112 420.001 106.283 416.459 Q104.478 412.894 100.844 412.894 M100.844 409.191 Q106.654 409.191 109.709 413.797 Q112.788 418.38 112.788 427.13 Q112.788 435.857 109.709 440.464 Q106.654 445.047 100.844 445.047 Q95.0335 445.047 91.9549 440.464 Q88.8993 435.857 88.8993 427.13 Q88.8993 418.38 91.9549 413.797 Q95.0335 409.191 100.844 409.191 Z" fill="#000000" fill-rule="nonzero" fill-opacity="1"></path><path clip-path="url(#clip220)" d="M121.006 438.496 L125.89 438.496 L125.89 444.376 L121.006 444.376 L121.006 438.496 Z" fill="#000000" fill-rule="nonzero" fill-opacity="1"></path><path clip-path="url(#clip220)" d="M140.103 440.441 L156.422 440.441 L156.422 444.376 L134.478 444.376 L134.478 440.441 Q137.14 437.686 141.723 433.056 Q146.33 428.404 147.51 427.061 Q149.755 424.538 150.635 422.802 Q151.538 421.042 151.538 419.353 Q151.538 416.598 149.593 414.862 Q147.672 413.126 144.57 413.126 Q142.371 413.126 139.918 413.89 Q137.487 414.654 134.709 416.205 L134.709 411.482 Q137.533 410.348 139.987 409.769 Q142.441 409.191 144.478 409.191 Q149.848 409.191 153.042 411.876 Q156.237 414.561 156.237 419.052 Q156.237 421.181 155.427 423.103 Q154.64 425.001 152.533 427.593 Q151.955 428.265 148.853 431.482 Q145.751 434.677 140.103 440.441 Z" fill="#000000" fill-rule="nonzero" fill-opacity="1"></path><path clip-path="url(#clip222)" d="M270.715 1520.22 L281.225 1003.6 L291.734 1105.3 L302.13 1196.81 L312.412 1274.46 L322.922 1338.24 L333.432 1380.66 L343.827 1403.6 L354.109 1407.2 L364.619 1392.39 L375.129 1363.67 L385.524 1322.28 L395.92 1273.94 L406.43 1254.85 L416.94 1262.83 L427.336 1263 L437.617 1251.78 L448.127 1241.27 L458.637 1231.23 L469.033 1221.02 L479.314 1212.88 L489.824 1201.37 L500.334 1192.51 L510.73 1189.3 L521.011 1191.82 L531.521 1230.06 L542.031 1276.1 L552.427 1325.18 L562.823 1367.25 L573.333 1406.57 L583.843 1436.54 L594.238 1462.58 L604.52 1479.43 L615.03 1495.66 L625.54 1527.57 L635.935 1574.34 L646.217 1606.21 L656.727 1620.6 L667.237 1623.66 L677.632 1607.34 L687.914 1579.68 L698.424 1551.38 L708.934 1548.02 L719.33 1543.61 L729.725 1533.17 L740.235 1516.79 L750.745 1496.2 L761.141 1464.87 L771.422 1424.36 L781.932 1375.58 L792.442 1318.32 L802.838 1250.28 L813.119 1174.91 L823.629 1098.67 L834.139 1032.68 L844.535 969.861 L854.816 913.28 L865.326 856.979 L875.836 807.641 L886.232 766.824 L896.628 735.234 L907.138 705.582 L917.648 692.98 L928.043 683.208 L938.325 676.78 L948.835 666.474 L959.345 662.369 L969.741 663.455 L980.022 671.511 L990.532 684.323 L1001.04 716.457 L1011.44 756.019 L1021.72 802.081 L1032.23 846.377 L1042.74 895.614 L1053.13 941.353 L1063.53 989.644 L1074.04 1034.06 L1084.55 1084.65 L1094.95 1126.96 L1105.23 1163.36 L1115.74 1192.25 L1126.25 1216.93 L1136.64 1244.76 L1146.92 1267.16 L1157.43 1287.42 L1167.94 1299.56 L1178.34 1304.5 L1188.62 1302.27 L1199.13 1293.57 L1209.64 1277.53 L1220.04 1254.27 L1230.43 1223.41 L1240.94 1190.46 L1251.45 1149.46 L1261.85 1105.5 L1272.13 1059.29 L1282.64 1030.05 L1293.15 1000.66 L1303.55 983.357 L1313.83 977.557 L1324.34 976.075 L1334.85 981.551 L1345.24 997.303 L1355.52 1027.06 L1366.03 1067.89 L1376.54 1118.14 L1386.94 1176.06 L1397.34 1236.73 L1407.85 1300.01 L1418.36 1363.44 L1428.75 1415.5 L1439.03 1466 L1449.54 1539.11 L1460.05 1626.86 L1470.45 1703.39 L1480.73 1765.01 L1491.24 1807.09 L1501.75 1828.11 L1512.15 1825.14 L1522.43 1797.25 L1532.94 1745.42 L1543.45 1673.68 L1553.84 1577.76 L1564.24 1466.29 L1574.75 1342.31 L1585.26 1213.06 L1595.65 1145.86 L1605.94 1093.41 L1616.45 1038.96 L1626.96 978.919 L1637.35 927.179 L1647.63 883.865 L1658.14 842.015 L1668.65 801.48 L1679.05 773.033 L1689.33 756.924 L1699.84 750.433 L1710.35 752.008 L1720.75 772.107 L1731.14 818.224 L1741.65 896.843 L1752.16 980.205 L1762.56 1062.8 L1772.84 1136.29 L1783.35 1204.99 L1793.86 1262.2 L1804.25 1308.31 L1814.53 1341.83 L1825.04 1364.09 L1835.55 1370.74 L1845.95 1367.38 L1856.23 1349.71 L1866.74 1321.79 L1877.25 1284.76 L1887.65 1237.42 L1898.04 1182.21 L1908.55 1126.05 L1919.06 1062 L1929.46 997.445 L1939.74 930.62 L1950.25 883.22 L1960.76 843.931 L1971.16 808.244 L1981.44 782.434 L1991.95 754.654 L2002.46 728.671 L2012.85 702.456 L2023.13 677.186 L2033.64 649.391 L2044.15 617.378 L2054.55 590.061 L2064.95 560.648 L2075.46 544.121 L2085.97 547.3 L2096.36 550.717 L2106.64 552.867 L2117.15 553.352 L2127.66 550.356 L2138.06 542.124 L2148.34 534.421 L2158.85 526.655 L2169.36 523.785 L2179.76 543.722 L2190.04 563.507 L2200.55 581.696 L2211.06 598.933 L2221.45 616.355 L2231.85 625.409 L2242.36 631.676 L2252.87 641.499 L2263.26 657.7 L2273.55 684.372 L2284.06 714.398 L2294.57 757.467 L2304.96 811.536 L2315.24 871.274 L2325.75 931.764 L2336.26 995.012 L2346.66 1052 L2356.94 1117.08 L2367.45 1189.36 L2377.96 1254.49 L2388.36 1316.37 L2398.75 1368.56 L2409.26 1417.69 L2419.77 1467.44 L2430.17 1515.71 L2440.45 1556.27 L2450.96 1588.47 L2461.47 1610.35 L2471.86 1621.87 L2482.15 1620.41 L2492.66 1604.58 L2503.17 1575.73 L2513.56 1530.27 L2523.84 1470.46 L2534.35 1393.43 L2544.86 1305.94 L2555.26 1206.79 L2565.65 1096.21 L2576.16 979.474 L2586.67 858.941 L2597.07 754.257 L2607.35 666.176 L2617.86 590.411 L2628.37 517.355 L2638.77 451.57 L2649.05 402.372 L2659.56 360.085 L2670.07 331.727 L2680.46 317.885 L2680.46 99.114 L2670.07 121.19 L2659.56 163.963 L2649.05 222.492 L2638.77 300.484 L2628.37 394.728 L2617.86 500.51 L2607.35 614.331 L2597.07 735.255 L2586.67 841.41 L2576.16 929.089 L2565.65 1015.16 L2555.26 1097.53 L2544.86 1176.89 L2534.35 1245.65 L2523.84 1310.78 L2513.56 1367.54 L2503.17 1414.74 L2492.66 1453.23 L2482.15 1479.59 L2471.86 1501.75 L2461.47 1510.28 L2450.96 1510.66 L2440.45 1497.77 L2430.17 1479.77 L2419.77 1450.64 L2409.26 1410.73 L2398.75 1356.66 L2388.36 1300.33 L2377.96 1239.61 L2367.45 1178.73 L2356.94 1112.01 L2346.66 1047.59 L2336.26 982.47 L2325.75 916.849 L2315.24 856.279 L2304.96 797.382 L2294.57 747.989 L2284.06 700.771 L2273.55 654.454 L2263.26 610.954 L2252.87 575.419 L2242.36 548.048 L2231.85 527.369 L2221.45 513.948 L2211.06 501.81 L2200.55 497.781 L2190.04 500.122 L2179.76 507.066 L2169.36 513.648 L2158.85 504.05 L2148.34 486.712 L2138.06 471.008 L2127.66 464.859 L2117.15 465.217 L2106.64 472.248 L2096.36 485.496 L2085.97 504.095 L2075.46 531.117 L2064.95 539.488 L2054.55 537 L2044.15 537.413 L2033.64 545.327 L2023.13 559.609 L2012.85 582.074 L2002.46 610.839 L1991.95 647.453 L1981.44 692.422 L1971.16 741.773 L1960.76 801.315 L1950.25 863.111 L1939.74 917.823 L1929.46 967.156 L1919.06 1012.05 L1908.55 1063.58 L1898.04 1111.22 L1887.65 1164.13 L1877.25 1211.52 L1866.74 1249.32 L1856.23 1277.72 L1845.95 1290.42 L1835.55 1285.96 L1825.04 1273.21 L1814.53 1239.99 L1804.25 1196.49 L1793.86 1142.69 L1783.35 1082.15 L1772.84 1011.84 L1762.56 947.614 L1752.16 887.097 L1741.65 836.701 L1731.14 797.516 L1720.75 734.726 L1710.35 661.372 L1699.84 603.526 L1689.33 558.989 L1679.05 532.58 L1668.65 527.613 L1658.14 547.438 L1647.63 588.489 L1637.35 650.565 L1626.96 735.879 L1616.45 840.274 L1605.94 958.505 L1595.65 1082.56 L1585.26 1197.01 L1574.75 1253.74 L1564.24 1312.04 L1553.84 1363.88 L1543.45 1411.82 L1532.94 1451.89 L1522.43 1490.08 L1512.15 1524.93 L1501.75 1551.08 L1491.24 1563.62 L1480.73 1568.85 L1470.45 1559.9 L1460.05 1538.11 L1449.54 1507.55 L1439.03 1442.29 L1428.75 1347.01 L1418.36 1254.24 L1407.85 1164.58 L1397.34 1084.71 L1386.94 1015.24 L1376.54 958.727 L1366.03 914.577 L1355.52 887.222 L1345.24 874.089 L1334.85 874.908 L1324.34 885.572 L1313.83 906.305 L1303.55 933.507 L1293.15 970.4 L1282.64 1012.35 L1272.13 1056.25 L1261.85 1092.81 L1251.45 1118.91 L1240.94 1147.62 L1230.43 1167.24 L1220.04 1182.88 L1209.64 1196.55 L1199.13 1207.81 L1188.62 1214.88 L1178.34 1220.45 L1167.94 1223.01 L1157.43 1224.1 L1146.92 1221.86 L1136.64 1218.2 L1126.25 1197.66 L1115.74 1179.86 L1105.23 1145.75 L1094.95 1108.23 L1084.55 1070.6 L1074.04 1028.33 L1063.53 982.007 L1053.13 924.537 L1042.74 865.813 L1032.23 808.161 L1021.72 763.016 L1011.44 720.548 L1001.04 693.593 L990.532 674.276 L980.022 641.121 L969.741 607.044 L959.345 582.026 L948.835 565.958 L938.325 560.302 L928.043 560.933 L917.648 571.55 L907.138 591.574 L896.628 627.238 L886.232 672.18 L875.836 725.619 L865.326 789.895 L854.816 862.469 L844.535 937.289 L834.139 1015.77 L823.629 1088.73 L813.119 1143.72 L802.838 1198.99 L792.442 1242.24 L781.932 1273.73 L771.422 1299.71 L761.141 1321.84 L750.745 1351.02 L740.235 1379.3 L729.725 1417.38 L719.33 1458.21 L708.934 1502.5 L698.424 1542.12 L687.914 1544.81 L677.632 1542.15 L667.237 1536.84 L656.727 1531.08 L646.217 1526.5 L635.935 1518.17 L625.54 1506.37 L615.03 1472.93 L604.52 1414.96 L594.238 1364.63 L583.843 1312.91 L573.333 1272.29 L562.823 1236.67 L552.427 1211.39 L542.031 1193.71 L531.521 1187.91 L521.011 1180.27 L510.73 1135.37 L500.334 1093.85 L489.824 1060.24 L479.314 1038.68 L469.033 1028.05 L458.637 1029.8 L448.127 1048.34 L437.617 1078.03 L427.336 1122.33 L416.94 1167.82 L406.43 1219.38 L395.92 1246.12 L385.524 1231.89 L375.129 1216.55 L364.619 1195.35 L354.109 1166.52 L343.827 1137.15 L333.432 1108.09 L322.922 1076.42 L312.412 1036.13 L302.13 1003.44 L291.734 968.687 L281.225 928.776 L270.715 1516.35  Z" fill="#009af9" fill-rule="evenodd" fill-opacity="0.5"></path>
<polyline clip-path="url(#clip222)" style="stroke:#009af9; stroke-linecap:round; stroke-linejoin:round; stroke-width:4; stroke-opacity:1; fill:none" points="270.715,1518.29 281.225,966.185 291.734,1036.99 302.13,1100.13 312.412,1155.3 322.922,1207.33 333.432,1244.37 343.827,1270.37 354.109,1286.86 364.619,1293.87 375.129,1290.11 385.524,1277.09 395.92,1260.03 406.43,1237.11 416.94,1215.33 427.336,1192.66 437.617,1164.9 448.127,1144.81 458.637,1130.51 469.033,1124.53 479.314,1125.78 489.824,1130.8 500.334,1143.18 510.73,1162.33 521.011,1186.04 531.521,1208.99 542.031,1234.91 552.427,1268.28 562.823,1301.96 573.333,1339.43 583.843,1374.73 594.238,1413.61 604.52,1447.19 615.03,1484.3 625.54,1516.97 635.935,1546.25 646.217,1566.35 656.727,1575.84 667.237,1580.25 677.632,1574.74 687.914,1562.24 698.424,1546.75 708.934,1525.26 719.33,1500.91 729.725,1475.28 740.235,1448.04 750.745,1423.61 761.141,1393.35 771.422,1362.03 781.932,1324.66 792.442,1280.28 802.838,1224.64 813.119,1159.32 823.629,1093.7 834.139,1024.22 844.535,953.575 854.816,887.874 865.326,823.437 875.836,766.63 886.232,719.502 896.628,681.236 907.138,648.578 917.648,632.265 928.043,622.071 938.325,618.541 948.835,616.216 959.345,622.198 969.741,635.25 980.022,656.316 990.532,679.3 1001.04,705.025 1011.44,738.284 1021.72,782.548 1032.23,827.269 1042.74,880.713 1053.13,932.945 1063.53,985.825 1074.04,1031.2 1084.55,1077.63 1094.95,1117.59 1105.23,1154.56 1115.74,1186.06 1126.25,1207.3 1136.64,1231.48 1146.92,1244.51 1157.43,1255.76 1167.94,1261.29 1178.34,1262.47 1188.62,1258.57 1199.13,1250.69 1209.64,1237.04 1220.04,1218.58 1230.43,1195.33 1240.94,1169.04 1251.45,1134.19 1261.85,1099.16 1272.13,1057.77 1282.64,1021.2 1293.15,985.529 1303.55,958.432 1313.83,941.931 1324.34,930.823 1334.85,928.229 1345.24,935.696 1355.52,957.14 1366.03,991.234 1376.54,1038.44 1386.94,1095.65 1397.34,1160.72 1407.85,1232.3 1418.36,1308.84 1428.75,1381.25 1439.03,1454.14 1449.54,1523.33 1460.05,1582.49 1470.45,1631.64 1480.73,1666.93 1491.24,1685.36 1501.75,1689.6 1512.15,1675.04 1522.43,1643.67 1532.94,1598.65 1543.45,1542.75 1553.84,1470.82 1564.24,1389.17 1574.75,1298.03 1585.26,1205.03 1595.65,1114.21 1605.94,1025.96 1616.45,939.617 1626.96,857.399 1637.35,788.872 1647.63,736.177 1658.14,694.726 1668.65,664.546 1679.05,652.807 1689.33,657.957 1699.84,676.979 1710.35,706.69 1720.75,753.417 1731.14,807.87 1741.65,866.772 1752.16,933.651 1762.56,1005.21 1772.84,1074.06 1783.35,1143.57 1793.86,1202.45 1804.25,1252.4 1814.53,1290.91 1825.04,1318.65 1835.55,1328.35 1845.95,1328.9 1856.23,1313.71 1866.74,1285.55 1877.25,1248.14 1887.65,1200.77 1898.04,1146.72 1908.55,1094.81 1919.06,1037.03 1929.46,982.3 1939.74,924.221 1950.25,873.165 1960.76,822.623 1971.16,775.008 1981.44,737.428 1991.95,701.054 2002.46,669.755 2012.85,642.265 2023.13,618.398 2033.64,597.359 2044.15,577.395 2054.55,563.53 2064.95,550.068 2075.46,537.619 2085.97,525.698 2096.36,518.106 2106.64,512.558 2117.15,509.284 2127.66,507.608 2138.06,506.566 2148.34,510.566 2158.85,515.353 2169.36,518.716 2179.76,525.394 2190.04,531.815 2200.55,539.739 2211.06,550.372 2221.45,565.152 2231.85,576.389 2242.36,589.862 2252.87,608.459 2263.26,634.327 2273.55,669.413 2284.06,707.585 2294.57,752.728 2304.96,804.459 2315.24,863.777 2325.75,924.306 2336.26,988.741 2346.66,1049.79 2356.94,1114.54 2367.45,1184.05 2377.96,1247.05 2388.36,1308.35 2398.75,1362.61 2409.26,1414.21 2419.77,1459.04 2430.17,1497.74 2440.45,1527.02 2450.96,1549.57 2461.47,1560.31 2471.86,1561.81 2482.15,1550 2492.66,1528.91 2503.17,1495.23 2513.56,1448.9 2523.84,1390.62 2534.35,1319.54 2544.86,1241.41 2555.26,1152.16 2565.65,1055.68 2576.16,954.282 2586.67,850.175 2597.07,744.756 2607.35,640.254 2617.86,545.46 2628.37,456.042 2638.77,376.027 2649.05,312.432 2659.56,262.024 2670.07,226.458 2680.46,208.5 "></polyline>
<path clip-path="url(#clip220)" d="M283.567 212.015 L1413.58 212.015 L1413.58 108.335 L283.567 108.335  Z" fill="#ffffff" fill-rule="evenodd" fill-opacity="1"></path>
<polyline clip-path="url(#clip220)" style="stroke:#000000; stroke-linecap:round; stroke-linejoin:round; stroke-width:4; stroke-opacity:1; fill:none" points="283.567,212.015 1413.58,212.015 1413.58,108.335 283.567,108.335 283.567,212.015 "></polyline>
<polyline clip-path="url(#clip220)" style="stroke:#009af9; stroke-linecap:round; stroke-linejoin:round; stroke-width:4; stroke-opacity:1; fill:none" points="311.948,160.175 482.237,160.175 "></polyline>
<path clip-path="url(#clip220)" d="M510.618 142.895 L532.47 142.895 L532.47 146.83 L515.294 146.83 L515.294 157.062 L531.753 157.062 L531.753 160.997 L515.294 160.997 L515.294 173.52 L532.887 173.52 L532.887 177.455 L510.618 177.455 L510.618 142.895 Z" fill="#000000" fill-rule="nonzero" fill-opacity="1"></path><path clip-path="url(#clip220)" d="M556.915 152.293 L556.915 156.321 Q555.109 155.395 553.165 154.932 Q551.22 154.469 549.137 154.469 Q545.965 154.469 544.368 155.441 Q542.794 156.414 542.794 158.358 Q542.794 159.84 543.928 160.696 Q545.063 161.529 548.489 162.293 L549.947 162.617 Q554.484 163.59 556.382 165.372 Q558.303 167.131 558.303 170.303 Q558.303 173.914 555.433 176.02 Q552.586 178.127 547.586 178.127 Q545.503 178.127 543.234 177.71 Q540.989 177.316 538.489 176.506 L538.489 172.108 Q540.85 173.335 543.141 173.96 Q545.433 174.562 547.678 174.562 Q550.688 174.562 552.308 173.543 Q553.928 172.502 553.928 170.627 Q553.928 168.89 552.748 167.965 Q551.59 167.039 547.632 166.182 L546.151 165.835 Q542.192 165.002 540.433 163.289 Q538.674 161.553 538.674 158.543 Q538.674 154.886 541.266 152.895 Q543.859 150.904 548.628 150.904 Q550.989 150.904 553.072 151.252 Q555.155 151.599 556.915 152.293 Z" fill="#000000" fill-rule="nonzero" fill-opacity="1"></path><path clip-path="url(#clip220)" d="M569.299 144.168 L569.299 151.529 L578.072 151.529 L578.072 154.84 L569.299 154.84 L569.299 168.914 Q569.299 172.085 570.155 172.988 Q571.035 173.89 573.697 173.89 L578.072 173.89 L578.072 177.455 L573.697 177.455 Q568.766 177.455 566.891 175.627 Q565.016 173.775 565.016 168.914 L565.016 154.84 L561.891 154.84 L561.891 151.529 L565.016 151.529 L565.016 144.168 L569.299 144.168 Z" fill="#000000" fill-rule="nonzero" fill-opacity="1"></path><path clip-path="url(#clip220)" d="M583.674 151.529 L587.933 151.529 L587.933 177.455 L583.674 177.455 L583.674 151.529 M583.674 141.437 L587.933 141.437 L587.933 146.83 L583.674 146.83 L583.674 141.437 Z" fill="#000000" fill-rule="nonzero" fill-opacity="1"></path><path clip-path="url(#clip220)" d="M617.03 156.506 Q618.627 153.636 620.849 152.27 Q623.072 150.904 626.081 150.904 Q630.132 150.904 632.331 153.752 Q634.53 156.576 634.53 161.807 L634.53 177.455 L630.247 177.455 L630.247 161.946 Q630.247 158.219 628.928 156.414 Q627.609 154.608 624.9 154.608 Q621.59 154.608 619.669 156.807 Q617.748 159.006 617.748 162.803 L617.748 177.455 L613.465 177.455 L613.465 161.946 Q613.465 158.196 612.146 156.414 Q610.826 154.608 608.072 154.608 Q604.808 154.608 602.886 156.83 Q600.965 159.029 600.965 162.803 L600.965 177.455 L596.683 177.455 L596.683 151.529 L600.965 151.529 L600.965 155.557 Q602.424 153.173 604.461 152.039 Q606.498 150.904 609.298 150.904 Q612.123 150.904 614.09 152.34 Q616.081 153.775 617.03 156.506 Z" fill="#000000" fill-rule="nonzero" fill-opacity="1"></path><path clip-path="url(#clip220)" d="M654.808 164.423 Q649.645 164.423 647.655 165.603 Q645.664 166.784 645.664 169.631 Q645.664 171.9 647.146 173.242 Q648.65 174.562 651.22 174.562 Q654.761 174.562 656.891 172.062 Q659.044 169.539 659.044 165.372 L659.044 164.423 L654.808 164.423 M663.303 162.664 L663.303 177.455 L659.044 177.455 L659.044 173.52 Q657.585 175.881 655.409 177.015 Q653.233 178.127 650.085 178.127 Q646.104 178.127 643.743 175.904 Q641.405 173.659 641.405 169.909 Q641.405 165.534 644.321 163.312 Q647.261 161.09 653.071 161.09 L659.044 161.09 L659.044 160.673 Q659.044 157.733 657.099 156.136 Q655.178 154.516 651.683 154.516 Q649.46 154.516 647.354 155.048 Q645.247 155.58 643.303 156.645 L643.303 152.71 Q645.641 151.807 647.84 151.367 Q650.039 150.904 652.122 150.904 Q657.747 150.904 660.525 153.821 Q663.303 156.738 663.303 162.664 Z" fill="#000000" fill-rule="nonzero" fill-opacity="1"></path><path clip-path="url(#clip220)" d="M676.289 144.168 L676.289 151.529 L685.062 151.529 L685.062 154.84 L676.289 154.84 L676.289 168.914 Q676.289 172.085 677.145 172.988 Q678.025 173.89 680.687 173.89 L685.062 173.89 L685.062 177.455 L680.687 177.455 Q675.756 177.455 673.881 175.627 Q672.006 173.775 672.006 168.914 L672.006 154.84 L668.882 154.84 L668.882 151.529 L672.006 151.529 L672.006 144.168 L676.289 144.168 Z" fill="#000000" fill-rule="nonzero" fill-opacity="1"></path><path clip-path="url(#clip220)" d="M712.84 163.428 L712.84 165.511 L693.256 165.511 Q693.534 169.909 695.895 172.224 Q698.279 174.515 702.516 174.515 Q704.969 174.515 707.261 173.914 Q709.576 173.312 711.844 172.108 L711.844 176.136 Q709.553 177.108 707.145 177.617 Q704.738 178.127 702.261 178.127 Q696.057 178.127 692.423 174.515 Q688.812 170.904 688.812 164.747 Q688.812 158.381 692.238 154.654 Q695.687 150.904 701.52 150.904 Q706.752 150.904 709.784 154.284 Q712.84 157.641 712.84 163.428 M708.58 162.178 Q708.534 158.682 706.613 156.599 Q704.715 154.516 701.567 154.516 Q698.002 154.516 695.849 156.529 Q693.719 158.543 693.395 162.201 L708.58 162.178 Z" fill="#000000" fill-rule="nonzero" fill-opacity="1"></path><path clip-path="url(#clip220)" d="M736.89 155.465 L736.89 141.437 L741.15 141.437 L741.15 177.455 L736.89 177.455 L736.89 173.566 Q735.548 175.881 733.488 177.015 Q731.451 178.127 728.58 178.127 Q723.881 178.127 720.918 174.377 Q717.978 170.627 717.978 164.516 Q717.978 158.404 720.918 154.654 Q723.881 150.904 728.58 150.904 Q731.451 150.904 733.488 152.039 Q735.548 153.15 736.89 155.465 M722.377 164.516 Q722.377 169.215 724.298 171.9 Q726.242 174.562 729.622 174.562 Q733.002 174.562 734.946 171.9 Q736.89 169.215 736.89 164.516 Q736.89 159.816 734.946 157.154 Q733.002 154.469 729.622 154.469 Q726.242 154.469 724.298 157.154 Q722.377 159.816 722.377 164.516 Z" fill="#000000" fill-rule="nonzero" fill-opacity="1"></path><path clip-path="url(#clip220)" d="M769.205 144.168 L769.205 151.529 L777.978 151.529 L777.978 154.84 L769.205 154.84 L769.205 168.914 Q769.205 172.085 770.062 172.988 Q770.941 173.89 773.603 173.89 L777.978 173.89 L777.978 177.455 L773.603 177.455 Q768.673 177.455 766.798 175.627 Q764.923 173.775 764.923 168.914 L764.923 154.84 L761.798 154.84 L761.798 151.529 L764.923 151.529 L764.923 144.168 L769.205 144.168 Z" fill="#000000" fill-rule="nonzero" fill-opacity="1"></path><path clip-path="url(#clip220)" d="M783.58 151.529 L787.839 151.529 L787.839 177.455 L783.58 177.455 L783.58 151.529 M783.58 141.437 L787.839 141.437 L787.839 146.83 L783.58 146.83 L783.58 141.437 Z" fill="#000000" fill-rule="nonzero" fill-opacity="1"></path><path clip-path="url(#clip220)" d="M816.936 156.506 Q818.533 153.636 820.756 152.27 Q822.978 150.904 825.987 150.904 Q830.038 150.904 832.237 153.752 Q834.436 156.576 834.436 161.807 L834.436 177.455 L830.154 177.455 L830.154 161.946 Q830.154 158.219 828.834 156.414 Q827.515 154.608 824.807 154.608 Q821.496 154.608 819.575 156.807 Q817.654 159.006 817.654 162.803 L817.654 177.455 L813.371 177.455 L813.371 161.946 Q813.371 158.196 812.052 156.414 Q810.733 154.608 807.978 154.608 Q804.714 154.608 802.793 156.83 Q800.872 159.029 800.872 162.803 L800.872 177.455 L796.589 177.455 L796.589 151.529 L800.872 151.529 L800.872 155.557 Q802.33 153.173 804.367 152.039 Q806.404 150.904 809.205 150.904 Q812.029 150.904 813.996 152.34 Q815.987 153.775 816.936 156.506 Z" fill="#000000" fill-rule="nonzero" fill-opacity="1"></path><path clip-path="url(#clip220)" d="M865.107 163.428 L865.107 165.511 L845.524 165.511 Q845.802 169.909 848.163 172.224 Q850.547 174.515 854.783 174.515 Q857.237 174.515 859.529 173.914 Q861.843 173.312 864.112 172.108 L864.112 176.136 Q861.82 177.108 859.413 177.617 Q857.005 178.127 854.529 178.127 Q848.325 178.127 844.691 174.515 Q841.08 170.904 841.08 164.747 Q841.08 158.381 844.506 154.654 Q847.955 150.904 853.788 150.904 Q859.019 150.904 862.052 154.284 Q865.107 157.641 865.107 163.428 M860.848 162.178 Q860.802 158.682 858.88 156.599 Q856.982 154.516 853.834 154.516 Q850.269 154.516 848.117 156.529 Q845.987 158.543 845.663 162.201 L860.848 162.178 Z" fill="#000000" fill-rule="nonzero" fill-opacity="1"></path><path clip-path="url(#clip220)" d="M869.945 162.571 L882.422 162.571 L882.422 166.367 L869.945 166.367 L869.945 162.571 Z" fill="#000000" fill-rule="nonzero" fill-opacity="1"></path><path clip-path="url(#clip220)" d="M884.876 151.529 L889.39 151.529 L897.491 173.289 L905.593 151.529 L910.107 151.529 L900.385 177.455 L894.598 177.455 L884.876 151.529 Z" fill="#000000" fill-rule="nonzero" fill-opacity="1"></path><path clip-path="url(#clip220)" d="M927.769 164.423 Q922.607 164.423 920.616 165.603 Q918.626 166.784 918.626 169.631 Q918.626 171.9 920.107 173.242 Q921.612 174.562 924.181 174.562 Q927.723 174.562 929.852 172.062 Q932.005 169.539 932.005 165.372 L932.005 164.423 L927.769 164.423 M936.264 162.664 L936.264 177.455 L932.005 177.455 L932.005 173.52 Q930.547 175.881 928.371 177.015 Q926.195 178.127 923.047 178.127 Q919.065 178.127 916.704 175.904 Q914.366 173.659 914.366 169.909 Q914.366 165.534 917.283 163.312 Q920.223 161.09 926.033 161.09 L932.005 161.09 L932.005 160.673 Q932.005 157.733 930.061 156.136 Q928.139 154.516 924.644 154.516 Q922.422 154.516 920.315 155.048 Q918.209 155.58 916.264 156.645 L916.264 152.71 Q918.602 151.807 920.801 151.367 Q923.001 150.904 925.084 150.904 Q930.709 150.904 933.487 153.821 Q936.264 156.738 936.264 162.664 Z" fill="#000000" fill-rule="nonzero" fill-opacity="1"></path><path clip-path="url(#clip220)" d="M960.06 155.511 Q959.343 155.094 958.486 154.909 Q957.653 154.701 956.635 154.701 Q953.023 154.701 951.079 157.062 Q949.158 159.4 949.158 163.798 L949.158 177.455 L944.875 177.455 L944.875 151.529 L949.158 151.529 L949.158 155.557 Q950.5 153.196 952.653 152.062 Q954.806 150.904 957.885 150.904 Q958.324 150.904 958.857 150.974 Q959.389 151.02 960.037 151.136 L960.06 155.511 Z" fill="#000000" fill-rule="nonzero" fill-opacity="1"></path><path clip-path="url(#clip220)" d="M975.315 179.863 Q973.509 184.492 971.797 185.904 Q970.084 187.316 967.213 187.316 L963.81 187.316 L963.81 183.752 L966.31 183.752 Q968.07 183.752 969.042 182.918 Q970.014 182.085 971.195 178.983 L971.959 177.039 L961.473 151.529 L965.986 151.529 L974.088 171.807 L982.19 151.529 L986.704 151.529 L975.315 179.863 Z" fill="#000000" fill-rule="nonzero" fill-opacity="1"></path><path clip-path="url(#clip220)" d="M992.583 151.529 L996.843 151.529 L996.843 177.455 L992.583 177.455 L992.583 151.529 M992.583 141.437 L996.843 141.437 L996.843 146.83 L992.583 146.83 L992.583 141.437 Z" fill="#000000" fill-rule="nonzero" fill-opacity="1"></path><path clip-path="url(#clip220)" d="M1027.31 161.807 L1027.31 177.455 L1023.05 177.455 L1023.05 161.946 Q1023.05 158.266 1021.61 156.437 Q1020.18 154.608 1017.31 154.608 Q1013.86 154.608 1011.87 156.807 Q1009.88 159.006 1009.88 162.803 L1009.88 177.455 L1005.59 177.455 L1005.59 151.529 L1009.88 151.529 L1009.88 155.557 Q1011.4 153.219 1013.46 152.062 Q1015.55 150.904 1018.25 150.904 Q1022.72 150.904 1025.01 153.682 Q1027.31 156.437 1027.31 161.807 Z" fill="#000000" fill-rule="nonzero" fill-opacity="1"></path><path clip-path="url(#clip220)" d="M1052.86 164.191 Q1052.86 159.562 1050.94 157.016 Q1049.04 154.469 1045.59 154.469 Q1042.17 154.469 1040.25 157.016 Q1038.35 159.562 1038.35 164.191 Q1038.35 168.798 1040.25 171.344 Q1042.17 173.89 1045.59 173.89 Q1049.04 173.89 1050.94 171.344 Q1052.86 168.798 1052.86 164.191 M1057.12 174.238 Q1057.12 180.858 1054.18 184.076 Q1051.24 187.316 1045.18 187.316 Q1042.93 187.316 1040.94 186.969 Q1038.95 186.645 1037.07 185.951 L1037.07 181.807 Q1038.95 182.826 1040.78 183.312 Q1042.61 183.798 1044.5 183.798 Q1048.69 183.798 1050.78 181.599 Q1052.86 179.423 1052.86 175.002 L1052.86 172.895 Q1051.54 175.187 1049.48 176.321 Q1047.42 177.455 1044.55 177.455 Q1039.78 177.455 1036.87 173.821 Q1033.95 170.187 1033.95 164.191 Q1033.95 158.173 1036.87 154.539 Q1039.78 150.904 1044.55 150.904 Q1047.42 150.904 1049.48 152.039 Q1051.54 153.173 1052.86 155.465 L1052.86 151.529 L1057.12 151.529 L1057.12 174.238 Z" fill="#000000" fill-rule="nonzero" fill-opacity="1"></path><path clip-path="url(#clip220)" d="M1092.7 147.502 L1086.36 164.701 L1099.06 164.701 L1092.7 147.502 M1090.06 142.895 L1095.36 142.895 L1108.53 177.455 L1103.67 177.455 L1100.52 168.59 L1084.94 168.59 L1081.8 177.455 L1076.87 177.455 L1090.06 142.895 Z" fill="#000000" fill-rule="nonzero" fill-opacity="1"></path><path clip-path="url(#clip220)" d="M1118.25 146.738 L1118.25 173.613 L1123.9 173.613 Q1131.05 173.613 1134.37 170.372 Q1137.7 167.131 1137.7 160.141 Q1137.7 153.196 1134.37 149.979 Q1131.05 146.738 1123.9 146.738 L1118.25 146.738 M1113.58 142.895 L1123.18 142.895 Q1133.23 142.895 1137.93 147.085 Q1142.63 151.252 1142.63 160.141 Q1142.63 169.076 1137.91 173.265 Q1133.18 177.455 1123.18 177.455 L1113.58 177.455 L1113.58 142.895 Z" fill="#000000" fill-rule="nonzero" fill-opacity="1"></path><path clip-path="url(#clip220)" d="M1181.49 152.293 L1181.49 156.321 Q1179.69 155.395 1177.74 154.932 Q1175.8 154.469 1173.72 154.469 Q1170.55 154.469 1168.95 155.441 Q1167.37 156.414 1167.37 158.358 Q1167.37 159.84 1168.51 160.696 Q1169.64 161.529 1173.07 162.293 L1174.53 162.617 Q1179.06 163.59 1180.96 165.372 Q1182.88 167.131 1182.88 170.303 Q1182.88 173.914 1180.01 176.02 Q1177.17 178.127 1172.17 178.127 Q1170.08 178.127 1167.81 177.71 Q1165.57 177.316 1163.07 176.506 L1163.07 172.108 Q1165.43 173.335 1167.72 173.96 Q1170.01 174.562 1172.26 174.562 Q1175.27 174.562 1176.89 173.543 Q1178.51 172.502 1178.51 170.627 Q1178.51 168.89 1177.33 167.965 Q1176.17 167.039 1172.21 166.182 L1170.73 165.835 Q1166.77 165.002 1165.01 163.289 Q1163.25 161.553 1163.25 158.543 Q1163.25 154.886 1165.85 152.895 Q1168.44 150.904 1173.21 150.904 Q1175.57 150.904 1177.65 151.252 Q1179.74 151.599 1181.49 152.293 Z" fill="#000000" fill-rule="nonzero" fill-opacity="1"></path><path clip-path="url(#clip220)" d="M1189.5 141.437 L1193.79 141.437 L1193.79 162.71 L1206.49 151.529 L1211.93 151.529 L1198.18 163.659 L1212.51 177.455 L1206.96 177.455 L1193.79 164.793 L1193.79 177.455 L1189.5 177.455 L1189.5 141.437 Z" fill="#000000" fill-rule="nonzero" fill-opacity="1"></path><path clip-path="url(#clip220)" d="M1237.61 163.428 L1237.61 165.511 L1218.02 165.511 Q1218.3 169.909 1220.66 172.224 Q1223.05 174.515 1227.28 174.515 Q1229.73 174.515 1232.03 173.914 Q1234.34 173.312 1236.61 172.108 L1236.61 176.136 Q1234.32 177.108 1231.91 177.617 Q1229.5 178.127 1227.03 178.127 Q1220.82 178.127 1217.19 174.515 Q1213.58 170.904 1213.58 164.747 Q1213.58 158.381 1217 154.654 Q1220.45 150.904 1226.29 150.904 Q1231.52 150.904 1234.55 154.284 Q1237.61 157.641 1237.61 163.428 M1233.35 162.178 Q1233.3 158.682 1231.38 156.599 Q1229.48 154.516 1226.33 154.516 Q1222.77 154.516 1220.61 156.529 Q1218.49 158.543 1218.16 162.201 L1233.35 162.178 Z" fill="#000000" fill-rule="nonzero" fill-opacity="1"></path><path clip-path="url(#clip220)" d="M1242.12 151.529 L1246.38 151.529 L1251.7 171.761 L1257 151.529 L1262.03 151.529 L1267.35 171.761 L1272.65 151.529 L1276.91 151.529 L1270.13 177.455 L1265.11 177.455 L1259.53 156.205 L1253.92 177.455 L1248.9 177.455 L1242.12 151.529 Z" fill="#000000" fill-rule="nonzero" fill-opacity="1"></path><path clip-path="url(#clip220)" d="M1304.92 161.807 L1304.92 177.455 L1300.66 177.455 L1300.66 161.946 Q1300.66 158.266 1299.23 156.437 Q1297.79 154.608 1294.92 154.608 Q1291.47 154.608 1289.48 156.807 Q1287.49 159.006 1287.49 162.803 L1287.49 177.455 L1283.21 177.455 L1283.21 151.529 L1287.49 151.529 L1287.49 155.557 Q1289.02 153.219 1291.08 152.062 Q1293.16 150.904 1295.87 150.904 Q1300.34 150.904 1302.63 153.682 Q1304.92 156.437 1304.92 161.807 Z" fill="#000000" fill-rule="nonzero" fill-opacity="1"></path><path clip-path="url(#clip220)" d="M1335.59 163.428 L1335.59 165.511 L1316.01 165.511 Q1316.29 169.909 1318.65 172.224 Q1321.03 174.515 1325.27 174.515 Q1327.72 174.515 1330.01 173.914 Q1332.33 173.312 1334.6 172.108 L1334.6 176.136 Q1332.3 177.108 1329.9 177.617 Q1327.49 178.127 1325.01 178.127 Q1318.81 178.127 1315.17 174.515 Q1311.56 170.904 1311.56 164.747 Q1311.56 158.381 1314.99 154.654 Q1318.44 150.904 1324.27 150.904 Q1329.5 150.904 1332.54 154.284 Q1335.59 157.641 1335.59 163.428 M1331.33 162.178 Q1331.29 158.682 1329.36 156.599 Q1327.47 154.516 1324.32 154.516 Q1320.75 154.516 1318.6 156.529 Q1316.47 158.543 1316.15 162.201 L1331.33 162.178 Z" fill="#000000" fill-rule="nonzero" fill-opacity="1"></path><path clip-path="url(#clip220)" d="M1359.11 152.293 L1359.11 156.321 Q1357.3 155.395 1355.36 154.932 Q1353.41 154.469 1351.33 154.469 Q1348.16 154.469 1346.56 155.441 Q1344.99 156.414 1344.99 158.358 Q1344.99 159.84 1346.12 160.696 Q1347.26 161.529 1350.68 162.293 L1352.14 162.617 Q1356.68 163.59 1358.58 165.372 Q1360.5 167.131 1360.5 170.303 Q1360.5 173.914 1357.63 176.02 Q1354.78 178.127 1349.78 178.127 Q1347.7 178.127 1345.43 177.71 Q1343.18 177.316 1340.68 176.506 L1340.68 172.108 Q1343.04 173.335 1345.34 173.96 Q1347.63 174.562 1349.87 174.562 Q1352.88 174.562 1354.5 173.543 Q1356.12 172.502 1356.12 170.627 Q1356.12 168.89 1354.94 167.965 Q1353.79 167.039 1349.83 166.182 L1348.35 165.835 Q1344.39 165.002 1342.63 163.289 Q1340.87 161.553 1340.87 158.543 Q1340.87 154.886 1343.46 152.895 Q1346.05 150.904 1350.82 150.904 Q1353.18 150.904 1355.27 151.252 Q1357.35 151.599 1359.11 152.293 Z" fill="#000000" fill-rule="nonzero" fill-opacity="1"></path><path clip-path="url(#clip220)" d="M1383.81 152.293 L1383.81 156.321 Q1382 155.395 1380.06 154.932 Q1378.11 154.469 1376.03 154.469 Q1372.86 154.469 1371.26 155.441 Q1369.69 156.414 1369.69 158.358 Q1369.69 159.84 1370.82 160.696 Q1371.96 161.529 1375.38 162.293 L1376.84 162.617 Q1381.38 163.59 1383.28 165.372 Q1385.2 167.131 1385.2 170.303 Q1385.2 173.914 1382.33 176.02 Q1379.48 178.127 1374.48 178.127 Q1372.4 178.127 1370.13 177.71 Q1367.88 177.316 1365.38 176.506 L1365.38 172.108 Q1367.74 173.335 1370.04 173.96 Q1372.33 174.562 1374.57 174.562 Q1377.58 174.562 1379.2 173.543 Q1380.82 172.502 1380.82 170.627 Q1380.82 168.89 1379.64 167.965 Q1378.48 167.039 1374.53 166.182 L1373.04 165.835 Q1369.09 165.002 1367.33 163.289 Q1365.57 161.553 1365.57 158.543 Q1365.57 154.886 1368.16 152.895 Q1370.75 150.904 1375.52 150.904 Q1377.88 150.904 1379.97 151.252 Q1382.05 151.599 1383.81 152.293 Z" fill="#000000" fill-rule="nonzero" fill-opacity="1"></path></svg>