<svg xmlns="http://www.w3.org/2000/svg" xmlns:xlink="http://www.w3.org/1999/xlink" width="700" height="500" viewBox="0 0 2800 2000">
<defs>
  <clipPath id="clip180">
    <rect x="0" y="0" width="2800" height="2000"></rect>
  </clipPath>
</defs>
<path clip-path="url(#clip180)" d="M0 2000 L2800 2000 L2800 0 L0 0  Z" fill="#ffffff" fill-rule="evenodd" fill-opacity="1"></path>
<defs>
  <clipPath id="clip181">
    <rect x="560" y="0" width="1961" height="1961"></rect>
  </clipPath>
</defs>
<path clip-path="url(#clip180)" d="M114.881 1879.98 L2752.76 1879.98 L2752.76 47.2441 L114.881 47.2441  Z" fill="#ffffff" fill-rule="evenodd" fill-opacity="1"></path>
<defs>
  <clipPath id="clip182">
    <rect x="114" y="47" width="2639" height="1834"></rect>
  </clipPath>
</defs>
<polyline clip-path="url(#clip182)" style="stroke:#000000; stroke-linecap:round; stroke-linejoin:round; stroke-width:2; stroke-opacity:0.1; fill:none" points="135.977,1879.98 135.977,47.2441 "></polyline>
<polyline clip-path="url(#clip182)" style="stroke:#000000; stroke-linecap:round; stroke-linejoin:round; stroke-width:2; stroke-opacity:0.1; fill:none" points="308.338,1879.98 308.338,47.2441 "></polyline>
<polyline clip-path="url(#clip182)" style="stroke:#000000; stroke-linecap:round; stroke-linejoin:round; stroke-width:2; stroke-opacity:0.1; fill:none" points="480.7,1879.98 480.7,47.2441 "></polyline>
<polyline clip-path="url(#clip182)" style="stroke:#000000; stroke-linecap:round; stroke-linejoin:round; stroke-width:2; stroke-opacity:0.1; fill:none" points="653.061,1879.98 653.061,47.2441 "></polyline>
<polyline clip-path="url(#clip182)" style="stroke:#000000; stroke-linecap:round; stroke-linejoin:round; stroke-width:2; stroke-opacity:0.1; fill:none" points="825.422,1879.98 825.422,47.2441 "></polyline>
<polyline clip-path="url(#clip182)" style="stroke:#000000; stroke-linecap:round; stroke-linejoin:round; stroke-width:2; stroke-opacity:0.1; fill:none" points="997.783,1879.98 997.783,47.2441 "></polyline>
<polyline clip-path="url(#clip182)" style="stroke:#000000; stroke-linecap:round; stroke-linejoin:round; stroke-width:2; stroke-opacity:0.1; fill:none" points="1170.14,1879.98 1170.14,47.2441 "></polyline>
<polyline clip-path="url(#clip182)" style="stroke:#000000; stroke-linecap:round; stroke-linejoin:round; stroke-width:2; stroke-opacity:0.1; fill:none" points="1342.51,1879.98 1342.51,47.2441 "></polyline>
<polyline clip-path="url(#clip182)" style="stroke:#000000; stroke-linecap:round; stroke-linejoin:round; stroke-width:2; stroke-opacity:0.1; fill:none" points="1514.87,1879.98 1514.87,47.2441 "></polyline>
<polyline clip-path="url(#clip182)" style="stroke:#000000; stroke-linecap:round; stroke-linejoin:round; stroke-width:2; stroke-opacity:0.1; fill:none" points="1687.23,1879.98 1687.23,47.2441 "></polyline>
<polyline clip-path="url(#clip182)" style="stroke:#000000; stroke-linecap:round; stroke-linejoin:round; stroke-width:2; stroke-opacity:0.1; fill:none" points="1859.59,1879.98 1859.59,47.2441 "></polyline>
<polyline clip-path="url(#clip182)" style="stroke:#000000; stroke-linecap:round; stroke-linejoin:round; stroke-width:2; stroke-opacity:0.1; fill:none" points="2031.95,1879.98 2031.95,47.2441 "></polyline>
<polyline clip-path="url(#clip182)" style="stroke:#000000; stroke-linecap:round; stroke-linejoin:round; stroke-width:2; stroke-opacity:0.1; fill:none" points="2204.31,1879.98 2204.31,47.2441 "></polyline>
<polyline clip-path="url(#clip182)" style="stroke:#000000; stroke-linecap:round; stroke-linejoin:round; stroke-width:2; stroke-opacity:0.1; fill:none" points="2376.67,1879.98 2376.67,47.2441 "></polyline>
<polyline clip-path="url(#clip182)" style="stroke:#000000; stroke-linecap:round; stroke-linejoin:round; stroke-width:2; stroke-opacity:0.1; fill:none" points="2549.03,1879.98 2549.03,47.2441 "></polyline>
<polyline clip-path="url(#clip182)" style="stroke:#000000; stroke-linecap:round; stroke-linejoin:round; stroke-width:2; stroke-opacity:0.1; fill:none" points="2721.4,1879.98 2721.4,47.2441 "></polyline>
<polyline clip-path="url(#clip180)" style="stroke:#000000; stroke-linecap:round; stroke-linejoin:round; stroke-width:4; stroke-opacity:1; fill:none" points="114.881,1879.98 2752.76,1879.98 "></polyline>
<polyline clip-path="url(#clip180)" style="stroke:#000000; stroke-linecap:round; stroke-linejoin:round; stroke-width:4; stroke-opacity:1; fill:none" points="114.881,47.2441 2752.76,47.2441 "></polyline>
<polyline clip-path="url(#clip180)" style="stroke:#000000; stroke-linecap:round; stroke-linejoin:round; stroke-width:4; stroke-opacity:1; fill:none" points="135.977,1879.98 135.977,1861.08 "></polyline>
<polyline clip-path="url(#clip180)" style="stroke:#000000; stroke-linecap:round; stroke-linejoin:round; stroke-width:4; stroke-opacity:1; fill:none" points="308.338,1879.98 308.338,1861.08 "></polyline>
<polyline clip-path="url(#clip180)" style="stroke:#000000; stroke-linecap:round; stroke-linejoin:round; stroke-width:4; stroke-opacity:1; fill:none" points="480.7,1879.98 480.7,1861.08 "></polyline>
<polyline clip-path="url(#clip180)" style="stroke:#000000; stroke-linecap:round; stroke-linejoin:round; stroke-width:4; stroke-opacity:1; fill:none" points="653.061,1879.98 653.061,1861.08 "></polyline>
<polyline clip-path="url(#clip180)" style="stroke:#000000; stroke-linecap:round; stroke-linejoin:round; stroke-width:4; stroke-opacity:1; fill:none" points="825.422,1879.98 825.422,1861.08 "></polyline>
<polyline clip-path="url(#clip180)" style="stroke:#000000; stroke-linecap:round; stroke-linejoin:round; stroke-width:4; stroke-opacity:1; fill:none" points="997.783,1879.98 997.783,1861.08 "></polyline>
<polyline clip-path="url(#clip180)" style="stroke:#000000; stroke-linecap:round; stroke-linejoin:round; stroke-width:4; stroke-opacity:1; fill:none" points="1170.14,1879.98 1170.14,1861.08 "></polyline>
<polyline clip-path="url(#clip180)" style="stroke:#000000; stroke-linecap:round; stroke-linejoin:round; stroke-width:4; stroke-opacity:1; fill:none" points="1342.51,1879.98 1342.51,1861.08 "></polyline>
<polyline clip-path="url(#clip180)" style="stroke:#000000; stroke-linecap:round; stroke-linejoin:round; stroke-width:4; stroke-opacity:1; fill:none" points="1514.87,1879.98 1514.87,1861.08 "></polyline>
<polyline clip-path="url(#clip180)" style="stroke:#000000; stroke-linecap:round; stroke-linejoin:round; stroke-width:4; stroke-opacity:1; fill:none" points="1687.23,1879.98 1687.23,1861.08 "></polyline>
<polyline clip-path="url(#clip180)" style="stroke:#000000; stroke-linecap:round; stroke-linejoin:round; stroke-width:4; stroke-opacity:1; fill:none" points="1859.59,1879.98 1859.59,1861.08 "></polyline>
<polyline clip-path="url(#clip180)" style="stroke:#000000; stroke-linecap:round; stroke-linejoin:round; stroke-width:4; stroke-opacity:1; fill:none" points="2031.95,1879.98 2031.95,1861.08 "></polyline>
<polyline clip-path="url(#clip180)" style="stroke:#000000; stroke-linecap:round; stroke-linejoin:round; stroke-width:4; stroke-opacity:1; fill:none" points="2204.31,1879.98 2204.31,1861.08 "></polyline>
<polyline clip-path="url(#clip180)" style="stroke:#000000; stroke-linecap:round; stroke-linejoin:round; stroke-width:4; stroke-opacity:1; fill:none" points="2376.67,1879.98 2376.67,1861.08 "></polyline>
<polyline clip-path="url(#clip180)" style="stroke:#000000; stroke-linecap:round; stroke-linejoin:round; stroke-width:4; stroke-opacity:1; fill:none" points="2549.03,1879.98 2549.03,1861.08 "></polyline>
<polyline clip-path="url(#clip180)" style="stroke:#000000; stroke-linecap:round; stroke-linejoin:round; stroke-width:4; stroke-opacity:1; fill:none" points="2721.4,1879.98 2721.4,1861.08 "></polyline>
<path clip-path="url(#clip180)" d="M80.2599 1941.64 L87.8987 1941.64 L87.8987 1915.28 L79.5886 1916.95 L79.5886 1912.69 L87.8524 1911.02 L92.5283 1911.02 L92.5283 1941.64 L100.167 1941.64 L100.167 1945.58 L80.2599 1945.58 L80.2599 1941.64 Z" fill="#000000" fill-rule="nonzero" fill-opacity="1"></path><path clip-path="url(#clip180)" d="M109.75 1944.86 L109.75 1940.6 Q111.51 1941.44 113.315 1941.88 Q115.121 1942.32 116.857 1942.32 Q121.486 1942.32 123.917 1939.21 Q126.371 1936.09 126.718 1929.75 Q125.375 1931.74 123.315 1932.8 Q121.255 1933.87 118.755 1933.87 Q113.57 1933.87 110.537 1930.74 Q107.528 1927.59 107.528 1922.15 Q107.528 1916.83 110.676 1913.61 Q113.824 1910.39 119.056 1910.39 Q125.051 1910.39 128.199 1915 Q131.371 1919.58 131.371 1928.33 Q131.371 1936.51 127.482 1941.39 Q123.616 1946.25 117.065 1946.25 Q115.306 1946.25 113.5 1945.9 Q111.695 1945.56 109.75 1944.86 M119.056 1930.21 Q122.204 1930.21 124.033 1928.06 Q125.885 1925.9 125.885 1922.15 Q125.885 1918.43 124.033 1916.27 Q122.204 1914.1 119.056 1914.1 Q115.908 1914.1 114.056 1916.27 Q112.227 1918.43 112.227 1922.15 Q112.227 1925.9 114.056 1928.06 Q115.908 1930.21 119.056 1930.21 Z" fill="#000000" fill-rule="nonzero" fill-opacity="1"></path><path clip-path="url(#clip180)" d="M150.352 1926.44 Q147.204 1926.44 145.352 1928.59 Q143.523 1930.74 143.523 1934.49 Q143.523 1938.22 145.352 1940.39 Q147.204 1942.55 150.352 1942.55 Q153.5 1942.55 155.329 1940.39 Q157.181 1938.22 157.181 1934.49 Q157.181 1930.74 155.329 1928.59 Q153.5 1926.44 150.352 1926.44 M159.634 1911.78 L159.634 1916.04 Q157.875 1915.21 156.07 1914.77 Q154.287 1914.33 152.528 1914.33 Q147.898 1914.33 145.445 1917.45 Q143.014 1920.58 142.667 1926.9 Q144.033 1924.88 146.093 1923.82 Q148.153 1922.73 150.63 1922.73 Q155.838 1922.73 158.847 1925.9 Q161.88 1929.05 161.88 1934.49 Q161.88 1939.82 158.732 1943.03 Q155.584 1946.25 150.352 1946.25 Q144.357 1946.25 141.185 1941.67 Q138.014 1937.06 138.014 1928.33 Q138.014 1920.14 141.903 1915.28 Q145.792 1910.39 152.343 1910.39 Q154.102 1910.39 155.884 1910.74 Q157.69 1911.09 159.634 1911.78 Z" fill="#000000" fill-rule="nonzero" fill-opacity="1"></path><path clip-path="url(#clip180)" d="M182.782 1915.09 L170.977 1933.54 L182.782 1933.54 L182.782 1915.09 M181.556 1911.02 L187.435 1911.02 L187.435 1933.54 L192.366 1933.54 L192.366 1937.43 L187.435 1937.43 L187.435 1945.58 L182.782 1945.58 L182.782 1937.43 L167.181 1937.43 L167.181 1932.92 L181.556 1911.02 Z" fill="#000000" fill-rule="nonzero" fill-opacity="1"></path><path clip-path="url(#clip180)" d="M252.91 1941.64 L260.549 1941.64 L260.549 1915.28 L252.239 1916.95 L252.239 1912.69 L260.503 1911.02 L265.179 1911.02 L265.179 1941.64 L272.818 1941.64 L272.818 1945.58 L252.91 1945.58 L252.91 1941.64 Z" fill="#000000" fill-rule="nonzero" fill-opacity="1"></path><path clip-path="url(#clip180)" d="M282.401 1944.86 L282.401 1940.6 Q284.16 1941.44 285.966 1941.88 Q287.771 1942.32 289.507 1942.32 Q294.137 1942.32 296.568 1939.21 Q299.021 1936.09 299.369 1929.75 Q298.026 1931.74 295.966 1932.8 Q293.906 1933.87 291.406 1933.87 Q286.22 1933.87 283.188 1930.74 Q280.179 1927.59 280.179 1922.15 Q280.179 1916.83 283.327 1913.61 Q286.475 1910.39 291.707 1910.39 Q297.702 1910.39 300.85 1915 Q304.021 1919.58 304.021 1928.33 Q304.021 1936.51 300.132 1941.39 Q296.267 1946.25 289.716 1946.25 Q287.957 1946.25 286.151 1945.9 Q284.345 1945.56 282.401 1944.86 M291.707 1930.21 Q294.855 1930.21 296.683 1928.06 Q298.535 1925.9 298.535 1922.15 Q298.535 1918.43 296.683 1916.27 Q294.855 1914.1 291.707 1914.1 Q288.558 1914.1 286.707 1916.27 Q284.878 1918.43 284.878 1922.15 Q284.878 1925.9 286.707 1928.06 Q288.558 1930.21 291.707 1930.21 Z" fill="#000000" fill-rule="nonzero" fill-opacity="1"></path><path clip-path="url(#clip180)" d="M323.003 1926.44 Q319.855 1926.44 318.003 1928.59 Q316.174 1930.74 316.174 1934.49 Q316.174 1938.22 318.003 1940.39 Q319.855 1942.55 323.003 1942.55 Q326.151 1942.55 327.979 1940.39 Q329.831 1938.22 329.831 1934.49 Q329.831 1930.74 327.979 1928.59 Q326.151 1926.44 323.003 1926.44 M332.285 1911.78 L332.285 1916.04 Q330.526 1915.21 328.72 1914.77 Q326.938 1914.33 325.179 1914.33 Q320.549 1914.33 318.095 1917.45 Q315.665 1920.58 315.318 1926.9 Q316.683 1924.88 318.743 1923.82 Q320.804 1922.73 323.28 1922.73 Q328.489 1922.73 331.498 1925.9 Q334.53 1929.05 334.53 1934.49 Q334.53 1939.82 331.382 1943.03 Q328.234 1946.25 323.003 1946.25 Q317.007 1946.25 313.836 1941.67 Q310.665 1937.06 310.665 1928.33 Q310.665 1920.14 314.554 1915.28 Q318.443 1910.39 324.993 1910.39 Q326.753 1910.39 328.535 1910.74 Q330.341 1911.09 332.285 1911.78 Z" fill="#000000" fill-rule="nonzero" fill-opacity="1"></path><path clip-path="url(#clip180)" d="M352.586 1929.17 Q349.253 1929.17 347.331 1930.95 Q345.433 1932.73 345.433 1935.86 Q345.433 1938.98 347.331 1940.76 Q349.253 1942.55 352.586 1942.55 Q355.919 1942.55 357.84 1940.76 Q359.762 1938.96 359.762 1935.86 Q359.762 1932.73 357.84 1930.95 Q355.942 1929.17 352.586 1929.17 M347.91 1927.18 Q344.901 1926.44 343.211 1924.38 Q341.544 1922.32 341.544 1919.35 Q341.544 1915.21 344.484 1912.8 Q347.447 1910.39 352.586 1910.39 Q357.748 1910.39 360.688 1912.8 Q363.627 1915.21 363.627 1919.35 Q363.627 1922.32 361.938 1924.38 Q360.271 1926.44 357.285 1927.18 Q360.665 1927.96 362.539 1930.26 Q364.438 1932.55 364.438 1935.86 Q364.438 1940.88 361.359 1943.57 Q358.303 1946.25 352.586 1946.25 Q346.868 1946.25 343.79 1943.57 Q340.734 1940.88 340.734 1935.86 Q340.734 1932.55 342.632 1930.26 Q344.53 1927.96 347.91 1927.18 M346.197 1919.79 Q346.197 1922.48 347.864 1923.98 Q349.553 1925.49 352.586 1925.49 Q355.595 1925.49 357.285 1923.98 Q358.998 1922.48 358.998 1919.79 Q358.998 1917.11 357.285 1915.6 Q355.595 1914.1 352.586 1914.1 Q349.553 1914.1 347.864 1915.6 Q346.197 1917.11 346.197 1919.79 Z" fill="#000000" fill-rule="nonzero" fill-opacity="1"></path><path clip-path="url(#clip180)" d="M426.024 1941.64 L433.663 1941.64 L433.663 1915.28 L425.353 1916.95 L425.353 1912.69 L433.617 1911.02 L438.292 1911.02 L438.292 1941.64 L445.931 1941.64 L445.931 1945.58 L426.024 1945.58 L426.024 1941.64 Z" fill="#000000" fill-rule="nonzero" fill-opacity="1"></path><path clip-path="url(#clip180)" d="M455.515 1944.86 L455.515 1940.6 Q457.274 1941.44 459.079 1941.88 Q460.885 1942.32 462.621 1942.32 Q467.251 1942.32 469.681 1939.21 Q472.135 1936.09 472.482 1929.75 Q471.14 1931.74 469.079 1932.8 Q467.019 1933.87 464.519 1933.87 Q459.334 1933.87 456.302 1930.74 Q453.292 1927.59 453.292 1922.15 Q453.292 1916.83 456.441 1913.61 Q459.589 1910.39 464.82 1910.39 Q470.815 1910.39 473.964 1915 Q477.135 1919.58 477.135 1928.33 Q477.135 1936.51 473.246 1941.39 Q469.38 1946.25 462.829 1946.25 Q461.07 1946.25 459.265 1945.9 Q457.459 1945.56 455.515 1944.86 M464.82 1930.21 Q467.968 1930.21 469.797 1928.06 Q471.649 1925.9 471.649 1922.15 Q471.649 1918.43 469.797 1916.27 Q467.968 1914.1 464.82 1914.1 Q461.672 1914.1 459.82 1916.27 Q457.991 1918.43 457.991 1922.15 Q457.991 1925.9 459.82 1928.06 Q461.672 1930.21 464.82 1930.21 Z" fill="#000000" fill-rule="nonzero" fill-opacity="1"></path><path clip-path="url(#clip180)" d="M484.357 1911.02 L506.579 1911.02 L506.579 1913.01 L494.033 1945.58 L489.149 1945.58 L500.954 1914.95 L484.357 1914.95 L484.357 1911.02 Z" fill="#000000" fill-rule="nonzero" fill-opacity="1"></path><path clip-path="url(#clip180)" d="M519.727 1941.64 L536.047 1941.64 L536.047 1945.58 L514.102 1945.58 L514.102 1941.64 Q516.764 1938.89 521.348 1934.26 Q525.954 1929.61 527.135 1928.26 Q529.38 1925.74 530.26 1924.01 Q531.162 1922.25 531.162 1920.56 Q531.162 1917.8 529.218 1916.07 Q527.297 1914.33 524.195 1914.33 Q521.996 1914.33 519.542 1915.09 Q517.111 1915.86 514.334 1917.41 L514.334 1912.69 Q517.158 1911.55 519.611 1910.97 Q522.065 1910.39 524.102 1910.39 Q529.473 1910.39 532.667 1913.08 Q535.861 1915.76 535.861 1920.26 Q535.861 1922.38 535.051 1924.31 Q534.264 1926.2 532.158 1928.8 Q531.579 1929.47 528.477 1932.69 Q525.375 1935.88 519.727 1941.64 Z" fill="#000000" fill-rule="nonzero" fill-opacity="1"></path><path clip-path="url(#clip180)" d="M597.506 1941.64 L605.144 1941.64 L605.144 1915.28 L596.834 1916.95 L596.834 1912.69 L605.098 1911.02 L609.774 1911.02 L609.774 1941.64 L617.413 1941.64 L617.413 1945.58 L597.506 1945.58 L597.506 1941.64 Z" fill="#000000" fill-rule="nonzero" fill-opacity="1"></path><path clip-path="url(#clip180)" d="M626.996 1944.86 L626.996 1940.6 Q628.755 1941.44 630.561 1941.88 Q632.367 1942.32 634.103 1942.32 Q638.732 1942.32 641.163 1939.21 Q643.616 1936.09 643.964 1929.75 Q642.621 1931.74 640.561 1932.8 Q638.501 1933.87 636.001 1933.87 Q630.816 1933.87 627.783 1930.74 Q624.774 1927.59 624.774 1922.15 Q624.774 1916.83 627.922 1913.61 Q631.07 1910.39 636.302 1910.39 Q642.297 1910.39 645.445 1915 Q648.616 1919.58 648.616 1928.33 Q648.616 1936.51 644.728 1941.39 Q640.862 1946.25 634.311 1946.25 Q632.552 1946.25 630.746 1945.9 Q628.941 1945.56 626.996 1944.86 M636.302 1930.21 Q639.45 1930.21 641.279 1928.06 Q643.13 1925.9 643.13 1922.15 Q643.13 1918.43 641.279 1916.27 Q639.45 1914.1 636.302 1914.1 Q633.154 1914.1 631.302 1916.27 Q629.473 1918.43 629.473 1922.15 Q629.473 1925.9 631.302 1928.06 Q633.154 1930.21 636.302 1930.21 Z" fill="#000000" fill-rule="nonzero" fill-opacity="1"></path><path clip-path="url(#clip180)" d="M655.839 1911.02 L678.061 1911.02 L678.061 1913.01 L665.515 1945.58 L660.63 1945.58 L672.436 1914.95 L655.839 1914.95 L655.839 1911.02 Z" fill="#000000" fill-rule="nonzero" fill-opacity="1"></path><path clip-path="url(#clip180)" d="M697.76 1926.44 Q694.612 1926.44 692.76 1928.59 Q690.931 1930.74 690.931 1934.49 Q690.931 1938.22 692.76 1940.39 Q694.612 1942.55 697.76 1942.55 Q700.908 1942.55 702.737 1940.39 Q704.588 1938.22 704.588 1934.49 Q704.588 1930.74 702.737 1928.59 Q700.908 1926.44 697.76 1926.44 M707.042 1911.78 L707.042 1916.04 Q705.283 1915.21 703.477 1914.77 Q701.695 1914.33 699.936 1914.33 Q695.306 1914.33 692.852 1917.45 Q690.422 1920.58 690.075 1926.9 Q691.44 1924.88 693.5 1923.82 Q695.561 1922.73 698.037 1922.73 Q703.246 1922.73 706.255 1925.9 Q709.287 1929.05 709.287 1934.49 Q709.287 1939.82 706.139 1943.03 Q702.991 1946.25 697.76 1946.25 Q691.764 1946.25 688.593 1941.67 Q685.422 1937.06 685.422 1928.33 Q685.422 1920.14 689.311 1915.28 Q693.2 1910.39 699.75 1910.39 Q701.51 1910.39 703.292 1910.74 Q705.098 1911.09 707.042 1911.78 Z" fill="#000000" fill-rule="nonzero" fill-opacity="1"></path><path clip-path="url(#clip180)" d="M769.948 1941.64 L777.587 1941.64 L777.587 1915.28 L769.277 1916.95 L769.277 1912.69 L777.54 1911.02 L782.216 1911.02 L782.216 1941.64 L789.855 1941.64 L789.855 1945.58 L769.948 1945.58 L769.948 1941.64 Z" fill="#000000" fill-rule="nonzero" fill-opacity="1"></path><path clip-path="url(#clip180)" d="M799.438 1944.86 L799.438 1940.6 Q801.198 1941.44 803.003 1941.88 Q804.809 1942.32 806.545 1942.32 Q811.175 1942.32 813.605 1939.21 Q816.059 1936.09 816.406 1929.75 Q815.063 1931.74 813.003 1932.8 Q810.943 1933.87 808.443 1933.87 Q803.258 1933.87 800.226 1930.74 Q797.216 1927.59 797.216 1922.15 Q797.216 1916.83 800.364 1913.61 Q803.513 1910.39 808.744 1910.39 Q814.739 1910.39 817.887 1915 Q821.059 1919.58 821.059 1928.33 Q821.059 1936.51 817.17 1941.39 Q813.304 1946.25 806.753 1946.25 Q804.994 1946.25 803.188 1945.9 Q801.383 1945.56 799.438 1944.86 M808.744 1930.21 Q811.892 1930.21 813.721 1928.06 Q815.573 1925.9 815.573 1922.15 Q815.573 1918.43 813.721 1916.27 Q811.892 1914.1 808.744 1914.1 Q805.596 1914.1 803.744 1916.27 Q801.915 1918.43 801.915 1922.15 Q801.915 1925.9 803.744 1928.06 Q805.596 1930.21 808.744 1930.21 Z" fill="#000000" fill-rule="nonzero" fill-opacity="1"></path><path clip-path="url(#clip180)" d="M839.461 1929.17 Q836.128 1929.17 834.207 1930.95 Q832.309 1932.73 832.309 1935.86 Q832.309 1938.98 834.207 1940.76 Q836.128 1942.55 839.461 1942.55 Q842.795 1942.55 844.716 1940.76 Q846.637 1938.96 846.637 1935.86 Q846.637 1932.73 844.716 1930.95 Q842.818 1929.17 839.461 1929.17 M834.786 1927.18 Q831.776 1926.44 830.086 1924.38 Q828.42 1922.32 828.42 1919.35 Q828.42 1915.21 831.36 1912.8 Q834.323 1910.39 839.461 1910.39 Q844.623 1910.39 847.563 1912.8 Q850.503 1915.21 850.503 1919.35 Q850.503 1922.32 848.813 1924.38 Q847.147 1926.44 844.16 1927.18 Q847.54 1927.96 849.415 1930.26 Q851.313 1932.55 851.313 1935.86 Q851.313 1940.88 848.235 1943.57 Q845.179 1946.25 839.461 1946.25 Q833.744 1946.25 830.665 1943.57 Q827.61 1940.88 827.61 1935.86 Q827.61 1932.55 829.508 1930.26 Q831.406 1927.96 834.786 1927.18 M833.073 1919.79 Q833.073 1922.48 834.739 1923.98 Q836.429 1925.49 839.461 1925.49 Q842.471 1925.49 844.16 1923.98 Q845.873 1922.48 845.873 1919.79 Q845.873 1917.11 844.16 1915.6 Q842.471 1914.1 839.461 1914.1 Q836.429 1914.1 834.739 1915.6 Q833.073 1917.11 833.073 1919.79 Z" fill="#000000" fill-rule="nonzero" fill-opacity="1"></path><path clip-path="url(#clip180)" d="M869.623 1914.1 Q866.012 1914.1 864.183 1917.66 Q862.378 1921.2 862.378 1928.33 Q862.378 1935.44 864.183 1939.01 Q866.012 1942.55 869.623 1942.55 Q873.258 1942.55 875.063 1939.01 Q876.892 1935.44 876.892 1928.33 Q876.892 1921.2 875.063 1917.66 Q873.258 1914.1 869.623 1914.1 M869.623 1910.39 Q875.433 1910.39 878.489 1915 Q881.568 1919.58 881.568 1928.33 Q881.568 1937.06 878.489 1941.67 Q875.433 1946.25 869.623 1946.25 Q863.813 1946.25 860.734 1941.67 Q857.679 1937.06 857.679 1928.33 Q857.679 1919.58 860.734 1915 Q863.813 1910.39 869.623 1910.39 Z" fill="#000000" fill-rule="nonzero" fill-opacity="1"></path><path clip-path="url(#clip180)" d="M942.066 1941.64 L949.705 1941.64 L949.705 1915.28 L941.395 1916.95 L941.395 1912.69 L949.659 1911.02 L954.335 1911.02 L954.335 1941.64 L961.973 1941.64 L961.973 1945.58 L942.066 1945.58 L942.066 1941.64 Z" fill="#000000" fill-rule="nonzero" fill-opacity="1"></path><path clip-path="url(#clip180)" d="M971.557 1944.86 L971.557 1940.6 Q973.316 1941.44 975.121 1941.88 Q976.927 1942.32 978.663 1942.32 Q983.293 1942.32 985.723 1939.21 Q988.177 1936.09 988.524 1929.75 Q987.182 1931.74 985.121 1932.8 Q983.061 1933.87 980.561 1933.87 Q975.376 1933.87 972.344 1930.74 Q969.334 1927.59 969.334 1922.15 Q969.334 1916.83 972.483 1913.61 Q975.631 1910.39 980.862 1910.39 Q986.858 1910.39 990.006 1915 Q993.177 1919.58 993.177 1928.33 Q993.177 1936.51 989.288 1941.39 Q985.422 1946.25 978.871 1946.25 Q977.112 1946.25 975.307 1945.9 Q973.501 1945.56 971.557 1944.86 M980.862 1930.21 Q984.01 1930.21 985.839 1928.06 Q987.691 1925.9 987.691 1922.15 Q987.691 1918.43 985.839 1916.27 Q984.01 1914.1 980.862 1914.1 Q977.714 1914.1 975.862 1916.27 Q974.034 1918.43 974.034 1922.15 Q974.034 1925.9 975.862 1928.06 Q977.714 1930.21 980.862 1930.21 Z" fill="#000000" fill-rule="nonzero" fill-opacity="1"></path><path clip-path="url(#clip180)" d="M1011.58 1929.17 Q1008.25 1929.17 1006.32 1930.95 Q1004.43 1932.73 1004.43 1935.86 Q1004.43 1938.98 1006.32 1940.76 Q1008.25 1942.55 1011.58 1942.55 Q1014.91 1942.55 1016.83 1940.76 Q1018.76 1938.96 1018.76 1935.86 Q1018.76 1932.73 1016.83 1930.95 Q1014.94 1929.17 1011.58 1929.17 M1006.9 1927.18 Q1003.89 1926.44 1002.2 1924.38 Q1000.54 1922.32 1000.54 1919.35 Q1000.54 1915.21 1003.48 1912.8 Q1006.44 1910.39 1011.58 1910.39 Q1016.74 1910.39 1019.68 1912.8 Q1022.62 1915.21 1022.62 1919.35 Q1022.62 1922.32 1020.93 1924.38 Q1019.26 1926.44 1016.28 1927.18 Q1019.66 1927.96 1021.53 1930.26 Q1023.43 1932.55 1023.43 1935.86 Q1023.43 1940.88 1020.35 1943.57 Q1017.3 1946.25 1011.58 1946.25 Q1005.86 1946.25 1002.78 1943.57 Q999.728 1940.88 999.728 1935.86 Q999.728 1932.55 1001.63 1930.26 Q1003.52 1927.96 1006.9 1927.18 M1005.19 1919.79 Q1005.19 1922.48 1006.86 1923.98 Q1008.55 1925.49 1011.58 1925.49 Q1014.59 1925.49 1016.28 1923.98 Q1017.99 1922.48 1017.99 1919.79 Q1017.99 1917.11 1016.28 1915.6 Q1014.59 1914.1 1011.58 1914.1 Q1008.55 1914.1 1006.86 1915.6 Q1005.19 1917.11 1005.19 1919.79 Z" fill="#000000" fill-rule="nonzero" fill-opacity="1"></path><path clip-path="url(#clip180)" d="M1044.59 1915.09 L1032.78 1933.54 L1044.59 1933.54 L1044.59 1915.09 M1043.36 1911.02 L1049.24 1911.02 L1049.24 1933.54 L1054.17 1933.54 L1054.17 1937.43 L1049.24 1937.43 L1049.24 1945.58 L1044.59 1945.58 L1044.59 1937.43 L1028.99 1937.43 L1028.99 1932.92 L1043.36 1911.02 Z" fill="#000000" fill-rule="nonzero" fill-opacity="1"></path><path clip-path="url(#clip180)" d="M1114.72 1941.64 L1122.36 1941.64 L1122.36 1915.28 L1114.05 1916.95 L1114.05 1912.69 L1122.31 1911.02 L1126.99 1911.02 L1126.99 1941.64 L1134.62 1941.64 L1134.62 1945.58 L1114.72 1945.58 L1114.72 1941.64 Z" fill="#000000" fill-rule="nonzero" fill-opacity="1"></path><path clip-path="url(#clip180)" d="M1144.21 1944.86 L1144.21 1940.6 Q1145.97 1941.44 1147.77 1941.88 Q1149.58 1942.32 1151.31 1942.32 Q1155.94 1942.32 1158.37 1939.21 Q1160.83 1936.09 1161.17 1929.75 Q1159.83 1931.74 1157.77 1932.8 Q1155.71 1933.87 1153.21 1933.87 Q1148.03 1933.87 1144.99 1930.74 Q1141.99 1927.59 1141.99 1922.15 Q1141.99 1916.83 1145.13 1913.61 Q1148.28 1910.39 1153.51 1910.39 Q1159.51 1910.39 1162.66 1915 Q1165.83 1919.58 1165.83 1928.33 Q1165.83 1936.51 1161.94 1941.39 Q1158.07 1946.25 1151.52 1946.25 Q1149.76 1946.25 1147.96 1945.9 Q1146.15 1945.56 1144.21 1944.86 M1153.51 1930.21 Q1156.66 1930.21 1158.49 1928.06 Q1160.34 1925.9 1160.34 1922.15 Q1160.34 1918.43 1158.49 1916.27 Q1156.66 1914.1 1153.51 1914.1 Q1150.36 1914.1 1148.51 1916.27 Q1146.68 1918.43 1146.68 1922.15 Q1146.68 1925.9 1148.51 1928.06 Q1150.36 1930.21 1153.51 1930.21 Z" fill="#000000" fill-rule="nonzero" fill-opacity="1"></path><path clip-path="url(#clip180)" d="M1184.23 1929.17 Q1180.9 1929.17 1178.98 1930.95 Q1177.08 1932.73 1177.08 1935.86 Q1177.08 1938.98 1178.98 1940.76 Q1180.9 1942.55 1184.23 1942.55 Q1187.56 1942.55 1189.48 1940.76 Q1191.41 1938.96 1191.41 1935.86 Q1191.41 1932.73 1189.48 1930.95 Q1187.59 1929.17 1184.23 1929.17 M1179.55 1927.18 Q1176.55 1926.44 1174.86 1924.38 Q1173.19 1922.32 1173.19 1919.35 Q1173.19 1915.21 1176.13 1912.8 Q1179.09 1910.39 1184.23 1910.39 Q1189.39 1910.39 1192.33 1912.8 Q1195.27 1915.21 1195.27 1919.35 Q1195.27 1922.32 1193.58 1924.38 Q1191.92 1926.44 1188.93 1927.18 Q1192.31 1927.96 1194.18 1930.26 Q1196.08 1932.55 1196.08 1935.86 Q1196.08 1940.88 1193 1943.57 Q1189.95 1946.25 1184.23 1946.25 Q1178.51 1946.25 1175.43 1943.57 Q1172.38 1940.88 1172.38 1935.86 Q1172.38 1932.55 1174.28 1930.26 Q1176.17 1927.96 1179.55 1927.18 M1177.84 1919.79 Q1177.84 1922.48 1179.51 1923.98 Q1181.2 1925.49 1184.23 1925.49 Q1187.24 1925.49 1188.93 1923.98 Q1190.64 1922.48 1190.64 1919.79 Q1190.64 1917.11 1188.93 1915.6 Q1187.24 1914.1 1184.23 1914.1 Q1181.2 1914.1 1179.51 1915.6 Q1177.84 1917.11 1177.84 1919.79 Z" fill="#000000" fill-rule="nonzero" fill-opacity="1"></path><path clip-path="url(#clip180)" d="M1214.39 1929.17 Q1211.06 1929.17 1209.14 1930.95 Q1207.24 1932.73 1207.24 1935.86 Q1207.24 1938.98 1209.14 1940.76 Q1211.06 1942.55 1214.39 1942.55 Q1217.73 1942.55 1219.65 1940.76 Q1221.57 1938.96 1221.57 1935.86 Q1221.57 1932.73 1219.65 1930.95 Q1217.75 1929.17 1214.39 1929.17 M1209.72 1927.18 Q1206.71 1926.44 1205.02 1924.38 Q1203.35 1922.32 1203.35 1919.35 Q1203.35 1915.21 1206.29 1912.8 Q1209.25 1910.39 1214.39 1910.39 Q1219.55 1910.39 1222.49 1912.8 Q1225.43 1915.21 1225.43 1919.35 Q1225.43 1922.32 1223.74 1924.38 Q1222.08 1926.44 1219.09 1927.18 Q1222.47 1927.96 1224.35 1930.26 Q1226.24 1932.55 1226.24 1935.86 Q1226.24 1940.88 1223.17 1943.57 Q1220.11 1946.25 1214.39 1946.25 Q1208.67 1946.25 1205.6 1943.57 Q1202.54 1940.88 1202.54 1935.86 Q1202.54 1932.55 1204.44 1930.26 Q1206.34 1927.96 1209.72 1927.18 M1208 1919.79 Q1208 1922.48 1209.67 1923.98 Q1211.36 1925.49 1214.39 1925.49 Q1217.4 1925.49 1219.09 1923.98 Q1220.8 1922.48 1220.8 1919.79 Q1220.8 1917.11 1219.09 1915.6 Q1217.4 1914.1 1214.39 1914.1 Q1211.36 1914.1 1209.67 1915.6 Q1208 1917.11 1208 1919.79 Z" fill="#000000" fill-rule="nonzero" fill-opacity="1"></path><path clip-path="url(#clip180)" d="M1287.83 1941.64 L1295.47 1941.64 L1295.47 1915.28 L1287.16 1916.95 L1287.16 1912.69 L1295.42 1911.02 L1300.1 1911.02 L1300.1 1941.64 L1307.74 1941.64 L1307.74 1945.58 L1287.83 1945.58 L1287.83 1941.64 Z" fill="#000000" fill-rule="nonzero" fill-opacity="1"></path><path clip-path="url(#clip180)" d="M1317.32 1944.86 L1317.32 1940.6 Q1319.08 1941.44 1320.89 1941.88 Q1322.69 1942.32 1324.43 1942.32 Q1329.06 1942.32 1331.49 1939.21 Q1333.94 1936.09 1334.29 1929.75 Q1332.95 1931.74 1330.89 1932.8 Q1328.83 1933.87 1326.33 1933.87 Q1321.14 1933.87 1318.11 1930.74 Q1315.1 1927.59 1315.1 1922.15 Q1315.1 1916.83 1318.25 1913.61 Q1321.39 1910.39 1326.63 1910.39 Q1332.62 1910.39 1335.77 1915 Q1338.94 1919.58 1338.94 1928.33 Q1338.94 1936.51 1335.05 1941.39 Q1331.19 1946.25 1324.64 1946.25 Q1322.88 1946.25 1321.07 1945.9 Q1319.27 1945.56 1317.32 1944.86 M1326.63 1930.21 Q1329.77 1930.21 1331.6 1928.06 Q1333.45 1925.9 1333.45 1922.15 Q1333.45 1918.43 1331.6 1916.27 Q1329.77 1914.1 1326.63 1914.1 Q1323.48 1914.1 1321.63 1916.27 Q1319.8 1918.43 1319.8 1922.15 Q1319.8 1925.9 1321.63 1928.06 Q1323.48 1930.21 1326.63 1930.21 Z" fill="#000000" fill-rule="nonzero" fill-opacity="1"></path><path clip-path="url(#clip180)" d="M1347.48 1944.86 L1347.48 1940.6 Q1349.24 1941.44 1351.05 1941.88 Q1352.85 1942.32 1354.59 1942.32 Q1359.22 1942.32 1361.65 1939.21 Q1364.1 1936.09 1364.45 1929.75 Q1363.11 1931.74 1361.05 1932.8 Q1358.99 1933.87 1356.49 1933.87 Q1351.3 1933.87 1348.27 1930.74 Q1345.26 1927.59 1345.26 1922.15 Q1345.26 1916.83 1348.41 1913.61 Q1351.56 1910.39 1356.79 1910.39 Q1362.78 1910.39 1365.93 1915 Q1369.1 1919.58 1369.1 1928.33 Q1369.1 1936.51 1365.21 1941.39 Q1361.35 1946.25 1354.8 1946.25 Q1353.04 1946.25 1351.23 1945.9 Q1349.43 1945.56 1347.48 1944.86 M1356.79 1930.21 Q1359.94 1930.21 1361.77 1928.06 Q1363.62 1925.9 1363.62 1922.15 Q1363.62 1918.43 1361.77 1916.27 Q1359.94 1914.1 1356.79 1914.1 Q1353.64 1914.1 1351.79 1916.27 Q1349.96 1918.43 1349.96 1922.15 Q1349.96 1925.9 1351.79 1928.06 Q1353.64 1930.21 1356.79 1930.21 Z" fill="#000000" fill-rule="nonzero" fill-opacity="1"></path><path clip-path="url(#clip180)" d="M1381.53 1941.64 L1397.85 1941.64 L1397.85 1945.58 L1375.91 1945.58 L1375.91 1941.64 Q1378.57 1938.89 1383.15 1934.26 Q1387.76 1929.61 1388.94 1928.26 Q1391.19 1925.74 1392.07 1924.01 Q1392.97 1922.25 1392.97 1920.56 Q1392.97 1917.8 1391.02 1916.07 Q1389.1 1914.33 1386 1914.33 Q1383.8 1914.33 1381.35 1915.09 Q1378.92 1915.86 1376.14 1917.41 L1376.14 1912.69 Q1378.96 1911.55 1381.42 1910.97 Q1383.87 1910.39 1385.91 1910.39 Q1391.28 1910.39 1394.47 1913.08 Q1397.67 1915.76 1397.67 1920.26 Q1397.67 1922.38 1396.86 1924.31 Q1396.07 1926.2 1393.96 1928.8 Q1393.39 1929.47 1390.28 1932.69 Q1387.18 1935.88 1381.53 1941.64 Z" fill="#000000" fill-rule="nonzero" fill-opacity="1"></path><path clip-path="url(#clip180)" d="M1459.31 1941.64 L1466.95 1941.64 L1466.95 1915.28 L1458.64 1916.95 L1458.64 1912.69 L1466.9 1911.02 L1471.58 1911.02 L1471.58 1941.64 L1479.22 1941.64 L1479.22 1945.58 L1459.31 1945.58 L1459.31 1941.64 Z" fill="#000000" fill-rule="nonzero" fill-opacity="1"></path><path clip-path="url(#clip180)" d="M1488.8 1944.86 L1488.8 1940.6 Q1490.56 1941.44 1492.37 1941.88 Q1494.17 1942.32 1495.91 1942.32 Q1500.54 1942.32 1502.97 1939.21 Q1505.42 1936.09 1505.77 1929.75 Q1504.43 1931.74 1502.37 1932.8 Q1500.31 1933.87 1497.81 1933.87 Q1492.62 1933.87 1489.59 1930.74 Q1486.58 1927.59 1486.58 1922.15 Q1486.58 1916.83 1489.73 1913.61 Q1492.88 1910.39 1498.11 1910.39 Q1504.1 1910.39 1507.25 1915 Q1510.42 1919.58 1510.42 1928.33 Q1510.42 1936.51 1506.53 1941.39 Q1502.67 1946.25 1496.12 1946.25 Q1494.36 1946.25 1492.55 1945.9 Q1490.75 1945.56 1488.8 1944.86 M1498.11 1930.21 Q1501.26 1930.21 1503.08 1928.06 Q1504.94 1925.9 1504.94 1922.15 Q1504.94 1918.43 1503.08 1916.27 Q1501.26 1914.1 1498.11 1914.1 Q1494.96 1914.1 1493.11 1916.27 Q1491.28 1918.43 1491.28 1922.15 Q1491.28 1925.9 1493.11 1928.06 Q1494.96 1930.21 1498.11 1930.21 Z" fill="#000000" fill-rule="nonzero" fill-opacity="1"></path><path clip-path="url(#clip180)" d="M1518.96 1944.86 L1518.96 1940.6 Q1520.72 1941.44 1522.53 1941.88 Q1524.33 1942.32 1526.07 1942.32 Q1530.7 1942.32 1533.13 1939.21 Q1535.58 1936.09 1535.93 1929.75 Q1534.59 1931.74 1532.53 1932.8 Q1530.47 1933.87 1527.97 1933.87 Q1522.78 1933.87 1519.75 1930.74 Q1516.74 1927.59 1516.74 1922.15 Q1516.74 1916.83 1519.89 1913.61 Q1523.04 1910.39 1528.27 1910.39 Q1534.27 1910.39 1537.41 1915 Q1540.58 1919.58 1540.58 1928.33 Q1540.58 1936.51 1536.7 1941.39 Q1532.83 1946.25 1526.28 1946.25 Q1524.52 1946.25 1522.71 1945.9 Q1520.91 1945.56 1518.96 1944.86 M1528.27 1930.21 Q1531.42 1930.21 1533.25 1928.06 Q1535.1 1925.9 1535.1 1922.15 Q1535.1 1918.43 1533.25 1916.27 Q1531.42 1914.1 1528.27 1914.1 Q1525.12 1914.1 1523.27 1916.27 Q1521.44 1918.43 1521.44 1922.15 Q1521.44 1925.9 1523.27 1928.06 Q1525.12 1930.21 1528.27 1930.21 Z" fill="#000000" fill-rule="nonzero" fill-opacity="1"></path><path clip-path="url(#clip180)" d="M1559.57 1926.44 Q1556.42 1926.44 1554.57 1928.59 Q1552.74 1930.74 1552.74 1934.49 Q1552.74 1938.22 1554.57 1940.39 Q1556.42 1942.55 1559.57 1942.55 Q1562.71 1942.55 1564.54 1940.39 Q1566.39 1938.22 1566.39 1934.49 Q1566.39 1930.74 1564.54 1928.59 Q1562.71 1926.44 1559.57 1926.44 M1568.85 1911.78 L1568.85 1916.04 Q1567.09 1915.21 1565.28 1914.77 Q1563.5 1914.33 1561.74 1914.33 Q1557.11 1914.33 1554.66 1917.45 Q1552.23 1920.58 1551.88 1926.9 Q1553.25 1924.88 1555.31 1923.82 Q1557.37 1922.73 1559.84 1922.73 Q1565.05 1922.73 1568.06 1925.9 Q1571.09 1929.05 1571.09 1934.49 Q1571.09 1939.82 1567.95 1943.03 Q1564.8 1946.25 1559.57 1946.25 Q1553.57 1946.25 1550.4 1941.67 Q1547.23 1937.06 1547.23 1928.33 Q1547.23 1920.14 1551.12 1915.28 Q1555.01 1910.39 1561.56 1910.39 Q1563.32 1910.39 1565.1 1910.74 Q1566.9 1911.09 1568.85 1911.78 Z" fill="#000000" fill-rule="nonzero" fill-opacity="1"></path><path clip-path="url(#clip180)" d="M1635.84 1941.64 L1652.16 1941.64 L1652.16 1945.58 L1630.21 1945.58 L1630.21 1941.64 Q1632.88 1938.89 1637.46 1934.26 Q1642.07 1929.61 1643.25 1928.26 Q1645.49 1925.74 1646.37 1924.01 Q1647.27 1922.25 1647.27 1920.56 Q1647.27 1917.8 1645.33 1916.07 Q1643.41 1914.33 1640.31 1914.33 Q1638.11 1914.33 1635.65 1915.09 Q1633.22 1915.86 1630.45 1917.41 L1630.45 1912.69 Q1633.27 1911.55 1635.72 1910.97 Q1638.18 1910.39 1640.21 1910.39 Q1645.59 1910.39 1648.78 1913.08 Q1651.97 1915.76 1651.97 1920.26 Q1651.97 1922.38 1651.16 1924.31 Q1650.38 1926.2 1648.27 1928.8 Q1647.69 1929.47 1644.59 1932.69 Q1641.49 1935.88 1635.84 1941.64 Z" fill="#000000" fill-rule="nonzero" fill-opacity="1"></path><path clip-path="url(#clip180)" d="M1671.97 1914.1 Q1668.36 1914.1 1666.53 1917.66 Q1664.73 1921.2 1664.73 1928.33 Q1664.73 1935.44 1666.53 1939.01 Q1668.36 1942.55 1671.97 1942.55 Q1675.61 1942.55 1677.41 1939.01 Q1679.24 1935.44 1679.24 1928.33 Q1679.24 1921.2 1677.41 1917.66 Q1675.61 1914.1 1671.97 1914.1 M1671.97 1910.39 Q1677.78 1910.39 1680.84 1915 Q1683.92 1919.58 1683.92 1928.33 Q1683.92 1937.06 1680.84 1941.67 Q1677.78 1946.25 1671.97 1946.25 Q1666.16 1946.25 1663.08 1941.67 Q1660.03 1937.06 1660.03 1928.33 Q1660.03 1919.58 1663.08 1915 Q1666.16 1910.39 1671.97 1910.39 Z" fill="#000000" fill-rule="nonzero" fill-opacity="1"></path><path clip-path="url(#clip180)" d="M1702.14 1914.1 Q1698.52 1914.1 1696.7 1917.66 Q1694.89 1921.2 1694.89 1928.33 Q1694.89 1935.44 1696.7 1939.01 Q1698.52 1942.55 1702.14 1942.55 Q1705.77 1942.55 1707.58 1939.01 Q1709.4 1935.44 1709.4 1928.33 Q1709.4 1921.2 1707.58 1917.66 Q1705.77 1914.1 1702.14 1914.1 M1702.14 1910.39 Q1707.95 1910.39 1711 1915 Q1714.08 1919.58 1714.08 1928.33 Q1714.08 1937.06 1711 1941.67 Q1707.95 1946.25 1702.14 1946.25 Q1696.33 1946.25 1693.25 1941.67 Q1690.19 1937.06 1690.19 1928.33 Q1690.19 1919.58 1693.25 1915 Q1696.33 1910.39 1702.14 1910.39 Z" fill="#000000" fill-rule="nonzero" fill-opacity="1"></path><path clip-path="url(#clip180)" d="M1732.3 1914.1 Q1728.69 1914.1 1726.86 1917.66 Q1725.05 1921.2 1725.05 1928.33 Q1725.05 1935.44 1726.86 1939.01 Q1728.69 1942.55 1732.3 1942.55 Q1735.93 1942.55 1737.74 1939.01 Q1739.57 1935.44 1739.57 1928.33 Q1739.57 1921.2 1737.74 1917.66 Q1735.93 1914.1 1732.3 1914.1 M1732.3 1910.39 Q1738.11 1910.39 1741.16 1915 Q1744.24 1919.58 1744.24 1928.33 Q1744.24 1937.06 1741.16 1941.67 Q1738.11 1946.25 1732.3 1946.25 Q1726.49 1946.25 1723.41 1941.67 Q1720.35 1937.06 1720.35 1928.33 Q1720.35 1919.58 1723.41 1915 Q1726.49 1910.39 1732.3 1910.39 Z" fill="#000000" fill-rule="nonzero" fill-opacity="1"></path><path clip-path="url(#clip180)" d="M1807.96 1941.64 L1824.28 1941.64 L1824.28 1945.58 L1802.33 1945.58 L1802.33 1941.64 Q1804.99 1938.89 1809.58 1934.26 Q1814.18 1929.61 1815.37 1928.26 Q1817.61 1925.74 1818.49 1924.01 Q1819.39 1922.25 1819.39 1920.56 Q1819.39 1917.8 1817.45 1916.07 Q1815.53 1914.33 1812.43 1914.33 Q1810.23 1914.33 1807.77 1915.09 Q1805.34 1915.86 1802.56 1917.41 L1802.56 1912.69 Q1805.39 1911.55 1807.84 1910.97 Q1810.3 1910.39 1812.33 1910.39 Q1817.7 1910.39 1820.9 1913.08 Q1824.09 1915.76 1824.09 1920.26 Q1824.09 1922.38 1823.28 1924.31 Q1822.49 1926.2 1820.39 1928.8 Q1819.81 1929.47 1816.71 1932.69 Q1813.61 1935.88 1807.96 1941.64 Z" fill="#000000" fill-rule="nonzero" fill-opacity="1"></path><path clip-path="url(#clip180)" d="M1844.09 1914.1 Q1840.48 1914.1 1838.65 1917.66 Q1836.85 1921.2 1836.85 1928.33 Q1836.85 1935.44 1838.65 1939.01 Q1840.48 1942.55 1844.09 1942.55 Q1847.73 1942.55 1849.53 1939.01 Q1851.36 1935.44 1851.36 1928.33 Q1851.36 1921.2 1849.53 1917.66 Q1847.73 1914.1 1844.09 1914.1 M1844.09 1910.39 Q1849.9 1910.39 1852.96 1915 Q1856.04 1919.58 1856.04 1928.33 Q1856.04 1937.06 1852.96 1941.67 Q1849.9 1946.25 1844.09 1946.25 Q1838.28 1946.25 1835.2 1941.67 Q1832.15 1937.06 1832.15 1928.33 Q1832.15 1919.58 1835.2 1915 Q1838.28 1910.39 1844.09 1910.39 Z" fill="#000000" fill-rule="nonzero" fill-opacity="1"></path><path clip-path="url(#clip180)" d="M1874.25 1914.1 Q1870.64 1914.1 1868.81 1917.66 Q1867.01 1921.2 1867.01 1928.33 Q1867.01 1935.44 1868.81 1939.01 Q1870.64 1942.55 1874.25 1942.55 Q1877.89 1942.55 1879.69 1939.01 Q1881.52 1935.44 1881.52 1928.33 Q1881.52 1921.2 1879.69 1917.66 Q1877.89 1914.1 1874.25 1914.1 M1874.25 1910.39 Q1880.06 1910.39 1883.12 1915 Q1886.2 1919.58 1886.2 1928.33 Q1886.2 1937.06 1883.12 1941.67 Q1880.06 1946.25 1874.25 1946.25 Q1868.44 1946.25 1865.37 1941.67 Q1862.31 1937.06 1862.31 1928.33 Q1862.31 1919.58 1865.37 1915 Q1868.44 1910.39 1874.25 1910.39 Z" fill="#000000" fill-rule="nonzero" fill-opacity="1"></path><path clip-path="url(#clip180)" d="M1907.26 1915.09 L1895.46 1933.54 L1907.26 1933.54 L1907.26 1915.09 M1906.04 1911.02 L1911.92 1911.02 L1911.92 1933.54 L1916.85 1933.54 L1916.85 1937.43 L1911.92 1937.43 L1911.92 1945.58 L1907.26 1945.58 L1907.26 1937.43 L1891.66 1937.43 L1891.66 1932.92 L1906.04 1911.02 Z" fill="#000000" fill-rule="nonzero" fill-opacity="1"></path><path clip-path="url(#clip180)" d="M1980.61 1941.64 L1996.93 1941.64 L1996.93 1945.58 L1974.98 1945.58 L1974.98 1941.64 Q1977.65 1938.89 1982.23 1934.26 Q1986.84 1929.61 1988.02 1928.26 Q1990.26 1925.74 1991.14 1924.01 Q1992.04 1922.25 1992.04 1920.56 Q1992.04 1917.8 1990.1 1916.07 Q1988.18 1914.33 1985.08 1914.33 Q1982.88 1914.33 1980.42 1915.09 Q1977.99 1915.86 1975.22 1917.41 L1975.22 1912.69 Q1978.04 1911.55 1980.49 1910.97 Q1982.95 1910.39 1984.98 1910.39 Q1990.35 1910.39 1993.55 1913.08 Q1996.74 1915.76 1996.74 1920.26 Q1996.74 1922.38 1995.93 1924.31 Q1995.15 1926.2 1993.04 1928.8 Q1992.46 1929.47 1989.36 1932.69 Q1986.26 1935.88 1980.61 1941.64 Z" fill="#000000" fill-rule="nonzero" fill-opacity="1"></path><path clip-path="url(#clip180)" d="M2016.74 1914.1 Q2013.13 1914.1 2011.3 1917.66 Q2009.5 1921.2 2009.5 1928.33 Q2009.5 1935.44 2011.3 1939.01 Q2013.13 1942.55 2016.74 1942.55 Q2020.38 1942.55 2022.18 1939.01 Q2024.01 1935.44 2024.01 1928.33 Q2024.01 1921.2 2022.18 1917.66 Q2020.38 1914.1 2016.74 1914.1 M2016.74 1910.39 Q2022.55 1910.39 2025.61 1915 Q2028.69 1919.58 2028.69 1928.33 Q2028.69 1937.06 2025.61 1941.67 Q2022.55 1946.25 2016.74 1946.25 Q2010.93 1946.25 2007.85 1941.67 Q2004.8 1937.06 2004.8 1928.33 Q2004.8 1919.58 2007.85 1915 Q2010.93 1910.39 2016.74 1910.39 Z" fill="#000000" fill-rule="nonzero" fill-opacity="1"></path><path clip-path="url(#clip180)" d="M2046.9 1914.1 Q2043.29 1914.1 2041.46 1917.66 Q2039.66 1921.2 2039.66 1928.33 Q2039.66 1935.44 2041.46 1939.01 Q2043.29 1942.55 2046.9 1942.55 Q2050.54 1942.55 2052.34 1939.01 Q2054.17 1935.44 2054.17 1928.33 Q2054.17 1921.2 2052.34 1917.66 Q2050.54 1914.1 2046.9 1914.1 M2046.9 1910.39 Q2052.71 1910.39 2055.77 1915 Q2058.85 1919.58 2058.85 1928.33 Q2058.85 1937.06 2055.77 1941.67 Q2052.71 1946.25 2046.9 1946.25 Q2041.09 1946.25 2038.02 1941.67 Q2034.96 1937.06 2034.96 1928.33 Q2034.96 1919.58 2038.02 1915 Q2041.09 1910.39 2046.9 1910.39 Z" fill="#000000" fill-rule="nonzero" fill-opacity="1"></path><path clip-path="url(#clip180)" d="M2077.07 1929.17 Q2073.73 1929.17 2071.81 1930.95 Q2069.91 1932.73 2069.91 1935.86 Q2069.91 1938.98 2071.81 1940.76 Q2073.73 1942.55 2077.07 1942.55 Q2080.4 1942.55 2082.32 1940.76 Q2084.24 1938.96 2084.24 1935.86 Q2084.24 1932.73 2082.32 1930.95 Q2080.42 1929.17 2077.07 1929.17 M2072.39 1927.18 Q2069.38 1926.44 2067.69 1924.38 Q2066.02 1922.32 2066.02 1919.35 Q2066.02 1915.21 2068.96 1912.8 Q2071.93 1910.39 2077.07 1910.39 Q2082.23 1910.39 2085.17 1912.8 Q2088.11 1915.21 2088.11 1919.35 Q2088.11 1922.32 2086.42 1924.38 Q2084.75 1926.44 2081.77 1927.18 Q2085.15 1927.96 2087.02 1930.26 Q2088.92 1932.55 2088.92 1935.86 Q2088.92 1940.88 2085.84 1943.57 Q2082.78 1946.25 2077.07 1946.25 Q2071.35 1946.25 2068.27 1943.57 Q2065.21 1940.88 2065.21 1935.86 Q2065.21 1932.55 2067.11 1930.26 Q2069.01 1927.96 2072.39 1927.18 M2070.68 1919.79 Q2070.68 1922.48 2072.34 1923.98 Q2074.03 1925.49 2077.07 1925.49 Q2080.08 1925.49 2081.77 1923.98 Q2083.48 1922.48 2083.48 1919.79 Q2083.48 1917.11 2081.77 1915.6 Q2080.08 1914.1 2077.07 1914.1 Q2074.03 1914.1 2072.34 1915.6 Q2070.68 1917.11 2070.68 1919.79 Z" fill="#000000" fill-rule="nonzero" fill-opacity="1"></path><path clip-path="url(#clip180)" d="M2153.72 1941.64 L2170.04 1941.64 L2170.04 1945.58 L2148.1 1945.58 L2148.1 1941.64 Q2150.76 1938.89 2155.34 1934.26 Q2159.95 1929.61 2161.13 1928.26 Q2163.37 1925.74 2164.25 1924.01 Q2165.16 1922.25 2165.16 1920.56 Q2165.16 1917.8 2163.21 1916.07 Q2161.29 1914.33 2158.19 1914.33 Q2155.99 1914.33 2153.54 1915.09 Q2151.11 1915.86 2148.33 1917.41 L2148.33 1912.69 Q2151.15 1911.55 2153.61 1910.97 Q2156.06 1910.39 2158.1 1910.39 Q2163.47 1910.39 2166.66 1913.08 Q2169.86 1915.76 2169.86 1920.26 Q2169.86 1922.38 2169.05 1924.31 Q2168.26 1926.2 2166.15 1928.8 Q2165.57 1929.47 2162.47 1932.69 Q2159.37 1935.88 2153.72 1941.64 Z" fill="#000000" fill-rule="nonzero" fill-opacity="1"></path><path clip-path="url(#clip180)" d="M2189.86 1914.1 Q2186.25 1914.1 2184.42 1917.66 Q2182.61 1921.2 2182.61 1928.33 Q2182.61 1935.44 2184.42 1939.01 Q2186.25 1942.55 2189.86 1942.55 Q2193.49 1942.55 2195.3 1939.01 Q2197.12 1935.44 2197.12 1928.33 Q2197.12 1921.2 2195.3 1917.66 Q2193.49 1914.1 2189.86 1914.1 M2189.86 1910.39 Q2195.67 1910.39 2198.72 1915 Q2201.8 1919.58 2201.8 1928.33 Q2201.8 1937.06 2198.72 1941.67 Q2195.67 1946.25 2189.86 1946.25 Q2184.05 1946.25 2180.97 1941.67 Q2177.91 1937.06 2177.91 1928.33 Q2177.91 1919.58 2180.97 1915 Q2184.05 1910.39 2189.86 1910.39 Z" fill="#000000" fill-rule="nonzero" fill-opacity="1"></path><path clip-path="url(#clip180)" d="M2210.83 1941.64 L2218.47 1941.64 L2218.47 1915.28 L2210.16 1916.95 L2210.16 1912.69 L2218.42 1911.02 L2223.1 1911.02 L2223.1 1941.64 L2230.74 1941.64 L2230.74 1945.58 L2210.83 1945.58 L2210.83 1941.64 Z" fill="#000000" fill-rule="nonzero" fill-opacity="1"></path><path clip-path="url(#clip180)" d="M2244.21 1941.64 L2260.53 1941.64 L2260.53 1945.58 L2238.58 1945.58 L2238.58 1941.64 Q2241.24 1938.89 2245.83 1934.26 Q2250.43 1929.61 2251.62 1928.26 Q2253.86 1925.74 2254.74 1924.01 Q2255.64 1922.25 2255.64 1920.56 Q2255.64 1917.8 2253.7 1916.07 Q2251.78 1914.33 2248.68 1914.33 Q2246.48 1914.33 2244.02 1915.09 Q2241.59 1915.86 2238.81 1917.41 L2238.81 1912.69 Q2241.64 1911.55 2244.09 1910.97 Q2246.55 1910.39 2248.58 1910.39 Q2253.95 1910.39 2257.15 1913.08 Q2260.34 1915.76 2260.34 1920.26 Q2260.34 1922.38 2259.53 1924.31 Q2258.74 1926.2 2256.64 1928.8 Q2256.06 1929.47 2252.96 1932.69 Q2249.86 1935.88 2244.21 1941.64 Z" fill="#000000" fill-rule="nonzero" fill-opacity="1"></path><path clip-path="url(#clip180)" d="M2325.2 1941.64 L2341.52 1941.64 L2341.52 1945.58 L2319.58 1945.58 L2319.58 1941.64 Q2322.24 1938.89 2326.82 1934.26 Q2331.43 1929.61 2332.61 1928.26 Q2334.86 1925.74 2335.74 1924.01 Q2336.64 1922.25 2336.64 1920.56 Q2336.64 1917.8 2334.69 1916.07 Q2332.77 1914.33 2329.67 1914.33 Q2327.47 1914.33 2325.02 1915.09 Q2322.59 1915.86 2319.81 1917.41 L2319.81 1912.69 Q2322.63 1911.55 2325.09 1910.97 Q2327.54 1910.39 2329.58 1910.39 Q2334.95 1910.39 2338.14 1913.08 Q2341.34 1915.76 2341.34 1920.26 Q2341.34 1922.38 2340.53 1924.31 Q2339.74 1926.2 2337.63 1928.8 Q2337.06 1929.47 2333.95 1932.69 Q2330.85 1935.88 2325.2 1941.64 Z" fill="#000000" fill-rule="nonzero" fill-opacity="1"></path><path clip-path="url(#clip180)" d="M2361.34 1914.1 Q2357.73 1914.1 2355.9 1917.66 Q2354.09 1921.2 2354.09 1928.33 Q2354.09 1935.44 2355.9 1939.01 Q2357.73 1942.55 2361.34 1942.55 Q2364.97 1942.55 2366.78 1939.01 Q2368.61 1935.44 2368.61 1928.33 Q2368.61 1921.2 2366.78 1917.66 Q2364.97 1914.1 2361.34 1914.1 M2361.34 1910.39 Q2367.15 1910.39 2370.2 1915 Q2373.28 1919.58 2373.28 1928.33 Q2373.28 1937.06 2370.2 1941.67 Q2367.15 1946.25 2361.34 1946.25 Q2355.53 1946.25 2352.45 1941.67 Q2349.39 1937.06 2349.39 1928.33 Q2349.39 1919.58 2352.45 1915 Q2355.53 1910.39 2361.34 1910.39 Z" fill="#000000" fill-rule="nonzero" fill-opacity="1"></path><path clip-path="url(#clip180)" d="M2382.31 1941.64 L2389.95 1941.64 L2389.95 1915.28 L2381.64 1916.95 L2381.64 1912.69 L2389.9 1911.02 L2394.58 1911.02 L2394.58 1941.64 L2402.22 1941.64 L2402.22 1945.58 L2382.31 1945.58 L2382.31 1941.64 Z" fill="#000000" fill-rule="nonzero" fill-opacity="1"></path><path clip-path="url(#clip180)" d="M2422.24 1926.44 Q2419.09 1926.44 2417.24 1928.59 Q2415.41 1930.74 2415.41 1934.49 Q2415.41 1938.22 2417.24 1940.39 Q2419.09 1942.55 2422.24 1942.55 Q2425.39 1942.55 2427.22 1940.39 Q2429.07 1938.22 2429.07 1934.49 Q2429.07 1930.74 2427.22 1928.59 Q2425.39 1926.44 2422.24 1926.44 M2431.52 1911.78 L2431.52 1916.04 Q2429.76 1915.21 2427.96 1914.77 Q2426.18 1914.33 2424.42 1914.33 Q2419.79 1914.33 2417.33 1917.45 Q2414.9 1920.58 2414.56 1926.9 Q2415.92 1924.88 2417.98 1923.82 Q2420.04 1922.73 2422.52 1922.73 Q2427.73 1922.73 2430.74 1925.9 Q2433.77 1929.05 2433.77 1934.49 Q2433.77 1939.82 2430.62 1943.03 Q2427.47 1946.25 2422.24 1946.25 Q2416.24 1946.25 2413.07 1941.67 Q2409.9 1937.06 2409.9 1928.33 Q2409.9 1920.14 2413.79 1915.28 Q2417.68 1910.39 2424.23 1910.39 Q2425.99 1910.39 2427.77 1910.74 Q2429.58 1911.09 2431.52 1911.78 Z" fill="#000000" fill-rule="nonzero" fill-opacity="1"></path><path clip-path="url(#clip180)" d="M2497.65 1941.64 L2513.97 1941.64 L2513.97 1945.58 L2492.02 1945.58 L2492.02 1941.64 Q2494.68 1938.89 2499.27 1934.26 Q2503.87 1929.61 2505.05 1928.26 Q2507.3 1925.74 2508.18 1924.01 Q2509.08 1922.25 2509.08 1920.56 Q2509.08 1917.8 2507.14 1916.07 Q2505.22 1914.33 2502.11 1914.33 Q2499.91 1914.33 2497.46 1915.09 Q2495.03 1915.86 2492.25 1917.41 L2492.25 1912.69 Q2495.08 1911.55 2497.53 1910.97 Q2499.98 1910.39 2502.02 1910.39 Q2507.39 1910.39 2510.59 1913.08 Q2513.78 1915.76 2513.78 1920.26 Q2513.78 1922.38 2512.97 1924.31 Q2512.18 1926.2 2510.08 1928.8 Q2509.5 1929.47 2506.4 1932.69 Q2503.29 1935.88 2497.65 1941.64 Z" fill="#000000" fill-rule="nonzero" fill-opacity="1"></path><path clip-path="url(#clip180)" d="M2533.78 1914.1 Q2530.17 1914.1 2528.34 1917.66 Q2526.53 1921.2 2526.53 1928.33 Q2526.53 1935.44 2528.34 1939.01 Q2530.17 1942.55 2533.78 1942.55 Q2537.41 1942.55 2539.22 1939.01 Q2541.05 1935.44 2541.05 1928.33 Q2541.05 1921.2 2539.22 1917.66 Q2537.41 1914.1 2533.78 1914.1 M2533.78 1910.39 Q2539.59 1910.39 2542.65 1915 Q2545.72 1919.58 2545.72 1928.33 Q2545.72 1937.06 2542.65 1941.67 Q2539.59 1946.25 2533.78 1946.25 Q2527.97 1946.25 2524.89 1941.67 Q2521.84 1937.06 2521.84 1928.33 Q2521.84 1919.58 2524.89 1915 Q2527.97 1910.39 2533.78 1910.39 Z" fill="#000000" fill-rule="nonzero" fill-opacity="1"></path><path clip-path="url(#clip180)" d="M2557.97 1941.64 L2574.29 1941.64 L2574.29 1945.58 L2552.34 1945.58 L2552.34 1941.64 Q2555.01 1938.89 2559.59 1934.26 Q2564.2 1929.61 2565.38 1928.26 Q2567.62 1925.74 2568.5 1924.01 Q2569.4 1922.25 2569.4 1920.56 Q2569.4 1917.8 2567.46 1916.07 Q2565.54 1914.33 2562.44 1914.33 Q2560.24 1914.33 2557.78 1915.09 Q2555.35 1915.86 2552.58 1917.41 L2552.58 1912.69 Q2555.4 1911.55 2557.85 1910.97 Q2560.31 1910.39 2562.34 1910.39 Q2567.72 1910.39 2570.91 1913.08 Q2574.1 1915.76 2574.1 1920.26 Q2574.1 1922.38 2573.29 1924.31 Q2572.51 1926.2 2570.4 1928.8 Q2569.82 1929.47 2566.72 1932.69 Q2563.62 1935.88 2557.97 1941.64 Z" fill="#000000" fill-rule="nonzero" fill-opacity="1"></path><path clip-path="url(#clip180)" d="M2594.1 1914.1 Q2590.49 1914.1 2588.66 1917.66 Q2586.86 1921.2 2586.86 1928.33 Q2586.86 1935.44 2588.66 1939.01 Q2590.49 1942.55 2594.1 1942.55 Q2597.74 1942.55 2599.54 1939.01 Q2601.37 1935.44 2601.37 1928.33 Q2601.37 1921.2 2599.54 1917.66 Q2597.74 1914.1 2594.1 1914.1 M2594.1 1910.39 Q2599.91 1910.39 2602.97 1915 Q2606.05 1919.58 2606.05 1928.33 Q2606.05 1937.06 2602.97 1941.67 Q2599.91 1946.25 2594.1 1946.25 Q2588.29 1946.25 2585.21 1941.67 Q2582.16 1937.06 2582.16 1928.33 Q2582.16 1919.58 2585.21 1915 Q2588.29 1910.39 2594.1 1910.39 Z" fill="#000000" fill-rule="nonzero" fill-opacity="1"></path><path clip-path="url(#clip180)" d="M2669.76 1941.64 L2686.08 1941.64 L2686.08 1945.58 L2664.14 1945.58 L2664.14 1941.64 Q2666.8 1938.89 2671.38 1934.26 Q2675.99 1929.61 2677.17 1928.26 Q2679.42 1925.74 2680.3 1924.01 Q2681.2 1922.25 2681.2 1920.56 Q2681.2 1917.8 2679.25 1916.07 Q2677.33 1914.33 2674.23 1914.33 Q2672.03 1914.33 2669.58 1915.09 Q2667.15 1915.86 2664.37 1917.41 L2664.37 1912.69 Q2667.19 1911.55 2669.65 1910.97 Q2672.1 1910.39 2674.14 1910.39 Q2679.51 1910.39 2682.7 1913.08 Q2685.9 1915.76 2685.9 1920.26 Q2685.9 1922.38 2685.09 1924.31 Q2684.3 1926.2 2682.19 1928.8 Q2681.62 1929.47 2678.51 1932.69 Q2675.41 1935.88 2669.76 1941.64 Z" fill="#000000" fill-rule="nonzero" fill-opacity="1"></path><path clip-path="url(#clip180)" d="M2705.9 1914.1 Q2702.29 1914.1 2700.46 1917.66 Q2698.65 1921.2 2698.65 1928.33 Q2698.65 1935.44 2700.46 1939.01 Q2702.29 1942.55 2705.9 1942.55 Q2709.53 1942.55 2711.34 1939.01 Q2713.17 1935.44 2713.17 1928.33 Q2713.17 1921.2 2711.34 1917.66 Q2709.53 1914.1 2705.9 1914.1 M2705.9 1910.39 Q2711.71 1910.39 2714.76 1915 Q2717.84 1919.58 2717.84 1928.33 Q2717.84 1937.06 2714.76 1941.67 Q2711.71 1946.25 2705.9 1946.25 Q2700.09 1946.25 2697.01 1941.67 Q2693.95 1937.06 2693.95 1928.33 Q2693.95 1919.58 2697.01 1915 Q2700.09 1910.39 2705.9 1910.39 Z" fill="#000000" fill-rule="nonzero" fill-opacity="1"></path><path clip-path="url(#clip180)" d="M2730.09 1941.64 L2746.41 1941.64 L2746.41 1945.58 L2724.46 1945.58 L2724.46 1941.64 Q2727.12 1938.89 2731.71 1934.26 Q2736.31 1929.61 2737.5 1928.26 Q2739.74 1925.74 2740.62 1924.01 Q2741.52 1922.25 2741.52 1920.56 Q2741.52 1917.8 2739.58 1916.07 Q2737.66 1914.33 2734.56 1914.33 Q2732.36 1914.33 2729.9 1915.09 Q2727.47 1915.86 2724.69 1917.41 L2724.69 1912.69 Q2727.52 1911.55 2729.97 1910.97 Q2732.43 1910.39 2734.46 1910.39 Q2739.83 1910.39 2743.03 1913.08 Q2746.22 1915.76 2746.22 1920.26 Q2746.22 1922.38 2745.41 1924.31 Q2744.62 1926.2 2742.52 1928.8 Q2741.94 1929.47 2738.84 1932.69 Q2735.74 1935.88 2730.09 1941.64 Z" fill="#000000" fill-rule="nonzero" fill-opacity="1"></path><path clip-path="url(#clip180)" d="M2769.07 1915.09 L2757.26 1933.54 L2769.07 1933.54 L2769.07 1915.09 M2767.84 1911.02 L2773.72 1911.02 L2773.72 1933.54 L2778.65 1933.54 L2778.65 1937.43 L2773.72 1937.43 L2773.72 1945.58 L2769.07 1945.58 L2769.07 1937.43 L2753.47 1937.43 L2753.47 1932.92 L2767.84 1911.02 Z" fill="#000000" fill-rule="nonzero" fill-opacity="1"></path><polyline clip-path="url(#clip182)" style="stroke:#000000; stroke-linecap:round; stroke-linejoin:round; stroke-width:2; stroke-opacity:0.1; fill:none" points="114.881,1515.58 2752.76,1515.58 "></polyline>
<polyline clip-path="url(#clip182)" style="stroke:#000000; stroke-linecap:round; stroke-linejoin:round; stroke-width:2; stroke-opacity:0.1; fill:none" points="114.881,1114.12 2752.76,1114.12 "></polyline>
<polyline clip-path="url(#clip182)" style="stroke:#000000; stroke-linecap:round; stroke-linejoin:round; stroke-width:2; stroke-opacity:0.1; fill:none" points="114.881,712.664 2752.76,712.664 "></polyline>
<polyline clip-path="url(#clip182)" style="stroke:#000000; stroke-linecap:round; stroke-linejoin:round; stroke-width:2; stroke-opacity:0.1; fill:none" points="114.881,311.207 2752.76,311.207 "></polyline>
<polyline clip-path="url(#clip180)" style="stroke:#000000; stroke-linecap:round; stroke-linejoin:round; stroke-width:4; stroke-opacity:1; fill:none" points="114.881,1879.98 114.881,47.2441 "></polyline>
<polyline clip-path="url(#clip180)" style="stroke:#000000; stroke-linecap:round; stroke-linejoin:round; stroke-width:4; stroke-opacity:1; fill:none" points="2752.76,1879.98 2752.76,47.2441 "></polyline>
<polyline clip-path="url(#clip180)" style="stroke:#000000; stroke-linecap:round; stroke-linejoin:round; stroke-width:4; stroke-opacity:1; fill:none" points="114.881,1515.58 133.779,1515.58 "></polyline>
<polyline clip-path="url(#clip180)" style="stroke:#000000; stroke-linecap:round; stroke-linejoin:round; stroke-width:4; stroke-opacity:1; fill:none" points="114.881,1114.12 133.779,1114.12 "></polyline>
<polyline clip-path="url(#clip180)" style="stroke:#000000; stroke-linecap:round; stroke-linejoin:round; stroke-width:4; stroke-opacity:1; fill:none" points="114.881,712.664 133.779,712.664 "></polyline>
<polyline clip-path="url(#clip180)" style="stroke:#000000; stroke-linecap:round; stroke-linejoin:round; stroke-width:4; stroke-opacity:1; fill:none" points="114.881,311.207 133.779,311.207 "></polyline>
<path clip-path="url(#clip180)" d="M60.9365 1501.38 Q57.3254 1501.38 55.4967 1504.94 Q53.6912 1508.48 53.6912 1515.61 Q53.6912 1522.72 55.4967 1526.28 Q57.3254 1529.82 60.9365 1529.82 Q64.5707 1529.82 66.3763 1526.28 Q68.205 1522.72 68.205 1515.61 Q68.205 1508.48 66.3763 1504.94 Q64.5707 1501.38 60.9365 1501.38 M60.9365 1497.67 Q66.7467 1497.67 69.8022 1502.28 Q72.8809 1506.86 72.8809 1515.61 Q72.8809 1524.34 69.8022 1528.94 Q66.7467 1533.53 60.9365 1533.53 Q55.1264 1533.53 52.0477 1528.94 Q48.9921 1524.34 48.9921 1515.61 Q48.9921 1506.86 52.0477 1502.28 Q55.1264 1497.67 60.9365 1497.67 Z" fill="#000000" fill-rule="nonzero" fill-opacity="1"></path><path clip-path="url(#clip180)" d="M65.7513 1112.77 Q69.1078 1113.48 70.9827 1115.75 Q72.8809 1118.02 72.8809 1121.35 Q72.8809 1126.47 69.3624 1129.27 Q65.8439 1132.07 59.3624 1132.07 Q57.1865 1132.07 54.8717 1131.63 Q52.5801 1131.21 50.1264 1130.36 L50.1264 1125.84 Q52.0708 1126.98 54.3856 1127.56 Q56.7004 1128.14 59.2236 1128.14 Q63.6217 1128.14 65.9133 1126.4 Q68.2281 1124.66 68.2281 1121.35 Q68.2281 1118.3 66.0754 1116.59 Q63.9457 1114.85 60.1263 1114.85 L56.0986 1114.85 L56.0986 1111.01 L60.3115 1111.01 Q63.7606 1111.01 65.5893 1109.64 Q67.418 1108.25 67.418 1105.66 Q67.418 1103 65.5198 1101.59 Q63.6448 1100.15 60.1263 1100.15 Q58.205 1100.15 56.006 1100.57 Q53.8069 1100.98 51.168 1101.86 L51.168 1097.7 Q53.8301 1096.96 56.1449 1096.59 Q58.4828 1096.22 60.543 1096.22 Q65.867 1096.22 68.9689 1098.65 Q72.0707 1101.05 72.0707 1105.17 Q72.0707 1108.04 70.4272 1110.03 Q68.7837 1112 65.7513 1112.77 Z" fill="#000000" fill-rule="nonzero" fill-opacity="1"></path><path clip-path="url(#clip180)" d="M61.3532 710.8 Q58.205 710.8 56.3532 712.953 Q54.5245 715.106 54.5245 718.856 Q54.5245 722.583 56.3532 724.759 Q58.205 726.911 61.3532 726.911 Q64.5013 726.911 66.33 724.759 Q68.1818 722.583 68.1818 718.856 Q68.1818 715.106 66.33 712.953 Q64.5013 710.8 61.3532 710.8 M70.6355 696.148 L70.6355 700.407 Q68.8763 699.573 67.0707 699.134 Q65.2883 698.694 63.5291 698.694 Q58.8995 698.694 56.4458 701.819 Q54.0152 704.944 53.668 711.263 Q55.0338 709.249 57.0939 708.185 Q59.1541 707.097 61.6309 707.097 Q66.8393 707.097 69.8485 710.268 Q72.8809 713.416 72.8809 718.856 Q72.8809 724.18 69.7328 727.397 Q66.5846 730.615 61.3532 730.615 Q55.3578 730.615 52.1866 726.032 Q49.0153 721.425 49.0153 712.698 Q49.0153 704.504 52.9041 699.643 Q56.793 694.759 63.3439 694.759 Q65.1032 694.759 66.8855 695.106 Q68.6911 695.453 70.6355 696.148 Z" fill="#000000" fill-rule="nonzero" fill-opacity="1"></path><path clip-path="url(#clip180)" d="M51.2606 327.77 L51.2606 323.51 Q53.0199 324.344 54.8254 324.784 Q56.631 325.223 58.3671 325.223 Q62.9967 325.223 65.4272 322.122 Q67.8809 318.997 68.2281 312.654 Q66.8855 314.645 64.8254 315.71 Q62.7652 316.774 60.2652 316.774 Q55.0801 316.774 52.0477 313.649 Q49.0384 310.501 49.0384 305.061 Q49.0384 299.737 52.1866 296.52 Q55.3347 293.302 60.5661 293.302 Q66.5615 293.302 69.7096 297.909 Q72.8809 302.492 72.8809 311.242 Q72.8809 319.413 68.992 324.297 Q65.1263 329.159 58.5754 329.159 Q56.8162 329.159 55.0106 328.811 Q53.2051 328.464 51.2606 327.77 M60.5661 313.117 Q63.7143 313.117 65.543 310.964 Q67.3948 308.811 67.3948 305.061 Q67.3948 301.335 65.543 299.182 Q63.7143 297.006 60.5661 297.006 Q57.418 297.006 55.5662 299.182 Q53.7375 301.335 53.7375 305.061 Q53.7375 308.811 55.5662 310.964 Q57.418 313.117 60.5661 313.117 Z" fill="#000000" fill-rule="nonzero" fill-opacity="1"></path><path clip-path="url(#clip182)" d="M189.538 1349.31 L200.391 1338.62 L211.245 1314.55 L221.981 1298.89 L232.599 1284.01 L243.452 1292.5 L254.306 1280.8 L265.042 1283.13 L275.659 1304.19 L286.513 1331.54 L297.367 1322.69 L308.102 1299.39 L318.838 1248.75 L329.692 1203.93 L340.546 1186.43 L351.281 1163.23 L361.899 1111.66 L372.753 1066.56 L383.606 1038.15 L394.342 1050.78 L404.96 1072.19 L415.813 1110.97 L426.667 1163.43 L437.403 1237.39 L448.021 1260.5 L458.874 1285.07 L469.728 1279.49 L480.464 1297.9 L491.199 1298.76 L502.053 1258.09 L512.907 1226.98 L523.642 1166.51 L534.26 1084.29 L545.114 1021.35 L555.968 950.991 L566.703 917.948 L577.321 928.221 L588.175 892.311 L599.028 914.463 L609.764 1002.29 L620.382 1112.59 L631.236 1152.76 L642.089 1161.85 L652.825 1195.28 L663.561 1215.18 L674.414 1236.46 L685.268 1244.56 L696.004 1246.24 L706.621 1231.15 L717.475 1193.05 L728.329 1153.83 L739.065 1121.73 L749.682 1067.44 L760.536 977.196 L771.39 935.257 L782.125 862.488 L792.743 815.936 L803.597 763.232 L814.45 688.304 L825.186 598.017 L835.922 537.077 L846.776 563.988 L857.629 541.894 L868.365 374.45 L878.983 307.019 L889.836 297.316 L900.69 312.941 L911.426 442.279 L922.044 498.59 L932.897 540.542 L943.751 664.618 L954.487 745.651 L965.104 777.715 L975.958 780.071 L986.812 775.295 L997.547 774.186 L1008.28 772.431 L1019.14 766.322 L1029.99 782.051 L1040.73 848.514 L1051.34 898.057 L1062.2 940.603 L1073.05 964.399 L1083.79 995.431 L1094.4 1028.84 L1105.26 1072.43 L1116.11 1101.17 L1126.85 1116.12 L1137.47 1116.11 L1148.32 1098.88 L1159.17 1084.96 L1169.91 1063.78 L1180.64 1060.97 L1191.5 1025.1 L1202.35 991.401 L1213.09 950.6 L1223.71 920.479 L1234.56 913.442 L1245.41 933.62 L1256.15 965.58 L1266.77 993.047 L1277.62 1022.82 L1288.47 1061.64 L1299.21 1116.84 L1309.83 1171.73 L1320.68 1206.98 L1331.53 1249.71 L1342.27 1299.67 L1353.01 1337.55 L1363.86 1372.74 L1374.71 1407.63 L1385.45 1431.57 L1396.07 1450.9 L1406.92 1450.93 L1417.77 1444.52 L1428.51 1423.76 L1439.13 1401.32 L1449.98 1361.13 L1460.83 1330.54 L1471.57 1288.45 L1482.19 1261.57 L1493.04 1243.89 L1503.9 1233.95 L1514.63 1233.2 L1525.37 1235.91 L1536.22 1230.39 L1547.07 1236.72 L1557.81 1236.56 L1568.43 1238.03 L1579.28 1219.79 L1590.14 1221.11 L1600.87 1226.15 L1611.49 1226.76 L1622.34 1230.97 L1633.2 1233.85 L1643.93 1248.52 L1654.55 1263.62 L1665.4 1264.31 L1676.26 1250.85 L1686.99 1240.49 L1697.73 1249.97 L1708.58 1219.72 L1719.44 1239.48 L1730.17 1263.32 L1740.79 1324.77 L1751.64 1387.57 L1762.5 1462.11 L1773.23 1522.93 L1783.85 1559.7 L1794.7 1588.12 L1805.56 1611.9 L1816.29 1634.35 L1826.91 1645.91 L1837.76 1641.2 L1848.62 1637.14 L1859.35 1639.83 L1870.09 1636.71 L1880.94 1624.08 L1891.8 1595.81 L1902.53 1560.11 L1913.15 1521.16 L1924 1488.04 L1934.86 1446.48 L1945.59 1408.85 L1956.21 1367.52 L1967.06 1350.41 L1977.92 1333.99 L1988.65 1323.29 L1999.27 1332.91 L2010.13 1344.73 L2020.98 1376.96 L2031.71 1430.58 L2042.45 1511.69 L2053.3 1583.44 L2064.16 1656.72 L2074.89 1741.65 L2085.51 1766.7 L2096.37 1771.49 L2107.22 1769.29 L2117.95 1762.8 L2128.57 1764.91 L2139.43 1761.79 L2150.28 1766.44 L2161.02 1773.29 L2171.63 1782.28 L2182.49 1779.06 L2193.34 1785.6 L2204.08 1776.36 L2214.81 1783.77 L2225.67 1782.38 L2236.52 1785.52 L2247.25 1784.98 L2257.87 1777.74 L2268.73 1782.35 L2279.58 1776.8 L2290.32 1777.05 L2300.93 1783.84 L2311.79 1766.45 L2322.64 1765.35 L2333.38 1771.94 L2343.99 1771.4 L2354.85 1771.79 L2365.7 1773.32 L2376.44 1770.96 L2387.17 1758.84 L2398.03 1751.84 L2408.88 1739.52 L2419.62 1727.22 L2430.23 1706.69 L2441.09 1689.39 L2451.94 1668.54 L2462.68 1652.02 L2473.29 1639.42 L2484.15 1621.67 L2495 1609.18 L2505.74 1602.99 L2516.36 1593.62 L2527.21 1604.01 L2538.06 1627.69 L2548.8 1673.85 L2559.53 1731.78 L2570.39 1828.11 L2581.24 1680.03 L2591.98 1719.01 L2602.6 1713.15 L2613.45 1713.8 L2624.3 1721.62 L2635.04 1709.25 L2645.66 1714.55 L2656.51 1670.47 L2667.36 1602.04 L2678.1 1548.89 L2678.1 1350.69 L2667.36 1403.84 L2656.51 1472.26 L2645.66 1516.35 L2635.04 1511.05 L2624.3 1523.42 L2613.45 1515.6 L2602.6 1514.95 L2591.98 1520.81 L2581.24 1481.83 L2570.39 1629.91 L2559.53 1533.58 L2548.8 1475.65 L2538.06 1429.49 L2527.21 1405.81 L2516.36 1395.41 L2505.74 1404.78 L2495 1410.98 L2484.15 1423.47 L2473.29 1441.22 L2462.68 1453.82 L2451.94 1470.34 L2441.09 1491.19 L2430.23 1508.49 L2419.62 1529.02 L2408.88 1541.32 L2398.03 1553.64 L2387.17 1560.64 L2376.44 1572.76 L2365.7 1575.11 L2354.85 1573.59 L2343.99 1573.2 L2333.38 1573.74 L2322.64 1567.15 L2311.79 1568.25 L2300.93 1585.64 L2290.32 1578.85 L2279.58 1578.6 L2268.73 1584.15 L2257.87 1579.54 L2247.25 1586.78 L2236.52 1587.32 L2225.67 1584.18 L2214.81 1585.56 L2204.08 1578.16 L2193.34 1587.39 L2182.49 1580.86 L2171.63 1584.08 L2161.02 1575.09 L2150.28 1568.23 L2139.43 1563.59 L2128.57 1566.71 L2117.95 1564.6 L2107.22 1571.09 L2096.37 1573.29 L2085.51 1568.5 L2074.89 1543.45 L2064.16 1458.51 L2053.3 1385.24 L2042.45 1313.49 L2031.71 1232.38 L2020.98 1178.75 L2010.13 1146.53 L1999.27 1134.71 L1988.65 1125.09 L1977.92 1135.78 L1967.06 1152.21 L1956.21 1169.32 L1945.59 1210.65 L1934.86 1248.28 L1924 1289.83 L1913.15 1322.95 L1902.53 1361.91 L1891.8 1397.61 L1880.94 1425.87 L1870.09 1438.5 L1859.35 1441.63 L1848.62 1438.94 L1837.76 1443 L1826.91 1447.71 L1816.29 1436.15 L1805.56 1413.7 L1794.7 1389.92 L1783.85 1361.5 L1773.23 1324.73 L1762.5 1263.91 L1751.64 1189.37 L1740.79 1126.57 L1730.17 1065.12 L1719.44 1041.27 L1708.58 1021.52 L1697.73 1051.77 L1686.99 1042.28 L1676.26 1052.65 L1665.4 1066.11 L1654.55 1065.42 L1643.93 1050.32 L1633.2 1035.65 L1622.34 1032.77 L1611.49 1028.56 L1600.87 1027.95 L1590.14 1022.91 L1579.28 1021.59 L1568.43 1039.82 L1557.81 1038.36 L1547.07 1038.52 L1536.22 1032.18 L1525.37 1037.71 L1514.63 1035 L1503.9 1035.75 L1493.04 1045.69 L1482.19 1063.37 L1471.57 1090.25 L1460.83 1132.34 L1449.98 1162.93 L1439.13 1203.12 L1428.51 1225.56 L1417.77 1246.32 L1406.92 1252.73 L1396.07 1252.7 L1385.45 1233.36 L1374.71 1209.43 L1363.86 1174.53 L1353.01 1139.35 L1342.27 1101.47 L1331.53 1051.51 L1320.68 1008.78 L1309.83 973.526 L1299.21 918.636 L1288.47 863.436 L1277.62 824.623 L1266.77 794.845 L1256.15 767.379 L1245.41 735.419 L1234.56 715.24 L1223.71 722.278 L1213.09 752.398 L1202.35 793.199 L1191.5 826.895 L1180.64 862.77 L1169.91 865.579 L1159.17 886.761 L1148.32 900.68 L1137.47 917.904 L1126.85 917.923 L1116.11 902.964 L1105.26 874.233 L1094.4 830.636 L1083.79 797.229 L1073.05 766.197 L1062.2 742.401 L1051.34 699.855 L1040.73 650.313 L1029.99 583.849 L1019.14 568.12 L1008.28 574.229 L997.547 575.984 L986.812 577.094 L975.958 581.869 L965.104 579.513 L954.487 547.449 L943.751 466.416 L932.897 342.34 L922.044 300.389 L911.426 244.077 L900.69 114.74 L889.836 99.114 L878.983 108.818 L868.365 176.248 L857.629 343.693 L846.776 365.786 L835.922 338.875 L825.186 399.815 L814.45 490.102 L803.597 565.03 L792.743 617.735 L782.125 664.287 L771.39 737.055 L760.536 778.995 L749.682 869.234 L739.065 923.527 L728.329 955.626 L717.475 994.847 L706.621 1032.95 L696.004 1048.04 L685.268 1046.36 L674.414 1038.26 L663.561 1016.98 L652.825 997.076 L642.089 963.645 L631.236 954.56 L620.382 914.386 L609.764 804.086 L599.028 716.262 L588.175 694.11 L577.321 730.019 L566.703 719.747 L555.968 752.79 L545.114 823.146 L534.26 886.092 L523.642 968.311 L512.907 1028.78 L502.053 1059.89 L491.199 1100.56 L480.464 1099.7 L469.728 1081.28 L458.874 1086.86 L448.021 1062.29 L437.403 1039.19 L426.667 965.226 L415.813 912.77 L404.96 873.988 L394.342 852.576 L383.606 839.946 L372.753 868.361 L361.899 913.455 L351.281 965.027 L340.546 988.225 L329.692 1005.73 L318.838 1050.55 L308.102 1101.19 L297.367 1124.49 L286.513 1133.34 L275.659 1105.99 L265.042 1084.93 L254.306 1082.6 L243.452 1094.3 L232.599 1085.81 L221.981 1100.68 L211.245 1116.35 L200.391 1140.42 L189.538 1151.11  Z" fill="#009af9" fill-rule="evenodd" fill-opacity="0.5"></path>
<polyline clip-path="url(#clip182)" style="stroke:#009af9; stroke-linecap:round; stroke-linejoin:round; stroke-width:4; stroke-opacity:1; fill:none" points="189.538,1250.21 200.391,1239.52 211.245,1215.45 221.981,1199.78 232.599,1184.91 243.452,1193.4 254.306,1181.7 265.042,1184.03 275.659,1205.09 286.513,1232.44 297.367,1223.59 308.102,1200.29 318.838,1149.65 329.692,1104.83 340.546,1087.33 351.281,1064.13 361.899,1012.56 372.753,967.462 383.606,939.047 394.342,951.677 404.96,973.089 415.813,1011.87 426.667,1064.33 437.403,1138.29 448.021,1161.4 458.874,1185.97 469.728,1180.38 480.464,1198.8 491.199,1199.66 502.053,1158.99 512.907,1127.88 523.642,1067.41 534.26,985.192 545.114,922.247 555.968,851.891 566.703,818.847 577.321,829.12 588.175,793.21 599.028,815.363 609.764,903.187 620.382,1013.49 631.236,1053.66 642.089,1062.75 652.825,1096.18 663.561,1116.08 674.414,1137.36 685.268,1145.46 696.004,1147.14 706.621,1132.05 717.475,1093.95 728.329,1054.73 739.065,1022.63 749.682,968.335 760.536,878.096 771.39,836.156 782.125,763.388 792.743,716.835 803.597,664.131 814.45,589.203 825.186,498.916 835.922,437.976 846.776,464.887 857.629,442.794 868.365,275.349 878.983,207.919 889.836,198.215 900.69,213.841 911.426,343.178 922.044,399.489 932.897,441.441 943.751,565.517 954.487,646.55 965.104,678.614 975.958,680.97 986.812,676.194 997.547,675.085 1008.28,673.33 1019.14,667.221 1029.99,682.95 1040.73,749.414 1051.34,798.956 1062.2,841.502 1073.05,865.298 1083.79,896.33 1094.4,929.737 1105.26,973.334 1116.11,1002.07 1126.85,1017.02 1137.47,1017 1148.32,999.781 1159.17,985.861 1169.91,964.68 1180.64,961.871 1191.5,925.996 1202.35,892.3 1213.09,851.499 1223.71,821.379 1234.56,814.341 1245.41,834.519 1256.15,866.479 1266.77,893.946 1277.62,923.724 1288.47,962.537 1299.21,1017.74 1309.83,1072.63 1320.68,1107.88 1331.53,1150.61 1342.27,1200.57 1353.01,1238.45 1363.86,1273.64 1374.71,1308.53 1385.45,1332.47 1396.07,1351.8 1406.92,1351.83 1417.77,1345.42 1428.51,1324.66 1439.13,1302.22 1449.98,1262.03 1460.83,1231.44 1471.57,1189.35 1482.19,1162.47 1493.04,1144.79 1503.9,1134.85 1514.63,1134.1 1525.37,1136.81 1536.22,1131.28 1547.07,1137.62 1557.81,1137.46 1568.43,1138.92 1579.28,1120.69 1590.14,1122.01 1600.87,1127.05 1611.49,1127.66 1622.34,1131.87 1633.2,1134.75 1643.93,1149.42 1654.55,1164.52 1665.4,1165.21 1676.26,1151.75 1686.99,1141.39 1697.73,1150.87 1708.58,1120.62 1719.44,1140.38 1730.17,1164.22 1740.79,1225.67 1751.64,1288.47 1762.5,1363.01 1773.23,1423.83 1783.85,1460.6 1794.7,1489.02 1805.56,1512.8 1816.29,1535.25 1826.91,1546.81 1837.76,1542.1 1848.62,1538.04 1859.35,1540.73 1870.09,1537.61 1880.94,1524.97 1891.8,1496.71 1902.53,1461.01 1913.15,1422.05 1924,1388.93 1934.86,1347.38 1945.59,1309.75 1956.21,1268.42 1967.06,1251.31 1977.92,1234.88 1988.65,1224.19 1999.27,1233.81 2010.13,1245.63 2020.98,1277.85 2031.71,1331.48 2042.45,1412.59 2053.3,1484.34 2064.16,1557.61 2074.89,1642.55 2085.51,1667.6 2096.37,1672.39 2107.22,1670.19 2117.95,1663.7 2128.57,1665.81 2139.43,1662.69 2150.28,1667.33 2161.02,1674.19 2171.63,1683.18 2182.49,1679.96 2193.34,1686.5 2204.08,1677.26 2214.81,1684.67 2225.67,1683.28 2236.52,1686.42 2247.25,1685.88 2257.87,1678.64 2268.73,1683.25 2279.58,1677.7 2290.32,1677.95 2300.93,1684.74 2311.79,1667.35 2322.64,1666.25 2333.38,1672.84 2343.99,1672.3 2354.85,1672.69 2365.7,1674.21 2376.44,1671.86 2387.17,1659.74 2398.03,1652.74 2408.88,1640.42 2419.62,1628.12 2430.23,1607.59 2441.09,1590.29 2451.94,1569.44 2462.68,1552.92 2473.29,1540.32 2484.15,1522.57 2495,1510.08 2505.74,1503.88 2516.36,1494.52 2527.21,1504.91 2538.06,1528.59 2548.8,1574.75 2559.53,1632.68 2570.39,1729.01 2581.24,1580.93 2591.98,1619.91 2602.6,1614.05 2613.45,1614.7 2624.3,1622.52 2635.04,1610.15 2645.66,1615.45 2656.51,1571.36 2667.36,1502.94 2678.1,1449.79 "></polyline>
<path clip-path="url(#clip180)" d="M1713.03 212.015 L2664.83 212.015 L2664.83 108.335 L1713.03 108.335  Z" fill="#ffffff" fill-rule="evenodd" fill-opacity="1"></path>
<polyline clip-path="url(#clip180)" style="stroke:#000000; stroke-linecap:round; stroke-linejoin:round; stroke-width:4; stroke-opacity:1; fill:none" points="1713.03,212.015 2664.83,212.015 2664.83,108.335 1713.03,108.335 1713.03,212.015 "></polyline>
<polyline clip-path="url(#clip180)" style="stroke:#009af9; stroke-linecap:round; stroke-linejoin:round; stroke-width:4; stroke-opacity:1; fill:none" points="1742.34,160.175 1918.2,160.175 "></polyline>
<path clip-path="url(#clip180)" d="M1947.51 142.895 L1967.37 142.895 L1967.37 146.83 L1952.19 146.83 L1952.19 157.016 L1965.89 157.016 L1965.89 160.951 L1952.19 160.951 L1952.19 177.455 L1947.51 177.455 L1947.51 142.895 Z" fill="#000000" fill-rule="nonzero" fill-opacity="1"></path><path clip-path="url(#clip180)" d="M1971.15 151.529 L1975.4 151.529 L1975.4 177.455 L1971.15 177.455 L1971.15 151.529 M1971.15 141.437 L1975.4 141.437 L1975.4 146.83 L1971.15 146.83 L1971.15 141.437 Z" fill="#000000" fill-rule="nonzero" fill-opacity="1"></path><path clip-path="url(#clip180)" d="M1984.32 141.437 L1988.58 141.437 L1988.58 177.455 L1984.32 177.455 L1984.32 141.437 Z" fill="#000000" fill-rule="nonzero" fill-opacity="1"></path><path clip-path="url(#clip180)" d="M2001.7 144.168 L2001.7 151.529 L2010.47 151.529 L2010.47 154.84 L2001.7 154.84 L2001.7 168.914 Q2001.7 172.085 2002.56 172.988 Q2003.44 173.89 2006.1 173.89 L2010.47 173.89 L2010.47 177.455 L2006.1 177.455 Q2001.17 177.455 1999.29 175.627 Q1997.42 173.775 1997.42 168.914 L1997.42 154.84 L1994.29 154.84 L1994.29 151.529 L1997.42 151.529 L1997.42 144.168 L2001.7 144.168 Z" fill="#000000" fill-rule="nonzero" fill-opacity="1"></path><path clip-path="url(#clip180)" d="M2038.25 163.428 L2038.25 165.511 L2018.67 165.511 Q2018.95 169.909 2021.31 172.224 Q2023.69 174.515 2027.93 174.515 Q2030.38 174.515 2032.67 173.914 Q2034.99 173.312 2037.26 172.108 L2037.26 176.136 Q2034.96 177.108 2032.56 177.617 Q2030.15 178.127 2027.67 178.127 Q2021.47 178.127 2017.84 174.515 Q2014.22 170.904 2014.22 164.747 Q2014.22 158.381 2017.65 154.654 Q2021.1 150.904 2026.93 150.904 Q2032.16 150.904 2035.2 154.284 Q2038.25 157.641 2038.25 163.428 M2033.99 162.178 Q2033.95 158.682 2032.02 156.599 Q2030.13 154.516 2026.98 154.516 Q2023.41 154.516 2021.26 156.529 Q2019.13 158.543 2018.81 162.201 L2033.99 162.178 Z" fill="#000000" fill-rule="nonzero" fill-opacity="1"></path><path clip-path="url(#clip180)" d="M2060.27 155.511 Q2059.55 155.094 2058.69 154.909 Q2057.86 154.701 2056.84 154.701 Q2053.23 154.701 2051.28 157.062 Q2049.36 159.4 2049.36 163.798 L2049.36 177.455 L2045.08 177.455 L2045.08 151.529 L2049.36 151.529 L2049.36 155.557 Q2050.71 153.196 2052.86 152.062 Q2055.01 150.904 2058.09 150.904 Q2058.53 150.904 2059.06 150.974 Q2059.59 151.02 2060.24 151.136 L2060.27 155.511 Z" fill="#000000" fill-rule="nonzero" fill-opacity="1"></path><path clip-path="url(#clip180)" d="M2085.87 163.428 L2085.87 165.511 L2066.28 165.511 Q2066.56 169.909 2068.92 172.224 Q2071.31 174.515 2075.54 174.515 Q2078 174.515 2080.29 173.914 Q2082.6 173.312 2084.87 172.108 L2084.87 176.136 Q2082.58 177.108 2080.17 177.617 Q2077.77 178.127 2075.29 178.127 Q2069.08 178.127 2065.45 174.515 Q2061.84 170.904 2061.84 164.747 Q2061.84 158.381 2065.27 154.654 Q2068.71 150.904 2074.55 150.904 Q2079.78 150.904 2082.81 154.284 Q2085.87 157.641 2085.87 163.428 M2081.61 162.178 Q2081.56 158.682 2079.64 156.599 Q2077.74 154.516 2074.59 154.516 Q2071.03 154.516 2068.88 156.529 Q2066.75 158.543 2066.42 162.201 L2081.61 162.178 Z" fill="#000000" fill-rule="nonzero" fill-opacity="1"></path><path clip-path="url(#clip180)" d="M2109.92 155.465 L2109.92 141.437 L2114.18 141.437 L2114.18 177.455 L2109.92 177.455 L2109.92 173.566 Q2108.58 175.881 2106.52 177.015 Q2104.48 178.127 2101.61 178.127 Q2096.91 178.127 2093.95 174.377 Q2091.01 170.627 2091.01 164.516 Q2091.01 158.404 2093.95 154.654 Q2096.91 150.904 2101.61 150.904 Q2104.48 150.904 2106.52 152.039 Q2108.58 153.15 2109.92 155.465 M2095.4 164.516 Q2095.4 169.215 2097.33 171.9 Q2099.27 174.562 2102.65 174.562 Q2106.03 174.562 2107.97 171.9 Q2109.92 169.215 2109.92 164.516 Q2109.92 159.816 2107.97 157.154 Q2106.03 154.469 2102.65 154.469 Q2099.27 154.469 2097.33 157.154 Q2095.4 159.816 2095.4 164.516 Z" fill="#000000" fill-rule="nonzero" fill-opacity="1"></path><path clip-path="url(#clip180)" d="M2159.57 161.807 L2159.57 177.455 L2155.31 177.455 L2155.31 161.946 Q2155.31 158.266 2153.88 156.437 Q2152.44 154.608 2149.57 154.608 Q2146.12 154.608 2144.13 156.807 Q2142.14 159.006 2142.14 162.803 L2142.14 177.455 L2137.86 177.455 L2137.86 151.529 L2142.14 151.529 L2142.14 155.557 Q2143.67 153.219 2145.73 152.062 Q2147.81 150.904 2150.52 150.904 Q2154.99 150.904 2157.28 153.682 Q2159.57 156.437 2159.57 161.807 Z" fill="#000000" fill-rule="nonzero" fill-opacity="1"></path><path clip-path="url(#clip180)" d="M2179.85 164.423 Q2174.69 164.423 2172.7 165.603 Q2170.7 166.784 2170.7 169.631 Q2170.7 171.9 2172.19 173.242 Q2173.69 174.562 2176.26 174.562 Q2179.8 174.562 2181.93 172.062 Q2184.08 169.539 2184.08 165.372 L2184.08 164.423 L2179.85 164.423 M2188.34 162.664 L2188.34 177.455 L2184.08 177.455 L2184.08 173.52 Q2182.63 175.881 2180.45 177.015 Q2178.27 178.127 2175.13 178.127 Q2171.14 178.127 2168.78 175.904 Q2166.45 173.659 2166.45 169.909 Q2166.45 165.534 2169.36 163.312 Q2172.3 161.09 2178.11 161.09 L2184.08 161.09 L2184.08 160.673 Q2184.08 157.733 2182.14 156.136 Q2180.22 154.516 2176.72 154.516 Q2174.5 154.516 2172.39 155.048 Q2170.29 155.58 2168.34 156.645 L2168.34 152.71 Q2170.68 151.807 2172.88 151.367 Q2175.08 150.904 2177.16 150.904 Q2182.79 150.904 2185.57 153.821 Q2188.34 156.738 2188.34 162.664 Z" fill="#000000" fill-rule="nonzero" fill-opacity="1"></path><path clip-path="url(#clip180)" d="M2201.33 144.168 L2201.33 151.529 L2210.1 151.529 L2210.1 154.84 L2201.33 154.84 L2201.33 168.914 Q2201.33 172.085 2202.19 172.988 Q2203.07 173.89 2205.73 173.89 L2210.1 173.89 L2210.1 177.455 L2205.73 177.455 Q2200.8 177.455 2198.92 175.627 Q2197.05 173.775 2197.05 168.914 L2197.05 154.84 L2193.92 154.84 L2193.92 151.529 L2197.05 151.529 L2197.05 144.168 L2201.33 144.168 Z" fill="#000000" fill-rule="nonzero" fill-opacity="1"></path><path clip-path="url(#clip180)" d="M2215.26 167.224 L2215.26 151.529 L2219.52 151.529 L2219.52 167.062 Q2219.52 170.742 2220.96 172.594 Q2222.39 174.423 2225.26 174.423 Q2228.71 174.423 2230.7 172.224 Q2232.72 170.025 2232.72 166.228 L2232.72 151.529 L2236.98 151.529 L2236.98 177.455 L2232.72 177.455 L2232.72 173.474 Q2231.17 175.835 2229.11 176.992 Q2227.07 178.127 2224.36 178.127 Q2219.89 178.127 2217.58 175.349 Q2215.26 172.571 2215.26 167.224 M2225.98 150.904 L2225.98 150.904 Z" fill="#000000" fill-rule="nonzero" fill-opacity="1"></path><path clip-path="url(#clip180)" d="M2260.77 155.511 Q2260.06 155.094 2259.2 154.909 Q2258.37 154.701 2257.35 154.701 Q2253.74 154.701 2251.79 157.062 Q2249.87 159.4 2249.87 163.798 L2249.87 177.455 L2245.59 177.455 L2245.59 151.529 L2249.87 151.529 L2249.87 155.557 Q2251.21 153.196 2253.37 152.062 Q2255.52 150.904 2258.6 150.904 Q2259.04 150.904 2259.57 150.974 Q2260.1 151.02 2260.75 151.136 L2260.77 155.511 Z" fill="#000000" fill-rule="nonzero" fill-opacity="1"></path><path clip-path="url(#clip180)" d="M2277.02 164.423 Q2271.86 164.423 2269.87 165.603 Q2267.88 166.784 2267.88 169.631 Q2267.88 171.9 2269.36 173.242 Q2270.87 174.562 2273.44 174.562 Q2276.98 174.562 2279.11 172.062 Q2281.26 169.539 2281.26 165.372 L2281.26 164.423 L2277.02 164.423 M2285.52 162.664 L2285.52 177.455 L2281.26 177.455 L2281.26 173.52 Q2279.8 175.881 2277.63 177.015 Q2275.45 178.127 2272.3 178.127 Q2268.32 178.127 2265.96 175.904 Q2263.62 173.659 2263.62 169.909 Q2263.62 165.534 2266.54 163.312 Q2269.48 161.09 2275.29 161.09 L2281.26 161.09 L2281.26 160.673 Q2281.26 157.733 2279.32 156.136 Q2277.39 154.516 2273.9 154.516 Q2271.68 154.516 2269.57 155.048 Q2267.46 155.58 2265.52 156.645 L2265.52 152.71 Q2267.86 151.807 2270.06 151.367 Q2272.26 150.904 2274.34 150.904 Q2279.96 150.904 2282.74 153.821 Q2285.52 156.738 2285.52 162.664 Z" fill="#000000" fill-rule="nonzero" fill-opacity="1"></path><path clip-path="url(#clip180)" d="M2294.29 141.437 L2298.55 141.437 L2298.55 177.455 L2294.29 177.455 L2294.29 141.437 Z" fill="#000000" fill-rule="nonzero" fill-opacity="1"></path><path clip-path="url(#clip180)" d="M2337.56 155.511 Q2336.84 155.094 2335.98 154.909 Q2335.15 154.701 2334.13 154.701 Q2330.52 154.701 2328.57 157.062 Q2326.65 159.4 2326.65 163.798 L2326.65 177.455 L2322.37 177.455 L2322.37 151.529 L2326.65 151.529 L2326.65 155.557 Q2328 153.196 2330.15 152.062 Q2332.3 150.904 2335.38 150.904 Q2335.82 150.904 2336.35 150.974 Q2336.88 151.02 2337.53 151.136 L2337.56 155.511 Z" fill="#000000" fill-rule="nonzero" fill-opacity="1"></path><path clip-path="url(#clip180)" d="M2353.81 164.423 Q2348.64 164.423 2346.65 165.603 Q2344.66 166.784 2344.66 169.631 Q2344.66 171.9 2346.14 173.242 Q2347.65 174.562 2350.22 174.562 Q2353.76 174.562 2355.89 172.062 Q2358.04 169.539 2358.04 165.372 L2358.04 164.423 L2353.81 164.423 M2362.3 162.664 L2362.3 177.455 L2358.04 177.455 L2358.04 173.52 Q2356.58 175.881 2354.41 177.015 Q2352.23 178.127 2349.08 178.127 Q2345.1 178.127 2342.74 175.904 Q2340.4 173.659 2340.4 169.909 Q2340.4 165.534 2343.32 163.312 Q2346.26 161.09 2352.07 161.09 L2358.04 161.09 L2358.04 160.673 Q2358.04 157.733 2356.1 156.136 Q2354.18 154.516 2350.68 154.516 Q2348.46 154.516 2346.35 155.048 Q2344.25 155.58 2342.3 156.645 L2342.3 152.71 Q2344.64 151.807 2346.84 151.367 Q2349.04 150.904 2351.12 150.904 Q2356.75 150.904 2359.52 153.821 Q2362.3 156.738 2362.3 162.664 Z" fill="#000000" fill-rule="nonzero" fill-opacity="1"></path><path clip-path="url(#clip180)" d="M2375.29 144.168 L2375.29 151.529 L2384.06 151.529 L2384.06 154.84 L2375.29 154.84 L2375.29 168.914 Q2375.29 172.085 2376.14 172.988 Q2377.02 173.89 2379.69 173.89 L2384.06 173.89 L2384.06 177.455 L2379.69 177.455 Q2374.75 177.455 2372.88 175.627 Q2371 173.775 2371 168.914 L2371 154.84 L2367.88 154.84 L2367.88 151.529 L2371 151.529 L2371 144.168 L2375.29 144.168 Z" fill="#000000" fill-rule="nonzero" fill-opacity="1"></path><path clip-path="url(#clip180)" d="M2411.84 163.428 L2411.84 165.511 L2392.25 165.511 Q2392.53 169.909 2394.89 172.224 Q2397.28 174.515 2401.51 174.515 Q2403.97 174.515 2406.26 173.914 Q2408.57 173.312 2410.84 172.108 L2410.84 176.136 Q2408.55 177.108 2406.14 177.617 Q2403.74 178.127 2401.26 178.127 Q2395.06 178.127 2391.42 174.515 Q2387.81 170.904 2387.81 164.747 Q2387.81 158.381 2391.24 154.654 Q2394.68 150.904 2400.52 150.904 Q2405.75 150.904 2408.78 154.284 Q2411.84 157.641 2411.84 163.428 M2407.58 162.178 Q2407.53 158.682 2405.61 156.599 Q2403.71 154.516 2400.56 154.516 Q2397 154.516 2394.85 156.529 Q2392.72 158.543 2392.39 162.201 L2407.58 162.178 Z" fill="#000000" fill-rule="nonzero" fill-opacity="1"></path><path clip-path="url(#clip180)" d="M2456.07 163.428 L2456.07 165.511 L2436.49 165.511 Q2436.77 169.909 2439.13 172.224 Q2441.51 174.515 2445.75 174.515 Q2448.2 174.515 2450.49 173.914 Q2452.81 173.312 2455.08 172.108 L2455.08 176.136 Q2452.79 177.108 2450.38 177.617 Q2447.97 178.127 2445.49 178.127 Q2439.29 178.127 2435.66 174.515 Q2432.05 170.904 2432.05 164.747 Q2432.05 158.381 2435.47 154.654 Q2438.92 150.904 2444.75 150.904 Q2449.99 150.904 2453.02 154.284 Q2456.07 157.641 2456.07 163.428 M2451.81 162.178 Q2451.77 158.682 2449.85 156.599 Q2447.95 154.516 2444.8 154.516 Q2441.24 154.516 2439.08 156.529 Q2436.95 158.543 2436.63 162.201 L2451.81 162.178 Z" fill="#000000" fill-rule="nonzero" fill-opacity="1"></path><path clip-path="url(#clip180)" d="M2479.59 152.293 L2479.59 156.321 Q2477.79 155.395 2475.84 154.932 Q2473.9 154.469 2471.81 154.469 Q2468.64 154.469 2467.05 155.441 Q2465.47 156.414 2465.47 158.358 Q2465.47 159.84 2466.61 160.696 Q2467.74 161.529 2471.17 162.293 L2472.62 162.617 Q2477.16 163.59 2479.06 165.372 Q2480.98 167.131 2480.98 170.303 Q2480.98 173.914 2478.11 176.02 Q2475.26 178.127 2470.26 178.127 Q2468.18 178.127 2465.91 177.71 Q2463.67 177.316 2461.17 176.506 L2461.17 172.108 Q2463.53 173.335 2465.82 173.96 Q2468.11 174.562 2470.36 174.562 Q2473.37 174.562 2474.99 173.543 Q2476.61 172.502 2476.61 170.627 Q2476.61 168.89 2475.43 167.965 Q2474.27 167.039 2470.31 166.182 L2468.83 165.835 Q2464.87 165.002 2463.11 163.289 Q2461.35 161.553 2461.35 158.543 Q2461.35 154.886 2463.94 152.895 Q2466.54 150.904 2471.3 150.904 Q2473.67 150.904 2475.75 151.252 Q2477.83 151.599 2479.59 152.293 Z" fill="#000000" fill-rule="nonzero" fill-opacity="1"></path><path clip-path="url(#clip180)" d="M2491.98 144.168 L2491.98 151.529 L2500.75 151.529 L2500.75 154.84 L2491.98 154.84 L2491.98 168.914 Q2491.98 172.085 2492.83 172.988 Q2493.71 173.89 2496.37 173.89 L2500.75 173.89 L2500.75 177.455 L2496.37 177.455 Q2491.44 177.455 2489.57 175.627 Q2487.69 173.775 2487.69 168.914 L2487.69 154.84 L2484.57 154.84 L2484.57 151.529 L2487.69 151.529 L2487.69 144.168 L2491.98 144.168 Z" fill="#000000" fill-rule="nonzero" fill-opacity="1"></path><path clip-path="url(#clip180)" d="M2506.35 151.529 L2510.61 151.529 L2510.61 177.455 L2506.35 177.455 L2506.35 151.529 M2506.35 141.437 L2510.61 141.437 L2510.61 146.83 L2506.35 146.83 L2506.35 141.437 Z" fill="#000000" fill-rule="nonzero" fill-opacity="1"></path><path clip-path="url(#clip180)" d="M2539.71 156.506 Q2541.3 153.636 2543.53 152.27 Q2545.75 150.904 2548.76 150.904 Q2552.81 150.904 2555.01 153.752 Q2557.21 156.576 2557.21 161.807 L2557.21 177.455 L2552.92 177.455 L2552.92 161.946 Q2552.92 158.219 2551.61 156.414 Q2550.29 154.608 2547.58 154.608 Q2544.27 154.608 2542.35 156.807 Q2540.42 159.006 2540.42 162.803 L2540.42 177.455 L2536.14 177.455 L2536.14 161.946 Q2536.14 158.196 2534.82 156.414 Q2533.5 154.608 2530.75 154.608 Q2527.49 154.608 2525.56 156.83 Q2523.64 159.029 2523.64 162.803 L2523.64 177.455 L2519.36 177.455 L2519.36 151.529 L2523.64 151.529 L2523.64 155.557 Q2525.1 153.173 2527.14 152.039 Q2529.17 150.904 2531.98 150.904 Q2534.8 150.904 2536.77 152.34 Q2538.76 153.775 2539.71 156.506 Z" fill="#000000" fill-rule="nonzero" fill-opacity="1"></path><path clip-path="url(#clip180)" d="M2577.48 164.423 Q2572.32 164.423 2570.33 165.603 Q2568.34 166.784 2568.34 169.631 Q2568.34 171.9 2569.82 173.242 Q2571.33 174.562 2573.9 174.562 Q2577.44 174.562 2579.57 172.062 Q2581.72 169.539 2581.72 165.372 L2581.72 164.423 L2577.48 164.423 M2585.98 162.664 L2585.98 177.455 L2581.72 177.455 L2581.72 173.52 Q2580.26 175.881 2578.09 177.015 Q2575.91 178.127 2572.76 178.127 Q2568.78 178.127 2566.42 175.904 Q2564.08 173.659 2564.08 169.909 Q2564.08 165.534 2567 163.312 Q2569.94 161.09 2575.75 161.09 L2581.72 161.09 L2581.72 160.673 Q2581.72 157.733 2579.78 156.136 Q2577.86 154.516 2574.36 154.516 Q2572.14 154.516 2570.03 155.048 Q2567.92 155.58 2565.98 156.645 L2565.98 152.71 Q2568.32 151.807 2570.52 151.367 Q2572.72 150.904 2574.8 150.904 Q2580.42 150.904 2583.2 153.821 Q2585.98 156.738 2585.98 162.664 Z" fill="#000000" fill-rule="nonzero" fill-opacity="1"></path><path clip-path="url(#clip180)" d="M2598.97 144.168 L2598.97 151.529 L2607.74 151.529 L2607.74 154.84 L2598.97 154.84 L2598.97 168.914 Q2598.97 172.085 2599.82 172.988 Q2600.7 173.89 2603.36 173.89 L2607.74 173.89 L2607.74 177.455 L2603.36 177.455 Q2598.43 177.455 2596.56 175.627 Q2594.68 173.775 2594.68 168.914 L2594.68 154.84 L2591.56 154.84 L2591.56 151.529 L2594.68 151.529 L2594.68 144.168 L2598.97 144.168 Z" fill="#000000" fill-rule="nonzero" fill-opacity="1"></path><path clip-path="url(#clip180)" d="M2635.52 163.428 L2635.52 165.511 L2615.93 165.511 Q2616.21 169.909 2618.57 172.224 Q2620.96 174.515 2625.19 174.515 Q2627.65 174.515 2629.94 173.914 Q2632.25 173.312 2634.52 172.108 L2634.52 176.136 Q2632.23 177.108 2629.82 177.617 Q2627.42 178.127 2624.94 178.127 Q2618.73 178.127 2615.1 174.515 Q2611.49 170.904 2611.49 164.747 Q2611.49 158.381 2614.92 154.654 Q2618.36 150.904 2624.2 150.904 Q2629.43 150.904 2632.46 154.284 Q2635.52 157.641 2635.52 163.428 M2631.26 162.178 Q2631.21 158.682 2629.29 156.599 Q2627.39 154.516 2624.24 154.516 Q2620.68 154.516 2618.53 156.529 Q2616.4 158.543 2616.07 162.201 L2631.26 162.178 Z" fill="#000000" fill-rule="nonzero" fill-opacity="1"></path></svg>